solid model
facet normal -0.965925826289068 -0.258819045102521 0.0
outer loop
vertex 5.31259204458988 1.42350474806386 2.0
vertex 5.5 0.0 0.0
vertex 5.5 0.0 2.0
endloop
endfacet
facet normal -1.0 2.67333296869407e-016 0.0
outer loop
vertex 5.5 0.0 0.0
vertex 5.31259204458988 1.42350474806386 2.0
vertex 5.31259204458988 1.42350474806386 0.0
endloop
endfacet
facet normal -0.866025403784439 -0.5 0.0
outer loop
vertex 4.76313972081441 2.75 2.0
vertex 5.31259204458988 1.42350474806386 0.0
vertex 5.31259204458988 1.42350474806386 2.0
endloop
endfacet
facet normal -0.965925826289068 -0.258819045102521 0.0
outer loop
vertex 5.31259204458988 1.42350474806386 0.0
vertex 4.76313972081441 2.75 2.0
vertex 4.76313972081441 2.75 0.0
endloop
endfacet
facet normal -0.707106781186548 -0.707106781186548 0.0
outer loop
vertex 3.88908729652601 3.88908729652601 2.0
vertex 2.75 4.76313972081441 0.0
vertex 3.88908729652601 3.88908729652601 0.0
endloop
endfacet
facet normal -0.5 -0.866025403784439 0.0
outer loop
vertex 2.75 4.76313972081441 0.0
vertex 3.88908729652601 3.88908729652601 2.0
vertex 2.75 4.76313972081441 2.0
endloop
endfacet
facet normal -0.707106781186547 0.707106781186548 0.0
outer loop
vertex -4.94974746830583 4.94974746830583 2.0
vertex -6.06217782649107 3.5 0.0
vertex -6.06217782649107 3.5 2.0
endloop
endfacet
facet normal -0.866025403784439 0.5 0.0
outer loop
vertex -6.06217782649107 3.5 0.0
vertex -4.94974746830583 4.94974746830583 2.0
vertex -4.94974746830583 4.94974746830583 0.0
endloop
endfacet
facet normal -0.866025403784439 0.5 0.0
outer loop
vertex -6.06217782649107 3.5 2.0
vertex -6.76148078402348 1.81173331571765 0.0
vertex -6.76148078402348 1.81173331571765 2.0
endloop
endfacet
facet normal -0.965925826289068 0.258819045102521 0.0
outer loop
vertex -6.76148078402348 1.81173331571765 0.0
vertex -6.06217782649107 3.5 2.0
vertex -6.06217782649107 3.5 0.0
endloop
endfacet
facet normal -0.866025403784439 -0.5 0.0
outer loop
vertex -6.06217782649107 -3.5 2.0
vertex -4.94974746830583 -4.94974746830583 0.0
vertex -4.94974746830583 -4.94974746830583 2.0
endloop
endfacet
facet normal -0.707106781186548 -0.707106781186547 0.0
outer loop
vertex -4.94974746830583 -4.94974746830583 0.0
vertex -6.06217782649107 -3.5 2.0
vertex -6.06217782649107 -3.5 0.0
endloop
endfacet
facet normal -0.965925826289068 0.258819045102521 0.0
outer loop
vertex -6.76148078402348 1.81173331571765 2.0
vertex -7.0 1.40998324127395e-015 0.0
vertex -7.0 1.40998324127395e-015 2.0
endloop
endfacet
facet normal -1.0 2.5842218697376e-016 0.0
outer loop
vertex -7.0 1.40998324127395e-015 0.0
vertex -6.76148078402348 1.81173331571765 2.0
vertex -6.76148078402348 1.81173331571765 0.0
endloop
endfacet
facet normal -1.0 2.5842218697376e-016 0.0
outer loop
vertex -7.0 1.40998324127395e-015 2.0
vertex -6.76148078402348 -1.81173331571764 0.0
vertex -6.76148078402348 -1.81173331571764 2.0
endloop
endfacet
facet normal -0.965925826289069 -0.25881904510252 0.0
outer loop
vertex -6.76148078402348 -1.81173331571764 0.0
vertex -7.0 1.40998324127395e-015 2.0
vertex -7.0 1.40998324127395e-015 0.0
endloop
endfacet
facet normal -0.965925826289069 -0.25881904510252 0.0
outer loop
vertex -6.76148078402348 -1.81173331571764 2.0
vertex -6.06217782649107 -3.5 0.0
vertex -6.06217782649107 -3.5 2.0
endloop
endfacet
facet normal -0.866025403784439 -0.5 0.0
outer loop
vertex -6.06217782649107 -3.5 0.0
vertex -6.76148078402348 -1.81173331571764 2.0
vertex -6.76148078402348 -1.81173331571764 0.0
endloop
endfacet
facet normal -0.5 -0.866025403784439 0.0
outer loop
vertex -3.5 -6.06217782649107 2.0
vertex -4.94974746830583 -4.94974746830583 0.0
vertex -3.5 -6.06217782649107 0.0
endloop
endfacet
facet normal -0.707106781186548 -0.707106781186547 0.0
outer loop
vertex -4.94974746830583 -4.94974746830583 0.0
vertex -3.5 -6.06217782649107 2.0
vertex -4.94974746830583 -4.94974746830583 2.0
endloop
endfacet
facet normal -0.707106781186548 -0.707106781186548 0.0
outer loop
vertex 3.88908729652601 3.88908729652601 2.0
vertex 4.76313972081441 2.75 0.0
vertex 4.76313972081441 2.75 2.0
endloop
endfacet
facet normal -0.866025403784439 -0.5 0.0
outer loop
vertex 4.76313972081441 2.75 0.0
vertex 3.88908729652601 3.88908729652601 2.0
vertex 3.88908729652601 3.88908729652601 0.0
endloop
endfacet
facet normal -0.258819045102521 -0.965925826289068 0.0
outer loop
vertex -1.81173331571765 -6.76148078402348 2.0
vertex -3.5 -6.06217782649107 0.0
vertex -1.81173331571765 -6.76148078402348 0.0
endloop
endfacet
facet normal -0.5 -0.866025403784439 0.0
outer loop
vertex -3.5 -6.06217782649107 0.0
vertex -1.81173331571765 -6.76148078402348 2.0
vertex -3.5 -6.06217782649107 2.0
endloop
endfacet
facet normal 0.5 -0.866025403784439 0.0
outer loop
vertex -2.75 4.76313972081441 2.0
vertex -3.88908729652601 3.88908729652601 0.0
vertex -2.75 4.76313972081441 0.0
endloop
endfacet
facet normal 0.707106781186547 -0.707106781186548 0.0
outer loop
vertex -3.88908729652601 3.88908729652601 0.0
vertex -2.75 4.76313972081441 2.0
vertex -3.88908729652601 3.88908729652601 2.0
endloop
endfacet
facet normal -0.258819045102521 0.965925826289068 0.0
outer loop
vertex -1.81173331571764 6.76148078402348 2.0
vertex 0.0 7.0 0.0
vertex -1.81173331571764 6.76148078402348 0.0
endloop
endfacet
facet normal -6.23777692695283e-017 1.0 0.0
outer loop
vertex 0.0 7.0 0.0
vertex -1.81173331571764 6.76148078402348 2.0
vertex 0.0 7.0 2.0
endloop
endfacet
facet normal -6.23777692695283e-017 1.0 0.0
outer loop
vertex 0.0 7.0 2.0
vertex 1.81173331571765 6.76148078402348 0.0
vertex 0.0 7.0 0.0
endloop
endfacet
facet normal 0.258819045102521 0.965925826289068 0.0
outer loop
vertex 1.81173331571765 6.76148078402348 0.0
vertex 0.0 7.0 2.0
vertex 1.81173331571765 6.76148078402348 2.0
endloop
endfacet
facet normal 0.0 0.0 1.0
outer loop
vertex -6.76148078402348 -1.81173331571764 2.0
vertex -6.76148078402348 1.81173331571765 2.0
vertex -7.0 1.40998324127395e-015 2.0
endloop
endfacet
facet normal 0.0 0.0 1.0
outer loop
vertex -6.76148078402348 1.81173331571765 2.0
vertex -6.76148078402348 -1.81173331571764 2.0
vertex -6.06217782649107 -3.5 2.0
endloop
endfacet
facet normal 0.0 0.0 1.0
outer loop
vertex -6.76148078402348 1.81173331571765 2.0
vertex -6.06217782649107 -3.5 2.0
vertex -6.06217782649107 3.5 2.0
endloop
endfacet
facet normal 0.0 0.0 1.0
outer loop
vertex -6.06217782649107 3.5 2.0
vertex -6.06217782649107 -3.5 2.0
vertex -4.94974746830583 -4.94974746830583 2.0
endloop
endfacet
facet normal 0.0 0.0 1.0
outer loop
vertex -6.06217782649107 3.5 2.0
vertex -4.94974746830583 -4.94974746830583 2.0
vertex -5.5 0.0 2.0
endloop
endfacet
facet normal 0.0 0.0 1.0
outer loop
vertex -5.5 0.0 2.0
vertex -4.94974746830583 -4.94974746830583 2.0
vertex -5.31259204458988 -1.42350474806386 2.0
endloop
endfacet
facet normal 0.0 0.0 1.0
outer loop
vertex -5.31259204458988 -1.42350474806386 2.0
vertex -4.94974746830583 -4.94974746830583 2.0
vertex -4.76313972081441 -2.75 2.0
endloop
endfacet
facet normal 0.0 0.0 1.0
outer loop
vertex -4.76313972081441 -2.75 2.0
vertex -4.94974746830583 -4.94974746830583 2.0
vertex -3.5 -6.06217782649107 2.0
endloop
endfacet
facet normal 0.0 0.0 1.0
outer loop
vertex -4.76313972081441 -2.75 2.0
vertex -3.5 -6.06217782649107 2.0
vertex -3.88908729652601 -3.88908729652601 2.0
endloop
endfacet
facet normal 0.0 0.0 1.0
outer loop
vertex -3.88908729652601 -3.88908729652601 2.0
vertex -3.5 -6.06217782649107 2.0
vertex -2.75 -4.76313972081441 2.0
endloop
endfacet
facet normal 0.0 0.0 1.0
outer loop
vertex -2.75 -4.76313972081441 2.0
vertex -3.5 -6.06217782649107 2.0
vertex -1.81173331571765 -6.76148078402348 2.0
endloop
endfacet
facet normal 0.0 0.0 1.0
outer loop
vertex -2.75 -4.76313972081441 2.0
vertex -1.81173331571765 -6.76148078402348 2.0
vertex -1.42350474806387 -5.31259204458987 2.0
endloop
endfacet
facet normal 0.0 0.0 1.0
outer loop
vertex -1.42350474806387 -5.31259204458987 2.0
vertex -1.81173331571765 -6.76148078402348 2.0
vertex -1.40998324127395e-015 -7.0 2.0
endloop
endfacet
facet normal 0.0 0.0 1.0
outer loop
vertex -1.42350474806387 -5.31259204458987 2.0
vertex -1.40998324127395e-015 -7.0 2.0
vertex -1.40998324127395e-015 -5.5 2.0
endloop
endfacet
facet normal 0.0 0.0 1.0
outer loop
vertex -1.40998324127395e-015 -5.5 2.0
vertex -1.40998324127395e-015 -7.0 2.0
vertex 1.81173331571764 -6.76148078402348 2.0
endloop
endfacet
facet normal 0.0 0.0 1.0
outer loop
vertex -1.40998324127395e-015 -5.5 2.0
vertex 1.81173331571764 -6.76148078402348 2.0
vertex 1.42350474806386 -5.31259204458988 2.0
endloop
endfacet
facet normal 0.0 0.0 1.0
outer loop
vertex 1.42350474806386 -5.31259204458988 2.0
vertex 1.81173331571764 -6.76148078402348 2.0
vertex 2.75 -4.76313972081442 2.0
endloop
endfacet
facet normal 0.0 0.0 1.0
outer loop
vertex 2.75 -4.76313972081442 2.0
vertex 1.81173331571764 -6.76148078402348 2.0
vertex 3.49999999999999 -6.06217782649107 2.0
endloop
endfacet
facet normal 0.0 0.0 1.0
outer loop
vertex 2.75 -4.76313972081442 2.0
vertex 3.49999999999999 -6.06217782649107 2.0
vertex 3.88908729652601 -3.88908729652601 2.0
endloop
endfacet
facet normal 0.0 0.0 1.0
outer loop
vertex 3.88908729652601 -3.88908729652601 2.0
vertex 3.49999999999999 -6.06217782649107 2.0
vertex 4.94974746830583 -4.94974746830583 2.0
endloop
endfacet
facet normal 0.0 0.0 1.0
outer loop
vertex 3.88908729652601 -3.88908729652601 2.0
vertex 4.94974746830583 -4.94974746830583 2.0
vertex 4.76313972081441 -2.75 2.0
endloop
endfacet
facet normal 0.0 0.0 1.0
outer loop
vertex 4.76313972081441 -2.75 2.0
vertex 4.94974746830583 -4.94974746830583 2.0
vertex 5.31259204458987 -1.42350474806387 2.0
endloop
endfacet
facet normal 0.0 0.0 1.0
outer loop
vertex 5.31259204458987 -1.42350474806387 2.0
vertex 4.94974746830583 -4.94974746830583 2.0
vertex 6.06217782649107 -3.5 2.0
endloop
endfacet
facet normal 0.0 0.0 1.0
outer loop
vertex 5.31259204458987 -1.42350474806387 2.0
vertex 6.06217782649107 -3.5 2.0
vertex 5.5 0.0 2.0
endloop
endfacet
facet normal 0.0 0.0 1.0
outer loop
vertex -5.5 0.0 2.0
vertex -4.94974746830583 4.94974746830583 2.0
vertex -6.06217782649107 3.5 2.0
endloop
endfacet
facet normal 0.0 0.0 1.0
outer loop
vertex -4.94974746830583 4.94974746830583 2.0
vertex -5.5 0.0 2.0
vertex -5.31259204458988 1.42350474806387 2.0
endloop
endfacet
facet normal 0.0 0.0 1.0
outer loop
vertex -4.94974746830583 4.94974746830583 2.0
vertex -5.31259204458988 1.42350474806387 2.0
vertex -4.76313972081441 2.75 2.0
endloop
endfacet
facet normal 0.0 0.0 1.0
outer loop
vertex -4.94974746830583 4.94974746830583 2.0
vertex -4.76313972081441 2.75 2.0
vertex -3.5 6.06217782649107 2.0
endloop
endfacet
facet normal 0.0 0.0 1.0
outer loop
vertex -3.5 6.06217782649107 2.0
vertex -4.76313972081441 2.75 2.0
vertex -3.88908729652601 3.88908729652601 2.0
endloop
endfacet
facet normal 0.0 0.0 1.0
outer loop
vertex -3.5 6.06217782649107 2.0
vertex -3.88908729652601 3.88908729652601 2.0
vertex -2.75 4.76313972081441 2.0
endloop
endfacet
facet normal 0.0 0.0 1.0
outer loop
vertex -3.5 6.06217782649107 2.0
vertex -2.75 4.76313972081441 2.0
vertex -1.81173331571764 6.76148078402348 2.0
endloop
endfacet
facet normal 0.0 0.0 1.0
outer loop
vertex -1.81173331571764 6.76148078402348 2.0
vertex -2.75 4.76313972081441 2.0
vertex -1.42350474806386 5.31259204458988 2.0
endloop
endfacet
facet normal 0.0 0.0 1.0
outer loop
vertex -1.81173331571764 6.76148078402348 2.0
vertex -1.42350474806386 5.31259204458988 2.0
vertex 0.0 7.0 2.0
endloop
endfacet
facet normal 0.0 0.0 1.0
outer loop
vertex 0.0 7.0 2.0
vertex -1.42350474806386 5.31259204458988 2.0
vertex 0.0 5.5 2.0
endloop
endfacet
facet normal 0.0 0.0 1.0
outer loop
vertex 0.0 7.0 2.0
vertex 0.0 5.5 2.0
vertex 1.42350474806387 5.31259204458988 2.0
endloop
endfacet
facet normal 0.0 0.0 1.0
outer loop
vertex 0.0 7.0 2.0
vertex 1.42350474806387 5.31259204458988 2.0
vertex 1.81173331571765 6.76148078402348 2.0
endloop
endfacet
facet normal 0.0 0.0 1.0
outer loop
vertex 1.81173331571765 6.76148078402348 2.0
vertex 1.42350474806387 5.31259204458988 2.0
vertex 2.75 4.76313972081441 2.0
endloop
endfacet
facet normal 0.0 0.0 1.0
outer loop
vertex 1.81173331571765 6.76148078402348 2.0
vertex 2.75 4.76313972081441 2.0
vertex 3.5 6.06217782649107 2.0
endloop
endfacet
facet normal 0.0 0.0 1.0
outer loop
vertex 3.5 6.06217782649107 2.0
vertex 2.75 4.76313972081441 2.0
vertex 3.88908729652601 3.88908729652601 2.0
endloop
endfacet
facet normal 0.0 0.0 1.0
outer loop
vertex 3.5 6.06217782649107 2.0
vertex 3.88908729652601 3.88908729652601 2.0
vertex 4.94974746830583 4.94974746830583 2.0
endloop
endfacet
facet normal 0.0 0.0 1.0
outer loop
vertex 4.94974746830583 4.94974746830583 2.0
vertex 3.88908729652601 3.88908729652601 2.0
vertex 4.76313972081441 2.75 2.0
endloop
endfacet
facet normal 0.0 0.0 1.0
outer loop
vertex 4.94974746830583 4.94974746830583 2.0
vertex 4.76313972081441 2.75 2.0
vertex 5.31259204458988 1.42350474806386 2.0
endloop
endfacet
facet normal 0.0 0.0 1.0
outer loop
vertex 4.94974746830583 4.94974746830583 2.0
vertex 5.31259204458988 1.42350474806386 2.0
vertex 6.06217782649107 3.5 2.0
endloop
endfacet
facet normal 0.0 0.0 1.0
outer loop
vertex 6.06217782649107 3.5 2.0
vertex 5.31259204458988 1.42350474806386 2.0
vertex 5.5 0.0 2.0
endloop
endfacet
facet normal 0.0 0.0 1.0
outer loop
vertex 6.06217782649107 3.5 2.0
vertex 5.5 0.0 2.0
vertex 6.06217782649107 -3.5 2.0
endloop
endfacet
facet normal 0.0 0.0 1.0
outer loop
vertex 6.06217782649107 3.5 2.0
vertex 6.06217782649107 -3.5 2.0
vertex 6.76148078402348 -1.81173331571765 2.0
endloop
endfacet
facet normal 0.0 0.0 1.0
outer loop
vertex 6.06217782649107 3.5 2.0
vertex 6.76148078402348 -1.81173331571765 2.0
vertex 6.76148078402348 1.81173331571765 2.0
endloop
endfacet
facet normal 0.0 0.0 1.0
outer loop
vertex 6.76148078402348 1.81173331571765 2.0
vertex 6.76148078402348 -1.81173331571765 2.0
vertex 7.0 0.0 2.0
endloop
endfacet
facet normal -0.866025403784439 0.5 0.0
outer loop
vertex 4.76313972081441 -2.75 2.0
vertex 3.88908729652601 -3.88908729652601 0.0
vertex 3.88908729652601 -3.88908729652601 2.0
endloop
endfacet
facet normal -0.707106781186547 0.707106781186548 0.0
outer loop
vertex 3.88908729652601 -3.88908729652601 0.0
vertex 4.76313972081441 -2.75 2.0
vertex 4.76313972081441 -2.75 0.0
endloop
endfacet
facet normal -0.965925826289068 0.258819045102521 0.0
outer loop
vertex 5.31259204458987 -1.42350474806387 2.0
vertex 4.76313972081441 -2.75 0.0
vertex 4.76313972081441 -2.75 2.0
endloop
endfacet
facet normal -0.866025403784439 0.5 0.0
outer loop
vertex 4.76313972081441 -2.75 0.0
vertex 5.31259204458987 -1.42350474806387 2.0
vertex 5.31259204458987 -1.42350474806387 0.0
endloop
endfacet
facet normal -1.0 2.67333296869407e-016 0.0
outer loop
vertex 5.5 0.0 2.0
vertex 5.31259204458987 -1.42350474806387 0.0
vertex 5.31259204458987 -1.42350474806387 2.0
endloop
endfacet
facet normal -0.965925826289068 0.258819045102521 0.0
outer loop
vertex 5.31259204458987 -1.42350474806387 0.0
vertex 5.5 0.0 2.0
vertex 5.5 0.0 0.0
endloop
endfacet
facet normal 0.707106781186547 -0.707106781186548 0.0
outer loop
vertex -3.88908729652601 3.88908729652601 0.0
vertex -4.76313972081441 2.75 2.0
vertex -4.76313972081441 2.75 0.0
endloop
endfacet
facet normal 0.866025403784439 -0.5 0.0
outer loop
vertex -4.76313972081441 2.75 2.0
vertex -3.88908729652601 3.88908729652601 0.0
vertex -3.88908729652601 3.88908729652601 2.0
endloop
endfacet
facet normal 0.866025403784439 -0.5 0.0
outer loop
vertex -4.76313972081441 2.75 0.0
vertex -5.31259204458988 1.42350474806387 2.0
vertex -5.31259204458988 1.42350474806387 0.0
endloop
endfacet
facet normal 0.965925826289068 -0.258819045102521 0.0
outer loop
vertex -5.31259204458988 1.42350474806387 2.0
vertex -4.76313972081441 2.75 0.0
vertex -4.76313972081441 2.75 2.0
endloop
endfacet
facet normal 0.965925826289068 -0.258819045102521 0.0
outer loop
vertex -5.31259204458988 1.42350474806387 0.0
vertex -5.5 0.0 2.0
vertex -5.5 0.0 0.0
endloop
endfacet
facet normal 1.0 -1.24755538539057e-016 0.0
outer loop
vertex -5.5 0.0 2.0
vertex -5.31259204458988 1.42350474806387 0.0
vertex -5.31259204458988 1.42350474806387 2.0
endloop
endfacet
facet normal 0.500000000000001 0.866025403784438 0.0
outer loop
vertex -2.75 -4.76313972081441 2.0
vertex -1.42350474806387 -5.31259204458987 0.0
vertex -2.75 -4.76313972081441 0.0
endloop
endfacet
facet normal 0.258819045102521 0.965925826289068 0.0
outer loop
vertex -1.42350474806387 -5.31259204458987 0.0
vertex -2.75 -4.76313972081441 2.0
vertex -1.42350474806387 -5.31259204458987 2.0
endloop
endfacet
facet normal 0.258819045102521 0.965925826289068 0.0
outer loop
vertex -1.42350474806387 -5.31259204458987 2.0
vertex -1.40998324127395e-015 -5.5 0.0
vertex -1.42350474806387 -5.31259204458987 0.0
endloop
endfacet
facet normal 2.67333296869407e-016 1.0 0.0
outer loop
vertex -1.40998324127395e-015 -5.5 0.0
vertex -1.42350474806387 -5.31259204458987 2.0
vertex -1.40998324127395e-015 -5.5 2.0
endloop
endfacet
facet normal 2.67333296869407e-016 1.0 0.0
outer loop
vertex -1.40998324127395e-015 -5.5 2.0
vertex 1.42350474806386 -5.31259204458988 0.0
vertex -1.40998324127395e-015 -5.5 0.0
endloop
endfacet
facet normal -0.25881904510252 0.965925826289068 0.0
outer loop
vertex 1.42350474806386 -5.31259204458988 0.0
vertex -1.40998324127395e-015 -5.5 2.0
vertex 1.42350474806386 -5.31259204458988 2.0
endloop
endfacet
facet normal -0.25881904510252 0.965925826289068 0.0
outer loop
vertex 1.42350474806386 -5.31259204458988 2.0
vertex 2.75 -4.76313972081442 0.0
vertex 1.42350474806386 -5.31259204458988 0.0
endloop
endfacet
facet normal -0.5 0.866025403784439 0.0
outer loop
vertex 2.75 -4.76313972081442 0.0
vertex 1.42350474806386 -5.31259204458988 2.0
vertex 2.75 -4.76313972081442 2.0
endloop
endfacet
facet normal -0.5 0.866025403784439 0.0
outer loop
vertex 2.75 -4.76313972081442 2.0
vertex 3.88908729652601 -3.88908729652601 0.0
vertex 2.75 -4.76313972081442 0.0
endloop
endfacet
facet normal -0.707106781186547 0.707106781186548 0.0
outer loop
vertex 3.88908729652601 -3.88908729652601 0.0
vertex 2.75 -4.76313972081442 2.0
vertex 3.88908729652601 -3.88908729652601 2.0
endloop
endfacet
facet normal 0.707106781186547 -0.707106781186548 0.0
outer loop
vertex 4.94974746830583 -4.94974746830583 2.0
vertex 3.49999999999999 -6.06217782649107 0.0
vertex 4.94974746830583 -4.94974746830583 0.0
endloop
endfacet
facet normal 0.5 -0.866025403784439 0.0
outer loop
vertex 3.49999999999999 -6.06217782649107 0.0
vertex 4.94974746830583 -4.94974746830583 2.0
vertex 3.49999999999999 -6.06217782649107 2.0
endloop
endfacet
facet normal 0.866025403784439 0.5 0.0
outer loop
vertex 6.06217782649107 3.5 0.0
vertex 6.76148078402348 1.81173331571765 2.0
vertex 6.76148078402348 1.81173331571765 0.0
endloop
endfacet
facet normal 0.965925826289068 0.258819045102521 0.0
outer loop
vertex 6.76148078402348 1.81173331571765 2.0
vertex 6.06217782649107 3.5 0.0
vertex 6.06217782649107 3.5 2.0
endloop
endfacet
facet normal 0.965925826289068 0.25881904510252 0.0
outer loop
vertex -5.31259204458988 -1.42350474806386 0.0
vertex -4.76313972081441 -2.75 2.0
vertex -4.76313972081441 -2.75 0.0
endloop
endfacet
facet normal 0.866025403784439 0.5 0.0
outer loop
vertex -4.76313972081441 -2.75 2.0
vertex -5.31259204458988 -1.42350474806386 0.0
vertex -5.31259204458988 -1.42350474806386 2.0
endloop
endfacet
facet normal -5.79222143217049e-016 -1.0 0.0
outer loop
vertex -1.40998324127395e-015 -7.0 2.0
vertex -1.81173331571765 -6.76148078402348 0.0
vertex -1.40998324127395e-015 -7.0 0.0
endloop
endfacet
facet normal -0.258819045102521 -0.965925826289068 0.0
outer loop
vertex -1.81173331571765 -6.76148078402348 0.0
vertex -1.40998324127395e-015 -7.0 2.0
vertex -1.81173331571765 -6.76148078402348 2.0
endloop
endfacet
facet normal 1.0 -1.78222197912938e-016 0.0
outer loop
vertex 7.0 0.0 0.0
vertex 6.76148078402348 -1.81173331571765 2.0
vertex 6.76148078402348 -1.81173331571765 0.0
endloop
endfacet
facet normal 0.965925826289068 -0.258819045102521 0.0
outer loop
vertex 6.76148078402348 -1.81173331571765 2.0
vertex 7.0 0.0 0.0
vertex 7.0 0.0 2.0
endloop
endfacet
facet normal 0.965925826289068 -0.258819045102521 0.0
outer loop
vertex 6.76148078402348 -1.81173331571765 0.0
vertex 6.06217782649107 -3.5 2.0
vertex 6.06217782649107 -3.5 0.0
endloop
endfacet
facet normal 0.866025403784439 -0.5 0.0
outer loop
vertex 6.06217782649107 -3.5 2.0
vertex 6.76148078402348 -1.81173331571765 0.0
vertex 6.76148078402348 -1.81173331571765 2.0
endloop
endfacet
facet normal 0.965925826289068 0.258819045102521 0.0
outer loop
vertex 6.76148078402348 1.81173331571765 0.0
vertex 7.0 0.0 2.0
vertex 7.0 0.0 0.0
endloop
endfacet
facet normal 1.0 -1.78222197912938e-016 0.0
outer loop
vertex 7.0 0.0 2.0
vertex 6.76148078402348 1.81173331571765 0.0
vertex 6.76148078402348 1.81173331571765 2.0
endloop
endfacet
facet normal 0.707106781186547 0.707106781186548 0.0
outer loop
vertex 4.94974746830583 4.94974746830583 0.0
vertex 6.06217782649107 3.5 2.0
vertex 6.06217782649107 3.5 0.0
endloop
endfacet
facet normal 0.866025403784439 0.5 0.0
outer loop
vertex 6.06217782649107 3.5 2.0
vertex 4.94974746830583 4.94974746830583 0.0
vertex 4.94974746830583 4.94974746830583 2.0
endloop
endfacet
facet normal -0.5 -0.866025403784439 0.0
outer loop
vertex 2.75 4.76313972081441 2.0
vertex 1.42350474806387 5.31259204458988 0.0
vertex 2.75 4.76313972081441 0.0
endloop
endfacet
facet normal -0.258819045102521 -0.965925826289068 0.0
outer loop
vertex 1.42350474806387 5.31259204458988 0.0
vertex 2.75 4.76313972081441 2.0
vertex 1.42350474806387 5.31259204458988 2.0
endloop
endfacet
facet normal -0.258819045102521 -0.965925826289068 0.0
outer loop
vertex 1.42350474806387 5.31259204458988 2.0
vertex 0.0 5.5 0.0
vertex 1.42350474806387 5.31259204458988 0.0
endloop
endfacet
facet normal -1.96044417704232e-016 -1.0 0.0
outer loop
vertex 0.0 5.5 0.0
vertex 1.42350474806387 5.31259204458988 2.0
vertex 0.0 5.5 2.0
endloop
endfacet
facet normal -1.96044417704232e-016 -1.0 0.0
outer loop
vertex 0.0 5.5 2.0
vertex -1.42350474806386 5.31259204458988 0.0
vertex 0.0 5.5 0.0
endloop
endfacet
facet normal 0.258819045102521 -0.965925826289068 0.0
outer loop
vertex -1.42350474806386 5.31259204458988 0.0
vertex 0.0 5.5 2.0
vertex -1.42350474806386 5.31259204458988 2.0
endloop
endfacet
facet normal 0.258819045102521 -0.965925826289068 0.0
outer loop
vertex -1.42350474806386 5.31259204458988 2.0
vertex -2.75 4.76313972081441 0.0
vertex -1.42350474806386 5.31259204458988 0.0
endloop
endfacet
facet normal 0.5 -0.866025403784439 0.0
outer loop
vertex -2.75 4.76313972081441 0.0
vertex -1.42350474806386 5.31259204458988 2.0
vertex -2.75 4.76313972081441 2.0
endloop
endfacet
facet normal -0.707106781186547 0.707106781186548 0.0
outer loop
vertex -4.94974746830583 4.94974746830583 2.0
vertex -3.5 6.06217782649107 0.0
vertex -4.94974746830583 4.94974746830583 0.0
endloop
endfacet
facet normal -0.5 0.866025403784439 0.0
outer loop
vertex -3.5 6.06217782649107 0.0
vertex -4.94974746830583 4.94974746830583 2.0
vertex -3.5 6.06217782649107 2.0
endloop
endfacet
facet normal -0.5 0.866025403784439 0.0
outer loop
vertex -3.5 6.06217782649107 2.0
vertex -1.81173331571764 6.76148078402348 0.0
vertex -3.5 6.06217782649107 0.0
endloop
endfacet
facet normal -0.258819045102521 0.965925826289068 0.0
outer loop
vertex -1.81173331571764 6.76148078402348 0.0
vertex -3.5 6.06217782649107 2.0
vertex -1.81173331571764 6.76148078402348 2.0
endloop
endfacet
facet normal 0.258819045102521 0.965925826289068 0.0
outer loop
vertex 1.81173331571765 6.76148078402348 2.0
vertex 3.5 6.06217782649107 0.0
vertex 1.81173331571765 6.76148078402348 0.0
endloop
endfacet
facet normal 0.5 0.866025403784439 0.0
outer loop
vertex 3.5 6.06217782649107 0.0
vertex 1.81173331571765 6.76148078402348 2.0
vertex 3.5 6.06217782649107 2.0
endloop
endfacet
facet normal 0.866025403784439 -0.5 0.0
outer loop
vertex 6.06217782649107 -3.5 0.0
vertex 4.94974746830583 -4.94974746830583 2.0
vertex 4.94974746830583 -4.94974746830583 0.0
endloop
endfacet
facet normal 0.707106781186547 -0.707106781186548 0.0
outer loop
vertex 4.94974746830583 -4.94974746830583 2.0
vertex 6.06217782649107 -3.5 0.0
vertex 6.06217782649107 -3.5 2.0
endloop
endfacet
facet normal 0.866025403784439 0.5 0.0
outer loop
vertex -4.76313972081441 -2.75 0.0
vertex -3.88908729652601 -3.88908729652601 2.0
vertex -3.88908729652601 -3.88908729652601 0.0
endloop
endfacet
facet normal 0.707106781186548 0.707106781186547 0.0
outer loop
vertex -3.88908729652601 -3.88908729652601 2.0
vertex -4.76313972081441 -2.75 0.0
vertex -4.76313972081441 -2.75 2.0
endloop
endfacet
facet normal 0.707106781186548 0.707106781186547 0.0
outer loop
vertex -3.88908729652601 -3.88908729652601 2.0
vertex -2.75 -4.76313972081441 0.0
vertex -3.88908729652601 -3.88908729652601 0.0
endloop
endfacet
facet normal 0.500000000000001 0.866025403784438 0.0
outer loop
vertex -2.75 -4.76313972081441 0.0
vertex -3.88908729652601 -3.88908729652601 2.0
vertex -2.75 -4.76313972081441 2.0
endloop
endfacet
facet normal 0.5 0.866025403784439 0.0
outer loop
vertex 3.5 6.06217782649107 2.0
vertex 4.94974746830583 4.94974746830583 0.0
vertex 3.5 6.06217782649107 0.0
endloop
endfacet
facet normal 0.707106781186547 0.707106781186548 0.0
outer loop
vertex 4.94974746830583 4.94974746830583 0.0
vertex 3.5 6.06217782649107 2.0
vertex 4.94974746830583 4.94974746830583 2.0
endloop
endfacet
facet normal 0.0 0.0 -1.0
outer loop
vertex -4.94974746830583 4.94974746830583 0.0
vertex -5.5 0.0 0.0
vertex -6.06217782649107 3.5 0.0
endloop
endfacet
facet normal 0.0 0.0 -1.0
outer loop
vertex -5.5 0.0 0.0
vertex -4.94974746830583 4.94974746830583 0.0
vertex -5.31259204458988 1.42350474806387 0.0
endloop
endfacet
facet normal 0.0 0.0 -1.0
outer loop
vertex -5.31259204458988 1.42350474806387 0.0
vertex -4.94974746830583 4.94974746830583 0.0
vertex -4.76313972081441 2.75 0.0
endloop
endfacet
facet normal 0.0 0.0 -1.0
outer loop
vertex -4.76313972081441 2.75 0.0
vertex -4.94974746830583 4.94974746830583 0.0
vertex -3.5 6.06217782649107 0.0
endloop
endfacet
facet normal 0.0 0.0 -1.0
outer loop
vertex -4.76313972081441 2.75 0.0
vertex -3.5 6.06217782649107 0.0
vertex -3.88908729652601 3.88908729652601 0.0
endloop
endfacet
facet normal 0.0 0.0 -1.0
outer loop
vertex -3.88908729652601 3.88908729652601 0.0
vertex -3.5 6.06217782649107 0.0
vertex -2.75 4.76313972081441 0.0
endloop
endfacet
facet normal 0.0 0.0 -1.0
outer loop
vertex -2.75 4.76313972081441 0.0
vertex -3.5 6.06217782649107 0.0
vertex -1.81173331571764 6.76148078402348 0.0
endloop
endfacet
facet normal 0.0 0.0 -1.0
outer loop
vertex -2.75 4.76313972081441 0.0
vertex -1.81173331571764 6.76148078402348 0.0
vertex -1.42350474806386 5.31259204458988 0.0
endloop
endfacet
facet normal 0.0 0.0 -1.0
outer loop
vertex -1.42350474806386 5.31259204458988 0.0
vertex -1.81173331571764 6.76148078402348 0.0
vertex 0.0 7.0 0.0
endloop
endfacet
facet normal 0.0 0.0 -1.0
outer loop
vertex -1.42350474806386 5.31259204458988 0.0
vertex 0.0 7.0 0.0
vertex 0.0 5.5 0.0
endloop
endfacet
facet normal 0.0 0.0 -1.0
outer loop
vertex 0.0 5.5 0.0
vertex 0.0 7.0 0.0
vertex 1.81173331571765 6.76148078402348 0.0
endloop
endfacet
facet normal 0.0 0.0 -1.0
outer loop
vertex 0.0 5.5 0.0
vertex 1.81173331571765 6.76148078402348 0.0
vertex 1.42350474806387 5.31259204458988 0.0
endloop
endfacet
facet normal 0.0 0.0 -1.0
outer loop
vertex 1.42350474806387 5.31259204458988 0.0
vertex 1.81173331571765 6.76148078402348 0.0
vertex 2.75 4.76313972081441 0.0
endloop
endfacet
facet normal 0.0 0.0 -1.0
outer loop
vertex 2.75 4.76313972081441 0.0
vertex 1.81173331571765 6.76148078402348 0.0
vertex 3.5 6.06217782649107 0.0
endloop
endfacet
facet normal 0.0 0.0 -1.0
outer loop
vertex 2.75 4.76313972081441 0.0
vertex 3.5 6.06217782649107 0.0
vertex 3.88908729652601 3.88908729652601 0.0
endloop
endfacet
facet normal 0.0 0.0 -1.0
outer loop
vertex 3.88908729652601 3.88908729652601 0.0
vertex 3.5 6.06217782649107 0.0
vertex 4.94974746830583 4.94974746830583 0.0
endloop
endfacet
facet normal 0.0 0.0 -1.0
outer loop
vertex 3.88908729652601 3.88908729652601 0.0
vertex 4.94974746830583 4.94974746830583 0.0
vertex 4.76313972081441 2.75 0.0
endloop
endfacet
facet normal 0.0 0.0 -1.0
outer loop
vertex 4.76313972081441 2.75 0.0
vertex 4.94974746830583 4.94974746830583 0.0
vertex 5.31259204458988 1.42350474806386 0.0
endloop
endfacet
facet normal 0.0 0.0 -1.0
outer loop
vertex 5.31259204458988 1.42350474806386 0.0
vertex 4.94974746830583 4.94974746830583 0.0
vertex 6.06217782649107 3.5 0.0
endloop
endfacet
facet normal 0.0 0.0 -1.0
outer loop
vertex 5.31259204458988 1.42350474806386 0.0
vertex 6.06217782649107 3.5 0.0
vertex 5.5 0.0 0.0
endloop
endfacet
facet normal 0.0 0.0 -1.0
outer loop
vertex -6.76148078402348 1.81173331571765 0.0
vertex -6.76148078402348 -1.81173331571764 0.0
vertex -7.0 1.40998324127395e-015 0.0
endloop
endfacet
facet normal 0.0 0.0 -1.0
outer loop
vertex -6.76148078402348 -1.81173331571764 0.0
vertex -6.76148078402348 1.81173331571765 0.0
vertex -6.06217782649107 -3.5 0.0
endloop
endfacet
facet normal 0.0 0.0 -1.0
outer loop
vertex -6.06217782649107 -3.5 0.0
vertex -6.76148078402348 1.81173331571765 0.0
vertex -6.06217782649107 3.5 0.0
endloop
endfacet
facet normal 0.0 0.0 -1.0
outer loop
vertex -6.06217782649107 -3.5 0.0
vertex -6.06217782649107 3.5 0.0
vertex -4.94974746830583 -4.94974746830583 0.0
endloop
endfacet
facet normal 0.0 0.0 -1.0
outer loop
vertex -4.94974746830583 -4.94974746830583 0.0
vertex -6.06217782649107 3.5 0.0
vertex -5.5 0.0 0.0
endloop
endfacet
facet normal 0.0 0.0 -1.0
outer loop
vertex -4.94974746830583 -4.94974746830583 0.0
vertex -5.5 0.0 0.0
vertex -5.31259204458988 -1.42350474806386 0.0
endloop
endfacet
facet normal 0.0 0.0 -1.0
outer loop
vertex -4.94974746830583 -4.94974746830583 0.0
vertex -5.31259204458988 -1.42350474806386 0.0
vertex -4.76313972081441 -2.75 0.0
endloop
endfacet
facet normal 0.0 0.0 -1.0
outer loop
vertex -4.94974746830583 -4.94974746830583 0.0
vertex -4.76313972081441 -2.75 0.0
vertex -3.5 -6.06217782649107 0.0
endloop
endfacet
facet normal 0.0 0.0 -1.0
outer loop
vertex -3.5 -6.06217782649107 0.0
vertex -4.76313972081441 -2.75 0.0
vertex -3.88908729652601 -3.88908729652601 0.0
endloop
endfacet
facet normal 0.0 0.0 -1.0
outer loop
vertex -3.5 -6.06217782649107 0.0
vertex -3.88908729652601 -3.88908729652601 0.0
vertex -2.75 -4.76313972081441 0.0
endloop
endfacet
facet normal 0.0 0.0 -1.0
outer loop
vertex -3.5 -6.06217782649107 0.0
vertex -2.75 -4.76313972081441 0.0
vertex -1.81173331571765 -6.76148078402348 0.0
endloop
endfacet
facet normal 0.0 0.0 -1.0
outer loop
vertex -1.81173331571765 -6.76148078402348 0.0
vertex -2.75 -4.76313972081441 0.0
vertex -1.42350474806387 -5.31259204458987 0.0
endloop
endfacet
facet normal 0.0 0.0 -1.0
outer loop
vertex -1.81173331571765 -6.76148078402348 0.0
vertex -1.42350474806387 -5.31259204458987 0.0
vertex -1.40998324127395e-015 -7.0 0.0
endloop
endfacet
facet normal 0.0 0.0 -1.0
outer loop
vertex -1.40998324127395e-015 -7.0 0.0
vertex -1.42350474806387 -5.31259204458987 0.0
vertex -1.40998324127395e-015 -5.5 0.0
endloop
endfacet
facet normal 0.0 0.0 -1.0
outer loop
vertex -1.40998324127395e-015 -7.0 0.0
vertex -1.40998324127395e-015 -5.5 0.0
vertex 1.42350474806386 -5.31259204458988 0.0
endloop
endfacet
facet normal 0.0 0.0 -1.0
outer loop
vertex -1.40998324127395e-015 -7.0 0.0
vertex 1.42350474806386 -5.31259204458988 0.0
vertex 1.81173331571764 -6.76148078402348 0.0
endloop
endfacet
facet normal 0.0 0.0 -1.0
outer loop
vertex 1.81173331571764 -6.76148078402348 0.0
vertex 1.42350474806386 -5.31259204458988 0.0
vertex 2.75 -4.76313972081442 0.0
endloop
endfacet
facet normal 0.0 0.0 -1.0
outer loop
vertex 1.81173331571764 -6.76148078402348 0.0
vertex 2.75 -4.76313972081442 0.0
vertex 3.49999999999999 -6.06217782649107 0.0
endloop
endfacet
facet normal 0.0 0.0 -1.0
outer loop
vertex 3.49999999999999 -6.06217782649107 0.0
vertex 2.75 -4.76313972081442 0.0
vertex 3.88908729652601 -3.88908729652601 0.0
endloop
endfacet
facet normal 0.0 0.0 -1.0
outer loop
vertex 3.49999999999999 -6.06217782649107 0.0
vertex 3.88908729652601 -3.88908729652601 0.0
vertex 4.94974746830583 -4.94974746830583 0.0
endloop
endfacet
facet normal 0.0 0.0 -1.0
outer loop
vertex 4.94974746830583 -4.94974746830583 0.0
vertex 3.88908729652601 -3.88908729652601 0.0
vertex 4.76313972081441 -2.75 0.0
endloop
endfacet
facet normal 0.0 0.0 -1.0
outer loop
vertex 4.94974746830583 -4.94974746830583 0.0
vertex 4.76313972081441 -2.75 0.0
vertex 5.31259204458987 -1.42350474806387 0.0
endloop
endfacet
facet normal 0.0 0.0 -1.0
outer loop
vertex 4.94974746830583 -4.94974746830583 0.0
vertex 5.31259204458987 -1.42350474806387 0.0
vertex 6.06217782649107 -3.5 0.0
endloop
endfacet
facet normal 0.0 0.0 -1.0
outer loop
vertex 6.06217782649107 -3.5 0.0
vertex 5.31259204458987 -1.42350474806387 0.0
vertex 5.5 0.0 0.0
endloop
endfacet
facet normal 0.0 0.0 -1.0
outer loop
vertex 6.06217782649107 -3.5 0.0
vertex 5.5 0.0 0.0
vertex 6.06217782649107 3.5 0.0
endloop
endfacet
facet normal 0.0 0.0 -1.0
outer loop
vertex 6.06217782649107 -3.5 0.0
vertex 6.06217782649107 3.5 0.0
vertex 6.76148078402348 1.81173331571765 0.0
endloop
endfacet
facet normal 0.0 0.0 -1.0
outer loop
vertex 6.06217782649107 -3.5 0.0
vertex 6.76148078402348 1.81173331571765 0.0
vertex 6.76148078402348 -1.81173331571765 0.0
endloop
endfacet
facet normal 0.0 0.0 -1.0
outer loop
vertex 6.76148078402348 -1.81173331571765 0.0
vertex 6.76148078402348 1.81173331571765 0.0
vertex 7.0 0.0 0.0
endloop
endfacet
facet normal 1.0 -1.24755538539057e-016 0.0
outer loop
vertex -5.5 0.0 0.0
vertex -5.31259204458988 -1.42350474806386 2.0
vertex -5.31259204458988 -1.42350474806386 0.0
endloop
endfacet
facet normal 0.965925826289068 0.25881904510252 0.0
outer loop
vertex -5.31259204458988 -1.42350474806386 2.0
vertex -5.5 0.0 0.0
vertex -5.5 0.0 2.0
endloop
endfacet
facet normal 0.25881904510252 -0.965925826289068 0.0
outer loop
vertex 1.81173331571764 -6.76148078402348 2.0
vertex -1.40998324127395e-015 -7.0 0.0
vertex 1.81173331571764 -6.76148078402348 0.0
endloop
endfacet
facet normal -5.79222143217049e-016 -1.0 0.0
outer loop
vertex -1.40998324127395e-015 -7.0 0.0
vertex 1.81173331571764 -6.76148078402348 2.0
vertex -1.40998324127395e-015 -7.0 2.0
endloop
endfacet
facet normal 0.5 -0.866025403784439 0.0
outer loop
vertex 3.49999999999999 -6.06217782649107 2.0
vertex 1.81173331571764 -6.76148078402348 0.0
vertex 3.49999999999999 -6.06217782649107 0.0
endloop
endfacet
facet normal 0.25881904510252 -0.965925826289068 0.0
outer loop
vertex 1.81173331571764 -6.76148078402348 0.0
vertex 3.49999999999999 -6.06217782649107 2.0
vertex 1.81173331571764 -6.76148078402348 2.0
endloop
endfacet
endsolid model
