solid SpoolHolderBracketV6
facet normal 2.31433359291819e-015 -3.23127932372508e-016 1.0
outer loop
vertex 0.512740851670095 55.8615125896012 31.1715948624883
vertex -9.48725914832989 45.5570602109863 31.1715948624883
vertex -9.48725914832988 32.5410045139125 31.1715948624883
endloop
endfacet
facet normal 2.31433359291819e-015 -3.23127932372508e-016 1.0
outer loop
vertex -9.48725914832989 45.5570602109863 31.1715948624883
vertex 0.512740851670095 55.8615125896012 31.1715948624883
vertex -11.4462316527788 55.8615125896012 31.1715948624883
endloop
endfacet
facet normal 2.31433359291819e-015 -3.23127932372508e-016 1.0
outer loop
vertex -9.48725914832989 45.5570602109863 31.1715948624883
vertex -11.4462316527788 55.8615125896012 31.1715948624883
vertex -11.4462316527788 45.5570602109863 31.1715948624883
endloop
endfacet
facet normal 2.31433359291819e-015 -3.23127932372508e-016 1.0
outer loop
vertex 0.512740851670095 55.8615125896012 31.1715948624883
vertex -15.4872591483299 2.14869966849921 31.1715948624883
vertex 0.512740851670124 29.8615125896013 31.1715948624883
endloop
endfacet
facet normal 2.31433359291819e-015 -3.23127932372508e-016 1.0
outer loop
vertex -15.4872591483299 2.14869966849921 31.1715948624883
vertex 0.512740851670095 55.8615125896012 31.1715948624883
vertex -9.48725914832988 32.5410045139125 31.1715948624883
endloop
endfacet
facet normal 2.31433359291819e-015 -3.23127932372508e-016 1.0
outer loop
vertex -15.4872591483299 2.14869966849921 31.1715948624883
vertex -9.48725914832988 32.5410045139125 31.1715948624883
vertex -24.1475131861743 7.1486996684992 31.1715948624884
endloop
endfacet
facet normal 1.27764818361862e-015 -8.74643473278379e-017 1.0
outer loop
vertex -41.6872591483299 182.861512589601 31.1715948624884
vertex -31.6872591483299 147.783140021078 31.1715948624884
vertex -31.6872591483299 182.861512589601 31.1715948624884
endloop
endfacet
facet normal 1.27764818361862e-015 -8.74643473278379e-017 1.0
outer loop
vertex -31.6872591483299 147.783140021078 31.1715948624884
vertex -41.6872591483299 182.861512589601 31.1715948624884
vertex -41.6872591483299 147.783140021078 31.1715948624884
endloop
endfacet
facet normal 0.499757274874538 0.865604991534865 0.0311554945379252
outer loop
vertex -8.78662806300371 13.7545331510596 15.0905905766897
vertex -12.2169374819781 15.8130629517139 15.7659535742589
vertex -8.75283586684033 13.8130629517139 15.7659535742589
endloop
endfacet
facet normal 0.486760276350162 0.843093529744749 -0.22859950452714
outer loop
vertex -12.2169374819781 15.8130629517139 15.7659535742589
vertex -8.78662806300371 13.7545331510596 15.0905905766897
vertex -12.2507296781415 15.7545331510596 15.0905905766897
endloop
endfacet
facet normal 0.486760276350162 0.843093529744749 -0.22859950452714
outer loop
vertex -8.75283586684033 13.8130629517139 15.7659535742589
vertex -12.0968983239126 16.020976872381 16.4008120078451
vertex -8.63279670877488 14.020976872381 16.4008120078451
endloop
endfacet
facet normal 0.440591369401913 0.763126637180463 -0.472775825137226
outer loop
vertex -12.0968983239126 16.020976872381 16.4008120078451
vertex -8.75283586684033 13.8130629517139 15.7659535742589
vertex -12.2169374819781 15.8130629517139 15.7659535742589
endloop
endfacet
facet normal -0.0155777472689608 -0.026981449737311 0.999514549749076
outer loop
vertex -10.9108586205684 18.0752578983672 12.5728570331407
vertex -7.7844385042152 15.4903763856963 12.6404414254675
vertex -7.44675700543061 16.0752578983672 12.5728570331407
endloop
endfacet
facet normal 0.114299752263571 0.197972978213038 0.973520552700325
outer loop
vertex -7.7844385042152 15.4903763856963 12.6404414254675
vertex -10.9108586205684 18.0752578983672 12.5728570331407
vertex -11.248540119353 17.4903763856963 12.6404414254675
endloop
endfacet
facet normal 0.482264834534687 0.835307196117876 0.263974463698525
outer loop
vertex -14.8094794397452 11.3226485601072 13.0597991529001
vertex -20.1474561309825 14.0770017212657 15.1288660301233
vertex -14.9513037082759 11.0770017212657 15.1288660301233
endloop
endfacet
facet normal 0.499992868101029 0.866013050973067 0.00534110404562586
outer loop
vertex -20.1474561309825 14.0770017212657 15.1288660301233
vertex -14.8094794397452 11.3226485601072 13.0597991529001
vertex -20.0056318624518 14.3226485601072 13.0597991529001
endloop
endfacet
facet normal 0.364396888740588 0.631153925418724 -0.684733254563203
outer loop
vertex -8.43469105905544 14.3641059229616 16.9519013243527
vertex -11.6361211054631 16.819066425706 17.3816656975797
vertex -8.17201949032531 14.819066425706 17.3816656975797
endloop
endfacet
facet normal 0.263369362305923 0.456169116670878 -0.850027244265901
outer loop
vertex -11.6361211054631 16.819066425706 17.3816656975797
vertex -8.43469105905544 14.3641059229616 16.9519013243527
vertex -11.8987926741932 16.3641059229616 16.9519013243527
endloop
endfacet
facet normal -0.35543671302399 -0.615634445832832 0.703319964268613
outer loop
vertex -13.3040194819824 25.9301816957129 9.54503514833945
vertex -7.47662635148415 24.0235226734137 11.2086561719822
vertex -12.6727787741908 27.0235226734137 11.2086561719823
endloop
endfacet
facet normal -0.434341801497939 -0.752302068045429 0.495367336313262
outer loop
vertex -7.47662635148415 24.0235226734137 11.2086561719822
vertex -13.3040194819824 25.9301816957129 9.54503514833945
vertex -8.10786705927574 22.9301816957129 9.54503514833944
endloop
endfacet
facet normal -0.131987231849261 -0.228608591513296 0.964529669069374
outer loop
vertex -15.0916153313802 22.8339748611566 7.45535750993336
vertex -10.9299963472852 18.0421103833524 7.17170897287187
vertex -9.89546290867358 19.8339748611566 7.45535750993335
endloop
endfacet
facet normal -0.00267055202281144 -0.00462553178776884 0.999985736202059
outer loop
vertex -10.9299963472852 18.0421103833524 7.17170897287187
vertex -15.0916153313802 22.8339748611566 7.45535750993336
vertex -16.1261487699918 21.0421103833524 7.17170897287188
endloop
endfacet
facet normal -0.114299752263571 -0.197972978213038 -0.973520552700325
outer loop
vertex -7.19007979244462 16.5198358724041 17.7027482995092
vertex -10.3367521907893 19.0696394036966 17.4626699833783
vertex -6.87265057565151 17.0696394036966 17.4626699833783
endloop
endfacet
facet normal -0.236387912568614 -0.409435874863987 -0.881182738803828
outer loop
vertex -10.3367521907893 19.0696394036966 17.4626699833783
vertex -7.19007979244462 16.5198358724041 17.7027482995092
vertex -10.6541814075824 18.5198358724041 17.7027482995092
endloop
endfacet
facet normal -0.486760276350162 -0.843093529744749 0.22859950452714
outer loop
vertex -9.68578404495724 20.1971493063866 14.5772361507178
vertex -6.34172158788494 17.9892353857194 13.9423777171315
vertex -6.22168242981949 18.1971493063866 14.5772361507178
endloop
endfacet
facet normal -0.440591369401913 -0.763126637180463 0.472775825137226
outer loop
vertex -6.34172158788494 17.9892353857194 13.9423777171315
vertex -9.68578404495724 20.1971493063866 14.5772361507178
vertex -9.80582320302269 19.9892353857194 13.9423777171315
endloop
endfacet
facet normal 0.47869664100416 0.829126903631763 0.288787298137122
outer loop
vertex -8.73187041494073 13.8493761796077 14.4207478873318
vertex -12.2507296781415 15.7545331510596 15.0905905766897
vertex -8.78662806300371 13.7545331510596 15.0905905766897
endloop
endfacet
facet normal 0.499757274874538 0.865604991534865 0.0311554945379252
outer loop
vertex -12.2507296781415 15.7545331510596 15.0905905766897
vertex -8.73187041494073 13.8493761796077 14.4207478873318
vertex -12.1959720300785 15.8493761796077 14.4207478873318
endloop
endfacet
facet normal -0.126828121510697 -0.219672750285043 -0.967294427967138
outer loop
vertex -9.93673579138209 19.7624881313306 22.9099502862254
vertex -14.1660438409212 24.4371117086687 22.1210636864554
vertex -8.96989141821461 21.4371117086687 22.1210636864554
endloop
endfacet
facet normal -0.247683668156632 -0.429000697452314 -0.86868360299588
outer loop
vertex -14.1660438409212 24.4371117086687 22.1210636864554
vertex -9.93673579138209 19.7624881313306 22.9099502862254
vertex -15.1328882140887 22.7624881313306 22.9099502862255
endloop
endfacet
facet normal -0.247683668156632 -0.429000697452314 -0.86868360299588
outer loop
vertex -8.96989141821461 21.4371117086687 22.1210636864554
vertex -13.3342333290998 25.8778497774133 20.8585822708722
vertex -8.13808090639321 22.8778497774133 20.8585822708722
endloop
endfacet
facet normal -0.351659982134307 -0.609092956045382 -0.710873426047983
outer loop
vertex -13.3342333290998 25.8778497774133 20.8585822708722
vertex -8.96989141821461 21.4371117086687 22.1210636864554
vertex -14.1660438409212 24.4371117086687 22.1210636864554
endloop
endfacet
facet normal 0.247683668156632 0.429000697452314 0.86868360299588
outer loop
vertex -18.1289825314274 17.5731005494317 8.22212603852131
vertex -13.7646406205421 13.1323624806872 9.48460745410448
vertex -12.9328301087207 14.5731005494317 8.2221260385213
endloop
endfacet
facet normal 0.351659982134308 0.609092956045382 0.710873426047983
outer loop
vertex -13.7646406205421 13.1323624806872 9.48460745410448
vertex -18.1289825314274 17.5731005494317 8.22212603852131
vertex -18.9607930432488 16.1323624806872 9.48460745410449
endloop
endfacet
facet normal 0.35543671302399 0.615634445832833 -0.703319964268613
outer loop
vertex -13.7948544676596 13.0800305623876 20.7981545766372
vertex -18.1659867857295 17.5090073008842 22.0783348540904
vertex -12.9698343630228 14.5090073008842 22.0783348540904
endloop
endfacet
facet normal 0.252309199944397 0.437012353520754 -0.863342498950254
outer loop
vertex -18.1659867857295 17.5090073008842 22.0783348540904
vertex -13.7948544676596 13.0800305623876 20.7981545766372
vertex -18.9910068903662 16.0800305623876 20.7981545766372
endloop
endfacet
facet normal 0.434341801497939 0.752302068045429 -0.495367336313261
outer loop
vertex -14.4260951754512 11.9866895846868 19.1345335529944
vertex -18.9910068903662 16.0800305623876 20.7981545766372
vertex -13.7948544676596 13.0800305623876 20.7981545766372
endloop
endfacet
facet normal 0.35543671302399 0.615634445832833 -0.703319964268613
outer loop
vertex -18.9910068903662 16.0800305623876 20.7981545766372
vertex -14.4260951754512 11.9866895846868 19.1345335529944
vertex -19.6222475981578 14.9866895846868 19.1345335529944
endloop
endfacet
facet normal 0.00267055202281151 0.00462553178776897 -0.999985736202059
outer loop
vertex -10.9727251796502 17.9681018747481 23.1714807521048
vertex -15.1328882140887 22.7624881313306 22.9099502862255
vertex -9.93673579138209 19.7624881313306 22.9099502862254
endloop
endfacet
facet normal -0.126828121510697 -0.219672750285043 -0.967294427967138
outer loop
vertex -15.1328882140887 22.7624881313306 22.9099502862255
vertex -10.9727251796502 17.9681018747481 23.1714807521048
vertex -16.1688776023568 20.9681018747481 23.1714807521048
endloop
endfacet
facet normal -0.00267055202281145 -0.00462553178776886 0.999985736202059
outer loop
vertex -16.1261487699918 21.0421103833524 7.17170897287188
vertex -11.9659857355532 16.2477241267699 7.43323943875123
vertex -10.9299963472852 18.0421103833524 7.17170897287187
endloop
endfacet
facet normal 0.126828121510697 0.219672750285043 0.967294427967138
outer loop
vertex -11.9659857355532 16.2477241267699 7.43323943875123
vertex -16.1261487699918 21.0421103833524 7.17170897287188
vertex -17.1621381582599 19.2477241267699 7.43323943875124
endloop
endfacet
facet normal -0.364396888740588 -0.631153925418724 0.684733254563203
outer loop
vertex -10.0039288527421 19.6461063351389 13.391288400624
vertex -6.80249880633451 17.1911458323945 12.961524027397
vertex -6.53982723760438 17.6461063351389 13.391288400624
endloop
endfacet
facet normal -0.263369362305923 -0.456169116670878 0.850027244265901
outer loop
vertex -6.80249880633451 17.1911458323945 12.961524027397
vertex -10.0039288527421 19.6461063351389 13.391288400624
vertex -10.2666004214723 19.1911458323945 12.961524027397
endloop
endfacet
facet normal 0.114299752263571 0.197972978213038 0.973520552700325
outer loop
vertex -11.248540119353 17.4903763856963 12.6404414254675
vertex -8.10186772100831 14.9405728544039 12.8805197415984
vertex -7.7844385042152 15.4903763856963 12.6404414254675
endloop
endfacet
facet normal 0.236387912568614 0.409435874863987 0.881182738803828
outer loop
vertex -8.10186772100831 14.9405728544039 12.8805197415984
vertex -11.248540119353 17.4903763856963 12.6404414254675
vertex -11.5659693361461 16.9405728544039 12.8805197415984
endloop
endfacet
facet normal -0.236387912568614 -0.409435874863987 -0.881182738803828
outer loop
vertex -6.87265057565151 17.0696394036966 17.4626699833783
vertex -10.0612075325355 19.5468967515463 17.0664586839394
vertex -6.59710591739774 17.5468967515463 17.0664586839394
endloop
endfacet
facet normal -0.342366627281603 -0.59299639326773 -0.728793777481177
outer loop
vertex -10.0612075325355 19.5468967515463 17.0664586839394
vertex -6.87265057565151 17.0696394036966 17.4626699833783
vertex -10.3367521907893 19.0696394036966 17.4626699833783
endloop
endfacet
facet normal -0.47869664100416 -0.829126903631763 -0.288787298137122
outer loop
vertex -9.70674949685685 20.1608360784928 15.9224418376449
vertex -6.18789023365611 18.2556791070409 15.2525991482869
vertex -6.24264788171909 18.1608360784928 15.9224418376449
endloop
endfacet
facet normal -0.499757274874538 -0.865604991534865 -0.0311554945379252
outer loop
vertex -6.18789023365611 18.2556791070409 15.2525991482869
vertex -9.70674949685685 20.1608360784928 15.9224418376449
vertex -9.65199184879387 20.2556791070409 15.2525991482869
endloop
endfacet
facet normal 0.131987231849261 0.228608591513297 -0.964529669069374
outer loop
vertex -12.0072586182618 16.1762373969439 22.8878322150433
vertex -16.1688776023568 20.9681018747481 23.1714807521048
vertex -10.9727251796502 17.9681018747481 23.1714807521048
endloop
endfacet
facet normal 0.00267055202281149 0.00462553178776893 -0.999985736202059
outer loop
vertex -16.1688776023568 20.9681018747481 23.1714807521048
vertex -12.0072586182618 16.1762373969439 22.8878322150433
vertex -17.2034110409684 19.1762373969439 22.8878322150433
endloop
endfacet
facet normal 0.342366627281602 0.59299639326773 0.728793777481177
outer loop
vertex -8.37741237926208 14.4633155065541 13.2767310410373
vertex -12.0563961810133 16.091128641698 13.8020741784975
vertex -8.59229456587559 14.091128641698 13.8020741784975
endloop
endfacet
facet normal 0.425013622132951 0.73614518744315 0.52673872461185
outer loop
vertex -12.0563961810133 16.091128641698 13.8020741784975
vertex -8.37741237926208 14.4633155065541 13.2767310410373
vertex -11.8415139943998 16.4633155065541 13.2767310410373
endloop
endfacet
facet normal 0.866025403784439 -0.5 -1.78428986599422e-015
outer loop
vertex -15.4872591483299 2.14869966849921 -0.828405137511658
vertex -8.59229456587559 14.091128641698 13.8020741784975
vertex -15.4872591483299 2.14869966849921 31.1715948624883
endloop
endfacet
facet normal 0.866025403784439 -0.5 -1.78428986599422e-015
outer loop
vertex -8.59229456587559 14.091128641698 13.8020741784975
vertex -15.4872591483299 2.14869966849921 -0.828405137511658
vertex -8.37741237926208 14.4633155065541 13.2767310410373
endloop
endfacet
facet normal 0.866025403784439 -0.5 -1.78428986599422e-015
outer loop
vertex -8.37741237926208 14.4633155065541 13.2767310410373
vertex -15.4872591483299 2.14869966849921 -0.828405137511658
vertex 0.512740851670062 29.8615125896013 -0.82840513751168
endloop
endfacet
facet normal 0.866025403784439 -0.5 -1.78428986599422e-015
outer loop
vertex -15.4872591483299 2.14869966849921 31.1715948624883
vertex -8.59229456587559 14.091128641698 13.8020741784975
vertex -8.73187041494073 13.8493761796077 14.4207478873318
endloop
endfacet
facet normal 0.866025403784439 -0.5 -1.78428986599422e-015
outer loop
vertex -15.4872591483299 2.14869966849921 31.1715948624883
vertex -8.73187041494073 13.8493761796077 14.4207478873318
vertex -8.78662806300371 13.7545331510596 15.0905905766897
endloop
endfacet
facet normal 0.866025403784439 -0.5 -1.78428986599422e-015
outer loop
vertex -8.37741237926208 14.4633155065541 13.2767310410373
vertex 0.512740851670062 29.8615125896013 -0.82840513751168
vertex -8.10186772100831 14.9405728544039 12.8805197415984
endloop
endfacet
facet normal 0.866025403784439 -0.5 -1.78428986599422e-015
outer loop
vertex -8.10186772100831 14.9405728544039 12.8805197415984
vertex 0.512740851670062 29.8615125896013 -0.82840513751168
vertex -7.7844385042152 15.4903763856963 12.6404414254675
endloop
endfacet
facet normal 0.866025403784439 -0.5 -1.78428986599422e-015
outer loop
vertex -7.7844385042152 15.4903763856963 12.6404414254675
vertex 0.512740851670062 29.8615125896013 -0.82840513751168
vertex -7.44675700543061 16.0752578983672 12.5728570331407
endloop
endfacet
facet normal 0.866025403784439 -0.5 -1.78428986599422e-015
outer loop
vertex -7.44675700543061 16.0752578983672 12.5728570331407
vertex 0.512740851670062 29.8615125896013 -0.82840513751168
vertex -7.11183566075165 16.6553586838905 12.6823723292667
endloop
endfacet
facet normal 0.866025403784439 -0.5 -1.78428986599422e-015
outer loop
vertex -7.11183566075165 16.6553586838905 12.6823723292667
vertex 0.512740851670062 29.8615125896013 -0.82840513751168
vertex -6.80249880633451 17.1911458323945 12.961524027397
endloop
endfacet
facet normal 0.866025403784439 -0.5 -1.78428986599422e-015
outer loop
vertex -6.80249880633451 17.1911458323945 12.961524027397
vertex 0.512740851670062 29.8615125896013 -0.82840513751168
vertex -6.53982723760438 17.6461063351389 13.391288400624
endloop
endfacet
facet normal 0.866025403784439 -0.5 -1.78428986599422e-015
outer loop
vertex -6.53982723760438 17.6461063351389 13.391288400624
vertex 0.512740851670062 29.8615125896013 -0.82840513751168
vertex -6.34172158788494 17.9892353857194 13.9423777171315
endloop
endfacet
facet normal 0.866025403784439 -0.5 -1.78428986599422e-015
outer loop
vertex -6.34172158788494 17.9892353857194 13.9423777171315
vertex 0.512740851670062 29.8615125896013 -0.82840513751168
vertex -6.22168242981949 18.1971493063866 14.5772361507178
endloop
endfacet
facet normal 0.866025403784439 -0.5 -1.78428986599422e-015
outer loop
vertex -6.22168242981949 18.1971493063866 14.5772361507178
vertex 0.512740851670062 29.8615125896013 -0.82840513751168
vertex -6.18789023365611 18.2556791070409 15.2525991482869
endloop
endfacet
facet normal 0.866025403784439 -0.5 -1.78428986599422e-015
outer loop
vertex -15.4872591483299 2.14869966849921 31.1715948624883
vertex -8.17201949032531 14.819066425706 17.3816656975797
vertex 0.512740851670124 29.8615125896013 31.1715948624883
endloop
endfacet
facet normal 0.866025403784439 -0.5 -1.78428986599422e-015
outer loop
vertex -8.17201949032531 14.819066425706 17.3816656975797
vertex -15.4872591483299 2.14869966849921 31.1715948624883
vertex -8.43469105905544 14.3641059229616 16.9519013243527
endloop
endfacet
facet normal 0.866025403784439 -0.5 -1.78428986599422e-015
outer loop
vertex -8.43469105905544 14.3641059229616 16.9519013243527
vertex -15.4872591483299 2.14869966849921 31.1715948624883
vertex -8.63279670877488 14.020976872381 16.4008120078451
endloop
endfacet
facet normal 0.866025403784439 -0.5 -1.78428986599422e-015
outer loop
vertex -8.63279670877488 14.020976872381 16.4008120078451
vertex -15.4872591483299 2.14869966849921 31.1715948624883
vertex -8.75283586684033 13.8130629517139 15.7659535742589
endloop
endfacet
facet normal 0.866025403784439 -0.5 -1.78428986599422e-015
outer loop
vertex -8.75283586684033 13.8130629517139 15.7659535742589
vertex -15.4872591483299 2.14869966849921 31.1715948624883
vertex -8.78662806300371 13.7545331510596 15.0905905766897
endloop
endfacet
facet normal 0.866025403784439 -0.5 -1.78428986599422e-015
outer loop
vertex 0.512740851670124 29.8615125896013 31.1715948624883
vertex -8.17201949032531 14.819066425706 17.3816656975797
vertex -7.86268263590816 15.35485357421 17.66081739571
endloop
endfacet
facet normal 0.866025403784439 -0.5 -1.78428986599422e-015
outer loop
vertex 0.512740851670124 29.8615125896013 31.1715948624883
vertex -7.86268263590816 15.35485357421 17.66081739571
vertex -7.52776129122921 15.9349543597332 17.7703326918359
endloop
endfacet
facet normal 0.866025403784439 -0.5 -1.78428986599422e-015
outer loop
vertex 0.512740851670124 29.8615125896013 31.1715948624883
vertex -7.52776129122921 15.9349543597332 17.7703326918359
vertex -7.19007979244462 16.5198358724041 17.7027482995092
endloop
endfacet
facet normal 0.866025403784439 -0.5 -1.78428986599422e-015
outer loop
vertex 0.512740851670124 29.8615125896013 31.1715948624883
vertex -7.19007979244462 16.5198358724041 17.7027482995092
vertex -6.87265057565151 17.0696394036966 17.4626699833783
endloop
endfacet
facet normal 0.866025403784439 -0.5 -1.78428986599422e-015
outer loop
vertex 0.512740851670124 29.8615125896013 31.1715948624883
vertex -6.87265057565151 17.0696394036966 17.4626699833783
vertex -6.59710591739774 17.5468967515463 17.0664586839394
endloop
endfacet
facet normal 0.866025403784439 -0.5 -1.78428986599422e-015
outer loop
vertex 0.512740851670124 29.8615125896013 31.1715948624883
vertex -6.59710591739774 17.5468967515463 17.0664586839394
vertex -6.38222373078423 17.9190836164024 16.5411155464791
endloop
endfacet
facet normal 0.866025403784439 -0.5 -1.78428986599422e-015
outer loop
vertex 0.512740851670124 29.8615125896013 31.1715948624883
vertex -6.38222373078423 17.9190836164024 16.5411155464791
vertex -6.24264788171909 18.1608360784928 15.9224418376449
endloop
endfacet
facet normal 0.866025403784439 -0.5 -1.78428986599422e-015
outer loop
vertex 0.512740851670124 29.8615125896013 31.1715948624883
vertex -6.24264788171909 18.1608360784928 15.9224418376449
vertex -6.18789023365611 18.2556791070409 15.2525991482869
endloop
endfacet
facet normal 0.866025403784439 -0.5 -1.78428986599422e-015
outer loop
vertex 0.512740851670124 29.8615125896013 31.1715948624883
vertex -6.18789023365611 18.2556791070409 15.2525991482869
vertex 0.512740851670062 29.8615125896013 -0.82840513751168
endloop
endfacet
facet normal -0.866025403784439 0.5 1.78428986599422e-015
outer loop
vertex -14.8205384753362 11.3034937485808 17.2008448066595
vertex -14.8094794397452 11.3226485601072 13.0597991529001
vertex -14.9513037082759 11.0770017212657 15.1288660301233
endloop
endfacet
facet normal -0.866025403784439 0.5 1.78428986599422e-015
outer loop
vertex -14.8094794397452 11.3226485601072 13.0597991529001
vertex -14.8205384753362 11.3034937485808 17.2008448066595
vertex -14.4260951754512 11.9866895846868 19.1345335529944
endloop
endfacet
facet normal -0.866025403784439 0.5 1.78428986599422e-015
outer loop
vertex -14.8094794397452 11.3226485601072 13.0597991529001
vertex -14.4260951754512 11.9866895846868 19.1345335529944
vertex -14.4047307592687 12.023693838989 11.134647663378
endloop
endfacet
facet normal -0.866025403784439 0.5 1.78428986599422e-015
outer loop
vertex -14.4047307592687 12.023693838989 11.134647663378
vertex -14.4260951754512 11.9866895846868 19.1345335529944
vertex -13.7948544676596 13.0800305623876 20.7981545766372
endloop
endfacet
facet normal -0.866025403784439 0.5 1.78428986599422e-015
outer loop
vertex -14.4047307592687 12.023693838989 11.134647663378
vertex -13.7948544676596 13.0800305623876 20.7981545766372
vertex -13.7646406205421 13.1323624806872 9.48460745410448
endloop
endfacet
facet normal -0.866025403784439 0.5 1.78428986599422e-015
outer loop
vertex -13.7646406205421 13.1323624806872 9.48460745410448
vertex -13.7948544676596 13.0800305623876 20.7981545766372
vertex -12.9698343630228 14.5090073008842 22.0783348540904
endloop
endfacet
facet normal -0.866025403784439 0.5 1.78428986599422e-015
outer loop
vertex -13.7646406205421 13.1323624806872 9.48460745410448
vertex -12.9698343630228 14.5090073008842 22.0783348540904
vertex -12.9328301087207 14.5731005494317 8.2221260385213
endloop
endfacet
facet normal -0.866025403784439 0.5 1.78428986599422e-015
outer loop
vertex -12.9328301087207 14.5731005494317 8.2221260385213
vertex -12.9698343630228 14.5090073008842 22.0783348540904
vertex -12.0072586182618 16.1762373969439 22.8878322150433
endloop
endfacet
facet normal -0.866025403784439 0.5 1.78428986599422e-015
outer loop
vertex -12.9328301087207 14.5731005494317 8.2221260385213
vertex -12.0072586182618 16.1762373969439 22.8878322150433
vertex -12.2507296781415 15.7545331510596 15.0905905766897
endloop
endfacet
facet normal -0.866025403784439 0.5 1.78428986599422e-015
outer loop
vertex -12.2507296781415 15.7545331510596 15.0905905766897
vertex -12.0072586182618 16.1762373969439 22.8878322150433
vertex -12.2169374819781 15.8130629517139 15.7659535742589
endloop
endfacet
facet normal -0.866025403784439 0.5 1.78428986599422e-015
outer loop
vertex -12.2169374819781 15.8130629517139 15.7659535742589
vertex -12.0072586182618 16.1762373969439 22.8878322150433
vertex -12.0968983239126 16.020976872381 16.4008120078451
endloop
endfacet
facet normal -0.866025403784439 0.5 1.78428986599422e-015
outer loop
vertex -12.0968983239126 16.020976872381 16.4008120078451
vertex -12.0072586182618 16.1762373969439 22.8878322150433
vertex -11.8987926741932 16.3641059229616 16.9519013243527
endloop
endfacet
facet normal -0.866025403784439 0.5 1.78428986599422e-015
outer loop
vertex -11.8987926741932 16.3641059229616 16.9519013243527
vertex -12.0072586182618 16.1762373969439 22.8878322150433
vertex -10.9727251796502 17.9681018747481 23.1714807521048
endloop
endfacet
facet normal -0.866025403784439 0.5 1.78428986599422e-015
outer loop
vertex -11.8987926741932 16.3641059229616 16.9519013243527
vertex -10.9727251796502 17.9681018747481 23.1714807521048
vertex -11.6361211054631 16.819066425706 17.3816656975797
endloop
endfacet
facet normal -0.866025403784439 0.5 1.78428986599422e-015
outer loop
vertex -11.6361211054631 16.819066425706 17.3816656975797
vertex -10.9727251796502 17.9681018747481 23.1714807521048
vertex -11.3267842510459 17.35485357421 17.66081739571
endloop
endfacet
facet normal -0.866025403784439 0.5 1.78428986599422e-015
outer loop
vertex -11.3267842510459 17.35485357421 17.66081739571
vertex -10.9727251796502 17.9681018747481 23.1714807521048
vertex -10.991862906367 17.9349543597332 17.7703326918359
endloop
endfacet
facet normal -0.866025403784439 0.5 1.78428986599422e-015
outer loop
vertex -10.991862906367 17.9349543597332 17.7703326918359
vertex -10.9727251796502 17.9681018747481 23.1714807521048
vertex -10.6541814075824 18.5198358724041 17.7027482995092
endloop
endfacet
facet normal -0.866025403784439 0.5 1.78428986599422e-015
outer loop
vertex -10.6541814075824 18.5198358724041 17.7027482995092
vertex -10.9727251796502 17.9681018747481 23.1714807521048
vertex -9.93673579138209 19.7624881313306 22.9099502862254
endloop
endfacet
facet normal -0.866025403784439 0.5 1.78428986599422e-015
outer loop
vertex -10.6541814075824 18.5198358724041 17.7027482995092
vertex -9.93673579138209 19.7624881313306 22.9099502862254
vertex -10.3367521907893 19.0696394036966 17.4626699833783
endloop
endfacet
facet normal -0.866025403784439 0.5 1.78428986599422e-015
outer loop
vertex -10.3367521907893 19.0696394036966 17.4626699833783
vertex -9.93673579138209 19.7624881313306 22.9099502862254
vertex -10.0612075325355 19.5468967515463 17.0664586839394
endloop
endfacet
facet normal -0.866025403784439 0.5 1.78428986599422e-015
outer loop
vertex -10.0612075325355 19.5468967515463 17.0664586839394
vertex -9.93673579138209 19.7624881313306 22.9099502862254
vertex -9.84632534592199 19.9190836164024 16.5411155464791
endloop
endfacet
facet normal -0.866025403784439 0.5 1.78428986599422e-015
outer loop
vertex -9.84632534592199 19.9190836164024 16.5411155464791
vertex -9.93673579138209 19.7624881313306 22.9099502862254
vertex -8.96989141821461 21.4371117086687 22.1210636864554
endloop
endfacet
facet normal -0.866025403784439 0.5 1.78428986599422e-015
outer loop
vertex -9.84632534592199 19.9190836164024 16.5411155464791
vertex -8.96989141821461 21.4371117086687 22.1210636864554
vertex -9.70674949685685 20.1608360784928 15.9224418376449
endloop
endfacet
facet normal -0.866025403784439 0.5 1.78428986599422e-015
outer loop
vertex -9.70674949685685 20.1608360784928 15.9224418376449
vertex -8.96989141821461 21.4371117086687 22.1210636864554
vertex -9.65199184879387 20.2556791070409 15.2525991482869
endloop
endfacet
facet normal -0.866025403784439 0.5 1.78428986599422e-015
outer loop
vertex -12.2507296781415 15.7545331510596 15.0905905766897
vertex -11.9659857355532 16.2477241267699 7.43323943875123
vertex -12.9328301087207 14.5731005494317 8.2221260385213
endloop
endfacet
facet normal -0.866025403784439 0.5 1.78428986599422e-015
outer loop
vertex -11.9659857355532 16.2477241267699 7.43323943875123
vertex -12.2507296781415 15.7545331510596 15.0905905766897
vertex -12.1959720300785 15.8493761796077 14.4207478873318
endloop
endfacet
facet normal -0.866025403784439 0.5 1.78428986599422e-015
outer loop
vertex -11.9659857355532 16.2477241267699 7.43323943875123
vertex -12.1959720300785 15.8493761796077 14.4207478873318
vertex -12.0563961810133 16.091128641698 13.8020741784975
endloop
endfacet
facet normal -0.866025403784439 0.5 1.78428986599422e-015
outer loop
vertex -11.9659857355532 16.2477241267699 7.43323943875123
vertex -12.0563961810133 16.091128641698 13.8020741784975
vertex -11.8415139943998 16.4633155065541 13.2767310410373
endloop
endfacet
facet normal -0.866025403784439 0.5 1.78428986599422e-015
outer loop
vertex -11.9659857355532 16.2477241267699 7.43323943875123
vertex -11.8415139943998 16.4633155065541 13.2767310410373
vertex -10.9299963472852 18.0421103833524 7.17170897287187
endloop
endfacet
facet normal -0.866025403784439 0.5 1.78428986599422e-015
outer loop
vertex -10.9299963472852 18.0421103833524 7.17170897287187
vertex -11.8415139943998 16.4633155065541 13.2767310410373
vertex -11.5659693361461 16.9405728544039 12.8805197415984
endloop
endfacet
facet normal -0.866025403784439 0.5 1.78428986599422e-015
outer loop
vertex -10.9299963472852 18.0421103833524 7.17170897287187
vertex -11.5659693361461 16.9405728544039 12.8805197415984
vertex -11.248540119353 17.4903763856963 12.6404414254675
endloop
endfacet
facet normal -0.866025403784439 0.5 1.78428986599422e-015
outer loop
vertex -10.9299963472852 18.0421103833524 7.17170897287187
vertex -11.248540119353 17.4903763856963 12.6404414254675
vertex -10.9108586205684 18.0752578983672 12.5728570331407
endloop
endfacet
facet normal -0.866025403784439 0.5 1.78428986599422e-015
outer loop
vertex -10.9299963472852 18.0421103833524 7.17170897287187
vertex -10.9108586205684 18.0752578983672 12.5728570331407
vertex -9.89546290867358 19.8339748611566 7.45535750993335
endloop
endfacet
facet normal -0.866025403784439 0.5 1.78428986599422e-015
outer loop
vertex -9.89546290867358 19.8339748611566 7.45535750993335
vertex -10.9108586205684 18.0752578983672 12.5728570331407
vertex -10.5759372758894 18.6553586838905 12.6823723292667
endloop
endfacet
facet normal -0.866025403784439 0.5 1.78428986599422e-015
outer loop
vertex -9.89546290867358 19.8339748611566 7.45535750993335
vertex -10.5759372758894 18.6553586838905 12.6823723292667
vertex -10.2666004214723 19.1911458323945 12.961524027397
endloop
endfacet
facet normal -0.866025403784439 0.5 1.78428986599422e-015
outer loop
vertex -9.89546290867358 19.8339748611566 7.45535750993335
vertex -10.2666004214723 19.1911458323945 12.961524027397
vertex -10.0039288527421 19.6461063351389 13.391288400624
endloop
endfacet
facet normal -0.866025403784439 0.5 1.78428986599422e-015
outer loop
vertex -9.89546290867358 19.8339748611566 7.45535750993335
vertex -10.0039288527421 19.6461063351389 13.391288400624
vertex -9.80582320302269 19.9892353857194 13.9423777171315
endloop
endfacet
facet normal -0.866025403784439 0.5 1.78428986599422e-015
outer loop
vertex -9.89546290867358 19.8339748611566 7.45535750993335
vertex -9.80582320302269 19.9892353857194 13.9423777171315
vertex -8.93288716391249 21.5012049572163 8.2648548708863
endloop
endfacet
facet normal -0.866025403784439 0.5 1.78428986599422e-015
outer loop
vertex -8.93288716391249 21.5012049572163 8.2648548708863
vertex -9.80582320302269 19.9892353857194 13.9423777171315
vertex -9.68578404495724 20.1971493063866 14.5772361507178
endloop
endfacet
facet normal -0.866025403784439 0.5 1.78428986599422e-015
outer loop
vertex -8.93288716391249 21.5012049572163 8.2648548708863
vertex -9.68578404495724 20.1971493063866 14.5772361507178
vertex -9.65199184879387 20.2556791070409 15.2525991482869
endloop
endfacet
facet normal -0.866025403784439 0.5 1.78428986599422e-015
outer loop
vertex -8.93288716391249 21.5012049572163 8.2648548708863
vertex -9.65199184879387 20.2556791070409 15.2525991482869
vertex -8.96989141821461 21.4371117086687 22.1210636864554
endloop
endfacet
facet normal -0.866025403784439 0.5 1.78428986599422e-015
outer loop
vertex -8.93288716391249 21.5012049572163 8.2648548708863
vertex -8.96989141821461 21.4371117086687 22.1210636864554
vertex -8.13808090639321 22.8778497774133 20.8585822708722
endloop
endfacet
facet normal -0.866025403784439 0.5 1.78428986599422e-015
outer loop
vertex -8.93288716391249 21.5012049572163 8.2648548708863
vertex -8.13808090639321 22.8778497774133 20.8585822708722
vertex -8.10786705927574 22.9301816957129 9.54503514833944
endloop
endfacet
facet normal -0.866025403784439 0.5 1.78428986599422e-015
outer loop
vertex -8.10786705927574 22.9301816957129 9.54503514833944
vertex -8.13808090639321 22.8778497774133 20.8585822708722
vertex -7.49799076766664 23.9865184191115 19.2085420615987
endloop
endfacet
facet normal -0.866025403784439 0.5 1.78428986599422e-015
outer loop
vertex -8.10786705927574 22.9301816957129 9.54503514833944
vertex -7.49799076766664 23.9865184191115 19.2085420615987
vertex -7.47662635148415 24.0235226734137 11.2086561719822
endloop
endfacet
facet normal -0.866025403784439 0.5 1.78428986599422e-015
outer loop
vertex -7.47662635148415 24.0235226734137 11.2086561719822
vertex -7.49799076766664 23.9865184191115 19.2085420615987
vertex -7.09324208719017 24.6875636979932 17.2833905720765
endloop
endfacet
facet normal -0.866025403784439 0.5 1.78428986599422e-015
outer loop
vertex -7.47662635148415 24.0235226734137 11.2086561719822
vertex -7.09324208719017 24.6875636979932 17.2833905720765
vertex -7.08218305159912 24.7067185095197 13.1423449183172
endloop
endfacet
facet normal -0.866025403784439 0.5 1.78428986599422e-015
outer loop
vertex -7.08218305159912 24.7067185095197 13.1423449183172
vertex -7.09324208719017 24.6875636979932 17.2833905720765
vertex -6.95141781865943 24.9332105368348 15.2143236948533
endloop
endfacet
facet normal 0.425013622132951 0.736145187443151 0.526738724611849
outer loop
vertex -8.59229456587559 14.091128641698 13.8020741784975
vertex -12.1959720300785 15.8493761796077 14.4207478873318
vertex -8.73187041494073 13.8493761796077 14.4207478873318
endloop
endfacet
facet normal 0.47869664100416 0.829126903631764 0.288787298137122
outer loop
vertex -12.1959720300785 15.8493761796077 14.4207478873318
vertex -8.59229456587559 14.091128641698 13.8020741784975
vertex -12.0563961810133 16.091128641698 13.8020741784975
endloop
endfacet
facet normal 0.431671249475128 0.74767653625766 0.504618399888797
outer loop
vertex -14.4047307592687 12.023693838989 11.134647663378
vertex -20.0056318624518 14.3226485601072 13.0597991529001
vertex -14.8094794397452 11.3226485601072 13.0597991529001
endloop
endfacet
facet normal 0.482264834534687 0.835307196117876 0.263974463698525
outer loop
vertex -20.0056318624518 14.3226485601072 13.0597991529001
vertex -14.4047307592687 12.023693838989 11.134647663378
vertex -19.6008831819753 15.023693838989 11.134647663378
endloop
endfacet
facet normal 0.14439364906856 0.250097136477019 -0.957393282008319
outer loop
vertex -7.86268263590816 15.35485357421 17.66081739571
vertex -10.991862906367 17.9349543597332 17.7703326918359
vertex -7.52776129122921 15.9349543597332 17.7703326918359
endloop
endfacet
facet normal 0.0155777472689611 0.0269814497373115 -0.999514549749076
outer loop
vertex -10.991862906367 17.9349543597332 17.7703326918359
vertex -7.86268263590816 15.35485357421 17.66081739571
vertex -11.3267842510459 17.35485357421 17.66081739571
endloop
endfacet
facet normal -1.87110228306332e-015 2.22477784127079e-016 -1.0
outer loop
vertex -15.4872591483299 2.14869966849921 -0.828405137511658
vertex 0.512740851670034 55.8615125896012 -0.828405137511675
vertex 0.512740851670062 29.8615125896013 -0.82840513751168
endloop
endfacet
facet normal -1.87110228306332e-015 2.22477784127079e-016 -1.0
outer loop
vertex 0.512740851670034 55.8615125896012 -0.828405137511675
vertex -15.4872591483299 2.14869966849921 -0.828405137511658
vertex -9.48725914832994 32.5410045139125 -0.828405137511658
endloop
endfacet
facet normal -1.87110228306332e-015 2.22477784127079e-016 -1.0
outer loop
vertex -9.48725914832994 32.5410045139125 -0.828405137511658
vertex -15.4872591483299 2.14869966849921 -0.828405137511658
vertex -24.1475131861743 7.14869966849921 -0.828405137511635
endloop
endfacet
facet normal -1.87110228306332e-015 2.22477784127079e-016 -1.0
outer loop
vertex 0.512740851670034 55.8615125896012 -0.828405137511675
vertex -9.48725914832996 45.5570602109863 -0.828405137511663
vertex -31.6872591483299 55.8615125896012 -0.828405137511612
endloop
endfacet
facet normal -1.87110228306332e-015 2.22477784127079e-016 -1.0
outer loop
vertex -9.48725914832996 45.5570602109863 -0.828405137511663
vertex 0.512740851670034 55.8615125896012 -0.828405137511675
vertex -9.48725914832994 32.5410045139125 -0.828405137511658
endloop
endfacet
facet normal -1.87110228306332e-015 2.22477784127079e-016 -1.0
outer loop
vertex -31.6872591483299 55.8615125896012 -0.828405137511612
vertex -9.48725914832996 45.5570602109863 -0.828405137511663
vertex -41.6872591483299 45.5570602109863 -0.828405137511601
endloop
endfacet
facet normal -1.87110228306332e-015 2.22477784127079e-016 -1.0
outer loop
vertex -31.6872591483299 55.8615125896012 -0.828405137511612
vertex -41.6872591483299 45.5570602109863 -0.828405137511601
vertex -41.6872591483299 182.861512589601 -0.828405137511562
endloop
endfacet
facet normal -1.87110228306332e-015 2.22477784127079e-016 -1.0
outer loop
vertex -41.6872591483299 182.861512589601 -0.828405137511562
vertex -31.6872591483299 182.861512589601 -0.828405137511579
vertex -31.6872591483299 55.8615125896012 -0.828405137511612
endloop
endfacet
facet normal 0.015577747268961 0.0269814497373114 -0.999514549749076
outer loop
vertex -7.52776129122921 15.9349543597332 17.7703326918359
vertex -10.6541814075824 18.5198358724041 17.7027482995092
vertex -7.19007979244462 16.5198358724041 17.7027482995092
endloop
endfacet
facet normal -0.114299752263571 -0.197972978213038 -0.973520552700325
outer loop
vertex -10.6541814075824 18.5198358724041 17.7027482995092
vertex -7.52776129122921 15.9349543597332 17.7703326918359
vertex -10.991862906367 17.9349543597332 17.7703326918359
endloop
endfacet
facet normal -0.263369362305923 -0.456169116670878 0.850027244265901
outer loop
vertex -10.2666004214723 19.1911458323945 12.961524027397
vertex -7.11183566075165 16.6553586838905 12.6823723292667
vertex -6.80249880633451 17.1911458323945 12.961524027397
endloop
endfacet
facet normal -0.144393649068559 -0.250097136477019 0.957393282008319
outer loop
vertex -7.11183566075165 16.6553586838905 12.6823723292667
vertex -10.2666004214723 19.1911458323945 12.961524027397
vertex -10.5759372758894 18.6553586838905 12.6823723292667
endloop
endfacet
facet normal -0.440591369401913 -0.763126637180463 0.472775825137226
outer loop
vertex -9.80582320302269 19.9892353857194 13.9423777171315
vertex -6.53982723760438 17.6461063351389 13.391288400624
vertex -6.34172158788494 17.9892353857194 13.9423777171315
endloop
endfacet
facet normal -0.364396888740588 -0.631153925418724 0.684733254563203
outer loop
vertex -6.53982723760438 17.6461063351389 13.391288400624
vertex -9.80582320302269 19.9892353857194 13.9423777171315
vertex -10.0039288527421 19.6461063351389 13.391288400624
endloop
endfacet
facet normal -0.425013622132951 -0.736145187443151 -0.526738724611849
outer loop
vertex -9.84632534592199 19.9190836164024 16.5411155464791
vertex -6.24264788171909 18.1608360784928 15.9224418376449
vertex -6.38222373078423 17.9190836164024 16.5411155464791
endloop
endfacet
facet normal -0.47869664100416 -0.829126903631763 -0.288787298137122
outer loop
vertex -6.24264788171909 18.1608360784928 15.9224418376449
vertex -9.84632534592199 19.9190836164024 16.5411155464791
vertex -9.70674949685685 20.1608360784928 15.9224418376449
endloop
endfacet
facet normal -0.14439364906856 -0.250097136477019 0.957393282008319
outer loop
vertex -10.5759372758894 18.6553586838905 12.6823723292667
vertex -7.44675700543061 16.0752578983672 12.5728570331407
vertex -7.11183566075165 16.6553586838905 12.6823723292667
endloop
endfacet
facet normal -0.0155777472689609 -0.0269814497373111 0.999514549749076
outer loop
vertex -7.44675700543061 16.0752578983672 12.5728570331407
vertex -10.5759372758894 18.6553586838905 12.6823723292667
vertex -10.9108586205684 18.0752578983672 12.5728570331407
endloop
endfacet
facet normal -0.499992868101029 -0.866013050973067 -0.00534110404562563
outer loop
vertex -12.1475702413661 27.9332105368348 15.2143236948534
vertex -7.09324208719017 24.6875636979932 17.2833905720765
vertex -12.2893945098968 27.6875636979932 17.2833905720765
endloop
endfacet
facet normal -0.482264834534687 -0.835307196117876 -0.263974463698525
outer loop
vertex -7.09324208719017 24.6875636979932 17.2833905720765
vertex -12.1475702413661 27.9332105368348 15.2143236948534
vertex -6.95141781865943 24.9332105368348 15.2143236948533
endloop
endfacet
facet normal 0.440591369401913 0.763126637180463 -0.472775825137226
outer loop
vertex -8.63279670877488 14.020976872381 16.4008120078451
vertex -11.8987926741932 16.3641059229616 16.9519013243527
vertex -8.43469105905544 14.3641059229616 16.9519013243527
endloop
endfacet
facet normal 0.364396888740588 0.631153925418724 -0.684733254563203
outer loop
vertex -11.8987926741932 16.3641059229616 16.9519013243527
vertex -8.63279670877488 14.020976872381 16.4008120078451
vertex -12.0968983239126 16.020976872381 16.4008120078451
endloop
endfacet
facet normal 0.252309199944397 0.437012353520754 -0.863342498950254
outer loop
vertex -12.9698343630228 14.5090073008842 22.0783348540904
vertex -17.2034110409684 19.1762373969439 22.8878322150433
vertex -12.0072586182618 16.1762373969439 22.8878322150433
endloop
endfacet
facet normal 0.131987231849261 0.228608591513297 -0.964529669069374
outer loop
vertex -17.2034110409684 19.1762373969439 22.8878322150433
vertex -12.9698343630228 14.5090073008842 22.0783348540904
vertex -18.1659867857295 17.5090073008842 22.0783348540904
endloop
endfacet
facet normal 0.236387912568614 0.409435874863987 0.881182738803828
outer loop
vertex -11.5659693361461 16.9405728544039 12.8805197415984
vertex -8.37741237926208 14.4633155065541 13.2767310410373
vertex -8.10186772100831 14.9405728544039 12.8805197415984
endloop
endfacet
facet normal 0.342366627281602 0.59299639326773 0.728793777481177
outer loop
vertex -8.37741237926208 14.4633155065541 13.2767310410373
vertex -11.5659693361461 16.9405728544039 12.8805197415984
vertex -11.8415139943998 16.4633155065541 13.2767310410373
endloop
endfacet
facet normal -0.252309199944397 -0.437012353520754 0.863342498950255
outer loop
vertex -14.1290395866191 24.5012049572163 8.26485487088631
vertex -9.89546290867358 19.8339748611566 7.45535750993335
vertex -8.93288716391249 21.5012049572163 8.2648548708863
endloop
endfacet
facet normal -0.131987231849261 -0.228608591513296 0.964529669069374
outer loop
vertex -9.89546290867358 19.8339748611566 7.45535750993335
vertex -14.1290395866191 24.5012049572163 8.26485487088631
vertex -15.0916153313802 22.8339748611566 7.45535750993336
endloop
endfacet
facet normal 0.483647213983568 0.837701547558679 -0.253656243021391
outer loop
vertex -14.8205384753362 11.3034937485808 17.2008448066595
vertex -19.6222475981578 14.9866895846868 19.1345335529944
vertex -14.4260951754512 11.9866895846868 19.1345335529944
endloop
endfacet
facet normal 0.434341801497939 0.752302068045429 -0.495367336313261
outer loop
vertex -19.6222475981578 14.9866895846868 19.1345335529944
vertex -14.8205384753362 11.3034937485808 17.2008448066595
vertex -20.0166908980428 14.3034937485808 17.2008448066595
endloop
endfacet
facet normal -0.35543671302399 -0.615634445832832 0.703319964268613
outer loop
vertex -13.3040194819824 25.9301816957129 9.54503514833945
vertex -8.93288716391249 21.5012049572163 8.2648548708863
vertex -8.10786705927574 22.9301816957129 9.54503514833944
endloop
endfacet
facet normal -0.252309199944397 -0.437012353520754 0.863342498950255
outer loop
vertex -8.93288716391249 21.5012049572163 8.2648548708863
vertex -13.3040194819824 25.9301816957129 9.54503514833945
vertex -14.1290395866191 24.5012049572163 8.26485487088631
endloop
endfacet
facet normal 5.20328631073723e-016 -1.0 -3.59395976741943e-016
outer loop
vertex -11.4462316527788 45.5570602109863 31.1715948624883
vertex -9.48725914832996 45.5570602109863 -0.828405137511663
vertex -9.48725914832989 45.5570602109863 31.1715948624883
endloop
endfacet
facet normal 5.20328631073723e-016 -1.0 -3.59395976741943e-016
outer loop
vertex -9.48725914832996 45.5570602109863 -0.828405137511663
vertex -11.4462316527788 45.5570602109863 31.1715948624883
vertex -41.6872591483298 45.5570602109863 11.1715948624884
endloop
endfacet
facet normal 5.20328631073723e-016 -1.0 -3.59395976741943e-016
outer loop
vertex -9.48725914832996 45.5570602109863 -0.828405137511663
vertex -41.6872591483298 45.5570602109863 11.1715948624884
vertex -41.6872591483299 45.5570602109863 -0.828405137511601
endloop
endfacet
facet normal -1.0 -8.77395051216717e-016 1.88189952438768e-015
outer loop
vertex -9.48725914832989 45.5570602109863 31.1715948624883
vertex -9.48725914832994 32.5410045139125 -0.828405137511658
vertex -9.48725914832988 32.5410045139125 31.1715948624883
endloop
endfacet
facet normal -1.0 -8.77395051216717e-016 1.88189952438768e-015
outer loop
vertex -9.48725914832994 32.5410045139125 -0.828405137511658
vertex -9.48725914832989 45.5570602109863 31.1715948624883
vertex -9.48725914832996 45.5570602109863 -0.828405137511663
endloop
endfacet
facet normal -0.483647213983568 -0.837701547558679 0.253656243021391
outer loop
vertex -12.2783354743057 27.7067185095197 13.1423449183172
vertex -6.95141781865943 24.9332105368348 15.2143236948533
vertex -12.1475702413661 27.9332105368348 15.2143236948534
endloop
endfacet
facet normal -0.499992868101029 -0.866013050973067 -0.00534110404562558
outer loop
vertex -6.95141781865943 24.9332105368348 15.2143236948533
vertex -12.2783354743057 27.7067185095197 13.1423449183172
vertex -7.08218305159912 24.7067185095197 13.1423449183172
endloop
endfacet
facet normal 1.36449653222241e-015 -0.646413874299796 0.762986961299292
outer loop
vertex -41.68725914833 173.618479081199 6.01575132689694
vertex -31.6872591483299 175.723873538484 8.33537979024631
vertex -41.6872591483299 175.723873538484 8.33537979024633
endloop
endfacet
facet normal 9.82007084724482e-016 -0.821863412406905 0.56968458935351
outer loop
vertex -31.6872591483299 175.723873538484 8.33537979024631
vertex -41.68725914833 173.618479081199 6.01575132689694
vertex -31.68725914833 173.618479081199 6.01575132689692
endloop
endfacet
facet normal -0.431671249475128 -0.74767653625766 -0.504618399888797
outer loop
vertex -12.6941431903733 26.9865184191115 19.2085420615987
vertex -8.13808090639321 22.8778497774133 20.8585822708722
vertex -13.3342333290998 25.8778497774133 20.8585822708722
endloop
endfacet
facet normal -0.351659982134307 -0.609092956045382 -0.710873426047983
outer loop
vertex -8.13808090639321 22.8778497774133 20.8585822708722
vertex -12.6941431903733 26.9865184191115 19.2085420615987
vertex -7.49799076766664 23.9865184191115 19.2085420615987
endloop
endfacet
facet normal 0.126828121510697 0.219672750285043 0.967294427967138
outer loop
vertex -17.1621381582599 19.2477241267699 7.43323943875124
vertex -12.9328301087207 14.5731005494317 8.2221260385213
vertex -11.9659857355532 16.2477241267699 7.43323943875123
endloop
endfacet
facet normal 0.247683668156632 0.429000697452314 0.86868360299588
outer loop
vertex -12.9328301087207 14.5731005494317 8.2221260385213
vertex -17.1621381582599 19.2477241267699 7.43323943875124
vertex -18.1289825314274 17.5731005494317 8.22212603852131
endloop
endfacet
facet normal 1.19904086659517e-016 1.0 3.25113013507605e-016
outer loop
vertex -31.6872591483299 182.861512589601 31.1715948624884
vertex -41.6872591483299 182.861512589601 -0.828405137511562
vertex -41.6872591483299 182.861512589601 31.1715948624884
endloop
endfacet
facet normal 1.19904086659517e-016 1.0 3.25113013507605e-016
outer loop
vertex -41.6872591483299 182.861512589601 -0.828405137511562
vertex -31.6872591483299 182.861512589601 31.1715948624884
vertex -31.6872591483299 182.861512589601 -0.828405137511579
endloop
endfacet
facet normal -4.42014105750921e-016 -0.983973028391379 -0.178317355852699
outer loop
vertex -41.6872591483299 177.669188930298 17.3114031327208
vertex -31.6872591483299 176.713028982338 20.2945424493915
vertex -41.6872591483299 176.713028982338 20.2945424493916
endloop
endfacet
facet normal -9.0079404880664e-016 -0.904293032728097 -0.426912298908594
outer loop
vertex -31.6872591483299 176.713028982338 20.2945424493915
vertex -41.6872591483299 177.669188930298 17.3114031327208
vertex -31.6872591483299 177.669188930298 17.3114031327208
endloop
endfacet
facet normal -5.32595477246015e-016 0.941304317151991 -0.337559154091583
outer loop
vertex -31.6872591483299 154.565860783777 19.2223047115874
vertex -41.6872591483299 155.999151640718 22.0078099347305
vertex -31.6872591483299 155.999151640718 22.0078099347305
endloop
endfacet
facet normal -9.82007084724483e-016 0.821863412406905 -0.56968458935351
outer loop
vertex -41.6872591483299 155.999151640718 22.0078099347305
vertex -31.6872591483299 154.565860783777 19.2223047115874
vertex -41.6872591483299 154.565860783777 19.2223047115874
endloop
endfacet
facet normal 0.351659982134308 0.609092956045382 0.710873426047983
outer loop
vertex -13.7646406205421 13.1323624806872 9.48460745410448
vertex -19.6008831819753 15.023693838989 11.134647663378
vertex -14.4047307592687 12.023693838989 11.134647663378
endloop
endfacet
facet normal 0.431671249475128 0.74767653625766 0.504618399888797
outer loop
vertex -19.6008831819753 15.023693838989 11.134647663378
vertex -13.7646406205421 13.1323624806872 9.48460745410448
vertex -18.9607930432488 16.1323624806872 9.48460745410449
endloop
endfacet
facet normal -0.866025403784439 0.5 1.78428986599422e-015
outer loop
vertex -24.1475131861743 7.1486996684992 31.1715948624884
vertex -20.0166908980428 14.3034937485808 17.2008448066595
vertex -20.1474561309825 14.0770017212657 15.1288660301233
endloop
endfacet
facet normal -0.866025403784439 0.5 1.78428986599422e-015
outer loop
vertex -20.0166908980428 14.3034937485808 17.2008448066595
vertex -24.1475131861743 7.1486996684992 31.1715948624884
vertex -19.6222475981578 14.9866895846868 19.1345335529944
endloop
endfacet
facet normal -0.866025403784439 0.5 1.78428986599422e-015
outer loop
vertex -19.6222475981578 14.9866895846868 19.1345335529944
vertex -24.1475131861743 7.1486996684992 31.1715948624884
vertex -18.9910068903662 16.0800305623876 20.7981545766372
endloop
endfacet
facet normal -0.866025403784439 0.5 1.78428986599422e-015
outer loop
vertex -18.9910068903662 16.0800305623876 20.7981545766372
vertex -24.1475131861743 7.1486996684992 31.1715948624884
vertex -18.1659867857295 17.5090073008842 22.0783348540904
endloop
endfacet
facet normal -0.866025403784439 0.5 1.78428986599422e-015
outer loop
vertex -18.1659867857295 17.5090073008842 22.0783348540904
vertex -24.1475131861743 7.1486996684992 31.1715948624884
vertex -9.48725914832988 32.5410045139125 31.1715948624883
endloop
endfacet
facet normal -0.866025403784439 0.5 1.78428986599422e-015
outer loop
vertex -18.1659867857295 17.5090073008842 22.0783348540904
vertex -9.48725914832988 32.5410045139125 31.1715948624883
vertex -17.2034110409684 19.1762373969439 22.8878322150433
endloop
endfacet
facet normal -0.866025403784439 0.5 1.78428986599422e-015
outer loop
vertex -17.2034110409684 19.1762373969439 22.8878322150433
vertex -9.48725914832988 32.5410045139125 31.1715948624883
vertex -16.1688776023568 20.9681018747481 23.1714807521048
endloop
endfacet
facet normal -0.866025403784439 0.5 1.78428986599422e-015
outer loop
vertex -16.1688776023568 20.9681018747481 23.1714807521048
vertex -9.48725914832988 32.5410045139125 31.1715948624883
vertex -15.1328882140887 22.7624881313306 22.9099502862255
endloop
endfacet
facet normal -0.866025403784439 0.5 1.78428986599422e-015
outer loop
vertex -15.1328882140887 22.7624881313306 22.9099502862255
vertex -9.48725914832988 32.5410045139125 31.1715948624883
vertex -14.1660438409212 24.4371117086687 22.1210636864554
endloop
endfacet
facet normal -0.866025403784439 0.5 1.78428986599422e-015
outer loop
vertex -14.1660438409212 24.4371117086687 22.1210636864554
vertex -9.48725914832988 32.5410045139125 31.1715948624883
vertex -13.3342333290998 25.8778497774133 20.8585822708722
endloop
endfacet
facet normal -0.866025403784439 0.5 1.78428986599422e-015
outer loop
vertex -13.3342333290998 25.8778497774133 20.8585822708722
vertex -9.48725914832988 32.5410045139125 31.1715948624883
vertex -12.6941431903733 26.9865184191115 19.2085420615987
endloop
endfacet
facet normal -0.866025403784439 0.5 1.78428986599422e-015
outer loop
vertex -12.6941431903733 26.9865184191115 19.2085420615987
vertex -9.48725914832988 32.5410045139125 31.1715948624883
vertex -12.2893945098968 27.6875636979932 17.2833905720765
endloop
endfacet
facet normal -0.866025403784439 0.5 1.78428986599422e-015
outer loop
vertex -12.2893945098968 27.6875636979932 17.2833905720765
vertex -9.48725914832988 32.5410045139125 31.1715948624883
vertex -12.1475702413661 27.9332105368348 15.2143236948534
endloop
endfacet
facet normal -0.866025403784439 0.5 1.78428986599422e-015
outer loop
vertex -24.1475131861743 7.14869966849921 -0.828405137511635
vertex -18.1289825314274 17.5731005494317 8.22212603852131
vertex -9.48725914832994 32.5410045139125 -0.828405137511658
endloop
endfacet
facet normal -0.866025403784439 0.5 1.78428986599422e-015
outer loop
vertex -18.1289825314274 17.5731005494317 8.22212603852131
vertex -24.1475131861743 7.14869966849921 -0.828405137511635
vertex -18.9607930432488 16.1323624806872 9.48460745410449
endloop
endfacet
facet normal -0.866025403784439 0.5 1.78428986599422e-015
outer loop
vertex -18.9607930432488 16.1323624806872 9.48460745410449
vertex -24.1475131861743 7.14869966849921 -0.828405137511635
vertex -19.6008831819753 15.023693838989 11.134647663378
endloop
endfacet
facet normal -0.866025403784439 0.5 1.78428986599422e-015
outer loop
vertex -19.6008831819753 15.023693838989 11.134647663378
vertex -24.1475131861743 7.14869966849921 -0.828405137511635
vertex -24.1475131861743 7.1486996684992 31.1715948624884
endloop
endfacet
facet normal -0.866025403784439 0.5 1.78428986599422e-015
outer loop
vertex -19.6008831819753 15.023693838989 11.134647663378
vertex -24.1475131861743 7.1486996684992 31.1715948624884
vertex -20.0056318624518 14.3226485601072 13.0597991529001
endloop
endfacet
facet normal -0.866025403784439 0.5 1.78428986599422e-015
outer loop
vertex -20.0056318624518 14.3226485601072 13.0597991529001
vertex -24.1475131861743 7.1486996684992 31.1715948624884
vertex -20.1474561309825 14.0770017212657 15.1288660301233
endloop
endfacet
facet normal -0.866025403784439 0.5 1.78428986599422e-015
outer loop
vertex -9.48725914832994 32.5410045139125 -0.828405137511658
vertex -18.1289825314274 17.5731005494317 8.22212603852131
vertex -17.1621381582599 19.2477241267699 7.43323943875124
endloop
endfacet
facet normal -0.866025403784439 0.5 1.78428986599422e-015
outer loop
vertex -9.48725914832994 32.5410045139125 -0.828405137511658
vertex -17.1621381582599 19.2477241267699 7.43323943875124
vertex -16.1261487699918 21.0421103833524 7.17170897287188
endloop
endfacet
facet normal -0.866025403784439 0.5 1.78428986599422e-015
outer loop
vertex -9.48725914832994 32.5410045139125 -0.828405137511658
vertex -16.1261487699918 21.0421103833524 7.17170897287188
vertex -15.0916153313802 22.8339748611566 7.45535750993336
endloop
endfacet
facet normal -0.866025403784439 0.5 1.78428986599422e-015
outer loop
vertex -9.48725914832994 32.5410045139125 -0.828405137511658
vertex -15.0916153313802 22.8339748611566 7.45535750993336
vertex -14.1290395866191 24.5012049572163 8.26485487088631
endloop
endfacet
facet normal -0.866025403784439 0.5 1.78428986599422e-015
outer loop
vertex -9.48725914832994 32.5410045139125 -0.828405137511658
vertex -14.1290395866191 24.5012049572163 8.26485487088631
vertex -13.3040194819824 25.9301816957129 9.54503514833945
endloop
endfacet
facet normal -0.866025403784439 0.5 1.78428986599422e-015
outer loop
vertex -9.48725914832994 32.5410045139125 -0.828405137511658
vertex -13.3040194819824 25.9301816957129 9.54503514833945
vertex -12.6727787741908 27.0235226734137 11.2086561719823
endloop
endfacet
facet normal -0.866025403784439 0.5 1.78428986599422e-015
outer loop
vertex -9.48725914832994 32.5410045139125 -0.828405137511658
vertex -12.6727787741908 27.0235226734137 11.2086561719823
vertex -12.2783354743057 27.7067185095197 13.1423449183172
endloop
endfacet
facet normal -0.866025403784439 0.5 1.78428986599422e-015
outer loop
vertex -9.48725914832994 32.5410045139125 -0.828405137511658
vertex -12.2783354743057 27.7067185095197 13.1423449183172
vertex -12.1475702413661 27.9332105368348 15.2143236948534
endloop
endfacet
facet normal -0.866025403784439 0.5 1.78428986599422e-015
outer loop
vertex -9.48725914832994 32.5410045139125 -0.828405137511658
vertex -12.1475702413661 27.9332105368348 15.2143236948534
vertex -9.48725914832988 32.5410045139125 31.1715948624883
endloop
endfacet
facet normal -1.0 -2.91937354808148e-016 2.22765532204962e-015
outer loop
vertex -41.6872591483299 147.783140021078 31.1715948624884
vertex -41.6872591483299 155.999151640718 22.0078099347305
vertex -41.6872591483299 147.783140021078 11.1715948624884
endloop
endfacet
facet normal -1.0 -2.91937354808148e-016 2.22765532204962e-015
outer loop
vertex -41.6872591483299 155.999151640718 22.0078099347305
vertex -41.6872591483299 147.783140021078 31.1715948624884
vertex -41.6872591483299 158.104546098004 24.3274383980799
endloop
endfacet
facet normal -1.0 -2.91937354808148e-016 2.22765532204962e-015
outer loop
vertex -41.6872591483299 158.104546098004 24.3274383980799
vertex -41.6872591483299 147.783140021078 31.1715948624884
vertex -41.6872591483299 160.738565002698 26.0231112552256
endloop
endfacet
facet normal -1.0 -2.91937354808148e-016 2.22765532204962e-015
outer loop
vertex -41.6872591483299 160.738565002698 26.0231112552256
vertex -41.6872591483299 147.783140021078 31.1715948624884
vertex -41.6872591483299 163.721704319369 26.979271203185
endloop
endfacet
facet normal -1.0 -2.91937354808148e-016 2.22765532204962e-015
outer loop
vertex -41.6872591483299 163.721704319369 26.979271203185
vertex -41.6872591483299 147.783140021078 31.1715948624884
vertex -41.6872591483299 182.861512589601 31.1715948624884
endloop
endfacet
facet normal -1.0 -2.91937354808148e-016 2.22765532204962e-015
outer loop
vertex -41.6872591483299 147.783140021078 11.1715948624884
vertex -41.6872591483299 155.999151640718 22.0078099347305
vertex -41.6872591483299 154.565860783777 19.2223047115874
endloop
endfacet
facet normal -1.0 -2.91937354808148e-016 2.22765532204962e-015
outer loop
vertex -41.6872591483299 147.783140021078 11.1715948624884
vertex -41.6872591483299 154.565860783777 19.2223047115874
vertex -41.6872591483299 153.902349930456 16.1607503063427
endloop
endfacet
facet normal -1.0 -2.91937354808148e-016 2.22765532204962e-015
outer loop
vertex -41.6872591483299 163.721704319369 26.979271203185
vertex -41.6872591483299 182.861512589601 31.1715948624884
vertex -41.6872591483299 166.850668033456 27.1307575216337
endloop
endfacet
facet normal -1.0 -2.91937354808148e-016 2.22765532204962e-015
outer loop
vertex -41.6872591483299 166.850668033456 27.1307575216337
vertex -41.6872591483299 182.861512589601 31.1715948624884
vertex -41.6872591483299 169.9122224387 26.4672466683123
endloop
endfacet
facet normal -1.0 -2.91937354808148e-016 2.22765532204962e-015
outer loop
vertex -41.6872591483299 169.9122224387 26.4672466683123
vertex -41.6872591483299 182.861512589601 31.1715948624884
vertex -41.6872591483299 172.697727661843 25.0339558113713
endloop
endfacet
facet normal -1.0 -2.91937354808148e-016 2.22765532204962e-015
outer loop
vertex -41.6872591483299 172.697727661843 25.0339558113713
vertex -41.6872591483299 182.861512589601 31.1715948624884
vertex -41.6872591483299 175.017356125193 22.928561354086
endloop
endfacet
facet normal -1.0 -2.91937354808148e-016 2.22765532204962e-015
outer loop
vertex -41.6872591483299 175.017356125193 22.928561354086
vertex -41.6872591483299 182.861512589601 31.1715948624884
vertex -41.6872591483299 176.713028982338 20.2945424493916
endloop
endfacet
facet normal -1.0 -2.91937354808148e-016 2.22765532204962e-015
outer loop
vertex -41.6872591483299 176.713028982338 20.2945424493916
vertex -41.6872591483299 182.861512589601 31.1715948624884
vertex -41.6872591483299 177.669188930298 17.3114031327208
endloop
endfacet
facet normal -1.0 -2.91937354808148e-016 2.22765532204962e-015
outer loop
vertex -41.6872591483299 177.669188930298 17.3114031327208
vertex -41.6872591483299 182.861512589601 31.1715948624884
vertex -41.6872591483299 177.820675248746 14.1824394186341
endloop
endfacet
facet normal -1.0 -2.91937354808148e-016 2.22765532204962e-015
outer loop
vertex -41.6872591483298 45.5570602109863 11.1715948624884
vertex -41.6872591483299 182.861512589601 -0.828405137511562
vertex -41.6872591483299 45.5570602109863 -0.828405137511601
endloop
endfacet
facet normal -1.0 -2.91937354808148e-016 2.22765532204962e-015
outer loop
vertex -41.6872591483299 182.861512589601 -0.828405137511562
vertex -41.6872591483298 45.5570602109863 11.1715948624884
vertex -41.6872591483298 55.8615125896012 11.1715948624884
endloop
endfacet
facet normal -1.0 -2.91937354808148e-016 2.22765532204962e-015
outer loop
vertex -41.6872591483299 182.861512589601 -0.828405137511562
vertex -41.6872591483298 55.8615125896012 11.1715948624884
vertex -41.68725914833 161.810802740502 3.87594305666455
endloop
endfacet
facet normal -1.0 -2.91937354808148e-016 2.22765532204962e-015
outer loop
vertex -41.68725914833 161.810802740502 3.87594305666455
vertex -41.6872591483298 55.8615125896012 11.1715948624884
vertex -41.68725914833 159.025297517359 5.30923391360557
endloop
endfacet
facet normal -1.0 -2.91937354808148e-016 2.22765532204962e-015
outer loop
vertex -41.68725914833 159.025297517359 5.30923391360557
vertex -41.6872591483298 55.8615125896012 11.1715948624884
vertex -41.6872591483299 147.783140021078 11.1715948624884
endloop
endfacet
facet normal -1.0 -2.91937354808148e-016 2.22765532204962e-015
outer loop
vertex -41.68725914833 159.025297517359 5.30923391360557
vertex -41.6872591483299 147.783140021078 11.1715948624884
vertex -41.6872591483299 156.70566905401 7.41462837089087
endloop
endfacet
facet normal -1.0 -2.91937354808148e-016 2.22765532204962e-015
outer loop
vertex -41.6872591483299 156.70566905401 7.41462837089087
vertex -41.6872591483299 147.783140021078 11.1715948624884
vertex -41.6872591483299 155.009996196864 10.0486472755853
endloop
endfacet
facet normal -1.0 -2.91937354808148e-016 2.22765532204962e-015
outer loop
vertex -41.6872591483299 155.009996196864 10.0486472755853
vertex -41.6872591483299 147.783140021078 11.1715948624884
vertex -41.6872591483299 154.053836248905 13.031786592256
endloop
endfacet
facet normal -1.0 -2.91937354808148e-016 2.22765532204962e-015
outer loop
vertex -41.6872591483299 154.053836248905 13.031786592256
vertex -41.6872591483299 147.783140021078 11.1715948624884
vertex -41.6872591483299 153.902349930456 16.1607503063427
endloop
endfacet
facet normal -1.0 -2.91937354808148e-016 2.22765532204962e-015
outer loop
vertex -41.6872591483299 182.861512589601 -0.828405137511562
vertex -41.68725914833 161.810802740502 3.87594305666455
vertex -41.68725914833 164.872357145747 3.21243220334322
endloop
endfacet
facet normal -1.0 -2.91937354808148e-016 2.22765532204962e-015
outer loop
vertex -41.6872591483299 182.861512589601 -0.828405137511562
vertex -41.68725914833 164.872357145747 3.21243220334322
vertex -41.68725914833 168.001320859834 3.36391852179189
endloop
endfacet
facet normal -1.0 -2.91937354808148e-016 2.22765532204962e-015
outer loop
vertex -41.6872591483299 182.861512589601 -0.828405137511562
vertex -41.68725914833 168.001320859834 3.36391852179189
vertex -41.6872591483299 170.984460176504 4.32007846975127
endloop
endfacet
facet normal -1.0 -2.91937354808148e-016 2.22765532204962e-015
outer loop
vertex -41.6872591483299 182.861512589601 -0.828405137511562
vertex -41.6872591483299 170.984460176504 4.32007846975127
vertex -41.68725914833 173.618479081199 6.01575132689694
endloop
endfacet
facet normal -1.0 -2.91937354808148e-016 2.22765532204962e-015
outer loop
vertex -41.6872591483299 182.861512589601 -0.828405137511562
vertex -41.68725914833 173.618479081199 6.01575132689694
vertex -41.6872591483299 175.723873538484 8.33537979024633
endloop
endfacet
facet normal -1.0 -2.91937354808148e-016 2.22765532204962e-015
outer loop
vertex -41.6872591483299 182.861512589601 -0.828405137511562
vertex -41.6872591483299 175.723873538484 8.33537979024633
vertex -41.6872591483299 177.157164395425 11.1208850133895
endloop
endfacet
facet normal -1.0 -2.91937354808148e-016 2.22765532204962e-015
outer loop
vertex -41.6872591483299 182.861512589601 -0.828405137511562
vertex -41.6872591483299 177.157164395425 11.1208850133895
vertex -41.6872591483299 177.820675248746 14.1824394186341
endloop
endfacet
facet normal -1.0 -2.91937354808148e-016 2.22765532204962e-015
outer loop
vertex -41.6872591483299 182.861512589601 -0.828405137511562
vertex -41.6872591483299 177.820675248746 14.1824394186341
vertex -41.6872591483299 182.861512589601 31.1715948624884
endloop
endfacet
facet normal 0.499992868101029 0.866013050973067 0.00534110404562585
outer loop
vertex -14.9513037082759 11.0770017212657 15.1288660301233
vertex -20.0166908980428 14.3034937485808 17.2008448066595
vertex -14.8205384753362 11.3034937485808 17.2008448066595
endloop
endfacet
facet normal 0.483647213983569 0.837701547558679 -0.253656243021391
outer loop
vertex -20.0166908980428 14.3034937485808 17.2008448066595
vertex -14.9513037082759 11.0770017212657 15.1288660301233
vertex -20.1474561309825 14.0770017212657 15.1288660301233
endloop
endfacet
facet normal 1.60710942783765e-015 0.569684589353509 0.821863412406906
outer loop
vertex -41.68725914833 159.025297517359 5.30923391360557
vertex -31.6872591483299 156.70566905401 7.41462837089085
vertex -31.68725914833 159.025297517359 5.30923391360555
endloop
endfacet
facet normal 1.29818636606874e-015 0.76298696129929 0.646413874299799
outer loop
vertex -31.6872591483299 156.70566905401 7.41462837089085
vertex -41.68725914833 159.025297517359 5.30923391360557
vertex -41.6872591483299 156.70566905401 7.41462837089087
endloop
endfacet
facet normal -1.88280113353112e-015 -0.0824296203211912 -0.996596888262102
outer loop
vertex -41.6872591483299 166.850668033456 27.1307575216337
vertex -31.6872591483299 169.9122224387 26.4672466683123
vertex -31.6872591483299 166.850668033456 27.1307575216336
endloop
endfacet
facet normal -1.80651063797333e-015 -0.337559154091582 -0.941304317151991
outer loop
vertex -31.6872591483299 169.9122224387 26.4672466683123
vertex -41.6872591483299 166.850668033456 27.1307575216337
vertex -41.6872591483299 169.9122224387 26.4672466683123
endloop
endfacet
facet normal -1.80651063797333e-015 -0.337559154091582 -0.941304317151991
outer loop
vertex -31.6872591483299 169.9122224387 26.4672466683123
vertex -41.6872591483299 172.697727661843 25.0339558113713
vertex -31.6872591483299 172.697727661843 25.0339558113713
endloop
endfacet
facet normal -1.60710942783765e-015 -0.569684589353508 -0.821863412406907
outer loop
vertex -41.6872591483299 172.697727661843 25.0339558113713
vertex -31.6872591483299 169.9122224387 26.4672466683123
vertex -41.6872591483299 169.9122224387 26.4672466683123
endloop
endfacet
facet normal -0.431671249475128 -0.74767653625766 -0.504618399888797
outer loop
vertex -12.6941431903733 26.9865184191115 19.2085420615987
vertex -7.09324208719017 24.6875636979932 17.2833905720765
vertex -7.49799076766664 23.9865184191115 19.2085420615987
endloop
endfacet
facet normal -0.482264834534687 -0.835307196117876 -0.263974463698525
outer loop
vertex -7.09324208719017 24.6875636979932 17.2833905720765
vertex -12.6941431903733 26.9865184191115 19.2085420615987
vertex -12.2893945098968 27.6875636979932 17.2833905720765
endloop
endfacet
facet normal -0.499757274874538 -0.865604991534865 -0.0311554945379253
outer loop
vertex -9.65199184879387 20.2556791070409 15.2525991482869
vertex -6.22168242981949 18.1971493063866 14.5772361507178
vertex -6.18789023365611 18.2556791070409 15.2525991482869
endloop
endfacet
facet normal -0.486760276350162 -0.843093529744749 0.22859950452714
outer loop
vertex -6.22168242981949 18.1971493063866 14.5772361507178
vertex -9.65199184879387 20.2556791070409 15.2525991482869
vertex -9.68578404495724 20.1971493063866 14.5772361507178
endloop
endfacet
facet normal 1.65399779598652e-015 -0.426912298908592 0.904293032728098
outer loop
vertex -41.6872591483299 170.984460176504 4.32007846975127
vertex -31.68725914833 168.001320859834 3.36391852179187
vertex -31.6872591483299 170.984460176504 4.32007846975125
endloop
endfacet
facet normal 1.83078184331475e-015 -0.1783173558527 0.983973028391379
outer loop
vertex -31.68725914833 168.001320859834 3.36391852179187
vertex -41.6872591483299 170.984460176504 4.32007846975127
vertex -41.68725914833 168.001320859834 3.36391852179189
endloop
endfacet
facet normal -0.434341801497939 -0.752302068045429 0.495367336313262
outer loop
vertex -12.6727787741908 27.0235226734137 11.2086561719823
vertex -7.08218305159912 24.7067185095197 13.1423449183172
vertex -12.2783354743057 27.7067185095197 13.1423449183172
endloop
endfacet
facet normal -0.483647213983568 -0.837701547558679 0.253656243021391
outer loop
vertex -7.08218305159912 24.7067185095197 13.1423449183172
vertex -12.6727787741908 27.0235226734137 11.2086561719823
vertex -7.47662635148415 24.0235226734137 11.2086561719822
endloop
endfacet
facet normal -0.342366627281603 -0.59299639326773 -0.728793777481177
outer loop
vertex -10.0612075325355 19.5468967515463 17.0664586839394
vertex -6.38222373078423 17.9190836164024 16.5411155464791
vertex -6.59710591739774 17.5468967515463 17.0664586839394
endloop
endfacet
facet normal -0.425013622132951 -0.73614518744315 -0.526738724611849
outer loop
vertex -6.38222373078423 17.9190836164024 16.5411155464791
vertex -10.0612075325355 19.5468967515463 17.0664586839394
vertex -9.84632534592199 19.9190836164024 16.5411155464791
endloop
endfacet
facet normal 9.82007084724482e-016 -0.821863412406905 0.56968458935351
outer loop
vertex -41.6872591483299 175.723873538484 8.33537979024633
vertex -31.6872591483299 177.157164395425 11.1208850133894
vertex -41.6872591483299 177.157164395425 11.1208850133895
endloop
endfacet
facet normal 5.32595477246014e-016 -0.941304317151991 0.337559154091582
outer loop
vertex -31.6872591483299 177.157164395425 11.1208850133894
vertex -41.6872591483299 175.723873538484 8.33537979024633
vertex -31.6872591483299 175.723873538484 8.33537979024631
endloop
endfacet
facet normal 1.80651063797333e-015 0.337559154091583 0.94130431715199
outer loop
vertex -41.68725914833 161.810802740502 3.87594305666455
vertex -31.68725914833 159.025297517359 5.30923391360555
vertex -31.68725914833 161.810802740502 3.87594305666453
endloop
endfacet
facet normal 1.60710942783765e-015 0.569684589353509 0.821863412406906
outer loop
vertex -31.68725914833 159.025297517359 5.30923391360555
vertex -41.68725914833 161.810802740502 3.87594305666455
vertex -41.68725914833 159.025297517359 5.30923391360557
endloop
endfacet
facet normal 5.32595477246014e-016 -0.941304317151991 0.337559154091582
outer loop
vertex -41.6872591483299 177.157164395425 11.1208850133895
vertex -31.6872591483299 177.820675248746 14.1824394186341
vertex -41.6872591483299 177.820675248746 14.1824394186341
endloop
endfacet
facet normal 4.68883681488707e-017 -0.996596888262102 0.0824296203211908
outer loop
vertex -31.6872591483299 177.820675248746 14.1824394186341
vertex -41.6872591483299 177.157164395425 11.1208850133895
vertex -31.6872591483299 177.157164395425 11.1208850133894
endloop
endfacet
facet normal -0.5 -0.866025403784439 7.5032929656427e-016
outer loop
vertex -24.1475131861743 7.1486996684992 31.1715948624884
vertex -15.4872591483299 2.14869966849921 -0.828405137511658
vertex -15.4872591483299 2.14869966849921 31.1715948624883
endloop
endfacet
facet normal -0.5 -0.866025403784439 7.5032929656427e-016
outer loop
vertex -15.4872591483299 2.14869966849921 -0.828405137511658
vertex -24.1475131861743 7.1486996684992 31.1715948624884
vertex -24.1475131861743 7.14869966849921 -0.828405137511635
endloop
endfacet
facet normal -1.65399779598652e-015 0.426912298908594 -0.904293032728097
outer loop
vertex -31.6872591483299 160.738565002698 26.0231112552256
vertex -41.6872591483299 163.721704319369 26.979271203185
vertex -31.6872591483299 163.721704319369 26.979271203185
endloop
endfacet
facet normal -1.83078184331475e-015 0.1783173558527 -0.983973028391379
outer loop
vertex -41.6872591483299 163.721704319369 26.979271203185
vertex -31.6872591483299 160.738565002698 26.0231112552256
vertex -41.6872591483299 160.738565002698 26.0231112552256
endloop
endfacet
facet normal -1.36449653222241e-015 0.646413874299798 -0.762986961299291
outer loop
vertex -41.6872591483299 158.104546098004 24.3274383980799
vertex -31.6872591483299 160.738565002698 26.0231112552256
vertex -31.6872591483299 158.104546098004 24.3274383980799
endloop
endfacet
facet normal -1.65399779598652e-015 0.426912298908594 -0.904293032728097
outer loop
vertex -31.6872591483299 160.738565002698 26.0231112552256
vertex -41.6872591483299 158.104546098004 24.3274383980799
vertex -41.6872591483299 160.738565002698 26.0231112552256
endloop
endfacet
facet normal 1.0 -7.28989166085908e-017 -1.39103224870012e-015
outer loop
vertex -31.6872591483299 182.861512589601 -0.828405137511579
vertex -31.6872591483299 55.8615125896012 11.1715948624884
vertex -31.6872591483299 55.8615125896012 -0.828405137511612
endloop
endfacet
facet normal 1.0 -7.28989166085908e-017 -1.39103224870012e-015
outer loop
vertex -31.6872591483299 55.8615125896012 11.1715948624884
vertex -31.6872591483299 182.861512589601 -0.828405137511579
vertex -31.68725914833 161.810802740502 3.87594305666453
endloop
endfacet
facet normal 1.0 -7.28989166085908e-017 -1.39103224870012e-015
outer loop
vertex -31.6872591483299 55.8615125896012 11.1715948624884
vertex -31.68725914833 161.810802740502 3.87594305666453
vertex -31.68725914833 159.025297517359 5.30923391360555
endloop
endfacet
facet normal 1.0 -7.28989166085908e-017 -1.39103224870012e-015
outer loop
vertex -31.6872591483299 55.8615125896012 11.1715948624884
vertex -31.68725914833 159.025297517359 5.30923391360555
vertex -31.6872591483299 147.783140021078 11.1715948624884
endloop
endfacet
facet normal 1.0 -7.28989166085908e-017 -1.39103224870012e-015
outer loop
vertex -31.6872591483299 147.783140021078 11.1715948624884
vertex -31.68725914833 159.025297517359 5.30923391360555
vertex -31.6872591483299 156.70566905401 7.41462837089085
endloop
endfacet
facet normal 1.0 -7.28989166085908e-017 -1.39103224870012e-015
outer loop
vertex -31.6872591483299 147.783140021078 11.1715948624884
vertex -31.6872591483299 156.70566905401 7.41462837089085
vertex -31.6872591483299 155.009996196864 10.0486472755853
endloop
endfacet
facet normal 1.0 -7.28989166085908e-017 -1.39103224870012e-015
outer loop
vertex -31.6872591483299 147.783140021078 11.1715948624884
vertex -31.6872591483299 155.009996196864 10.0486472755853
vertex -31.6872591483299 147.783140021078 31.1715948624884
endloop
endfacet
facet normal 1.0 -7.28989166085908e-017 -1.39103224870012e-015
outer loop
vertex -31.6872591483299 147.783140021078 31.1715948624884
vertex -31.6872591483299 155.009996196864 10.0486472755853
vertex -31.6872591483299 154.053836248905 13.031786592256
endloop
endfacet
facet normal 1.0 -7.28989166085908e-017 -1.39103224870012e-015
outer loop
vertex -31.6872591483299 147.783140021078 31.1715948624884
vertex -31.6872591483299 154.053836248905 13.031786592256
vertex -31.6872591483299 153.902349930456 16.1607503063427
endloop
endfacet
facet normal 1.0 -7.28989166085908e-017 -1.39103224870012e-015
outer loop
vertex -31.68725914833 161.810802740502 3.87594305666453
vertex -31.6872591483299 182.861512589601 -0.828405137511579
vertex -31.68725914833 164.872357145747 3.2124322033432
endloop
endfacet
facet normal 1.0 -7.28989166085908e-017 -1.39103224870012e-015
outer loop
vertex -31.68725914833 164.872357145747 3.2124322033432
vertex -31.6872591483299 182.861512589601 -0.828405137511579
vertex -31.68725914833 168.001320859834 3.36391852179187
endloop
endfacet
facet normal 1.0 -7.28989166085908e-017 -1.39103224870012e-015
outer loop
vertex -31.68725914833 168.001320859834 3.36391852179187
vertex -31.6872591483299 182.861512589601 -0.828405137511579
vertex -31.6872591483299 170.984460176504 4.32007846975125
endloop
endfacet
facet normal 1.0 -7.28989166085908e-017 -1.39103224870012e-015
outer loop
vertex -31.6872591483299 170.984460176504 4.32007846975125
vertex -31.6872591483299 182.861512589601 -0.828405137511579
vertex -31.68725914833 173.618479081199 6.01575132689692
endloop
endfacet
facet normal 1.0 -7.28989166085908e-017 -1.39103224870012e-015
outer loop
vertex -31.68725914833 173.618479081199 6.01575132689692
vertex -31.6872591483299 182.861512589601 -0.828405137511579
vertex -31.6872591483299 175.723873538484 8.33537979024631
endloop
endfacet
facet normal 1.0 -7.28989166085908e-017 -1.39103224870012e-015
outer loop
vertex -31.6872591483299 175.723873538484 8.33537979024631
vertex -31.6872591483299 182.861512589601 -0.828405137511579
vertex -31.6872591483299 177.157164395425 11.1208850133894
endloop
endfacet
facet normal 1.0 -7.28989166085908e-017 -1.39103224870012e-015
outer loop
vertex -31.6872591483299 177.157164395425 11.1208850133894
vertex -31.6872591483299 182.861512589601 -0.828405137511579
vertex -31.6872591483299 177.820675248746 14.1824394186341
endloop
endfacet
facet normal 1.0 -7.28989166085908e-017 -1.39103224870012e-015
outer loop
vertex -31.6872591483299 147.783140021078 31.1715948624884
vertex -31.6872591483299 163.721704319369 26.979271203185
vertex -31.6872591483299 182.861512589601 31.1715948624884
endloop
endfacet
facet normal 1.0 -7.28989166085908e-017 -1.39103224870012e-015
outer loop
vertex -31.6872591483299 163.721704319369 26.979271203185
vertex -31.6872591483299 147.783140021078 31.1715948624884
vertex -31.6872591483299 160.738565002698 26.0231112552256
endloop
endfacet
facet normal 1.0 -7.28989166085908e-017 -1.39103224870012e-015
outer loop
vertex -31.6872591483299 160.738565002698 26.0231112552256
vertex -31.6872591483299 147.783140021078 31.1715948624884
vertex -31.6872591483299 158.104546098004 24.3274383980799
endloop
endfacet
facet normal 1.0 -7.28989166085908e-017 -1.39103224870012e-015
outer loop
vertex -31.6872591483299 158.104546098004 24.3274383980799
vertex -31.6872591483299 147.783140021078 31.1715948624884
vertex -31.6872591483299 155.999151640718 22.0078099347305
endloop
endfacet
facet normal 1.0 -7.28989166085908e-017 -1.39103224870012e-015
outer loop
vertex -31.6872591483299 155.999151640718 22.0078099347305
vertex -31.6872591483299 147.783140021078 31.1715948624884
vertex -31.6872591483299 154.565860783777 19.2223047115874
endloop
endfacet
facet normal 1.0 -7.28989166085908e-017 -1.39103224870012e-015
outer loop
vertex -31.6872591483299 154.565860783777 19.2223047115874
vertex -31.6872591483299 147.783140021078 31.1715948624884
vertex -31.6872591483299 153.902349930456 16.1607503063427
endloop
endfacet
facet normal 1.0 -7.28989166085908e-017 -1.39103224870012e-015
outer loop
vertex -31.6872591483299 182.861512589601 31.1715948624884
vertex -31.6872591483299 163.721704319369 26.979271203185
vertex -31.6872591483299 166.850668033456 27.1307575216336
endloop
endfacet
facet normal 1.0 -7.28989166085908e-017 -1.39103224870012e-015
outer loop
vertex -31.6872591483299 182.861512589601 31.1715948624884
vertex -31.6872591483299 166.850668033456 27.1307575216336
vertex -31.6872591483299 169.9122224387 26.4672466683123
endloop
endfacet
facet normal 1.0 -7.28989166085908e-017 -1.39103224870012e-015
outer loop
vertex -31.6872591483299 182.861512589601 31.1715948624884
vertex -31.6872591483299 169.9122224387 26.4672466683123
vertex -31.6872591483299 172.697727661843 25.0339558113713
endloop
endfacet
facet normal 1.0 -7.28989166085908e-017 -1.39103224870012e-015
outer loop
vertex -31.6872591483299 182.861512589601 31.1715948624884
vertex -31.6872591483299 172.697727661843 25.0339558113713
vertex -31.6872591483299 175.017356125193 22.928561354086
endloop
endfacet
facet normal 1.0 -7.28989166085908e-017 -1.39103224870012e-015
outer loop
vertex -31.6872591483299 182.861512589601 31.1715948624884
vertex -31.6872591483299 175.017356125193 22.928561354086
vertex -31.6872591483299 176.713028982338 20.2945424493915
endloop
endfacet
facet normal 1.0 -7.28989166085908e-017 -1.39103224870012e-015
outer loop
vertex -31.6872591483299 182.861512589601 31.1715948624884
vertex -31.6872591483299 176.713028982338 20.2945424493915
vertex -31.6872591483299 177.669188930298 17.3114031327208
endloop
endfacet
facet normal 1.0 -7.28989166085908e-017 -1.39103224870012e-015
outer loop
vertex -31.6872591483299 182.861512589601 31.1715948624884
vertex -31.6872591483299 177.669188930298 17.3114031327208
vertex -31.6872591483299 177.820675248746 14.1824394186341
endloop
endfacet
facet normal 1.0 -7.28989166085908e-017 -1.39103224870012e-015
outer loop
vertex -31.6872591483299 182.861512589601 31.1715948624884
vertex -31.6872591483299 177.820675248746 14.1824394186341
vertex -31.6872591483299 182.861512589601 -0.828405137511579
endloop
endfacet
facet normal 4.68883681488707e-017 -0.996596888262102 0.0824296203211908
outer loop
vertex -41.6872591483299 177.820675248746 14.1824394186341
vertex -31.6872591483299 177.669188930298 17.3114031327208
vertex -41.6872591483299 177.669188930298 17.3114031327208
endloop
endfacet
facet normal -4.42014105750921e-016 -0.983973028391379 -0.178317355852699
outer loop
vertex -31.6872591483299 177.669188930298 17.3114031327208
vertex -41.6872591483299 177.820675248746 14.1824394186341
vertex -31.6872591483299 177.820675248746 14.1824394186341
endloop
endfacet
facet normal -9.82007084724483e-016 0.821863412406905 -0.56968458935351
outer loop
vertex -31.6872591483299 155.999151640718 22.0078099347305
vertex -41.6872591483299 158.104546098004 24.3274383980799
vertex -31.6872591483299 158.104546098004 24.3274383980799
endloop
endfacet
facet normal -1.36449653222241e-015 0.646413874299798 -0.762986961299291
outer loop
vertex -41.6872591483299 158.104546098004 24.3274383980799
vertex -31.6872591483299 155.999151640718 22.0078099347305
vertex -41.6872591483299 155.999151640718 22.0078099347305
endloop
endfacet
facet normal 1.0 9.63556719793096e-016 -1.92596150067749e-015
outer loop
vertex 0.512740851670034 55.8615125896012 -0.828405137511675
vertex 0.512740851670124 29.8615125896013 31.1715948624883
vertex 0.512740851670062 29.8615125896013 -0.82840513751168
endloop
endfacet
facet normal 1.0 9.63556719793096e-016 -1.92596150067749e-015
outer loop
vertex 0.512740851670124 29.8615125896013 31.1715948624883
vertex 0.512740851670034 55.8615125896012 -0.828405137511675
vertex 0.512740851670095 55.8615125896012 31.1715948624883
endloop
endfacet
facet normal 1.29818636606874e-015 0.76298696129929 0.646413874299799
outer loop
vertex -31.6872591483299 156.70566905401 7.41462837089085
vertex -41.6872591483299 155.009996196864 10.0486472755853
vertex -31.6872591483299 155.009996196864 10.0486472755853
endloop
endfacet
facet normal 9.0079404880664e-016 0.904293032728098 0.426912298908593
outer loop
vertex -41.6872591483299 155.009996196864 10.0486472755853
vertex -31.6872591483299 156.70566905401 7.41462837089085
vertex -41.6872591483299 156.70566905401 7.41462837089087
endloop
endfacet
facet normal 0.263369362305923 0.456169116670878 -0.850027244265901
outer loop
vertex -8.17201949032531 14.819066425706 17.3816656975797
vertex -11.3267842510459 17.35485357421 17.66081739571
vertex -7.86268263590816 15.35485357421 17.66081739571
endloop
endfacet
facet normal 0.14439364906856 0.250097136477019 -0.957393282008319
outer loop
vertex -11.3267842510459 17.35485357421 17.66081739571
vertex -8.17201949032531 14.819066425706 17.3816656975797
vertex -11.6361211054631 16.819066425706 17.3816656975797
endloop
endfacet
facet normal -1.60710942783765e-015 -0.569684589353508 -0.821863412406907
outer loop
vertex -41.6872591483299 172.697727661843 25.0339558113713
vertex -31.6872591483299 175.017356125193 22.928561354086
vertex -31.6872591483299 172.697727661843 25.0339558113713
endloop
endfacet
facet normal -1.29818636606874e-015 -0.76298696129929 -0.646413874299799
outer loop
vertex -31.6872591483299 175.017356125193 22.928561354086
vertex -41.6872591483299 172.697727661843 25.0339558113713
vertex -41.6872591483299 175.017356125193 22.928561354086
endloop
endfacet
facet normal 1.36449653222241e-015 -0.646413874299796 0.762986961299292
outer loop
vertex -41.68725914833 173.618479081199 6.01575132689694
vertex -31.6872591483299 170.984460176504 4.32007846975125
vertex -31.68725914833 173.618479081199 6.01575132689692
endloop
endfacet
facet normal 1.65399779598652e-015 -0.426912298908592 0.904293032728098
outer loop
vertex -31.6872591483299 170.984460176504 4.32007846975125
vertex -41.68725914833 173.618479081199 6.01575132689694
vertex -41.6872591483299 170.984460176504 4.32007846975127
endloop
endfacet
facet normal 1.83078184331475e-015 -0.1783173558527 0.983973028391379
outer loop
vertex -41.68725914833 168.001320859834 3.36391852179189
vertex -31.68725914833 164.872357145747 3.2124322033432
vertex -31.68725914833 168.001320859834 3.36391852179187
endloop
endfacet
facet normal 1.88280113353112e-015 0.0824296203211917 0.996596888262102
outer loop
vertex -31.68725914833 164.872357145747 3.2124322033432
vertex -41.68725914833 168.001320859834 3.36391852179189
vertex -41.68725914833 164.872357145747 3.21243220334322
endloop
endfacet
facet normal -4.688836814887e-017 0.996596888262102 -0.0824296203211905
outer loop
vertex -31.6872591483299 153.902349930456 16.1607503063427
vertex -41.6872591483299 154.565860783777 19.2223047115874
vertex -31.6872591483299 154.565860783777 19.2223047115874
endloop
endfacet
facet normal -5.32595477246015e-016 0.941304317151991 -0.337559154091583
outer loop
vertex -41.6872591483299 154.565860783777 19.2223047115874
vertex -31.6872591483299 153.902349930456 16.1607503063427
vertex -41.6872591483299 153.902349930456 16.1607503063427
endloop
endfacet
facet normal -1.83078184331475e-015 0.1783173558527 -0.983973028391379
outer loop
vertex -41.6872591483299 163.721704319369 26.979271203185
vertex -31.6872591483299 166.850668033456 27.1307575216336
vertex -31.6872591483299 163.721704319369 26.979271203185
endloop
endfacet
facet normal -1.88280113353112e-015 -0.0824296203211912 -0.996596888262102
outer loop
vertex -31.6872591483299 166.850668033456 27.1307575216336
vertex -41.6872591483299 163.721704319369 26.979271203185
vertex -41.6872591483299 166.850668033456 27.1307575216337
endloop
endfacet
facet normal -9.0079404880664e-016 -0.904293032728097 -0.426912298908594
outer loop
vertex -41.6872591483299 176.713028982338 20.2945424493916
vertex -31.6872591483299 175.017356125193 22.928561354086
vertex -41.6872591483299 175.017356125193 22.928561354086
endloop
endfacet
facet normal -1.29818636606874e-015 -0.76298696129929 -0.646413874299799
outer loop
vertex -31.6872591483299 175.017356125193 22.928561354086
vertex -41.6872591483299 176.713028982338 20.2945424493916
vertex -31.6872591483299 176.713028982338 20.2945424493915
endloop
endfacet
facet normal 9.0079404880664e-016 0.904293032728098 0.426912298908593
outer loop
vertex -31.6872591483299 155.009996196864 10.0486472755853
vertex -41.6872591483299 154.053836248905 13.031786592256
vertex -31.6872591483299 154.053836248905 13.031786592256
endloop
endfacet
facet normal 4.42014105750921e-016 0.983973028391379 0.178317355852699
outer loop
vertex -41.6872591483299 154.053836248905 13.031786592256
vertex -31.6872591483299 155.009996196864 10.0486472755853
vertex -41.6872591483299 155.009996196864 10.0486472755853
endloop
endfacet
facet normal 4.42014105750921e-016 0.983973028391379 0.178317355852699
outer loop
vertex -31.6872591483299 154.053836248905 13.031786592256
vertex -41.6872591483299 153.902349930456 16.1607503063427
vertex -31.6872591483299 153.902349930456 16.1607503063427
endloop
endfacet
facet normal -4.688836814887e-017 0.996596888262102 -0.0824296203211905
outer loop
vertex -41.6872591483299 153.902349930456 16.1607503063427
vertex -31.6872591483299 154.053836248905 13.031786592256
vertex -41.6872591483299 154.053836248905 13.031786592256
endloop
endfacet
facet normal 1.88280113353112e-015 0.0824296203211917 0.996596888262102
outer loop
vertex -41.68725914833 164.872357145747 3.21243220334322
vertex -31.68725914833 161.810802740502 3.87594305666453
vertex -31.68725914833 164.872357145747 3.2124322033432
endloop
endfacet
facet normal 1.80651063797333e-015 0.337559154091583 0.94130431715199
outer loop
vertex -31.68725914833 161.810802740502 3.87594305666453
vertex -41.68725914833 164.872357145747 3.21243220334322
vertex -41.68725914833 161.810802740502 3.87594305666455
endloop
endfacet
facet normal -0.551628173421169 -6.5390924602945e-016 0.834090137987511
outer loop
vertex -41.6872591483298 55.8615125896012 11.1715948624884
vertex -11.4462316527788 45.5570602109863 31.1715948624883
vertex -11.4462316527788 55.8615125896012 31.1715948624883
endloop
endfacet
facet normal -0.551628173421169 -6.5390924602945e-016 0.834090137987511
outer loop
vertex -11.4462316527788 45.5570602109863 31.1715948624883
vertex -41.6872591483298 55.8615125896012 11.1715948624884
vertex -41.6872591483298 45.5570602109863 11.1715948624884
endloop
endfacet
facet normal 1.26467457171087e-015 -4.17213913027198e-016 1.0
outer loop
vertex -41.6872591483299 147.783140021078 11.1715948624884
vertex -31.6872591483299 55.8615125896012 11.1715948624884
vertex -31.6872591483299 147.783140021078 11.1715948624884
endloop
endfacet
facet normal 1.26467457171087e-015 -4.17213913027198e-016 1.0
outer loop
vertex -31.6872591483299 55.8615125896012 11.1715948624884
vertex -41.6872591483299 147.783140021078 11.1715948624884
vertex -41.6872591483298 55.8615125896012 11.1715948624884
endloop
endfacet
facet normal -5.38983240660565e-016 1.0 1.69348580584978e-016
outer loop
vertex -41.6872591483298 55.8615125896012 11.1715948624884
vertex -11.4462316527788 55.8615125896012 31.1715948624883
vertex -31.6872591483299 55.8615125896012 11.1715948624884
endloop
endfacet
facet normal -5.38983240660565e-016 1.0 1.69348580584978e-016
outer loop
vertex 0.512740851670034 55.8615125896012 -0.828405137511675
vertex -11.4462316527788 55.8615125896012 31.1715948624883
vertex 0.512740851670095 55.8615125896012 31.1715948624883
endloop
endfacet
facet normal -5.38983240660565e-016 1.0 1.69348580584978e-016
outer loop
vertex -11.4462316527788 55.8615125896012 31.1715948624883
vertex 0.512740851670034 55.8615125896012 -0.828405137511675
vertex -31.6872591483299 55.8615125896012 11.1715948624884
endloop
endfacet
facet normal -5.38983240660565e-016 1.0 1.69348580584978e-016
outer loop
vertex -31.6872591483299 55.8615125896012 11.1715948624884
vertex 0.512740851670034 55.8615125896012 -0.828405137511675
vertex -31.6872591483299 55.8615125896012 -0.828405137511612
endloop
endfacet
facet normal 4.44089209850062e-016 -1.0 -4.17213913027198e-016
outer loop
vertex -41.6872591483299 147.783140021078 31.1715948624884
vertex -31.6872591483299 147.783140021078 11.1715948624884
vertex -31.6872591483299 147.783140021078 31.1715948624884
endloop
endfacet
facet normal 4.44089209850062e-016 -1.0 -4.17213913027198e-016
outer loop
vertex -31.6872591483299 147.783140021078 11.1715948624884
vertex -41.6872591483299 147.783140021078 31.1715948624884
vertex -41.6872591483299 147.783140021078 11.1715948624884
endloop
endfacet
endsolid SpoolHolderBracketV6
