 0
SECTION
 2
ENTITIES
  0
LINE
 8
Layer0
10
-3.0
20
35.0
30
31.0
11
-3.0
21
-4.0
31
31.0
  0
LINE
 8
Layer0
10
-3.0
20
-4.0
30
31.0
11
48.0
21
-4.0
31
31.0
  0
LINE
 8
Layer0
10
48.0
20
-4.0
30
31.0
11
48.0
21
35.0
31
31.0
  0
LINE
 8
Layer0
10
48.0
20
35.0
30
31.0
11
-3.0
21
35.0
31
31.0
  0
LINE
 8
Layer0
10
-3.0
20
-4.0
30
17.0
11
-3.0
21
-4.0
31
31.0
  0
LINE
 8
Layer0
10
-3.0
20
35.0
30
17.0
11
-3.0
21
35.0
31
31.0
  0
LINE
 8
Layer0
10
48.0
20
-4.0
30
17.0
11
48.0
21
-4.0
31
31.0
  0
LINE
 8
Layer0
10
48.0
20
35.0
30
17.0
11
48.0
21
35.0
31
31.0
  0
LINE
 8
Layer0
10
-1.0
20
-2.0
30
29.0
11
46.0
21
-2.0
31
29.0
  0
LINE
 8
Layer0
10
46.0
20
-2.0
30
29.0
11
46.0
21
33.0
31
29.0
  0
LINE
 8
Layer0
10
46.0
20
33.0
30
29.0
11
-1.00211852322048
21
33.0000000132385
31
29.0
  0
LINE
 8
Layer0
10
48.0
20
12.3488862639115
30
20.8987353569823
11
46.0
21
12.3488862639115
31
20.8987353569823
  0
LINE
 8
Layer0
10
-3.0
20
9.96360352564137
30
19.7163567035974
11
-3.0
21
8.91453163559784
31
18.2521354197451
  0
LINE
 8
Layer0
10
48.0
20
20.7527630530185
30
20.0534101048133
11
48.0
21
19.2828978013039
31
21.1113249260501
  0
LINE
 8
Layer0
10
48.0
20
21.8987353569823
30
18.6511137360885
11
48.0
21
20.7527630530185
31
20.0534101048133
  0
LINE
 8
Layer0
10
-1.0
20
-2.0
30
17.0
11
-1.0
21
-2.0
31
29.0
  0
LINE
 8
Layer0
10
48.0
20
14.0
30
21.6427185944888
11
48.0
21
12.3488862639115
31
20.8987353569823
  0
LINE
 8
Layer0
10
46.0
20
-2.0
30
17.0
11
46.0
21
-2.0
31
29.0
  0
LINE
 8
Layer0
10
48.0
20
12.3488862639115
30
20.8987353569823
11
48.0
21
10.9465898951867
31
19.7527630530185
  0
LINE
 8
Layer0
10
-3.0
20
8.91453163559784
30
18.2521354197451
11
-3.0
21
8.44337363433048
31
17.0
  0
LINE
 8
Layer0
10
46.0
20
-2.0
30
17.0
11
46.0
21
9.40278421652055
31
17.0
  0
LINE
 8
Layer0
10
-1.0
20
-2.0
30
17.0
11
46.0
21
-2.0
31
17.0
  0
LINE
 8
Layer0
10
48.0
20
19.2828978013039
30
21.1113249260501
11
48.0
21
17.5893084896755
31
21.7527630530185
  0
LINE
 8
Layer0
10
-1.0
20
33.0
30
17.0
11
-1.006258
21
21.6026829558037
31
17.0034689385263
  0
LINE
 8
Layer0
10
48.0
20
-4.0
30
17.0
11
48.0
21
9.40278421652055
31
17.0
  0
LINE
 8
Layer0
10
48.0
20
15.7874104309322
30
21.9340115373924
11
48.0
21
14.0
31
21.6427185944888
  0
LINE
 8
Layer0
10
48.0
20
35.0
30
17.0
11
-3.0
21
35.0
31
17.0
  0
LINE
 8
Layer0
10
48.0
20
17.5893084896755
30
21.7527630530185
11
48.0
21
15.7874104309322
31
21.9340115373924
  0
LINE
 8
Layer0
10
48.0
20
22.6427185944888
30
17.0
11
48.0
21
35.0
31
17.0
  0
LINE
 8
Layer0
10
48.0
20
10.9465898951867
30
19.7527630530185
11
48.0
21
9.88867507394992
31
18.2828978013039
  0
LINE
 8
Layer0
10
-3.0
20
-4.0
30
17.0
11
48.0
21
-4.0
31
17.0
  0
LINE
 8
Layer0
10
46.0
20
33.0
30
17.0
11
-1.0
21
33.0
31
17.0
  0
LINE
 8
Layer0
10
48.0
20
9.88867507394992
30
18.2828978013039
11
48.0
21
9.40278421652055
31
17.0
  0
LINE
 8
Layer0
10
-3.0
20
35.0
30
17.0
11
-3.0
21
21.6026829558037
31
17.0034689385263
  0
LINE
 8
Layer0
10
46.0
20
22.6427185944888
30
17.0
11
46.0
21
33.0
31
17.0
  0
LINE
 8
Layer0
10
-1.00211852322048
20
33.0000000132385
30
29.0
11
-1.00231311446407
21
1.8601340056354
31
29.0
  0
LINE
 8
Layer0
10
48.0
20
20.7527630530185
30
20.0534101048133
11
46.0
21
20.7527630530185
31
20.0534101048133
  0
LINE
 8
Layer0
10
48.0
20
10.9465898951867
30
19.7527630530185
11
46.0
21
10.9465898951867
31
19.7527630530185
  0
LINE
 8
Layer0
10
48.0
20
21.8987353569823
30
18.6511137360885
11
46.0
21
21.8987353569823
31
18.6511137360885
  0
LINE
 8
Layer0
10
48.0
20
9.88867507394992
30
18.2828978013039
11
46.0
21
9.88867507394992
31
18.2828978013039
  0
LINE
 8
Layer0
10
48.0
20
9.40278421652055
30
17.0
11
46.0
21
9.40278421652055
31
17.0
  0
LINE
 8
Layer0
10
46.0
20
19.2828978013039
30
21.1113249260501
11
46.0
21
17.5893084896755
31
21.7527630530185
  0
LINE
 8
Layer0
10
46.0
20
21.8987353569823
30
18.6511137360885
11
46.0
21
20.7527630530185
31
20.0534101048133
  0
LINE
 8
Layer0
10
46.0
20
12.3488862639115
30
20.8987353569823
11
46.0
21
10.9465898951867
31
19.7527630530185
  0
LINE
 8
Layer0
10
46.0
20
15.7874104309322
30
21.9340115373924
11
46.0
21
14.0
31
21.6427185944888
  0
LINE
 8
Layer0
10
46.0
20
14.0
30
21.6427185944888
11
46.0
21
12.3488862639115
31
20.8987353569823
  0
LINE
 8
Layer0
10
46.0
20
10.9465898951867
30
19.7527630530185
11
46.0
21
9.88867507394992
31
18.2828978013039
  0
LINE
 8
Layer0
10
46.0
20
17.5893084896755
30
21.7527630530185
11
46.0
21
15.7874104309322
31
21.9340115373924
  0
LINE
 8
Layer0
10
-3.0
20
18.2521354197451
30
21.0854683644022
11
-1.006258
21
18.2521354197451
31
21.0854683644022
  0
LINE
 8
Layer0
10
-3.0
20
14.7736977078453
30
21.8962379073713
11
-1.006258
21
14.7736977078453
31
21.8962379073713
  0
LINE
 8
Layer0
10
-3.0
20
11.3558975123737
30
20.8591660722475
11
-1.006258
21
11.3558975123737
31
20.8591660722475
  0
LINE
 8
Layer0
10
-3.0
20
20.8591660722475
30
18.6441024876263
11
-1.006258
21
20.8591660722475
31
18.6441024876263
  0
LINE
 8
Layer0
10
48.0
20
22.6427185944888
30
17.0
11
46.0
21
22.6427185944888
31
17.0
  0
LINE
 8
Layer0
10
-1.006258
20
8.44337363433048
30
17.0
11
-1.0
21
-2.0
31
17.0
  0
LINE
 8
Layer0
10
-3.0
20
12.9965310614737
30
21.6026829558037
11
-1.006258
21
12.9965310614737
31
21.6026829558037
  0
LINE
 8
Layer0
10
46.0
20
20.7527630530185
30
20.0534101048133
11
46.0
21
19.2828978013039
31
21.1113249260501
  0
LINE
 8
Layer0
10
46.0
20
9.88867507394992
30
18.2828978013039
11
46.0
21
9.40278421652055
31
17.0
  0
LINE
 8
Layer0
10
-3.0
20
19.7163567035974
30
20.0363964743586
11
-1.006258
21
19.7163567035974
31
20.0363964743586
  0
LINE
 8
Layer0
10
-1.006258
20
18.2521354197451
30
21.0854683644022
11
-1.006258
21
16.5662864814451
31
21.7198256421236
  0
LINE
 8
Layer0
10
-3.0
20
8.44337363433048
30
17.0
11
-1.006258
21
8.44337363433048
31
17.0
  0
LINE
 8
Layer0
10
-1.006258
20
21.6026829558037
30
17.0034689385263
11
-1.006258
21
20.8591660722475
31
18.6441024876263
  0
LINE
 8
Layer0
10
-3.0
20
19.7163567035974
30
20.0363964743586
11
-3.0
21
18.2521354197451
31
21.0854683644022
  0
LINE
 8
Layer0
10
46.0
20
22.6427185944888
30
17.0
11
46.0
21
21.8987353569823
31
18.6511137360885
  0
LINE
 8
Layer0
10
-1.006258
20
19.7163567035974
30
20.0363964743586
11
-1.006258
21
18.2521354197451
31
21.0854683644022
  0
LINE
 8
Layer0
10
48.0
20
14.0
30
21.6427185944888
11
46.0
21
14.0
31
21.6427185944888
  0
LINE
 8
Layer0
10
-3.0
20
16.5662864814451
30
21.7198256421236
11
-3.0
21
14.7736977078453
31
21.8962379073713
  0
LINE
 8
Layer0
10
-3.0
20
11.3558975123737
30
20.8591660722475
11
-3.0
21
9.96360352564137
31
19.7163567035974
  0
LINE
 8
Layer0
10
48.0
20
15.7874104309322
30
21.9340115373924
11
46.0
21
15.7874104309322
31
21.9340115373924
  0
LINE
 8
Layer0
10
-3.0
20
16.5662864814451
30
21.7198256421236
11
-1.006258
21
16.5662864814451
31
21.7198256421236
  0
LINE
 8
Layer0
10
-3.0
20
14.7736977078453
30
21.8962379073713
11
-3.0
21
12.9965310614737
31
21.6026829558037
  0
LINE
 8
Layer0
10
-3.0
20
8.91453163559784
30
18.2521354197451
11
-1.006258
21
8.91453163559784
31
18.2521354197451
  0
LINE
 8
Layer0
10
-1.006258
20
16.5662864814451
30
21.7198256421236
11
-1.006258
21
14.7736977078453
31
21.8962379073713
  0
LINE
 8
Layer0
10
-3.0
20
18.2521354197451
30
21.0854683644022
11
-3.0
21
16.5662864814451
31
21.7198256421236
  0
LINE
 8
Layer0
10
-3.0
20
21.6026829558037
30
17.0034689385263
11
-3.0
21
20.8591660722475
31
18.6441024876263
  0
LINE
 8
Layer0
10
48.0
20
17.5893084896755
30
21.7527630530185
11
46.0
21
17.5893084896755
31
21.7527630530185
  0
LINE
 8
Layer0
10
-3.0
20
9.96360352564137
30
19.7163567035974
11
-1.006258
21
9.96360352564137
31
19.7163567035974
  0
LINE
 8
Layer0
10
-1.006258
20
20.8591660722475
30
18.6441024876263
11
-1.006258
21
19.7163567035974
31
20.0363964743586
  0
LINE
 8
Layer0
10
-3.0
20
20.8591660722475
30
18.6441024876263
11
-3.0
21
19.7163567035974
31
20.0363964743586
  0
LINE
 8
Layer0
10
-3.0
20
21.6026829558037
30
17.0034689385263
11
-1.006258
21
21.6026829558037
31
17.0034689385263
  0
LINE
 8
Layer0
10
-1.006258
20
14.7736977078453
30
21.8962379073713
11
-1.006258
21
12.9965310614737
31
21.6026829558037
  0
LINE
 8
Layer0
10
-3.0
20
12.9965310614737
30
21.6026829558037
11
-3.0
21
11.3558975123737
31
20.8591660722475
  0
LINE
 8
Layer0
10
48.0
20
19.2828978013039
30
21.1113249260501
11
46.0
21
19.2828978013039
31
21.1113249260501
  0
LINE
 8
Layer0
10
-1.006258
20
8.91453163559784
30
18.2521354197451
11
-1.006258
21
8.44337363433048
31
17.0
  0
LINE
 8
Layer0
10
-3.0
20
8.44337363433048
30
17.0
11
-3.0
21
-4.0
31
17.0
  0
LINE
 8
Layer0
10
-1.006258
20
11.3558975123737
30
20.8591660722475
11
-1.006258
21
9.96360352564137
31
19.7163567035974
  0
LINE
 8
Layer0
10
-1.006258
20
9.96360352564137
30
19.7163567035974
11
-1.006258
21
8.91453163559784
31
18.2521354197451
  0
LINE
 8
Layer0
10
-1.006258
20
12.9965310614737
30
21.6026829558037
11
-1.006258
21
11.3558975123737
31
20.8591660722475
  0
LINE
 8
Layer0
10
48.0
20
22.6427185944888
30
17.0
11
48.0
21
21.8987353569823
31
18.6511137360885
  0
LINE
 8
Layer0
10
46.0
20
33.0
30
17.0
11
46.0
21
33.0
31
29.0
  0
LINE
 8
Layer0
10
-1.0
20
33.0
30
17.0
11
-1.00211852322048
21
33.0000000132385
31
29.0
  0
LINE
 8
Layer0
10
-1.00231311446407
20
1.8601340056354
30
29.0
11
-1.0
21
-2.0
31
29.0
 0
ENDSEC
 0
EOF
