solid PulseGenBox-lid-x3
facet normal -0.00010189031796629 0.74388675327352 0.668305684490671
outer loop
vertex 50.9982350969012 14.1140903498914 11.4539985086377
vertex 48.9203265261572 15.4168177340129 10.3385528448337
vertex 48.9201921165723 14.1140612637229 11.4537140644845
endloop
endfacet
facet normal -0.000122351380762688 0.54556918575241 0.83806577819858
outer loop
vertex 48.9203265261572 15.4168177340129 10.3385528448337
vertex 50.9982350969012 14.1140903498914 11.4539985086377
vertex 50.9983695064862 15.4168468201814 10.3388372889869
endloop
endfacet
facet normal -0.000131026173688034 -0.206826330225305 0.978377663255696
outer loop
vertex 50.998426491567 20.3593647166496 9.41712259471365
vertex 48.9202827667449 21.9764718179501 9.98747772664155
vertex 48.9203835112381 20.3593356304811 9.41683815056041
endloop
endfacet
facet normal -0.000115689920695236 -0.453001668719559 0.891509660493445
outer loop
vertex 48.9202827667449 21.9764718179501 9.98747772664155
vertex 50.998426491567 20.3593647166496 9.41712259471365
vertex 50.9983257470739 21.9765009041187 9.98776217079479
endloop
endfacet
facet normal -0.000134474399155327 0.310071979817982 0.950713074091439
outer loop
vertex 50.9984491431057 16.9638379042347 9.59885244841314
vertex 48.9204255993265 18.6496096300281 9.28418828676541
vertex 48.9204061627767 16.9638088180661 9.5985680042599
endloop
endfacet
facet normal -0.000137433209474982 0.0534438808771321 0.998570845112606
outer loop
vertex 48.9204255993265 18.6496096300281 9.28418828676541
vertex 50.9984491431057 16.9638379042347 9.59885244841314
vertex 50.9984685796555 18.6496387161966 9.28447273091865
endloop
endfacet
facet normal -0.00168813297135386 0.707525654903867 0.706685642885099
outer loop
vertex 2.19285929746466 15.2950760982289 11.1427804979837
vertex 0.00935721885250321 16.6716997033317 10.0799944174042
vertex 0.00721646010126146 15.2950452211835 11.1375903409846
endloop
endfacet
facet normal -0.0020629155540041 0.500484220971778 0.865743200341585
outer loop
vertex 0.00935721885250321 16.6716997033317 10.0799944174042
vertex 2.19285929746466 15.2950760982289 11.1427804979837
vertex 2.1950000562159 16.6717305803771 10.0851845744033
endloop
endfacet
facet normal -0.000800044156957754 -0.923591904381416 0.383376256555432
outer loop
vertex 1.99773239435332 26.3082852751335 13.8396570560045
vertex 2.18991220280835 25.7571943771713 12.5140424868006
vertex 2.18528606916226 26.3082879247473 13.842339893961
endloop
endfacet
facet normal -0.00112746768798211 -0.865678389983785 0.500599294777464
outer loop
vertex 2.18991220280835 25.7571943771713 12.5140424868006
vertex 1.99773239435332 26.3082852751335 13.8396570560045
vertex -0.000356768201138712 26.3082570477019 13.8371497369619
endloop
endfacet
facet normal -0.00112746768798211 -0.865678389983785 0.500599294777464
outer loop
vertex 2.18991220280835 25.7571943771713 12.5140424868006
vertex -0.000356768201138712 26.3082570477019 13.8371497369619
vertex 0.00426936544495265 25.7571635001259 12.5088523298015
endloop
endfacet
facet normal -0.00112731375857616 -0.865710024137017 0.500544586697704
outer loop
vertex 0.00426936544495265 25.7571635001259 12.5088523298015
vertex 2.19273867094999 24.6995962872376 11.1373909060123
vertex 2.18991220280835 25.7571943771713 12.5140424868006
endloop
endfacet
facet normal -0.00167007831338465 -0.706715246229948 0.707496128317725
outer loop
vertex 2.19273867094999 24.6995962872376 11.1373909060123
vertex 0.00426936544495265 25.7571635001259 12.5088523298015
vertex 0.0070958335865889 24.6995654101922 11.1322007490132
endloop
endfacet
facet normal 1.39969040798261e-005 -0.999999999902043 9.57953685925551e-010
outer loop
vertex 6.02409832087258e-017 -2.25597318603832e-014 -2.53796983429311e-014
vertex 50.9981054778464 0.000713828852704612 13.8441267903113
vertex -0.00189403938090169 -1.32553652498757e-008 13.8371458703712
endloop
endfacet
facet normal 1.39969040798261e-005 -0.999999999902043 9.57953685925551e-010
outer loop
vertex 50.9981054778464 0.000713828852704612 13.8441267903113
vertex 6.02409832087258e-017 -2.25597318603832e-014 -2.53796983429311e-014
vertex 50.9999995172273 0.000713842108047302 0.00698091994011318
endloop
endfacet
facet normal -9.24695907936919e-005 -0.668305692111228 0.74388674765794
outer loop
vertex 48.9201302314179 23.390813033703 10.9572188709254
vertex 50.9979792806163 24.5060033473641 12.2602597711552
vertex 48.9199363002874 24.5059742611956 12.259975327002
endloop
endfacet
facet normal -6.29476110927816e-005 -0.838065787012892 0.545569182300522
outer loop
vertex 50.9979792806163 24.5060033473641 12.2602597711552
vertex 48.9201302314179 23.390813033703 10.9572188709254
vertex 50.9981732117469 23.3908421198715 10.9575033150786
endloop
endfacet
facet normal -2.91358557217424e-005 -0.950713083498829 0.310071978765014
outer loop
vertex 48.9197141894394 25.2459591056653 13.8069663952966
vertex 48.9977520448399 25.252837074242 13.8438530045546
vertex 48.9197090455787 25.2528359818816 13.8438423219677
endloop
endfacet
facet normal -1.13341631642243e-005 -0.983052116115539 0.183326312547594
outer loop
vertex 48.9977520448399 25.252837074242 13.8438530045546
vertex 48.9197141894394 25.2459591056653 13.8069663952966
vertex 50.9977520259077 25.2528650680501 13.8441267661209
endloop
endfacet
facet normal -1.13341631642243e-005 -0.983052116115539 0.183326312547594
outer loop
vertex 50.9977520259077 25.2528650680501 13.8441267661209
vertex 48.9197141894394 25.2459591056653 13.8069663952966
vertex 50.9977571697684 25.2459881918339 13.8072508394498
endloop
endfacet
facet normal -6.29476110927816e-005 -0.838065787012892 0.545569182300522
outer loop
vertex 48.9199363002874 24.5059742611956 12.259975327002
vertex 50.9977571697684 25.2459881918339 13.8072508394498
vertex 48.9197141894394 25.2459591056653 13.8069663952966
endloop
endfacet
facet normal -2.91358557217424e-005 -0.950713083498829 0.310071978765014
outer loop
vertex 50.9977571697684 25.2459881918339 13.8072508394498
vertex 48.9199363002874 24.5059742611956 12.259975327002
vertex 50.9979792806163 24.5060033473641 12.2602597711552
endloop
endfacet
facet normal 0.999999990533869 1.39969040798291e-005 0.000136880783139663
outer loop
vertex 50.9977520259077 25.2528650680501 13.8441267661209
vertex 50.9994536379682 39.0007138382877 0.00698088257991978
vertex 50.9975595985873 39.0007138250324 13.8441267529511
endloop
endfacet
facet normal 0.999999990533869 1.39969040798291e-005 0.000136880783139663
outer loop
vertex 50.9994536379682 39.0007138382877 0.00698088257991978
vertex 50.9977520259077 25.2528650680501 13.8441267661209
vertex 50.9977571697684 25.2459881918339 13.8072508394498
endloop
endfacet
facet normal 0.999999990533869 1.39969040798291e-005 0.000136880783139663
outer loop
vertex 50.9994536379682 39.0007138382877 0.00698088257991978
vertex 50.9977571697684 25.2459881918339 13.8072508394498
vertex 50.9979792806163 24.5060033473641 12.2602597711552
endloop
endfacet
facet normal 0.999999990533869 1.39969040798291e-005 0.000136880783139663
outer loop
vertex 50.9994536379682 39.0007138382877 0.00698088257991978
vertex 50.9979792806163 24.5060033473641 12.2602597711552
vertex 50.9981732117469 23.3908421198715 10.9575033150786
endloop
endfacet
facet normal 0.999999990533869 1.39969040798291e-005 0.000136880783139663
outer loop
vertex 50.9994536379682 39.0007138382877 0.00698088257991978
vertex 50.9981732117469 23.3908421198715 10.9575033150786
vertex 50.9983257470739 21.9765009041187 9.98776217079479
endloop
endfacet
facet normal 0.999999990533869 1.39969040798291e-005 0.000136880783139663
outer loop
vertex 50.9994536379682 39.0007138382877 0.00698088257991978
vertex 50.9983257470739 21.9765009041187 9.98776217079479
vertex 50.9999995172273 0.000713842108047302 0.00698091994011318
endloop
endfacet
facet normal 0.999999990533869 1.39969040798291e-005 0.000136880783139663
outer loop
vertex 50.9999995172273 0.000713842108047302 0.00698091994011318
vertex 50.9983257470739 21.9765009041187 9.98776217079479
vertex 50.998426491567 20.3593647166496 9.41712259471365
endloop
endfacet
facet normal 0.999999990533869 1.39969040798291e-005 0.000136880783139663
outer loop
vertex 50.9999995172273 0.000713842108047302 0.00698091994011318
vertex 50.998426491567 20.3593647166496 9.41712259471365
vertex 50.9984685796555 18.6496387161966 9.28447273091865
endloop
endfacet
facet normal 0.999999990533869 1.39969040798291e-005 0.000136880783139663
outer loop
vertex 50.9999995172273 0.000713842108047302 0.00698091994011318
vertex 50.9984685796555 18.6496387161966 9.28447273091865
vertex 50.9984491431057 16.9638379042347 9.59885244841314
endloop
endfacet
facet normal 0.999999990533869 1.39969040798291e-005 0.000136880783139663
outer loop
vertex 50.9999995172273 0.000713842108047302 0.00698091994011318
vertex 50.9984491431057 16.9638379042347 9.59885244841314
vertex 50.9983695064862 15.4168468201814 10.3388372889869
endloop
endfacet
facet normal 0.999999990533869 1.39969040798291e-005 0.000136880783139663
outer loop
vertex 50.9999995172273 0.000713842108047302 0.00698091994011318
vertex 50.9983695064862 15.4168468201814 10.3388372889869
vertex 50.9982350969012 14.1140903498914 11.4539985086377
endloop
endfacet
facet normal 0.999999990533869 1.39969040798291e-005 0.000136880783139663
outer loop
vertex 50.9999995172273 0.000713842108047302 0.00698091994011318
vertex 50.9982350969012 14.1140903498914 11.4539985086377
vertex 50.9980550741418 13.1443491939081 12.8683397131373
endloop
endfacet
facet normal 0.999999990533869 1.39969040798291e-005 0.000136880783139663
outer loop
vertex 50.9999995172273 0.000713842108047302 0.00698091994011318
vertex 50.9980550741418 13.1443491939081 12.8683397131373
vertex 50.9979263271469 12.8000227640424 13.8441267780502
endloop
endfacet
facet normal 0.999999990533869 1.39969040798291e-005 0.000136880783139663
outer loop
vertex 50.9999995172273 0.000713842108047302 0.00698091994011318
vertex 50.9979263271469 12.8000227640424 13.8441267780502
vertex 50.9981054778464 0.000713828852704612 13.8441267903113
endloop
endfacet
facet normal -0.00229044599810924 -0.258258563917695 0.966073117326168
outer loop
vertex 0.0106493368640109 21.717465648835 9.41276612104089
vertex 2.19491476038939 23.321730579831 10.0813735573725
vertex 0.00927192302598735 23.3216997027856 10.0761834003734
endloop
endfacet
facet normal -0.00205011644228905 -0.499515574496382 0.866302480579458
outer loop
vertex 2.19491476038939 23.321730579831 10.0813735573725
vertex 0.0106493368640109 21.717465648835 9.41276612104089
vertex 2.19629217422741 21.7174965258804 9.41795627803999
endloop
endfacet
facet normal -0.00237466026860835 0.000573048105015257 0.999997016297788
outer loop
vertex 0.0111342066238821 19.9961891479951 9.18715970225318
vertex 2.19629217422741 21.7174965258804 9.41795627803999
vertex 0.0106493368640109 21.717465648835 9.41276612104089
endloop
endfacet
facet normal -0.00229043704408175 -0.258272361525692 0.966069428752452
outer loop
vertex 2.19629217422741 21.7174965258804 9.41795627803999
vertex 0.0111342066238821 19.9961891479951 9.18715970225318
vertex 2.19677704398728 19.9962200250405 9.19234985925228
endloop
endfacet
facet normal -0.999999997633467 -6.99845205647521e-006 -6.84403917319389e-005
outer loop
vertex 6.02409832087258e-017 -2.25597318603832e-014 -2.53796983429311e-014
vertex -0.00243991864001491 38.9999999829243 13.837145833011
vertex -0.000545879259113156 38.9999999961797 -3.73602187853095e-008
endloop
endfacet
facet normal -0.999999997633467 -6.99845205647521e-006 -6.84403917319389e-005
outer loop
vertex -0.00243991864001491 38.9999999829243 13.837145833011
vertex 6.02409832087258e-017 -2.25597318603832e-014 -2.53796983429311e-014
vertex 0.00927192302598735 23.3216997027856 10.0761834003734
endloop
endfacet
facet normal -0.999999997633467 -6.99845205647521e-006 -6.84403917319389e-005
outer loop
vertex -0.00243991864001491 38.9999999829243 13.837145833011
vertex 0.00927192302598735 23.3216997027856 10.0761834003734
vertex 0.0070958335865889 24.6995654101922 11.1322007490132
endloop
endfacet
facet normal -0.999999997633467 -6.99845205647521e-006 -6.84403917319389e-005
outer loop
vertex -0.00243991864001491 38.9999999829243 13.837145833011
vertex 0.0070958335865889 24.6995654101922 11.1322007490132
vertex 0.00426936544495265 25.7571635001259 12.5088523298015
endloop
endfacet
facet normal -0.999999997633467 -6.99845205647521e-006 -6.84403917319389e-005
outer loop
vertex -0.00243991864001491 38.9999999829243 13.837145833011
vertex 0.00426936544495265 25.7571635001259 12.5088523298015
vertex -0.000356768201138712 26.3082570477019 13.8371497369619
endloop
endfacet
facet normal -0.999999997633467 -6.99845205647521e-006 -6.84403917319389e-005
outer loop
vertex 0.00927192302598735 23.3216997027856 10.0761834003734
vertex 6.02409832087258e-017 -2.25597318603832e-014 -2.53796983429311e-014
vertex 0.0106493368640109 21.717465648835 9.41276612104089
endloop
endfacet
facet normal -0.999999997633467 -6.99845205647521e-006 -6.84403917319389e-005
outer loop
vertex 0.0106493368640109 21.717465648835 9.41276612104089
vertex 6.02409832087258e-017 -2.25597318603832e-014 -2.53796983429311e-014
vertex 0.0111342066238821 19.9961891479951 9.18715970225318
endloop
endfacet
facet normal -0.999999997633467 -6.99845205647521e-006 -6.84403917319389e-005
outer loop
vertex 0.0111342066238821 19.9961891479951 9.18715970225318
vertex 6.02409832087258e-017 -2.25597318603832e-014 -2.53796983429311e-014
vertex 0.0106934892327509 18.2751723492541 9.41473884861845
endloop
endfacet
facet normal -0.999999997633467 -6.99845205647521e-006 -6.84403917319389e-005
outer loop
vertex 0.0106934892327509 18.2751723492541 9.41473884861845
vertex 6.02409832087258e-017 -2.25597318603832e-014 -2.53796983429311e-014
vertex 0.00935721885250321 16.6716997033317 10.0799944174042
endloop
endfacet
facet normal -0.999999997633467 -6.99845205647521e-006 -6.84403917319389e-005
outer loop
vertex 0.00935721885250321 16.6716997033317 10.0799944174042
vertex 6.02409832087258e-017 -2.25597318603832e-014 -2.53796983429311e-014
vertex 0.00721646010126146 15.2950452211835 11.1375903409846
endloop
endfacet
facet normal -0.999999997633467 -6.99845205647521e-006 -6.84403917319389e-005
outer loop
vertex 0.00721646010126146 15.2950452211835 11.1375903409846
vertex 6.02409832087258e-017 -2.25597318603832e-014 -2.53796983429311e-014
vertex 0.00441710215015167 14.2390256307388 12.5154532049274
endloop
endfacet
facet normal -0.999999997633467 -6.99845205647521e-006 -6.84403917319389e-005
outer loop
vertex 0.00441710215015167 14.2390256307388 12.5154532049274
vertex 6.02409832087258e-017 -2.25597318603832e-014 -2.53796983429311e-014
vertex -0.000180185895264304 13.6924453760608 13.8371497490473
endloop
endfacet
facet normal -0.999999997633467 -6.99845205647521e-006 -6.84403917319389e-005
outer loop
vertex -0.000180185895264304 13.6924453760608 13.8371497490473
vertex 6.02409832087258e-017 -2.25597318603832e-014 -2.53796983429311e-014
vertex -0.00189403938090169 -1.32553652498757e-008 13.8371458703712
endloop
endfacet
facet normal -0.00114971460187301 0.866251295809507 0.499607216385716
outer loop
vertex 2.19005993951355 14.2390565077842 12.5206433619265
vertex 1.99790897665919 13.6924736034923 13.8396570680899
vertex 2.18546265146814 13.6924762531062 13.8423399060464
endloop
endfacet
facet normal -0.000823900930016566 0.924030509100063 0.382317851322086
outer loop
vertex 1.99790897665919 13.6924736034923 13.8396570680899
vertex 2.19005993951355 14.2390565077842 12.5206433619265
vertex -0.000180185895264304 13.6924453760608 13.8371497490473
endloop
endfacet
facet normal -0.000823900930016566 0.924030509100063 0.382317851322086
outer loop
vertex -0.000180185895264304 13.6924453760608 13.8371497490473
vertex 2.19005993951355 14.2390565077842 12.5206433619265
vertex 0.00441710215015167 14.2390256307388 12.5154532049274
endloop
endfacet
facet normal 0.000136880783139945 9.57953515123844e-010 -0.999999990631826
outer loop
vertex 50.9994536379682 39.0007138382877 0.00698088257991978
vertex 6.02409832087258e-017 -2.25597318603832e-014 -2.53796983429311e-014
vertex -0.000545879259113156 38.9999999961797 -3.73602187853095e-008
endloop
endfacet
facet normal 0.000136880783139945 9.57953515123844e-010 -0.999999990631826
outer loop
vertex 6.02409832087258e-017 -2.25597318603832e-014 -2.53796983429311e-014
vertex 50.9994536379682 39.0007138382877 0.00698088257991978
vertex 50.9999995172273 0.000713842108047302 0.00698091994011318
endloop
endfacet
facet normal -0.000137433209474982 0.0534438808771321 0.998570845112606
outer loop
vertex 50.9984685796555 18.6496387161966 9.28447273091865
vertex 48.9203835112381 20.3593356304811 9.41683815056041
vertex 48.9204255993265 18.6496096300281 9.28418828676541
endloop
endfacet
facet normal -0.000131026173688034 -0.206826330225305 0.978377663255696
outer loop
vertex 48.9203835112381 20.3593356304811 9.41683815056041
vertex 50.9984685796555 18.6496387161966 9.28447273091865
vertex 50.998426491567 20.3593647166496 9.41712259471365
endloop
endfacet
facet normal -0.000115689920695236 -0.453001668719559 0.891509660493445
outer loop
vertex 50.9983257470739 21.9765009041187 9.98776217079479
vertex 48.9201302314179 23.390813033703 10.9572188709254
vertex 48.9202827667449 21.9764718179501 9.98747772664155
endloop
endfacet
facet normal -9.24695907936919e-005 -0.668305692111228 0.74388674765794
outer loop
vertex 48.9201302314179 23.390813033703 10.9572188709254
vertex 50.9983257470739 21.9765009041187 9.98776217079479
vertex 50.9981732117469 23.3908421198715 10.9575033150786
endloop
endfacet
facet normal -7.4485598382029e-005 0.891509667890025 0.453001662812084
outer loop
vertex 50.9980550741418 13.1443491939081 12.8683397131373
vertex 48.9979263460792 12.7999947702342 13.8438530164839
vertex 50.9979263271469 12.8000227640424 13.8441267780502
endloop
endfacet
facet normal -5.87477989354577e-005 0.94301126198193 0.332760809477233
outer loop
vertex 48.9979263460792 12.7999947702342 13.8438530164839
vertex 50.9980550741418 13.1443491939081 12.8683397131373
vertex 48.919883346818 12.7999936778738 13.8438423338969
endloop
endfacet
facet normal -5.87477989354577e-005 0.94301126198193 0.332760809477233
outer loop
vertex 48.919883346818 12.7999936778738 13.8438423338969
vertex 50.9980550741418 13.1443491939081 12.8683397131373
vertex 48.9200120938128 13.1443201077396 12.868055268984
endloop
endfacet
facet normal -1.39969040798261e-005 0.999999999902043 -9.57953685925551e-010
outer loop
vertex 50.9994536379682 39.0007138382877 0.00698088257991978
vertex -0.00243991864001491 38.9999999829243 13.837145833011
vertex 50.9975595985873 39.0007138250324 13.8441267529511
endloop
endfacet
facet normal -1.39969040798261e-005 0.999999999902043 -9.57953685925551e-010
outer loop
vertex -0.00243991864001491 38.9999999829243 13.837145833011
vertex 50.9994536379682 39.0007138382877 0.00698088257991978
vertex -0.000545879259113156 38.9999999961797 -3.73602187853095e-008
endloop
endfacet
facet normal -0.000122351380762688 0.54556918575241 0.83806577819858
outer loop
vertex 50.9983695064862 15.4168468201814 10.3388372889869
vertex 48.9204061627767 16.9638088180661 9.5985680042599
vertex 48.9203265261572 15.4168177340129 10.3385528448337
endloop
endfacet
facet normal -0.000134474399155327 0.310071979817982 0.950713074091439
outer loop
vertex 48.9204061627767 16.9638088180661 9.5985680042599
vertex 50.9983695064862 15.4168468201814 10.3388372889869
vertex 50.9984491431057 16.9638379042347 9.59885244841314
endloop
endfacet
facet normal -0.00010189031796629 0.74388675327352 0.668305684490671
outer loop
vertex 50.9982350969012 14.1140903498914 11.4539985086377
vertex 48.9200120938128 13.1443201077396 12.868055268984
vertex 50.9980550741418 13.1443491939081 12.8683397131373
endloop
endfacet
facet normal -7.4485598382029e-005 0.891509667890025 0.453001662812084
outer loop
vertex 48.9200120938128 13.1443201077396 12.868055268984
vertex 50.9982350969012 14.1140903498914 11.4539985086377
vertex 48.9201921165723 14.1140612637229 11.4537140644845
endloop
endfacet
facet normal -0.00205014951891114 -0.499491663447066 0.866316267326104
outer loop
vertex 0.00927192302598735 23.3216997027856 10.0761834003734
vertex 2.19273867094999 24.6995962872376 11.1373909060123
vertex 0.0070958335865889 24.6995654101922 11.1322007490132
endloop
endfacet
facet normal -0.00167007831338465 -0.706715246229948 0.707496128317725
outer loop
vertex 2.19273867094999 24.6995962872376 11.1373909060123
vertex 0.00927192302598735 23.3216997027856 10.0761834003734
vertex 2.19491476038939 23.321730579831 10.0813735573725
endloop
endfacet
facet normal -0.000125466308228397 4.31257300564026e-005 0.999999991199188
outer loop
vertex 50.9977520259077 25.2528650680501 13.8441267661209
vertex 48.9975876113277 37.0006858314202 13.8438529933008
vertex 48.9977520448399 25.252837074242 13.8438530045546
endloop
endfacet
facet normal -0.000125466308228397 4.31257300564026e-005 0.999999991199188
outer loop
vertex -0.00243991864001491 38.9999999829243 13.837145833011
vertex 1.99758805623588 37.0000279769284 13.8374195964932
vertex 50.9975595985873 39.0007138250324 13.8441267529511
endloop
endfacet
facet normal -0.000125466308228397 4.31257300564026e-005 0.999999991199188
outer loop
vertex 1.99758805623588 37.0000279769284 13.8374195964932
vertex -0.00243991864001491 38.9999999829243 13.837145833011
vertex -0.000356768201138712 26.3082570477019 13.8371497369619
endloop
endfacet
facet normal -0.000125466308228397 4.31257300564026e-005 0.999999991199188
outer loop
vertex 1.99758805623588 37.0000279769284 13.8374195964932
vertex -0.000356768201138712 26.3082570477019 13.8371497369619
vertex 1.99773239435332 26.3082852751335 13.8396570560045
endloop
endfacet
facet normal -0.000125466308228397 4.31257300564026e-005 0.999999991199188
outer loop
vertex 50.9975595985873 39.0007138250324 13.8441267529511
vertex 1.99758805623588 37.0000279769284 13.8374195964932
vertex 48.9975876113277 37.0006858314202 13.8438529933008
endloop
endfacet
facet normal -0.000125466308228397 4.31257300564026e-005 0.999999991199188
outer loop
vertex 50.9975595985873 39.0007138250324 13.8441267529511
vertex 48.9975876113277 37.0006858314202 13.8438529933008
vertex 50.9977520259077 25.2528650680501 13.8441267661209
endloop
endfacet
facet normal -0.00168813297135386 0.707525654903867 0.706685642885099
outer loop
vertex 2.19285929746466 15.2950760982289 11.1427804979837
vertex 0.00441710215015167 14.2390256307388 12.5154532049274
vertex 2.19005993951355 14.2390565077842 12.5206433619265
endloop
endfacet
facet normal -0.00114956009818113 0.866283165559256 0.499551954835746
outer loop
vertex 0.00441710215015167 14.2390256307388 12.5154532049274
vertex 2.19285929746466 15.2950760982289 11.1427804979837
vertex 0.00721646010126146 15.2950452211835 11.1375903409846
endloop
endfacet
facet normal -0.00229704555304527 0.25937942231029 0.965772767716976
outer loop
vertex 2.19633632659615 18.2752032262995 9.41992900561755
vertex 0.0111342066238821 19.9961891479951 9.18715970225318
vertex 0.0106934892327509 18.2751723492541 9.41473884861845
endloop
endfacet
facet normal -0.00237466026860835 0.000573048105015257 0.999997016297788
outer loop
vertex 0.0111342066238821 19.9961891479951 9.18715970225318
vertex 2.19633632659615 18.2752032262995 9.41992900561755
vertex 2.19677704398728 19.9962200250405 9.19234985925228
endloop
endfacet
facet normal -0.000126354874920936 -4.6805323579166e-005 0.999999990921854
outer loop
vertex -0.00189403938090169 -1.32553652498757e-008 13.8371458703712
vertex 1.99807794787868 2.00002798035688 13.8374196300216
vertex -0.000180185895264304 13.6924453760608 13.8371497490473
endloop
endfacet
facet normal -0.000126354874920936 -4.6805323579166e-005 0.999999990921854
outer loop
vertex 1.99807794787868 2.00002798035688 13.8374196300216
vertex -0.00189403938090169 -1.32553652498757e-008 13.8371458703712
vertex 50.9981054778464 0.000713828852704612 13.8441267903113
endloop
endfacet
facet normal -0.000126354874920936 -4.6805323579166e-005 0.999999990921854
outer loop
vertex -0.000180185895264304 13.6924453760608 13.8371497490473
vertex 1.99807794787868 2.00002798035688 13.8374196300216
vertex 1.99790897665919 13.6924736034923 13.8396570680899
endloop
endfacet
facet normal -0.000126354874920936 -4.6805323579166e-005 0.999999990921854
outer loop
vertex 1.99807794787868 2.00002798035688 13.8374196300216
vertex 50.9981054778464 0.000713828852704612 13.8441267903113
vertex 48.9980775029705 2.00068583484863 13.8438530268291
endloop
endfacet
facet normal -0.000126354874920936 -4.6805323579166e-005 0.999999990921854
outer loop
vertex 48.9980775029705 2.00068583484863 13.8438530268291
vertex 50.9981054778464 0.000713828852704612 13.8441267903113
vertex 48.9979263460792 12.7999947702342 13.8438530164839
endloop
endfacet
facet normal -0.000126354874920936 -4.6805323579166e-005 0.999999990921854
outer loop
vertex 48.9979263460792 12.7999947702342 13.8438530164839
vertex 50.9981054778464 0.000713828852704612 13.8441267903113
vertex 50.9979263271469 12.8000227640424 13.8441267780502
endloop
endfacet
facet normal -0.00206288306734096 0.500508131183321 0.865729377538287
outer loop
vertex 2.1950000562159 16.6717305803771 10.0851845744033
vertex 0.0106934892327509 18.2751723492541 9.41473884861845
vertex 0.00935721885250321 16.6716997033317 10.0799944174042
endloop
endfacet
facet normal -0.00229705416645982 0.25936561030137 0.965776477108008
outer loop
vertex 0.0106934892327509 18.2751723492541 9.41473884861845
vertex 2.1950000562159 16.6717305803771 10.0851845744033
vertex 2.19633632659615 18.2752032262995 9.41992900561755
endloop
endfacet
endsolid PulseGenBox-lid-x3
