solid PulseGenBox-lid-x5
facet normal 0.0 0.229097118568759 0.973403570089761
outer loop
vertex 51.0 17.4106915103244 9.24723694698148
vertex 49.0 19.2125895690677 9.06598846260763
vertex 49.0 17.4106915103244 9.24723694698148
endloop
endfacet
facet normal 0.0 -0.0306445589560382 0.999530345215387
outer loop
vertex 49.0 19.2125895690677 9.06598846260763
vertex 51.0 17.4106915103244 9.24723694698148
vertex 51.0 19.2125895690677 9.06598846260763
endloop
endfacet
facet normal 0.0 0.84916065656237 0.528134622370627
outer loop
vertex 0.0 14.1408339277524 12.3558975123738
vertex 1.993742 15.2836432964025 10.9636035256414
vertex 0.0 15.2836432964025 10.9636035256414
endloop
endfacet
facet normal 0.0 0.683534910194622 0.729917821775322
outer loop
vertex 1.993742 15.2836432964025 10.9636035256414
vertex 0.0 14.1408339277524 12.3558975123738
vertex 1.993742 14.1408339277524 12.3558975123738
endloop
endfacet
facet normal 7.24596211224219e-018 -0.526304139151402 0.850296391331929
outer loop
vertex 51.0 22.6511137360884 10.1012646430177
vertex 49.0 24.0534101048132 11.2472369469815
vertex 49.0 22.6511137360884 10.1012646430177
endloop
endfacet
facet normal 0.0 -0.728443660547815 0.685105709659246
outer loop
vertex 49.0 24.0534101048132 11.2472369469815
vertex 51.0 22.6511137360884 10.1012646430177
vertex 51.0 24.0534101048132 11.2472369469815
endloop
endfacet
facet normal -3.37490967371648e-005 0.000150016854077182 0.999999988177971
outer loop
vertex 0.0 -1.12798659301916e-014 14.0
vertex 2.0 1.99999999999999 14.0000000000001
vertex 0.0 13.3973170441962 13.9965310614738
endloop
endfacet
facet normal -3.37490967371648e-005 0.000150016854077182 0.999999988177971
outer loop
vertex 2.0 1.99999999999999 14.0000000000001
vertex 0.0 -1.12798659301916e-014 14.0
vertex 51.0 -1.12798659301916e-014 14.0
endloop
endfacet
facet normal -3.37490967371648e-005 0.000150016854077182 0.999999988177971
outer loop
vertex 0.0 13.3973170441962 13.9965310614738
vertex 2.0 1.99999999999999 14.0000000000001
vertex 1.993742 13.3973170441962 13.9965310614738
endloop
endfacet
facet normal -3.37490967371648e-005 0.000150016854077182 0.999999988177971
outer loop
vertex 2.0 1.99999999999999 14.0000000000001
vertex 51.0 -1.12798659301916e-014 14.0
vertex 49.0 1.99999999999999 14.0000000000001
endloop
endfacet
facet normal -3.37490967371648e-005 0.000150016854077182 0.999999988177971
outer loop
vertex 49.0 1.99999999999999 14.0000000000001
vertex 51.0 -1.12798659301916e-014 14.0
vertex 49.0 12.3572814055112 14.0
endloop
endfacet
facet normal -3.37490967371648e-005 0.000150016854077182 0.999999988177971
outer loop
vertex 49.0 12.3572814055112 14.0
vertex 51.0 -1.12798659301916e-014 14.0
vertex 51.0 12.3572814055112 14.0
endloop
endfacet
facet normal 7.15781444197698e-018 0.68510570965924 0.728443660547822
outer loop
vertex 51.0 14.2472369469814 10.9465898951867
vertex 49.0 15.7171021986961 9.88867507394992
vertex 49.0 14.2472369469814 10.9465898951867
endloop
endfacet
facet normal 7.15781444197697e-018 0.473226206063982 0.88094095028798
outer loop
vertex 49.0 15.7171021986961 9.88867507394992
vertex 51.0 14.2472369469814 10.9465898951867
vertex 51.0 15.7171021986961 9.88867507394992
endloop
endfacet
facet normal -6.53467940394331e-016 3.68220284562042e-015 1.0
outer loop
vertex 1.993742 26.5566263656694 14.0
vertex 0.0 38.9999999999999 14.0
vertex 0.0 26.5566263656694 14.0
endloop
endfacet
facet normal -6.53467940394331e-016 3.68220284562042e-015 1.0
outer loop
vertex 0.0 38.9999999999999 14.0
vertex 1.993742 26.5566263656694 14.0
vertex 2.0 36.9999999999999 14.0
endloop
endfacet
facet normal -6.53467940394331e-016 3.68220284562042e-015 1.0
outer loop
vertex 0.0 38.9999999999999 14.0
vertex 2.0 36.9999999999999 14.0
vertex 51.0 38.9999999999999 14.0
endloop
endfacet
facet normal -6.53467940394331e-016 3.68220284562042e-015 1.0
outer loop
vertex 51.0 38.9999999999999 14.0
vertex 2.0 36.9999999999999 14.0
vertex 49.0 36.9999999999999 14.0
endloop
endfacet
facet normal -6.53467940394331e-016 3.68220284562042e-015 1.0
outer loop
vertex 51.0 38.9999999999999 14.0
vertex 49.0 36.9999999999999 14.0
vertex 49.0 25.5972157834794 14.0
endloop
endfacet
facet normal -6.53467940394331e-016 3.68220284562042e-015 1.0
outer loop
vertex 51.0 38.9999999999999 14.0
vertex 49.0 25.5972157834794 14.0
vertex 51.0 25.5972157834794 14.0
endloop
endfacet
facet normal 0.0 -0.935172793073059 0.354191822457738
outer loop
vertex 51.0 25.5972157834794 14.0
vertex 49.0 25.11132492605 12.7171021986961
vertex 51.0 25.11132492605 12.7171021986961
endloop
endfacet
facet normal 0.0 -0.88094095028798 0.473226206063982
outer loop
vertex 49.0 25.11132492605 12.7171021986961
vertex 51.0 25.5972157834794 14.0
vertex 49.0 25.5972157834794 14.0
endloop
endfacet
facet normal 0.0 -0.88094095028798 0.473226206063982
outer loop
vertex 51.0 25.11132492605 12.7171021986961
vertex 49.0 24.0534101048132 11.2472369469815
vertex 51.0 24.0534101048132 11.2472369469815
endloop
endfacet
facet normal 0.0 -0.728443660547815 0.685105709659246
outer loop
vertex 49.0 24.0534101048132 11.2472369469815
vertex 51.0 25.11132492605 12.7171021986961
vertex 49.0 25.11132492605 12.7171021986961
endloop
endfacet
facet normal 0.0 0.910831370667188 0.412778650378787
outer loop
vertex 0.0 13.3973170441962 13.9965310614738
vertex 1.993742 14.1408339277524 12.3558975123738
vertex 0.0 14.1408339277524 12.3558975123738
endloop
endfacet
facet normal 0.0 0.84916065656237 0.528134622370627
outer loop
vertex 1.993742 14.1408339277524 12.3558975123738
vertex 0.0 13.3973170441962 13.9965310614738
vertex 1.993742 13.3973170441962 13.9965310614738
endloop
endfacet
facet normal 0.0 -0.528134622370635 0.849160656562365
outer loop
vertex 1.993742 23.6441024876262 10.1408339277525
vertex 0.0 25.0363964743585 11.2836432964026
vertex 0.0 23.6441024876262 10.1408339277525
endloop
endfacet
facet normal 0.0 -0.729917821775321 0.683534910194622
outer loop
vertex 0.0 25.0363964743585 11.2836432964026
vertex 1.993742 23.6441024876262 10.1408339277525
vertex 1.993742 25.0363964743585 11.2836432964026
endloop
endfacet
facet normal 0.0 -0.290359921235119 0.956917507489718
outer loop
vertex 1.993742 22.0034689385262 9.39731704419632
vertex 0.0 23.6441024876262 10.1408339277525
vertex 0.0 22.0034689385262 9.39731704419632
endloop
endfacet
facet normal 0.0 -0.528134622370635 0.849160656562365
outer loop
vertex 0.0 23.6441024876262 10.1408339277525
vertex 1.993742 22.0034689385262 9.39731704419632
vertex 1.993742 23.6441024876262 10.1408339277525
endloop
endfacet
facet normal 0.0 0.911718463063823 0.410815584062412
outer loop
vertex 49.0 12.3572814055112 14.0
vertex 51.0 13.1012646430176 12.3488862639115
vertex 49.0 13.1012646430176 12.3488862639115
endloop
endfacet
facet normal 0.0 0.850296391331934 0.526304139151395
outer loop
vertex 51.0 13.1012646430176 12.3488862639115
vertex 49.0 12.3572814055112 14.0
vertex 51.0 12.3572814055112 14.0
endloop
endfacet
facet normal 0.0 -0.0306445589560382 0.999530345215387
outer loop
vertex 51.0 19.2125895690677 9.06598846260763
vertex 49.0 20.9999999999999 9.35728140551122
vertex 49.0 19.2125895690677 9.06598846260763
endloop
endfacet
facet normal 7.24596211224221e-018 -0.288297860430526 0.957540779116577
outer loop
vertex 49.0 20.9999999999999 9.35728140551122
vertex 51.0 19.2125895690677 9.06598846260763
vertex 51.0 20.9999999999999 9.35728140551122
endloop
endfacet
facet normal 0.0 0.226999685714406 0.97389483142974
outer loop
vertex 1.993742 18.4337135185549 9.28017435787637
vertex 0.0 20.2263022921546 9.10376209262865
vertex 0.0 18.4337135185549 9.28017435787637
endloop
endfacet
facet normal 0.0 -0.0327976713098853 0.999462011662599
outer loop
vertex 0.0 20.2263022921546 9.10376209262865
vertex 1.993742 18.4337135185549 9.28017435787637
vertex 1.993742 20.2263022921546 9.10376209262865
endloop
endfacet
facet normal 0.0 0.850296391331934 0.526304139151395
outer loop
vertex 49.0 13.1012646430176 12.3488862639115
vertex 51.0 14.2472369469814 10.9465898951867
vertex 49.0 14.2472369469814 10.9465898951867
endloop
endfacet
facet normal 7.15781444197698e-018 0.68510570965924 0.728443660547822
outer loop
vertex 51.0 14.2472369469814 10.9465898951867
vertex 49.0 13.1012646430176 12.3488862639115
vertex 51.0 13.1012646430176 12.3488862639115
endloop
endfacet
facet normal 7.24596211224221e-018 -0.288297860430526 0.957540779116577
outer loop
vertex 51.0 20.9999999999999 9.35728140551122
vertex 49.0 22.6511137360884 10.1012646430177
vertex 49.0 20.9999999999999 9.35728140551122
endloop
endfacet
facet normal 7.24596211224219e-018 -0.526304139151402 0.850296391331929
outer loop
vertex 49.0 22.6511137360884 10.1012646430177
vertex 51.0 20.9999999999999 9.35728140551122
vertex 51.0 22.6511137360884 10.1012646430177
endloop
endfacet
facet normal 7.15781444197697e-018 0.473226206063982 0.88094095028798
outer loop
vertex 51.0 15.7171021986961 9.88867507394992
vertex 49.0 17.4106915103244 9.24723694698148
vertex 49.0 15.7171021986961 9.88867507394992
endloop
endfacet
facet normal 0.0 0.229097118568759 0.973403570089761
outer loop
vertex 49.0 17.4106915103244 9.24723694698148
vertex 51.0 15.7171021986961 9.88867507394992
vertex 51.0 17.4106915103244 9.24723694698148
endloop
endfacet
facet normal 0.0 0.683534910194622 0.729917821775322
outer loop
vertex 1.993742 15.2836432964025 10.9636035256414
vertex 0.0 16.7478645802548 9.91453163559788
vertex 0.0 15.2836432964025 10.9636035256414
endloop
endfacet
facet normal 0.0 0.471327389291966 0.881958327872252
outer loop
vertex 0.0 16.7478645802548 9.91453163559788
vertex 1.993742 15.2836432964025 10.9636035256414
vertex 1.993742 16.7478645802548 9.91453163559788
endloop
endfacet
facet normal 0.0 -0.935933621528082 0.352176455904323
outer loop
vertex 1.993742 26.5566263656694 14.0
vertex 0.0 26.0854683644021 12.7478645802549
vertex 1.993742 26.0854683644021 12.7478645802549
endloop
endfacet
facet normal 0.0 -0.881958327872252 0.471327389291966
outer loop
vertex 0.0 26.0854683644021 12.7478645802549
vertex 1.993742 26.5566263656694 14.0
vertex 0.0 26.5566263656694 14.0
endloop
endfacet
facet normal 0.0 -0.0327976713098853 0.999462011662599
outer loop
vertex 1.993742 20.2263022921546 9.10376209262865
vertex 0.0 22.0034689385262 9.39731704419632
vertex 0.0 20.2263022921546 9.10376209262865
endloop
endfacet
facet normal 0.0 -0.290359921235119 0.956917507489718
outer loop
vertex 0.0 22.0034689385262 9.39731704419632
vertex 1.993742 20.2263022921546 9.10376209262865
vertex 1.993742 22.0034689385262 9.39731704419632
endloop
endfacet
facet normal 0.0 -0.881958327872252 0.471327389291966
outer loop
vertex 1.993742 26.0854683644021 12.7478645802549
vertex 0.0 25.0363964743585 11.2836432964026
vertex 1.993742 25.0363964743585 11.2836432964026
endloop
endfacet
facet normal 0.0 -0.729917821775321 0.683534910194622
outer loop
vertex 0.0 25.0363964743585 11.2836432964026
vertex 1.993742 26.0854683644021 12.7478645802549
vertex 0.0 26.0854683644021 12.7478645802549
endloop
endfacet
facet normal 2.28594565926231e-031 -1.0 1.87997765503194e-015
outer loop
vertex 49.0 36.9999999999999 14.0
vertex 2.0 36.9999999999999 2.00000000000003
vertex 49.0 36.9999999999999 2.00000000000002
endloop
endfacet
facet normal 2.28594565926231e-031 -1.0 1.87997765503194e-015
outer loop
vertex 2.0 36.9999999999999 2.00000000000003
vertex 49.0 36.9999999999999 14.0
vertex 2.0 36.9999999999999 14.0
endloop
endfacet
facet normal -1.4083500592549e-010 1.0 -5.51595101964218e-010
outer loop
vertex 2.0 1.99999999999999 14.0000000000001
vertex 49.0 1.99999999999994 2.00000000000005
vertex 1.99788147677952 1.99999998676145 2.00000000000003
endloop
endfacet
facet normal -1.4083500592549e-010 1.0 -5.51595101964218e-010
outer loop
vertex 49.0 1.99999999999994 2.00000000000005
vertex 2.0 1.99999999999999 14.0000000000001
vertex 49.0 1.99999999999999 14.0000000000001
endloop
endfacet
facet normal 0.0 0.471327389291966 0.881958327872252
outer loop
vertex 1.993742 16.7478645802548 9.91453163559788
vertex 0.0 18.4337135185549 9.28017435787637
vertex 0.0 16.7478645802548 9.91453163559788
endloop
endfacet
facet normal 0.0 0.226999685714406 0.97389483142974
outer loop
vertex 0.0 18.4337135185549 9.28017435787637
vertex 1.993742 16.7478645802548 9.91453163559788
vertex 1.993742 18.4337135185549 9.28017435787637
endloop
endfacet
facet normal -1.0 -8.19430180232998e-018 5.05925103049525e-016
outer loop
vertex 49.0 1.99999999999999 14.0000000000001
vertex 49.0 36.9999999999999 2.00000000000002
vertex 49.0 1.99999999999994 2.00000000000005
endloop
endfacet
facet normal -1.0 -8.19430180232998e-018 5.05925103049525e-016
outer loop
vertex 49.0 36.9999999999999 2.00000000000002
vertex 49.0 1.99999999999999 14.0000000000001
vertex 49.0 17.4106915103244 9.24723694698148
endloop
endfacet
facet normal -1.0 -8.19430180232998e-018 5.05925103049525e-016
outer loop
vertex 49.0 17.4106915103244 9.24723694698148
vertex 49.0 1.99999999999999 14.0000000000001
vertex 49.0 15.7171021986961 9.88867507394992
endloop
endfacet
facet normal -1.0 -8.19430180232998e-018 5.05925103049525e-016
outer loop
vertex 49.0 15.7171021986961 9.88867507394992
vertex 49.0 1.99999999999999 14.0000000000001
vertex 49.0 14.2472369469814 10.9465898951867
endloop
endfacet
facet normal -1.0 -8.19430180232998e-018 5.05925103049525e-016
outer loop
vertex 49.0 14.2472369469814 10.9465898951867
vertex 49.0 1.99999999999999 14.0000000000001
vertex 49.0 13.1012646430176 12.3488862639115
endloop
endfacet
facet normal -1.0 -8.19430180232998e-018 5.05925103049525e-016
outer loop
vertex 49.0 13.1012646430176 12.3488862639115
vertex 49.0 1.99999999999999 14.0000000000001
vertex 49.0 12.3572814055112 14.0
endloop
endfacet
facet normal -1.0 -8.19430180232998e-018 5.05925103049525e-016
outer loop
vertex 49.0 36.9999999999999 2.00000000000002
vertex 49.0 17.4106915103244 9.24723694698148
vertex 49.0 19.2125895690677 9.06598846260763
endloop
endfacet
facet normal -1.0 -8.19430180232998e-018 5.05925103049525e-016
outer loop
vertex 49.0 36.9999999999999 2.00000000000002
vertex 49.0 19.2125895690677 9.06598846260763
vertex 49.0 20.9999999999999 9.35728140551122
endloop
endfacet
facet normal -1.0 -8.19430180232998e-018 5.05925103049525e-016
outer loop
vertex 49.0 36.9999999999999 2.00000000000002
vertex 49.0 20.9999999999999 9.35728140551122
vertex 49.0 22.6511137360884 10.1012646430177
endloop
endfacet
facet normal -1.0 -8.19430180232998e-018 5.05925103049525e-016
outer loop
vertex 49.0 36.9999999999999 2.00000000000002
vertex 49.0 22.6511137360884 10.1012646430177
vertex 49.0 24.0534101048132 11.2472369469815
endloop
endfacet
facet normal -1.0 -8.19430180232998e-018 5.05925103049525e-016
outer loop
vertex 49.0 36.9999999999999 2.00000000000002
vertex 49.0 24.0534101048132 11.2472369469815
vertex 49.0 25.11132492605 12.7171021986961
endloop
endfacet
facet normal -1.0 -8.19430180232998e-018 5.05925103049525e-016
outer loop
vertex 49.0 36.9999999999999 2.00000000000002
vertex 49.0 25.11132492605 12.7171021986961
vertex 49.0 25.5972157834794 14.0
endloop
endfacet
facet normal -1.0 -8.19430180232998e-018 5.05925103049525e-016
outer loop
vertex 49.0 36.9999999999999 2.00000000000002
vertex 49.0 25.5972157834794 14.0
vertex 49.0 36.9999999999999 14.0
endloop
endfacet
facet normal 0.999999977272232 -2.23292756641414e-005 0.000212030513115502
outer loop
vertex 1.99768688553593 33.1398659943645 2.0
vertex 2.0 1.99999999999999 14.0000000000001
vertex 1.99788147677952 1.99999998676145 2.00000000000003
endloop
endfacet
facet normal 0.999999977272232 -2.23292756641414e-005 0.000212030513115502
outer loop
vertex 2.0 1.99999999999999 14.0000000000001
vertex 1.99768688553593 33.1398659943645 2.0
vertex 1.993742 16.7478645802548 9.91453163559788
endloop
endfacet
facet normal 0.999999977272232 -2.23292756641414e-005 0.000212030513115502
outer loop
vertex 2.0 1.99999999999999 14.0000000000001
vertex 1.993742 16.7478645802548 9.91453163559788
vertex 1.993742 15.2836432964025 10.9636035256414
endloop
endfacet
facet normal 0.999999977272232 -2.23292756641414e-005 0.000212030513115502
outer loop
vertex 2.0 1.99999999999999 14.0000000000001
vertex 1.993742 15.2836432964025 10.9636035256414
vertex 1.993742 14.1408339277524 12.3558975123738
endloop
endfacet
facet normal 0.999999977272232 -2.23292756641414e-005 0.000212030513115502
outer loop
vertex 2.0 1.99999999999999 14.0000000000001
vertex 1.993742 14.1408339277524 12.3558975123738
vertex 1.993742 13.3973170441962 13.9965310614738
endloop
endfacet
facet normal 0.999999977272232 -2.23292756641414e-005 0.000212030513115502
outer loop
vertex 1.993742 16.7478645802548 9.91453163559788
vertex 1.99768688553593 33.1398659943645 2.0
vertex 1.993742 18.4337135185549 9.28017435787637
endloop
endfacet
facet normal 0.999999977272232 -2.23292756641414e-005 0.000212030513115502
outer loop
vertex 1.993742 18.4337135185549 9.28017435787637
vertex 1.99768688553593 33.1398659943645 2.0
vertex 1.993742 20.2263022921546 9.10376209262865
endloop
endfacet
facet normal 0.999999977272232 -2.23292756641414e-005 0.000212030513115502
outer loop
vertex 1.993742 20.2263022921546 9.10376209262865
vertex 1.99768688553593 33.1398659943645 2.0
vertex 1.993742 22.0034689385262 9.39731704419632
endloop
endfacet
facet normal 0.999999977272232 -2.23292756641414e-005 0.000212030513115502
outer loop
vertex 1.993742 22.0034689385262 9.39731704419632
vertex 1.99768688553593 33.1398659943645 2.0
vertex 1.993742 23.6441024876262 10.1408339277525
endloop
endfacet
facet normal 0.999999977272232 -2.23292756641414e-005 0.000212030513115502
outer loop
vertex 1.993742 23.6441024876262 10.1408339277525
vertex 1.99768688553593 33.1398659943645 2.0
vertex 1.993742 25.0363964743585 11.2836432964026
endloop
endfacet
facet normal 0.999999977272232 -2.23292756641414e-005 0.000212030513115502
outer loop
vertex 1.993742 25.0363964743585 11.2836432964026
vertex 1.99768688553593 33.1398659943645 2.0
vertex 1.993742 26.0854683644021 12.7478645802549
endloop
endfacet
facet normal 0.999999977272232 -2.23292756641414e-005 0.000212030513115502
outer loop
vertex 1.993742 26.0854683644021 12.7478645802549
vertex 1.99768688553593 33.1398659943645 2.0
vertex 1.993742 26.5566263656694 14.0
endloop
endfacet
facet normal 0.999999977272232 -2.23292756641414e-005 0.000212030513115502
outer loop
vertex 1.993742 26.5566263656694 14.0
vertex 1.99768688553593 33.1398659943645 2.0
vertex 2.0 36.9999999999999 14.0
endloop
endfacet
facet normal 0.999999977272232 -2.23292756641414e-005 0.000212030513115502
outer loop
vertex 2.0 36.9999999999999 14.0
vertex 1.99768688553593 33.1398659943645 2.0
vertex 2.0 36.9999999999999 2.00000000000003
endloop
endfacet
facet normal -2.95472737936134e-016 6.67077421055822e-016 1.0
outer loop
vertex 1.99788147677952 1.99999998676145 2.00000000000003
vertex 2.0 36.9999999999999 2.00000000000003
vertex 1.99768688553593 33.1398659943645 2.0
endloop
endfacet
facet normal -2.95472737936134e-016 6.67077421055822e-016 1.0
outer loop
vertex 2.0 36.9999999999999 2.00000000000003
vertex 1.99788147677952 1.99999998676145 2.00000000000003
vertex 49.0 1.99999999999994 2.00000000000005
endloop
endfacet
facet normal -2.95472737936134e-016 6.67077421055822e-016 1.0
outer loop
vertex 2.0 36.9999999999999 2.00000000000003
vertex 49.0 1.99999999999994 2.00000000000005
vertex 49.0 36.9999999999999 2.00000000000002
endloop
endfacet
facet normal 0.0 -5.7845466308675e-016 -1.0
outer loop
vertex 51.0 38.9999999999999 -2.25597318603832e-014
vertex 0.0 0.0 0.0
vertex 0.0 38.9999999999999 -2.25597318603832e-014
endloop
endfacet
facet normal 0.0 -5.7845466308675e-016 -1.0
outer loop
vertex 0.0 0.0 0.0
vertex 51.0 38.9999999999999 -2.25597318603832e-014
vertex 51.0 0.0 0.0
endloop
endfacet
facet normal -1.0 0.0 0.0
outer loop
vertex 0.0 13.3973170441962 13.9965310614738
vertex 0.0 0.0 0.0
vertex 0.0 -1.12798659301916e-014 14.0
endloop
endfacet
facet normal -1.0 0.0 0.0
outer loop
vertex 0.0 0.0 0.0
vertex 0.0 13.3973170441962 13.9965310614738
vertex 0.0 14.1408339277524 12.3558975123738
endloop
endfacet
facet normal -1.0 0.0 0.0
outer loop
vertex 0.0 0.0 0.0
vertex 0.0 14.1408339277524 12.3558975123738
vertex 0.0 15.2836432964025 10.9636035256414
endloop
endfacet
facet normal -1.0 0.0 0.0
outer loop
vertex 0.0 0.0 0.0
vertex 0.0 15.2836432964025 10.9636035256414
vertex 0.0 16.7478645802548 9.91453163559788
endloop
endfacet
facet normal -1.0 0.0 0.0
outer loop
vertex 0.0 0.0 0.0
vertex 0.0 16.7478645802548 9.91453163559788
vertex 0.0 38.9999999999999 -2.25597318603832e-014
endloop
endfacet
facet normal -1.0 0.0 0.0
outer loop
vertex 0.0 38.9999999999999 -2.25597318603832e-014
vertex 0.0 16.7478645802548 9.91453163559788
vertex 0.0 18.4337135185549 9.28017435787637
endloop
endfacet
facet normal -1.0 0.0 0.0
outer loop
vertex 0.0 38.9999999999999 -2.25597318603832e-014
vertex 0.0 18.4337135185549 9.28017435787637
vertex 0.0 20.2263022921546 9.10376209262865
endloop
endfacet
facet normal -1.0 0.0 0.0
outer loop
vertex 0.0 38.9999999999999 -2.25597318603832e-014
vertex 0.0 20.2263022921546 9.10376209262865
vertex 0.0 22.0034689385262 9.39731704419632
endloop
endfacet
facet normal -1.0 0.0 0.0
outer loop
vertex 0.0 38.9999999999999 -2.25597318603832e-014
vertex 0.0 22.0034689385262 9.39731704419632
vertex 0.0 23.6441024876262 10.1408339277525
endloop
endfacet
facet normal -1.0 0.0 0.0
outer loop
vertex 0.0 38.9999999999999 -2.25597318603832e-014
vertex 0.0 23.6441024876262 10.1408339277525
vertex 0.0 25.0363964743585 11.2836432964026
endloop
endfacet
facet normal -1.0 0.0 0.0
outer loop
vertex 0.0 38.9999999999999 -2.25597318603832e-014
vertex 0.0 25.0363964743585 11.2836432964026
vertex 0.0 26.0854683644021 12.7478645802549
endloop
endfacet
facet normal -1.0 0.0 0.0
outer loop
vertex 0.0 38.9999999999999 -2.25597318603832e-014
vertex 0.0 26.0854683644021 12.7478645802549
vertex 0.0 26.5566263656694 14.0
endloop
endfacet
facet normal -1.0 0.0 0.0
outer loop
vertex 0.0 38.9999999999999 -2.25597318603832e-014
vertex 0.0 26.5566263656694 14.0
vertex 0.0 38.9999999999999 14.0
endloop
endfacet
facet normal 1.0 0.0 0.0
outer loop
vertex 51.0 0.0 0.0
vertex 51.0 12.3572814055112 14.0
vertex 51.0 -1.12798659301916e-014 14.0
endloop
endfacet
facet normal 1.0 0.0 0.0
outer loop
vertex 51.0 12.3572814055112 14.0
vertex 51.0 0.0 0.0
vertex 51.0 13.1012646430176 12.3488862639115
endloop
endfacet
facet normal 1.0 0.0 0.0
outer loop
vertex 51.0 13.1012646430176 12.3488862639115
vertex 51.0 0.0 0.0
vertex 51.0 14.2472369469814 10.9465898951867
endloop
endfacet
facet normal 1.0 0.0 0.0
outer loop
vertex 51.0 14.2472369469814 10.9465898951867
vertex 51.0 0.0 0.0
vertex 51.0 15.7171021986961 9.88867507394992
endloop
endfacet
facet normal 1.0 0.0 0.0
outer loop
vertex 51.0 15.7171021986961 9.88867507394992
vertex 51.0 0.0 0.0
vertex 51.0 38.9999999999999 -2.25597318603832e-014
endloop
endfacet
facet normal 1.0 0.0 0.0
outer loop
vertex 51.0 15.7171021986961 9.88867507394992
vertex 51.0 38.9999999999999 -2.25597318603832e-014
vertex 51.0 17.4106915103244 9.24723694698148
endloop
endfacet
facet normal 1.0 0.0 0.0
outer loop
vertex 51.0 17.4106915103244 9.24723694698148
vertex 51.0 38.9999999999999 -2.25597318603832e-014
vertex 51.0 19.2125895690677 9.06598846260763
endloop
endfacet
facet normal 1.0 0.0 0.0
outer loop
vertex 51.0 19.2125895690677 9.06598846260763
vertex 51.0 38.9999999999999 -2.25597318603832e-014
vertex 51.0 20.9999999999999 9.35728140551122
endloop
endfacet
facet normal 1.0 0.0 0.0
outer loop
vertex 51.0 20.9999999999999 9.35728140551122
vertex 51.0 38.9999999999999 -2.25597318603832e-014
vertex 51.0 22.6511137360884 10.1012646430177
endloop
endfacet
facet normal 1.0 0.0 0.0
outer loop
vertex 51.0 22.6511137360884 10.1012646430177
vertex 51.0 38.9999999999999 -2.25597318603832e-014
vertex 51.0 24.0534101048132 11.2472369469815
endloop
endfacet
facet normal 1.0 0.0 0.0
outer loop
vertex 51.0 24.0534101048132 11.2472369469815
vertex 51.0 38.9999999999999 -2.25597318603832e-014
vertex 51.0 25.11132492605 12.7171021986961
endloop
endfacet
facet normal 1.0 0.0 0.0
outer loop
vertex 51.0 25.11132492605 12.7171021986961
vertex 51.0 38.9999999999999 -2.25597318603832e-014
vertex 51.0 25.5972157834794 14.0
endloop
endfacet
facet normal 1.0 0.0 0.0
outer loop
vertex 51.0 25.5972157834794 14.0
vertex 51.0 38.9999999999999 -2.25597318603832e-014
vertex 51.0 38.9999999999999 14.0
endloop
endfacet
facet normal 0.0 -1.0 -8.05704709299399e-016
outer loop
vertex 51.0 -1.12798659301916e-014 14.0
vertex 0.0 0.0 0.0
vertex 51.0 0.0 0.0
endloop
endfacet
facet normal 0.0 -1.0 -8.05704709299399e-016
outer loop
vertex 0.0 0.0 0.0
vertex 51.0 -1.12798659301916e-014 14.0
vertex 0.0 -1.12798659301916e-014 14.0
endloop
endfacet
facet normal 0.0 1.0 0.0
outer loop
vertex 0.0 38.9999999999999 14.0
vertex 51.0 38.9999999999999 -2.25597318603832e-014
vertex 0.0 38.9999999999999 -2.25597318603832e-014
endloop
endfacet
facet normal 0.0 1.0 0.0
outer loop
vertex 51.0 38.9999999999999 -2.25597318603832e-014
vertex 0.0 38.9999999999999 14.0
vertex 51.0 38.9999999999999 14.0
endloop
endfacet
endsolid PulseGenBox-lid-x5
