solid box-1inch
facet normal 0.0 0.0 -1.0
outer loop
vertex 25.4 25.4 0.0
vertex 0.0 0.0 0.0
vertex 0.0 25.4 0.0
endloop
endfacet
facet normal 0.0 0.0 -1.0
outer loop
vertex 0.0 0.0 0.0
vertex 25.4 25.4 0.0
vertex 25.4 0.0 0.0
endloop
endfacet
facet normal 0.0 0.0 1.0
outer loop
vertex 25.4 0.0 25.4
vertex 0.0 25.4 25.4
vertex 0.0 0.0 25.4
endloop
endfacet
facet normal 0.0 0.0 1.0
outer loop
vertex 0.0 25.4 25.4
vertex 25.4 0.0 25.4
vertex 25.4 25.4 25.4
endloop
endfacet
facet normal -1.0 0.0 0.0
outer loop
vertex 0.0 25.4 25.4
vertex 0.0 0.0 0.0
vertex 0.0 0.0 25.4
endloop
endfacet
facet normal -1.0 0.0 0.0
outer loop
vertex 0.0 0.0 0.0
vertex 0.0 25.4 25.4
vertex 0.0 25.4 0.0
endloop
endfacet
facet normal 0.0 1.0 0.0
outer loop
vertex 0.0 25.4 25.4
vertex 25.4 25.4 0.0
vertex 0.0 25.4 0.0
endloop
endfacet
facet normal 0.0 1.0 0.0
outer loop
vertex 25.4 25.4 0.0
vertex 0.0 25.4 25.4
vertex 25.4 25.4 25.4
endloop
endfacet
facet normal 1.0 0.0 0.0
outer loop
vertex 25.4 25.4 0.0
vertex 25.4 0.0 25.4
vertex 25.4 0.0 0.0
endloop
endfacet
facet normal 1.0 0.0 0.0
outer loop
vertex 25.4 0.0 25.4
vertex 25.4 25.4 0.0
vertex 25.4 25.4 25.4
endloop
endfacet
facet normal -0.0 -1.0 -0.0
outer loop
vertex 25.4 0.0 25.4
vertex 0.0 0.0 0.0
vertex 25.4 0.0 0.0
endloop
endfacet
facet normal -0.0 -1.0 -0.0
outer loop
vertex 0.0 0.0 0.0
vertex 25.4 0.0 25.4
vertex 0.0 0.0 25.4
endloop
endfacet
endsolid box-1inch
