solid standiff-onewire-x3
facet normal 0.0 0.0 -1.0
outer loop
vertex -2.12132034355964 2.12132034355964 0.0
vertex -1.93185165257814 0.517638090205042 0.0
vertex -2.0 3.52495810318487e-016 0.0
endloop
endfacet
facet normal 0.0 0.0 -1.0
outer loop
vertex -1.93185165257814 0.517638090205042 0.0
vertex -2.12132034355964 2.12132034355964 0.0
vertex -1.5 2.59807621135332 0.0
endloop
endfacet
facet normal 0.0 0.0 -1.0
outer loop
vertex -1.93185165257814 0.517638090205042 0.0
vertex -1.5 2.59807621135332 0.0
vertex -1.73205080756888 1.0 0.0
endloop
endfacet
facet normal 0.0 0.0 -1.0
outer loop
vertex -1.73205080756888 1.0 0.0
vertex -1.5 2.59807621135332 0.0
vertex -1.41421356237309 1.4142135623731 0.0
endloop
endfacet
facet normal 0.0 0.0 -1.0
outer loop
vertex -1.41421356237309 1.4142135623731 0.0
vertex -1.5 2.59807621135332 0.0
vertex -0.776457135307562 2.89777747886721 0.0
endloop
endfacet
facet normal 0.0 0.0 -1.0
outer loop
vertex -1.41421356237309 1.4142135623731 0.0
vertex -0.776457135307562 2.89777747886721 0.0
vertex -0.999999999999999 1.73205080756888 0.0
endloop
endfacet
facet normal 0.0 0.0 -1.0
outer loop
vertex -0.999999999999999 1.73205080756888 0.0
vertex -0.776457135307562 2.89777747886721 0.0
vertex -0.517638090205041 1.93185165257814 0.0
endloop
endfacet
facet normal 0.0 0.0 -1.0
outer loop
vertex -0.517638090205041 1.93185165257814 0.0
vertex -0.776457135307562 2.89777747886721 0.0
vertex 3.52495810318487e-016 3.0 0.0
endloop
endfacet
facet normal 0.0 0.0 -1.0
outer loop
vertex -0.517638090205041 1.93185165257814 0.0
vertex 3.52495810318487e-016 3.0 0.0
vertex 0.0 2.0 0.0
endloop
endfacet
facet normal 0.0 0.0 -1.0
outer loop
vertex 0.0 2.0 0.0
vertex 3.52495810318487e-016 3.0 0.0
vertex 0.517638090205042 1.93185165257814 0.0
endloop
endfacet
facet normal 0.0 0.0 -1.0
outer loop
vertex 0.517638090205042 1.93185165257814 0.0
vertex 3.52495810318487e-016 3.0 0.0
vertex 0.776457135307563 2.89777747886721 0.0
endloop
endfacet
facet normal 0.0 0.0 -1.0
outer loop
vertex 0.517638090205042 1.93185165257814 0.0
vertex 0.776457135307563 2.89777747886721 0.0
vertex 1.0 1.73205080756888 0.0
endloop
endfacet
facet normal 0.0 0.0 -1.0
outer loop
vertex 1.0 1.73205080756888 0.0
vertex 0.776457135307563 2.89777747886721 0.0
vertex 1.5 2.59807621135332 0.0
endloop
endfacet
facet normal 0.0 0.0 -1.0
outer loop
vertex 1.0 1.73205080756888 0.0
vertex 1.5 2.59807621135332 0.0
vertex 1.41421356237309 1.4142135623731 0.0
endloop
endfacet
facet normal 0.0 0.0 -1.0
outer loop
vertex 1.41421356237309 1.4142135623731 0.0
vertex 1.5 2.59807621135332 0.0
vertex 1.73205080756888 1.0 0.0
endloop
endfacet
facet normal 0.0 0.0 -1.0
outer loop
vertex 1.73205080756888 1.0 0.0
vertex 1.5 2.59807621135332 0.0
vertex 2.12132034355964 2.12132034355964 0.0
endloop
endfacet
facet normal 0.0 0.0 -1.0
outer loop
vertex 1.73205080756888 1.0 0.0
vertex 2.12132034355964 2.12132034355964 0.0
vertex 1.93185165257814 0.517638090205041 0.0
endloop
endfacet
facet normal 0.0 0.0 -1.0
outer loop
vertex 1.93185165257814 0.517638090205041 0.0
vertex 2.12132034355964 2.12132034355964 0.0
vertex 2.0 0.0 0.0
endloop
endfacet
facet normal 0.0 0.0 -1.0
outer loop
vertex 2.0 0.0 0.0
vertex 2.12132034355964 2.12132034355964 0.0
vertex 2.12132034355964 -2.12132034355964 0.0
endloop
endfacet
facet normal 0.0 0.0 -1.0
outer loop
vertex 2.12132034355964 -2.12132034355964 0.0
vertex 2.12132034355964 2.12132034355964 0.0
vertex 2.59807621135332 -1.5 0.0
endloop
endfacet
facet normal 0.0 0.0 -1.0
outer loop
vertex 2.59807621135332 -1.5 0.0
vertex 2.12132034355964 2.12132034355964 0.0
vertex 2.59807621135332 1.5 0.0
endloop
endfacet
facet normal 0.0 0.0 -1.0
outer loop
vertex 2.59807621135332 -1.5 0.0
vertex 2.59807621135332 1.5 0.0
vertex 2.8977774788672 -0.776457135307565 0.0
endloop
endfacet
facet normal 0.0 0.0 -1.0
outer loop
vertex 2.8977774788672 -0.776457135307565 0.0
vertex 2.59807621135332 1.5 0.0
vertex 2.89777747886721 0.776457135307562 0.0
endloop
endfacet
facet normal 0.0 0.0 -1.0
outer loop
vertex 2.8977774788672 -0.776457135307565 0.0
vertex 2.89777747886721 0.776457135307562 0.0
vertex 3.0 0.0 0.0
endloop
endfacet
facet normal 0.0 0.0 -1.0
outer loop
vertex -2.8977774788672 0.776457135307563 0.0
vertex -2.89777747886721 -0.776457135307561 0.0
vertex -3.0 3.52495810318487e-016 0.0
endloop
endfacet
facet normal 0.0 0.0 -1.0
outer loop
vertex -2.89777747886721 -0.776457135307561 0.0
vertex -2.8977774788672 0.776457135307563 0.0
vertex -2.59807621135332 -1.5 0.0
endloop
endfacet
facet normal 0.0 0.0 -1.0
outer loop
vertex -2.59807621135332 -1.5 0.0
vertex -2.8977774788672 0.776457135307563 0.0
vertex -2.59807621135332 1.5 0.0
endloop
endfacet
facet normal 0.0 0.0 -1.0
outer loop
vertex -2.59807621135332 -1.5 0.0
vertex -2.59807621135332 1.5 0.0
vertex -2.12132034355964 -2.12132034355964 0.0
endloop
endfacet
facet normal 0.0 0.0 -1.0
outer loop
vertex -2.12132034355964 -2.12132034355964 0.0
vertex -2.59807621135332 1.5 0.0
vertex -2.12132034355964 2.12132034355964 0.0
endloop
endfacet
facet normal 0.0 0.0 -1.0
outer loop
vertex -2.12132034355964 -2.12132034355964 0.0
vertex -2.12132034355964 2.12132034355964 0.0
vertex -2.0 3.52495810318487e-016 0.0
endloop
endfacet
facet normal 0.0 0.0 -1.0
outer loop
vertex -2.12132034355964 -2.12132034355964 0.0
vertex -2.0 3.52495810318487e-016 0.0
vertex -1.93185165257814 -0.517638090205041 0.0
endloop
endfacet
facet normal 0.0 0.0 -1.0
outer loop
vertex -2.12132034355964 -2.12132034355964 0.0
vertex -1.93185165257814 -0.517638090205041 0.0
vertex -1.5 -2.59807621135332 0.0
endloop
endfacet
facet normal 0.0 0.0 -1.0
outer loop
vertex -1.5 -2.59807621135332 0.0
vertex -1.93185165257814 -0.517638090205041 0.0
vertex -1.73205080756888 -1.0 0.0
endloop
endfacet
facet normal 0.0 0.0 -1.0
outer loop
vertex -1.5 -2.59807621135332 0.0
vertex -1.73205080756888 -1.0 0.0
vertex -1.4142135623731 -1.41421356237309 0.0
endloop
endfacet
facet normal 0.0 0.0 -1.0
outer loop
vertex -1.5 -2.59807621135332 0.0
vertex -1.4142135623731 -1.41421356237309 0.0
vertex -0.776457135307564 -2.8977774788672 0.0
endloop
endfacet
facet normal 0.0 0.0 -1.0
outer loop
vertex -0.776457135307564 -2.8977774788672 0.0
vertex -1.4142135623731 -1.41421356237309 0.0
vertex -1.0 -1.73205080756888 0.0
endloop
endfacet
facet normal 0.0 0.0 -1.0
outer loop
vertex -0.776457135307564 -2.8977774788672 0.0
vertex -1.0 -1.73205080756888 0.0
vertex -0.517638090205043 -1.93185165257814 0.0
endloop
endfacet
facet normal 0.0 0.0 -1.0
outer loop
vertex -0.776457135307564 -2.8977774788672 0.0
vertex -0.517638090205043 -1.93185165257814 0.0
vertex -7.04991620636974e-016 -3.0 0.0
endloop
endfacet
facet normal 0.0 0.0 -1.0
outer loop
vertex -7.04991620636974e-016 -3.0 0.0
vertex -0.517638090205043 -1.93185165257814 0.0
vertex -3.52495810318487e-016 -2.0 0.0
endloop
endfacet
facet normal 0.0 0.0 -1.0
outer loop
vertex -7.04991620636974e-016 -3.0 0.0
vertex -3.52495810318487e-016 -2.0 0.0
vertex 0.776457135307561 -2.89777747886721 0.0
endloop
endfacet
facet normal 0.0 0.0 -1.0
outer loop
vertex 0.776457135307561 -2.89777747886721 0.0
vertex -3.52495810318487e-016 -2.0 0.0
vertex 0.51763809020504 -1.93185165257814 0.0
endloop
endfacet
facet normal 0.0 0.0 -1.0
outer loop
vertex 0.776457135307561 -2.89777747886721 0.0
vertex 0.51763809020504 -1.93185165257814 0.0
vertex 0.999999999999999 -1.73205080756888 0.0
endloop
endfacet
facet normal 0.0 0.0 -1.0
outer loop
vertex 0.776457135307561 -2.89777747886721 0.0
vertex 0.999999999999999 -1.73205080756888 0.0
vertex 1.5 -2.59807621135332 0.0
endloop
endfacet
facet normal 0.0 0.0 -1.0
outer loop
vertex 1.5 -2.59807621135332 0.0
vertex 0.999999999999999 -1.73205080756888 0.0
vertex 1.41421356237309 -1.4142135623731 0.0
endloop
endfacet
facet normal 0.0 0.0 -1.0
outer loop
vertex 1.5 -2.59807621135332 0.0
vertex 1.41421356237309 -1.4142135623731 0.0
vertex 1.73205080756888 -1.0 0.0
endloop
endfacet
facet normal 0.0 0.0 -1.0
outer loop
vertex 1.5 -2.59807621135332 0.0
vertex 1.73205080756888 -1.0 0.0
vertex 2.12132034355964 -2.12132034355964 0.0
endloop
endfacet
facet normal 0.0 0.0 -1.0
outer loop
vertex 2.12132034355964 -2.12132034355964 0.0
vertex 1.73205080756888 -1.0 0.0
vertex 1.93185165257814 -0.517638090205043 0.0
endloop
endfacet
facet normal 0.0 0.0 -1.0
outer loop
vertex 2.12132034355964 -2.12132034355964 0.0
vertex 1.93185165257814 -0.517638090205043 0.0
vertex 2.0 0.0 0.0
endloop
endfacet
facet normal 0.5 0.866025403784439 0.0
outer loop
vertex 1.5 2.59807621135332 10.75
vertex 2.12132034355964 2.12132034355964 0.0
vertex 1.5 2.59807621135332 0.0
endloop
endfacet
facet normal 0.707106781186548 0.707106781186547 0.0
outer loop
vertex 2.12132034355964 2.12132034355964 0.0
vertex 1.5 2.59807621135332 10.75
vertex 2.12132034355964 2.12132034355964 10.75
endloop
endfacet
facet normal 0.707106781186548 0.707106781186547 0.0
outer loop
vertex 2.12132034355964 2.12132034355964 0.0
vertex 2.59807621135332 1.5 10.75
vertex 2.59807621135332 1.5 0.0
endloop
endfacet
facet normal 0.866025403784439 0.5 0.0
outer loop
vertex 2.59807621135332 1.5 10.75
vertex 2.12132034355964 2.12132034355964 0.0
vertex 2.12132034355964 2.12132034355964 10.75
endloop
endfacet
facet normal 0.5 -0.866025403784439 0.0
outer loop
vertex -0.999999999999999 1.73205080756888 10.75
vertex -1.41421356237309 1.4142135623731 0.0
vertex -0.999999999999999 1.73205080756888 0.0
endloop
endfacet
facet normal 0.707106781186547 -0.707106781186548 0.0
outer loop
vertex -1.41421356237309 1.4142135623731 0.0
vertex -0.999999999999999 1.73205080756888 10.75
vertex -1.41421356237309 1.4142135623731 10.75
endloop
endfacet
facet normal -1.0 9.80222088521159e-017 0.0
outer loop
vertex -3.0 3.52495810318487e-016 10.75
vertex -2.89777747886721 -0.776457135307561 0.0
vertex -2.89777747886721 -0.776457135307561 10.75
endloop
endfacet
facet normal -0.965925826289068 -0.258819045102521 0.0
outer loop
vertex -2.89777747886721 -0.776457135307561 0.0
vertex -3.0 3.52495810318487e-016 10.75
vertex -3.0 3.52495810318487e-016 0.0
endloop
endfacet
facet normal 0.5 -0.866025403784439 0.0
outer loop
vertex 1.5 -2.59807621135332 10.75
vertex 0.776457135307561 -2.89777747886721 0.0
vertex 1.5 -2.59807621135332 0.0
endloop
endfacet
facet normal 0.25881904510252 -0.965925826289068 0.0
outer loop
vertex 0.776457135307561 -2.89777747886721 0.0
vertex 1.5 -2.59807621135332 10.75
vertex 0.776457135307561 -2.89777747886721 10.75
endloop
endfacet
facet normal -2.22777747391173e-016 -1.0 0.0
outer loop
vertex -7.04991620636974e-016 -3.0 10.75
vertex -0.776457135307564 -2.8977774788672 0.0
vertex -7.04991620636974e-016 -3.0 0.0
endloop
endfacet
facet normal -0.258819045102521 -0.965925826289068 0.0
outer loop
vertex -0.776457135307564 -2.8977774788672 0.0
vertex -7.04991620636974e-016 -3.0 10.75
vertex -0.776457135307564 -2.8977774788672 10.75
endloop
endfacet
facet normal -0.965925826289068 -0.258819045102521 0.0
outer loop
vertex -2.89777747886721 -0.776457135307561 10.75
vertex -2.59807621135332 -1.5 0.0
vertex -2.59807621135332 -1.5 10.75
endloop
endfacet
facet normal -0.866025403784439 -0.5 0.0
outer loop
vertex -2.59807621135332 -1.5 0.0
vertex -2.89777747886721 -0.776457135307561 10.75
vertex -2.89777747886721 -0.776457135307561 0.0
endloop
endfacet
facet normal -0.965925826289068 0.258819045102521 0.0
outer loop
vertex -2.8977774788672 0.776457135307563 10.75
vertex -3.0 3.52495810318487e-016 0.0
vertex -3.0 3.52495810318487e-016 10.75
endloop
endfacet
facet normal -1.0 9.80222088521159e-017 0.0
outer loop
vertex -3.0 3.52495810318487e-016 0.0
vertex -2.8977774788672 0.776457135307563 10.75
vertex -2.8977774788672 0.776457135307563 0.0
endloop
endfacet
facet normal -0.707106781186547 0.707106781186548 0.0
outer loop
vertex -2.12132034355964 2.12132034355964 10.75
vertex -1.5 2.59807621135332 0.0
vertex -2.12132034355964 2.12132034355964 0.0
endloop
endfacet
facet normal -0.5 0.866025403784439 0.0
outer loop
vertex -1.5 2.59807621135332 0.0
vertex -2.12132034355964 2.12132034355964 10.75
vertex -1.5 2.59807621135332 10.75
endloop
endfacet
facet normal -0.5 0.866025403784439 0.0
outer loop
vertex -1.5 2.59807621135332 10.75
vertex -0.776457135307562 2.89777747886721 0.0
vertex -1.5 2.59807621135332 0.0
endloop
endfacet
facet normal -0.258819045102521 0.965925826289068 0.0
outer loop
vertex -0.776457135307562 2.89777747886721 0.0
vertex -1.5 2.59807621135332 10.75
vertex -0.776457135307562 2.89777747886721 10.75
endloop
endfacet
facet normal -0.707106781186548 -0.707106781186547 0.0
outer loop
vertex 1.41421356237309 1.4142135623731 10.75
vertex 1.0 1.73205080756888 0.0
vertex 1.41421356237309 1.4142135623731 0.0
endloop
endfacet
facet normal -0.5 -0.866025403784439 0.0
outer loop
vertex 1.0 1.73205080756888 0.0
vertex 1.41421356237309 1.4142135623731 10.75
vertex 1.0 1.73205080756888 10.75
endloop
endfacet
facet normal -0.258819045102521 -0.965925826289068 0.0
outer loop
vertex 0.517638090205042 1.93185165257814 10.75
vertex 0.0 2.0 0.0
vertex 0.517638090205042 1.93185165257814 0.0
endloop
endfacet
facet normal 5.34666593738814e-017 -1.0 0.0
outer loop
vertex 0.0 2.0 0.0
vertex 0.517638090205042 1.93185165257814 10.75
vertex 0.0 2.0 10.75
endloop
endfacet
facet normal 0.965925826289068 0.258819045102521 0.0
outer loop
vertex 2.89777747886721 0.776457135307562 0.0
vertex 3.0 0.0 10.75
vertex 3.0 0.0 0.0
endloop
endfacet
facet normal 1.0 -2.40599967182466e-016 0.0
outer loop
vertex 3.0 0.0 10.75
vertex 2.89777747886721 0.776457135307562 0.0
vertex 2.89777747886721 0.776457135307562 10.75
endloop
endfacet
facet normal 0.0 0.0 1.0
outer loop
vertex -2.89777747886721 -0.776457135307561 10.75
vertex -2.8977774788672 0.776457135307563 10.75
vertex -3.0 3.52495810318487e-016 10.75
endloop
endfacet
facet normal 0.0 0.0 1.0
outer loop
vertex -2.8977774788672 0.776457135307563 10.75
vertex -2.89777747886721 -0.776457135307561 10.75
vertex -2.59807621135332 -1.5 10.75
endloop
endfacet
facet normal 0.0 0.0 1.0
outer loop
vertex -2.8977774788672 0.776457135307563 10.75
vertex -2.59807621135332 -1.5 10.75
vertex -2.59807621135332 1.5 10.75
endloop
endfacet
facet normal 0.0 0.0 1.0
outer loop
vertex -2.59807621135332 1.5 10.75
vertex -2.59807621135332 -1.5 10.75
vertex -2.12132034355964 -2.12132034355964 10.75
endloop
endfacet
facet normal 0.0 0.0 1.0
outer loop
vertex -2.59807621135332 1.5 10.75
vertex -2.12132034355964 -2.12132034355964 10.75
vertex -2.12132034355964 2.12132034355964 10.75
endloop
endfacet
facet normal 0.0 0.0 1.0
outer loop
vertex -2.12132034355964 2.12132034355964 10.75
vertex -2.12132034355964 -2.12132034355964 10.75
vertex -2.0 3.52495810318487e-016 10.75
endloop
endfacet
facet normal 0.0 0.0 1.0
outer loop
vertex -2.0 3.52495810318487e-016 10.75
vertex -2.12132034355964 -2.12132034355964 10.75
vertex -1.93185165257814 -0.517638090205041 10.75
endloop
endfacet
facet normal 0.0 0.0 1.0
outer loop
vertex -1.93185165257814 -0.517638090205041 10.75
vertex -2.12132034355964 -2.12132034355964 10.75
vertex -1.5 -2.59807621135332 10.75
endloop
endfacet
facet normal 0.0 0.0 1.0
outer loop
vertex -1.93185165257814 -0.517638090205041 10.75
vertex -1.5 -2.59807621135332 10.75
vertex -1.73205080756888 -1.0 10.75
endloop
endfacet
facet normal 0.0 0.0 1.0
outer loop
vertex -1.73205080756888 -1.0 10.75
vertex -1.5 -2.59807621135332 10.75
vertex -1.4142135623731 -1.41421356237309 10.75
endloop
endfacet
facet normal 0.0 0.0 1.0
outer loop
vertex -1.4142135623731 -1.41421356237309 10.75
vertex -1.5 -2.59807621135332 10.75
vertex -0.776457135307564 -2.8977774788672 10.75
endloop
endfacet
facet normal 0.0 0.0 1.0
outer loop
vertex -1.4142135623731 -1.41421356237309 10.75
vertex -0.776457135307564 -2.8977774788672 10.75
vertex -1.0 -1.73205080756888 10.75
endloop
endfacet
facet normal 0.0 0.0 1.0
outer loop
vertex -1.0 -1.73205080756888 10.75
vertex -0.776457135307564 -2.8977774788672 10.75
vertex -0.517638090205043 -1.93185165257814 10.75
endloop
endfacet
facet normal 0.0 0.0 1.0
outer loop
vertex -0.517638090205043 -1.93185165257814 10.75
vertex -0.776457135307564 -2.8977774788672 10.75
vertex -7.04991620636974e-016 -3.0 10.75
endloop
endfacet
facet normal 0.0 0.0 1.0
outer loop
vertex -0.517638090205043 -1.93185165257814 10.75
vertex -7.04991620636974e-016 -3.0 10.75
vertex -3.52495810318487e-016 -2.0 10.75
endloop
endfacet
facet normal 0.0 0.0 1.0
outer loop
vertex -3.52495810318487e-016 -2.0 10.75
vertex -7.04991620636974e-016 -3.0 10.75
vertex 0.776457135307561 -2.89777747886721 10.75
endloop
endfacet
facet normal 0.0 0.0 1.0
outer loop
vertex -3.52495810318487e-016 -2.0 10.75
vertex 0.776457135307561 -2.89777747886721 10.75
vertex 0.51763809020504 -1.93185165257814 10.75
endloop
endfacet
facet normal 0.0 0.0 1.0
outer loop
vertex 0.51763809020504 -1.93185165257814 10.75
vertex 0.776457135307561 -2.89777747886721 10.75
vertex 0.999999999999999 -1.73205080756888 10.75
endloop
endfacet
facet normal 0.0 0.0 1.0
outer loop
vertex 0.999999999999999 -1.73205080756888 10.75
vertex 0.776457135307561 -2.89777747886721 10.75
vertex 1.5 -2.59807621135332 10.75
endloop
endfacet
facet normal 0.0 0.0 1.0
outer loop
vertex 0.999999999999999 -1.73205080756888 10.75
vertex 1.5 -2.59807621135332 10.75
vertex 1.41421356237309 -1.4142135623731 10.75
endloop
endfacet
facet normal 0.0 0.0 1.0
outer loop
vertex 1.41421356237309 -1.4142135623731 10.75
vertex 1.5 -2.59807621135332 10.75
vertex 1.73205080756888 -1.0 10.75
endloop
endfacet
facet normal 0.0 0.0 1.0
outer loop
vertex 1.73205080756888 -1.0 10.75
vertex 1.5 -2.59807621135332 10.75
vertex 2.12132034355964 -2.12132034355964 10.75
endloop
endfacet
facet normal 0.0 0.0 1.0
outer loop
vertex 1.73205080756888 -1.0 10.75
vertex 2.12132034355964 -2.12132034355964 10.75
vertex 1.93185165257814 -0.517638090205043 10.75
endloop
endfacet
facet normal 0.0 0.0 1.0
outer loop
vertex 1.93185165257814 -0.517638090205043 10.75
vertex 2.12132034355964 -2.12132034355964 10.75
vertex 2.0 0.0 10.75
endloop
endfacet
facet normal 0.0 0.0 1.0
outer loop
vertex -2.12132034355964 2.12132034355964 10.75
vertex -1.93185165257814 0.517638090205042 10.75
vertex -1.5 2.59807621135332 10.75
endloop
endfacet
facet normal 0.0 0.0 1.0
outer loop
vertex -1.93185165257814 0.517638090205042 10.75
vertex -2.12132034355964 2.12132034355964 10.75
vertex -2.0 3.52495810318487e-016 10.75
endloop
endfacet
facet normal 0.0 0.0 1.0
outer loop
vertex -1.5 2.59807621135332 10.75
vertex -1.93185165257814 0.517638090205042 10.75
vertex -1.73205080756888 1.0 10.75
endloop
endfacet
facet normal 0.0 0.0 1.0
outer loop
vertex -1.5 2.59807621135332 10.75
vertex -1.73205080756888 1.0 10.75
vertex -1.41421356237309 1.4142135623731 10.75
endloop
endfacet
facet normal 0.0 0.0 1.0
outer loop
vertex -1.5 2.59807621135332 10.75
vertex -1.41421356237309 1.4142135623731 10.75
vertex -0.776457135307562 2.89777747886721 10.75
endloop
endfacet
facet normal 0.0 0.0 1.0
outer loop
vertex -0.776457135307562 2.89777747886721 10.75
vertex -1.41421356237309 1.4142135623731 10.75
vertex -0.999999999999999 1.73205080756888 10.75
endloop
endfacet
facet normal 0.0 0.0 1.0
outer loop
vertex -0.776457135307562 2.89777747886721 10.75
vertex -0.999999999999999 1.73205080756888 10.75
vertex -0.517638090205041 1.93185165257814 10.75
endloop
endfacet
facet normal 0.0 0.0 1.0
outer loop
vertex -0.776457135307562 2.89777747886721 10.75
vertex -0.517638090205041 1.93185165257814 10.75
vertex 3.52495810318487e-016 3.0 10.75
endloop
endfacet
facet normal 0.0 0.0 1.0
outer loop
vertex 3.52495810318487e-016 3.0 10.75
vertex -0.517638090205041 1.93185165257814 10.75
vertex 0.0 2.0 10.75
endloop
endfacet
facet normal 0.0 0.0 1.0
outer loop
vertex 3.52495810318487e-016 3.0 10.75
vertex 0.0 2.0 10.75
vertex 0.517638090205042 1.93185165257814 10.75
endloop
endfacet
facet normal 0.0 0.0 1.0
outer loop
vertex 3.52495810318487e-016 3.0 10.75
vertex 0.517638090205042 1.93185165257814 10.75
vertex 0.776457135307563 2.89777747886721 10.75
endloop
endfacet
facet normal 0.0 0.0 1.0
outer loop
vertex 0.776457135307563 2.89777747886721 10.75
vertex 0.517638090205042 1.93185165257814 10.75
vertex 1.0 1.73205080756888 10.75
endloop
endfacet
facet normal 0.0 0.0 1.0
outer loop
vertex 0.776457135307563 2.89777747886721 10.75
vertex 1.0 1.73205080756888 10.75
vertex 1.5 2.59807621135332 10.75
endloop
endfacet
facet normal 0.0 0.0 1.0
outer loop
vertex 1.5 2.59807621135332 10.75
vertex 1.0 1.73205080756888 10.75
vertex 1.41421356237309 1.4142135623731 10.75
endloop
endfacet
facet normal 0.0 0.0 1.0
outer loop
vertex 1.5 2.59807621135332 10.75
vertex 1.41421356237309 1.4142135623731 10.75
vertex 1.73205080756888 1.0 10.75
endloop
endfacet
facet normal 0.0 0.0 1.0
outer loop
vertex 1.5 2.59807621135332 10.75
vertex 1.73205080756888 1.0 10.75
vertex 2.12132034355964 2.12132034355964 10.75
endloop
endfacet
facet normal 0.0 0.0 1.0
outer loop
vertex 2.12132034355964 2.12132034355964 10.75
vertex 1.73205080756888 1.0 10.75
vertex 1.93185165257814 0.517638090205041 10.75
endloop
endfacet
facet normal 0.0 0.0 1.0
outer loop
vertex 2.12132034355964 2.12132034355964 10.75
vertex 1.93185165257814 0.517638090205041 10.75
vertex 2.0 0.0 10.75
endloop
endfacet
facet normal 0.0 0.0 1.0
outer loop
vertex 2.12132034355964 2.12132034355964 10.75
vertex 2.0 0.0 10.75
vertex 2.12132034355964 -2.12132034355964 10.75
endloop
endfacet
facet normal 0.0 0.0 1.0
outer loop
vertex 2.12132034355964 2.12132034355964 10.75
vertex 2.12132034355964 -2.12132034355964 10.75
vertex 2.59807621135332 -1.5 10.75
endloop
endfacet
facet normal 0.0 0.0 1.0
outer loop
vertex 2.12132034355964 2.12132034355964 10.75
vertex 2.59807621135332 -1.5 10.75
vertex 2.59807621135332 1.5 10.75
endloop
endfacet
facet normal 0.0 0.0 1.0
outer loop
vertex 2.59807621135332 1.5 10.75
vertex 2.59807621135332 -1.5 10.75
vertex 2.8977774788672 -0.776457135307565 10.75
endloop
endfacet
facet normal 0.0 0.0 1.0
outer loop
vertex 2.59807621135332 1.5 10.75
vertex 2.8977774788672 -0.776457135307565 10.75
vertex 2.89777747886721 0.776457135307562 10.75
endloop
endfacet
facet normal 0.0 0.0 1.0
outer loop
vertex 2.89777747886721 0.776457135307562 10.75
vertex 2.8977774788672 -0.776457135307565 10.75
vertex 3.0 0.0 10.75
endloop
endfacet
facet normal -0.500000000000001 -0.866025403784438 0.0
outer loop
vertex -1.5 -2.59807621135332 10.75
vertex -2.12132034355964 -2.12132034355964 0.0
vertex -1.5 -2.59807621135332 0.0
endloop
endfacet
facet normal -0.707106781186548 -0.707106781186547 0.0
outer loop
vertex -2.12132034355964 -2.12132034355964 0.0
vertex -1.5 -2.59807621135332 10.75
vertex -2.12132034355964 -2.12132034355964 10.75
endloop
endfacet
facet normal -0.258819045102521 -0.965925826289068 0.0
outer loop
vertex -0.776457135307564 -2.8977774788672 10.75
vertex -1.5 -2.59807621135332 0.0
vertex -0.776457135307564 -2.8977774788672 0.0
endloop
endfacet
facet normal -0.500000000000001 -0.866025403784438 0.0
outer loop
vertex -1.5 -2.59807621135332 0.0
vertex -0.776457135307564 -2.8977774788672 10.75
vertex -1.5 -2.59807621135332 10.75
endloop
endfacet
facet normal -0.866025403784439 -0.5 0.0
outer loop
vertex -2.59807621135332 -1.5 10.75
vertex -2.12132034355964 -2.12132034355964 0.0
vertex -2.12132034355964 -2.12132034355964 10.75
endloop
endfacet
facet normal -0.707106781186548 -0.707106781186547 0.0
outer loop
vertex -2.12132034355964 -2.12132034355964 0.0
vertex -2.59807621135332 -1.5 10.75
vertex -2.59807621135332 -1.5 0.0
endloop
endfacet
facet normal -0.866025403784439 0.5 0.0
outer loop
vertex -2.59807621135332 1.5 10.75
vertex -2.8977774788672 0.776457135307563 0.0
vertex -2.8977774788672 0.776457135307563 10.75
endloop
endfacet
facet normal -0.965925826289068 0.258819045102521 0.0
outer loop
vertex -2.8977774788672 0.776457135307563 0.0
vertex -2.59807621135332 1.5 10.75
vertex -2.59807621135332 1.5 0.0
endloop
endfacet
facet normal 1.0 -2.40599967182466e-016 0.0
outer loop
vertex 3.0 0.0 0.0
vertex 2.8977774788672 -0.776457135307565 10.75
vertex 2.8977774788672 -0.776457135307565 0.0
endloop
endfacet
facet normal 0.965925826289068 -0.258819045102521 0.0
outer loop
vertex 2.8977774788672 -0.776457135307565 10.75
vertex 3.0 0.0 0.0
vertex 3.0 0.0 10.75
endloop
endfacet
facet normal 0.707106781186547 -0.707106781186548 0.0
outer loop
vertex 2.12132034355964 -2.12132034355964 10.75
vertex 1.5 -2.59807621135332 0.0
vertex 2.12132034355964 -2.12132034355964 0.0
endloop
endfacet
facet normal 0.5 -0.866025403784439 0.0
outer loop
vertex 1.5 -2.59807621135332 0.0
vertex 2.12132034355964 -2.12132034355964 10.75
vertex 1.5 -2.59807621135332 10.75
endloop
endfacet
facet normal -0.707106781186547 0.707106781186548 0.0
outer loop
vertex -2.12132034355964 2.12132034355964 10.75
vertex -2.59807621135332 1.5 0.0
vertex -2.59807621135332 1.5 10.75
endloop
endfacet
facet normal -0.866025403784439 0.5 0.0
outer loop
vertex -2.59807621135332 1.5 0.0
vertex -2.12132034355964 2.12132034355964 10.75
vertex -2.12132034355964 2.12132034355964 0.0
endloop
endfacet
facet normal 0.965925826289068 -0.258819045102521 0.0
outer loop
vertex 2.8977774788672 -0.776457135307565 0.0
vertex 2.59807621135332 -1.5 10.75
vertex 2.59807621135332 -1.5 0.0
endloop
endfacet
facet normal 0.866025403784439 -0.5 0.0
outer loop
vertex 2.59807621135332 -1.5 10.75
vertex 2.8977774788672 -0.776457135307565 0.0
vertex 2.8977774788672 -0.776457135307565 10.75
endloop
endfacet
facet normal 0.866025403784439 -0.5 0.0
outer loop
vertex 2.59807621135332 -1.5 0.0
vertex 2.12132034355964 -2.12132034355964 10.75
vertex 2.12132034355964 -2.12132034355964 0.0
endloop
endfacet
facet normal 0.707106781186547 -0.707106781186548 0.0
outer loop
vertex 2.12132034355964 -2.12132034355964 10.75
vertex 2.59807621135332 -1.5 0.0
vertex 2.59807621135332 -1.5 10.75
endloop
endfacet
facet normal -0.258819045102521 0.965925826289068 0.0
outer loop
vertex -0.776457135307562 2.89777747886721 10.75
vertex 3.52495810318487e-016 3.0 0.0
vertex -0.776457135307562 2.89777747886721 0.0
endloop
endfacet
facet normal 1.69311088017291e-016 1.0 0.0
outer loop
vertex 3.52495810318487e-016 3.0 0.0
vertex -0.776457135307562 2.89777747886721 10.75
vertex 3.52495810318487e-016 3.0 10.75
endloop
endfacet
facet normal 1.69311088017291e-016 1.0 0.0
outer loop
vertex 3.52495810318487e-016 3.0 10.75
vertex 0.776457135307563 2.89777747886721 0.0
vertex 3.52495810318487e-016 3.0 0.0
endloop
endfacet
facet normal 0.258819045102521 0.965925826289068 0.0
outer loop
vertex 0.776457135307563 2.89777747886721 0.0
vertex 3.52495810318487e-016 3.0 10.75
vertex 0.776457135307563 2.89777747886721 10.75
endloop
endfacet
facet normal 0.258819045102521 0.965925826289068 0.0
outer loop
vertex 0.776457135307563 2.89777747886721 10.75
vertex 1.5 2.59807621135332 0.0
vertex 0.776457135307563 2.89777747886721 0.0
endloop
endfacet
facet normal 0.5 0.866025403784439 0.0
outer loop
vertex 1.5 2.59807621135332 0.0
vertex 0.776457135307563 2.89777747886721 10.75
vertex 1.5 2.59807621135332 10.75
endloop
endfacet
facet normal 0.866025403784439 0.5 0.0
outer loop
vertex 2.59807621135332 1.5 0.0
vertex 2.89777747886721 0.776457135307562 10.75
vertex 2.89777747886721 0.776457135307562 0.0
endloop
endfacet
facet normal 0.965925826289068 0.258819045102521 0.0
outer loop
vertex 2.89777747886721 0.776457135307562 10.75
vertex 2.59807621135332 1.5 0.0
vertex 2.59807621135332 1.5 10.75
endloop
endfacet
facet normal -0.707106781186548 -0.707106781186547 0.0
outer loop
vertex 1.41421356237309 1.4142135623731 10.75
vertex 1.73205080756888 1.0 0.0
vertex 1.73205080756888 1.0 10.75
endloop
endfacet
facet normal -0.866025403784439 -0.5 0.0
outer loop
vertex 1.73205080756888 1.0 0.0
vertex 1.41421356237309 1.4142135623731 10.75
vertex 1.41421356237309 1.4142135623731 0.0
endloop
endfacet
facet normal -0.5 -0.866025403784439 0.0
outer loop
vertex 1.0 1.73205080756888 10.75
vertex 0.517638090205042 1.93185165257814 0.0
vertex 1.0 1.73205080756888 0.0
endloop
endfacet
facet normal -0.258819045102521 -0.965925826289068 0.0
outer loop
vertex 0.517638090205042 1.93185165257814 0.0
vertex 1.0 1.73205080756888 10.75
vertex 0.517638090205042 1.93185165257814 10.75
endloop
endfacet
facet normal 5.34666593738814e-017 -1.0 0.0
outer loop
vertex 0.0 2.0 10.75
vertex -0.517638090205041 1.93185165257814 0.0
vertex 0.0 2.0 0.0
endloop
endfacet
facet normal 0.258819045102521 -0.965925826289068 0.0
outer loop
vertex -0.517638090205041 1.93185165257814 0.0
vertex 0.0 2.0 10.75
vertex -0.517638090205041 1.93185165257814 10.75
endloop
endfacet
facet normal 0.258819045102521 -0.965925826289068 0.0
outer loop
vertex -0.517638090205041 1.93185165257814 10.75
vertex -0.999999999999999 1.73205080756888 0.0
vertex -0.517638090205041 1.93185165257814 0.0
endloop
endfacet
facet normal 0.5 -0.866025403784439 0.0
outer loop
vertex -0.999999999999999 1.73205080756888 0.0
vertex -0.517638090205041 1.93185165257814 10.75
vertex -0.999999999999999 1.73205080756888 10.75
endloop
endfacet
facet normal 0.25881904510252 -0.965925826289068 0.0
outer loop
vertex 0.776457135307561 -2.89777747886721 10.75
vertex -7.04991620636974e-016 -3.0 0.0
vertex 0.776457135307561 -2.89777747886721 0.0
endloop
endfacet
facet normal -2.22777747391173e-016 -1.0 0.0
outer loop
vertex -7.04991620636974e-016 -3.0 0.0
vertex 0.776457135307561 -2.89777747886721 10.75
vertex -7.04991620636974e-016 -3.0 10.75
endloop
endfacet
facet normal 1.0 -2.22777747391173e-016 0.0
outer loop
vertex -2.0 3.52495810318487e-016 0.0
vertex -1.93185165257814 -0.517638090205041 10.75
vertex -1.93185165257814 -0.517638090205041 0.0
endloop
endfacet
facet normal 0.965925826289068 0.25881904510252 0.0
outer loop
vertex -1.93185165257814 -0.517638090205041 10.75
vertex -2.0 3.52495810318487e-016 0.0
vertex -2.0 3.52495810318487e-016 10.75
endloop
endfacet
facet normal 0.707106781186547 -0.707106781186548 0.0
outer loop
vertex -1.41421356237309 1.4142135623731 0.0
vertex -1.73205080756888 1.0 10.75
vertex -1.73205080756888 1.0 0.0
endloop
endfacet
facet normal 0.866025403784439 -0.5 0.0
outer loop
vertex -1.73205080756888 1.0 10.75
vertex -1.41421356237309 1.4142135623731 0.0
vertex -1.41421356237309 1.4142135623731 10.75
endloop
endfacet
facet normal 0.707106781186548 0.707106781186547 0.0
outer loop
vertex -1.4142135623731 -1.41421356237309 10.75
vertex -1.0 -1.73205080756888 0.0
vertex -1.4142135623731 -1.41421356237309 0.0
endloop
endfacet
facet normal 0.5 0.866025403784438 0.0
outer loop
vertex -1.0 -1.73205080756888 0.0
vertex -1.4142135623731 -1.41421356237309 10.75
vertex -1.0 -1.73205080756888 10.75
endloop
endfacet
facet normal 0.965925826289068 -0.258819045102521 0.0
outer loop
vertex -1.93185165257814 0.517638090205042 0.0
vertex -2.0 3.52495810318487e-016 10.75
vertex -2.0 3.52495810318487e-016 0.0
endloop
endfacet
facet normal 1.0 -2.22777747391173e-016 0.0
outer loop
vertex -2.0 3.52495810318487e-016 10.75
vertex -1.93185165257814 0.517638090205042 0.0
vertex -1.93185165257814 0.517638090205042 10.75
endloop
endfacet
facet normal -0.25881904510252 0.965925826289068 0.0
outer loop
vertex 0.51763809020504 -1.93185165257814 10.75
vertex 0.999999999999999 -1.73205080756888 0.0
vertex 0.51763809020504 -1.93185165257814 0.0
endloop
endfacet
facet normal -0.5 0.866025403784439 0.0
outer loop
vertex 0.999999999999999 -1.73205080756888 0.0
vertex 0.51763809020504 -1.93185165257814 10.75
vertex 0.999999999999999 -1.73205080756888 10.75
endloop
endfacet
facet normal -0.5 0.866025403784439 0.0
outer loop
vertex 0.999999999999999 -1.73205080756888 10.75
vertex 1.41421356237309 -1.4142135623731 0.0
vertex 0.999999999999999 -1.73205080756888 0.0
endloop
endfacet
facet normal -0.707106781186547 0.707106781186548 0.0
outer loop
vertex 1.41421356237309 -1.4142135623731 0.0
vertex 0.999999999999999 -1.73205080756888 10.75
vertex 1.41421356237309 -1.4142135623731 10.75
endloop
endfacet
facet normal 0.866025403784439 0.5 0.0
outer loop
vertex -1.73205080756888 -1.0 0.0
vertex -1.4142135623731 -1.41421356237309 10.75
vertex -1.4142135623731 -1.41421356237309 0.0
endloop
endfacet
facet normal 0.707106781186548 0.707106781186547 0.0
outer loop
vertex -1.4142135623731 -1.41421356237309 10.75
vertex -1.73205080756888 -1.0 0.0
vertex -1.73205080756888 -1.0 10.75
endloop
endfacet
facet normal -0.866025403784439 0.5 0.0
outer loop
vertex 1.73205080756888 -1.0 10.75
vertex 1.41421356237309 -1.4142135623731 0.0
vertex 1.41421356237309 -1.4142135623731 10.75
endloop
endfacet
facet normal -0.707106781186547 0.707106781186548 0.0
outer loop
vertex 1.41421356237309 -1.4142135623731 0.0
vertex 1.73205080756888 -1.0 10.75
vertex 1.73205080756888 -1.0 0.0
endloop
endfacet
facet normal -0.866025403784439 -0.5 0.0
outer loop
vertex 1.73205080756888 1.0 10.75
vertex 1.93185165257814 0.517638090205041 0.0
vertex 1.93185165257814 0.517638090205041 10.75
endloop
endfacet
facet normal -0.965925826289068 -0.258819045102521 0.0
outer loop
vertex 1.93185165257814 0.517638090205041 0.0
vertex 1.73205080756888 1.0 10.75
vertex 1.73205080756888 1.0 0.0
endloop
endfacet
facet normal -0.965925826289068 0.258819045102521 0.0
outer loop
vertex 1.93185165257814 -0.517638090205043 10.75
vertex 1.73205080756888 -1.0 0.0
vertex 1.73205080756888 -1.0 10.75
endloop
endfacet
facet normal -0.866025403784439 0.5 0.0
outer loop
vertex 1.73205080756888 -1.0 0.0
vertex 1.93185165257814 -0.517638090205043 10.75
vertex 1.93185165257814 -0.517638090205043 0.0
endloop
endfacet
facet normal 0.258819045102521 0.965925826289068 0.0
outer loop
vertex -0.517638090205043 -1.93185165257814 10.75
vertex -3.52495810318487e-016 -2.0 0.0
vertex -0.517638090205043 -1.93185165257814 0.0
endloop
endfacet
facet normal 4.54466604677992e-016 1.0 0.0
outer loop
vertex -3.52495810318487e-016 -2.0 0.0
vertex -0.517638090205043 -1.93185165257814 10.75
vertex -3.52495810318487e-016 -2.0 10.75
endloop
endfacet
facet normal 0.5 0.866025403784438 0.0
outer loop
vertex -1.0 -1.73205080756888 10.75
vertex -0.517638090205043 -1.93185165257814 0.0
vertex -1.0 -1.73205080756888 0.0
endloop
endfacet
facet normal 0.258819045102521 0.965925826289068 0.0
outer loop
vertex -0.517638090205043 -1.93185165257814 0.0
vertex -1.0 -1.73205080756888 10.75
vertex -0.517638090205043 -1.93185165257814 10.75
endloop
endfacet
facet normal 0.965925826289068 0.25881904510252 0.0
outer loop
vertex -1.93185165257814 -0.517638090205041 0.0
vertex -1.73205080756888 -1.0 10.75
vertex -1.73205080756888 -1.0 0.0
endloop
endfacet
facet normal 0.866025403784439 0.5 0.0
outer loop
vertex -1.73205080756888 -1.0 10.75
vertex -1.93185165257814 -0.517638090205041 0.0
vertex -1.93185165257814 -0.517638090205041 10.75
endloop
endfacet
facet normal 4.54466604677992e-016 1.0 0.0
outer loop
vertex -3.52495810318487e-016 -2.0 10.75
vertex 0.51763809020504 -1.93185165257814 0.0
vertex -3.52495810318487e-016 -2.0 0.0
endloop
endfacet
facet normal -0.25881904510252 0.965925826289068 0.0
outer loop
vertex 0.51763809020504 -1.93185165257814 0.0
vertex -3.52495810318487e-016 -2.0 10.75
vertex 0.51763809020504 -1.93185165257814 10.75
endloop
endfacet
facet normal -1.0 1.42577758330351e-016 0.0
outer loop
vertex 2.0 0.0 10.75
vertex 1.93185165257814 -0.517638090205043 0.0
vertex 1.93185165257814 -0.517638090205043 10.75
endloop
endfacet
facet normal -0.965925826289068 0.258819045102521 0.0
outer loop
vertex 1.93185165257814 -0.517638090205043 0.0
vertex 2.0 0.0 10.75
vertex 2.0 0.0 0.0
endloop
endfacet
facet normal -0.965925826289068 -0.258819045102521 0.0
outer loop
vertex 1.93185165257814 0.517638090205041 10.75
vertex 2.0 0.0 0.0
vertex 2.0 0.0 10.75
endloop
endfacet
facet normal -1.0 1.42577758330351e-016 0.0
outer loop
vertex 2.0 0.0 0.0
vertex 1.93185165257814 0.517638090205041 10.75
vertex 1.93185165257814 0.517638090205041 0.0
endloop
endfacet
facet normal 0.866025403784439 -0.5 0.0
outer loop
vertex -1.73205080756888 1.0 0.0
vertex -1.93185165257814 0.517638090205042 10.75
vertex -1.93185165257814 0.517638090205042 0.0
endloop
endfacet
facet normal 0.965925826289068 -0.258819045102521 0.0
outer loop
vertex -1.93185165257814 0.517638090205042 10.75
vertex -1.73205080756888 1.0 0.0
vertex -1.73205080756888 1.0 10.75
endloop
endfacet
endsolid standiff-onewire-x3
