solid DougMax side
facet normal 0.499999999999998 -0.86602540378444 0.0
outer loop
vertex 68.75 12.6650635094611 4.5
vertex 68.2322330470336 12.2677669529664 0.0
vertex 68.75 12.6650635094611 0.0
endloop
endfacet
facet normal 0.707106781186548 -0.707106781186547 0.0
outer loop
vertex 68.2322330470336 12.2677669529664 0.0
vertex 68.75 12.6650635094611 4.5
vertex 68.2322330470336 12.2677669529664 4.5
endloop
endfacet
facet normal 0.965925826289067 0.258819045102526 0.0
outer loop
vertex 67.5851854342773 9.8529523872437 0.0
vertex 67.8349364905389 9.25 4.5
vertex 67.8349364905389 9.25 0.0
endloop
endfacet
facet normal 0.866025403784439 0.5 0.0
outer loop
vertex 67.8349364905389 9.25 4.5
vertex 67.5851854342773 9.8529523872437 0.0
vertex 67.5851854342773 9.8529523872437 4.5
endloop
endfacet
facet normal 0.0 1.0 0.0
outer loop
vertex 70.0 8.0 4.5
vertex 70.6470476127563 8.08518543427733 0.0
vertex 70.0 8.0 0.0
endloop
endfacet
facet normal -0.258819045102521 0.965925826289068 0.0
outer loop
vertex 70.6470476127563 8.08518543427733 0.0
vertex 70.0 8.0 4.5
vertex 70.6470476127563 8.08518543427733 4.5
endloop
endfacet
facet normal -0.499999999999997 -0.86602540378444 0.0
outer loop
vertex 71.25 12.6650635094611 4.5
vertex 70.6470476127563 12.9148145657227 0.0
vertex 71.25 12.6650635094611 0.0
endloop
endfacet
facet normal -0.258819045102521 -0.965925826289068 0.0
outer loop
vertex 70.6470476127563 12.9148145657227 0.0
vertex 71.25 12.6650635094611 4.5
vertex 70.6470476127563 12.9148145657227 4.5
endloop
endfacet
facet normal -0.534712539114387 -0.845034023287728 0.0
outer loop
vertex 91.336781347786 12.6125850582193 4.5
vertex 90.7444543804618 12.8865849399113 0.0
vertex 91.336781347786 12.6125850582193 0.0
endloop
endfacet
facet normal -0.29778175218472 -0.954633975964504 0.0
outer loop
vertex 90.7444543804618 12.8865849399113 0.0
vertex 91.336781347786 12.6125850582193 4.5
vertex 90.7444543804618 12.8865849399113 4.5
endloop
endfacet
facet normal -0.866025403784439 -0.5 0.0
outer loop
vertex 72.1650635094611 11.75 4.5
vertex 72.4148145657227 11.1470476127563 0.0
vertex 72.4148145657227 11.1470476127563 4.5
endloop
endfacet
facet normal -0.965925826289067 -0.258819045102527 0.0
outer loop
vertex 72.4148145657227 11.1470476127563 0.0
vertex 72.1650635094611 11.75 4.5
vertex 72.1650635094611 11.75 0.0
endloop
endfacet
facet normal -1.0 0.0 0.0
outer loop
vertex 0.0 100.0 4.5
vertex 0.0 60.0 3.52495810318487e-016
vertex 0.0 60.0 4.5
endloop
endfacet
facet normal -1.0 0.0 0.0
outer loop
vertex 0.0 60.0 3.52495810318487e-016
vertex 0.0 100.0 4.5
vertex 0.0 100.0 0.0
endloop
endfacet
facet normal -1.0 1.42577758330351e-016 0.0
outer loop
vertex 72.5 10.5 4.5
vertex 72.4148145657227 9.8529523872437 0.0
vertex 72.4148145657227 9.8529523872437 4.5
endloop
endfacet
facet normal -0.965925826289067 0.258819045102526 0.0
outer loop
vertex 72.4148145657227 9.8529523872437 0.0
vertex 72.5 10.5 4.5
vertex 72.5 10.5 0.0
endloop
endfacet
facet normal 0.0 1.0 0.0
outer loop
vertex 0.0 100.0 4.5
vertex 21.0 100.0 0.0
vertex 0.0 100.0 0.0
endloop
endfacet
facet normal 0.0 1.0 0.0
outer loop
vertex 21.0 100.0 0.0
vertex 0.0 100.0 4.5
vertex 21.0 100.0 4.5
endloop
endfacet
facet normal 0.707106781186548 0.707106781186548 0.0
outer loop
vertex 21.0 100.0 0.0
vertex 100.0 21.0 4.5
vertex 100.0 21.0 0.0
endloop
endfacet
facet normal 0.707106781186548 0.707106781186548 0.0
outer loop
vertex 100.0 21.0 4.5
vertex 21.0 100.0 0.0
vertex 21.0 100.0 4.5
endloop
endfacet
facet normal 0.73520355015766 0.677846398408647 0.0
outer loop
vertex 88.1619911246058 8.80538400397839 4.5
vertex 88.663218652214 8.38741494178068 0.0
vertex 88.1619911246058 8.80538400397839 0.0
endloop
endfacet
facet normal 0.534712539114387 0.845034023287728 0.0
outer loop
vertex 88.663218652214 8.38741494178068 0.0
vertex 88.1619911246058 8.80538400397839 4.5
vertex 88.663218652214 8.38741494178068 4.5
endloop
endfacet
facet normal -0.845034023287729 0.534712539114386 0.0
outer loop
vertex 92.1125850582193 9.16321865221403 4.5
vertex 91.6946159960216 8.66199112460585 0.0
vertex 91.6946159960216 8.66199112460585 4.5
endloop
endfacet
facet normal -0.677846398408647 0.735203550157659 0.0
outer loop
vertex 91.6946159960216 8.66199112460585 0.0
vertex 92.1125850582193 9.16321865221403 4.5
vertex 92.1125850582193 9.16321865221403 0.0
endloop
endfacet
facet normal -0.29778175218472 -0.954633975964504 0.0
outer loop
vertex 90.7444543804618 12.8865849399113 4.5
vertex 90.1013940773782 12.9979430019663 0.0
vertex 90.7444543804618 12.8865849399113 0.0
endloop
endfacet
facet normal -0.0405576309512741 -0.999177200786537 0.0
outer loop
vertex 90.1013940773782 12.9979430019663 0.0
vertex 90.7444543804618 12.8865849399113 4.5
vertex 90.1013940773782 12.9979430019663 4.5
endloop
endfacet
facet normal -0.258819045102521 -0.965925826289068 0.0
outer loop
vertex 70.6470476127563 12.9148145657227 4.5
vertex 70.0 13.0 0.0
vertex 70.6470476127563 12.9148145657227 0.0
endloop
endfacet
facet normal 0.0 -1.0 0.0
outer loop
vertex 70.0 13.0 0.0
vertex 70.6470476127563 12.9148145657227 4.5
vertex 70.0 13.0 4.5
endloop
endfacet
facet normal -0.0405576309512741 -0.999177200786537 0.0
outer loop
vertex 90.1013940773782 12.9979430019663 4.5
vertex 89.4514239354829 12.9390703764834 0.0
vertex 90.1013940773782 12.9979430019663 0.0
endloop
endfacet
facet normal 0.219430425806843 -0.975628150593364 0.0
outer loop
vertex 89.4514239354829 12.9390703764834 0.0
vertex 90.1013940773782 12.9979430019663 4.5
vertex 89.4514239354829 12.9390703764834 4.5
endloop
endfacet
facet normal 0.534712539114387 0.845034023287728 0.0
outer loop
vertex 88.663218652214 8.38741494178068 4.5
vertex 89.2555456195382 8.11341506008874 0.0
vertex 88.663218652214 8.38741494178068 0.0
endloop
endfacet
facet normal 0.29778175218472 0.954633975964504 0.0
outer loop
vertex 89.2555456195382 8.11341506008874 0.0
vertex 88.663218652214 8.38741494178068 4.5
vertex 89.2555456195382 8.11341506008874 4.5
endloop
endfacet
facet normal -0.73520355015766 -0.677846398408647 0.0
outer loop
vertex 91.8380088753942 12.1946159960216 4.5
vertex 91.336781347786 12.6125850582193 0.0
vertex 91.8380088753942 12.1946159960216 0.0
endloop
endfacet
facet normal -0.534712539114387 -0.845034023287728 0.0
outer loop
vertex 91.336781347786 12.6125850582193 0.0
vertex 91.8380088753942 12.1946159960216 4.5
vertex 91.336781347786 12.6125850582193 4.5
endloop
endfacet
facet normal -0.965925826289067 0.258819045102526 0.0
outer loop
vertex 72.4148145657227 9.8529523872437 4.5
vertex 72.1650635094611 9.25 0.0
vertex 72.1650635094611 9.25 4.5
endloop
endfacet
facet normal -0.866025403784439 0.5 0.0
outer loop
vertex 72.1650635094611 9.25 0.0
vertex 72.4148145657227 9.8529523872437 4.5
vertex 72.4148145657227 9.8529523872437 0.0
endloop
endfacet
facet normal 0.866025403784439 0.5 0.0
outer loop
vertex 67.8349364905389 9.25 0.0
vertex 68.2322330470336 8.73223304703363 4.5
vertex 68.2322330470336 8.73223304703363 0.0
endloop
endfacet
facet normal 0.707106781186548 0.707106781186548 0.0
outer loop
vertex 68.2322330470336 8.73223304703363 4.5
vertex 67.8349364905389 9.25 0.0
vertex 67.8349364905389 9.25 4.5
endloop
endfacet
facet normal 0.707106781186548 0.707106781186548 0.0
outer loop
vertex 68.2322330470336 8.73223304703363 4.5
vertex 68.75 8.3349364905389 0.0
vertex 68.2322330470336 8.73223304703363 0.0
endloop
endfacet
facet normal 0.499999999999997 0.86602540378444 0.0
outer loop
vertex 68.75 8.3349364905389 0.0
vertex 68.2322330470336 8.73223304703363 4.5
vertex 68.75 8.3349364905389 4.5
endloop
endfacet
facet normal -0.965925826289067 -0.258819045102527 0.0
outer loop
vertex 72.4148145657227 11.1470476127563 4.5
vertex 72.5 10.5 0.0
vertex 72.5 10.5 4.5
endloop
endfacet
facet normal -1.0 1.42577758330351e-016 0.0
outer loop
vertex 72.5 10.5 0.0
vertex 72.4148145657227 11.1470476127563 4.5
vertex 72.4148145657227 11.1470476127563 0.0
endloop
endfacet
facet normal 1.0 -2.76244406765054e-016 0.0
outer loop
vertex 67.5 10.5 0.0
vertex 67.5851854342773 9.8529523872437 4.5
vertex 67.5851854342773 9.8529523872437 0.0
endloop
endfacet
facet normal 0.965925826289067 0.258819045102526 0.0
outer loop
vertex 67.5851854342773 9.8529523872437 4.5
vertex 67.5 10.5 0.0
vertex 67.5 10.5 4.5
endloop
endfacet
facet normal 0.0 -1.0 0.0
outer loop
vertex 70.0 13.0 4.5
vertex 69.3529523872437 12.9148145657227 0.0
vertex 70.0 13.0 0.0
endloop
endfacet
facet normal 0.258819045102522 -0.965925826289068 0.0
outer loop
vertex 69.3529523872437 12.9148145657227 0.0
vertex 70.0 13.0 4.5
vertex 69.3529523872437 12.9148145657227 4.5
endloop
endfacet
facet normal 1.0 0.0 0.0
outer loop
vertex 100.0 21.0 0.0
vertex 100.0 0.0 4.5
vertex 100.0 0.0 0.0
endloop
endfacet
facet normal 1.0 0.0 0.0
outer loop
vertex 100.0 0.0 4.5
vertex 100.0 21.0 0.0
vertex 100.0 21.0 4.5
endloop
endfacet
facet normal 0.885591654239002 0.464464661672153 0.0
outer loop
vertex 87.7860208644025 9.33883834581962 0.0
vertex 88.1619911246058 8.80538400397839 4.5
vertex 88.1619911246058 8.80538400397839 0.0
endloop
endfacet
facet normal 0.73520355015766 0.677846398408647 0.0
outer loop
vertex 88.1619911246058 8.80538400397839 4.5
vertex 87.7860208644025 9.33883834581962 0.0
vertex 87.7860208644025 9.33883834581962 4.5
endloop
endfacet
facet normal 0.0405576309512741 0.999177200786537 0.0
outer loop
vertex 89.8986059226218 8.00205699803366 4.5
vertex 90.5485760645171 8.06092962351659 0.0
vertex 89.8986059226218 8.00205699803366 0.0
endloop
endfacet
facet normal -0.219430425806843 0.975628150593364 0.0
outer loop
vertex 90.5485760645171 8.06092962351659 0.0
vertex 89.8986059226218 8.00205699803366 4.5
vertex 90.5485760645171 8.06092962351659 4.5
endloop
endfacet
facet normal -0.499999999999998 0.86602540378444 0.0
outer loop
vertex 71.25 8.3349364905389 4.5
vertex 71.7677669529664 8.73223304703363 0.0
vertex 71.25 8.3349364905389 0.0
endloop
endfacet
facet normal -0.707106781186548 0.707106781186547 0.0
outer loop
vertex 71.7677669529664 8.73223304703363 0.0
vertex 71.25 8.3349364905389 4.5
vertex 71.7677669529664 8.73223304703363 4.5
endloop
endfacet
facet normal -0.866025403784439 0.5 0.0
outer loop
vertex 72.1650635094611 9.25 4.5
vertex 71.7677669529664 8.73223304703363 0.0
vertex 71.7677669529664 8.73223304703363 4.5
endloop
endfacet
facet normal -0.707106781186548 0.707106781186547 0.0
outer loop
vertex 71.7677669529664 8.73223304703363 0.0
vertex 72.1650635094611 9.25 4.5
vertex 72.1650635094611 9.25 0.0
endloop
endfacet
facet normal 0.866025403784439 -0.5 0.0
outer loop
vertex 67.8349364905389 11.75 0.0
vertex 67.5851854342773 11.1470476127563 4.5
vertex 67.5851854342773 11.1470476127563 0.0
endloop
endfacet
facet normal 0.965925826289067 -0.258819045102527 0.0
outer loop
vertex 67.5851854342773 11.1470476127563 4.5
vertex 67.8349364905389 11.75 0.0
vertex 67.8349364905389 11.75 4.5
endloop
endfacet
facet normal 0.707106781186548 -0.707106781186547 0.0
outer loop
vertex 68.2322330470336 12.2677669529664 0.0
vertex 67.8349364905389 11.75 4.5
vertex 67.8349364905389 11.75 0.0
endloop
endfacet
facet normal 0.866025403784439 -0.5 0.0
outer loop
vertex 67.8349364905389 11.75 4.5
vertex 68.2322330470336 12.2677669529664 0.0
vertex 68.2322330470336 12.2677669529664 4.5
endloop
endfacet
facet normal -0.258819045102521 0.965925826289068 0.0
outer loop
vertex 70.6470476127563 8.08518543427733 4.5
vertex 71.25 8.3349364905389 0.0
vertex 70.6470476127563 8.08518543427733 0.0
endloop
endfacet
facet normal -0.499999999999998 0.86602540378444 0.0
outer loop
vertex 71.25 8.3349364905389 0.0
vertex 70.6470476127563 8.08518543427733 4.5
vertex 71.25 8.3349364905389 4.5
endloop
endfacet
facet normal 0.0 0.0 1.0
outer loop
vertex 60.0 0.0 4.5
vertex 67.5851854342773 9.8529523872437 4.5
vertex 67.5 10.5 4.5
endloop
endfacet
facet normal 0.0 0.0 1.0
outer loop
vertex 67.5851854342773 9.8529523872437 4.5
vertex 60.0 0.0 4.5
vertex 67.8349364905389 9.25 4.5
endloop
endfacet
facet normal 0.0 0.0 1.0
outer loop
vertex 67.8349364905389 9.25 4.5
vertex 60.0 0.0 4.5
vertex 68.2322330470336 8.73223304703363 4.5
endloop
endfacet
facet normal 0.0 0.0 1.0
outer loop
vertex 68.2322330470336 8.73223304703363 4.5
vertex 60.0 0.0 4.5
vertex 68.75 8.3349364905389 4.5
endloop
endfacet
facet normal 0.0 0.0 1.0
outer loop
vertex 68.75 8.3349364905389 4.5
vertex 60.0 0.0 4.5
vertex 69.3529523872437 8.08518543427733 4.5
endloop
endfacet
facet normal 0.0 0.0 1.0
outer loop
vertex 69.3529523872437 8.08518543427733 4.5
vertex 60.0 0.0 4.5
vertex 100.0 0.0 4.5
endloop
endfacet
facet normal 0.0 0.0 1.0
outer loop
vertex 69.3529523872437 8.08518543427733 4.5
vertex 100.0 0.0 4.5
vertex 70.0 8.0 4.5
endloop
endfacet
facet normal 0.0 0.0 1.0
outer loop
vertex 70.0 8.0 4.5
vertex 100.0 0.0 4.5
vertex 70.6470476127563 8.08518543427733 4.5
endloop
endfacet
facet normal 0.0 0.0 1.0
outer loop
vertex 70.6470476127563 8.08518543427733 4.5
vertex 100.0 0.0 4.5
vertex 71.25 8.3349364905389 4.5
endloop
endfacet
facet normal 0.0 0.0 1.0
outer loop
vertex 71.25 8.3349364905389 4.5
vertex 100.0 0.0 4.5
vertex 71.7677669529664 8.73223304703363 4.5
endloop
endfacet
facet normal 0.0 0.0 1.0
outer loop
vertex 71.7677669529664 8.73223304703363 4.5
vertex 100.0 0.0 4.5
vertex 72.1650635094611 9.25 4.5
endloop
endfacet
facet normal 0.0 0.0 1.0
outer loop
vertex 72.1650635094611 9.25 4.5
vertex 100.0 0.0 4.5
vertex 72.4148145657227 9.8529523872437 4.5
endloop
endfacet
facet normal 0.0 0.0 1.0
outer loop
vertex 72.4148145657227 9.8529523872437 4.5
vertex 100.0 0.0 4.5
vertex 72.5 10.5 4.5
endloop
endfacet
facet normal 0.0 0.0 1.0
outer loop
vertex 72.5 10.5 4.5
vertex 100.0 0.0 4.5
vertex 88.663218652214 8.38741494178068 4.5
endloop
endfacet
facet normal 0.0 0.0 1.0
outer loop
vertex 72.5 10.5 4.5
vertex 88.663218652214 8.38741494178068 4.5
vertex 88.1619911246058 8.80538400397839 4.5
endloop
endfacet
facet normal 0.0 0.0 1.0
outer loop
vertex 72.5 10.5 4.5
vertex 88.1619911246058 8.80538400397839 4.5
vertex 87.7860208644025 9.33883834581962 4.5
endloop
endfacet
facet normal 0.0 0.0 1.0
outer loop
vertex 72.5 10.5 4.5
vertex 87.7860208644025 9.33883834581962 4.5
vertex 87.5609296235166 9.95142393548289 4.5
endloop
endfacet
facet normal 0.0 0.0 1.0
outer loop
vertex 72.5 10.5 4.5
vertex 87.5609296235166 9.95142393548289 4.5
vertex 87.5020569980337 10.6013940773782 4.5
endloop
endfacet
facet normal 0.0 0.0 1.0
outer loop
vertex 88.663218652214 8.38741494178068 4.5
vertex 100.0 0.0 4.5
vertex 89.2555456195382 8.11341506008874 4.5
endloop
endfacet
facet normal 0.0 0.0 1.0
outer loop
vertex 89.2555456195382 8.11341506008874 4.5
vertex 100.0 0.0 4.5
vertex 89.8986059226218 8.00205699803366 4.5
endloop
endfacet
facet normal 0.0 0.0 1.0
outer loop
vertex 89.8986059226218 8.00205699803366 4.5
vertex 100.0 0.0 4.5
vertex 90.5485760645171 8.06092962351659 4.5
endloop
endfacet
facet normal 0.0 0.0 1.0
outer loop
vertex 90.5485760645171 8.06092962351659 4.5
vertex 100.0 0.0 4.5
vertex 91.1611616541804 8.28602086440249 4.5
endloop
endfacet
facet normal 0.0 0.0 1.0
outer loop
vertex 91.1611616541804 8.28602086440249 4.5
vertex 100.0 0.0 4.5
vertex 91.6946159960216 8.66199112460585 4.5
endloop
endfacet
facet normal 0.0 0.0 1.0
outer loop
vertex 91.6946159960216 8.66199112460585 4.5
vertex 100.0 0.0 4.5
vertex 92.1125850582193 9.16321865221403 4.5
endloop
endfacet
facet normal 0.0 0.0 1.0
outer loop
vertex 92.1125850582193 9.16321865221403 4.5
vertex 100.0 0.0 4.5
vertex 92.3865849399113 9.7555456195382 4.5
endloop
endfacet
facet normal 0.0 0.0 1.0
outer loop
vertex 92.3865849399113 9.7555456195382 4.5
vertex 100.0 0.0 4.5
vertex 92.4979430019663 10.3986059226218 4.5
endloop
endfacet
facet normal 0.0 0.0 1.0
outer loop
vertex 0.0 60.0 4.5
vertex 8.04484713734914 69.5285931470404 4.5
vertex 0.0 100.0 4.5
endloop
endfacet
facet normal 0.0 0.0 1.0
outer loop
vertex 8.04484713734914 69.5285931470404 4.5
vertex 0.0 60.0 4.5
vertex 8.25051351401579 68.9092156265446 4.5
endloop
endfacet
facet normal 0.0 0.0 1.0
outer loop
vertex 8.25051351401579 68.9092156265446 4.5
vertex 0.0 60.0 4.5
vertex 8.60947867725008 68.3641732584935 4.5
endloop
endfacet
facet normal 0.0 0.0 1.0
outer loop
vertex 8.60947867725008 68.3641732584935 4.5
vertex 0.0 60.0 4.5
vertex 60.0 0.0 4.5
endloop
endfacet
facet normal 0.0 0.0 1.0
outer loop
vertex 0.0 100.0 4.5
vertex 8.04484713734914 69.5285931470404 4.5
vertex 8.00649537094021 70.1800962655287 4.5
endloop
endfacet
facet normal 0.0 0.0 1.0
outer loop
vertex 0.0 100.0 4.5
vertex 8.00649537094021 70.1800962655287 4.5
vertex 8.0 90.0 4.5
endloop
endfacet
facet normal 0.0 0.0 1.0
outer loop
vertex 8.60947867725008 68.3641732584935 4.5
vertex 60.0 0.0 4.5
vertex 9.09727974439557 67.9306097795445 4.5
endloop
endfacet
facet normal 0.0 0.0 1.0
outer loop
vertex 9.09727974439557 67.9306097795445 4.5
vertex 60.0 0.0 4.5
vertex 9.68067387885568 67.6380718242904 4.5
endloop
endfacet
facet normal 0.0 0.0 1.0
outer loop
vertex 9.68067387885568 67.6380718242904 4.5
vertex 60.0 0.0 4.5
vertex 10.3199037344713 67.5064953709402 4.5
endloop
endfacet
facet normal 0.0 0.0 1.0
outer loop
vertex 10.3199037344713 67.5064953709402 4.5
vertex 60.0 0.0 4.5
vertex 10.9714068529596 67.5448471373491 4.5
endloop
endfacet
facet normal 0.0 0.0 1.0
outer loop
vertex 10.9714068529596 67.5448471373491 4.5
vertex 60.0 0.0 4.5
vertex 11.5907843734554 67.7505135140158 4.5
endloop
endfacet
facet normal 0.0 0.0 1.0
outer loop
vertex 11.5907843734554 67.7505135140158 4.5
vertex 60.0 0.0 4.5
vertex 12.1358267415065 68.1094786772501 4.5
endloop
endfacet
facet normal 0.0 0.0 1.0
outer loop
vertex 12.1358267415065 68.1094786772501 4.5
vertex 60.0 0.0 4.5
vertex 12.5693902204555 68.5972797443956 4.5
endloop
endfacet
facet normal 0.0 0.0 1.0
outer loop
vertex 12.5693902204555 68.5972797443956 4.5
vertex 60.0 0.0 4.5
vertex 12.8619281757095 69.1806738788557 4.5
endloop
endfacet
facet normal 0.0 0.0 1.0
outer loop
vertex 12.8619281757095 69.1806738788557 4.5
vertex 60.0 0.0 4.5
vertex 12.9935046290598 69.8199037344713 4.5
endloop
endfacet
facet normal 0.0 0.0 1.0
outer loop
vertex 12.9935046290598 69.8199037344713 4.5
vertex 60.0 0.0 4.5
vertex 13.0 90.0 4.5
endloop
endfacet
facet normal 0.0 0.0 1.0
outer loop
vertex 13.0 90.0 4.5
vertex 60.0 0.0 4.5
vertex 21.0 100.0 4.5
endloop
endfacet
facet normal 0.0 0.0 1.0
outer loop
vertex 21.0 100.0 4.5
vertex 60.0 0.0 4.5
vertex 67.8349364905389 11.75 4.5
endloop
endfacet
facet normal 0.0 0.0 1.0
outer loop
vertex 21.0 100.0 4.5
vertex 67.8349364905389 11.75 4.5
vertex 68.2322330470336 12.2677669529664 4.5
endloop
endfacet
facet normal 0.0 0.0 1.0
outer loop
vertex 21.0 100.0 4.5
vertex 68.2322330470336 12.2677669529664 4.5
vertex 68.75 12.6650635094611 4.5
endloop
endfacet
facet normal 0.0 0.0 1.0
outer loop
vertex 21.0 100.0 4.5
vertex 68.75 12.6650635094611 4.5
vertex 69.3529523872437 12.9148145657227 4.5
endloop
endfacet
facet normal 0.0 0.0 1.0
outer loop
vertex 21.0 100.0 4.5
vertex 69.3529523872437 12.9148145657227 4.5
vertex 100.0 21.0 4.5
endloop
endfacet
facet normal 0.0 0.0 1.0
outer loop
vertex 67.8349364905389 11.75 4.5
vertex 60.0 0.0 4.5
vertex 67.5851854342773 11.1470476127563 4.5
endloop
endfacet
facet normal 0.0 0.0 1.0
outer loop
vertex 67.5851854342773 11.1470476127563 4.5
vertex 60.0 0.0 4.5
vertex 67.5 10.5 4.5
endloop
endfacet
facet normal 0.0 0.0 1.0
outer loop
vertex 100.0 21.0 4.5
vertex 69.3529523872437 12.9148145657227 4.5
vertex 70.0 13.0 4.5
endloop
endfacet
facet normal 0.0 0.0 1.0
outer loop
vertex 100.0 21.0 4.5
vertex 70.0 13.0 4.5
vertex 70.6470476127563 12.9148145657227 4.5
endloop
endfacet
facet normal 0.0 0.0 1.0
outer loop
vertex 100.0 21.0 4.5
vertex 70.6470476127563 12.9148145657227 4.5
vertex 71.25 12.6650635094611 4.5
endloop
endfacet
facet normal 0.0 0.0 1.0
outer loop
vertex 100.0 21.0 4.5
vertex 71.25 12.6650635094611 4.5
vertex 71.7677669529664 12.2677669529664 4.5
endloop
endfacet
facet normal 0.0 0.0 1.0
outer loop
vertex 100.0 21.0 4.5
vertex 71.7677669529664 12.2677669529664 4.5
vertex 72.1650635094611 11.75 4.5
endloop
endfacet
facet normal 0.0 0.0 1.0
outer loop
vertex 100.0 21.0 4.5
vertex 72.1650635094611 11.75 4.5
vertex 72.4148145657227 11.1470476127563 4.5
endloop
endfacet
facet normal 0.0 0.0 1.0
outer loop
vertex 100.0 21.0 4.5
vertex 72.4148145657227 11.1470476127563 4.5
vertex 72.5 10.5 4.5
endloop
endfacet
facet normal 0.0 0.0 1.0
outer loop
vertex 100.0 21.0 4.5
vertex 72.5 10.5 4.5
vertex 88.3053840039784 12.3380088753942 4.5
endloop
endfacet
facet normal 0.0 0.0 1.0
outer loop
vertex 88.3053840039784 12.3380088753942 4.5
vertex 72.5 10.5 4.5
vertex 87.8874149417807 11.836781347786 4.5
endloop
endfacet
facet normal 0.0 0.0 1.0
outer loop
vertex 87.8874149417807 11.836781347786 4.5
vertex 72.5 10.5 4.5
vertex 87.6134150600887 11.2444543804618 4.5
endloop
endfacet
facet normal 0.0 0.0 1.0
outer loop
vertex 87.6134150600887 11.2444543804618 4.5
vertex 72.5 10.5 4.5
vertex 87.5020569980337 10.6013940773782 4.5
endloop
endfacet
facet normal 0.0 0.0 1.0
outer loop
vertex 100.0 21.0 4.5
vertex 88.3053840039784 12.3380088753942 4.5
vertex 88.8388383458196 12.7139791355975 4.5
endloop
endfacet
facet normal 0.0 0.0 1.0
outer loop
vertex 100.0 21.0 4.5
vertex 88.8388383458196 12.7139791355975 4.5
vertex 89.4514239354829 12.9390703764834 4.5
endloop
endfacet
facet normal 0.0 0.0 1.0
outer loop
vertex 100.0 21.0 4.5
vertex 89.4514239354829 12.9390703764834 4.5
vertex 90.1013940773782 12.9979430019663 4.5
endloop
endfacet
facet normal 0.0 0.0 1.0
outer loop
vertex 100.0 21.0 4.5
vertex 90.1013940773782 12.9979430019663 4.5
vertex 90.7444543804618 12.8865849399113 4.5
endloop
endfacet
facet normal 0.0 0.0 1.0
outer loop
vertex 100.0 21.0 4.5
vertex 90.7444543804618 12.8865849399113 4.5
vertex 91.336781347786 12.6125850582193 4.5
endloop
endfacet
facet normal 0.0 0.0 1.0
outer loop
vertex 100.0 21.0 4.5
vertex 91.336781347786 12.6125850582193 4.5
vertex 91.8380088753942 12.1946159960216 4.5
endloop
endfacet
facet normal 0.0 0.0 1.0
outer loop
vertex 100.0 21.0 4.5
vertex 91.8380088753942 12.1946159960216 4.5
vertex 92.2139791355975 11.6611616541804 4.5
endloop
endfacet
facet normal 0.0 0.0 1.0
outer loop
vertex 100.0 21.0 4.5
vertex 92.2139791355975 11.6611616541804 4.5
vertex 92.4390703764834 11.0485760645171 4.5
endloop
endfacet
facet normal 0.0 0.0 1.0
outer loop
vertex 100.0 21.0 4.5
vertex 92.4390703764834 11.0485760645171 4.5
vertex 92.4979430019663 10.3986059226218 4.5
endloop
endfacet
facet normal 0.0 0.0 1.0
outer loop
vertex 100.0 21.0 4.5
vertex 92.4979430019663 10.3986059226218 4.5
vertex 100.0 0.0 4.5
endloop
endfacet
facet normal 0.0 0.0 1.0
outer loop
vertex 0.0 100.0 4.5
vertex 9.25 92.1650635094611 4.5
vertex 21.0 100.0 4.5
endloop
endfacet
facet normal 0.0 0.0 1.0
outer loop
vertex 9.25 92.1650635094611 4.5
vertex 0.0 100.0 4.5
vertex 8.73223304703363 91.7677669529664 4.5
endloop
endfacet
facet normal 0.0 0.0 1.0
outer loop
vertex 8.73223304703363 91.7677669529664 4.5
vertex 0.0 100.0 4.5
vertex 8.3349364905389 91.25 4.5
endloop
endfacet
facet normal 0.0 0.0 1.0
outer loop
vertex 8.3349364905389 91.25 4.5
vertex 0.0 100.0 4.5
vertex 8.08518543427733 90.6470476127563 4.5
endloop
endfacet
facet normal 0.0 0.0 1.0
outer loop
vertex 8.08518543427733 90.6470476127563 4.5
vertex 0.0 100.0 4.5
vertex 8.0 90.0 4.5
endloop
endfacet
facet normal 0.0 0.0 1.0
outer loop
vertex 21.0 100.0 4.5
vertex 9.25 92.1650635094611 4.5
vertex 9.8529523872437 92.4148145657227 4.5
endloop
endfacet
facet normal 0.0 0.0 1.0
outer loop
vertex 21.0 100.0 4.5
vertex 9.8529523872437 92.4148145657227 4.5
vertex 10.5 92.5 4.5
endloop
endfacet
facet normal 0.0 0.0 1.0
outer loop
vertex 21.0 100.0 4.5
vertex 10.5 92.5 4.5
vertex 11.1470476127563 92.4148145657227 4.5
endloop
endfacet
facet normal 0.0 0.0 1.0
outer loop
vertex 21.0 100.0 4.5
vertex 11.1470476127563 92.4148145657227 4.5
vertex 11.75 92.1650635094611 4.5
endloop
endfacet
facet normal 0.0 0.0 1.0
outer loop
vertex 21.0 100.0 4.5
vertex 11.75 92.1650635094611 4.5
vertex 12.2677669529664 91.7677669529664 4.5
endloop
endfacet
facet normal 0.0 0.0 1.0
outer loop
vertex 21.0 100.0 4.5
vertex 12.2677669529664 91.7677669529664 4.5
vertex 12.6650635094611 91.25 4.5
endloop
endfacet
facet normal 0.0 0.0 1.0
outer loop
vertex 21.0 100.0 4.5
vertex 12.6650635094611 91.25 4.5
vertex 12.9148145657227 90.6470476127563 4.5
endloop
endfacet
facet normal 0.0 0.0 1.0
outer loop
vertex 21.0 100.0 4.5
vertex 12.9148145657227 90.6470476127563 4.5
vertex 13.0 90.0 4.5
endloop
endfacet
facet normal 0.0 0.0 1.0
outer loop
vertex 8.00649537094021 70.1800962655287 4.5
vertex 8.08518543427733 89.3529523872437 4.5
vertex 8.0 90.0 4.5
endloop
endfacet
facet normal 0.0 0.0 1.0
outer loop
vertex 8.08518543427733 89.3529523872437 4.5
vertex 8.00649537094021 70.1800962655287 4.5
vertex 8.13807182429046 70.8193261211443 4.5
endloop
endfacet
facet normal 0.0 0.0 1.0
outer loop
vertex 8.08518543427733 89.3529523872437 4.5
vertex 8.13807182429046 70.8193261211443 4.5
vertex 8.33493649053891 88.75 4.5
endloop
endfacet
facet normal 0.0 0.0 1.0
outer loop
vertex 8.33493649053891 88.75 4.5
vertex 8.13807182429046 70.8193261211443 4.5
vertex 8.43060977954446 71.4027202556044 4.5
endloop
endfacet
facet normal 0.0 0.0 1.0
outer loop
vertex 8.33493649053891 88.75 4.5
vertex 8.43060977954446 71.4027202556044 4.5
vertex 8.73223304703363 88.2322330470336 4.5
endloop
endfacet
facet normal 0.0 0.0 1.0
outer loop
vertex 8.73223304703363 88.2322330470336 4.5
vertex 8.43060977954446 71.4027202556044 4.5
vertex 8.86417325849347 71.8905213227499 4.5
endloop
endfacet
facet normal 0.0 0.0 1.0
outer loop
vertex 8.73223304703363 88.2322330470336 4.5
vertex 8.86417325849347 71.8905213227499 4.5
vertex 9.25 87.8349364905389 4.5
endloop
endfacet
facet normal 0.0 0.0 1.0
outer loop
vertex 9.25 87.8349364905389 4.5
vertex 8.86417325849347 71.8905213227499 4.5
vertex 9.40921562654464 72.2494864859842 4.5
endloop
endfacet
facet normal 0.0 0.0 1.0
outer loop
vertex 9.25 87.8349364905389 4.5
vertex 9.40921562654464 72.2494864859842 4.5
vertex 9.8529523872437 87.5851854342773 4.5
endloop
endfacet
facet normal 0.0 0.0 1.0
outer loop
vertex 9.8529523872437 87.5851854342773 4.5
vertex 9.40921562654464 72.2494864859842 4.5
vertex 10.0285931470404 72.4551528626508 4.5
endloop
endfacet
facet normal 0.0 0.0 1.0
outer loop
vertex 9.8529523872437 87.5851854342773 4.5
vertex 10.0285931470404 72.4551528626508 4.5
vertex 10.5 87.5 4.5
endloop
endfacet
facet normal 0.0 0.0 1.0
outer loop
vertex 10.5 87.5 4.5
vertex 10.0285931470404 72.4551528626508 4.5
vertex 10.6800962655287 72.4935046290598 4.5
endloop
endfacet
facet normal 0.0 0.0 1.0
outer loop
vertex 10.5 87.5 4.5
vertex 10.6800962655287 72.4935046290598 4.5
vertex 11.1470476127563 87.5851854342773 4.5
endloop
endfacet
facet normal 0.0 0.0 1.0
outer loop
vertex 11.1470476127563 87.5851854342773 4.5
vertex 10.6800962655287 72.4935046290598 4.5
vertex 11.3193261211443 72.3619281757095 4.5
endloop
endfacet
facet normal 0.0 0.0 1.0
outer loop
vertex 11.1470476127563 87.5851854342773 4.5
vertex 11.3193261211443 72.3619281757095 4.5
vertex 11.75 87.8349364905389 4.5
endloop
endfacet
facet normal 0.0 0.0 1.0
outer loop
vertex 11.75 87.8349364905389 4.5
vertex 11.3193261211443 72.3619281757095 4.5
vertex 11.9027202556044 72.0693902204555 4.5
endloop
endfacet
facet normal 0.0 0.0 1.0
outer loop
vertex 11.75 87.8349364905389 4.5
vertex 11.9027202556044 72.0693902204555 4.5
vertex 12.2677669529664 88.2322330470336 4.5
endloop
endfacet
facet normal 0.0 0.0 1.0
outer loop
vertex 12.2677669529664 88.2322330470336 4.5
vertex 11.9027202556044 72.0693902204555 4.5
vertex 12.3905213227499 71.6358267415065 4.5
endloop
endfacet
facet normal 0.0 0.0 1.0
outer loop
vertex 12.2677669529664 88.2322330470336 4.5
vertex 12.3905213227499 71.6358267415065 4.5
vertex 12.6650635094611 88.75 4.5
endloop
endfacet
facet normal 0.0 0.0 1.0
outer loop
vertex 12.6650635094611 88.75 4.5
vertex 12.3905213227499 71.6358267415065 4.5
vertex 12.7494864859842 71.0907843734554 4.5
endloop
endfacet
facet normal 0.0 0.0 1.0
outer loop
vertex 12.6650635094611 88.75 4.5
vertex 12.7494864859842 71.0907843734554 4.5
vertex 12.9148145657227 89.3529523872437 4.5
endloop
endfacet
facet normal 0.0 0.0 1.0
outer loop
vertex 12.9148145657227 89.3529523872437 4.5
vertex 12.7494864859842 71.0907843734554 4.5
vertex 12.9551528626509 70.4714068529596 4.5
endloop
endfacet
facet normal 0.0 0.0 1.0
outer loop
vertex 12.9148145657227 89.3529523872437 4.5
vertex 12.9551528626509 70.4714068529596 4.5
vertex 13.0 90.0 4.5
endloop
endfacet
facet normal 0.0 0.0 1.0
outer loop
vertex 13.0 90.0 4.5
vertex 12.9551528626509 70.4714068529596 4.5
vertex 12.9935046290598 69.8199037344713 4.5
endloop
endfacet
facet normal -0.707106781186548 -0.707106781186548 0.0
outer loop
vertex 0.0 60.0 4.5
vertex 60.0 0.0 3.52495810318487e-016
vertex 60.0 0.0 4.5
endloop
endfacet
facet normal -0.707106781186548 -0.707106781186548 0.0
outer loop
vertex 60.0 0.0 3.52495810318487e-016
vertex 0.0 60.0 4.5
vertex 0.0 60.0 3.52495810318487e-016
endloop
endfacet
facet normal 0.0 -1.0 0.0
outer loop
vertex 100.0 0.0 4.5
vertex 60.0 0.0 3.52495810318487e-016
vertex 100.0 0.0 0.0
endloop
endfacet
facet normal 0.0 -1.0 0.0
outer loop
vertex 60.0 0.0 3.52495810318487e-016
vertex 100.0 0.0 4.5
vertex 60.0 0.0 4.5
endloop
endfacet
facet normal -1.25875531410097e-018 -1.25875531410097e-018 -1.0
outer loop
vertex 0.0 100.0 0.0
vertex 8.08518543427733 90.6470476127563 0.0
vertex 0.0 60.0 3.52495810318487e-016
endloop
endfacet
facet normal -1.25875531410097e-018 -1.25875531410097e-018 -1.0
outer loop
vertex 8.08518543427733 90.6470476127563 0.0
vertex 0.0 100.0 0.0
vertex 8.3349364905389 91.25 0.0
endloop
endfacet
facet normal -1.25875531410097e-018 -1.25875531410097e-018 -1.0
outer loop
vertex 8.3349364905389 91.25 0.0
vertex 0.0 100.0 0.0
vertex 8.73223304703363 91.7677669529664 0.0
endloop
endfacet
facet normal -1.25875531410097e-018 -1.25875531410097e-018 -1.0
outer loop
vertex 8.73223304703363 91.7677669529664 0.0
vertex 0.0 100.0 0.0
vertex 9.25 92.1650635094611 0.0
endloop
endfacet
facet normal -1.25875531410097e-018 -1.25875531410097e-018 -1.0
outer loop
vertex 9.25 92.1650635094611 0.0
vertex 0.0 100.0 0.0
vertex 21.0 100.0 0.0
endloop
endfacet
facet normal -1.25875531410097e-018 -1.25875531410097e-018 -1.0
outer loop
vertex 0.0 60.0 3.52495810318487e-016
vertex 8.08518543427733 90.6470476127563 0.0
vertex 8.0 90.0 0.0
endloop
endfacet
facet normal -1.25875531410097e-018 -1.25875531410097e-018 -1.0
outer loop
vertex 9.25 92.1650635094611 0.0
vertex 21.0 100.0 0.0
vertex 9.8529523872437 92.4148145657227 0.0
endloop
endfacet
facet normal -1.25875531410097e-018 -1.25875531410097e-018 -1.0
outer loop
vertex 9.8529523872437 92.4148145657227 0.0
vertex 21.0 100.0 0.0
vertex 10.5 92.5 0.0
endloop
endfacet
facet normal -1.25875531410097e-018 -1.25875531410097e-018 -1.0
outer loop
vertex 10.5 92.5 0.0
vertex 21.0 100.0 0.0
vertex 11.1470476127563 92.4148145657227 0.0
endloop
endfacet
facet normal -1.25875531410097e-018 -1.25875531410097e-018 -1.0
outer loop
vertex 11.1470476127563 92.4148145657227 0.0
vertex 21.0 100.0 0.0
vertex 11.75 92.1650635094611 0.0
endloop
endfacet
facet normal -1.25875531410097e-018 -1.25875531410097e-018 -1.0
outer loop
vertex 11.75 92.1650635094611 0.0
vertex 21.0 100.0 0.0
vertex 12.2677669529664 91.7677669529664 0.0
endloop
endfacet
facet normal -1.25875531410097e-018 -1.25875531410097e-018 -1.0
outer loop
vertex 12.2677669529664 91.7677669529664 0.0
vertex 21.0 100.0 0.0
vertex 12.6650635094611 91.25 0.0
endloop
endfacet
facet normal -1.25875531410097e-018 -1.25875531410097e-018 -1.0
outer loop
vertex 12.6650635094611 91.25 0.0
vertex 21.0 100.0 0.0
vertex 12.9148145657227 90.6470476127563 0.0
endloop
endfacet
facet normal -1.25875531410097e-018 -1.25875531410097e-018 -1.0
outer loop
vertex 12.9148145657227 90.6470476127563 0.0
vertex 21.0 100.0 0.0
vertex 13.0 90.0 0.0
endloop
endfacet
facet normal -1.25875531410097e-018 -1.25875531410097e-018 -1.0
outer loop
vertex 0.0 60.0 3.52495810318487e-016
vertex 8.33493649053891 88.75 0.0
vertex 60.0 0.0 3.52495810318487e-016
endloop
endfacet
facet normal -1.25875531410097e-018 -1.25875531410097e-018 -1.0
outer loop
vertex 8.33493649053891 88.75 0.0
vertex 0.0 60.0 3.52495810318487e-016
vertex 8.08518543427733 89.3529523872437 0.0
endloop
endfacet
facet normal -1.25875531410097e-018 -1.25875531410097e-018 -1.0
outer loop
vertex 8.08518543427733 89.3529523872437 0.0
vertex 0.0 60.0 3.52495810318487e-016
vertex 8.0 90.0 0.0
endloop
endfacet
facet normal -1.25875531410097e-018 -1.25875531410097e-018 -1.0
outer loop
vertex 60.0 0.0 3.52495810318487e-016
vertex 8.33493649053891 88.75 0.0
vertex 8.73223304703363 88.2322330470336 0.0
endloop
endfacet
facet normal -1.25875531410097e-018 -1.25875531410097e-018 -1.0
outer loop
vertex 60.0 0.0 3.52495810318487e-016
vertex 8.73223304703363 88.2322330470336 0.0
vertex 9.25 87.8349364905389 0.0
endloop
endfacet
facet normal -1.25875531410097e-018 -1.25875531410097e-018 -1.0
outer loop
vertex 60.0 0.0 3.52495810318487e-016
vertex 9.25 87.8349364905389 0.0
vertex 9.8529523872437 87.5851854342773 0.0
endloop
endfacet
facet normal -1.25875531410097e-018 -1.25875531410097e-018 -1.0
outer loop
vertex 60.0 0.0 3.52495810318487e-016
vertex 9.8529523872437 87.5851854342773 0.0
vertex 10.5 87.5 0.0
endloop
endfacet
facet normal -1.25875531410097e-018 -1.25875531410097e-018 -1.0
outer loop
vertex 60.0 0.0 3.52495810318487e-016
vertex 10.5 87.5 0.0
vertex 11.1470476127563 87.5851854342773 0.0
endloop
endfacet
facet normal -1.25875531410097e-018 -1.25875531410097e-018 -1.0
outer loop
vertex 60.0 0.0 3.52495810318487e-016
vertex 11.1470476127563 87.5851854342773 0.0
vertex 11.75 87.8349364905389 0.0
endloop
endfacet
facet normal -1.25875531410097e-018 -1.25875531410097e-018 -1.0
outer loop
vertex 60.0 0.0 3.52495810318487e-016
vertex 11.75 87.8349364905389 0.0
vertex 12.2677669529664 88.2322330470336 0.0
endloop
endfacet
facet normal -1.25875531410097e-018 -1.25875531410097e-018 -1.0
outer loop
vertex 60.0 0.0 3.52495810318487e-016
vertex 12.2677669529664 88.2322330470336 0.0
vertex 12.6650635094611 88.75 0.0
endloop
endfacet
facet normal -1.25875531410097e-018 -1.25875531410097e-018 -1.0
outer loop
vertex 60.0 0.0 3.52495810318487e-016
vertex 12.6650635094611 88.75 0.0
vertex 12.9148145657227 89.3529523872437 0.0
endloop
endfacet
facet normal -1.25875531410097e-018 -1.25875531410097e-018 -1.0
outer loop
vertex 60.0 0.0 3.52495810318487e-016
vertex 12.9148145657227 89.3529523872437 0.0
vertex 13.0 90.0 0.0
endloop
endfacet
facet normal -1.25875531410097e-018 -1.25875531410097e-018 -1.0
outer loop
vertex 60.0 0.0 3.52495810318487e-016
vertex 13.0 90.0 0.0
vertex 21.0 100.0 0.0
endloop
endfacet
facet normal -1.25875531410097e-018 -1.25875531410097e-018 -1.0
outer loop
vertex 60.0 0.0 3.52495810318487e-016
vertex 21.0 100.0 0.0
vertex 67.8349364905389 11.75 0.0
endloop
endfacet
facet normal -1.25875531410097e-018 -1.25875531410097e-018 -1.0
outer loop
vertex 67.8349364905389 11.75 0.0
vertex 21.0 100.0 0.0
vertex 68.2322330470336 12.2677669529664 0.0
endloop
endfacet
facet normal -1.25875531410097e-018 -1.25875531410097e-018 -1.0
outer loop
vertex 68.2322330470336 12.2677669529664 0.0
vertex 21.0 100.0 0.0
vertex 68.75 12.6650635094611 0.0
endloop
endfacet
facet normal -1.25875531410097e-018 -1.25875531410097e-018 -1.0
outer loop
vertex 68.75 12.6650635094611 0.0
vertex 21.0 100.0 0.0
vertex 69.3529523872437 12.9148145657227 0.0
endloop
endfacet
facet normal -1.25875531410097e-018 -1.25875531410097e-018 -1.0
outer loop
vertex 69.3529523872437 12.9148145657227 0.0
vertex 21.0 100.0 0.0
vertex 100.0 21.0 0.0
endloop
endfacet
facet normal -1.25875531410097e-018 -1.25875531410097e-018 -1.0
outer loop
vertex 60.0 0.0 3.52495810318487e-016
vertex 67.8349364905389 11.75 0.0
vertex 67.5851854342773 11.1470476127563 0.0
endloop
endfacet
facet normal -1.25875531410097e-018 -1.25875531410097e-018 -1.0
outer loop
vertex 60.0 0.0 3.52495810318487e-016
vertex 67.5851854342773 11.1470476127563 0.0
vertex 67.5 10.5 0.0
endloop
endfacet
facet normal -1.25875531410097e-018 -1.25875531410097e-018 -1.0
outer loop
vertex 69.3529523872437 12.9148145657227 0.0
vertex 100.0 21.0 0.0
vertex 70.0 13.0 0.0
endloop
endfacet
facet normal -1.25875531410097e-018 -1.25875531410097e-018 -1.0
outer loop
vertex 70.0 13.0 0.0
vertex 100.0 21.0 0.0
vertex 70.6470476127563 12.9148145657227 0.0
endloop
endfacet
facet normal -1.25875531410097e-018 -1.25875531410097e-018 -1.0
outer loop
vertex 70.6470476127563 12.9148145657227 0.0
vertex 100.0 21.0 0.0
vertex 71.25 12.6650635094611 0.0
endloop
endfacet
facet normal -1.25875531410097e-018 -1.25875531410097e-018 -1.0
outer loop
vertex 71.25 12.6650635094611 0.0
vertex 100.0 21.0 0.0
vertex 71.7677669529664 12.2677669529664 0.0
endloop
endfacet
facet normal -1.25875531410097e-018 -1.25875531410097e-018 -1.0
outer loop
vertex 71.7677669529664 12.2677669529664 0.0
vertex 100.0 21.0 0.0
vertex 72.1650635094611 11.75 0.0
endloop
endfacet
facet normal -1.25875531410097e-018 -1.25875531410097e-018 -1.0
outer loop
vertex 72.1650635094611 11.75 0.0
vertex 100.0 21.0 0.0
vertex 72.4148145657227 11.1470476127563 0.0
endloop
endfacet
facet normal -1.25875531410097e-018 -1.25875531410097e-018 -1.0
outer loop
vertex 72.4148145657227 11.1470476127563 0.0
vertex 100.0 21.0 0.0
vertex 72.5 10.5 0.0
endloop
endfacet
facet normal -1.25875531410097e-018 -1.25875531410097e-018 -1.0
outer loop
vertex 72.5 10.5 0.0
vertex 100.0 21.0 0.0
vertex 88.3053840039784 12.3380088753942 0.0
endloop
endfacet
facet normal -1.25875531410097e-018 -1.25875531410097e-018 -1.0
outer loop
vertex 72.5 10.5 0.0
vertex 88.3053840039784 12.3380088753942 0.0
vertex 87.8874149417807 11.836781347786 0.0
endloop
endfacet
facet normal -1.25875531410097e-018 -1.25875531410097e-018 -1.0
outer loop
vertex 72.5 10.5 0.0
vertex 87.8874149417807 11.836781347786 0.0
vertex 87.6134150600887 11.2444543804618 0.0
endloop
endfacet
facet normal -1.25875531410097e-018 -1.25875531410097e-018 -1.0
outer loop
vertex 72.5 10.5 0.0
vertex 87.6134150600887 11.2444543804618 0.0
vertex 87.5020569980337 10.6013940773782 0.0
endloop
endfacet
facet normal -1.25875531410097e-018 -1.25875531410097e-018 -1.0
outer loop
vertex 88.3053840039784 12.3380088753942 0.0
vertex 100.0 21.0 0.0
vertex 88.8388383458196 12.7139791355975 0.0
endloop
endfacet
facet normal -1.25875531410097e-018 -1.25875531410097e-018 -1.0
outer loop
vertex 88.8388383458196 12.7139791355975 0.0
vertex 100.0 21.0 0.0
vertex 89.4514239354829 12.9390703764834 0.0
endloop
endfacet
facet normal -1.25875531410097e-018 -1.25875531410097e-018 -1.0
outer loop
vertex 89.4514239354829 12.9390703764834 0.0
vertex 100.0 21.0 0.0
vertex 90.1013940773782 12.9979430019663 0.0
endloop
endfacet
facet normal -1.25875531410097e-018 -1.25875531410097e-018 -1.0
outer loop
vertex 90.1013940773782 12.9979430019663 0.0
vertex 100.0 21.0 0.0
vertex 90.7444543804618 12.8865849399113 0.0
endloop
endfacet
facet normal -1.25875531410097e-018 -1.25875531410097e-018 -1.0
outer loop
vertex 90.7444543804618 12.8865849399113 0.0
vertex 100.0 21.0 0.0
vertex 91.336781347786 12.6125850582193 0.0
endloop
endfacet
facet normal -1.25875531410097e-018 -1.25875531410097e-018 -1.0
outer loop
vertex 91.336781347786 12.6125850582193 0.0
vertex 100.0 21.0 0.0
vertex 91.8380088753942 12.1946159960216 0.0
endloop
endfacet
facet normal -1.25875531410097e-018 -1.25875531410097e-018 -1.0
outer loop
vertex 91.8380088753942 12.1946159960216 0.0
vertex 100.0 21.0 0.0
vertex 92.2139791355975 11.6611616541804 0.0
endloop
endfacet
facet normal -1.25875531410097e-018 -1.25875531410097e-018 -1.0
outer loop
vertex 92.2139791355975 11.6611616541804 0.0
vertex 100.0 21.0 0.0
vertex 92.4390703764834 11.0485760645171 0.0
endloop
endfacet
facet normal -1.25875531410097e-018 -1.25875531410097e-018 -1.0
outer loop
vertex 92.4390703764834 11.0485760645171 0.0
vertex 100.0 21.0 0.0
vertex 92.4979430019663 10.3986059226218 0.0
endloop
endfacet
facet normal -1.25875531410097e-018 -1.25875531410097e-018 -1.0
outer loop
vertex 60.0 0.0 3.52495810318487e-016
vertex 69.3529523872437 8.08518543427733 0.0
vertex 100.0 0.0 0.0
endloop
endfacet
facet normal -1.25875531410097e-018 -1.25875531410097e-018 -1.0
outer loop
vertex 69.3529523872437 8.08518543427733 0.0
vertex 60.0 0.0 3.52495810318487e-016
vertex 68.75 8.3349364905389 0.0
endloop
endfacet
facet normal -1.25875531410097e-018 -1.25875531410097e-018 -1.0
outer loop
vertex 68.75 8.3349364905389 0.0
vertex 60.0 0.0 3.52495810318487e-016
vertex 68.2322330470336 8.73223304703363 0.0
endloop
endfacet
facet normal -1.25875531410097e-018 -1.25875531410097e-018 -1.0
outer loop
vertex 68.2322330470336 8.73223304703363 0.0
vertex 60.0 0.0 3.52495810318487e-016
vertex 67.8349364905389 9.25 0.0
endloop
endfacet
facet normal -1.25875531410097e-018 -1.25875531410097e-018 -1.0
outer loop
vertex 67.8349364905389 9.25 0.0
vertex 60.0 0.0 3.52495810318487e-016
vertex 67.5851854342773 9.8529523872437 0.0
endloop
endfacet
facet normal -1.25875531410097e-018 -1.25875531410097e-018 -1.0
outer loop
vertex 67.5851854342773 9.8529523872437 0.0
vertex 60.0 0.0 3.52495810318487e-016
vertex 67.5 10.5 0.0
endloop
endfacet
facet normal -1.25875531410097e-018 -1.25875531410097e-018 -1.0
outer loop
vertex 100.0 0.0 0.0
vertex 69.3529523872437 8.08518543427733 0.0
vertex 70.0 8.0 0.0
endloop
endfacet
facet normal -1.25875531410097e-018 -1.25875531410097e-018 -1.0
outer loop
vertex 100.0 0.0 0.0
vertex 70.0 8.0 0.0
vertex 70.6470476127563 8.08518543427733 0.0
endloop
endfacet
facet normal -1.25875531410097e-018 -1.25875531410097e-018 -1.0
outer loop
vertex 100.0 0.0 0.0
vertex 70.6470476127563 8.08518543427733 0.0
vertex 71.25 8.3349364905389 0.0
endloop
endfacet
facet normal -1.25875531410097e-018 -1.25875531410097e-018 -1.0
outer loop
vertex 100.0 0.0 0.0
vertex 71.25 8.3349364905389 0.0
vertex 71.7677669529664 8.73223304703363 0.0
endloop
endfacet
facet normal -1.25875531410097e-018 -1.25875531410097e-018 -1.0
outer loop
vertex 100.0 0.0 0.0
vertex 71.7677669529664 8.73223304703363 0.0
vertex 72.1650635094611 9.25 0.0
endloop
endfacet
facet normal -1.25875531410097e-018 -1.25875531410097e-018 -1.0
outer loop
vertex 100.0 0.0 0.0
vertex 72.1650635094611 9.25 0.0
vertex 72.4148145657227 9.8529523872437 0.0
endloop
endfacet
facet normal -1.25875531410097e-018 -1.25875531410097e-018 -1.0
outer loop
vertex 100.0 0.0 0.0
vertex 72.4148145657227 9.8529523872437 0.0
vertex 72.5 10.5 0.0
endloop
endfacet
facet normal -1.25875531410097e-018 -1.25875531410097e-018 -1.0
outer loop
vertex 100.0 0.0 0.0
vertex 72.5 10.5 0.0
vertex 88.663218652214 8.38741494178068 0.0
endloop
endfacet
facet normal -1.25875531410097e-018 -1.25875531410097e-018 -1.0
outer loop
vertex 88.663218652214 8.38741494178068 0.0
vertex 72.5 10.5 0.0
vertex 88.1619911246058 8.80538400397839 0.0
endloop
endfacet
facet normal -1.25875531410097e-018 -1.25875531410097e-018 -1.0
outer loop
vertex 88.1619911246058 8.80538400397839 0.0
vertex 72.5 10.5 0.0
vertex 87.7860208644025 9.33883834581962 0.0
endloop
endfacet
facet normal -1.25875531410097e-018 -1.25875531410097e-018 -1.0
outer loop
vertex 87.7860208644025 9.33883834581962 0.0
vertex 72.5 10.5 0.0
vertex 87.5609296235166 9.95142393548289 0.0
endloop
endfacet
facet normal -1.25875531410097e-018 -1.25875531410097e-018 -1.0
outer loop
vertex 87.5609296235166 9.95142393548289 0.0
vertex 72.5 10.5 0.0
vertex 87.5020569980337 10.6013940773782 0.0
endloop
endfacet
facet normal -1.25875531410097e-018 -1.25875531410097e-018 -1.0
outer loop
vertex 100.0 0.0 0.0
vertex 88.663218652214 8.38741494178068 0.0
vertex 89.2555456195382 8.11341506008874 0.0
endloop
endfacet
facet normal -1.25875531410097e-018 -1.25875531410097e-018 -1.0
outer loop
vertex 100.0 0.0 0.0
vertex 89.2555456195382 8.11341506008874 0.0
vertex 89.8986059226218 8.00205699803366 0.0
endloop
endfacet
facet normal -1.25875531410097e-018 -1.25875531410097e-018 -1.0
outer loop
vertex 100.0 0.0 0.0
vertex 89.8986059226218 8.00205699803366 0.0
vertex 90.5485760645171 8.06092962351659 0.0
endloop
endfacet
facet normal -1.25875531410097e-018 -1.25875531410097e-018 -1.0
outer loop
vertex 100.0 0.0 0.0
vertex 90.5485760645171 8.06092962351659 0.0
vertex 91.1611616541804 8.28602086440249 0.0
endloop
endfacet
facet normal -1.25875531410097e-018 -1.25875531410097e-018 -1.0
outer loop
vertex 100.0 0.0 0.0
vertex 91.1611616541804 8.28602086440249 0.0
vertex 91.6946159960216 8.66199112460585 0.0
endloop
endfacet
facet normal -1.25875531410097e-018 -1.25875531410097e-018 -1.0
outer loop
vertex 100.0 0.0 0.0
vertex 91.6946159960216 8.66199112460585 0.0
vertex 92.1125850582193 9.16321865221403 0.0
endloop
endfacet
facet normal -1.25875531410097e-018 -1.25875531410097e-018 -1.0
outer loop
vertex 100.0 0.0 0.0
vertex 92.1125850582193 9.16321865221403 0.0
vertex 92.3865849399113 9.7555456195382 0.0
endloop
endfacet
facet normal -1.25875531410097e-018 -1.25875531410097e-018 -1.0
outer loop
vertex 100.0 0.0 0.0
vertex 92.3865849399113 9.7555456195382 0.0
vertex 92.4979430019663 10.3986059226218 0.0
endloop
endfacet
facet normal -1.25875531410097e-018 -1.25875531410097e-018 -1.0
outer loop
vertex 100.0 0.0 0.0
vertex 92.4979430019663 10.3986059226218 0.0
vertex 100.0 21.0 0.0
endloop
endfacet
facet normal 0.965925826289068 -0.258819045102521 0.0
outer loop
vertex 8.08518543427733 90.6470476127563 0.0
vertex 8.0 90.0 4.5
vertex 8.0 90.0 0.0
endloop
endfacet
facet normal 1.0 0.0 0.0
outer loop
vertex 8.0 90.0 4.5
vertex 8.08518543427733 90.6470476127563 0.0
vertex 8.08518543427733 90.6470476127563 4.5
endloop
endfacet
facet normal 1.0 0.0 0.0
outer loop
vertex 8.0 90.0 0.0
vertex 8.08518543427733 89.3529523872437 4.5
vertex 8.08518543427733 89.3529523872437 0.0
endloop
endfacet
facet normal 0.965925826289068 0.258819045102522 0.0
outer loop
vertex 8.08518543427733 89.3529523872437 4.5
vertex 8.0 90.0 0.0
vertex 8.0 90.0 4.5
endloop
endfacet
facet normal 0.258819045102522 -0.965925826289068 0.0
outer loop
vertex 69.3529523872437 12.9148145657227 4.5
vertex 68.75 12.6650635094611 0.0
vertex 69.3529523872437 12.9148145657227 0.0
endloop
endfacet
facet normal 0.499999999999998 -0.86602540378444 0.0
outer loop
vertex 68.75 12.6650635094611 0.0
vertex 69.3529523872437 12.9148145657227 4.5
vertex 68.75 12.6650635094611 4.5
endloop
endfacet
facet normal 0.965925826289067 -0.258819045102527 0.0
outer loop
vertex 67.5851854342773 11.1470476127563 0.0
vertex 67.5 10.5 4.5
vertex 67.5 10.5 0.0
endloop
endfacet
facet normal 1.0 -2.76244406765054e-016 0.0
outer loop
vertex 67.5 10.5 4.5
vertex 67.5851854342773 11.1470476127563 0.0
vertex 67.5851854342773 11.1470476127563 4.5
endloop
endfacet
facet normal 0.499999999999997 0.86602540378444 0.0
outer loop
vertex 68.75 8.3349364905389 4.5
vertex 69.3529523872437 8.08518543427733 0.0
vertex 68.75 8.3349364905389 0.0
endloop
endfacet
facet normal 0.258819045102521 0.965925826289068 0.0
outer loop
vertex 69.3529523872437 8.08518543427733 0.0
vertex 68.75 8.3349364905389 4.5
vertex 69.3529523872437 8.08518543427733 4.5
endloop
endfacet
facet normal 0.258819045102521 0.965925826289068 0.0
outer loop
vertex 69.3529523872437 8.08518543427733 4.5
vertex 70.0 8.0 0.0
vertex 69.3529523872437 8.08518543427733 0.0
endloop
endfacet
facet normal 0.0 1.0 0.0
outer loop
vertex 70.0 8.0 0.0
vertex 69.3529523872437 8.08518543427733 4.5
vertex 70.0 8.0 4.5
endloop
endfacet
facet normal -0.219430425806843 0.975628150593364 0.0
outer loop
vertex 90.5485760645171 8.06092962351659 4.5
vertex 91.1611616541804 8.28602086440249 0.0
vertex 90.5485760645171 8.06092962351659 0.0
endloop
endfacet
facet normal -0.46446466167215 0.885591654239004 0.0
outer loop
vertex 91.1611616541804 8.28602086440249 0.0
vertex 90.5485760645171 8.06092962351659 4.5
vertex 91.1611616541804 8.28602086440249 4.5
endloop
endfacet
facet normal -0.46446466167215 0.885591654239004 0.0
outer loop
vertex 91.1611616541804 8.28602086440249 4.5
vertex 91.6946159960216 8.66199112460585 0.0
vertex 91.1611616541804 8.28602086440249 0.0
endloop
endfacet
facet normal -0.677846398408647 0.735203550157659 0.0
outer loop
vertex 91.6946159960216 8.66199112460585 0.0
vertex 91.1611616541804 8.28602086440249 4.5
vertex 91.6946159960216 8.66199112460585 4.5
endloop
endfacet
facet normal 0.677846398408647 -0.735203550157659 0.0
outer loop
vertex 88.3053840039784 12.3380088753942 0.0
vertex 87.8874149417807 11.836781347786 4.5
vertex 87.8874149417807 11.836781347786 0.0
endloop
endfacet
facet normal 0.845034023287729 -0.534712539114386 0.0
outer loop
vertex 87.8874149417807 11.836781347786 4.5
vertex 88.3053840039784 12.3380088753942 0.0
vertex 88.3053840039784 12.3380088753942 4.5
endloop
endfacet
facet normal -0.999177200786537 0.0405576309512782 0.0
outer loop
vertex 92.4979430019663 10.3986059226218 4.5
vertex 92.3865849399113 9.7555456195382 0.0
vertex 92.3865849399113 9.7555456195382 4.5
endloop
endfacet
facet normal -0.954633975964504 0.297781752184721 0.0
outer loop
vertex 92.3865849399113 9.7555456195382 0.0
vertex 92.4979430019663 10.3986059226218 4.5
vertex 92.4979430019663 10.3986059226218 0.0
endloop
endfacet
facet normal 0.219430425806843 -0.975628150593364 0.0
outer loop
vertex 89.4514239354829 12.9390703764834 4.5
vertex 88.8388383458196 12.7139791355975 0.0
vertex 89.4514239354829 12.9390703764834 0.0
endloop
endfacet
facet normal 0.46446466167215 -0.885591654239004 0.0
outer loop
vertex 88.8388383458196 12.7139791355975 0.0
vertex 89.4514239354829 12.9390703764834 4.5
vertex 88.8388383458196 12.7139791355975 4.5
endloop
endfacet
facet normal -0.707106781186548 -0.707106781186547 0.0
outer loop
vertex 71.7677669529664 12.2677669529664 4.5
vertex 72.1650635094611 11.75 0.0
vertex 72.1650635094611 11.75 4.5
endloop
endfacet
facet normal -0.866025403784439 -0.5 0.0
outer loop
vertex 72.1650635094611 11.75 0.0
vertex 71.7677669529664 12.2677669529664 4.5
vertex 71.7677669529664 12.2677669529664 0.0
endloop
endfacet
facet normal -0.707106781186548 -0.707106781186547 0.0
outer loop
vertex 71.7677669529664 12.2677669529664 4.5
vertex 71.25 12.6650635094611 0.0
vertex 71.7677669529664 12.2677669529664 0.0
endloop
endfacet
facet normal -0.499999999999997 -0.86602540378444 0.0
outer loop
vertex 71.25 12.6650635094611 0.0
vertex 71.7677669529664 12.2677669529664 4.5
vertex 71.25 12.6650635094611 4.5
endloop
endfacet
facet normal -0.954633975964504 0.297781752184721 0.0
outer loop
vertex 92.3865849399113 9.7555456195382 4.5
vertex 92.1125850582193 9.16321865221403 0.0
vertex 92.1125850582193 9.16321865221403 4.5
endloop
endfacet
facet normal -0.845034023287729 0.534712539114386 0.0
outer loop
vertex 92.1125850582193 9.16321865221403 0.0
vertex 92.3865849399113 9.7555456195382 4.5
vertex 92.3865849399113 9.7555456195382 0.0
endloop
endfacet
facet normal 0.29778175218472 0.954633975964504 0.0
outer loop
vertex 89.2555456195382 8.11341506008874 4.5
vertex 89.8986059226218 8.00205699803366 0.0
vertex 89.2555456195382 8.11341506008874 0.0
endloop
endfacet
facet normal 0.0405576309512741 0.999177200786537 0.0
outer loop
vertex 89.8986059226218 8.00205699803366 0.0
vertex 89.2555456195382 8.11341506008874 4.5
vertex 89.8986059226218 8.00205699803366 4.5
endloop
endfacet
facet normal 0.46446466167215 -0.885591654239004 0.0
outer loop
vertex 88.8388383458196 12.7139791355975 4.5
vertex 88.3053840039784 12.3380088753942 0.0
vertex 88.8388383458196 12.7139791355975 0.0
endloop
endfacet
facet normal 0.677846398408647 -0.735203550157659 0.0
outer loop
vertex 88.3053840039784 12.3380088753942 0.0
vertex 88.8388383458196 12.7139791355975 4.5
vertex 88.3053840039784 12.3380088753942 4.5
endloop
endfacet
facet normal 0.845034023287729 -0.534712539114386 0.0
outer loop
vertex 87.8874149417807 11.836781347786 0.0
vertex 87.6134150600887 11.2444543804618 4.5
vertex 87.6134150600887 11.2444543804618 0.0
endloop
endfacet
facet normal 0.954633975964504 -0.297781752184721 0.0
outer loop
vertex 87.6134150600887 11.2444543804618 4.5
vertex 87.8874149417807 11.836781347786 0.0
vertex 87.8874149417807 11.836781347786 4.5
endloop
endfacet
facet normal 0.975628150593364 0.219430425806844 0.0
outer loop
vertex 87.5609296235166 9.95142393548289 0.0
vertex 87.7860208644025 9.33883834581962 4.5
vertex 87.7860208644025 9.33883834581962 0.0
endloop
endfacet
facet normal 0.885591654239002 0.464464661672153 0.0
outer loop
vertex 87.7860208644025 9.33883834581962 4.5
vertex 87.5609296235166 9.95142393548289 0.0
vertex 87.5609296235166 9.95142393548289 4.5
endloop
endfacet
facet normal 0.999177200786537 -0.0405576309512781 0.0
outer loop
vertex 87.5020569980337 10.6013940773782 0.0
vertex 87.5609296235166 9.95142393548289 4.5
vertex 87.5609296235166 9.95142393548289 0.0
endloop
endfacet
facet normal 0.975628150593364 0.219430425806844 0.0
outer loop
vertex 87.5609296235166 9.95142393548289 4.5
vertex 87.5020569980337 10.6013940773782 0.0
vertex 87.5020569980337 10.6013940773782 4.5
endloop
endfacet
facet normal 0.954633975964504 -0.297781752184721 0.0
outer loop
vertex 87.6134150600887 11.2444543804618 0.0
vertex 87.5020569980337 10.6013940773782 4.5
vertex 87.5020569980337 10.6013940773782 0.0
endloop
endfacet
facet normal 0.999177200786537 -0.0405576309512781 0.0
outer loop
vertex 87.5020569980337 10.6013940773782 4.5
vertex 87.6134150600887 11.2444543804618 0.0
vertex 87.6134150600887 11.2444543804618 4.5
endloop
endfacet
facet normal -0.188562741183848 0.982061145060344 0.0
outer loop
vertex 10.9714068529596 67.5448471373491 4.5
vertex 11.5907843734554 67.7505135140158 -0.0999999999999991
vertex 10.9714068529596 67.5448471373491 -0.0999999999999991
endloop
endfacet
facet normal -0.436313749382142 0.899794594393686 0.0
outer loop
vertex 11.5907843734554 67.7505135140158 -0.0999999999999991
vertex 10.9714068529596 67.5448471373491 4.5
vertex 11.5907843734554 67.7505135140158 4.5
endloop
endfacet
facet normal -0.827756088182219 0.56108810224177 0.0
outer loop
vertex 12.5693902204555 68.5972797443956 4.5
vertex 12.1358267415065 68.1094786772501 -0.0999999999999991
vertex 12.1358267415065 68.1094786772501 4.5
endloop
endfacet
facet normal -0.654330696602613 0.75620852909997 0.0
outer loop
vertex 12.1358267415065 68.1094786772501 -0.0999999999999991
vertex 12.5693902204555 68.5972797443956 4.5
vertex 12.5693902204555 68.5972797443956 -0.0999999999999991
endloop
endfacet
facet normal -0.982061145060344 -0.188562741183848 0.0
outer loop
vertex 12.9551528626509 70.4714068529596 4.5
vertex 12.9935046290598 69.8199037344713 -0.0999999999999991
vertex 12.9935046290598 69.8199037344713 4.5
endloop
endfacet
facet normal -0.997401851623918 0.072038506211467 0.0
outer loop
vertex 12.9935046290598 69.8199037344713 -0.0999999999999991
vertex 12.9551528626509 70.4714068529596 4.5
vertex 12.9551528626509 70.4714068529596 -0.0999999999999991
endloop
endfacet
facet normal -0.899794594393683 -0.436313749382148 0.0
outer loop
vertex 12.7494864859842 71.0907843734554 4.5
vertex 12.9551528626509 70.4714068529596 -0.0999999999999991
vertex 12.9551528626509 70.4714068529596 4.5
endloop
endfacet
facet normal -0.982061145060344 -0.188562741183848 0.0
outer loop
vertex 12.9551528626509 70.4714068529596 -0.0999999999999991
vertex 12.7494864859842 71.0907843734554 4.5
vertex 12.7494864859842 71.0907843734554 -0.0999999999999991
endloop
endfacet
facet normal 0.327730448457727 0.944771270283817 0.0
outer loop
vertex 9.68067387885568 67.6380718242904 4.5
vertex 10.3199037344713 67.5064953709402 -0.0999999999999991
vertex 9.68067387885568 67.6380718242904 -0.0999999999999991
endloop
endfacet
facet normal 0.0720385062114612 0.997401851623918 0.0
outer loop
vertex 10.3199037344713 67.5064953709402 -0.0999999999999991
vertex 9.68067387885568 67.6380718242904 4.5
vertex 10.3199037344713 67.5064953709402 4.5
endloop
endfacet
facet normal 0.0720385062114612 0.997401851623918 0.0
outer loop
vertex 10.3199037344713 67.5064953709402 4.5
vertex 10.9714068529596 67.5448471373491 -0.0999999999999991
vertex 10.3199037344713 67.5064953709402 -0.0999999999999991
endloop
endfacet
facet normal -0.188562741183848 0.982061145060344 0.0
outer loop
vertex 10.9714068529596 67.5448471373491 -0.0999999999999991
vertex 10.3199037344713 67.5064953709402 4.5
vertex 10.9714068529596 67.5448471373491 4.5
endloop
endfacet
facet normal 0.86602540378444 0.499999999999998 0.0
outer loop
vertex 8.33493649053891 88.75 0.0
vertex 8.73223304703363 88.2322330470336 4.5
vertex 8.73223304703363 88.2322330470336 0.0
endloop
endfacet
facet normal 0.707106781186547 0.707106781186548 0.0
outer loop
vertex 8.73223304703363 88.2322330470336 4.5
vertex 8.33493649053891 88.75 0.0
vertex 8.33493649053891 88.75 4.5
endloop
endfacet
facet normal -0.975628150593364 -0.219430425806844 0.0
outer loop
vertex 92.4390703764834 11.0485760645171 4.5
vertex 92.4979430019663 10.3986059226218 0.0
vertex 92.4979430019663 10.3986059226218 4.5
endloop
endfacet
facet normal -0.999177200786537 0.0405576309512782 0.0
outer loop
vertex 92.4979430019663 10.3986059226218 0.0
vertex 92.4390703764834 11.0485760645171 4.5
vertex 92.4390703764834 11.0485760645171 0.0
endloop
endfacet
facet normal -0.885591654239002 -0.464464661672153 0.0
outer loop
vertex 92.2139791355975 11.6611616541804 4.5
vertex 92.4390703764834 11.0485760645171 0.0
vertex 92.4390703764834 11.0485760645171 4.5
endloop
endfacet
facet normal -0.975628150593364 -0.219430425806844 0.0
outer loop
vertex 92.4390703764834 11.0485760645171 0.0
vertex 92.2139791355975 11.6611616541804 4.5
vertex 92.2139791355975 11.6611616541804 0.0
endloop
endfacet
facet normal -0.73520355015766 -0.677846398408647 0.0
outer loop
vertex 91.8380088753942 12.1946159960216 4.5
vertex 92.2139791355975 11.6611616541804 0.0
vertex 92.2139791355975 11.6611616541804 4.5
endloop
endfacet
facet normal -0.885591654239002 -0.464464661672153 0.0
outer loop
vertex 92.2139791355975 11.6611616541804 0.0
vertex 91.8380088753942 12.1946159960216 4.5
vertex 91.8380088753942 12.1946159960216 0.0
endloop
endfacet
facet normal -0.944771270283816 0.32773044845773 0.0
outer loop
vertex 12.8619281757095 69.1806738788557 4.5
vertex 12.5693902204555 68.5972797443956 -0.0999999999999991
vertex 12.5693902204555 68.5972797443956 4.5
endloop
endfacet
facet normal -0.827756088182219 0.56108810224177 0.0
outer loop
vertex 12.5693902204555 68.5972797443956 -0.0999999999999991
vertex 12.8619281757095 69.1806738788557 4.5
vertex 12.8619281757095 69.1806738788557 -0.0999999999999991
endloop
endfacet
facet normal -0.436313749382142 0.899794594393686 0.0
outer loop
vertex 11.5907843734554 67.7505135140158 4.5
vertex 12.1358267415065 68.1094786772501 -0.0999999999999991
vertex 11.5907843734554 67.7505135140158 -0.0999999999999991
endloop
endfacet
facet normal -0.654330696602613 0.75620852909997 0.0
outer loop
vertex 12.1358267415065 68.1094786772501 -0.0999999999999991
vertex 11.5907843734554 67.7505135140158 4.5
vertex 12.1358267415065 68.1094786772501 4.5
endloop
endfacet
facet normal 0.965925826289068 0.258819045102522 0.0
outer loop
vertex 8.08518543427733 89.3529523872437 0.0
vertex 8.33493649053891 88.75 4.5
vertex 8.33493649053891 88.75 0.0
endloop
endfacet
facet normal 0.86602540378444 0.499999999999998 0.0
outer loop
vertex 8.33493649053891 88.75 4.5
vertex 8.08518543427733 89.3529523872437 0.0
vertex 8.08518543427733 89.3529523872437 4.5
endloop
endfacet
facet normal -0.756208529099969 -0.654330696602613 0.0
outer loop
vertex 12.3905213227499 71.6358267415065 4.5
vertex 12.7494864859842 71.0907843734554 -0.0999999999999991
vertex 12.7494864859842 71.0907843734554 4.5
endloop
endfacet
facet normal -0.899794594393683 -0.436313749382148 0.0
outer loop
vertex 12.7494864859842 71.0907843734554 -0.0999999999999991
vertex 12.3905213227499 71.6358267415065 4.5
vertex 12.3905213227499 71.6358267415065 -0.0999999999999991
endloop
endfacet
facet normal -0.756208529099969 -0.654330696602613 0.0
outer loop
vertex 12.3905213227499 71.6358267415065 4.5
vertex 11.9027202556044 72.0693902204555 -0.0999999999999991
vertex 12.3905213227499 71.6358267415065 -0.0999999999999991
endloop
endfacet
facet normal -0.561088102241776 -0.827756088182215 0.0
outer loop
vertex 11.9027202556044 72.0693902204555 -0.0999999999999991
vertex 12.3905213227499 71.6358267415065 4.5
vertex 11.9027202556044 72.0693902204555 4.5
endloop
endfacet
facet normal -0.86602540378444 -0.499999999999998 0.0
outer loop
vertex 12.6650635094611 91.25 4.5
vertex 12.9148145657227 90.6470476127563 0.0
vertex 12.9148145657227 90.6470476127563 4.5
endloop
endfacet
facet normal -0.965925826289068 -0.258819045102522 0.0
outer loop
vertex 12.9148145657227 90.6470476127563 0.0
vertex 12.6650635094611 91.25 4.5
vertex 12.6650635094611 91.25 0.0
endloop
endfacet
facet normal -0.707106781186548 -0.707106781186548 0.0
outer loop
vertex 12.2677669529664 91.7677669529664 4.5
vertex 11.75 92.1650635094611 0.0
vertex 12.2677669529664 91.7677669529664 0.0
endloop
endfacet
facet normal -0.5 -0.866025403784439 0.0
outer loop
vertex 11.75 92.1650635094611 0.0
vertex 12.2677669529664 91.7677669529664 4.5
vertex 11.75 92.1650635094611 4.5
endloop
endfacet
facet normal -0.965925826289068 -0.258819045102522 0.0
outer loop
vertex 12.9148145657227 90.6470476127563 4.5
vertex 13.0 90.0 0.0
vertex 13.0 90.0 4.5
endloop
endfacet
facet normal -1.0 0.0 0.0
outer loop
vertex 13.0 90.0 0.0
vertex 12.9148145657227 90.6470476127563 4.5
vertex 12.9148145657227 90.6470476127563 0.0
endloop
endfacet
facet normal -0.86602540378444 0.499999999999997 0.0
outer loop
vertex 12.6650635094611 88.75 4.5
vertex 12.2677669529664 88.2322330470336 0.0
vertex 12.2677669529664 88.2322330470336 4.5
endloop
endfacet
facet normal -0.707106781186548 0.707106781186548 0.0
outer loop
vertex 12.2677669529664 88.2322330470336 0.0
vertex 12.6650635094611 88.75 4.5
vertex 12.6650635094611 88.75 0.0
endloop
endfacet
facet normal 0.707106781186548 -0.707106781186548 0.0
outer loop
vertex 8.73223304703363 91.7677669529664 0.0
vertex 8.3349364905389 91.25 4.5
vertex 8.3349364905389 91.25 0.0
endloop
endfacet
facet normal 0.86602540378444 -0.499999999999997 0.0
outer loop
vertex 8.3349364905389 91.25 4.5
vertex 8.73223304703363 91.7677669529664 0.0
vertex 8.73223304703363 91.7677669529664 4.5
endloop
endfacet
facet normal 0.258819045102518 -0.965925826289069 0.0
outer loop
vertex 9.8529523872437 92.4148145657227 4.5
vertex 9.25 92.1650635094611 0.0
vertex 9.8529523872437 92.4148145657227 0.0
endloop
endfacet
facet normal 0.5 -0.866025403784439 0.0
outer loop
vertex 9.25 92.1650635094611 0.0
vertex 9.8529523872437 92.4148145657227 4.5
vertex 9.25 92.1650635094611 4.5
endloop
endfacet
facet normal 0.258819045102519 0.965925826289069 0.0
outer loop
vertex 9.8529523872437 87.5851854342773 4.5
vertex 10.5 87.5 0.0
vertex 9.8529523872437 87.5851854342773 0.0
endloop
endfacet
facet normal 4.27733274991051e-016 1.0 0.0
outer loop
vertex 10.5 87.5 0.0
vertex 9.8529523872437 87.5851854342773 4.5
vertex 10.5 87.5 4.5
endloop
endfacet
facet normal -0.707106781186548 -0.707106781186548 0.0
outer loop
vertex 12.2677669529664 91.7677669529664 4.5
vertex 12.6650635094611 91.25 0.0
vertex 12.6650635094611 91.25 4.5
endloop
endfacet
facet normal -0.86602540378444 -0.499999999999998 0.0
outer loop
vertex 12.6650635094611 91.25 0.0
vertex 12.2677669529664 91.7677669529664 4.5
vertex 12.2677669529664 91.7677669529664 0.0
endloop
endfacet
facet normal 0.707106781186547 0.707106781186548 0.0
outer loop
vertex 8.73223304703363 88.2322330470336 4.5
vertex 9.25 87.8349364905389 0.0
vertex 8.73223304703363 88.2322330470336 0.0
endloop
endfacet
facet normal 0.5 0.866025403784439 0.0
outer loop
vertex 9.25 87.8349364905389 0.0
vertex 8.73223304703363 88.2322330470336 4.5
vertex 9.25 87.8349364905389 4.5
endloop
endfacet
facet normal -0.500000000000001 0.866025403784438 0.0
outer loop
vertex 11.75 87.8349364905389 4.5
vertex 12.2677669529664 88.2322330470336 0.0
vertex 11.75 87.8349364905389 0.0
endloop
endfacet
facet normal -0.707106781186548 0.707106781186548 0.0
outer loop
vertex 12.2677669529664 88.2322330470336 0.0
vertex 11.75 87.8349364905389 4.5
vertex 12.2677669529664 88.2322330470336 4.5
endloop
endfacet
facet normal -0.258819045102518 -0.965925826289069 0.0
outer loop
vertex 11.1470476127563 92.4148145657227 4.5
vertex 10.5 92.5 0.0
vertex 11.1470476127563 92.4148145657227 0.0
endloop
endfacet
facet normal -1.33666648434703e-016 -1.0 0.0
outer loop
vertex 10.5 92.5 0.0
vertex 11.1470476127563 92.4148145657227 4.5
vertex 10.5 92.5 4.5
endloop
endfacet
facet normal 4.27733274991051e-016 1.0 0.0
outer loop
vertex 10.5 87.5 4.5
vertex 11.1470476127563 87.5851854342773 0.0
vertex 10.5 87.5 0.0
endloop
endfacet
facet normal -0.258819045102518 0.965925826289069 0.0
outer loop
vertex 11.1470476127563 87.5851854342773 0.0
vertex 10.5 87.5 4.5
vertex 11.1470476127563 87.5851854342773 4.5
endloop
endfacet
facet normal -0.258819045102518 0.965925826289069 0.0
outer loop
vertex 11.1470476127563 87.5851854342773 4.5
vertex 11.75 87.8349364905389 0.0
vertex 11.1470476127563 87.5851854342773 0.0
endloop
endfacet
facet normal -0.500000000000001 0.866025403784438 0.0
outer loop
vertex 11.75 87.8349364905389 0.0
vertex 11.1470476127563 87.5851854342773 4.5
vertex 11.75 87.8349364905389 4.5
endloop
endfacet
facet normal -0.5 -0.866025403784439 0.0
outer loop
vertex 11.75 92.1650635094611 4.5
vertex 11.1470476127563 92.4148145657227 0.0
vertex 11.75 92.1650635094611 0.0
endloop
endfacet
facet normal -0.258819045102518 -0.965925826289069 0.0
outer loop
vertex 11.1470476127563 92.4148145657227 0.0
vertex 11.75 92.1650635094611 4.5
vertex 11.1470476127563 92.4148145657227 4.5
endloop
endfacet
facet normal 0.5 -0.866025403784439 0.0
outer loop
vertex 9.25 92.1650635094611 4.5
vertex 8.73223304703363 91.7677669529664 0.0
vertex 9.25 92.1650635094611 0.0
endloop
endfacet
facet normal 0.707106781186548 -0.707106781186548 0.0
outer loop
vertex 8.73223304703363 91.7677669529664 0.0
vertex 9.25 92.1650635094611 4.5
vertex 8.73223304703363 91.7677669529664 4.5
endloop
endfacet
facet normal 0.86602540378444 -0.499999999999997 0.0
outer loop
vertex 8.3349364905389 91.25 0.0
vertex 8.08518543427733 90.6470476127563 4.5
vertex 8.08518543427733 90.6470476127563 0.0
endloop
endfacet
facet normal 0.965925826289068 -0.258819045102521 0.0
outer loop
vertex 8.08518543427733 90.6470476127563 4.5
vertex 8.3349364905389 91.25 0.0
vertex 8.3349364905389 91.25 4.5
endloop
endfacet
facet normal -1.33666648434703e-016 -1.0 0.0
outer loop
vertex 10.5 92.5 4.5
vertex 9.8529523872437 92.4148145657227 0.0
vertex 10.5 92.5 0.0
endloop
endfacet
facet normal 0.258819045102518 -0.965925826289069 0.0
outer loop
vertex 9.8529523872437 92.4148145657227 0.0
vertex 10.5 92.5 4.5
vertex 9.8529523872437 92.4148145657227 4.5
endloop
endfacet
facet normal 0.5 0.866025403784439 0.0
outer loop
vertex 9.25 87.8349364905389 4.5
vertex 9.8529523872437 87.5851854342773 0.0
vertex 9.25 87.8349364905389 0.0
endloop
endfacet
facet normal 0.258819045102519 0.965925826289069 0.0
outer loop
vertex 9.8529523872437 87.5851854342773 0.0
vertex 9.25 87.8349364905389 4.5
vertex 9.8529523872437 87.5851854342773 4.5
endloop
endfacet
facet normal -0.327730448457727 -0.944771270283817 0.0
outer loop
vertex 11.3193261211443 72.3619281757095 4.5
vertex 10.6800962655287 72.4935046290598 -0.0999999999999991
vertex 11.3193261211443 72.3619281757095 -0.0999999999999991
endloop
endfacet
facet normal -0.0720385062114614 -0.997401851623918 0.0
outer loop
vertex 10.6800962655287 72.4935046290598 -0.0999999999999991
vertex 11.3193261211443 72.3619281757095 4.5
vertex 10.6800962655287 72.4935046290598 4.5
endloop
endfacet
facet normal -0.997401851623918 0.072038506211467 0.0
outer loop
vertex 12.9935046290598 69.8199037344713 4.5
vertex 12.8619281757095 69.1806738788557 -0.0999999999999991
vertex 12.8619281757095 69.1806738788557 4.5
endloop
endfacet
facet normal -0.944771270283816 0.32773044845773 0.0
outer loop
vertex 12.8619281757095 69.1806738788557 -0.0999999999999991
vertex 12.9935046290598 69.8199037344713 4.5
vertex 12.9935046290598 69.8199037344713 -0.0999999999999991
endloop
endfacet
facet normal 0.944771270283816 -0.32773044845773 0.0
outer loop
vertex 8.13807182429046 70.8193261211443 -0.0999999999999991
vertex 8.00649537094021 70.1800962655287 4.5
vertex 8.00649537094021 70.1800962655287 -0.0999999999999991
endloop
endfacet
facet normal 0.997401851623918 -0.072038506211467 0.0
outer loop
vertex 8.00649537094021 70.1800962655287 4.5
vertex 8.13807182429046 70.8193261211443 -0.0999999999999991
vertex 8.13807182429046 70.8193261211443 4.5
endloop
endfacet
facet normal 0.827756088182219 -0.56108810224177 0.0
outer loop
vertex 8.43060977954446 71.4027202556044 -0.0999999999999991
vertex 8.13807182429046 70.8193261211443 4.5
vertex 8.13807182429046 70.8193261211443 -0.0999999999999991
endloop
endfacet
facet normal 0.944771270283816 -0.32773044845773 0.0
outer loop
vertex 8.13807182429046 70.8193261211443 4.5
vertex 8.43060977954446 71.4027202556044 -0.0999999999999991
vertex 8.43060977954446 71.4027202556044 4.5
endloop
endfacet
facet normal 0.654330696602613 -0.75620852909997 0.0
outer loop
vertex 8.86417325849347 71.8905213227499 -0.0999999999999991
vertex 8.43060977954446 71.4027202556044 4.5
vertex 8.43060977954446 71.4027202556044 -0.0999999999999991
endloop
endfacet
facet normal 0.827756088182219 -0.56108810224177 0.0
outer loop
vertex 8.43060977954446 71.4027202556044 4.5
vertex 8.86417325849347 71.8905213227499 -0.0999999999999991
vertex 8.86417325849347 71.8905213227499 4.5
endloop
endfacet
facet normal -0.561088102241776 -0.827756088182215 0.0
outer loop
vertex 11.9027202556044 72.0693902204555 4.5
vertex 11.3193261211443 72.3619281757095 -0.0999999999999991
vertex 11.9027202556044 72.0693902204555 -0.0999999999999991
endloop
endfacet
facet normal -0.327730448457727 -0.944771270283817 0.0
outer loop
vertex 11.3193261211443 72.3619281757095 -0.0999999999999991
vertex 11.9027202556044 72.0693902204555 4.5
vertex 11.3193261211443 72.3619281757095 4.5
endloop
endfacet
facet normal -0.0720385062114614 -0.997401851623918 0.0
outer loop
vertex 10.6800962655287 72.4935046290598 4.5
vertex 10.0285931470404 72.4551528626508 -0.0999999999999991
vertex 10.6800962655287 72.4935046290598 -0.0999999999999991
endloop
endfacet
facet normal 0.188562741183848 -0.982061145060344 0.0
outer loop
vertex 10.0285931470404 72.4551528626508 -0.0999999999999991
vertex 10.6800962655287 72.4935046290598 4.5
vertex 10.0285931470404 72.4551528626508 4.5
endloop
endfacet
facet normal 0.756208529099968 0.654330696602614 0.0
outer loop
vertex 8.60947867725008 68.3641732584935 4.5
vertex 9.09727974439557 67.9306097795445 -0.0999999999999991
vertex 8.60947867725008 68.3641732584935 -0.0999999999999991
endloop
endfacet
facet normal 0.561088102241777 0.827756088182214 0.0
outer loop
vertex 9.09727974439557 67.9306097795445 -0.0999999999999991
vertex 8.60947867725008 68.3641732584935 4.5
vertex 9.09727974439557 67.9306097795445 4.5
endloop
endfacet
facet normal 0.188562741183848 -0.982061145060344 0.0
outer loop
vertex 10.0285931470404 72.4551528626508 4.5
vertex 9.40921562654464 72.2494864859842 -0.0999999999999991
vertex 10.0285931470404 72.4551528626508 -0.0999999999999991
endloop
endfacet
facet normal 0.436313749382142 -0.899794594393686 0.0
outer loop
vertex 9.40921562654464 72.2494864859842 -0.0999999999999991
vertex 10.0285931470404 72.4551528626508 4.5
vertex 9.40921562654464 72.2494864859842 4.5
endloop
endfacet
facet normal 0.436313749382142 -0.899794594393686 0.0
outer loop
vertex 9.40921562654464 72.2494864859842 4.5
vertex 8.86417325849347 71.8905213227499 -0.0999999999999991
vertex 9.40921562654464 72.2494864859842 -0.0999999999999991
endloop
endfacet
facet normal 0.654330696602613 -0.75620852909997 0.0
outer loop
vertex 8.86417325849347 71.8905213227499 -0.0999999999999991
vertex 9.40921562654464 72.2494864859842 4.5
vertex 8.86417325849347 71.8905213227499 4.5
endloop
endfacet
facet normal 0.899794594393683 0.436313749382149 0.0
outer loop
vertex 8.25051351401579 68.9092156265446 -0.0999999999999991
vertex 8.60947867725008 68.3641732584935 4.5
vertex 8.60947867725008 68.3641732584935 -0.0999999999999991
endloop
endfacet
facet normal 0.756208529099968 0.654330696602614 0.0
outer loop
vertex 8.60947867725008 68.3641732584935 4.5
vertex 8.25051351401579 68.9092156265446 -0.0999999999999991
vertex 8.25051351401579 68.9092156265446 4.5
endloop
endfacet
facet normal 0.997401851623918 -0.072038506211467 0.0
outer loop
vertex 8.00649537094021 70.1800962655287 -0.0999999999999991
vertex 8.04484713734914 69.5285931470404 4.5
vertex 8.04484713734914 69.5285931470404 -0.0999999999999991
endloop
endfacet
facet normal 0.982061145060344 0.188562741183847 0.0
outer loop
vertex 8.04484713734914 69.5285931470404 4.5
vertex 8.00649537094021 70.1800962655287 -0.0999999999999991
vertex 8.00649537094021 70.1800962655287 4.5
endloop
endfacet
facet normal 0.982061145060344 0.188562741183847 0.0
outer loop
vertex 8.04484713734914 69.5285931470404 -0.0999999999999991
vertex 8.25051351401579 68.9092156265446 4.5
vertex 8.25051351401579 68.9092156265446 -0.0999999999999991
endloop
endfacet
facet normal 0.899794594393683 0.436313749382149 0.0
outer loop
vertex 8.25051351401579 68.9092156265446 4.5
vertex 8.04484713734914 69.5285931470404 -0.0999999999999991
vertex 8.04484713734914 69.5285931470404 4.5
endloop
endfacet
facet normal 0.0 0.0 1.0
outer loop
vertex 8.04484713734914 69.5285931470404 -0.0999999999999991
vertex 8.13807182429046 70.8193261211443 -0.0999999999999991
vertex 8.00649537094021 70.1800962655287 -0.0999999999999991
endloop
endfacet
facet normal 0.0 0.0 1.0
outer loop
vertex 8.13807182429046 70.8193261211443 -0.0999999999999991
vertex 8.04484713734914 69.5285931470404 -0.0999999999999991
vertex 8.25051351401579 68.9092156265446 -0.0999999999999991
endloop
endfacet
facet normal 0.0 0.0 1.0
outer loop
vertex 8.13807182429046 70.8193261211443 -0.0999999999999991
vertex 8.25051351401579 68.9092156265446 -0.0999999999999991
vertex 8.43060977954446 71.4027202556044 -0.0999999999999991
endloop
endfacet
facet normal 0.0 0.0 1.0
outer loop
vertex 8.43060977954446 71.4027202556044 -0.0999999999999991
vertex 8.25051351401579 68.9092156265446 -0.0999999999999991
vertex 8.60947867725008 68.3641732584935 -0.0999999999999991
endloop
endfacet
facet normal 0.0 0.0 1.0
outer loop
vertex 8.43060977954446 71.4027202556044 -0.0999999999999991
vertex 8.60947867725008 68.3641732584935 -0.0999999999999991
vertex 8.86417325849347 71.8905213227499 -0.0999999999999991
endloop
endfacet
facet normal 0.0 0.0 1.0
outer loop
vertex 8.86417325849347 71.8905213227499 -0.0999999999999991
vertex 8.60947867725008 68.3641732584935 -0.0999999999999991
vertex 9.09727974439557 67.9306097795445 -0.0999999999999991
endloop
endfacet
facet normal 0.0 0.0 1.0
outer loop
vertex 8.86417325849347 71.8905213227499 -0.0999999999999991
vertex 9.09727974439557 67.9306097795445 -0.0999999999999991
vertex 9.40921562654464 72.2494864859842 -0.0999999999999991
endloop
endfacet
facet normal 0.0 0.0 1.0
outer loop
vertex 9.40921562654464 72.2494864859842 -0.0999999999999991
vertex 9.09727974439557 67.9306097795445 -0.0999999999999991
vertex 9.68067387885568 67.6380718242904 -0.0999999999999991
endloop
endfacet
facet normal 0.0 0.0 1.0
outer loop
vertex 9.40921562654464 72.2494864859842 -0.0999999999999991
vertex 9.68067387885568 67.6380718242904 -0.0999999999999991
vertex 10.0285931470404 72.4551528626508 -0.0999999999999991
endloop
endfacet
facet normal 0.0 0.0 1.0
outer loop
vertex 10.0285931470404 72.4551528626508 -0.0999999999999991
vertex 9.68067387885568 67.6380718242904 -0.0999999999999991
vertex 10.3199037344713 67.5064953709402 -0.0999999999999991
endloop
endfacet
facet normal 0.0 0.0 1.0
outer loop
vertex 10.0285931470404 72.4551528626508 -0.0999999999999991
vertex 10.3199037344713 67.5064953709402 -0.0999999999999991
vertex 10.6800962655287 72.4935046290598 -0.0999999999999991
endloop
endfacet
facet normal 0.0 0.0 1.0
outer loop
vertex 10.6800962655287 72.4935046290598 -0.0999999999999991
vertex 10.3199037344713 67.5064953709402 -0.0999999999999991
vertex 10.9714068529596 67.5448471373491 -0.0999999999999991
endloop
endfacet
facet normal 0.0 0.0 1.0
outer loop
vertex 10.6800962655287 72.4935046290598 -0.0999999999999991
vertex 10.9714068529596 67.5448471373491 -0.0999999999999991
vertex 11.3193261211443 72.3619281757095 -0.0999999999999991
endloop
endfacet
facet normal 0.0 0.0 1.0
outer loop
vertex 11.3193261211443 72.3619281757095 -0.0999999999999991
vertex 10.9714068529596 67.5448471373491 -0.0999999999999991
vertex 11.5907843734554 67.7505135140158 -0.0999999999999991
endloop
endfacet
facet normal 0.0 0.0 1.0
outer loop
vertex 11.3193261211443 72.3619281757095 -0.0999999999999991
vertex 11.5907843734554 67.7505135140158 -0.0999999999999991
vertex 11.9027202556044 72.0693902204555 -0.0999999999999991
endloop
endfacet
facet normal 0.0 0.0 1.0
outer loop
vertex 11.9027202556044 72.0693902204555 -0.0999999999999991
vertex 11.5907843734554 67.7505135140158 -0.0999999999999991
vertex 12.1358267415065 68.1094786772501 -0.0999999999999991
endloop
endfacet
facet normal 0.0 0.0 1.0
outer loop
vertex 11.9027202556044 72.0693902204555 -0.0999999999999991
vertex 12.1358267415065 68.1094786772501 -0.0999999999999991
vertex 12.3905213227499 71.6358267415065 -0.0999999999999991
endloop
endfacet
facet normal 0.0 0.0 1.0
outer loop
vertex 12.3905213227499 71.6358267415065 -0.0999999999999991
vertex 12.1358267415065 68.1094786772501 -0.0999999999999991
vertex 12.5693902204555 68.5972797443956 -0.0999999999999991
endloop
endfacet
facet normal 0.0 0.0 1.0
outer loop
vertex 12.3905213227499 71.6358267415065 -0.0999999999999991
vertex 12.5693902204555 68.5972797443956 -0.0999999999999991
vertex 12.7494864859842 71.0907843734554 -0.0999999999999991
endloop
endfacet
facet normal 0.0 0.0 1.0
outer loop
vertex 12.7494864859842 71.0907843734554 -0.0999999999999991
vertex 12.5693902204555 68.5972797443956 -0.0999999999999991
vertex 12.8619281757095 69.1806738788557 -0.0999999999999991
endloop
endfacet
facet normal 0.0 0.0 1.0
outer loop
vertex 12.7494864859842 71.0907843734554 -0.0999999999999991
vertex 12.8619281757095 69.1806738788557 -0.0999999999999991
vertex 12.9551528626509 70.4714068529596 -0.0999999999999991
endloop
endfacet
facet normal 0.0 0.0 1.0
outer loop
vertex 12.9551528626509 70.4714068529596 -0.0999999999999991
vertex 12.8619281757095 69.1806738788557 -0.0999999999999991
vertex 12.9935046290598 69.8199037344713 -0.0999999999999991
endloop
endfacet
facet normal 0.561088102241777 0.827756088182214 0.0
outer loop
vertex 9.09727974439557 67.9306097795445 4.5
vertex 9.68067387885568 67.6380718242904 -0.0999999999999991
vertex 9.09727974439557 67.9306097795445 -0.0999999999999991
endloop
endfacet
facet normal 0.327730448457727 0.944771270283817 0.0
outer loop
vertex 9.68067387885568 67.6380718242904 -0.0999999999999991
vertex 9.09727974439557 67.9306097795445 4.5
vertex 9.68067387885568 67.6380718242904 4.5
endloop
endfacet
facet normal -0.965925826289068 0.258819045102521 0.0
outer loop
vertex 12.9148145657227 89.3529523872437 4.5
vertex 12.6650635094611 88.75 0.0
vertex 12.6650635094611 88.75 4.5
endloop
endfacet
facet normal -0.86602540378444 0.499999999999997 0.0
outer loop
vertex 12.6650635094611 88.75 0.0
vertex 12.9148145657227 89.3529523872437 4.5
vertex 12.9148145657227 89.3529523872437 0.0
endloop
endfacet
facet normal -1.0 0.0 0.0
outer loop
vertex 13.0 90.0 4.5
vertex 12.9148145657227 89.3529523872437 0.0
vertex 12.9148145657227 89.3529523872437 4.5
endloop
endfacet
facet normal -0.965925826289068 0.258819045102521 0.0
outer loop
vertex 12.9148145657227 89.3529523872437 0.0
vertex 13.0 90.0 4.5
vertex 13.0 90.0 0.0
endloop
endfacet
endsolid DougMax side
