solid PulleyV6
facet normal -0.25881904510252 0.965925826289069 0.0
outer loop
vertex -5.97871994186821 45.4128865872775 3.0
vertex 1.69197988952874e-014 46.2 0.0
vertex -5.97871994186821 45.4128865872775 0.0
endloop
endfacet
facet normal 9.98044308312453e-016 1.0 0.0
outer loop
vertex 1.69197988952874e-014 46.2 0.0
vertex -5.97871994186821 45.4128865872775 3.0
vertex 1.69197988952874e-014 46.2 3.0
endloop
endfacet
facet normal -0.965925826289068 -0.258819045102521 0.0
outer loop
vertex -13.6195541506759 19.4506514640545 12.0
vertex -12.2109581933606 16.05 3.0
vertex -12.2109581933606 16.05 12.0
endloop
endfacet
facet normal -0.866025403784439 -0.5 0.0
outer loop
vertex -12.2109581933606 16.05 3.0
vertex -13.6195541506759 19.4506514640545 12.0
vertex -13.6195541506759 19.4506514640545 3.0
endloop
endfacet
facet normal -0.965925826289069 -0.25881904510252 0.0
outer loop
vertex -22.3128865872775 17.1212800581318 3.0
vertex -20.0051868274205 11.55 0.0
vertex -20.0051868274205 11.55 3.0
endloop
endfacet
facet normal -0.866025403784439 -0.5 0.0
outer loop
vertex -20.0051868274205 11.55 0.0
vertex -22.3128865872775 17.1212800581318 3.0
vertex -22.3128865872775 17.1212800581318 0.0
endloop
endfacet
facet normal 0.25881904510252 -0.965925826289069 0.0
outer loop
vertex -2.87289140063798 33.8217766718087 12.0
vertex -5.55 32.7128819820073 0.0
vertex -2.87289140063798 33.8217766718087 0.0
endloop
endfacet
facet normal 0.5 -0.866025403784439 0.0
outer loop
vertex -5.55 32.7128819820073 0.0
vertex -2.87289140063798 33.8217766718087 12.0
vertex -5.55 32.7128819820073 12.0
endloop
endfacet
facet normal -0.5 0.866025403784439 0.0
outer loop
vertex -7.05000000000001 35.3109581933606 12.0
vertex -3.64934853594554 36.7195541506759 3.0
vertex -7.05000000000001 35.3109581933606 3.0
endloop
endfacet
facet normal -0.25881904510252 0.965925826289069 0.0
outer loop
vertex -3.64934853594554 36.7195541506759 3.0
vertex -7.05000000000001 35.3109581933606 12.0
vertex -3.64934853594554 36.7195541506759 12.0
endloop
endfacet
facet normal -0.5 0.866025403784439 0.0
outer loop
vertex -11.55 43.1051868274205 3.0
vertex -5.97871994186821 45.4128865872775 0.0
vertex -11.55 43.1051868274205 0.0
endloop
endfacet
facet normal -0.25881904510252 0.965925826289069 0.0
outer loop
vertex -5.97871994186821 45.4128865872775 0.0
vertex -11.55 43.1051868274205 3.0
vertex -5.97871994186821 45.4128865872775 3.0
endloop
endfacet
facet normal -0.965925826289068 0.258819045102521 0.0
outer loop
vertex 10.7217766718087 20.227108599362 12.0
vertex 9.61288198200727 17.55 0.0
vertex 9.61288198200727 17.55 12.0
endloop
endfacet
facet normal -0.866025403784439 0.5 0.0
outer loop
vertex 9.61288198200727 17.55 0.0
vertex 10.7217766718087 20.227108599362 12.0
vertex 10.7217766718087 20.227108599362 0.0
endloop
endfacet
facet normal 0.965925826289068 -0.258819045102521 0.0
outer loop
vertex 13.6195541506759 19.4506514640545 3.0
vertex 12.2109581933606 16.05 12.0
vertex 12.2109581933606 16.05 3.0
endloop
endfacet
facet normal 0.866025403784439 -0.5 0.0
outer loop
vertex 12.2109581933606 16.05 12.0
vertex 13.6195541506759 19.4506514640545 3.0
vertex 13.6195541506759 19.4506514640545 12.0
endloop
endfacet
facet normal -1.0 1.69311088017291e-016 0.0
outer loop
vertex 11.1 23.1 12.0
vertex 10.7217766718087 20.227108599362 0.0
vertex 10.7217766718087 20.227108599362 12.0
endloop
endfacet
facet normal -0.965925826289068 0.258819045102521 0.0
outer loop
vertex 10.7217766718087 20.227108599362 0.0
vertex 11.1 23.1 12.0
vertex 11.1 23.1 0.0
endloop
endfacet
facet normal 1.0 -3.29711066138935e-016 0.0
outer loop
vertex 14.1 23.1 3.0
vertex 13.6195541506759 19.4506514640545 12.0
vertex 13.6195541506759 19.4506514640545 3.0
endloop
endfacet
facet normal 0.965925826289068 -0.258819045102521 0.0
outer loop
vertex 13.6195541506759 19.4506514640545 12.0
vertex 14.1 23.1 3.0
vertex 14.1 23.1 12.0
endloop
endfacet
facet normal 0.707106781186548 0.707106781186547 0.0
outer loop
vertex 9.97020561473033 33.0702056147303 3.0
vertex 12.2109581933606 30.15 12.0
vertex 12.2109581933606 30.15 3.0
endloop
endfacet
facet normal 0.866025403784439 0.499999999999999 0.0
outer loop
vertex 12.2109581933606 30.15 12.0
vertex 9.97020561473033 33.0702056147303 3.0
vertex 9.97020561473033 33.0702056147303 12.0
endloop
endfacet
facet normal 1.0 0.0 0.0
outer loop
vertex 23.1 23.1 0.0
vertex 22.3128865872775 17.1212800581318 3.0
vertex 22.3128865872775 17.1212800581318 0.0
endloop
endfacet
facet normal 0.965925826289068 -0.258819045102521 0.0
outer loop
vertex 22.3128865872775 17.1212800581318 3.0
vertex 23.1 23.1 0.0
vertex 23.1 23.1 3.0
endloop
endfacet
facet normal -0.965925826289068 -0.258819045102521 0.0
outer loop
vertex 10.7217766718087 25.972891400638 12.0
vertex 11.1 23.1 0.0
vertex 11.1 23.1 12.0
endloop
endfacet
facet normal -1.0 1.69311088017291e-016 0.0
outer loop
vertex 11.1 23.1 0.0
vertex 10.7217766718087 25.972891400638 12.0
vertex 10.7217766718087 25.972891400638 0.0
endloop
endfacet
facet normal 0.965925826289068 0.25881904510252 0.0
outer loop
vertex 13.6195541506759 26.7493485359455 3.0
vertex 14.1 23.1 12.0
vertex 14.1 23.1 3.0
endloop
endfacet
facet normal 1.0 -3.29711066138935e-016 0.0
outer loop
vertex 14.1 23.1 12.0
vertex 13.6195541506759 26.7493485359455 3.0
vertex 13.6195541506759 26.7493485359455 12.0
endloop
endfacet
facet normal 0.0 0.0 -1.0
outer loop
vertex -11.55 43.1051868274205 0.0
vertex -10.7217766718087 25.972891400638 0.0
vertex -11.1 23.1 0.0
endloop
endfacet
facet normal 0.0 0.0 -1.0
outer loop
vertex -10.7217766718087 25.972891400638 0.0
vertex -11.55 43.1051868274205 0.0
vertex -5.97871994186821 45.4128865872775 0.0
endloop
endfacet
facet normal 0.0 0.0 -1.0
outer loop
vertex -10.7217766718087 25.972891400638 0.0
vertex -5.97871994186821 45.4128865872775 0.0
vertex -9.61288198200726 28.65 0.0
endloop
endfacet
facet normal 0.0 0.0 -1.0
outer loop
vertex -9.61288198200726 28.65 0.0
vertex -5.97871994186821 45.4128865872775 0.0
vertex -7.84888527117067 30.9488852711707 0.0
endloop
endfacet
facet normal 0.0 0.0 -1.0
outer loop
vertex -7.84888527117067 30.9488852711707 0.0
vertex -5.97871994186821 45.4128865872775 0.0
vertex -5.55 32.7128819820073 0.0
endloop
endfacet
facet normal 0.0 0.0 -1.0
outer loop
vertex -5.55 32.7128819820073 0.0
vertex -5.97871994186821 45.4128865872775 0.0
vertex 1.69197988952874e-014 46.2 0.0
endloop
endfacet
facet normal 0.0 0.0 -1.0
outer loop
vertex -5.55 32.7128819820073 0.0
vertex 1.69197988952874e-014 46.2 0.0
vertex -2.87289140063798 33.8217766718087 0.0
endloop
endfacet
facet normal 0.0 0.0 -1.0
outer loop
vertex -2.87289140063798 33.8217766718087 0.0
vertex 1.69197988952874e-014 46.2 0.0
vertex 0.0 34.2 0.0
endloop
endfacet
facet normal 0.0 0.0 -1.0
outer loop
vertex 0.0 34.2 0.0
vertex 1.69197988952874e-014 46.2 0.0
vertex 2.87289140063798 33.8217766718087 0.0
endloop
endfacet
facet normal 0.0 0.0 -1.0
outer loop
vertex 2.87289140063798 33.8217766718087 0.0
vertex 1.69197988952874e-014 46.2 0.0
vertex 5.97871994186823 45.4128865872775 0.0
endloop
endfacet
facet normal 0.0 0.0 -1.0
outer loop
vertex 2.87289140063798 33.8217766718087 0.0
vertex 5.97871994186823 45.4128865872775 0.0
vertex 5.55 32.7128819820073 0.0
endloop
endfacet
facet normal 0.0 0.0 -1.0
outer loop
vertex 5.55 32.7128819820073 0.0
vertex 5.97871994186823 45.4128865872775 0.0
vertex 7.84888527117068 30.9488852711707 0.0
endloop
endfacet
facet normal 0.0 0.0 -1.0
outer loop
vertex 7.84888527117068 30.9488852711707 0.0
vertex 5.97871994186823 45.4128865872775 0.0
vertex 11.55 43.1051868274205 0.0
endloop
endfacet
facet normal 0.0 0.0 -1.0
outer loop
vertex 7.84888527117068 30.9488852711707 0.0
vertex 11.55 43.1051868274205 0.0
vertex 9.61288198200727 28.65 0.0
endloop
endfacet
facet normal 0.0 0.0 -1.0
outer loop
vertex 9.61288198200727 28.65 0.0
vertex 11.55 43.1051868274205 0.0
vertex 10.7217766718087 25.972891400638 0.0
endloop
endfacet
facet normal 0.0 0.0 -1.0
outer loop
vertex 10.7217766718087 25.972891400638 0.0
vertex 11.55 43.1051868274205 0.0
vertex 11.1 23.1 0.0
endloop
endfacet
facet normal 0.0 0.0 -1.0
outer loop
vertex 11.1 23.1 0.0
vertex 11.55 43.1051868274205 0.0
vertex 11.55 3.09481317257947 0.0
endloop
endfacet
facet normal 0.0 0.0 -1.0
outer loop
vertex 11.55 3.09481317257947 0.0
vertex 11.55 43.1051868274205 0.0
vertex 16.3341666454092 6.76583335459074 0.0
endloop
endfacet
facet normal 0.0 0.0 -1.0
outer loop
vertex 16.3341666454092 6.76583335459074 0.0
vertex 11.55 43.1051868274205 0.0
vertex 16.3341666454092 39.4341666454092 0.0
endloop
endfacet
facet normal 0.0 0.0 -1.0
outer loop
vertex 16.3341666454092 6.76583335459074 0.0
vertex 16.3341666454092 39.4341666454092 0.0
vertex 20.0051868274205 11.55 0.0
endloop
endfacet
facet normal 0.0 0.0 -1.0
outer loop
vertex 20.0051868274205 11.55 0.0
vertex 16.3341666454092 39.4341666454092 0.0
vertex 20.0051868274205 34.65 0.0
endloop
endfacet
facet normal 0.0 0.0 -1.0
outer loop
vertex 20.0051868274205 11.55 0.0
vertex 20.0051868274205 34.65 0.0
vertex 22.3128865872775 29.0787199418682 0.0
endloop
endfacet
facet normal 0.0 0.0 -1.0
outer loop
vertex 20.0051868274205 11.55 0.0
vertex 22.3128865872775 29.0787199418682 0.0
vertex 22.3128865872775 17.1212800581318 0.0
endloop
endfacet
facet normal 0.0 0.0 -1.0
outer loop
vertex 22.3128865872775 17.1212800581318 0.0
vertex 22.3128865872775 29.0787199418682 0.0
vertex 23.1 23.1 0.0
endloop
endfacet
facet normal 0.0 0.0 -1.0
outer loop
vertex -22.3128865872775 29.0787199418682 0.0
vertex -22.3128865872775 17.1212800581318 0.0
vertex -23.1 23.1 0.0
endloop
endfacet
facet normal 0.0 0.0 -1.0
outer loop
vertex -22.3128865872775 17.1212800581318 0.0
vertex -22.3128865872775 29.0787199418682 0.0
vertex -20.0051868274205 11.55 0.0
endloop
endfacet
facet normal 0.0 0.0 -1.0
outer loop
vertex -20.0051868274205 11.55 0.0
vertex -22.3128865872775 29.0787199418682 0.0
vertex -20.0051868274205 34.65 0.0
endloop
endfacet
facet normal 0.0 0.0 -1.0
outer loop
vertex -20.0051868274205 11.55 0.0
vertex -20.0051868274205 34.65 0.0
vertex -16.3341666454092 6.76583335459078 0.0
endloop
endfacet
facet normal 0.0 0.0 -1.0
outer loop
vertex -16.3341666454092 6.76583335459078 0.0
vertex -20.0051868274205 34.65 0.0
vertex -16.3341666454092 39.4341666454092 0.0
endloop
endfacet
facet normal 0.0 0.0 -1.0
outer loop
vertex -16.3341666454092 6.76583335459078 0.0
vertex -16.3341666454092 39.4341666454092 0.0
vertex -11.55 3.0948131725795 0.0
endloop
endfacet
facet normal 0.0 0.0 -1.0
outer loop
vertex -11.55 3.0948131725795 0.0
vertex -16.3341666454092 39.4341666454092 0.0
vertex -11.55 43.1051868274205 0.0
endloop
endfacet
facet normal 0.0 0.0 -1.0
outer loop
vertex -11.55 3.0948131725795 0.0
vertex -11.55 43.1051868274205 0.0
vertex -11.1 23.1 0.0
endloop
endfacet
facet normal 0.0 0.0 -1.0
outer loop
vertex -11.55 3.0948131725795 0.0
vertex -11.1 23.1 0.0
vertex -10.7217766718087 20.227108599362 0.0
endloop
endfacet
facet normal 0.0 0.0 -1.0
outer loop
vertex -11.55 3.0948131725795 0.0
vertex -10.7217766718087 20.227108599362 0.0
vertex -5.97871994186824 0.78711341272255 0.0
endloop
endfacet
facet normal 0.0 0.0 -1.0
outer loop
vertex -5.97871994186824 0.78711341272255 0.0
vertex -10.7217766718087 20.227108599362 0.0
vertex -9.61288198200727 17.55 0.0
endloop
endfacet
facet normal 0.0 0.0 -1.0
outer loop
vertex -5.97871994186824 0.78711341272255 0.0
vertex -9.61288198200727 17.55 0.0
vertex -7.84888527117068 15.2511147288293 0.0
endloop
endfacet
facet normal 0.0 0.0 -1.0
outer loop
vertex -5.97871994186824 0.78711341272255 0.0
vertex -7.84888527117068 15.2511147288293 0.0
vertex -5.55 13.4871180179927 0.0
endloop
endfacet
facet normal 0.0 0.0 -1.0
outer loop
vertex -5.97871994186824 0.78711341272255 0.0
vertex -5.55 13.4871180179927 0.0
vertex -8.45989944764369e-015 -9.25301502086029e-016 0.0
endloop
endfacet
facet normal 0.0 0.0 -1.0
outer loop
vertex -8.45989944764369e-015 -9.25301502086029e-016 0.0
vertex -5.55 13.4871180179927 0.0
vertex -2.87289140063799 12.3782233281913 0.0
endloop
endfacet
facet normal 0.0 0.0 -1.0
outer loop
vertex -8.45989944764369e-015 -9.25301502086029e-016 0.0
vertex -2.87289140063799 12.3782233281913 0.0
vertex 0.0 12.0 0.0
endloop
endfacet
facet normal 0.0 0.0 -1.0
outer loop
vertex -8.45989944764369e-015 -9.25301502086029e-016 0.0
vertex 0.0 12.0 0.0
vertex 5.97871994186823 0.787113412722521 0.0
endloop
endfacet
facet normal 0.0 0.0 -1.0
outer loop
vertex 5.97871994186823 0.787113412722521 0.0
vertex 0.0 12.0 0.0
vertex 2.87289140063798 12.3782233281913 0.0
endloop
endfacet
facet normal 0.0 0.0 -1.0
outer loop
vertex 5.97871994186823 0.787113412722521 0.0
vertex 2.87289140063798 12.3782233281913 0.0
vertex 5.55 13.4871180179927 0.0
endloop
endfacet
facet normal 0.0 0.0 -1.0
outer loop
vertex 5.97871994186823 0.787113412722521 0.0
vertex 5.55 13.4871180179927 0.0
vertex 7.84888527117068 15.2511147288293 0.0
endloop
endfacet
facet normal 0.0 0.0 -1.0
outer loop
vertex 5.97871994186823 0.787113412722521 0.0
vertex 7.84888527117068 15.2511147288293 0.0
vertex 11.55 3.09481317257947 0.0
endloop
endfacet
facet normal 0.0 0.0 -1.0
outer loop
vertex 11.55 3.09481317257947 0.0
vertex 7.84888527117068 15.2511147288293 0.0
vertex 9.61288198200727 17.55 0.0
endloop
endfacet
facet normal 0.0 0.0 -1.0
outer loop
vertex 11.55 3.09481317257947 0.0
vertex 9.61288198200727 17.55 0.0
vertex 10.7217766718087 20.227108599362 0.0
endloop
endfacet
facet normal 0.0 0.0 -1.0
outer loop
vertex 11.55 3.09481317257947 0.0
vertex 10.7217766718087 20.227108599362 0.0
vertex 11.1 23.1 0.0
endloop
endfacet
facet normal 0.965925826289068 0.258819045102521 0.0
outer loop
vertex 22.3128865872775 29.0787199418682 0.0
vertex 23.1 23.1 3.0
vertex 23.1 23.1 0.0
endloop
endfacet
facet normal 1.0 0.0 0.0
outer loop
vertex 23.1 23.1 3.0
vertex 22.3128865872775 29.0787199418682 0.0
vertex 22.3128865872775 29.0787199418682 3.0
endloop
endfacet
facet normal -0.866025403784439 -0.5 0.0
outer loop
vertex 9.61288198200727 28.65 12.0
vertex 10.7217766718087 25.972891400638 0.0
vertex 10.7217766718087 25.972891400638 12.0
endloop
endfacet
facet normal -0.965925826289068 -0.258819045102521 0.0
outer loop
vertex 10.7217766718087 25.972891400638 0.0
vertex 9.61288198200727 28.65 12.0
vertex 9.61288198200727 28.65 0.0
endloop
endfacet
facet normal 0.866025403784439 0.499999999999999 0.0
outer loop
vertex 12.2109581933606 30.15 3.0
vertex 13.6195541506759 26.7493485359455 12.0
vertex 13.6195541506759 26.7493485359455 3.0
endloop
endfacet
facet normal 0.965925826289068 0.25881904510252 0.0
outer loop
vertex 13.6195541506759 26.7493485359455 12.0
vertex 12.2109581933606 30.15 3.0
vertex 12.2109581933606 30.15 12.0
endloop
endfacet
facet normal -0.965925826289068 0.258819045102521 0.0
outer loop
vertex -13.6195541506759 26.7493485359456 12.0
vertex -14.1 23.1 3.0
vertex -14.1 23.1 12.0
endloop
endfacet
facet normal -1.0 1.69311088017291e-016 0.0
outer loop
vertex -14.1 23.1 3.0
vertex -13.6195541506759 26.7493485359456 12.0
vertex -13.6195541506759 26.7493485359456 3.0
endloop
endfacet
facet normal -0.965925826289068 0.258819045102521 0.0
outer loop
vertex -22.3128865872775 29.0787199418682 3.0
vertex -23.1 23.1 0.0
vertex -23.1 23.1 3.0
endloop
endfacet
facet normal -1.0 6.23777692695283e-016 0.0
outer loop
vertex -23.1 23.1 0.0
vertex -22.3128865872775 29.0787199418682 3.0
vertex -22.3128865872775 29.0787199418682 0.0
endloop
endfacet
facet normal 1.0 -5.34666593738814e-016 0.0
outer loop
vertex -11.1 23.1 0.0
vertex -10.7217766718087 20.227108599362 12.0
vertex -10.7217766718087 20.227108599362 0.0
endloop
endfacet
facet normal 0.965925826289068 0.25881904510252 0.0
outer loop
vertex -10.7217766718087 20.227108599362 12.0
vertex -11.1 23.1 0.0
vertex -11.1 23.1 12.0
endloop
endfacet
facet normal 0.5 -0.866025403784439 0.0
outer loop
vertex -5.55 32.7128819820073 12.0
vertex -7.84888527117067 30.9488852711707 0.0
vertex -5.55 32.7128819820073 0.0
endloop
endfacet
facet normal 0.707106781186548 -0.707106781186547 0.0
outer loop
vertex -7.84888527117067 30.9488852711707 0.0
vertex -5.55 32.7128819820073 12.0
vertex -7.84888527117067 30.9488852711707 12.0
endloop
endfacet
facet normal -0.707106781186547 0.707106781186548 0.0
outer loop
vertex -9.97020561473033 33.0702056147303 12.0
vertex -7.05000000000001 35.3109581933606 3.0
vertex -9.97020561473033 33.0702056147303 3.0
endloop
endfacet
facet normal -0.5 0.866025403784439 0.0
outer loop
vertex -7.05000000000001 35.3109581933606 3.0
vertex -9.97020561473033 33.0702056147303 12.0
vertex -7.05000000000001 35.3109581933606 12.0
endloop
endfacet
facet normal -0.707106781186548 0.707106781186547 0.0
outer loop
vertex -16.3341666454092 39.4341666454092 3.0
vertex -11.55 43.1051868274205 0.0
vertex -16.3341666454092 39.4341666454092 0.0
endloop
endfacet
facet normal -0.5 0.866025403784439 0.0
outer loop
vertex -11.55 43.1051868274205 0.0
vertex -16.3341666454092 39.4341666454092 3.0
vertex -11.55 43.1051868274205 3.0
endloop
endfacet
facet normal 0.707106781186548 -0.707106781186547 0.0
outer loop
vertex -7.84888527117067 30.9488852711707 0.0
vertex -9.61288198200726 28.65 12.0
vertex -9.61288198200726 28.65 0.0
endloop
endfacet
facet normal 0.866025403784438 -0.500000000000001 0.0
outer loop
vertex -9.61288198200726 28.65 12.0
vertex -7.84888527117067 30.9488852711707 0.0
vertex -7.84888527117067 30.9488852711707 12.0
endloop
endfacet
facet normal -0.707106781186547 0.707106781186548 0.0
outer loop
vertex -9.97020561473033 33.0702056147303 12.0
vertex -12.2109581933606 30.15 3.0
vertex -12.2109581933606 30.15 12.0
endloop
endfacet
facet normal -0.866025403784438 0.500000000000001 0.0
outer loop
vertex -12.2109581933606 30.15 3.0
vertex -9.97020561473033 33.0702056147303 12.0
vertex -9.97020561473033 33.0702056147303 3.0
endloop
endfacet
facet normal -0.707106781186548 0.707106781186547 0.0
outer loop
vertex -16.3341666454092 39.4341666454092 3.0
vertex -20.0051868274205 34.65 0.0
vertex -20.0051868274205 34.65 3.0
endloop
endfacet
facet normal -0.866025403784438 0.500000000000001 0.0
outer loop
vertex -20.0051868274205 34.65 0.0
vertex -16.3341666454092 39.4341666454092 3.0
vertex -16.3341666454092 39.4341666454092 0.0
endloop
endfacet
facet normal 0.866025403784438 -0.500000000000001 0.0
outer loop
vertex -9.61288198200726 28.65 0.0
vertex -10.7217766718087 25.972891400638 12.0
vertex -10.7217766718087 25.972891400638 0.0
endloop
endfacet
facet normal 0.965925826289068 -0.258819045102522 0.0
outer loop
vertex -10.7217766718087 25.972891400638 12.0
vertex -9.61288198200726 28.65 0.0
vertex -9.61288198200726 28.65 12.0
endloop
endfacet
facet normal -0.866025403784438 0.500000000000001 0.0
outer loop
vertex -12.2109581933606 30.15 12.0
vertex -13.6195541506759 26.7493485359456 3.0
vertex -13.6195541506759 26.7493485359456 12.0
endloop
endfacet
facet normal -0.965925826289068 0.258819045102521 0.0
outer loop
vertex -13.6195541506759 26.7493485359456 3.0
vertex -12.2109581933606 30.15 12.0
vertex -12.2109581933606 30.15 3.0
endloop
endfacet
facet normal 6.66650819265761e-032 -1.33330163853152e-032 1.0
outer loop
vertex -13.6195541506759 19.4506514640545 12.0
vertex -13.6195541506759 26.7493485359456 12.0
vertex -14.1 23.1 12.0
endloop
endfacet
facet normal 6.66650819265761e-032 -1.33330163853152e-032 1.0
outer loop
vertex -13.6195541506759 26.7493485359456 12.0
vertex -13.6195541506759 19.4506514640545 12.0
vertex -12.2109581933606 16.05 12.0
endloop
endfacet
facet normal 6.66650819265761e-032 -1.33330163853152e-032 1.0
outer loop
vertex -13.6195541506759 26.7493485359456 12.0
vertex -12.2109581933606 16.05 12.0
vertex -12.2109581933606 30.15 12.0
endloop
endfacet
facet normal 6.66650819265761e-032 -1.33330163853152e-032 1.0
outer loop
vertex -12.2109581933606 30.15 12.0
vertex -12.2109581933606 16.05 12.0
vertex -9.97020561473033 13.1297943852697 12.0
endloop
endfacet
facet normal 6.66650819265761e-032 -1.33330163853152e-032 1.0
outer loop
vertex -12.2109581933606 30.15 12.0
vertex -9.97020561473033 13.1297943852697 12.0
vertex -11.1 23.1 12.0
endloop
endfacet
facet normal 6.66650819265761e-032 -1.33330163853152e-032 1.0
outer loop
vertex -11.1 23.1 12.0
vertex -9.97020561473033 13.1297943852697 12.0
vertex -10.7217766718087 20.227108599362 12.0
endloop
endfacet
facet normal 6.66650819265761e-032 -1.33330163853152e-032 1.0
outer loop
vertex -10.7217766718087 20.227108599362 12.0
vertex -9.97020561473033 13.1297943852697 12.0
vertex -9.61288198200727 17.55 12.0
endloop
endfacet
facet normal 6.66650819265761e-032 -1.33330163853152e-032 1.0
outer loop
vertex -9.61288198200727 17.55 12.0
vertex -9.97020561473033 13.1297943852697 12.0
vertex -7.05000000000002 10.8890418066394 12.0
endloop
endfacet
facet normal 6.66650819265761e-032 -1.33330163853152e-032 1.0
outer loop
vertex -9.61288198200727 17.55 12.0
vertex -7.05000000000002 10.8890418066394 12.0
vertex -7.84888527117068 15.2511147288293 12.0
endloop
endfacet
facet normal 6.66650819265761e-032 -1.33330163853152e-032 1.0
outer loop
vertex -7.84888527117068 15.2511147288293 12.0
vertex -7.05000000000002 10.8890418066394 12.0
vertex -5.55 13.4871180179927 12.0
endloop
endfacet
facet normal 6.66650819265761e-032 -1.33330163853152e-032 1.0
outer loop
vertex -5.55 13.4871180179927 12.0
vertex -7.05000000000002 10.8890418066394 12.0
vertex -3.64934853594556 9.48044584932412 12.0
endloop
endfacet
facet normal 6.66650819265761e-032 -1.33330163853152e-032 1.0
outer loop
vertex -5.55 13.4871180179927 12.0
vertex -3.64934853594556 9.48044584932412 12.0
vertex -2.87289140063799 12.3782233281913 12.0
endloop
endfacet
facet normal 6.66650819265761e-032 -1.33330163853152e-032 1.0
outer loop
vertex -2.87289140063799 12.3782233281913 12.0
vertex -3.64934853594556 9.48044584932412 12.0
vertex -2.8199664825479e-015 9.0 12.0
endloop
endfacet
facet normal 6.66650819265761e-032 -1.33330163853152e-032 1.0
outer loop
vertex -2.87289140063799 12.3782233281913 12.0
vertex -2.8199664825479e-015 9.0 12.0
vertex 0.0 12.0 12.0
endloop
endfacet
facet normal 6.66650819265761e-032 -1.33330163853152e-032 1.0
outer loop
vertex 0.0 12.0 12.0
vertex -2.8199664825479e-015 9.0 12.0
vertex 3.64934853594554 9.48044584932414 12.0
endloop
endfacet
facet normal 6.66650819265761e-032 -1.33330163853152e-032 1.0
outer loop
vertex 0.0 12.0 12.0
vertex 3.64934853594554 9.48044584932414 12.0
vertex 2.87289140063798 12.3782233281913 12.0
endloop
endfacet
facet normal 6.66650819265761e-032 -1.33330163853152e-032 1.0
outer loop
vertex 2.87289140063798 12.3782233281913 12.0
vertex 3.64934853594554 9.48044584932414 12.0
vertex 5.55 13.4871180179927 12.0
endloop
endfacet
facet normal 6.66650819265761e-032 -1.33330163853152e-032 1.0
outer loop
vertex 5.55 13.4871180179927 12.0
vertex 3.64934853594554 9.48044584932414 12.0
vertex 7.05 10.8890418066394 12.0
endloop
endfacet
facet normal 6.66650819265761e-032 -1.33330163853152e-032 1.0
outer loop
vertex 5.55 13.4871180179927 12.0
vertex 7.05 10.8890418066394 12.0
vertex 7.84888527117068 15.2511147288293 12.0
endloop
endfacet
facet normal 6.66650819265761e-032 -1.33330163853152e-032 1.0
outer loop
vertex 7.84888527117068 15.2511147288293 12.0
vertex 7.05 10.8890418066394 12.0
vertex 9.97020561473032 13.1297943852697 12.0
endloop
endfacet
facet normal 6.66650819265761e-032 -1.33330163853152e-032 1.0
outer loop
vertex 7.84888527117068 15.2511147288293 12.0
vertex 9.97020561473032 13.1297943852697 12.0
vertex 9.61288198200727 17.55 12.0
endloop
endfacet
facet normal 6.66650819265761e-032 -1.33330163853152e-032 1.0
outer loop
vertex 9.61288198200727 17.55 12.0
vertex 9.97020561473032 13.1297943852697 12.0
vertex 10.7217766718087 20.227108599362 12.0
endloop
endfacet
facet normal 6.66650819265761e-032 -1.33330163853152e-032 1.0
outer loop
vertex 10.7217766718087 20.227108599362 12.0
vertex 9.97020561473032 13.1297943852697 12.0
vertex 12.2109581933606 16.05 12.0
endloop
endfacet
facet normal 6.66650819265761e-032 -1.33330163853152e-032 1.0
outer loop
vertex 10.7217766718087 20.227108599362 12.0
vertex 12.2109581933606 16.05 12.0
vertex 11.1 23.1 12.0
endloop
endfacet
facet normal 6.66650819265761e-032 -1.33330163853152e-032 1.0
outer loop
vertex -11.1 23.1 12.0
vertex -9.97020561473033 33.0702056147303 12.0
vertex -12.2109581933606 30.15 12.0
endloop
endfacet
facet normal 6.66650819265761e-032 -1.33330163853152e-032 1.0
outer loop
vertex -9.97020561473033 33.0702056147303 12.0
vertex -11.1 23.1 12.0
vertex -10.7217766718087 25.972891400638 12.0
endloop
endfacet
facet normal 6.66650819265761e-032 -1.33330163853152e-032 1.0
outer loop
vertex -9.97020561473033 33.0702056147303 12.0
vertex -10.7217766718087 25.972891400638 12.0
vertex -9.61288198200726 28.65 12.0
endloop
endfacet
facet normal 6.66650819265761e-032 -1.33330163853152e-032 1.0
outer loop
vertex -9.97020561473033 33.0702056147303 12.0
vertex -9.61288198200726 28.65 12.0
vertex -7.05000000000001 35.3109581933606 12.0
endloop
endfacet
facet normal 6.66650819265761e-032 -1.33330163853152e-032 1.0
outer loop
vertex -7.05000000000001 35.3109581933606 12.0
vertex -9.61288198200726 28.65 12.0
vertex -7.84888527117067 30.9488852711707 12.0
endloop
endfacet
facet normal 6.66650819265761e-032 -1.33330163853152e-032 1.0
outer loop
vertex -7.05000000000001 35.3109581933606 12.0
vertex -7.84888527117067 30.9488852711707 12.0
vertex -5.55 32.7128819820073 12.0
endloop
endfacet
facet normal 6.66650819265761e-032 -1.33330163853152e-032 1.0
outer loop
vertex -7.05000000000001 35.3109581933606 12.0
vertex -5.55 32.7128819820073 12.0
vertex -3.64934853594554 36.7195541506759 12.0
endloop
endfacet
facet normal 6.66650819265761e-032 -1.33330163853152e-032 1.0
outer loop
vertex -3.64934853594554 36.7195541506759 12.0
vertex -5.55 32.7128819820073 12.0
vertex -2.87289140063798 33.8217766718087 12.0
endloop
endfacet
facet normal 6.66650819265761e-032 -1.33330163853152e-032 1.0
outer loop
vertex -3.64934853594554 36.7195541506759 12.0
vertex -2.87289140063798 33.8217766718087 12.0
vertex 5.63993296509579e-015 37.2 12.0
endloop
endfacet
facet normal 6.66650819265761e-032 -1.33330163853152e-032 1.0
outer loop
vertex 5.63993296509579e-015 37.2 12.0
vertex -2.87289140063798 33.8217766718087 12.0
vertex 2.8199664825479e-015 34.2 12.0
endloop
endfacet
facet normal 6.66650819265761e-032 -1.33330163853152e-032 1.0
outer loop
vertex 5.63993296509579e-015 37.2 12.0
vertex 2.8199664825479e-015 34.2 12.0
vertex 2.87289140063798 33.8217766718087 12.0
endloop
endfacet
facet normal 6.66650819265761e-032 -1.33330163853152e-032 1.0
outer loop
vertex 5.63993296509579e-015 37.2 12.0
vertex 2.87289140063798 33.8217766718087 12.0
vertex 3.64934853594555 36.7195541506759 12.0
endloop
endfacet
facet normal 6.66650819265761e-032 -1.33330163853152e-032 1.0
outer loop
vertex 3.64934853594555 36.7195541506759 12.0
vertex 2.87289140063798 33.8217766718087 12.0
vertex 5.55 32.7128819820073 12.0
endloop
endfacet
facet normal 6.66650819265761e-032 -1.33330163853152e-032 1.0
outer loop
vertex 3.64934853594555 36.7195541506759 12.0
vertex 5.55 32.7128819820073 12.0
vertex 7.05000000000001 35.3109581933606 12.0
endloop
endfacet
facet normal 6.66650819265761e-032 -1.33330163853152e-032 1.0
outer loop
vertex 7.05000000000001 35.3109581933606 12.0
vertex 5.55 32.7128819820073 12.0
vertex 7.84888527117068 30.9488852711707 12.0
endloop
endfacet
facet normal 6.66650819265761e-032 -1.33330163853152e-032 1.0
outer loop
vertex 7.05000000000001 35.3109581933606 12.0
vertex 7.84888527117068 30.9488852711707 12.0
vertex 9.97020561473033 33.0702056147303 12.0
endloop
endfacet
facet normal 6.66650819265761e-032 -1.33330163853152e-032 1.0
outer loop
vertex 9.97020561473033 33.0702056147303 12.0
vertex 7.84888527117068 30.9488852711707 12.0
vertex 9.61288198200727 28.65 12.0
endloop
endfacet
facet normal 6.66650819265761e-032 -1.33330163853152e-032 1.0
outer loop
vertex 9.97020561473033 33.0702056147303 12.0
vertex 9.61288198200727 28.65 12.0
vertex 10.7217766718087 25.972891400638 12.0
endloop
endfacet
facet normal 6.66650819265761e-032 -1.33330163853152e-032 1.0
outer loop
vertex 9.97020561473033 33.0702056147303 12.0
vertex 10.7217766718087 25.972891400638 12.0
vertex 12.2109581933606 30.15 12.0
endloop
endfacet
facet normal 6.66650819265761e-032 -1.33330163853152e-032 1.0
outer loop
vertex 12.2109581933606 30.15 12.0
vertex 10.7217766718087 25.972891400638 12.0
vertex 11.1 23.1 12.0
endloop
endfacet
facet normal 6.66650819265761e-032 -1.33330163853152e-032 1.0
outer loop
vertex 12.2109581933606 30.15 12.0
vertex 11.1 23.1 12.0
vertex 12.2109581933606 16.05 12.0
endloop
endfacet
facet normal 6.66650819265761e-032 -1.33330163853152e-032 1.0
outer loop
vertex 12.2109581933606 30.15 12.0
vertex 12.2109581933606 16.05 12.0
vertex 13.6195541506759 19.4506514640545 12.0
endloop
endfacet
facet normal 6.66650819265761e-032 -1.33330163853152e-032 1.0
outer loop
vertex 12.2109581933606 30.15 12.0
vertex 13.6195541506759 19.4506514640545 12.0
vertex 13.6195541506759 26.7493485359455 12.0
endloop
endfacet
facet normal 6.66650819265761e-032 -1.33330163853152e-032 1.0
outer loop
vertex 13.6195541506759 26.7493485359455 12.0
vertex 13.6195541506759 19.4506514640545 12.0
vertex 14.1 23.1 12.0
endloop
endfacet
facet normal -1.51488868225997e-016 -1.0 0.0
outer loop
vertex -2.8199664825479e-015 9.0 12.0
vertex -3.64934853594556 9.48044584932412 3.0
vertex -2.8199664825479e-015 9.0 3.0
endloop
endfacet
facet normal -0.258819045102521 -0.965925826289068 0.0
outer loop
vertex -3.64934853594556 9.48044584932412 3.0
vertex -2.8199664825479e-015 9.0 12.0
vertex -3.64934853594556 9.48044584932412 12.0
endloop
endfacet
facet normal -2.5842218697376e-016 -1.0 0.0
outer loop
vertex -8.45989944764369e-015 -9.25301502086029e-016 3.0
vertex -5.97871994186824 0.78711341272255 0.0
vertex -8.45989944764369e-015 -9.25301502086029e-016 0.0
endloop
endfacet
facet normal -0.258819045102521 -0.965925826289068 0.0
outer loop
vertex -5.97871994186824 0.78711341272255 0.0
vertex -8.45989944764369e-015 -9.25301502086029e-016 3.0
vertex -5.97871994186824 0.78711341272255 3.0
endloop
endfacet
facet normal -0.866025403784438 0.500000000000001 0.0
outer loop
vertex -20.0051868274205 34.65 3.0
vertex -22.3128865872775 29.0787199418682 0.0
vertex -22.3128865872775 29.0787199418682 3.0
endloop
endfacet
facet normal -0.965925826289068 0.258819045102521 0.0
outer loop
vertex -22.3128865872775 29.0787199418682 0.0
vertex -20.0051868274205 34.65 3.0
vertex -20.0051868274205 34.65 0.0
endloop
endfacet
facet normal -8.73288769773397e-016 -1.0 0.0
outer loop
vertex 2.8199664825479e-015 34.2 12.0
vertex -2.87289140063798 33.8217766718087 0.0
vertex 0.0 34.2 0.0
endloop
endfacet
facet normal 0.25881904510252 -0.965925826289069 0.0
outer loop
vertex -2.87289140063798 33.8217766718087 0.0
vertex 2.8199664825479e-015 34.2 12.0
vertex -2.87289140063798 33.8217766718087 12.0
endloop
endfacet
facet normal -0.25881904510252 0.965925826289069 0.0
outer loop
vertex -3.64934853594554 36.7195541506759 12.0
vertex 5.63993296509579e-015 37.2 3.0
vertex -3.64934853594554 36.7195541506759 3.0
endloop
endfacet
facet normal 1.50597757236433e-015 1.0 0.0
outer loop
vertex 5.63993296509579e-015 37.2 3.0
vertex -3.64934853594554 36.7195541506759 12.0
vertex 5.63993296509579e-015 37.2 12.0
endloop
endfacet
facet normal 0.258819045102521 0.965925826289068 0.0
outer loop
vertex 5.97871994186823 45.4128865872775 3.0
vertex 11.55 43.1051868274205 0.0
vertex 5.97871994186823 45.4128865872775 0.0
endloop
endfacet
facet normal 0.499999999999999 0.866025403784439 0.0
outer loop
vertex 11.55 43.1051868274205 0.0
vertex 5.97871994186823 45.4128865872775 3.0
vertex 11.55 43.1051868274205 3.0
endloop
endfacet
facet normal -0.258819045102521 -0.965925826289068 0.0
outer loop
vertex 2.87289140063798 33.8217766718087 12.0
vertex 0.0 34.2 0.0
vertex 2.87289140063798 33.8217766718087 0.0
endloop
endfacet
facet normal -8.37644330190809e-016 -1.0 0.0
outer loop
vertex 0.0 34.2 0.0
vertex 2.87289140063798 33.8217766718087 12.0
vertex 2.8199664825479e-015 34.2 12.0
endloop
endfacet
facet normal 0.965925826289068 -0.258819045102522 0.0
outer loop
vertex -10.7217766718087 25.972891400638 0.0
vertex -11.1 23.1 12.0
vertex -11.1 23.1 0.0
endloop
endfacet
facet normal 1.0 -5.34666593738814e-016 0.0
outer loop
vertex -11.1 23.1 12.0
vertex -10.7217766718087 25.972891400638 0.0
vertex -10.7217766718087 25.972891400638 12.0
endloop
endfacet
facet normal 1.50597757236433e-015 1.0 0.0
outer loop
vertex 5.63993296509579e-015 37.2 12.0
vertex 3.64934853594555 36.7195541506759 3.0
vertex 5.63993296509579e-015 37.2 3.0
endloop
endfacet
facet normal 0.258819045102521 0.965925826289068 0.0
outer loop
vertex 3.64934853594555 36.7195541506759 3.0
vertex 5.63993296509579e-015 37.2 12.0
vertex 3.64934853594555 36.7195541506759 12.0
endloop
endfacet
facet normal 9.98044308312453e-016 1.0 0.0
outer loop
vertex 1.69197988952874e-014 46.2 3.0
vertex 5.97871994186823 45.4128865872775 0.0
vertex 1.69197988952874e-014 46.2 0.0
endloop
endfacet
facet normal 0.258819045102521 0.965925826289068 0.0
outer loop
vertex 5.97871994186823 45.4128865872775 0.0
vertex 1.69197988952874e-014 46.2 3.0
vertex 5.97871994186823 45.4128865872775 3.0
endloop
endfacet
facet normal 0.866025403784439 0.5 0.0
outer loop
vertex 20.0051868274205 34.65 0.0
vertex 22.3128865872775 29.0787199418682 3.0
vertex 22.3128865872775 29.0787199418682 0.0
endloop
endfacet
facet normal 0.965925826289068 0.258819045102521 0.0
outer loop
vertex 22.3128865872775 29.0787199418682 3.0
vertex 20.0051868274205 34.65 0.0
vertex 20.0051868274205 34.65 3.0
endloop
endfacet
facet normal 0.258819045102521 0.965925826289068 0.0
outer loop
vertex 3.64934853594555 36.7195541506759 12.0
vertex 7.05000000000001 35.3109581933606 3.0
vertex 3.64934853594555 36.7195541506759 3.0
endloop
endfacet
facet normal 0.5 0.866025403784439 0.0
outer loop
vertex 7.05000000000001 35.3109581933606 3.0
vertex 3.64934853594555 36.7195541506759 12.0
vertex 7.05000000000001 35.3109581933606 12.0
endloop
endfacet
facet normal -1.0 1.69311088017291e-016 0.0
outer loop
vertex -14.1 23.1 12.0
vertex -13.6195541506759 19.4506514640545 3.0
vertex -13.6195541506759 19.4506514640545 12.0
endloop
endfacet
facet normal -0.965925826289068 -0.258819045102521 0.0
outer loop
vertex -13.6195541506759 19.4506514640545 3.0
vertex -14.1 23.1 12.0
vertex -14.1 23.1 3.0
endloop
endfacet
facet normal -1.0 6.23777692695283e-016 0.0
outer loop
vertex -23.1 23.1 3.0
vertex -22.3128865872775 17.1212800581318 0.0
vertex -22.3128865872775 17.1212800581318 3.0
endloop
endfacet
facet normal -0.965925826289069 -0.25881904510252 0.0
outer loop
vertex -22.3128865872775 17.1212800581318 0.0
vertex -23.1 23.1 3.0
vertex -23.1 23.1 0.0
endloop
endfacet
facet normal 0.965925826289068 0.25881904510252 0.0
outer loop
vertex -10.7217766718087 20.227108599362 0.0
vertex -9.61288198200727 17.55 12.0
vertex -9.61288198200727 17.55 0.0
endloop
endfacet
facet normal 0.866025403784439 0.5 0.0
outer loop
vertex -9.61288198200727 17.55 12.0
vertex -10.7217766718087 20.227108599362 0.0
vertex -10.7217766718087 20.227108599362 12.0
endloop
endfacet
facet normal 0.866025403784439 0.5 0.0
outer loop
vertex -9.61288198200727 17.55 0.0
vertex -7.84888527117068 15.2511147288293 12.0
vertex -7.84888527117068 15.2511147288293 0.0
endloop
endfacet
facet normal 0.707106781186548 0.707106781186547 9.54429280272172e-018
outer loop
vertex -7.84888527117068 15.2511147288293 12.0
vertex -9.61288198200727 17.55 0.0
vertex -9.61288198200727 17.55 12.0
endloop
endfacet
facet normal -0.866025403784439 -0.5 0.0
outer loop
vertex -12.2109581933606 16.05 12.0
vertex -9.97020561473033 13.1297943852697 3.0
vertex -9.97020561473033 13.1297943852697 12.0
endloop
endfacet
facet normal -0.707106781186548 -0.707106781186547 0.0
outer loop
vertex -9.97020561473033 13.1297943852697 3.0
vertex -12.2109581933606 16.05 12.0
vertex -12.2109581933606 16.05 3.0
endloop
endfacet
facet normal -0.866025403784439 -0.5 0.0
outer loop
vertex -20.0051868274205 11.55 3.0
vertex -16.3341666454092 6.76583335459078 0.0
vertex -16.3341666454092 6.76583335459078 3.0
endloop
endfacet
facet normal -0.707106781186548 -0.707106781186547 0.0
outer loop
vertex -16.3341666454092 6.76583335459078 0.0
vertex -20.0051868274205 11.55 3.0
vertex -20.0051868274205 11.55 0.0
endloop
endfacet
facet normal -0.258819045102521 0.965925826289068 -1.00228987935162e-017
outer loop
vertex 2.87289140063798 12.3782233281913 12.0
vertex 5.55 13.4871180179927 0.0
vertex 2.87289140063798 12.3782233281913 0.0
endloop
endfacet
facet normal -0.5 0.866025403784439 -1.85439827186641e-017
outer loop
vertex 5.55 13.4871180179927 0.0
vertex 2.87289140063798 12.3782233281913 12.0
vertex 5.55 13.4871180179927 12.0
endloop
endfacet
facet normal 0.5 -0.866025403784439 0.0
outer loop
vertex 7.05 10.8890418066394 12.0
vertex 3.64934853594554 9.48044584932414 3.0
vertex 7.05 10.8890418066394 3.0
endloop
endfacet
facet normal 0.258819045102521 -0.965925826289068 0.0
outer loop
vertex 3.64934853594554 9.48044584932414 3.0
vertex 7.05 10.8890418066394 12.0
vertex 3.64934853594554 9.48044584932414 12.0
endloop
endfacet
facet normal 0.258819045102521 -0.965925826289068 0.0
outer loop
vertex 5.97871994186823 0.787113412722521 3.0
vertex -8.45989944764369e-015 -9.25301502086029e-016 0.0
vertex 5.97871994186823 0.787113412722521 0.0
endloop
endfacet
facet normal -2.5842218697376e-016 -1.0 0.0
outer loop
vertex -8.45989944764369e-015 -9.25301502086029e-016 0.0
vertex 5.97871994186823 0.787113412722521 3.0
vertex -8.45989944764369e-015 -9.25301502086029e-016 3.0
endloop
endfacet
facet normal 0.258819045102521 -0.965925826289068 0.0
outer loop
vertex 3.64934853594554 9.48044584932414 12.0
vertex -2.8199664825479e-015 9.0 3.0
vertex 3.64934853594554 9.48044584932414 3.0
endloop
endfacet
facet normal -1.51488868225997e-016 -1.0 0.0
outer loop
vertex -2.8199664825479e-015 9.0 3.0
vertex 3.64934853594554 9.48044584932414 12.0
vertex -2.8199664825479e-015 9.0 12.0
endloop
endfacet
facet normal 2.49511077078113e-016 1.0 4.08099424470881e-033
outer loop
vertex 0.0 12.0 12.0
vertex 2.87289140063798 12.3782233281913 0.0
vertex 0.0 12.0 0.0
endloop
endfacet
facet normal -0.258819045102521 0.965925826289068 -1.00228987935162e-017
outer loop
vertex 2.87289140063798 12.3782233281913 0.0
vertex 0.0 12.0 12.0
vertex 2.87289140063798 12.3782233281913 12.0
endloop
endfacet
facet normal 0.707106781186548 0.707106781186547 9.54429280272172e-018
outer loop
vertex -7.84888527117068 15.2511147288293 12.0
vertex -5.55 13.4871180179927 0.0
vertex -7.84888527117068 15.2511147288293 0.0
endloop
endfacet
facet normal 0.500000000000001 0.866025403784438 1.70440343993404e-017
outer loop
vertex -5.55 13.4871180179927 0.0
vertex -7.84888527117068 15.2511147288293 12.0
vertex -5.55 13.4871180179927 12.0
endloop
endfacet
facet normal -0.500000000000001 -0.866025403784438 0.0
outer loop
vertex -7.05000000000002 10.8890418066394 12.0
vertex -9.97020561473033 13.1297943852697 3.0
vertex -7.05000000000002 10.8890418066394 3.0
endloop
endfacet
facet normal -0.707106781186548 -0.707106781186547 0.0
outer loop
vertex -9.97020561473033 13.1297943852697 3.0
vertex -7.05000000000002 10.8890418066394 12.0
vertex -9.97020561473033 13.1297943852697 12.0
endloop
endfacet
facet normal -0.500000000000001 -0.866025403784438 0.0
outer loop
vertex -11.55 3.0948131725795 3.0
vertex -16.3341666454092 6.76583335459078 0.0
vertex -11.55 3.0948131725795 0.0
endloop
endfacet
facet normal -0.707106781186548 -0.707106781186547 0.0
outer loop
vertex -16.3341666454092 6.76583335459078 0.0
vertex -11.55 3.0948131725795 3.0
vertex -16.3341666454092 6.76583335459078 3.0
endloop
endfacet
facet normal 0.500000000000001 0.866025403784438 1.70440343993404e-017
outer loop
vertex -5.55 13.4871180179927 12.0
vertex -2.87289140063799 12.3782233281913 0.0
vertex -5.55 13.4871180179927 0.0
endloop
endfacet
facet normal 0.258819045102521 0.965925826289068 8.52295047419249e-018
outer loop
vertex -2.87289140063799 12.3782233281913 0.0
vertex -5.55 13.4871180179927 12.0
vertex -2.87289140063799 12.3782233281913 12.0
endloop
endfacet
facet normal -0.258819045102521 -0.965925826289068 0.0
outer loop
vertex -3.64934853594556 9.48044584932412 12.0
vertex -7.05000000000002 10.8890418066394 3.0
vertex -3.64934853594556 9.48044584932412 3.0
endloop
endfacet
facet normal -0.500000000000001 -0.866025403784438 0.0
outer loop
vertex -7.05000000000002 10.8890418066394 3.0
vertex -3.64934853594556 9.48044584932412 12.0
vertex -7.05000000000002 10.8890418066394 12.0
endloop
endfacet
facet normal -0.258819045102521 -0.965925826289068 0.0
outer loop
vertex -5.97871994186824 0.78711341272255 3.0
vertex -11.55 3.0948131725795 0.0
vertex -5.97871994186824 0.78711341272255 0.0
endloop
endfacet
facet normal -0.500000000000001 -0.866025403784438 0.0
outer loop
vertex -11.55 3.0948131725795 0.0
vertex -5.97871994186824 0.78711341272255 3.0
vertex -11.55 3.0948131725795 3.0
endloop
endfacet
facet normal 0.258819045102521 0.965925826289068 8.52295047419249e-018
outer loop
vertex -2.87289140063799 12.3782233281913 12.0
vertex 0.0 12.0 0.0
vertex -2.87289140063799 12.3782233281913 0.0
endloop
endfacet
facet normal 2.49511077078113e-016 1.0 4.08099424470881e-033
outer loop
vertex 0.0 12.0 0.0
vertex -2.87289140063799 12.3782233281913 12.0
vertex 0.0 12.0 12.0
endloop
endfacet
facet normal 0.499999999999999 0.866025403784439 0.0
outer loop
vertex 11.55 43.1051868274205 3.0
vertex 16.3341666454092 39.4341666454092 0.0
vertex 11.55 43.1051868274205 0.0
endloop
endfacet
facet normal 0.707106781186548 0.707106781186547 0.0
outer loop
vertex 16.3341666454092 39.4341666454092 0.0
vertex 11.55 43.1051868274205 3.0
vertex 16.3341666454092 39.4341666454092 3.0
endloop
endfacet
facet normal -0.5 -0.866025403784439 0.0
outer loop
vertex 5.55 32.7128819820073 12.0
vertex 2.87289140063798 33.8217766718087 0.0
vertex 5.55 32.7128819820073 0.0
endloop
endfacet
facet normal -0.258819045102521 -0.965925826289068 0.0
outer loop
vertex 2.87289140063798 33.8217766718087 0.0
vertex 5.55 32.7128819820073 12.0
vertex 2.87289140063798 33.8217766718087 12.0
endloop
endfacet
facet normal -0.707106781186548 -0.707106781186547 0.0
outer loop
vertex 7.84888527117068 30.9488852711707 12.0
vertex 9.61288198200727 28.65 0.0
vertex 9.61288198200727 28.65 12.0
endloop
endfacet
facet normal -0.866025403784439 -0.5 0.0
outer loop
vertex 9.61288198200727 28.65 0.0
vertex 7.84888527117068 30.9488852711707 12.0
vertex 7.84888527117068 30.9488852711707 0.0
endloop
endfacet
facet normal 0.707106781186548 0.707106781186547 0.0
outer loop
vertex 16.3341666454092 39.4341666454092 0.0
vertex 20.0051868274205 34.65 3.0
vertex 20.0051868274205 34.65 0.0
endloop
endfacet
facet normal 0.866025403784439 0.5 0.0
outer loop
vertex 20.0051868274205 34.65 3.0
vertex 16.3341666454092 39.4341666454092 0.0
vertex 16.3341666454092 39.4341666454092 3.0
endloop
endfacet
facet normal -0.707106781186548 -0.707106781186547 0.0
outer loop
vertex 7.84888527117068 30.9488852711707 12.0
vertex 5.55 32.7128819820073 0.0
vertex 7.84888527117068 30.9488852711707 0.0
endloop
endfacet
facet normal -0.5 -0.866025403784439 0.0
outer loop
vertex 5.55 32.7128819820073 0.0
vertex 7.84888527117068 30.9488852711707 12.0
vertex 5.55 32.7128819820073 12.0
endloop
endfacet
facet normal 0.5 0.866025403784439 0.0
outer loop
vertex 7.05000000000001 35.3109581933606 12.0
vertex 9.97020561473033 33.0702056147303 3.0
vertex 7.05000000000001 35.3109581933606 3.0
endloop
endfacet
facet normal 0.707106781186548 0.707106781186547 0.0
outer loop
vertex 9.97020561473033 33.0702056147303 3.0
vertex 7.05000000000001 35.3109581933606 12.0
vertex 9.97020561473033 33.0702056147303 12.0
endloop
endfacet
facet normal 0.5 -0.866025403784439 0.0
outer loop
vertex 11.55 3.09481317257947 3.0
vertex 5.97871994186823 0.787113412722521 0.0
vertex 11.55 3.09481317257947 0.0
endloop
endfacet
facet normal 0.258819045102521 -0.965925826289068 0.0
outer loop
vertex 5.97871994186823 0.787113412722521 0.0
vertex 11.55 3.09481317257947 3.0
vertex 5.97871994186823 0.787113412722521 3.0
endloop
endfacet
facet normal -0.5 0.866025403784439 -1.85439827186641e-017
outer loop
vertex 5.55 13.4871180179927 12.0
vertex 7.84888527117068 15.2511147288293 0.0
vertex 5.55 13.4871180179927 0.0
endloop
endfacet
facet normal -0.707106781186547 0.707106781186548 -9.5442928027217e-018
outer loop
vertex 7.84888527117068 15.2511147288293 0.0
vertex 5.55 13.4871180179927 12.0
vertex 7.84888527117068 15.2511147288293 12.0
endloop
endfacet
facet normal 0.707106781186547 -0.707106781186548 0.0
outer loop
vertex 9.97020561473032 13.1297943852697 12.0
vertex 7.05 10.8890418066394 3.0
vertex 9.97020561473032 13.1297943852697 3.0
endloop
endfacet
facet normal 0.5 -0.866025403784439 0.0
outer loop
vertex 7.05 10.8890418066394 3.0
vertex 9.97020561473032 13.1297943852697 12.0
vertex 7.05 10.8890418066394 12.0
endloop
endfacet
facet normal 1.86283309971083e-033 9.31416549855415e-034 1.0
outer loop
vertex -22.3128865872775 17.1212800581318 3.0
vertex -22.3128865872775 29.0787199418682 3.0
vertex -23.1 23.1 3.0
endloop
endfacet
facet normal 1.86283309971083e-033 9.31416549855415e-034 1.0
outer loop
vertex -22.3128865872775 29.0787199418682 3.0
vertex -22.3128865872775 17.1212800581318 3.0
vertex -20.0051868274205 11.55 3.0
endloop
endfacet
facet normal 1.86283309971083e-033 9.31416549855415e-034 1.0
outer loop
vertex -22.3128865872775 29.0787199418682 3.0
vertex -20.0051868274205 11.55 3.0
vertex -20.0051868274205 34.65 3.0
endloop
endfacet
facet normal 1.86283309971083e-033 9.31416549855415e-034 1.0
outer loop
vertex -20.0051868274205 34.65 3.0
vertex -20.0051868274205 11.55 3.0
vertex -16.3341666454092 6.76583335459078 3.0
endloop
endfacet
facet normal 1.86283309971083e-033 9.31416549855415e-034 1.0
outer loop
vertex -20.0051868274205 34.65 3.0
vertex -16.3341666454092 6.76583335459078 3.0
vertex -16.3341666454092 39.4341666454092 3.0
endloop
endfacet
facet normal 1.86283309971083e-033 9.31416549855415e-034 1.0
outer loop
vertex -16.3341666454092 39.4341666454092 3.0
vertex -16.3341666454092 6.76583335459078 3.0
vertex -11.55 3.0948131725795 3.0
endloop
endfacet
facet normal 1.86283309971083e-033 9.31416549855415e-034 1.0
outer loop
vertex -16.3341666454092 39.4341666454092 3.0
vertex -11.55 3.0948131725795 3.0
vertex -14.1 23.1 3.0
endloop
endfacet
facet normal 1.86283309971083e-033 9.31416549855415e-034 1.0
outer loop
vertex -14.1 23.1 3.0
vertex -11.55 3.0948131725795 3.0
vertex -13.6195541506759 19.4506514640545 3.0
endloop
endfacet
facet normal 1.86283309971083e-033 9.31416549855415e-034 1.0
outer loop
vertex -13.6195541506759 19.4506514640545 3.0
vertex -11.55 3.0948131725795 3.0
vertex -12.2109581933606 16.05 3.0
endloop
endfacet
facet normal 1.86283309971083e-033 9.31416549855415e-034 1.0
outer loop
vertex -12.2109581933606 16.05 3.0
vertex -11.55 3.0948131725795 3.0
vertex -9.97020561473033 13.1297943852697 3.0
endloop
endfacet
facet normal 1.86283309971083e-033 9.31416549855415e-034 1.0
outer loop
vertex -9.97020561473033 13.1297943852697 3.0
vertex -11.55 3.0948131725795 3.0
vertex -5.97871994186824 0.78711341272255 3.0
endloop
endfacet
facet normal 1.86283309971083e-033 9.31416549855415e-034 1.0
outer loop
vertex -9.97020561473033 13.1297943852697 3.0
vertex -5.97871994186824 0.78711341272255 3.0
vertex -7.05000000000002 10.8890418066394 3.0
endloop
endfacet
facet normal 1.86283309971083e-033 9.31416549855415e-034 1.0
outer loop
vertex -7.05000000000002 10.8890418066394 3.0
vertex -5.97871994186824 0.78711341272255 3.0
vertex -3.64934853594556 9.48044584932412 3.0
endloop
endfacet
facet normal 1.86283309971083e-033 9.31416549855415e-034 1.0
outer loop
vertex -3.64934853594556 9.48044584932412 3.0
vertex -5.97871994186824 0.78711341272255 3.0
vertex -8.45989944764369e-015 -9.25301502086029e-016 3.0
endloop
endfacet
facet normal 1.86283309971083e-033 9.31416549855415e-034 1.0
outer loop
vertex -3.64934853594556 9.48044584932412 3.0
vertex -8.45989944764369e-015 -9.25301502086029e-016 3.0
vertex -2.8199664825479e-015 9.0 3.0
endloop
endfacet
facet normal 1.86283309971083e-033 9.31416549855415e-034 1.0
outer loop
vertex -2.8199664825479e-015 9.0 3.0
vertex -8.45989944764369e-015 -9.25301502086029e-016 3.0
vertex 5.97871994186823 0.787113412722521 3.0
endloop
endfacet
facet normal 1.86283309971083e-033 9.31416549855415e-034 1.0
outer loop
vertex -2.8199664825479e-015 9.0 3.0
vertex 5.97871994186823 0.787113412722521 3.0
vertex 3.64934853594554 9.48044584932414 3.0
endloop
endfacet
facet normal 1.86283309971083e-033 9.31416549855415e-034 1.0
outer loop
vertex 3.64934853594554 9.48044584932414 3.0
vertex 5.97871994186823 0.787113412722521 3.0
vertex 7.05 10.8890418066394 3.0
endloop
endfacet
facet normal 1.86283309971083e-033 9.31416549855415e-034 1.0
outer loop
vertex 7.05 10.8890418066394 3.0
vertex 5.97871994186823 0.787113412722521 3.0
vertex 11.55 3.09481317257947 3.0
endloop
endfacet
facet normal 1.86283309971083e-033 9.31416549855415e-034 1.0
outer loop
vertex 7.05 10.8890418066394 3.0
vertex 11.55 3.09481317257947 3.0
vertex 9.97020561473032 13.1297943852697 3.0
endloop
endfacet
facet normal 1.86283309971083e-033 9.31416549855415e-034 1.0
outer loop
vertex 9.97020561473032 13.1297943852697 3.0
vertex 11.55 3.09481317257947 3.0
vertex 12.2109581933606 16.05 3.0
endloop
endfacet
facet normal 1.86283309971083e-033 9.31416549855415e-034 1.0
outer loop
vertex 12.2109581933606 16.05 3.0
vertex 11.55 3.09481317257947 3.0
vertex 16.3341666454092 6.76583335459074 3.0
endloop
endfacet
facet normal 1.86283309971083e-033 9.31416549855415e-034 1.0
outer loop
vertex 12.2109581933606 16.05 3.0
vertex 16.3341666454092 6.76583335459074 3.0
vertex 13.6195541506759 19.4506514640545 3.0
endloop
endfacet
facet normal 1.86283309971083e-033 9.31416549855415e-034 1.0
outer loop
vertex 13.6195541506759 19.4506514640545 3.0
vertex 16.3341666454092 6.76583335459074 3.0
vertex 14.1 23.1 3.0
endloop
endfacet
facet normal 1.86283309971083e-033 9.31416549855415e-034 1.0
outer loop
vertex -14.1 23.1 3.0
vertex -11.55 43.1051868274205 3.0
vertex -16.3341666454092 39.4341666454092 3.0
endloop
endfacet
facet normal 1.86283309971083e-033 9.31416549855415e-034 1.0
outer loop
vertex -11.55 43.1051868274205 3.0
vertex -14.1 23.1 3.0
vertex -13.6195541506759 26.7493485359456 3.0
endloop
endfacet
facet normal 1.86283309971083e-033 9.31416549855415e-034 1.0
outer loop
vertex -11.55 43.1051868274205 3.0
vertex -13.6195541506759 26.7493485359456 3.0
vertex -12.2109581933606 30.15 3.0
endloop
endfacet
facet normal 1.86283309971083e-033 9.31416549855415e-034 1.0
outer loop
vertex -11.55 43.1051868274205 3.0
vertex -12.2109581933606 30.15 3.0
vertex -9.97020561473033 33.0702056147303 3.0
endloop
endfacet
facet normal 1.86283309971083e-033 9.31416549855415e-034 1.0
outer loop
vertex -11.55 43.1051868274205 3.0
vertex -9.97020561473033 33.0702056147303 3.0
vertex -5.97871994186821 45.4128865872775 3.0
endloop
endfacet
facet normal 1.86283309971083e-033 9.31416549855415e-034 1.0
outer loop
vertex -5.97871994186821 45.4128865872775 3.0
vertex -9.97020561473033 33.0702056147303 3.0
vertex -7.05000000000001 35.3109581933606 3.0
endloop
endfacet
facet normal 1.86283309971083e-033 9.31416549855415e-034 1.0
outer loop
vertex -5.97871994186821 45.4128865872775 3.0
vertex -7.05000000000001 35.3109581933606 3.0
vertex -3.64934853594554 36.7195541506759 3.0
endloop
endfacet
facet normal 1.86283309971083e-033 9.31416549855415e-034 1.0
outer loop
vertex -5.97871994186821 45.4128865872775 3.0
vertex -3.64934853594554 36.7195541506759 3.0
vertex 1.69197988952874e-014 46.2 3.0
endloop
endfacet
facet normal 1.86283309971083e-033 9.31416549855415e-034 1.0
outer loop
vertex 1.69197988952874e-014 46.2 3.0
vertex -3.64934853594554 36.7195541506759 3.0
vertex 5.63993296509579e-015 37.2 3.0
endloop
endfacet
facet normal 1.86283309971083e-033 9.31416549855415e-034 1.0
outer loop
vertex 1.69197988952874e-014 46.2 3.0
vertex 5.63993296509579e-015 37.2 3.0
vertex 3.64934853594555 36.7195541506759 3.0
endloop
endfacet
facet normal 1.86283309971083e-033 9.31416549855415e-034 1.0
outer loop
vertex 1.69197988952874e-014 46.2 3.0
vertex 3.64934853594555 36.7195541506759 3.0
vertex 5.97871994186823 45.4128865872775 3.0
endloop
endfacet
facet normal 1.86283309971083e-033 9.31416549855415e-034 1.0
outer loop
vertex 5.97871994186823 45.4128865872775 3.0
vertex 3.64934853594555 36.7195541506759 3.0
vertex 7.05000000000001 35.3109581933606 3.0
endloop
endfacet
facet normal 1.86283309971083e-033 9.31416549855415e-034 1.0
outer loop
vertex 5.97871994186823 45.4128865872775 3.0
vertex 7.05000000000001 35.3109581933606 3.0
vertex 11.55 43.1051868274205 3.0
endloop
endfacet
facet normal 1.86283309971083e-033 9.31416549855415e-034 1.0
outer loop
vertex 11.55 43.1051868274205 3.0
vertex 7.05000000000001 35.3109581933606 3.0
vertex 9.97020561473033 33.0702056147303 3.0
endloop
endfacet
facet normal 1.86283309971083e-033 9.31416549855415e-034 1.0
outer loop
vertex 11.55 43.1051868274205 3.0
vertex 9.97020561473033 33.0702056147303 3.0
vertex 12.2109581933606 30.15 3.0
endloop
endfacet
facet normal 1.86283309971083e-033 9.31416549855415e-034 1.0
outer loop
vertex 11.55 43.1051868274205 3.0
vertex 12.2109581933606 30.15 3.0
vertex 16.3341666454092 39.4341666454092 3.0
endloop
endfacet
facet normal 1.86283309971083e-033 9.31416549855415e-034 1.0
outer loop
vertex 16.3341666454092 39.4341666454092 3.0
vertex 12.2109581933606 30.15 3.0
vertex 13.6195541506759 26.7493485359455 3.0
endloop
endfacet
facet normal 1.86283309971083e-033 9.31416549855415e-034 1.0
outer loop
vertex 16.3341666454092 39.4341666454092 3.0
vertex 13.6195541506759 26.7493485359455 3.0
vertex 14.1 23.1 3.0
endloop
endfacet
facet normal 1.86283309971083e-033 9.31416549855415e-034 1.0
outer loop
vertex 16.3341666454092 39.4341666454092 3.0
vertex 14.1 23.1 3.0
vertex 16.3341666454092 6.76583335459074 3.0
endloop
endfacet
facet normal 1.86283309971083e-033 9.31416549855415e-034 1.0
outer loop
vertex 16.3341666454092 39.4341666454092 3.0
vertex 16.3341666454092 6.76583335459074 3.0
vertex 20.0051868274205 11.55 3.0
endloop
endfacet
facet normal 1.86283309971083e-033 9.31416549855415e-034 1.0
outer loop
vertex 16.3341666454092 39.4341666454092 3.0
vertex 20.0051868274205 11.55 3.0
vertex 20.0051868274205 34.65 3.0
endloop
endfacet
facet normal 1.86283309971083e-033 9.31416549855415e-034 1.0
outer loop
vertex 20.0051868274205 34.65 3.0
vertex 20.0051868274205 11.55 3.0
vertex 22.3128865872775 17.1212800581318 3.0
endloop
endfacet
facet normal 1.86283309971083e-033 9.31416549855415e-034 1.0
outer loop
vertex 20.0051868274205 34.65 3.0
vertex 22.3128865872775 17.1212800581318 3.0
vertex 22.3128865872775 29.0787199418682 3.0
endloop
endfacet
facet normal 1.86283309971083e-033 9.31416549855415e-034 1.0
outer loop
vertex 22.3128865872775 29.0787199418682 3.0
vertex 22.3128865872775 17.1212800581318 3.0
vertex 23.1 23.1 3.0
endloop
endfacet
facet normal 0.707106781186547 -0.707106781186548 0.0
outer loop
vertex 16.3341666454092 6.76583335459074 3.0
vertex 11.55 3.09481317257947 0.0
vertex 16.3341666454092 6.76583335459074 0.0
endloop
endfacet
facet normal 0.5 -0.866025403784439 0.0
outer loop
vertex 11.55 3.09481317257947 0.0
vertex 16.3341666454092 6.76583335459074 3.0
vertex 11.55 3.09481317257947 3.0
endloop
endfacet
facet normal 0.965925826289068 -0.258819045102521 0.0
outer loop
vertex 22.3128865872775 17.1212800581318 0.0
vertex 20.0051868274205 11.55 3.0
vertex 20.0051868274205 11.55 0.0
endloop
endfacet
facet normal 0.866025403784439 -0.5 0.0
outer loop
vertex 20.0051868274205 11.55 3.0
vertex 22.3128865872775 17.1212800581318 0.0
vertex 22.3128865872775 17.1212800581318 3.0
endloop
endfacet
facet normal -0.866025403784439 0.5 0.0
outer loop
vertex 9.61288198200727 17.55 12.0
vertex 7.84888527117068 15.2511147288293 0.0
vertex 7.84888527117068 15.2511147288293 12.0
endloop
endfacet
facet normal -0.707106781186547 0.707106781186548 -9.5442928027217e-018
outer loop
vertex 7.84888527117068 15.2511147288293 0.0
vertex 9.61288198200727 17.55 12.0
vertex 9.61288198200727 17.55 0.0
endloop
endfacet
facet normal 0.866025403784439 -0.5 0.0
outer loop
vertex 12.2109581933606 16.05 3.0
vertex 9.97020561473032 13.1297943852697 12.0
vertex 9.97020561473032 13.1297943852697 3.0
endloop
endfacet
facet normal 0.707106781186547 -0.707106781186548 0.0
outer loop
vertex 9.97020561473032 13.1297943852697 12.0
vertex 12.2109581933606 16.05 3.0
vertex 12.2109581933606 16.05 12.0
endloop
endfacet
facet normal 0.866025403784439 -0.5 0.0
outer loop
vertex 20.0051868274205 11.55 0.0
vertex 16.3341666454092 6.76583335459074 3.0
vertex 16.3341666454092 6.76583335459074 0.0
endloop
endfacet
facet normal 0.707106781186547 -0.707106781186548 0.0
outer loop
vertex 16.3341666454092 6.76583335459074 3.0
vertex 20.0051868274205 11.55 0.0
vertex 20.0051868274205 11.55 3.0
endloop
endfacet
endsolid PulleyV6
