solid ToasterButton
facet normal 0.0 -0.965925826289069 0.25881904510252
outer loop
vertex 40.0 0.102222521132796 17.7764571353076
vertex -2.8199664825479e-015 0.0256654158785697 17.3915785766602
vertex 40.0 0.0256654158785697 17.3915785766602
endloop
endfacet
facet normal 1.62879826103825e-034 -0.99144486137381 0.130526192220051
outer loop
vertex -2.8199664825479e-015 0.0256654158785697 17.3915785766602
vertex 40.0 0.102222521132796 17.7764571353076
vertex -2.8199664825479e-015 0.102222521132796 17.7764571353076
endloop
endfacet
facet normal 0.0 -1.0 0.0
outer loop
vertex 36.8 16.8 17.0
vertex 23.0 16.8 0.0
vertex 36.8 16.8 0.0
endloop
endfacet
facet normal 0.0 -1.0 0.0
outer loop
vertex 23.0 16.8 0.0
vertex 36.8 16.8 17.0
vertex 23.0 16.8 17.0
endloop
endfacet
facet normal 0.0 0.423562101385843 0.905867068763187
outer loop
vertex 40.0 18.1712051582267 19.8122475608064
vertex 2.8199664825479e-015 18.531697473432 19.6436898465159
vertex 2.8199664825479e-015 18.1712051582267 19.8122475608064
endloop
endfacet
facet normal 0.0 0.423562101385843 0.905867068763187
outer loop
vertex 2.8199664825479e-015 18.531697473432 19.6436898465159
vertex 40.0 18.1712051582267 19.8122475608064
vertex 40.0 18.531697473432 19.6436898465159
endloop
endfacet
facet normal 0.0 0.545163096872286 0.838330005313312
outer loop
vertex 40.0 18.531697473432 19.6436898465159
vertex 2.8199664825479e-015 18.8653132267169 19.4267406784395
vertex 2.8199664825479e-015 18.531697473432 19.6436898465159
endloop
endfacet
facet normal 0.0 0.545163096872286 0.838330005313312
outer loop
vertex 2.8199664825479e-015 18.8653132267169 19.4267406784395
vertex 40.0 18.531697473432 19.6436898465159
vertex 40.0 18.8653132267169 19.4267406784395
endloop
endfacet
facet normal 0.0 0.656216245662871 0.754572885099992
outer loop
vertex 40.0 18.8653132267169 19.4267406784395
vertex 2.8199664825479e-015 19.1655976014566 19.1655976014566
vertex 2.8199664825479e-015 18.8653132267169 19.4267406784395
endloop
endfacet
facet normal 0.0 0.656216245662871 0.754572885099992
outer loop
vertex 2.8199664825479e-015 19.1655976014566 19.1655976014566
vertex 40.0 18.8653132267169 19.4267406784395
vertex 40.0 19.1655976014566 19.1655976014566
endloop
endfacet
facet normal 0.0 0.754572885099992 0.656216245662871
outer loop
vertex 2.8199664825479e-015 19.1655976014566 19.1655976014566
vertex 40.0 19.4267406784395 18.8653132267169
vertex 2.8199664825479e-015 19.4267406784395 18.8653132267169
endloop
endfacet
facet normal 0.0 0.754572885099992 0.656216245662871
outer loop
vertex 40.0 19.4267406784395 18.8653132267169
vertex 2.8199664825479e-015 19.1655976014566 19.1655976014566
vertex 40.0 19.1655976014566 19.1655976014566
endloop
endfacet
facet normal 0.0 0.838330005313309 0.545163096872291
outer loop
vertex 2.8199664825479e-015 19.4267406784395 18.8653132267169
vertex 40.0 19.6436898465159 18.531697473432
vertex 2.8199664825479e-015 19.6436898465159 18.531697473432
endloop
endfacet
facet normal 0.0 0.838330005313309 0.545163096872291
outer loop
vertex 40.0 19.6436898465159 18.531697473432
vertex 2.8199664825479e-015 19.4267406784395 18.8653132267169
vertex 40.0 19.4267406784395 18.8653132267169
endloop
endfacet
facet normal 0.0 0.90586706876319 0.423562101385837
outer loop
vertex 2.8199664825479e-015 19.6436898465159 18.531697473432
vertex 40.0 19.8122475608064 18.1712051582267
vertex 2.8199664825479e-015 19.8122475608064 18.1712051582267
endloop
endfacet
facet normal 0.0 0.90586706876319 0.423562101385837
outer loop
vertex 40.0 19.8122475608064 18.1712051582267
vertex 2.8199664825479e-015 19.6436898465159 18.531697473432
vertex 40.0 19.6436898465159 18.531697473432
endloop
endfacet
facet normal 0.0 0.955877364493508 0.293766002200637
outer loop
vertex 2.8199664825479e-015 19.8122475608064 18.1712051582267
vertex 40.0 19.92915255704 17.7908111069791
vertex 2.8199664825479e-015 19.92915255704 17.7908111069791
endloop
endfacet
facet normal 0.0 0.955877364493508 0.293766002200637
outer loop
vertex 40.0 19.92915255704 17.7908111069791
vertex 2.8199664825479e-015 19.8122475608064 18.1712051582267
vertex 40.0 19.8122475608064 18.1712051582267
endloop
endfacet
facet normal -9.81494968600576e-033 0.987393290449754 0.15828610164764
outer loop
vertex 2.8199664825479e-015 19.92915255704 17.7908111069791
vertex 40.0 19.992142950681 17.3978752054915
vertex 2.8199664825479e-015 19.992142950681 17.3978752054915
endloop
endfacet
facet normal -9.81494968600576e-033 0.987393290449754 0.15828610164764
outer loop
vertex 40.0 19.992142950681 17.3978752054915
vertex 2.8199664825479e-015 19.92915255704 17.7908111069791
vertex 40.0 19.92915255704 17.7908111069791
endloop
endfacet
facet normal -1.0217269864304e-016 1.0 0.0
outer loop
vertex 23.0 3.2 17.0
vertex 36.8 3.2 0.0
vertex 23.0 3.2 0.0
endloop
endfacet
facet normal -1.0217269864304e-016 1.0 0.0
outer loop
vertex 36.8 3.2 0.0
vertex 23.0 3.2 17.0
vertex 36.8 3.2 17.0
endloop
endfacet
facet normal 1.0 0.0 0.0
outer loop
vertex 23.0 16.8 0.0
vertex 23.0 3.2 17.0
vertex 23.0 3.2 0.0
endloop
endfacet
facet normal 1.0 0.0 0.0
outer loop
vertex 23.0 3.2 17.0
vertex 23.0 16.8 0.0
vertex 23.0 16.8 17.0
endloop
endfacet
facet normal -1.0 -0.0 -0.0
outer loop
vertex 36.8 16.8 17.0
vertex 36.8 3.2 0.0
vertex 36.8 3.2 17.0
endloop
endfacet
facet normal -1.0 -0.0 -0.0
outer loop
vertex 36.8 3.2 0.0
vertex 36.8 16.8 17.0
vertex 36.8 16.8 0.0
endloop
endfacet
facet normal -5.54218739914127e-005 0.000400246370518192 0.999999918365626
outer loop
vertex 40.0 3.0 20.0
vertex 2.8199664825479e-015 17.3978752054915 19.992142950681
vertex -2.8199664825479e-015 3.0 20.0
endloop
endfacet
facet normal -5.54218739914127e-005 0.000400246370518192 0.999999918365626
outer loop
vertex 2.8199664825479e-015 17.3978752054915 19.992142950681
vertex 40.0 3.0 20.0
vertex 40.0 17.3978752054915 19.992142950681
endloop
endfacet
facet normal -5.54218739914127e-005 0.000400246370518192 0.999999918365626
outer loop
vertex 40.0 17.3978752054915 19.992142950681
vertex 40.0 3.0 20.0
vertex 40.0 17.0 20.0
endloop
endfacet
facet normal -5.55476198036855e-005 0.99999994409309 0.000329739713494493
outer loop
vertex 2.8199664825479e-015 19.992142950681 17.3978752054915
vertex 40.0 20.0 0.0
vertex 0.0 20.0 0.0
endloop
endfacet
facet normal -5.55476198036855e-005 0.99999994409309 0.000329739713494493
outer loop
vertex 40.0 20.0 0.0
vertex 2.8199664825479e-015 19.992142950681 17.3978752054915
vertex 40.0 20.0 17.0
endloop
endfacet
facet normal -5.55476198036855e-005 0.99999994409309 0.000329739713494493
outer loop
vertex 40.0 20.0 17.0
vertex 2.8199664825479e-015 19.992142950681 17.3978752054915
vertex 40.0 19.992142950681 17.3978752054915
endloop
endfacet
facet normal 0.0 -1.0 0.0
outer loop
vertex 20.6 14.1 17.5
vertex 19.4 14.1 0.0
vertex 20.6 14.1 0.0
endloop
endfacet
facet normal 0.0 -1.0 0.0
outer loop
vertex 19.4 14.1 0.0
vertex 20.6 14.1 17.5
vertex 19.4 14.1 17.5
endloop
endfacet
facet normal 1.0 0.0 0.0
outer loop
vertex 19.4 14.1 0.0
vertex 19.4 5.9 17.5
vertex 19.4 5.9 0.0
endloop
endfacet
facet normal 1.0 0.0 0.0
outer loop
vertex 19.4 5.9 17.5
vertex 19.4 14.1 0.0
vertex 19.4 14.1 17.5
endloop
endfacet
facet normal 0.0 0.0 -1.0
outer loop
vertex 17.0 16.8 17.1307
vertex 3.2 3.2 17.1307
vertex 3.2 16.8 17.1307
endloop
endfacet
facet normal 0.0 0.0 -1.0
outer loop
vertex 3.2 3.2 17.1307
vertex 17.0 16.8 17.1307
vertex 17.0 3.2 17.1307
endloop
endfacet
facet normal -1.0 -0.0 -0.0
outer loop
vertex 20.6 14.1 17.5
vertex 20.6 5.9 0.0
vertex 20.6 5.9 17.5
endloop
endfacet
facet normal -1.0 -0.0 -0.0
outer loop
vertex 20.6 5.9 0.0
vertex 20.6 14.1 17.5
vertex 20.6 14.1 0.0
endloop
endfacet
facet normal 1.62879826103825e-034 -0.99144486137381 0.130526192220051
outer loop
vertex 40.0 0.0256654158785697 17.3915785766602
vertex -2.8199664825479e-015 7.04991620636974e-016 17.0
vertex 40.0 7.04991620636974e-016 17.0
endloop
endfacet
facet normal 3.25062175786509e-034 -0.997858923238604 0.0654031292301439
outer loop
vertex -2.8199664825479e-015 7.04991620636974e-016 17.0
vertex 40.0 0.0256654158785697 17.3915785766602
vertex -2.8199664825479e-015 0.0256654158785697 17.3915785766602
endloop
endfacet
facet normal 0.0 0.0 -1.0
outer loop
vertex 0.0 20.0 0.0
vertex 3.2 16.8 0.0
vertex 0.0 0.0 0.0
endloop
endfacet
facet normal 0.0 0.0 -1.0
outer loop
vertex 3.2 16.8 0.0
vertex 0.0 20.0 0.0
vertex 40.0 20.0 0.0
endloop
endfacet
facet normal 0.0 0.0 -1.0
outer loop
vertex 3.2 16.8 0.0
vertex 40.0 20.0 0.0
vertex 17.0 16.8 0.0
endloop
endfacet
facet normal 0.0 0.0 -1.0
outer loop
vertex 17.0 16.8 0.0
vertex 40.0 20.0 0.0
vertex 23.0 16.8 0.0
endloop
endfacet
facet normal 0.0 0.0 -1.0
outer loop
vertex 17.0 16.8 0.0
vertex 23.0 16.8 0.0
vertex 19.4 14.1 0.0
endloop
endfacet
facet normal 0.0 0.0 -1.0
outer loop
vertex 17.0 16.8 0.0
vertex 19.4 14.1 0.0
vertex 17.0 3.2 0.0
endloop
endfacet
facet normal 0.0 0.0 -1.0
outer loop
vertex 19.4 14.1 0.0
vertex 23.0 16.8 0.0
vertex 20.6 14.1 0.0
endloop
endfacet
facet normal 0.0 0.0 -1.0
outer loop
vertex 20.6 14.1 0.0
vertex 23.0 16.8 0.0
vertex 20.6 5.9 0.0
endloop
endfacet
facet normal 0.0 0.0 -1.0
outer loop
vertex 23.0 16.8 0.0
vertex 40.0 20.0 0.0
vertex 36.8 16.8 0.0
endloop
endfacet
facet normal 0.0 0.0 -1.0
outer loop
vertex 36.8 16.8 0.0
vertex 40.0 20.0 0.0
vertex 36.8 3.2 0.0
endloop
endfacet
facet normal 0.0 0.0 -1.0
outer loop
vertex 0.0 0.0 0.0
vertex 3.2 3.2 0.0
vertex 40.0 0.0 0.0
endloop
endfacet
facet normal 0.0 0.0 -1.0
outer loop
vertex 3.2 3.2 0.0
vertex 0.0 0.0 0.0
vertex 3.2 16.8 0.0
endloop
endfacet
facet normal 0.0 0.0 -1.0
outer loop
vertex 40.0 0.0 0.0
vertex 3.2 3.2 0.0
vertex 17.0 3.2 0.0
endloop
endfacet
facet normal 0.0 0.0 -1.0
outer loop
vertex 40.0 0.0 0.0
vertex 17.0 3.2 0.0
vertex 23.0 3.2 0.0
endloop
endfacet
facet normal 0.0 0.0 -1.0
outer loop
vertex 23.0 3.2 0.0
vertex 17.0 3.2 0.0
vertex 19.4 5.9 0.0
endloop
endfacet
facet normal 0.0 0.0 -1.0
outer loop
vertex 19.4 5.9 0.0
vertex 17.0 3.2 0.0
vertex 19.4 14.1 0.0
endloop
endfacet
facet normal 0.0 0.0 -1.0
outer loop
vertex 23.0 3.2 0.0
vertex 19.4 5.9 0.0
vertex 20.6 5.9 0.0
endloop
endfacet
facet normal 0.0 0.0 -1.0
outer loop
vertex 23.0 3.2 0.0
vertex 20.6 5.9 0.0
vertex 23.0 16.8 0.0
endloop
endfacet
facet normal 0.0 0.0 -1.0
outer loop
vertex 40.0 0.0 0.0
vertex 23.0 3.2 0.0
vertex 36.8 3.2 0.0
endloop
endfacet
facet normal 0.0 0.0 -1.0
outer loop
vertex 40.0 0.0 0.0
vertex 36.8 3.2 0.0
vertex 40.0 20.0 0.0
endloop
endfacet
facet normal -1.0 -0.0 -0.0
outer loop
vertex 17.0 16.8 17.1307
vertex 17.0 3.2 0.0
vertex 17.0 3.2 17.1307
endloop
endfacet
facet normal -1.0 -0.0 -0.0
outer loop
vertex 17.0 3.2 0.0
vertex 17.0 16.8 17.1307
vertex 17.0 16.8 0.0
endloop
endfacet
facet normal 3.06978732015744e-034 -1.0 4.14700953315867e-017
outer loop
vertex 40.0 7.04991620636974e-016 17.0
vertex 0.0 0.0 0.0
vertex 40.0 0.0 0.0
endloop
endfacet
facet normal 3.06978732015744e-034 -1.0 4.14700953315867e-017
outer loop
vertex 0.0 0.0 0.0
vertex 40.0 7.04991620636974e-016 17.0
vertex -2.8199664825479e-015 7.04991620636974e-016 17.0
endloop
endfacet
facet normal -1.0 2.02457674745324e-016 -4.80903588268059e-017
outer loop
vertex -2.8199664825479e-015 7.04991620636974e-016 17.0
vertex 0.0 20.0 0.0
vertex 0.0 0.0 0.0
endloop
endfacet
facet normal -1.0 2.02457674745324e-016 -4.80903588268059e-017
outer loop
vertex 0.0 20.0 0.0
vertex -2.8199664825479e-015 7.04991620636974e-016 17.0
vertex -2.8199664825479e-015 0.0256654158785697 17.3915785766602
endloop
endfacet
facet normal -1.0 2.02457674745324e-016 -4.80903588268059e-017
outer loop
vertex 0.0 20.0 0.0
vertex -2.8199664825479e-015 0.0256654158785697 17.3915785766602
vertex -2.8199664825479e-015 0.102222521132796 17.7764571353076
endloop
endfacet
facet normal -1.0 2.02457674745324e-016 -4.80903588268059e-017
outer loop
vertex 0.0 20.0 0.0
vertex -2.8199664825479e-015 0.102222521132796 17.7764571353076
vertex -2.8199664825479e-015 0.22836140246614 18.1480502970953
endloop
endfacet
facet normal -1.0 2.02457674745324e-016 -4.80903588268059e-017
outer loop
vertex 0.0 20.0 0.0
vertex -2.8199664825479e-015 0.22836140246614 18.1480502970953
vertex -2.8199664825479e-015 0.401923788646684 18.5
endloop
endfacet
facet normal -1.0 2.02457674745324e-016 -4.80903588268059e-017
outer loop
vertex 0.0 20.0 0.0
vertex -2.8199664825479e-015 0.401923788646684 18.5
vertex -2.8199664825479e-015 0.619939979126295 18.8262842870262
endloop
endfacet
facet normal -1.0 2.02457674745324e-016 -4.80903588268059e-017
outer loop
vertex 0.0 20.0 0.0
vertex -2.8199664825479e-015 0.619939979126295 18.8262842870262
vertex -2.8199664825479e-015 0.878679656440358 19.1213203435596
endloop
endfacet
facet normal -1.0 2.02457674745324e-016 -4.80903588268059e-017
outer loop
vertex 0.0 20.0 0.0
vertex -2.8199664825479e-015 0.878679656440358 19.1213203435596
vertex -2.8199664825479e-015 1.17371571297384 19.3800600208737
endloop
endfacet
facet normal -1.0 2.02457674745324e-016 -4.80903588268059e-017
outer loop
vertex 0.0 20.0 0.0
vertex -2.8199664825479e-015 1.17371571297384 19.3800600208737
vertex -2.8199664825479e-015 1.5 19.5980762113533
endloop
endfacet
facet normal -1.0 2.02457674745324e-016 -4.80903588268059e-017
outer loop
vertex 0.0 20.0 0.0
vertex -2.8199664825479e-015 1.5 19.5980762113533
vertex -2.8199664825479e-015 1.85194970290473 19.7716385975339
endloop
endfacet
facet normal -1.0 2.02457674745324e-016 -4.80903588268059e-017
outer loop
vertex 0.0 20.0 0.0
vertex -2.8199664825479e-015 1.85194970290473 19.7716385975339
vertex -2.8199664825479e-015 2.22354286469244 19.8977774788672
endloop
endfacet
facet normal -1.0 2.02457674745324e-016 -4.80903588268059e-017
outer loop
vertex 0.0 20.0 0.0
vertex -2.8199664825479e-015 2.22354286469244 19.8977774788672
vertex -2.8199664825479e-015 2.60842142333985 19.9743345841214
endloop
endfacet
facet normal -1.0 2.02457674745324e-016 -4.80903588268059e-017
outer loop
vertex 0.0 20.0 0.0
vertex -2.8199664825479e-015 2.60842142333985 19.9743345841214
vertex -2.8199664825479e-015 3.0 20.0
endloop
endfacet
facet normal -1.0 2.02457674745324e-016 -4.80903588268059e-017
outer loop
vertex 0.0 20.0 0.0
vertex -2.8199664825479e-015 3.0 20.0
vertex 2.8199664825479e-015 17.3978752054915 19.992142950681
endloop
endfacet
facet normal -1.0 2.02457674745324e-016 -4.80903588268059e-017
outer loop
vertex 0.0 20.0 0.0
vertex 2.8199664825479e-015 17.3978752054915 19.992142950681
vertex 2.8199664825479e-015 17.7908111069791 19.92915255704
endloop
endfacet
facet normal -1.0 2.02457674745324e-016 -4.80903588268059e-017
outer loop
vertex 0.0 20.0 0.0
vertex 2.8199664825479e-015 17.7908111069791 19.92915255704
vertex 2.8199664825479e-015 18.1712051582267 19.8122475608064
endloop
endfacet
facet normal -1.0 2.02457674745324e-016 -4.80903588268059e-017
outer loop
vertex 0.0 20.0 0.0
vertex 2.8199664825479e-015 18.1712051582267 19.8122475608064
vertex 2.8199664825479e-015 18.531697473432 19.6436898465159
endloop
endfacet
facet normal -1.0 2.02457674745324e-016 -4.80903588268059e-017
outer loop
vertex 0.0 20.0 0.0
vertex 2.8199664825479e-015 18.531697473432 19.6436898465159
vertex 2.8199664825479e-015 18.8653132267169 19.4267406784395
endloop
endfacet
facet normal -1.0 2.02457674745324e-016 -4.80903588268059e-017
outer loop
vertex 0.0 20.0 0.0
vertex 2.8199664825479e-015 18.8653132267169 19.4267406784395
vertex 2.8199664825479e-015 19.1655976014566 19.1655976014566
endloop
endfacet
facet normal -1.0 2.02457674745324e-016 -4.80903588268059e-017
outer loop
vertex 0.0 20.0 0.0
vertex 2.8199664825479e-015 19.1655976014566 19.1655976014566
vertex 2.8199664825479e-015 19.4267406784395 18.8653132267169
endloop
endfacet
facet normal -1.0 2.02457674745324e-016 -4.80903588268059e-017
outer loop
vertex 0.0 20.0 0.0
vertex 2.8199664825479e-015 19.4267406784395 18.8653132267169
vertex 2.8199664825479e-015 19.6436898465159 18.531697473432
endloop
endfacet
facet normal -1.0 2.02457674745324e-016 -4.80903588268059e-017
outer loop
vertex 0.0 20.0 0.0
vertex 2.8199664825479e-015 19.6436898465159 18.531697473432
vertex 2.8199664825479e-015 19.8122475608064 18.1712051582267
endloop
endfacet
facet normal -1.0 2.02457674745324e-016 -4.80903588268059e-017
outer loop
vertex 0.0 20.0 0.0
vertex 2.8199664825479e-015 19.8122475608064 18.1712051582267
vertex 2.8199664825479e-015 19.92915255704 17.7908111069791
endloop
endfacet
facet normal -1.0 2.02457674745324e-016 -4.80903588268059e-017
outer loop
vertex 0.0 20.0 0.0
vertex 2.8199664825479e-015 19.92915255704 17.7908111069791
vertex 2.8199664825479e-015 19.992142950681 17.3978752054915
endloop
endfacet
facet normal 0.0 -1.0 0.0
outer loop
vertex 17.0 16.8 17.1307
vertex 3.2 16.8 0.0
vertex 17.0 16.8 0.0
endloop
endfacet
facet normal 0.0 -1.0 0.0
outer loop
vertex 3.2 16.8 0.0
vertex 17.0 16.8 17.1307
vertex 3.2 16.8 17.1307
endloop
endfacet
facet normal 0.0 1.0 0.0
outer loop
vertex 3.2 3.2 17.1307
vertex 17.0 3.2 0.0
vertex 3.2 3.2 0.0
endloop
endfacet
facet normal 0.0 1.0 0.0
outer loop
vertex 17.0 3.2 0.0
vertex 3.2 3.2 17.1307
vertex 17.0 3.2 17.1307
endloop
endfacet
facet normal 1.0 0.0 0.0
outer loop
vertex 3.2 16.8 0.0
vertex 3.2 3.2 17.1307
vertex 3.2 3.2 0.0
endloop
endfacet
facet normal 1.0 0.0 0.0
outer loop
vertex 3.2 3.2 17.1307
vertex 3.2 16.8 0.0
vertex 3.2 16.8 17.1307
endloop
endfacet
facet normal 0.0 0.0 -1.0
outer loop
vertex 20.6 14.1 17.5
vertex 19.4 5.9 17.5
vertex 19.4 14.1 17.5
endloop
endfacet
facet normal 0.0 0.0 -1.0
outer loop
vertex 19.4 5.9 17.5
vertex 20.6 14.1 17.5
vertex 20.6 5.9 17.5
endloop
endfacet
facet normal 0.0 1.0 0.0
outer loop
vertex 19.4 5.9 17.5
vertex 20.6 5.9 0.0
vertex 19.4 5.9 0.0
endloop
endfacet
facet normal 0.0 1.0 0.0
outer loop
vertex 20.6 5.9 0.0
vertex 19.4 5.9 17.5
vertex 20.6 5.9 17.5
endloop
endfacet
facet normal 1.0 0.0 0.0
outer loop
vertex 40.0 20.0 0.0
vertex 40.0 7.04991620636974e-016 17.0
vertex 40.0 0.0 0.0
endloop
endfacet
facet normal 1.0 0.0 0.0
outer loop
vertex 40.0 7.04991620636974e-016 17.0
vertex 40.0 20.0 0.0
vertex 40.0 0.0256654158785697 17.3915785766602
endloop
endfacet
facet normal 1.0 0.0 0.0
outer loop
vertex 40.0 0.0256654158785697 17.3915785766602
vertex 40.0 20.0 0.0
vertex 40.0 0.102222521132796 17.7764571353076
endloop
endfacet
facet normal 1.0 0.0 0.0
outer loop
vertex 40.0 0.102222521132796 17.7764571353076
vertex 40.0 20.0 0.0
vertex 40.0 0.22836140246614 18.1480502970953
endloop
endfacet
facet normal 1.0 0.0 0.0
outer loop
vertex 40.0 0.22836140246614 18.1480502970953
vertex 40.0 20.0 0.0
vertex 40.0 0.401923788646684 18.5
endloop
endfacet
facet normal 1.0 0.0 0.0
outer loop
vertex 40.0 0.401923788646684 18.5
vertex 40.0 20.0 0.0
vertex 40.0 0.619939979126295 18.8262842870262
endloop
endfacet
facet normal 1.0 0.0 0.0
outer loop
vertex 40.0 0.619939979126295 18.8262842870262
vertex 40.0 20.0 0.0
vertex 40.0 0.878679656440358 19.1213203435596
endloop
endfacet
facet normal 1.0 0.0 0.0
outer loop
vertex 40.0 0.878679656440358 19.1213203435596
vertex 40.0 20.0 0.0
vertex 40.0 1.17371571297384 19.3800600208737
endloop
endfacet
facet normal 1.0 0.0 0.0
outer loop
vertex 40.0 1.17371571297384 19.3800600208737
vertex 40.0 20.0 0.0
vertex 40.0 1.5 19.5980762113533
endloop
endfacet
facet normal 1.0 0.0 0.0
outer loop
vertex 40.0 1.5 19.5980762113533
vertex 40.0 20.0 0.0
vertex 40.0 1.85194970290473 19.7716385975339
endloop
endfacet
facet normal 1.0 0.0 0.0
outer loop
vertex 40.0 1.85194970290473 19.7716385975339
vertex 40.0 20.0 0.0
vertex 40.0 2.22354286469244 19.8977774788672
endloop
endfacet
facet normal 1.0 0.0 0.0
outer loop
vertex 40.0 2.22354286469244 19.8977774788672
vertex 40.0 20.0 0.0
vertex 40.0 2.60842142333985 19.9743345841214
endloop
endfacet
facet normal 1.0 0.0 0.0
outer loop
vertex 40.0 2.60842142333985 19.9743345841214
vertex 40.0 20.0 0.0
vertex 40.0 3.0 20.0
endloop
endfacet
facet normal 1.0 0.0 0.0
outer loop
vertex 40.0 3.0 20.0
vertex 40.0 20.0 0.0
vertex 40.0 17.0 20.0
endloop
endfacet
facet normal 1.0 0.0 0.0
outer loop
vertex 40.0 17.0 20.0
vertex 40.0 20.0 0.0
vertex 40.0 17.3978752054915 19.992142950681
endloop
endfacet
facet normal 1.0 0.0 0.0
outer loop
vertex 40.0 17.3978752054915 19.992142950681
vertex 40.0 20.0 0.0
vertex 40.0 17.7908111069791 19.92915255704
endloop
endfacet
facet normal 1.0 0.0 0.0
outer loop
vertex 40.0 17.7908111069791 19.92915255704
vertex 40.0 20.0 0.0
vertex 40.0 18.1712051582267 19.8122475608064
endloop
endfacet
facet normal 1.0 0.0 0.0
outer loop
vertex 40.0 18.1712051582267 19.8122475608064
vertex 40.0 20.0 0.0
vertex 40.0 18.531697473432 19.6436898465159
endloop
endfacet
facet normal 1.0 0.0 0.0
outer loop
vertex 40.0 18.531697473432 19.6436898465159
vertex 40.0 20.0 0.0
vertex 40.0 18.8653132267169 19.4267406784395
endloop
endfacet
facet normal 1.0 0.0 0.0
outer loop
vertex 40.0 18.8653132267169 19.4267406784395
vertex 40.0 20.0 0.0
vertex 40.0 19.1655976014566 19.1655976014566
endloop
endfacet
facet normal 1.0 0.0 0.0
outer loop
vertex 40.0 19.1655976014566 19.1655976014566
vertex 40.0 20.0 0.0
vertex 40.0 19.4267406784395 18.8653132267169
endloop
endfacet
facet normal 1.0 0.0 0.0
outer loop
vertex 40.0 19.4267406784395 18.8653132267169
vertex 40.0 20.0 0.0
vertex 40.0 19.6436898465159 18.531697473432
endloop
endfacet
facet normal 1.0 0.0 0.0
outer loop
vertex 40.0 19.6436898465159 18.531697473432
vertex 40.0 20.0 0.0
vertex 40.0 19.8122475608064 18.1712051582267
endloop
endfacet
facet normal 1.0 0.0 0.0
outer loop
vertex 40.0 19.8122475608064 18.1712051582267
vertex 40.0 20.0 0.0
vertex 40.0 19.92915255704 17.7908111069791
endloop
endfacet
facet normal 1.0 0.0 0.0
outer loop
vertex 40.0 19.92915255704 17.7908111069791
vertex 40.0 20.0 0.0
vertex 40.0 19.992142950681 17.3978752054915
endloop
endfacet
facet normal 1.0 0.0 0.0
outer loop
vertex 40.0 19.992142950681 17.3978752054915
vertex 40.0 20.0 0.0
vertex 40.0 20.0 17.0
endloop
endfacet
facet normal 0.0 -0.923879532511287 0.38268343236509
outer loop
vertex 40.0 0.22836140246614 18.1480502970953
vertex -2.8199664825479e-015 0.102222521132796 17.7764571353076
vertex 40.0 0.102222521132796 17.7764571353076
endloop
endfacet
facet normal 0.0 -0.965925826289069 0.25881904510252
outer loop
vertex -2.8199664825479e-015 0.102222521132796 17.7764571353076
vertex 40.0 0.22836140246614 18.1480502970953
vertex -2.8199664825479e-015 0.22836140246614 18.1480502970953
endloop
endfacet
facet normal 0.0 -0.866025403784438 0.500000000000001
outer loop
vertex 40.0 0.401923788646684 18.5
vertex -2.8199664825479e-015 0.22836140246614 18.1480502970953
vertex 40.0 0.22836140246614 18.1480502970953
endloop
endfacet
facet normal 0.0 -0.923879532511287 0.38268343236509
outer loop
vertex -2.8199664825479e-015 0.22836140246614 18.1480502970953
vertex 40.0 0.401923788646684 18.5
vertex -2.8199664825479e-015 0.401923788646684 18.5
endloop
endfacet
facet normal 0.0 -0.793353340291235 0.608761429008721
outer loop
vertex 40.0 0.619939979126295 18.8262842870262
vertex -2.8199664825479e-015 0.401923788646684 18.5
vertex 40.0 0.401923788646684 18.5
endloop
endfacet
facet normal 0.0 -0.866025403784438 0.500000000000001
outer loop
vertex -2.8199664825479e-015 0.401923788646684 18.5
vertex 40.0 0.619939979126295 18.8262842870262
vertex -2.8199664825479e-015 0.619939979126295 18.8262842870262
endloop
endfacet
facet normal 0.0 -0.707106781186548 0.707106781186547
outer loop
vertex 40.0 0.878679656440358 19.1213203435596
vertex -2.8199664825479e-015 0.619939979126295 18.8262842870262
vertex 40.0 0.619939979126295 18.8262842870262
endloop
endfacet
facet normal 0.0 -0.793353340291235 0.608761429008721
outer loop
vertex -2.8199664825479e-015 0.619939979126295 18.8262842870262
vertex 40.0 0.878679656440358 19.1213203435596
vertex -2.8199664825479e-015 0.878679656440358 19.1213203435596
endloop
endfacet
facet normal 0.0 -0.707106781186548 0.707106781186547
outer loop
vertex 40.0 0.878679656440358 19.1213203435596
vertex -2.8199664825479e-015 1.17371571297384 19.3800600208737
vertex -2.8199664825479e-015 0.878679656440358 19.1213203435596
endloop
endfacet
facet normal 0.0 -0.60876142900872 0.793353340291236
outer loop
vertex -2.8199664825479e-015 1.17371571297384 19.3800600208737
vertex 40.0 0.878679656440358 19.1213203435596
vertex 40.0 1.17371571297384 19.3800600208737
endloop
endfacet
facet normal 0.0 -0.60876142900872 0.793353340291236
outer loop
vertex 40.0 1.17371571297384 19.3800600208737
vertex -2.8199664825479e-015 1.5 19.5980762113533
vertex -2.8199664825479e-015 1.17371571297384 19.3800600208737
endloop
endfacet
facet normal 0.0 -0.500000000000002 0.866025403784437
outer loop
vertex -2.8199664825479e-015 1.5 19.5980762113533
vertex 40.0 1.17371571297384 19.3800600208737
vertex 40.0 1.5 19.5980762113533
endloop
endfacet
facet normal 0.0 -0.500000000000002 0.866025403784437
outer loop
vertex 40.0 1.5 19.5980762113533
vertex -2.8199664825479e-015 1.85194970290473 19.7716385975339
vertex -2.8199664825479e-015 1.5 19.5980762113533
endloop
endfacet
facet normal 0.0 -0.382683432365091 0.923879532511286
outer loop
vertex -2.8199664825479e-015 1.85194970290473 19.7716385975339
vertex 40.0 1.5 19.5980762113533
vertex 40.0 1.85194970290473 19.7716385975339
endloop
endfacet
facet normal 0.0 -0.382683432365091 0.923879532511286
outer loop
vertex 40.0 1.85194970290473 19.7716385975339
vertex -2.8199664825479e-015 2.22354286469244 19.8977774788672
vertex -2.8199664825479e-015 1.85194970290473 19.7716385975339
endloop
endfacet
facet normal 0.0 -0.258819045102519 0.965925826289069
outer loop
vertex -2.8199664825479e-015 2.22354286469244 19.8977774788672
vertex 40.0 1.85194970290473 19.7716385975339
vertex 40.0 2.22354286469244 19.8977774788672
endloop
endfacet
facet normal 0.0 -0.258819045102519 0.965925826289069
outer loop
vertex 40.0 2.22354286469244 19.8977774788672
vertex -2.8199664825479e-015 2.60842142333985 19.9743345841214
vertex -2.8199664825479e-015 2.22354286469244 19.8977774788672
endloop
endfacet
facet normal -2.03599782629784e-035 -0.130526192220052 0.99144486137381
outer loop
vertex -2.8199664825479e-015 2.60842142333985 19.9743345841214
vertex 40.0 2.22354286469244 19.8977774788672
vertex 40.0 2.60842142333985 19.9743345841214
endloop
endfacet
facet normal -2.03599782629784e-035 -0.130526192220052 0.99144486137381
outer loop
vertex 40.0 2.60842142333985 19.9743345841214
vertex -2.8199664825479e-015 3.0 20.0
vertex -2.8199664825479e-015 2.60842142333985 19.9743345841214
endloop
endfacet
facet normal -4.0632771973314e-035 -0.0654031292301446 0.997858923238603
outer loop
vertex -2.8199664825479e-015 3.0 20.0
vertex 40.0 2.60842142333985 19.9743345841214
vertex 40.0 3.0 20.0
endloop
endfacet
facet normal 0.0 0.15828610164764 0.987393290449754
outer loop
vertex 40.0 17.3978752054915 19.992142950681
vertex 2.8199664825479e-015 17.7908111069791 19.92915255704
vertex 2.8199664825479e-015 17.3978752054915 19.992142950681
endloop
endfacet
facet normal 0.0 0.15828610164764 0.987393290449754
outer loop
vertex 2.8199664825479e-015 17.7908111069791 19.92915255704
vertex 40.0 17.3978752054915 19.992142950681
vertex 40.0 17.7908111069791 19.92915255704
endloop
endfacet
facet normal 0.0 0.293766002200637 0.955877364493508
outer loop
vertex 40.0 17.7908111069791 19.92915255704
vertex 2.8199664825479e-015 18.1712051582267 19.8122475608064
vertex 2.8199664825479e-015 17.7908111069791 19.92915255704
endloop
endfacet
facet normal 0.0 0.293766002200637 0.955877364493508
outer loop
vertex 2.8199664825479e-015 18.1712051582267 19.8122475608064
vertex 40.0 17.7908111069791 19.92915255704
vertex 40.0 18.1712051582267 19.8122475608064
endloop
endfacet
facet normal 0.0 0.0 -1.0
outer loop
vertex 36.8 16.8 17.0
vertex 23.0 3.2 17.0
vertex 23.0 16.8 17.0
endloop
endfacet
facet normal 0.0 0.0 -1.0
outer loop
vertex 23.0 3.2 17.0
vertex 36.8 16.8 17.0
vertex 36.8 3.2 17.0
endloop
endfacet
endsolid ToasterButton
