solid ToasterButtonV2
facet normal 0.0 -0.866025403784439 0.5
outer loop
vertex 40.0 0.669872981077807 17.5
vertex 0.0 0.380602337443566 16.9134171618255
vertex 40.0 0.380602337443566 16.9134171618255
endloop
endfacet
facet normal 0.0 -0.923879532511287 0.38268343236509
outer loop
vertex 0.0 0.380602337443566 16.9134171618255
vertex 40.0 0.669872981077807 17.5
vertex 0.0 0.669872981077807 17.5
endloop
endfacet
facet normal 0.0 -0.793353340291235 0.608761429008721
outer loop
vertex 40.0 1.03323329854382 18.0438071450436
vertex 0.0 0.669872981077807 17.5
vertex 40.0 0.669872981077807 17.5
endloop
endfacet
facet normal 0.0 -0.866025403784439 0.5
outer loop
vertex 0.0 0.669872981077807 17.5
vertex 40.0 1.03323329854382 18.0438071450436
vertex 0.0 1.03323329854382 18.0438071450436
endloop
endfacet
facet normal 0.0 -0.707106781186548 0.707106781186547
outer loop
vertex 40.0 1.46446609406726 18.5355339059327
vertex 0.0 1.03323329854382 18.0438071450436
vertex 40.0 1.03323329854382 18.0438071450436
endloop
endfacet
facet normal 0.0 -0.793353340291235 0.608761429008721
outer loop
vertex 0.0 1.03323329854382 18.0438071450436
vertex 40.0 1.46446609406726 18.5355339059327
vertex 0.0 1.46446609406726 18.5355339059327
endloop
endfacet
facet normal 0.0 -0.707106781186548 0.707106781186547
outer loop
vertex 40.0 1.46446609406726 18.5355339059327
vertex 0.0 1.9561928549564 18.9667667014562
vertex 0.0 1.46446609406726 18.5355339059327
endloop
endfacet
facet normal 0.0 -0.608761429008722 0.793353340291235
outer loop
vertex 0.0 1.9561928549564 18.9667667014562
vertex 40.0 1.46446609406726 18.5355339059327
vertex 40.0 1.9561928549564 18.9667667014562
endloop
endfacet
facet normal 0.0 -0.608761429008722 0.793353340291235
outer loop
vertex 40.0 1.9561928549564 18.9667667014562
vertex 0.0 2.5 19.3301270189222
vertex 0.0 1.9561928549564 18.9667667014562
endloop
endfacet
facet normal 0.0 -0.500000000000001 0.866025403784438
outer loop
vertex 0.0 2.5 19.3301270189222
vertex 40.0 1.9561928549564 18.9667667014562
vertex 40.0 2.5 19.3301270189222
endloop
endfacet
facet normal 0.0 -0.500000000000001 0.866025403784438
outer loop
vertex 40.0 2.5 19.3301270189222
vertex 0.0 3.08658283817455 19.6193976625564
vertex 0.0 2.5 19.3301270189222
endloop
endfacet
facet normal 0.0 -0.382683432365089 0.923879532511287
outer loop
vertex 0.0 3.08658283817455 19.6193976625564
vertex 40.0 2.5 19.3301270189222
vertex 40.0 3.08658283817455 19.6193976625564
endloop
endfacet
facet normal 0.0 -0.382683432365089 0.923879532511287
outer loop
vertex 40.0 3.08658283817455 19.6193976625564
vertex 0.0 3.7059047744874 19.8296291314453
vertex 0.0 3.08658283817455 19.6193976625564
endloop
endfacet
facet normal 0.0 -0.258819045102521 0.965925826289068
outer loop
vertex 0.0 3.7059047744874 19.8296291314453
vertex 40.0 3.08658283817455 19.6193976625564
vertex 40.0 3.7059047744874 19.8296291314453
endloop
endfacet
facet normal 0.0 -0.258819045102521 0.965925826289068
outer loop
vertex 40.0 3.7059047744874 19.8296291314453
vertex 0.0 4.34736903889974 19.9572243068691
vertex 0.0 3.7059047744874 19.8296291314453
endloop
endfacet
facet normal 0.0 -0.130526192220052 0.99144486137381
outer loop
vertex 0.0 4.34736903889974 19.9572243068691
vertex 40.0 3.7059047744874 19.8296291314453
vertex 40.0 4.34736903889974 19.9572243068691
endloop
endfacet
facet normal 0.0 -1.0 0.0
outer loop
vertex 36.8 16.8 17.0
vertex 23.0 16.8 0.0
vertex 36.8 16.8 0.0
endloop
endfacet
facet normal 0.0 -1.0 0.0
outer loop
vertex 23.0 16.8 0.0
vertex 36.8 16.8 17.0
vertex 23.0 16.8 17.0
endloop
endfacet
facet normal 1.0 0.0 0.0
outer loop
vertex 19.3 14.2 0.0
vertex 19.3 5.8 17.5
vertex 19.3 5.8 0.0
endloop
endfacet
facet normal 1.0 0.0 0.0
outer loop
vertex 19.3 5.8 17.5
vertex 19.3 14.2 0.0
vertex 19.3 14.2 17.5
endloop
endfacet
facet normal 0.0 0.0 -1.0
outer loop
vertex 17.0 16.8 17.1307
vertex 3.2 3.2 17.1307
vertex 3.2 16.8 17.1307
endloop
endfacet
facet normal 0.0 0.0 -1.0
outer loop
vertex 3.2 3.2 17.1307
vertex 17.0 16.8 17.1307
vertex 17.0 3.2 17.1307
endloop
endfacet
facet normal 0.0 0.0 1.0
outer loop
vertex 40.0 5.0 20.0
vertex 5.63993296509579e-015 15.0 20.0
vertex 0.0 5.0 20.0
endloop
endfacet
facet normal 0.0 0.0 1.0
outer loop
vertex 5.63993296509579e-015 15.0 20.0
vertex 40.0 5.0 20.0
vertex 40.0 15.0 20.0
endloop
endfacet
facet normal -1.0 -0.0 -0.0
outer loop
vertex 36.8 16.8 17.0
vertex 36.8 3.2 0.0
vertex 36.8 3.2 17.0
endloop
endfacet
facet normal -1.0 -0.0 -0.0
outer loop
vertex 36.8 3.2 0.0
vertex 36.8 16.8 17.0
vertex 36.8 16.8 0.0
endloop
endfacet
facet normal 1.0 0.0 0.0
outer loop
vertex 23.0 16.8 0.0
vertex 23.0 3.2 17.0
vertex 23.0 3.2 0.0
endloop
endfacet
facet normal 1.0 0.0 0.0
outer loop
vertex 23.0 3.2 17.0
vertex 23.0 16.8 0.0
vertex 23.0 16.8 17.0
endloop
endfacet
facet normal -1.0217269864304e-016 1.0 0.0
outer loop
vertex 23.0 3.2 17.0
vertex 36.8 3.2 0.0
vertex 23.0 3.2 0.0
endloop
endfacet
facet normal -1.0217269864304e-016 1.0 0.0
outer loop
vertex 36.8 3.2 0.0
vertex 23.0 3.2 17.0
vertex 36.8 3.2 17.0
endloop
endfacet
facet normal -2.86610936780414e-033 1.0 -1.87997765503193e-016
outer loop
vertex 5.63993296509579e-015 20.0 15.0
vertex 40.0 20.0 0.0
vertex 2.8199664825479e-015 20.0 0.0
endloop
endfacet
facet normal -2.86610936780414e-033 1.0 -1.87997765503193e-016
outer loop
vertex 40.0 20.0 0.0
vertex 5.63993296509579e-015 20.0 15.0
vertex 40.0 20.0 15.0
endloop
endfacet
facet normal 0.0 -1.0 0.0
outer loop
vertex 20.7 14.2 17.5
vertex 19.3 14.2 0.0
vertex 20.7 14.2 0.0
endloop
endfacet
facet normal 0.0 -1.0 0.0
outer loop
vertex 19.3 14.2 0.0
vertex 20.7 14.2 17.5
vertex 19.3 14.2 17.5
endloop
endfacet
facet normal -1.0 -0.0 -0.0
outer loop
vertex 20.7 14.2 17.5
vertex 20.7 5.8 0.0
vertex 20.7 5.8 17.5
endloop
endfacet
facet normal -1.0 -0.0 -0.0
outer loop
vertex 20.7 5.8 0.0
vertex 20.7 14.2 17.5
vertex 20.7 14.2 0.0
endloop
endfacet
facet normal 0.0 0.0 -1.0
outer loop
vertex 2.8199664825479e-015 20.0 0.0
vertex 3.2 16.8 0.0
vertex 2.8199664825479e-015 7.04991620636974e-016 0.0
endloop
endfacet
facet normal 0.0 0.0 -1.0
outer loop
vertex 3.2 16.8 0.0
vertex 2.8199664825479e-015 20.0 0.0
vertex 40.0 20.0 0.0
endloop
endfacet
facet normal 0.0 0.0 -1.0
outer loop
vertex 3.2 16.8 0.0
vertex 40.0 20.0 0.0
vertex 17.0 16.8 0.0
endloop
endfacet
facet normal 0.0 0.0 -1.0
outer loop
vertex 17.0 16.8 0.0
vertex 40.0 20.0 0.0
vertex 23.0 16.8 0.0
endloop
endfacet
facet normal 0.0 0.0 -1.0
outer loop
vertex 17.0 16.8 0.0
vertex 23.0 16.8 0.0
vertex 19.3 14.2 0.0
endloop
endfacet
facet normal 0.0 0.0 -1.0
outer loop
vertex 17.0 16.8 0.0
vertex 19.3 14.2 0.0
vertex 17.0 3.2 0.0
endloop
endfacet
facet normal 0.0 0.0 -1.0
outer loop
vertex 19.3 14.2 0.0
vertex 23.0 16.8 0.0
vertex 20.7 14.2 0.0
endloop
endfacet
facet normal 0.0 0.0 -1.0
outer loop
vertex 20.7 14.2 0.0
vertex 23.0 16.8 0.0
vertex 20.7 5.8 0.0
endloop
endfacet
facet normal 0.0 0.0 -1.0
outer loop
vertex 23.0 16.8 0.0
vertex 40.0 20.0 0.0
vertex 36.8 16.8 0.0
endloop
endfacet
facet normal 0.0 0.0 -1.0
outer loop
vertex 36.8 16.8 0.0
vertex 40.0 20.0 0.0
vertex 36.8 3.2 0.0
endloop
endfacet
facet normal 0.0 0.0 -1.0
outer loop
vertex 2.8199664825479e-015 7.04991620636974e-016 0.0
vertex 3.2 3.2 0.0
vertex 40.0 7.04991620636974e-016 0.0
endloop
endfacet
facet normal 0.0 0.0 -1.0
outer loop
vertex 3.2 3.2 0.0
vertex 2.8199664825479e-015 7.04991620636974e-016 0.0
vertex 3.2 16.8 0.0
endloop
endfacet
facet normal 0.0 0.0 -1.0
outer loop
vertex 40.0 7.04991620636974e-016 0.0
vertex 3.2 3.2 0.0
vertex 17.0 3.2 0.0
endloop
endfacet
facet normal 0.0 0.0 -1.0
outer loop
vertex 40.0 7.04991620636974e-016 0.0
vertex 17.0 3.2 0.0
vertex 23.0 3.2 0.0
endloop
endfacet
facet normal 0.0 0.0 -1.0
outer loop
vertex 23.0 3.2 0.0
vertex 17.0 3.2 0.0
vertex 19.3 5.8 0.0
endloop
endfacet
facet normal 0.0 0.0 -1.0
outer loop
vertex 19.3 5.8 0.0
vertex 17.0 3.2 0.0
vertex 19.3 14.2 0.0
endloop
endfacet
facet normal 0.0 0.0 -1.0
outer loop
vertex 23.0 3.2 0.0
vertex 19.3 5.8 0.0
vertex 20.7 5.8 0.0
endloop
endfacet
facet normal 0.0 0.0 -1.0
outer loop
vertex 23.0 3.2 0.0
vertex 20.7 5.8 0.0
vertex 23.0 16.8 0.0
endloop
endfacet
facet normal 0.0 0.0 -1.0
outer loop
vertex 40.0 7.04991620636974e-016 0.0
vertex 23.0 3.2 0.0
vertex 36.8 3.2 0.0
endloop
endfacet
facet normal 0.0 0.0 -1.0
outer loop
vertex 40.0 7.04991620636974e-016 0.0
vertex 36.8 3.2 0.0
vertex 40.0 20.0 0.0
endloop
endfacet
facet normal -1.0 -0.0 -0.0
outer loop
vertex 17.0 16.8 17.1307
vertex 17.0 3.2 0.0
vertex 17.0 3.2 17.1307
endloop
endfacet
facet normal -1.0 -0.0 -0.0
outer loop
vertex 17.0 3.2 0.0
vertex 17.0 16.8 17.1307
vertex 17.0 16.8 0.0
endloop
endfacet
facet normal 9.52608604906e-035 -1.0 -4.69994413757983e-017
outer loop
vertex 40.0 0.0 15.0
vertex 2.8199664825479e-015 7.04991620636974e-016 0.0
vertex 40.0 7.04991620636974e-016 0.0
endloop
endfacet
facet normal 9.52608604906e-035 -1.0 -4.69994413757983e-017
outer loop
vertex 2.8199664825479e-015 7.04991620636974e-016 0.0
vertex 40.0 0.0 15.0
vertex 0.0 0.0 15.0
endloop
endfacet
facet normal -1.0 2.96266248512429e-016 8.25377464708397e-018
outer loop
vertex 0.0 0.042775693130948 15.6526309611003
vertex 2.8199664825479e-015 7.04991620636974e-016 0.0
vertex 0.0 0.0 15.0
endloop
endfacet
facet normal -1.0 2.96266248512429e-016 8.25377464708397e-018
outer loop
vertex 2.8199664825479e-015 7.04991620636974e-016 0.0
vertex 0.0 0.042775693130948 15.6526309611003
vertex 2.8199664825479e-015 20.0 0.0
endloop
endfacet
facet normal -1.0 2.96266248512429e-016 8.25377464708397e-018
outer loop
vertex 2.8199664825479e-015 20.0 0.0
vertex 0.0 0.042775693130948 15.6526309611003
vertex 0.0 0.170370868554659 16.2940952255126
endloop
endfacet
facet normal -1.0 2.96266248512429e-016 8.25377464708397e-018
outer loop
vertex 2.8199664825479e-015 20.0 0.0
vertex 0.0 0.170370868554659 16.2940952255126
vertex 0.0 0.380602337443566 16.9134171618255
endloop
endfacet
facet normal -1.0 2.96266248512429e-016 8.25377464708397e-018
outer loop
vertex 2.8199664825479e-015 20.0 0.0
vertex 0.0 0.380602337443566 16.9134171618255
vertex 0.0 0.669872981077807 17.5
endloop
endfacet
facet normal -1.0 2.96266248512429e-016 8.25377464708397e-018
outer loop
vertex 2.8199664825479e-015 20.0 0.0
vertex 0.0 0.669872981077807 17.5
vertex 0.0 1.03323329854382 18.0438071450436
endloop
endfacet
facet normal -1.0 2.96266248512429e-016 8.25377464708397e-018
outer loop
vertex 2.8199664825479e-015 20.0 0.0
vertex 0.0 1.03323329854382 18.0438071450436
vertex 0.0 1.46446609406726 18.5355339059327
endloop
endfacet
facet normal -1.0 2.96266248512429e-016 8.25377464708397e-018
outer loop
vertex 2.8199664825479e-015 20.0 0.0
vertex 0.0 1.46446609406726 18.5355339059327
vertex 0.0 1.9561928549564 18.9667667014562
endloop
endfacet
facet normal -1.0 2.96266248512429e-016 8.25377464708397e-018
outer loop
vertex 2.8199664825479e-015 20.0 0.0
vertex 0.0 1.9561928549564 18.9667667014562
vertex 0.0 2.5 19.3301270189222
endloop
endfacet
facet normal -1.0 2.96266248512429e-016 8.25377464708397e-018
outer loop
vertex 2.8199664825479e-015 20.0 0.0
vertex 0.0 2.5 19.3301270189222
vertex 0.0 3.08658283817455 19.6193976625564
endloop
endfacet
facet normal -1.0 2.96266248512429e-016 8.25377464708397e-018
outer loop
vertex 2.8199664825479e-015 20.0 0.0
vertex 0.0 3.08658283817455 19.6193976625564
vertex 0.0 3.7059047744874 19.8296291314453
endloop
endfacet
facet normal -1.0 2.96266248512429e-016 8.25377464708397e-018
outer loop
vertex 2.8199664825479e-015 20.0 0.0
vertex 0.0 3.7059047744874 19.8296291314453
vertex 0.0 4.34736903889974 19.9572243068691
endloop
endfacet
facet normal -1.0 2.96266248512429e-016 8.25377464708397e-018
outer loop
vertex 2.8199664825479e-015 20.0 0.0
vertex 0.0 4.34736903889974 19.9572243068691
vertex 0.0 5.0 20.0
endloop
endfacet
facet normal -1.0 2.96266248512429e-016 8.25377464708397e-018
outer loop
vertex 2.8199664825479e-015 20.0 0.0
vertex 0.0 5.0 20.0
vertex 5.63993296509579e-015 15.0 20.0
endloop
endfacet
facet normal -1.0 2.96266248512429e-016 8.25377464708397e-018
outer loop
vertex 2.8199664825479e-015 20.0 0.0
vertex 5.63993296509579e-015 15.0 20.0
vertex 5.19001818933658e-015 15.1007497486545 19.9933965125954
endloop
endfacet
facet normal -1.0 2.96266248512429e-016 8.25377464708397e-018
outer loop
vertex 2.8199664825479e-015 20.0 0.0
vertex 5.19001818933658e-015 15.1007497486545 19.9933965125954
vertex 5.63993296509579e-015 15.6526309611003 19.9572243068691
endloop
endfacet
facet normal -1.0 2.96266248512429e-016 8.25377464708397e-018
outer loop
vertex 2.8199664825479e-015 20.0 0.0
vertex 5.63993296509579e-015 15.6526309611003 19.9572243068691
vertex 5.63993296509579e-015 16.2940952255126 19.8296291314453
endloop
endfacet
facet normal -1.0 2.96266248512429e-016 8.25377464708397e-018
outer loop
vertex 2.8199664825479e-015 20.0 0.0
vertex 5.63993296509579e-015 16.2940952255126 19.8296291314453
vertex 5.63993296509579e-015 16.9134171618255 19.6193976625564
endloop
endfacet
facet normal -1.0 2.96266248512429e-016 8.25377464708397e-018
outer loop
vertex 2.8199664825479e-015 20.0 0.0
vertex 5.63993296509579e-015 16.9134171618255 19.6193976625564
vertex 5.63993296509579e-015 17.5 19.3301270189222
endloop
endfacet
facet normal -1.0 2.96266248512429e-016 8.25377464708397e-018
outer loop
vertex 2.8199664825479e-015 20.0 0.0
vertex 5.63993296509579e-015 17.5 19.3301270189222
vertex 5.63993296509579e-015 18.0438071450436 18.9667667014562
endloop
endfacet
facet normal -1.0 2.96266248512429e-016 8.25377464708397e-018
outer loop
vertex 2.8199664825479e-015 20.0 0.0
vertex 5.63993296509579e-015 18.0438071450436 18.9667667014562
vertex 5.63993296509579e-015 18.5355339059327 18.5355339059327
endloop
endfacet
facet normal -1.0 2.96266248512429e-016 8.25377464708397e-018
outer loop
vertex 2.8199664825479e-015 20.0 0.0
vertex 5.63993296509579e-015 18.5355339059327 18.5355339059327
vertex 5.63993296509579e-015 18.9667667014562 18.0438071450436
endloop
endfacet
facet normal -1.0 2.96266248512429e-016 8.25377464708397e-018
outer loop
vertex 2.8199664825479e-015 20.0 0.0
vertex 5.63993296509579e-015 18.9667667014562 18.0438071450436
vertex 5.63993296509579e-015 19.3301270189222 17.5
endloop
endfacet
facet normal -1.0 2.96266248512429e-016 8.25377464708397e-018
outer loop
vertex 2.8199664825479e-015 20.0 0.0
vertex 5.63993296509579e-015 19.3301270189222 17.5
vertex 5.63993296509579e-015 19.6193976625564 16.9134171618255
endloop
endfacet
facet normal -1.0 2.96266248512429e-016 8.25377464708397e-018
outer loop
vertex 2.8199664825479e-015 20.0 0.0
vertex 5.63993296509579e-015 19.6193976625564 16.9134171618255
vertex 5.63993296509579e-015 19.8296291314453 16.2940952255126
endloop
endfacet
facet normal -1.0 2.96266248512429e-016 8.25377464708397e-018
outer loop
vertex 2.8199664825479e-015 20.0 0.0
vertex 5.63993296509579e-015 19.8296291314453 16.2940952255126
vertex 5.63993296509579e-015 19.9572243068691 15.6526309611003
endloop
endfacet
facet normal -1.0 2.96266248512429e-016 8.25377464708397e-018
outer loop
vertex 2.8199664825479e-015 20.0 0.0
vertex 5.63993296509579e-015 19.9572243068691 15.6526309611003
vertex 5.45403520052515e-015 19.9931788551242 15.1040705599428
endloop
endfacet
facet normal -1.0 2.96266248512429e-016 8.25377464708397e-018
outer loop
vertex 2.8199664825479e-015 20.0 0.0
vertex 5.45403520052515e-015 19.9931788551242 15.1040705599428
vertex 5.63993296509579e-015 20.0 15.0
endloop
endfacet
facet normal 0.0 -1.0 0.0
outer loop
vertex 17.0 16.8 17.1307
vertex 3.2 16.8 0.0
vertex 17.0 16.8 0.0
endloop
endfacet
facet normal 0.0 -1.0 0.0
outer loop
vertex 3.2 16.8 0.0
vertex 17.0 16.8 17.1307
vertex 3.2 16.8 17.1307
endloop
endfacet
facet normal 0.0 1.0 0.0
outer loop
vertex 3.2 3.2 17.1307
vertex 17.0 3.2 0.0
vertex 3.2 3.2 0.0
endloop
endfacet
facet normal 0.0 1.0 0.0
outer loop
vertex 17.0 3.2 0.0
vertex 3.2 3.2 17.1307
vertex 17.0 3.2 17.1307
endloop
endfacet
facet normal 1.0 0.0 0.0
outer loop
vertex 3.2 16.8 0.0
vertex 3.2 3.2 17.1307
vertex 3.2 3.2 0.0
endloop
endfacet
facet normal 1.0 0.0 0.0
outer loop
vertex 3.2 3.2 17.1307
vertex 3.2 16.8 0.0
vertex 3.2 16.8 17.1307
endloop
endfacet
facet normal 0.0 0.0 -1.0
outer loop
vertex 20.7 14.2 17.5
vertex 19.3 5.8 17.5
vertex 19.3 14.2 17.5
endloop
endfacet
facet normal 0.0 0.0 -1.0
outer loop
vertex 19.3 5.8 17.5
vertex 20.7 14.2 17.5
vertex 20.7 5.8 17.5
endloop
endfacet
facet normal 0.0 1.0 0.0
outer loop
vertex 19.3 5.8 17.5
vertex 20.7 5.8 0.0
vertex 19.3 5.8 0.0
endloop
endfacet
facet normal 0.0 1.0 0.0
outer loop
vertex 20.7 5.8 0.0
vertex 19.3 5.8 17.5
vertex 20.7 5.8 17.5
endloop
endfacet
facet normal 1.0 2.40024165525554e-032 4.6704558404895e-032
outer loop
vertex 40.0 7.04991620636974e-016 0.0
vertex 40.0 0.042775693130948 15.6526309611003
vertex 40.0 0.0 15.0
endloop
endfacet
facet normal 1.0 2.40024165525554e-032 4.6704558404895e-032
outer loop
vertex 40.0 0.042775693130948 15.6526309611003
vertex 40.0 7.04991620636974e-016 0.0
vertex 40.0 20.0 0.0
endloop
endfacet
facet normal 1.0 2.40024165525554e-032 4.6704558404895e-032
outer loop
vertex 40.0 0.042775693130948 15.6526309611003
vertex 40.0 20.0 0.0
vertex 40.0 0.170370868554659 16.2940952255126
endloop
endfacet
facet normal 1.0 2.40024165525554e-032 4.6704558404895e-032
outer loop
vertex 40.0 0.170370868554659 16.2940952255126
vertex 40.0 20.0 0.0
vertex 40.0 0.380602337443566 16.9134171618255
endloop
endfacet
facet normal 1.0 2.40024165525554e-032 4.6704558404895e-032
outer loop
vertex 40.0 0.380602337443566 16.9134171618255
vertex 40.0 20.0 0.0
vertex 40.0 0.669872981077807 17.5
endloop
endfacet
facet normal 1.0 2.40024165525554e-032 4.6704558404895e-032
outer loop
vertex 40.0 0.669872981077807 17.5
vertex 40.0 20.0 0.0
vertex 40.0 1.03323329854382 18.0438071450436
endloop
endfacet
facet normal 1.0 2.40024165525554e-032 4.6704558404895e-032
outer loop
vertex 40.0 1.03323329854382 18.0438071450436
vertex 40.0 20.0 0.0
vertex 40.0 1.46446609406726 18.5355339059327
endloop
endfacet
facet normal 1.0 2.40024165525554e-032 4.6704558404895e-032
outer loop
vertex 40.0 1.46446609406726 18.5355339059327
vertex 40.0 20.0 0.0
vertex 40.0 1.9561928549564 18.9667667014562
endloop
endfacet
facet normal 1.0 2.40024165525554e-032 4.6704558404895e-032
outer loop
vertex 40.0 1.9561928549564 18.9667667014562
vertex 40.0 20.0 0.0
vertex 40.0 2.5 19.3301270189222
endloop
endfacet
facet normal 1.0 2.40024165525554e-032 4.6704558404895e-032
outer loop
vertex 40.0 2.5 19.3301270189222
vertex 40.0 20.0 0.0
vertex 40.0 3.08658283817455 19.6193976625564
endloop
endfacet
facet normal 1.0 2.40024165525554e-032 4.6704558404895e-032
outer loop
vertex 40.0 3.08658283817455 19.6193976625564
vertex 40.0 20.0 0.0
vertex 40.0 3.7059047744874 19.8296291314453
endloop
endfacet
facet normal 1.0 2.40024165525554e-032 4.6704558404895e-032
outer loop
vertex 40.0 3.7059047744874 19.8296291314453
vertex 40.0 20.0 0.0
vertex 40.0 4.34736903889974 19.9572243068691
endloop
endfacet
facet normal 1.0 2.40024165525554e-032 4.6704558404895e-032
outer loop
vertex 40.0 4.34736903889974 19.9572243068691
vertex 40.0 20.0 0.0
vertex 40.0 5.0 20.0
endloop
endfacet
facet normal 1.0 2.40024165525554e-032 4.6704558404895e-032
outer loop
vertex 40.0 5.0 20.0
vertex 40.0 20.0 0.0
vertex 40.0 15.0 20.0
endloop
endfacet
facet normal 1.0 2.40024165525554e-032 4.6704558404895e-032
outer loop
vertex 40.0 15.0 20.0
vertex 40.0 20.0 0.0
vertex 40.0 15.6526309611003 19.9572243068691
endloop
endfacet
facet normal 1.0 2.40024165525554e-032 4.6704558404895e-032
outer loop
vertex 40.0 15.6526309611003 19.9572243068691
vertex 40.0 20.0 0.0
vertex 40.0 16.2940952255126 19.8296291314453
endloop
endfacet
facet normal 1.0 2.40024165525554e-032 4.6704558404895e-032
outer loop
vertex 40.0 16.2940952255126 19.8296291314453
vertex 40.0 20.0 0.0
vertex 40.0 16.9134171618255 19.6193976625564
endloop
endfacet
facet normal 1.0 2.40024165525554e-032 4.6704558404895e-032
outer loop
vertex 40.0 16.9134171618255 19.6193976625564
vertex 40.0 20.0 0.0
vertex 40.0 17.5 19.3301270189222
endloop
endfacet
facet normal 1.0 2.40024165525554e-032 4.6704558404895e-032
outer loop
vertex 40.0 17.5 19.3301270189222
vertex 40.0 20.0 0.0
vertex 40.0 18.0438071450436 18.9667667014562
endloop
endfacet
facet normal 1.0 2.40024165525554e-032 4.6704558404895e-032
outer loop
vertex 40.0 18.0438071450436 18.9667667014562
vertex 40.0 20.0 0.0
vertex 40.0 18.5355339059327 18.5355339059327
endloop
endfacet
facet normal 1.0 2.40024165525554e-032 4.6704558404895e-032
outer loop
vertex 40.0 18.5355339059327 18.5355339059327
vertex 40.0 20.0 0.0
vertex 40.0 18.9667667014562 18.0438071450436
endloop
endfacet
facet normal 1.0 2.40024165525554e-032 4.6704558404895e-032
outer loop
vertex 40.0 18.9667667014562 18.0438071450436
vertex 40.0 20.0 0.0
vertex 40.0 19.3301270189222 17.5
endloop
endfacet
facet normal 1.0 2.40024165525554e-032 4.6704558404895e-032
outer loop
vertex 40.0 19.3301270189222 17.5
vertex 40.0 20.0 0.0
vertex 40.0 19.6193976625564 16.9134171618255
endloop
endfacet
facet normal 1.0 2.40024165525554e-032 4.6704558404895e-032
outer loop
vertex 40.0 19.6193976625564 16.9134171618255
vertex 40.0 20.0 0.0
vertex 40.0 19.8296291314453 16.2940952255126
endloop
endfacet
facet normal 1.0 2.40024165525554e-032 4.6704558404895e-032
outer loop
vertex 40.0 19.8296291314453 16.2940952255126
vertex 40.0 20.0 0.0
vertex 40.0 19.9572243068691 15.6526309611003
endloop
endfacet
facet normal 1.0 2.40024165525554e-032 4.6704558404895e-032
outer loop
vertex 40.0 19.9572243068691 15.6526309611003
vertex 40.0 20.0 0.0
vertex 40.0 20.0 15.0
endloop
endfacet
facet normal 0.0 0.0 -1.0
outer loop
vertex 36.8 16.8 17.0
vertex 23.0 3.2 17.0
vertex 23.0 16.8 17.0
endloop
endfacet
facet normal 0.0 0.0 -1.0
outer loop
vertex 23.0 3.2 17.0
vertex 36.8 16.8 17.0
vertex 36.8 3.2 17.0
endloop
endfacet
facet normal 9.73355691226556e-018 0.997858923238603 0.0654031292301477
outer loop
vertex 5.45403520052515e-015 19.9931788551242 15.1040705599428
vertex 40.0 20.0 15.0
vertex 5.63993296509579e-015 20.0 15.0
endloop
endfacet
facet normal 9.73355691226556e-018 0.997858923238603 0.0654031292301477
outer loop
vertex 40.0 20.0 15.0
vertex 5.45403520052515e-015 19.9931788551242 15.1040705599428
vertex 40.0 19.9572243068691 15.6526309611003
endloop
endfacet
facet normal 4.8772209605917e-018 0.99144486137381 0.130526192220052
outer loop
vertex 40.0 19.9572243068691 15.6526309611003
vertex 5.45403520052515e-015 19.9931788551242 15.1040705599428
vertex 5.63993296509579e-015 19.9572243068691 15.6526309611003
endloop
endfacet
facet normal -7.67044154116172e-018 0.065403129230143 0.997858923238604
outer loop
vertex 5.63993296509579e-015 15.0 20.0
vertex 5.63993296509579e-015 15.6526309611003 19.9572243068691
vertex 5.19001818933658e-015 15.1007497486545 19.9933965125954
endloop
endfacet
facet normal -3.84344989182785e-018 0.130526192220052 0.99144486137381
outer loop
vertex 5.63993296509579e-015 15.6526309611003 19.9572243068691
vertex 5.63993296509579e-015 15.0 20.0
vertex 40.0 15.0 20.0
endloop
endfacet
facet normal -3.84344989182785e-018 0.130526192220052 0.99144486137381
outer loop
vertex 5.63993296509579e-015 15.6526309611003 19.9572243068691
vertex 40.0 15.0 20.0
vertex 40.0 15.6526309611003 19.9572243068691
endloop
endfacet
facet normal -3.84344989182785e-018 0.130526192220052 0.99144486137381
outer loop
vertex 40.0 15.6526309611003 19.9572243068691
vertex 5.63993296509579e-015 16.2940952255126 19.8296291314453
vertex 5.63993296509579e-015 15.6526309611003 19.9572243068691
endloop
endfacet
facet normal 0.0 0.258819045102522 0.965925826289068
outer loop
vertex 5.63993296509579e-015 16.2940952255126 19.8296291314453
vertex 40.0 15.6526309611003 19.9572243068691
vertex 40.0 16.2940952255126 19.8296291314453
endloop
endfacet
facet normal 0.0 0.258819045102522 0.965925826289068
outer loop
vertex 40.0 16.2940952255126 19.8296291314453
vertex 5.63993296509579e-015 16.9134171618255 19.6193976625564
vertex 5.63993296509579e-015 16.2940952255126 19.8296291314453
endloop
endfacet
facet normal 0.0 0.382683432365092 0.923879532511286
outer loop
vertex 5.63993296509579e-015 16.9134171618255 19.6193976625564
vertex 40.0 16.2940952255126 19.8296291314453
vertex 40.0 16.9134171618255 19.6193976625564
endloop
endfacet
facet normal 0.0 0.382683432365092 0.923879532511286
outer loop
vertex 40.0 16.9134171618255 19.6193976625564
vertex 5.63993296509579e-015 17.5 19.3301270189222
vertex 5.63993296509579e-015 16.9134171618255 19.6193976625564
endloop
endfacet
facet normal 0.0 0.500000000000001 0.866025403784438
outer loop
vertex 5.63993296509579e-015 17.5 19.3301270189222
vertex 40.0 16.9134171618255 19.6193976625564
vertex 40.0 17.5 19.3301270189222
endloop
endfacet
facet normal 0.0 0.500000000000001 0.866025403784438
outer loop
vertex 40.0 17.5 19.3301270189222
vertex 5.63993296509579e-015 18.0438071450436 18.9667667014562
vertex 5.63993296509579e-015 17.5 19.3301270189222
endloop
endfacet
facet normal 0.0 0.608761429008721 0.793353340291235
outer loop
vertex 5.63993296509579e-015 18.0438071450436 18.9667667014562
vertex 40.0 17.5 19.3301270189222
vertex 40.0 18.0438071450436 18.9667667014562
endloop
endfacet
facet normal 0.0 0.608761429008721 0.793353340291235
outer loop
vertex 40.0 18.0438071450436 18.9667667014562
vertex 5.63993296509579e-015 18.5355339059327 18.5355339059327
vertex 5.63993296509579e-015 18.0438071450436 18.9667667014562
endloop
endfacet
facet normal 0.0 0.707106781186547 0.707106781186548
outer loop
vertex 5.63993296509579e-015 18.5355339059327 18.5355339059327
vertex 40.0 18.0438071450436 18.9667667014562
vertex 40.0 18.5355339059327 18.5355339059327
endloop
endfacet
facet normal 0.0 0.707106781186547 0.707106781186548
outer loop
vertex 5.63993296509579e-015 18.5355339059327 18.5355339059327
vertex 40.0 18.9667667014562 18.0438071450436
vertex 5.63993296509579e-015 18.9667667014562 18.0438071450436
endloop
endfacet
facet normal 0.0 0.793353340291235 0.60876142900872
outer loop
vertex 40.0 18.9667667014562 18.0438071450436
vertex 5.63993296509579e-015 18.5355339059327 18.5355339059327
vertex 40.0 18.5355339059327 18.5355339059327
endloop
endfacet
facet normal 0.0 0.793353340291235 0.60876142900872
outer loop
vertex 5.63993296509579e-015 18.9667667014562 18.0438071450436
vertex 40.0 19.3301270189222 17.5
vertex 5.63993296509579e-015 19.3301270189222 17.5
endloop
endfacet
facet normal 0.0 0.866025403784439 0.499999999999999
outer loop
vertex 40.0 19.3301270189222 17.5
vertex 5.63993296509579e-015 18.9667667014562 18.0438071450436
vertex 40.0 18.9667667014562 18.0438071450436
endloop
endfacet
facet normal 0.0 0.866025403784439 0.499999999999999
outer loop
vertex 5.63993296509579e-015 19.3301270189222 17.5
vertex 40.0 19.6193976625564 16.9134171618255
vertex 5.63993296509579e-015 19.6193976625564 16.9134171618255
endloop
endfacet
facet normal 0.0 0.923879532511287 0.382683432365091
outer loop
vertex 40.0 19.6193976625564 16.9134171618255
vertex 5.63993296509579e-015 19.3301270189222 17.5
vertex 40.0 19.3301270189222 17.5
endloop
endfacet
facet normal 0.0 0.923879532511287 0.382683432365091
outer loop
vertex 5.63993296509579e-015 19.6193976625564 16.9134171618255
vertex 40.0 19.8296291314453 16.2940952255126
vertex 5.63993296509579e-015 19.8296291314453 16.2940952255126
endloop
endfacet
facet normal 0.0 0.965925826289068 0.258819045102521
outer loop
vertex 40.0 19.8296291314453 16.2940952255126
vertex 5.63993296509579e-015 19.6193976625564 16.9134171618255
vertex 40.0 19.6193976625564 16.9134171618255
endloop
endfacet
facet normal 0.0 0.965925826289068 0.258819045102521
outer loop
vertex 5.63993296509579e-015 19.8296291314453 16.2940952255126
vertex 40.0 19.9572243068691 15.6526309611003
vertex 5.63993296509579e-015 19.9572243068691 15.6526309611003
endloop
endfacet
facet normal 4.8772209605917e-018 0.99144486137381 0.130526192220052
outer loop
vertex 40.0 19.9572243068691 15.6526309611003
vertex 5.63993296509579e-015 19.8296291314453 16.2940952255126
vertex 40.0 19.8296291314453 16.2940952255126
endloop
endfacet
facet normal 0.0 -0.130526192220052 0.99144486137381
outer loop
vertex 40.0 4.34736903889974 19.9572243068691
vertex 0.0 5.0 20.0
vertex 0.0 4.34736903889974 19.9572243068691
endloop
endfacet
facet normal 0.0 -0.0654031292301431 0.997858923238604
outer loop
vertex 0.0 5.0 20.0
vertex 40.0 4.34736903889974 19.9572243068691
vertex 40.0 5.0 20.0
endloop
endfacet
facet normal 0.0 -0.99144486137381 0.130526192220052
outer loop
vertex 40.0 0.042775693130948 15.6526309611003
vertex 0.0 0.0 15.0
vertex 40.0 0.0 15.0
endloop
endfacet
facet normal 0.0 -0.997858923238604 0.065403129230143
outer loop
vertex 0.0 0.0 15.0
vertex 40.0 0.042775693130948 15.6526309611003
vertex 0.0 0.042775693130948 15.6526309611003
endloop
endfacet
facet normal 0.0 -0.965925826289068 0.258819045102521
outer loop
vertex 40.0 0.170370868554659 16.2940952255126
vertex 0.0 0.042775693130948 15.6526309611003
vertex 40.0 0.042775693130948 15.6526309611003
endloop
endfacet
facet normal 0.0 -0.99144486137381 0.130526192220052
outer loop
vertex 0.0 0.042775693130948 15.6526309611003
vertex 40.0 0.170370868554659 16.2940952255126
vertex 0.0 0.170370868554659 16.2940952255126
endloop
endfacet
facet normal 0.0 -0.923879532511287 0.38268343236509
outer loop
vertex 40.0 0.380602337443566 16.9134171618255
vertex 0.0 0.170370868554659 16.2940952255126
vertex 40.0 0.170370868554659 16.2940952255126
endloop
endfacet
facet normal 0.0 -0.965925826289068 0.258819045102521
outer loop
vertex 0.0 0.170370868554659 16.2940952255126
vertex 40.0 0.380602337443566 16.9134171618255
vertex 0.0 0.380602337443566 16.9134171618255
endloop
endfacet
endsolid ToasterButtonV2
