solid 16mmBearing-5mmHole-v3
facet normal -0.482962913144532 -0.836516303737808 -0.258819045102523
outer loop
vertex 24.2275614069359 55.963367300308 18.9117142574034
vertex 18.3570508075689 59.7953446758326 16.0
vertex 24.41922863406 56.2953446758326 16.0
endloop
endfacet
facet normal -0.499999999999997 -0.86602540378444 1.78222197912938e-017
outer loop
vertex 18.3570508075689 59.7953446758326 16.0
vertex 24.2275614069359 55.963367300308 18.9117142574034
vertex 18.1653835804449 59.463367300308 18.9117142574034
endloop
endfacet
facet normal -0.353553390593274 -0.612372435695795 -0.707106781186547
outer loop
vertex 16.7095264517432 56.9417487848354 23.9549512883487
vertex 21.60672863406 51.4239517795452 25.7427857925749
vertex 15.5445508075689 54.9239517795451 25.742785792575
endloop
endfacet
facet normal -0.249999999999999 -0.433012701892217 -0.86602540378444
outer loop
vertex 21.60672863406 51.4239517795452 25.7427857925749
vertex 16.7095264517432 56.9417487848354 23.9549512883487
vertex 22.7717042782343 53.4417487848354 23.9549512883487
endloop
endfacet
facet normal 0.249999999999999 0.433012701892217 0.86602540378444
outer loop
vertex 15.98172863406 41.6811659869702 6.25721420742507
vertex 11.2761936788672 47.530940367785 5.13333445424799
vertex 9.91955080756888 45.1811659869702 6.25721420742507
endloop
endfacet
facet normal 0.12940952255126 0.224143868042012 0.965925826289069
outer loop
vertex 11.2761936788672 47.530940367785 5.13333445424799
vertex 15.98172863406 41.6811659869702 6.25721420742507
vertex 17.3383715053583 44.030940367785 5.13333445424799
endloop
endfacet
facet normal -0.353553390593272 -0.612372435695797 -0.707106781186546
outer loop
vertex 15.5604779323151 54.951538368824 21.6568542494924
vertex 14.4641016151377 57.0525588832577 20.0
vertex 16.1961524227066 56.0525588832577 20.0
endloop
endfacet
facet normal -0.433012701892219 -0.749999999999998 -0.500000000000003
outer loop
vertex 14.4641016151377 57.0525588832577 20.0
vertex 15.5604779323151 54.951538368824 21.6568542494924
vertex 13.8284271247462 55.951538368824 21.6568542494924
endloop
endfacet
facet normal -0.433012701892218 -0.749999999999998 0.500000000000003
outer loop
vertex 16.1961524227066 56.0525588832577 12.0
vertex 13.8284271247462 55.951538368824 10.3431457505076
vertex 15.5604779323151 54.951538368824 10.3431457505076
endloop
endfacet
facet normal -0.353553390593272 -0.612372435695798 0.707106781186546
outer loop
vertex 13.8284271247462 55.951538368824 10.3431457505076
vertex 16.1961524227066 56.0525588832577 12.0
vertex 14.4641016151377 57.0525588832577 12.0
endloop
endfacet
facet normal 0.353553390593274 0.612372435695794 0.707106781186548
outer loop
vertex 9.90362368282267 45.1535793976913 10.3431457505076
vertex 9.0 47.5884572681199 9.07179676972449
vertex 8.1715728752538 46.1535793976913 10.3431457505076
endloop
endfacet
facet normal 0.249999999999998 0.433012701892212 0.866025403784443
outer loop
vertex 9.0 47.5884572681199 9.07179676972449
vertex 9.90362368282267 45.1535793976913 10.3431457505076
vertex 10.7320508075689 46.5884572681199 9.07179676972449
endloop
endfacet
facet normal -0.353553390593274 -0.612372435695795 -0.707106781186547
outer loop
vertex 22.7717042782343 53.4417487848354 23.9549512883487
vertex 17.6034437038564 58.4900588832577 21.625
vertex 23.6656215303474 54.9900588832577 21.625
endloop
endfacet
facet normal -0.433012701892221 -0.750000000000002 -0.499999999999996
outer loop
vertex 17.6034437038564 58.4900588832577 21.625
vertex 22.7717042782343 53.4417487848354 23.9549512883487
vertex 16.7095264517432 56.9417487848354 23.9549512883487
endloop
endfacet
facet normal -0.482962913144534 -0.836516303737807 0.258819045102526
outer loop
vertex 16.5957541127252 56.7446893131602 13.9294476391798
vertex 14.4641016151377 57.0525588832577 12.0
vertex 16.1961524227066 56.0525588832577 12.0
endloop
endfacet
facet normal -0.433012701892218 -0.749999999999998 0.500000000000003
outer loop
vertex 14.4641016151377 57.0525588832577 12.0
vertex 16.5957541127252 56.7446893131602 13.9294476391798
vertex 14.8637033051563 57.7446893131602 13.9294476391798
endloop
endfacet
facet normal 0.249999999999998 0.433012701892212 0.866025403784443
outer loop
vertex 10.7320508075689 46.5884572681199 9.07179676972449
vertex 9.96472381958996 49.2594079389216 8.27259338968747
vertex 9.0 47.5884572681199 9.07179676972449
endloop
endfacet
facet normal 0.12940952255126 0.224143868042007 0.96592582628907
outer loop
vertex 9.96472381958996 49.2594079389216 8.27259338968747
vertex 10.7320508075689 46.5884572681199 9.07179676972449
vertex 11.6967746271588 48.2594079389216 8.27259338968747
endloop
endfacet
facet normal -0.482962913144534 -0.836516303737807 -0.258819045102526
outer loop
vertex 16.5957541127252 56.7446893131602 18.0705523608202
vertex 15.0 57.9807621135332 16.0
vertex 16.7320508075689 56.9807621135332 16.0
endloop
endfacet
facet normal -0.5 -0.866025403784439 -5.34666593738811e-016
outer loop
vertex 15.0 57.9807621135332 16.0
vertex 16.5957541127252 56.7446893131602 18.0705523608202
vertex 14.8637033051563 57.7446893131602 18.0705523608202
endloop
endfacet
facet normal -0.129409522551258 -0.224143868042013 0.965925826289069
outer loop
vertex 13.767326987979 51.8457098275938 8.27259338968747
vertex 13.0 54.5166604983954 9.07179676972449
vertex 12.0352761804101 52.8457098275938 8.27259338968747
endloop
endfacet
facet normal -0.249999999999994 -0.43301270189222 0.86602540378444
outer loop
vertex 13.0 54.5166604983954 9.07179676972449
vertex 13.767326987979 51.8457098275938 8.27259338968747
vertex 14.7320508075689 53.5166604983955 9.07179676972449
endloop
endfacet
facet normal -0.433012701892221 -0.750000000000002 -0.499999999999996
outer loop
vertex 23.6656215303474 54.9900588832577 21.625
vertex 18.1653835804449 59.463367300308 18.9117142574034
vertex 24.2275614069359 55.963367300308 18.9117142574034
endloop
endfacet
facet normal -0.482962913144533 -0.836516303737808 -0.258819045102523
outer loop
vertex 18.1653835804449 59.463367300308 18.9117142574034
vertex 23.6656215303474 54.9900588832577 21.625
vertex 17.6034437038564 58.4900588832577 21.625
endloop
endfacet
facet normal 1.97826639683362e-015 1.57726645152951e-015 1.0
outer loop
vertex 12.7320508075689 50.0525588832577 8.00000000000001
vertex 12.0352761804101 52.8457098275938 8.27259338968747
vertex 11.0 51.0525588832577 8.00000000000001
endloop
endfacet
facet normal -0.129409522551257 -0.224143868042013 0.965925826289069
outer loop
vertex 12.0352761804101 52.8457098275938 8.27259338968747
vertex 12.7320508075689 50.0525588832577 8.00000000000001
vertex 13.767326987979 51.8457098275938 8.27259338968747
endloop
endfacet
facet normal 0.499999999999995 0.866025403784442 -5.34666593738816e-017
outer loop
vertex 7.10705080756886 40.3097730906827 16.0
vertex 13.360895861184 37.1417504662074 18.9117142574034
vertex 13.16922863406 36.8097730906827 16.0
endloop
endfacet
facet normal 0.482962913144529 0.836516303737811 -0.25881904510252
outer loop
vertex 13.360895861184 37.1417504662074 18.9117142574034
vertex 7.10705080756886 40.3097730906827 16.0
vertex 7.29871803469287 40.6417504662073 18.9117142574034
endloop
endfacet
facet normal -0.353553390593272 -0.612372435695797 -0.707106781186546
outer loop
vertex 13.8284271247462 55.951538368824 21.6568542494924
vertex 14.7320508075689 53.5166604983955 22.9282032302755
vertex 13.0 54.5166604983954 22.9282032302755
endloop
endfacet
facet normal -0.249999999999997 -0.433012701892224 -0.866025403784437
outer loop
vertex 14.7320508075689 53.5166604983955 22.9282032302755
vertex 13.8284271247462 55.951538368824 21.6568542494924
vertex 15.5604779323151 54.951538368824 21.6568542494924
endloop
endfacet
facet normal 1.0 0.0 -5.55111512312578e-017
outer loop
vertex 4.0 13.9294476391798 8.27259338968745
vertex 4.0 13.4 16.0
vertex 4.0 12.0 9.07179676972449
endloop
endfacet
facet normal 1.0 0.0 -5.55111512312578e-017
outer loop
vertex 4.0 13.4 16.0
vertex 4.0 13.9294476391798 8.27259338968745
vertex 4.0 13.4885928516484 15.3270704827334
endloop
endfacet
facet normal 1.0 0.0 -5.55111512312578e-017
outer loop
vertex 4.0 13.4885928516484 15.3270704827334
vertex 4.0 13.9294476391798 8.27259338968745
vertex 4.0 13.7483339501605 14.7
endloop
endfacet
facet normal 1.0 0.0 -5.55111512312578e-017
outer loop
vertex 4.0 13.7483339501605 14.7
vertex 4.0 13.9294476391798 8.27259338968745
vertex 4.0 14.161522368915 14.161522368915
endloop
endfacet
facet normal 1.0 0.0 -5.55111512312578e-017
outer loop
vertex 4.0 14.161522368915 14.161522368915
vertex 4.0 13.9294476391798 8.27259338968745
vertex 4.0 16.0 8.00000000000001
endloop
endfacet
facet normal 1.0 0.0 -5.55111512312578e-017
outer loop
vertex 4.0 14.161522368915 14.161522368915
vertex 4.0 16.0 8.00000000000001
vertex 4.0 14.7 13.7483339501605
endloop
endfacet
facet normal 1.0 0.0 -5.55111512312578e-017
outer loop
vertex 4.0 14.7 13.7483339501605
vertex 4.0 16.0 8.00000000000001
vertex 4.0 15.3270704827334 13.4885928516484
endloop
endfacet
facet normal 1.0 0.0 -5.55111512312578e-017
outer loop
vertex 4.0 15.3270704827334 13.4885928516484
vertex 4.0 16.0 8.00000000000001
vertex 4.0 16.0 13.4
endloop
endfacet
facet normal 1.0 0.0 -5.55111512312578e-017
outer loop
vertex 4.0 16.0 13.4
vertex 4.0 16.0 8.00000000000001
vertex 4.0 16.6729295172666 13.4885928516484
endloop
endfacet
facet normal 1.0 0.0 -5.55111512312578e-017
outer loop
vertex 4.0 16.6729295172666 13.4885928516484
vertex 4.0 16.0 8.00000000000001
vertex 4.0 18.0705523608202 8.27259338968746
endloop
endfacet
facet normal 1.0 0.0 -5.55111512312578e-017
outer loop
vertex 4.0 16.6729295172666 13.4885928516484
vertex 4.0 18.0705523608202 8.27259338968746
vertex 4.0 17.3 13.7483339501605
endloop
endfacet
facet normal 1.0 0.0 -5.55111512312578e-017
outer loop
vertex 4.0 17.3 13.7483339501605
vertex 4.0 18.0705523608202 8.27259338968746
vertex 4.0 17.838477631085 14.161522368915
endloop
endfacet
facet normal 1.0 0.0 -5.55111512312578e-017
outer loop
vertex 4.0 17.838477631085 14.161522368915
vertex 4.0 18.0705523608202 8.27259338968746
vertex 4.0 18.2516660498395 14.7
endloop
endfacet
facet normal 1.0 0.0 -5.55111512312578e-017
outer loop
vertex 4.0 18.2516660498395 14.7
vertex 4.0 18.0705523608202 8.27259338968746
vertex 4.0 20.0 9.0717967697245
endloop
endfacet
facet normal 1.0 0.0 -5.55111512312578e-017
outer loop
vertex 4.0 18.2516660498395 14.7
vertex 4.0 20.0 9.0717967697245
vertex 4.0 18.5114071483516 15.3270704827335
endloop
endfacet
facet normal 1.0 0.0 -5.55111512312578e-017
outer loop
vertex 4.0 18.5114071483516 15.3270704827335
vertex 4.0 20.0 9.0717967697245
vertex 4.0 18.6 16.0
endloop
endfacet
facet normal 1.0 0.0 -5.55111512312578e-017
outer loop
vertex 4.0 18.6 16.0
vertex 4.0 20.0 9.0717967697245
vertex 4.0 20.0 22.9282032302755
endloop
endfacet
facet normal 1.0 0.0 -5.55111512312578e-017
outer loop
vertex 4.0 20.0 22.9282032302755
vertex 4.0 20.0 9.0717967697245
vertex 4.0 21.6568542494924 21.6568542494924
endloop
endfacet
facet normal 1.0 0.0 -5.55111512312578e-017
outer loop
vertex 4.0 21.6568542494924 21.6568542494924
vertex 4.0 20.0 9.0717967697245
vertex 4.0 21.6568542494924 10.3431457505076
endloop
endfacet
facet normal 1.0 0.0 -5.55111512312578e-017
outer loop
vertex 4.0 21.6568542494924 21.6568542494924
vertex 4.0 21.6568542494924 10.3431457505076
vertex 4.0 22.9282032302755 20.0
endloop
endfacet
facet normal 1.0 0.0 -5.55111512312578e-017
outer loop
vertex 4.0 22.9282032302755 20.0
vertex 4.0 21.6568542494924 10.3431457505076
vertex 4.0 22.9282032302755 12.0
endloop
endfacet
facet normal 1.0 0.0 -5.55111512312578e-017
outer loop
vertex 4.0 22.9282032302755 20.0
vertex 4.0 22.9282032302755 12.0
vertex 4.0 23.7274066103126 13.9294476391798
endloop
endfacet
facet normal 1.0 0.0 -5.55111512312578e-017
outer loop
vertex 4.0 22.9282032302755 20.0
vertex 4.0 23.7274066103126 13.9294476391798
vertex 4.0 23.7274066103125 18.0705523608202
endloop
endfacet
facet normal 1.0 0.0 -5.55111512312578e-017
outer loop
vertex 4.0 23.7274066103125 18.0705523608202
vertex 4.0 23.7274066103126 13.9294476391798
vertex 4.0 24.0 16.0
endloop
endfacet
facet normal 1.0 0.0 -5.55111512312578e-017
outer loop
vertex 4.0 8.27259338968745 13.9294476391798
vertex 4.0 8.27259338968745 18.0705523608202
vertex 4.0 8.0 16.0
endloop
endfacet
facet normal 1.0 0.0 -5.55111512312578e-017
outer loop
vertex 4.0 8.27259338968745 18.0705523608202
vertex 4.0 8.27259338968745 13.9294476391798
vertex 4.0 9.07179676972449 12.0
endloop
endfacet
facet normal 1.0 0.0 -5.55111512312578e-017
outer loop
vertex 4.0 8.27259338968745 18.0705523608202
vertex 4.0 9.07179676972449 12.0
vertex 4.0 9.07179676972449 20.0
endloop
endfacet
facet normal 1.0 0.0 -5.55111512312578e-017
outer loop
vertex 4.0 9.07179676972449 20.0
vertex 4.0 9.07179676972449 12.0
vertex 4.0 10.3431457505076 10.3431457505076
endloop
endfacet
facet normal 1.0 0.0 -5.55111512312578e-017
outer loop
vertex 4.0 9.07179676972449 20.0
vertex 4.0 10.3431457505076 10.3431457505076
vertex 4.0 10.3431457505076 21.6568542494924
endloop
endfacet
facet normal 1.0 0.0 -5.55111512312578e-017
outer loop
vertex 4.0 10.3431457505076 21.6568542494924
vertex 4.0 10.3431457505076 10.3431457505076
vertex 4.0 12.0 22.9282032302755
endloop
endfacet
facet normal 1.0 0.0 -5.55111512312578e-017
outer loop
vertex 4.0 12.0 22.9282032302755
vertex 4.0 10.3431457505076 10.3431457505076
vertex 4.0 12.0 9.07179676972449
endloop
endfacet
facet normal 1.0 0.0 -5.55111512312578e-017
outer loop
vertex 4.0 12.0 22.9282032302755
vertex 4.0 12.0 9.07179676972449
vertex 4.0 13.9294476391798 23.7274066103125
endloop
endfacet
facet normal 1.0 0.0 -5.55111512312578e-017
outer loop
vertex 4.0 13.9294476391798 23.7274066103125
vertex 4.0 12.0 9.07179676972449
vertex 4.0 13.4 16.0
endloop
endfacet
facet normal 1.0 0.0 -5.55111512312578e-017
outer loop
vertex 4.0 13.9294476391798 23.7274066103125
vertex 4.0 13.4 16.0
vertex 4.0 13.4885928516484 16.6729295172666
endloop
endfacet
facet normal 1.0 0.0 -5.55111512312578e-017
outer loop
vertex 4.0 13.9294476391798 23.7274066103125
vertex 4.0 13.4885928516484 16.6729295172666
vertex 4.0 13.7483339501605 17.3
endloop
endfacet
facet normal 1.0 0.0 -5.55111512312578e-017
outer loop
vertex 4.0 13.9294476391798 23.7274066103125
vertex 4.0 13.7483339501605 17.3
vertex 4.0 14.161522368915 17.838477631085
endloop
endfacet
facet normal 1.0 0.0 -5.55111512312578e-017
outer loop
vertex 4.0 13.9294476391798 23.7274066103125
vertex 4.0 14.161522368915 17.838477631085
vertex 4.0 16.0 24.0
endloop
endfacet
facet normal 1.0 0.0 -5.55111512312578e-017
outer loop
vertex 4.0 16.0 24.0
vertex 4.0 14.161522368915 17.838477631085
vertex 4.0 14.7 18.2516660498395
endloop
endfacet
facet normal 1.0 0.0 -5.55111512312578e-017
outer loop
vertex 4.0 16.0 24.0
vertex 4.0 14.7 18.2516660498395
vertex 4.0 15.3270704827334 18.5114071483516
endloop
endfacet
facet normal 1.0 0.0 -5.55111512312578e-017
outer loop
vertex 4.0 16.0 24.0
vertex 4.0 15.3270704827334 18.5114071483516
vertex 4.0 16.0 18.6
endloop
endfacet
facet normal 1.0 0.0 -5.55111512312578e-017
outer loop
vertex 4.0 16.0 24.0
vertex 4.0 16.0 18.6
vertex 4.0 16.6729295172665 18.5114071483516
endloop
endfacet
facet normal 1.0 0.0 -5.55111512312578e-017
outer loop
vertex 4.0 16.0 24.0
vertex 4.0 16.6729295172665 18.5114071483516
vertex 4.0 18.0705523608202 23.7274066103125
endloop
endfacet
facet normal 1.0 0.0 -5.55111512312578e-017
outer loop
vertex 4.0 18.0705523608202 23.7274066103125
vertex 4.0 16.6729295172665 18.5114071483516
vertex 4.0 17.3 18.2516660498395
endloop
endfacet
facet normal 1.0 0.0 -5.55111512312578e-017
outer loop
vertex 4.0 18.0705523608202 23.7274066103125
vertex 4.0 17.3 18.2516660498395
vertex 4.0 17.838477631085 17.838477631085
endloop
endfacet
facet normal 1.0 0.0 -5.55111512312578e-017
outer loop
vertex 4.0 18.0705523608202 23.7274066103125
vertex 4.0 17.838477631085 17.838477631085
vertex 4.0 18.2516660498395 17.3
endloop
endfacet
facet normal 1.0 0.0 -5.55111512312578e-017
outer loop
vertex 4.0 18.0705523608202 23.7274066103125
vertex 4.0 18.2516660498395 17.3
vertex 4.0 20.0 22.9282032302755
endloop
endfacet
facet normal 1.0 0.0 -5.55111512312578e-017
outer loop
vertex 4.0 20.0 22.9282032302755
vertex 4.0 18.2516660498395 17.3
vertex 4.0 18.5114071483516 16.6729295172666
endloop
endfacet
facet normal 1.0 0.0 -5.55111512312578e-017
outer loop
vertex 4.0 20.0 22.9282032302755
vertex 4.0 18.5114071483516 16.6729295172666
vertex 4.0 18.6 16.0
endloop
endfacet
facet normal 0.482962913144529 0.836516303737811 -0.25881904510252
outer loop
vertex 7.29871803469287 40.6417504662073 18.9117142574034
vertex 13.9228357377725 38.1150588832577 21.625
vertex 13.360895861184 37.1417504662074 18.9117142574034
endloop
endfacet
facet normal 0.433012701892216 0.750000000000003 -0.499999999999998
outer loop
vertex 13.9228357377725 38.1150588832577 21.625
vertex 7.29871803469287 40.6417504662073 18.9117142574034
vertex 7.8606579112814 41.6150588832576 21.625
endloop
endfacet
facet normal 4.10572754316159e-032 1.0 7.39622121338693e-016
outer loop
vertex 4.0 8.0 16.0
vertex 10.0 8.27259338968745 13.9294476391798
vertex 4.0 8.27259338968745 13.9294476391798
endloop
endfacet
facet normal 1.43673431542158e-017 0.965925826289068 0.258819045102522
outer loop
vertex 10.0 8.27259338968745 13.9294476391798
vertex 4.0 8.0 16.0
vertex 10.0 8.0 16.0
endloop
endfacet
facet normal -1.43673431542158e-017 0.965925826289068 -0.258819045102521
outer loop
vertex 4.0 8.27259338968745 18.0705523608202
vertex 10.0 8.0 16.0
vertex 4.0 8.0 16.0
endloop
endfacet
facet normal 4.10572754316159e-032 1.0 7.39622121338693e-016
outer loop
vertex 10.0 8.0 16.0
vertex 4.0 8.27259338968745 18.0705523608202
vertex 10.0 8.27259338968745 18.0705523608202
endloop
endfacet
facet normal 5.12388818999696e-016 8.37644330190808e-016 -1.0
outer loop
vertex 12.7320508075689 50.0525588832576 27.25
vertex 17.3383715053583 44.030940367785 26.866665545752
vertex 11.2761936788672 47.530940367785 26.866665545752
endloop
endfacet
facet normal 0.12940952255126 0.224143868042012 -0.965925826289069
outer loop
vertex 17.3383715053583 44.030940367785 26.866665545752
vertex 12.7320508075689 50.0525588832576 27.25
vertex 18.7942286340599 46.5525588832576 27.25
endloop
endfacet
facet normal 0.249999999999999 0.43301270189222 -0.866025403784438
outer loop
vertex 9.91955080756886 45.1811659869702 25.7427857925749
vertex 14.8167529898856 39.66336898168 23.9549512883487
vertex 8.75457516339456 43.16336898168 23.9549512883487
endloop
endfacet
facet normal 0.353553390593272 0.612372435695797 -0.707106781186546
outer loop
vertex 14.8167529898856 39.66336898168 23.9549512883487
vertex 9.91955080756886 45.1811659869702 25.7427857925749
vertex 15.98172863406 41.6811659869702 25.7427857925749
endloop
endfacet
facet normal 0.433012701892216 0.750000000000003 -0.499999999999997
outer loop
vertex 7.8606579112814 41.6150588832576 21.625
vertex 14.8167529898856 39.66336898168 23.9549512883487
vertex 13.9228357377725 38.1150588832577 21.625
endloop
endfacet
facet normal 0.353553390593272 0.612372435695797 -0.707106781186546
outer loop
vertex 14.8167529898856 39.66336898168 23.9549512883487
vertex 7.8606579112814 41.6150588832576 21.625
vertex 8.75457516339456 43.16336898168 23.9549512883487
endloop
endfacet
facet normal 0.12940952255126 0.224143868042012 0.965925826289069
outer loop
vertex 17.3383715053583 44.030940367785 5.13333445424799
vertex 12.7320508075689 50.0525588832577 4.75000000000002
vertex 11.2761936788672 47.530940367785 5.13333445424799
endloop
endfacet
facet normal -2.53966632025936e-016 -8.0199989060822e-016 1.0
outer loop
vertex 12.7320508075689 50.0525588832577 4.75000000000002
vertex 17.3383715053583 44.030940367785 5.13333445424799
vertex 18.7942286340599 46.5525588832577 4.75000000000001
endloop
endfacet
facet normal 0.129409522551261 0.22414386804201 -0.965925826289069
outer loop
vertex 9.96472381958996 49.2594079389216 23.7274066103126
vertex 10.7320508075689 46.5884572681199 22.9282032302755
vertex 9.0 47.5884572681199 22.9282032302755
endloop
endfacet
facet normal 0.249999999999999 0.433012701892214 -0.866025403784442
outer loop
vertex 10.7320508075689 46.5884572681199 22.9282032302755
vertex 9.96472381958996 49.2594079389216 23.7274066103126
vertex 11.6967746271588 48.2594079389216 23.7274066103126
endloop
endfacet
facet normal 0.129409522551259 0.224143868042012 -0.965925826289069
outer loop
vertex 11.2761936788672 47.530940367785 26.866665545752
vertex 15.98172863406 41.6811659869702 25.7427857925749
vertex 9.91955080756886 45.1811659869702 25.7427857925749
endloop
endfacet
facet normal 0.249999999999999 0.433012701892219 -0.866025403784439
outer loop
vertex 15.98172863406 41.6811659869702 25.7427857925749
vertex 11.2761936788672 47.530940367785 26.866665545752
vertex 17.3383715053583 44.030940367785 26.866665545752
endloop
endfacet
facet normal -0.499999999999997 -0.86602540378444 8.01999890608227e-017
outer loop
vertex 24.41922863406 56.2953446758326 16.0
vertex 18.1653835804449 59.463367300308 13.0882857425967
vertex 24.2275614069359 55.963367300308 13.0882857425967
endloop
endfacet
facet normal -0.482962913144532 -0.836516303737808 0.258819045102523
outer loop
vertex 18.1653835804449 59.463367300308 13.0882857425967
vertex 24.41922863406 56.2953446758326 16.0
vertex 18.3570508075689 59.7953446758326 16.0
endloop
endfacet
facet normal 0.353553390593272 0.612372435695793 0.70710678118655
outer loop
vertex 8.75457516339455 43.16336898168 8.04504871165134
vertex 13.9228357377725 38.1150588832577 10.375
vertex 14.8167529898856 39.66336898168 8.04504871165133
endloop
endfacet
facet normal 0.433012701892216 0.750000000000002 0.499999999999999
outer loop
vertex 13.9228357377725 38.1150588832577 10.375
vertex 8.75457516339455 43.16336898168 8.04504871165134
vertex 7.8606579112814 41.6150588832577 10.375
endloop
endfacet
facet normal -0.249999999999999 -0.433012701892217 -0.86602540378444
outer loop
vertex 15.5445508075689 54.9239517795451 25.742785792575
vertex 20.2500857627616 49.0741773987303 26.866665545752
vertex 14.1879079362706 52.5741773987303 26.866665545752
endloop
endfacet
facet normal -0.129409522551259 -0.224143868042011 -0.965925826289069
outer loop
vertex 20.2500857627616 49.0741773987303 26.866665545752
vertex 15.5445508075689 54.9239517795451 25.742785792575
vertex 21.60672863406 51.4239517795452 25.7427857925749
endloop
endfacet
facet normal -0.433012701892219 -0.749999999999998 -0.500000000000003
outer loop
vertex 16.1961524227066 56.0525588832577 20.0
vertex 14.8637033051563 57.7446893131602 18.0705523608202
vertex 16.5957541127252 56.7446893131602 18.0705523608202
endloop
endfacet
facet normal -0.482962913144533 -0.836516303737806 -0.258819045102526
outer loop
vertex 14.8637033051563 57.7446893131602 18.0705523608202
vertex 16.1961524227066 56.0525588832577 20.0
vertex 14.4641016151377 57.0525588832577 20.0
endloop
endfacet
facet normal 0.866025403784439 -0.5 -1.79913051333826e-016
outer loop
vertex 8.75457516339455 43.16336898168 8.04504871165134
vertex 8.73205080756886 43.1243556529821 16.0
vertex 7.8606579112814 41.6150588832577 10.375
endloop
endfacet
facet normal 0.866025403784439 -0.5 -1.79913051333826e-016
outer loop
vertex 8.73205080756886 43.1243556529821 16.0
vertex 8.75457516339455 43.16336898168 8.04504871165134
vertex 8.86834750241261 43.3604284533552 13.9294476391798
endloop
endfacet
facet normal 0.866025403784439 -0.5 -1.79913051333826e-016
outer loop
vertex 8.86834750241261 43.3604284533552 13.9294476391798
vertex 8.75457516339455 43.16336898168 8.04504871165134
vertex 9.91955080756888 45.1811659869702 6.25721420742507
endloop
endfacet
facet normal 0.866025403784439 -0.5 -1.79913051333826e-016
outer loop
vertex 8.86834750241261 43.3604284533552 13.9294476391798
vertex 9.91955080756888 45.1811659869702 6.25721420742507
vertex 9.26794919243112 44.0525588832577 12.0
endloop
endfacet
facet normal 0.866025403784439 -0.5 -1.79913051333826e-016
outer loop
vertex 9.26794919243112 44.0525588832577 12.0
vertex 9.91955080756888 45.1811659869702 6.25721420742507
vertex 9.90362368282267 45.1535793976913 10.3431457505076
endloop
endfacet
facet normal 0.866025403784439 -0.5 -1.79913051333826e-016
outer loop
vertex 9.90362368282267 45.1535793976913 10.3431457505076
vertex 9.91955080756888 45.1811659869702 6.25721420742507
vertex 10.7320508075689 46.5884572681199 9.07179676972449
endloop
endfacet
facet normal 0.866025403784439 -0.5 -1.79913051333826e-016
outer loop
vertex 10.7320508075689 46.5884572681199 9.07179676972449
vertex 9.91955080756888 45.1811659869702 6.25721420742507
vertex 11.2761936788672 47.530940367785 5.13333445424799
endloop
endfacet
facet normal 0.866025403784439 -0.5 -1.79913051333826e-016
outer loop
vertex 10.7320508075689 46.5884572681199 9.07179676972449
vertex 11.2761936788672 47.530940367785 5.13333445424799
vertex 11.6967746271588 48.2594079389216 8.27259338968747
endloop
endfacet
facet normal 0.866025403784439 -0.5 -1.79913051333826e-016
outer loop
vertex 11.6967746271588 48.2594079389216 8.27259338968747
vertex 11.2761936788672 47.530940367785 5.13333445424799
vertex 12.7320508075689 50.0525588832577 4.75000000000002
endloop
endfacet
facet normal 0.866025403784439 -0.5 -1.79913051333826e-016
outer loop
vertex 11.6967746271588 48.2594079389216 8.27259338968747
vertex 12.7320508075689 50.0525588832577 4.75000000000002
vertex 12.7320508075689 50.0525588832577 8.00000000000001
endloop
endfacet
facet normal 0.866025403784439 -0.5 -1.79913051333826e-016
outer loop
vertex 12.7320508075689 50.0525588832577 8.00000000000001
vertex 12.7320508075689 50.0525588832577 4.75000000000002
vertex 14.1879079362706 52.5741773987303 5.133334454248
endloop
endfacet
facet normal 0.866025403784439 -0.5 -1.79913051333826e-016
outer loop
vertex 12.7320508075689 50.0525588832577 8.00000000000001
vertex 14.1879079362706 52.5741773987303 5.133334454248
vertex 13.767326987979 51.8457098275938 8.27259338968747
endloop
endfacet
facet normal 0.866025403784439 -0.5 -1.79913051333826e-016
outer loop
vertex 13.767326987979 51.8457098275938 8.27259338968747
vertex 14.1879079362706 52.5741773987303 5.133334454248
vertex 14.7320508075689 53.5166604983955 9.07179676972449
endloop
endfacet
facet normal 0.866025403784439 -0.5 -1.79913051333826e-016
outer loop
vertex 14.7320508075689 53.5166604983955 9.07179676972449
vertex 14.1879079362706 52.5741773987303 5.133334454248
vertex 15.5445508075689 54.9239517795451 6.25721420742509
endloop
endfacet
facet normal 0.866025403784439 -0.5 -1.79913051333826e-016
outer loop
vertex 14.7320508075689 53.5166604983955 9.07179676972449
vertex 15.5445508075689 54.9239517795451 6.25721420742509
vertex 15.5604779323151 54.951538368824 10.3431457505076
endloop
endfacet
facet normal 0.866025403784439 -0.5 -1.79913051333826e-016
outer loop
vertex 15.5604779323151 54.951538368824 10.3431457505076
vertex 15.5445508075689 54.9239517795451 6.25721420742509
vertex 16.7095264517432 56.9417487848354 8.04504871165135
endloop
endfacet
facet normal 0.866025403784439 -0.5 -1.79913051333826e-016
outer loop
vertex 15.5604779323151 54.951538368824 10.3431457505076
vertex 16.7095264517432 56.9417487848354 8.04504871165135
vertex 16.1961524227066 56.0525588832577 12.0
endloop
endfacet
facet normal 0.866025403784439 -0.5 -1.79913051333826e-016
outer loop
vertex 16.1961524227066 56.0525588832577 12.0
vertex 16.7095264517432 56.9417487848354 8.04504871165135
vertex 16.5957541127252 56.7446893131602 13.9294476391798
endloop
endfacet
facet normal 0.866025403784439 -0.5 -1.79913051333826e-016
outer loop
vertex 16.5957541127252 56.7446893131602 13.9294476391798
vertex 16.7095264517432 56.9417487848354 8.04504871165135
vertex 16.7320508075689 56.9807621135332 16.0
endloop
endfacet
facet normal 0.866025403784439 -0.5 -1.79913051333826e-016
outer loop
vertex 16.7320508075689 56.9807621135332 16.0
vertex 16.7095264517432 56.9417487848354 8.04504871165135
vertex 17.6034437038564 58.4900588832577 10.375
endloop
endfacet
facet normal 0.866025403784439 -0.5 -1.79913051333826e-016
outer loop
vertex 7.29871803469287 40.6417504662073 13.0882857425966
vertex 7.29871803469287 40.6417504662073 18.9117142574034
vertex 7.10705080756886 40.3097730906827 16.0
endloop
endfacet
facet normal 0.866025403784439 -0.5 -1.79913051333826e-016
outer loop
vertex 7.29871803469287 40.6417504662073 18.9117142574034
vertex 7.29871803469287 40.6417504662073 13.0882857425966
vertex 7.8606579112814 41.6150588832576 21.625
endloop
endfacet
facet normal 0.866025403784439 -0.5 -1.79913051333826e-016
outer loop
vertex 7.8606579112814 41.6150588832576 21.625
vertex 7.29871803469287 40.6417504662073 13.0882857425966
vertex 7.8606579112814 41.6150588832577 10.375
endloop
endfacet
facet normal 0.866025403784439 -0.5 -1.79913051333826e-016
outer loop
vertex 7.8606579112814 41.6150588832576 21.625
vertex 7.8606579112814 41.6150588832577 10.375
vertex 8.75457516339456 43.16336898168 23.9549512883487
endloop
endfacet
facet normal 0.866025403784439 -0.5 -1.79913051333826e-016
outer loop
vertex 8.75457516339456 43.16336898168 23.9549512883487
vertex 7.8606579112814 41.6150588832577 10.375
vertex 8.73205080756886 43.1243556529821 16.0
endloop
endfacet
facet normal 0.866025403784439 -0.5 -1.79913051333826e-016
outer loop
vertex 8.75457516339456 43.16336898168 23.9549512883487
vertex 8.73205080756886 43.1243556529821 16.0
vertex 8.86834750241262 43.3604284533552 18.0705523608202
endloop
endfacet
facet normal 0.866025403784439 -0.5 -1.79913051333826e-016
outer loop
vertex 8.75457516339456 43.16336898168 23.9549512883487
vertex 8.86834750241262 43.3604284533552 18.0705523608202
vertex 9.91955080756886 45.1811659869702 25.7427857925749
endloop
endfacet
facet normal 0.866025403784439 -0.5 -1.79913051333826e-016
outer loop
vertex 9.91955080756886 45.1811659869702 25.7427857925749
vertex 8.86834750241262 43.3604284533552 18.0705523608202
vertex 9.26794919243112 44.0525588832577 20.0
endloop
endfacet
facet normal 0.866025403784439 -0.5 -1.79913051333826e-016
outer loop
vertex 9.91955080756886 45.1811659869702 25.7427857925749
vertex 9.26794919243112 44.0525588832577 20.0
vertex 9.90362368282267 45.1535793976913 21.6568542494924
endloop
endfacet
facet normal 0.866025403784439 -0.5 -1.79913051333826e-016
outer loop
vertex 9.91955080756886 45.1811659869702 25.7427857925749
vertex 9.90362368282267 45.1535793976913 21.6568542494924
vertex 10.7320508075689 46.5884572681199 22.9282032302755
endloop
endfacet
facet normal 0.866025403784439 -0.5 -1.79913051333826e-016
outer loop
vertex 9.91955080756886 45.1811659869702 25.7427857925749
vertex 10.7320508075689 46.5884572681199 22.9282032302755
vertex 11.2761936788672 47.530940367785 26.866665545752
endloop
endfacet
facet normal 0.866025403784439 -0.5 -1.79913051333826e-016
outer loop
vertex 11.2761936788672 47.530940367785 26.866665545752
vertex 10.7320508075689 46.5884572681199 22.9282032302755
vertex 11.6967746271588 48.2594079389216 23.7274066103126
endloop
endfacet
facet normal 0.866025403784439 -0.5 -1.79913051333826e-016
outer loop
vertex 11.2761936788672 47.530940367785 26.866665545752
vertex 11.6967746271588 48.2594079389216 23.7274066103126
vertex 12.7320508075689 50.0525588832576 27.25
endloop
endfacet
facet normal 0.866025403784439 -0.5 -1.79913051333826e-016
outer loop
vertex 12.7320508075689 50.0525588832576 27.25
vertex 11.6967746271588 48.2594079389216 23.7274066103126
vertex 12.7320508075689 50.0525588832576 24.0
endloop
endfacet
facet normal 0.866025403784439 -0.5 -1.79913051333826e-016
outer loop
vertex 12.7320508075689 50.0525588832576 27.25
vertex 12.7320508075689 50.0525588832576 24.0
vertex 14.1879079362706 52.5741773987303 26.866665545752
endloop
endfacet
facet normal 0.866025403784439 -0.5 -1.79913051333826e-016
outer loop
vertex 14.1879079362706 52.5741773987303 26.866665545752
vertex 12.7320508075689 50.0525588832576 24.0
vertex 13.767326987979 51.8457098275938 23.7274066103126
endloop
endfacet
facet normal 0.866025403784439 -0.5 -1.79913051333826e-016
outer loop
vertex 14.1879079362706 52.5741773987303 26.866665545752
vertex 13.767326987979 51.8457098275938 23.7274066103126
vertex 14.7320508075689 53.5166604983955 22.9282032302755
endloop
endfacet
facet normal 0.866025403784439 -0.5 -1.79913051333826e-016
outer loop
vertex 14.1879079362706 52.5741773987303 26.866665545752
vertex 14.7320508075689 53.5166604983955 22.9282032302755
vertex 15.5445508075689 54.9239517795451 25.742785792575
endloop
endfacet
facet normal 0.866025403784439 -0.5 -1.79913051333826e-016
outer loop
vertex 15.5445508075689 54.9239517795451 25.742785792575
vertex 14.7320508075689 53.5166604983955 22.9282032302755
vertex 15.5604779323151 54.951538368824 21.6568542494924
endloop
endfacet
facet normal 0.866025403784439 -0.5 -1.79913051333826e-016
outer loop
vertex 15.5445508075689 54.9239517795451 25.742785792575
vertex 15.5604779323151 54.951538368824 21.6568542494924
vertex 16.7095264517432 56.9417487848354 23.9549512883487
endloop
endfacet
facet normal 0.866025403784439 -0.5 -1.79913051333826e-016
outer loop
vertex 16.7095264517432 56.9417487848354 23.9549512883487
vertex 15.5604779323151 54.951538368824 21.6568542494924
vertex 16.1961524227066 56.0525588832577 20.0
endloop
endfacet
facet normal 0.866025403784439 -0.5 -1.79913051333826e-016
outer loop
vertex 16.7095264517432 56.9417487848354 23.9549512883487
vertex 16.1961524227066 56.0525588832577 20.0
vertex 16.5957541127252 56.7446893131602 18.0705523608202
endloop
endfacet
facet normal 0.866025403784439 -0.5 -1.79913051333826e-016
outer loop
vertex 16.7095264517432 56.9417487848354 23.9549512883487
vertex 16.5957541127252 56.7446893131602 18.0705523608202
vertex 16.7320508075689 56.9807621135332 16.0
endloop
endfacet
facet normal 0.866025403784439 -0.5 -1.79913051333826e-016
outer loop
vertex 16.7095264517432 56.9417487848354 23.9549512883487
vertex 16.7320508075689 56.9807621135332 16.0
vertex 17.6034437038564 58.4900588832577 21.625
endloop
endfacet
facet normal 0.866025403784439 -0.5 -1.79913051333826e-016
outer loop
vertex 17.6034437038564 58.4900588832577 21.625
vertex 16.7320508075689 56.9807621135332 16.0
vertex 17.6034437038564 58.4900588832577 10.375
endloop
endfacet
facet normal 0.866025403784439 -0.5 -1.79913051333826e-016
outer loop
vertex 17.6034437038564 58.4900588832577 21.625
vertex 17.6034437038564 58.4900588832577 10.375
vertex 18.1653835804449 59.463367300308 13.0882857425967
endloop
endfacet
facet normal 0.866025403784439 -0.5 -1.79913051333826e-016
outer loop
vertex 17.6034437038564 58.4900588832577 21.625
vertex 18.1653835804449 59.463367300308 13.0882857425967
vertex 18.1653835804449 59.463367300308 18.9117142574034
endloop
endfacet
facet normal 0.866025403784439 -0.5 -1.79913051333826e-016
outer loop
vertex 18.1653835804449 59.463367300308 18.9117142574034
vertex 18.1653835804449 59.463367300308 13.0882857425967
vertex 18.3570508075689 59.7953446758326 16.0
endloop
endfacet
facet normal 0.433012701892221 0.750000000000002 0.499999999999995
outer loop
vertex 7.53589838486224 45.0525588832577 12.0
vertex 9.90362368282267 45.1535793976913 10.3431457505076
vertex 8.1715728752538 46.1535793976913 10.3431457505076
endloop
endfacet
facet normal 0.353553390593274 0.612372435695794 0.707106781186548
outer loop
vertex 9.90362368282267 45.1535793976913 10.3431457505076
vertex 7.53589838486224 45.0525588832577 12.0
vertex 9.26794919243112 44.0525588832577 12.0
endloop
endfacet
facet normal 0.129409522551262 0.224143868042009 0.965925826289069
outer loop
vertex 11.6967746271588 48.2594079389216 8.27259338968747
vertex 11.0 51.0525588832577 8.00000000000001
vertex 9.96472381958996 49.2594079389216 8.27259338968747
endloop
endfacet
facet normal 1.26092205023404e-015 3.29711066138936e-016 1.0
outer loop
vertex 11.0 51.0525588832577 8.00000000000001
vertex 11.6967746271588 48.2594079389216 8.27259338968747
vertex 12.7320508075689 50.0525588832577 8.00000000000001
endloop
endfacet
facet normal 0.50000000000001 0.866025403784433 4.0099994530411e-016
outer loop
vertex 7.00000000000001 44.1243556529822 16.0
vertex 8.86834750241261 43.3604284533552 13.9294476391798
vertex 7.13629669484373 44.3604284533552 13.9294476391798
endloop
endfacet
facet normal 0.482962913144539 0.836516303737805 0.258819045102522
outer loop
vertex 8.86834750241261 43.3604284533552 13.9294476391798
vertex 7.00000000000001 44.1243556529822 16.0
vertex 8.73205080756886 43.1243556529821 16.0
endloop
endfacet
facet normal -0.129409522551259 -0.224143868042011 -0.965925826289069
outer loop
vertex 14.1879079362706 52.5741773987303 26.866665545752
vertex 18.7942286340599 46.5525588832576 27.25
vertex 12.7320508075689 50.0525588832576 27.25
endloop
endfacet
facet normal 3.20799956243289e-016 4.99022154156227e-016 -1.0
outer loop
vertex 18.7942286340599 46.5525588832576 27.25
vertex 14.1879079362706 52.5741773987303 26.866665545752
vertex 20.2500857627616 49.0741773987303 26.866665545752
endloop
endfacet
facet normal 0.433012701892216 0.750000000000003 0.499999999999999
outer loop
vertex 7.8606579112814 41.6150588832577 10.375
vertex 13.360895861184 37.1417504662074 13.0882857425966
vertex 13.9228357377725 38.1150588832577 10.375
endloop
endfacet
facet normal 0.482962913144529 0.836516303737811 0.25881904510252
outer loop
vertex 13.360895861184 37.1417504662074 13.0882857425966
vertex 7.8606579112814 41.6150588832577 10.375
vertex 7.29871803469287 40.6417504662073 13.0882857425966
endloop
endfacet
facet normal 9.98044308312456e-016 6.05955472903991e-016 -1.0
outer loop
vertex 11.0 51.0525588832577 24.0
vertex 11.6967746271588 48.2594079389216 23.7274066103126
vertex 9.96472381958996 49.2594079389216 23.7274066103126
endloop
endfacet
facet normal 0.129409522551263 0.224143868042012 -0.965925826289068
outer loop
vertex 11.6967746271588 48.2594079389216 23.7274066103126
vertex 11.0 51.0525588832577 24.0
vertex 12.7320508075689 50.0525588832576 24.0
endloop
endfacet
facet normal -0.129409522551259 -0.224143868042014 -0.965925826289068
outer loop
vertex 12.0352761804101 52.8457098275938 23.7274066103126
vertex 12.7320508075689 50.0525588832576 24.0
vertex 11.0 51.0525588832577 24.0
endloop
endfacet
facet normal 2.01836639136403e-015 2.37035523224209e-015 -1.0
outer loop
vertex 12.7320508075689 50.0525588832576 24.0
vertex 12.0352761804101 52.8457098275938 23.7274066103126
vertex 13.767326987979 51.8457098275938 23.7274066103126
endloop
endfacet
facet normal 0.482962913144529 0.836516303737811 0.25881904510252
outer loop
vertex 7.29871803469287 40.6417504662073 13.0882857425966
vertex 13.16922863406 36.8097730906827 16.0
vertex 13.360895861184 37.1417504662074 13.0882857425966
endloop
endfacet
facet normal 0.499999999999994 0.866025403784442 -2.67333296869408e-017
outer loop
vertex 13.16922863406 36.8097730906827 16.0
vertex 7.29871803469287 40.6417504662073 13.0882857425966
vertex 7.10705080756886 40.3097730906827 16.0
endloop
endfacet
facet normal -0.129409522551259 -0.224143868042012 0.965925826289069
outer loop
vertex 20.2500857627616 49.0741773987303 5.133334454248
vertex 15.5445508075689 54.9239517795451 6.25721420742509
vertex 14.1879079362706 52.5741773987303 5.133334454248
endloop
endfacet
facet normal -0.249999999999998 -0.433012701892219 0.866025403784439
outer loop
vertex 15.5445508075689 54.9239517795451 6.25721420742509
vertex 20.2500857627616 49.0741773987303 5.133334454248
vertex 21.60672863406 51.4239517795452 6.25721420742508
endloop
endfacet
facet normal -0.5 -0.866025403784439 -5.2575548384317e-016
outer loop
vertex 16.7320508075689 56.9807621135332 16.0
vertex 14.8637033051563 57.7446893131602 13.9294476391798
vertex 16.5957541127252 56.7446893131602 13.9294476391798
endloop
endfacet
facet normal -0.482962913144533 -0.836516303737806 0.258819045102526
outer loop
vertex 14.8637033051563 57.7446893131602 13.9294476391798
vertex 16.7320508075689 56.9807621135332 16.0
vertex 15.0 57.9807621135332 16.0
endloop
endfacet
facet normal -1.4637067577343e-032 -1.0 -2.63677968348475e-016
outer loop
vertex 10.0 0.0 32.0
vertex 0.0 1.12798659301916e-014 5.55111512312577e-016
vertex 10.0 1.12798659301916e-014 0.0
endloop
endfacet
facet normal -1.4637067577343e-032 -1.0 -2.63677968348475e-016
outer loop
vertex 0.0 1.12798659301916e-014 5.55111512312577e-016
vertex 10.0 0.0 32.0
vertex 1.77635683940025e-015 0.0 32.0
endloop
endfacet
facet normal -3.92523114670944e-017 -0.707106781186547 -0.707106781186548
outer loop
vertex 10.0 21.6568542494924 21.6568542494924
vertex 4.0 20.0 22.9282032302755
vertex 4.0 21.6568542494924 21.6568542494924
endloop
endfacet
facet normal -4.80740671595891e-017 -0.5 -0.866025403784439
outer loop
vertex 4.0 20.0 22.9282032302755
vertex 10.0 21.6568542494924 21.6568542494924
vertex 10.0 20.0 22.9282032302755
endloop
endfacet
facet normal 2.7755575615629e-017 0.866025403784438 0.500000000000001
outer loop
vertex 8.1601392309949e-016 13.7483339501605 14.7
vertex 4.0 14.161522368915 14.161522368915
vertex 7.8612240988568e-016 14.161522368915 14.161522368915
endloop
endfacet
facet normal 3.92523114670944e-017 0.707106781186546 0.707106781186549
outer loop
vertex 4.0 14.161522368915 14.161522368915
vertex 8.1601392309949e-016 13.7483339501605 14.7
vertex 4.0 13.7483339501605 14.7
endloop
endfacet
facet normal -2.77555756156288e-017 0.86602540378444 -0.499999999999998
outer loop
vertex 9.6034291630076e-016 13.7483339501605 17.3
vertex 4.0 13.4885928516484 16.6729295172666
vertex 9.25533511901086e-016 13.4885928516484 16.6729295172666
endloop
endfacet
facet normal -1.43673431542158e-017 0.965925826289068 -0.258819045102521
outer loop
vertex 4.0 13.4885928516484 16.6729295172666
vertex 9.6034291630076e-016 13.7483339501605 17.3
vertex 4.0 13.7483339501605 17.3
endloop
endfacet
facet normal -1.43673431542158e-017 0.965925826289068 -0.258819045102521
outer loop
vertex 9.25533511901086e-016 13.4885928516484 16.6729295172666
vertex 4.0 13.4 16.0
vertex 8.88178419700125e-016 13.4 16.0
endloop
endfacet
facet normal -1.48399790716684e-033 1.0 -2.67333296869407e-017
outer loop
vertex 4.0 13.4 16.0
vertex 9.25533511901086e-016 13.4885928516484 16.6729295172666
vertex 4.0 13.4885928516484 16.6729295172666
endloop
endfacet
facet normal -2.77555756156289e-017 0.866025403784439 -0.5
outer loop
vertex 4.0 9.07179676972449 20.0
vertex 10.0 8.27259338968745 18.0705523608202
vertex 4.0 8.27259338968745 18.0705523608202
endloop
endfacet
facet normal -1.43673431542158e-017 0.965925826289068 -0.258819045102521
outer loop
vertex 10.0 8.27259338968745 18.0705523608202
vertex 4.0 9.07179676972449 20.0
vertex 10.0 9.07179676972449 20.0
endloop
endfacet
facet normal -3.92523114670944e-017 -0.707106781186547 -0.707106781186548
outer loop
vertex 4.0 17.838477631085 17.838477631085
vertex 9.60342916300761e-016 18.2516660498395 17.3
vertex 4.0 18.2516660498395 17.3
endloop
endfacet
facet normal -2.77555756156288e-017 -0.866025403784439 -0.499999999999999
outer loop
vertex 9.60342916300761e-016 18.2516660498395 17.3
vertex 4.0 17.838477631085 17.838477631085
vertex 9.90234429514571e-016 17.838477631085 17.838477631085
endloop
endfacet
facet normal 3.92523114670944e-017 0.707106781186546 0.707106781186549
outer loop
vertex 7.8612240988568e-016 14.161522368915 14.161522368915
vertex 4.0 14.7 13.7483339501605
vertex 7.63185845085194e-016 14.7 13.7483339501605
endloop
endfacet
facet normal 4.80740671595891e-017 0.5 0.866025403784439
outer loop
vertex 4.0 14.7 13.7483339501605
vertex 7.8612240988568e-016 14.161522368915 14.161522368915
vertex 4.0 14.161522368915 14.161522368915
endloop
endfacet
facet normal 5.36196546213101e-017 -0.258819045102522 0.965925826289068
outer loop
vertex 4.0 16.6729295172666 13.4885928516484
vertex 7.63185845085194e-016 17.3 13.7483339501605
vertex 7.48767317684719e-016 16.6729295172666 13.4885928516484
endloop
endfacet
facet normal 4.8074067159589e-017 -0.500000000000003 0.866025403784437
outer loop
vertex 7.63185845085194e-016 17.3 13.7483339501605
vertex 4.0 16.6729295172666 13.4885928516484
vertex 4.0 17.3 13.7483339501605
endloop
endfacet
facet normal -4.67833269521463e-016 -1.16735539632974e-015 1.0
outer loop
vertex 18.7942286340599 46.5525588832577 4.75000000000001
vertex 14.1879079362706 52.5741773987303 5.133334454248
vertex 12.7320508075689 50.0525588832577 4.75000000000002
endloop
endfacet
facet normal -0.129409522551259 -0.224143868042012 0.965925826289069
outer loop
vertex 14.1879079362706 52.5741773987303 5.133334454248
vertex 18.7942286340599 46.5525588832577 4.75000000000001
vertex 20.2500857627616 49.0741773987303 5.133334454248
endloop
endfacet
facet normal -0.433012701892221 -0.750000000000002 0.499999999999995
outer loop
vertex 23.6656215303474 54.9900588832577 10.375
vertex 16.7095264517432 56.9417487848354 8.04504871165135
vertex 22.7717042782343 53.4417487848354 8.04504871165135
endloop
endfacet
facet normal -0.353553390593274 -0.612372435695797 0.707106781186546
outer loop
vertex 16.7095264517432 56.9417487848354 8.04504871165135
vertex 23.6656215303474 54.9900588832577 10.375
vertex 17.6034437038564 58.4900588832577 10.375
endloop
endfacet
facet normal 0.249999999999999 0.433012701892214 -0.866025403784441
outer loop
vertex 9.0 47.5884572681199 22.9282032302755
vertex 9.90362368282267 45.1535793976913 21.6568542494924
vertex 8.1715728752538 46.1535793976913 21.6568542494924
endloop
endfacet
facet normal 0.353553390593273 0.612372435695794 -0.707106781186548
outer loop
vertex 9.90362368282267 45.1535793976913 21.6568542494924
vertex 9.0 47.5884572681199 22.9282032302755
vertex 10.7320508075689 46.5884572681199 22.9282032302755
endloop
endfacet
facet normal 1.43673431542158e-017 -0.965925826289068 0.25881904510252
outer loop
vertex 4.0 18.5114071483516 15.3270704827335
vertex 8.1601392309949e-016 18.2516660498395 14.7
vertex 4.0 18.2516660498395 14.7
endloop
endfacet
facet normal 2.77555756156289e-017 -0.866025403784438 0.5
outer loop
vertex 8.1601392309949e-016 18.2516660498395 14.7
vertex 4.0 18.5114071483516 15.3270704827335
vertex 8.50823327499165e-016 18.5114071483516 15.3270704827335
endloop
endfacet
facet normal 4.80740671595891e-017 0.5 0.866025403784439
outer loop
vertex 7.63185845085194e-016 14.7 13.7483339501605
vertex 4.0 15.3270704827334 13.4885928516484
vertex 7.48767317684719e-016 15.3270704827334 13.4885928516484
endloop
endfacet
facet normal 5.36196546213101e-017 0.258819045102521 0.965925826289068
outer loop
vertex 4.0 15.3270704827334 13.4885928516484
vertex 7.63185845085194e-016 14.7 13.7483339501605
vertex 4.0 14.7 13.7483339501605
endloop
endfacet
facet normal 5.36196546213101e-017 0.258819045102521 0.965925826289068
outer loop
vertex 7.48767317684719e-016 15.3270704827334 13.4885928516484
vertex 4.0 16.0 13.4
vertex 7.43849426498855e-016 16.0 13.4
endloop
endfacet
facet normal 5.55111512312578e-017 3.02977736451995e-016 1.0
outer loop
vertex 4.0 16.0 13.4
vertex 7.48767317684719e-016 15.3270704827334 13.4885928516484
vertex 4.0 15.3270704827334 13.4885928516484
endloop
endfacet
facet normal 5.55111512312578e-017 3.02977736451995e-016 1.0
outer loop
vertex 4.0 16.0 13.4
vertex 7.48767317684719e-016 16.6729295172666 13.4885928516484
vertex 7.43849426498855e-016 16.0 13.4
endloop
endfacet
facet normal 5.36196546213101e-017 -0.258819045102522 0.965925826289068
outer loop
vertex 7.48767317684719e-016 16.6729295172666 13.4885928516484
vertex 4.0 16.0 13.4
vertex 4.0 16.6729295172666 13.4885928516484
endloop
endfacet
facet normal 0.353553390593273 0.612372435695794 -0.707106781186548
outer loop
vertex 8.1715728752538 46.1535793976913 21.6568542494924
vertex 9.26794919243112 44.0525588832577 20.0
vertex 7.53589838486224 45.0525588832577 20.0
endloop
endfacet
facet normal 0.433012701892221 0.750000000000003 -0.499999999999995
outer loop
vertex 9.26794919243112 44.0525588832577 20.0
vertex 8.1715728752538 46.1535793976913 21.6568542494924
vertex 9.90362368282267 45.1535793976913 21.6568542494924
endloop
endfacet
facet normal 0.433012701892221 0.750000000000003 -0.499999999999995
outer loop
vertex 7.53589838486224 45.0525588832577 20.0
vertex 8.86834750241262 43.3604284533552 18.0705523608202
vertex 7.13629669484374 44.3604284533552 18.0705523608202
endloop
endfacet
facet normal 0.482962913144539 0.836516303737805 -0.258819045102522
outer loop
vertex 8.86834750241262 43.3604284533552 18.0705523608202
vertex 7.53589838486224 45.0525588832577 20.0
vertex 9.26794919243112 44.0525588832577 20.0
endloop
endfacet
facet normal 0.482962913144539 0.836516303737805 -0.258819045102522
outer loop
vertex 7.13629669484374 44.3604284533552 18.0705523608202
vertex 8.73205080756886 43.1243556529821 16.0
vertex 7.00000000000001 44.1243556529822 16.0
endloop
endfacet
facet normal 0.50000000000001 0.866025403784433 -5.34666593738816e-017
outer loop
vertex 8.73205080756886 43.1243556529821 16.0
vertex 7.13629669484374 44.3604284533552 18.0705523608202
vertex 8.86834750241262 43.3604284533552 18.0705523608202
endloop
endfacet
facet normal -1.0 0.0 5.55111512312578e-017
outer loop
vertex 1.77635683940025e-015 0.0 32.0
vertex 9.90234429514571e-016 14.161522368915 17.838477631085
vertex 0.0 1.12798659301916e-014 5.55111512312577e-016
endloop
endfacet
facet normal -1.0 0.0 5.55111512312578e-017
outer loop
vertex 9.90234429514571e-016 14.161522368915 17.838477631085
vertex 1.77635683940025e-015 0.0 32.0
vertex 1.77635683940025e-015 32.0 32.0
endloop
endfacet
facet normal -1.0 0.0 5.55111512312578e-017
outer loop
vertex 0.0 1.12798659301916e-014 5.55111512312577e-016
vertex 9.90234429514571e-016 14.161522368915 17.838477631085
vertex 9.6034291630076e-016 13.7483339501605 17.3
endloop
endfacet
facet normal -1.0 0.0 5.55111512312578e-017
outer loop
vertex 0.0 1.12798659301916e-014 5.55111512312577e-016
vertex 9.6034291630076e-016 13.7483339501605 17.3
vertex 9.25533511901086e-016 13.4885928516484 16.6729295172666
endloop
endfacet
facet normal -1.0 0.0 5.55111512312578e-017
outer loop
vertex 0.0 1.12798659301916e-014 5.55111512312577e-016
vertex 9.25533511901086e-016 13.4885928516484 16.6729295172666
vertex 8.88178419700125e-016 13.4 16.0
endloop
endfacet
facet normal -1.0 0.0 5.55111512312578e-017
outer loop
vertex 9.90234429514571e-016 14.161522368915 17.838477631085
vertex 1.77635683940025e-015 32.0 32.0
vertex 1.01317099431506e-015 14.7 18.2516660498395
endloop
endfacet
facet normal -1.0 0.0 5.55111512312578e-017
outer loop
vertex 1.01317099431506e-015 14.7 18.2516660498395
vertex 1.77635683940025e-015 32.0 32.0
vertex 1.02758952171553e-015 15.3270704827334 18.5114071483516
endloop
endfacet
facet normal -1.0 0.0 5.55111512312578e-017
outer loop
vertex 1.02758952171553e-015 15.3270704827334 18.5114071483516
vertex 1.77635683940025e-015 32.0 32.0
vertex 1.0325074129014e-015 16.0 18.6
endloop
endfacet
facet normal -1.0 0.0 5.55111512312578e-017
outer loop
vertex 1.0325074129014e-015 16.0 18.6
vertex 1.77635683940025e-015 32.0 32.0
vertex 1.02758952171553e-015 16.6729295172665 18.5114071483516
endloop
endfacet
facet normal -1.0 0.0 5.55111512312578e-017
outer loop
vertex 1.02758952171553e-015 16.6729295172665 18.5114071483516
vertex 1.77635683940025e-015 32.0 32.0
vertex 1.01317099431506e-015 17.3 18.2516660498395
endloop
endfacet
facet normal -1.0 0.0 5.55111512312578e-017
outer loop
vertex 1.01317099431506e-015 17.3 18.2516660498395
vertex 1.77635683940025e-015 32.0 32.0
vertex 9.90234429514571e-016 17.838477631085 17.838477631085
endloop
endfacet
facet normal -1.0 0.0 5.55111512312578e-017
outer loop
vertex 9.90234429514571e-016 17.838477631085 17.838477631085
vertex 1.77635683940025e-015 32.0 32.0
vertex 9.60342916300761e-016 18.2516660498395 17.3
endloop
endfacet
facet normal -1.0 0.0 5.55111512312578e-017
outer loop
vertex 9.60342916300761e-016 18.2516660498395 17.3
vertex 1.77635683940025e-015 32.0 32.0
vertex 9.25533511901087e-016 18.5114071483516 16.6729295172666
endloop
endfacet
facet normal -1.0 0.0 5.55111512312578e-017
outer loop
vertex 9.25533511901087e-016 18.5114071483516 16.6729295172666
vertex 1.77635683940025e-015 32.0 32.0
vertex 8.88178419700125e-016 18.6 16.0
endloop
endfacet
facet normal -1.0 0.0 5.55111512312578e-017
outer loop
vertex 0.0 1.12798659301916e-014 5.55111512312577e-016
vertex 7.8612240988568e-016 14.161522368915 14.161522368915
vertex 4.69618757639384e-031 32.0 8.99280649946376e-015
endloop
endfacet
facet normal -1.0 0.0 5.55111512312578e-017
outer loop
vertex 7.8612240988568e-016 14.161522368915 14.161522368915
vertex 0.0 1.12798659301916e-014 5.55111512312577e-016
vertex 8.1601392309949e-016 13.7483339501605 14.7
endloop
endfacet
facet normal -1.0 0.0 5.55111512312578e-017
outer loop
vertex 8.1601392309949e-016 13.7483339501605 14.7
vertex 0.0 1.12798659301916e-014 5.55111512312577e-016
vertex 8.50823327499164e-016 13.4885928516484 15.3270704827334
endloop
endfacet
facet normal -1.0 0.0 5.55111512312578e-017
outer loop
vertex 8.50823327499164e-016 13.4885928516484 15.3270704827334
vertex 0.0 1.12798659301916e-014 5.55111512312577e-016
vertex 8.88178419700125e-016 13.4 16.0
endloop
endfacet
facet normal -1.0 0.0 5.55111512312578e-017
outer loop
vertex 4.69618757639384e-031 32.0 8.99280649946376e-015
vertex 7.8612240988568e-016 14.161522368915 14.161522368915
vertex 7.63185845085194e-016 14.7 13.7483339501605
endloop
endfacet
facet normal -1.0 0.0 5.55111512312578e-017
outer loop
vertex 4.69618757639384e-031 32.0 8.99280649946376e-015
vertex 7.63185845085194e-016 14.7 13.7483339501605
vertex 7.48767317684719e-016 15.3270704827334 13.4885928516484
endloop
endfacet
facet normal -1.0 0.0 5.55111512312578e-017
outer loop
vertex 4.69618757639384e-031 32.0 8.99280649946376e-015
vertex 7.48767317684719e-016 15.3270704827334 13.4885928516484
vertex 7.43849426498855e-016 16.0 13.4
endloop
endfacet
facet normal -1.0 0.0 5.55111512312578e-017
outer loop
vertex 4.69618757639384e-031 32.0 8.99280649946376e-015
vertex 7.43849426498855e-016 16.0 13.4
vertex 7.48767317684719e-016 16.6729295172666 13.4885928516484
endloop
endfacet
facet normal -1.0 0.0 5.55111512312578e-017
outer loop
vertex 4.69618757639384e-031 32.0 8.99280649946376e-015
vertex 7.48767317684719e-016 16.6729295172666 13.4885928516484
vertex 7.63185845085194e-016 17.3 13.7483339501605
endloop
endfacet
facet normal -1.0 0.0 5.55111512312578e-017
outer loop
vertex 4.69618757639384e-031 32.0 8.99280649946376e-015
vertex 7.63185845085194e-016 17.3 13.7483339501605
vertex 7.8612240988568e-016 17.838477631085 14.161522368915
endloop
endfacet
facet normal -1.0 0.0 5.55111512312578e-017
outer loop
vertex 4.69618757639384e-031 32.0 8.99280649946376e-015
vertex 7.8612240988568e-016 17.838477631085 14.161522368915
vertex 8.1601392309949e-016 18.2516660498395 14.7
endloop
endfacet
facet normal -1.0 0.0 5.55111512312578e-017
outer loop
vertex 4.69618757639384e-031 32.0 8.99280649946376e-015
vertex 8.1601392309949e-016 18.2516660498395 14.7
vertex 8.50823327499165e-016 18.5114071483516 15.3270704827335
endloop
endfacet
facet normal -1.0 0.0 5.55111512312578e-017
outer loop
vertex 4.69618757639384e-031 32.0 8.99280649946376e-015
vertex 8.50823327499165e-016 18.5114071483516 15.3270704827335
vertex 8.88178419700125e-016 18.6 16.0
endloop
endfacet
facet normal -1.0 0.0 5.55111512312578e-017
outer loop
vertex 4.69618757639384e-031 32.0 8.99280649946376e-015
vertex 8.88178419700125e-016 18.6 16.0
vertex 1.77635683940025e-015 32.0 32.0
endloop
endfacet
facet normal 1.0 0.0 -5.55111512312578e-017
outer loop
vertex 10.0 1.12798659301916e-014 0.0
vertex 10.0 8.27259338968745 13.9294476391798
vertex 10.0 8.0 16.0
endloop
endfacet
facet normal 1.0 0.0 -5.55111512312578e-017
outer loop
vertex 10.0 8.27259338968745 13.9294476391798
vertex 10.0 1.12798659301916e-014 0.0
vertex 10.0 9.07179676972449 12.0
endloop
endfacet
facet normal 1.0 0.0 -5.55111512312578e-017
outer loop
vertex 10.0 9.07179676972449 12.0
vertex 10.0 1.12798659301916e-014 0.0
vertex 10.0 10.3431457505076 10.3431457505076
endloop
endfacet
facet normal 1.0 0.0 -5.55111512312578e-017
outer loop
vertex 10.0 10.3431457505076 10.3431457505076
vertex 10.0 1.12798659301916e-014 0.0
vertex 10.0 12.0 9.07179676972449
endloop
endfacet
facet normal 1.0 0.0 -5.55111512312578e-017
outer loop
vertex 10.0 12.0 9.07179676972449
vertex 10.0 1.12798659301916e-014 0.0
vertex 10.0 31.3205080756888 8.25852793703961e-015
endloop
endfacet
facet normal 1.0 0.0 -5.55111512312578e-017
outer loop
vertex 10.0 12.0 9.07179676972449
vertex 10.0 31.3205080756888 8.25852793703961e-015
vertex 10.0 13.9294476391798 8.27259338968745
endloop
endfacet
facet normal 1.0 0.0 -5.55111512312578e-017
outer loop
vertex 10.0 13.9294476391798 8.27259338968745
vertex 10.0 31.3205080756888 8.25852793703961e-015
vertex 10.0 16.0 8.00000000000001
endloop
endfacet
facet normal 1.0 0.0 -5.55111512312578e-017
outer loop
vertex 10.0 16.0 8.00000000000001
vertex 10.0 31.3205080756888 8.25852793703961e-015
vertex 10.0 18.0705523608202 8.27259338968746
endloop
endfacet
facet normal 1.0 0.0 -5.55111512312578e-017
outer loop
vertex 10.0 18.0705523608202 8.27259338968746
vertex 10.0 31.3205080756888 8.25852793703961e-015
vertex 10.0 20.0 9.0717967697245
endloop
endfacet
facet normal 1.0 0.0 -5.55111512312578e-017
outer loop
vertex 10.0 20.0 9.0717967697245
vertex 10.0 31.3205080756888 8.25852793703961e-015
vertex 10.0 21.6568542494924 10.3431457505076
endloop
endfacet
facet normal 1.0 0.0 -5.55111512312578e-017
outer loop
vertex 10.0 21.6568542494924 10.3431457505076
vertex 10.0 31.3205080756888 8.25852793703961e-015
vertex 10.0 22.9282032302755 12.0
endloop
endfacet
facet normal 1.0 0.0 -5.55111512312578e-017
outer loop
vertex 10.0 22.9282032302755 12.0
vertex 10.0 31.3205080756888 8.25852793703961e-015
vertex 10.0 23.7274066103126 13.9294476391798
endloop
endfacet
facet normal 1.0 0.0 -5.55111512312578e-017
outer loop
vertex 10.0 23.7274066103126 13.9294476391798
vertex 10.0 31.3205080756888 8.25852793703961e-015
vertex 10.0 24.0 16.0
endloop
endfacet
facet normal 1.0 0.0 -5.55111512312578e-017
outer loop
vertex 10.0 24.0 16.0
vertex 10.0 31.3205080756888 8.25852793703961e-015
vertex 10.0 31.3205080756888 32.0
endloop
endfacet
facet normal 1.0 0.0 -5.55111512312578e-017
outer loop
vertex 10.0 0.0 32.0
vertex 10.0 12.0 22.9282032302755
vertex 10.0 31.3205080756888 32.0
endloop
endfacet
facet normal 1.0 0.0 -5.55111512312578e-017
outer loop
vertex 10.0 12.0 22.9282032302755
vertex 10.0 0.0 32.0
vertex 10.0 10.3431457505076 21.6568542494924
endloop
endfacet
facet normal 1.0 0.0 -5.55111512312578e-017
outer loop
vertex 10.0 10.3431457505076 21.6568542494924
vertex 10.0 0.0 32.0
vertex 10.0 9.07179676972449 20.0
endloop
endfacet
facet normal 1.0 0.0 -5.55111512312578e-017
outer loop
vertex 10.0 9.07179676972449 20.0
vertex 10.0 0.0 32.0
vertex 10.0 1.12798659301916e-014 0.0
endloop
endfacet
facet normal 1.0 0.0 -5.55111512312578e-017
outer loop
vertex 10.0 9.07179676972449 20.0
vertex 10.0 1.12798659301916e-014 0.0
vertex 10.0 8.27259338968745 18.0705523608202
endloop
endfacet
facet normal 1.0 0.0 -5.55111512312578e-017
outer loop
vertex 10.0 8.27259338968745 18.0705523608202
vertex 10.0 1.12798659301916e-014 0.0
vertex 10.0 8.0 16.0
endloop
endfacet
facet normal 1.0 0.0 -5.55111512312578e-017
outer loop
vertex 10.0 31.3205080756888 32.0
vertex 10.0 12.0 22.9282032302755
vertex 10.0 13.9294476391798 23.7274066103125
endloop
endfacet
facet normal 1.0 0.0 -5.55111512312578e-017
outer loop
vertex 10.0 31.3205080756888 32.0
vertex 10.0 13.9294476391798 23.7274066103125
vertex 10.0 16.0 24.0
endloop
endfacet
facet normal 1.0 0.0 -5.55111512312578e-017
outer loop
vertex 10.0 31.3205080756888 32.0
vertex 10.0 16.0 24.0
vertex 10.0 18.0705523608202 23.7274066103125
endloop
endfacet
facet normal 1.0 0.0 -5.55111512312578e-017
outer loop
vertex 10.0 31.3205080756888 32.0
vertex 10.0 18.0705523608202 23.7274066103125
vertex 10.0 20.0 22.9282032302755
endloop
endfacet
facet normal 1.0 0.0 -5.55111512312578e-017
outer loop
vertex 10.0 31.3205080756888 32.0
vertex 10.0 20.0 22.9282032302755
vertex 10.0 21.6568542494924 21.6568542494924
endloop
endfacet
facet normal 1.0 0.0 -5.55111512312578e-017
outer loop
vertex 10.0 31.3205080756888 32.0
vertex 10.0 21.6568542494924 21.6568542494924
vertex 10.0 22.9282032302755 20.0
endloop
endfacet
facet normal 1.0 0.0 -5.55111512312578e-017
outer loop
vertex 10.0 31.3205080756888 32.0
vertex 10.0 22.9282032302755 20.0
vertex 10.0 23.7274066103125 18.0705523608202
endloop
endfacet
facet normal 1.0 0.0 -5.55111512312578e-017
outer loop
vertex 10.0 31.3205080756888 32.0
vertex 10.0 23.7274066103125 18.0705523608202
vertex 10.0 24.0 16.0
endloop
endfacet
facet normal -9.89331938111227e-034 1.0 -1.78222197912938e-017
outer loop
vertex 8.88178419700125e-016 13.4 16.0
vertex 4.0 13.4885928516484 15.3270704827334
vertex 8.50823327499164e-016 13.4885928516484 15.3270704827334
endloop
endfacet
facet normal 1.43673431542158e-017 0.965925826289068 0.258819045102522
outer loop
vertex 4.0 13.4885928516484 15.3270704827334
vertex 8.88178419700125e-016 13.4 16.0
vertex 4.0 13.4 16.0
endloop
endfacet
facet normal 1.43673431542158e-017 0.965925826289068 0.258819045102522
outer loop
vertex 8.50823327499164e-016 13.4885928516484 15.3270704827334
vertex 4.0 13.7483339501605 14.7
vertex 8.1601392309949e-016 13.7483339501605 14.7
endloop
endfacet
facet normal 2.7755575615629e-017 0.866025403784438 0.500000000000001
outer loop
vertex 4.0 13.7483339501605 14.7
vertex 8.50823327499164e-016 13.4885928516484 15.3270704827334
vertex 4.0 13.4885928516484 15.3270704827334
endloop
endfacet
facet normal -0.249999999999998 -0.433012701892219 0.866025403784439
outer loop
vertex 21.60672863406 51.4239517795452 6.25721420742508
vertex 16.7095264517432 56.9417487848354 8.04504871165135
vertex 15.5445508075689 54.9239517795451 6.25721420742509
endloop
endfacet
facet normal -0.353553390593274 -0.612372435695797 0.707106781186546
outer loop
vertex 16.7095264517432 56.9417487848354 8.04504871165135
vertex 21.60672863406 51.4239517795452 6.25721420742508
vertex 22.7717042782343 53.4417487848354 8.04504871165135
endloop
endfacet
facet normal 4.8074067159589e-017 -0.500000000000003 0.866025403784437
outer loop
vertex 4.0 17.3 13.7483339501605
vertex 7.8612240988568e-016 17.838477631085 14.161522368915
vertex 7.63185845085194e-016 17.3 13.7483339501605
endloop
endfacet
facet normal 3.92523114670944e-017 -0.707106781186548 0.707106781186547
outer loop
vertex 7.8612240988568e-016 17.838477631085 14.161522368915
vertex 4.0 17.3 13.7483339501605
vertex 4.0 17.838477631085 14.161522368915
endloop
endfacet
facet normal 2.77555756156289e-017 -0.866025403784438 0.5
outer loop
vertex 4.0 18.2516660498395 14.7
vertex 7.8612240988568e-016 17.838477631085 14.161522368915
vertex 4.0 17.838477631085 14.161522368915
endloop
endfacet
facet normal 3.92523114670944e-017 -0.707106781186548 0.707106781186547
outer loop
vertex 7.8612240988568e-016 17.838477631085 14.161522368915
vertex 4.0 18.2516660498395 14.7
vertex 8.1601392309949e-016 18.2516660498395 14.7
endloop
endfacet
facet normal 2.77555756156289e-017 -0.866025403784439 0.499999999999999
outer loop
vertex 10.0 22.9282032302755 12.0
vertex 4.0 21.6568542494924 10.3431457505076
vertex 10.0 21.6568542494924 10.3431457505076
endloop
endfacet
facet normal 3.92523114670943e-017 -0.707106781186548 0.707106781186547
outer loop
vertex 4.0 21.6568542494924 10.3431457505076
vertex 10.0 22.9282032302755 12.0
vertex 4.0 22.9282032302755 12.0
endloop
endfacet
facet normal -4.80740671595891e-017 -0.5 -0.866025403784439
outer loop
vertex 10.0 20.0 22.9282032302755
vertex 4.0 18.0705523608202 23.7274066103125
vertex 4.0 20.0 22.9282032302755
endloop
endfacet
facet normal -5.36196546213101e-017 -0.258819045102521 -0.965925826289068
outer loop
vertex 4.0 18.0705523608202 23.7274066103125
vertex 10.0 20.0 22.9282032302755
vertex 10.0 18.0705523608202 23.7274066103125
endloop
endfacet
facet normal -1.1278384094468e-031 -1.0 -2.03173305620749e-015
outer loop
vertex 4.0 18.6 16.0
vertex 8.50823327499165e-016 18.5114071483516 15.3270704827335
vertex 4.0 18.5114071483516 15.3270704827335
endloop
endfacet
facet normal 1.43673431542157e-017 -0.965925826289068 0.25881904510252
outer loop
vertex 8.50823327499165e-016 18.5114071483516 15.3270704827335
vertex 4.0 18.6 16.0
vertex 8.88178419700125e-016 18.6 16.0
endloop
endfacet
facet normal -1.43673431542158e-017 -0.965925826289068 -0.258819045102522
outer loop
vertex 4.0 18.5114071483516 16.6729295172666
vertex 8.88178419700125e-016 18.6 16.0
vertex 4.0 18.6 16.0
endloop
endfacet
facet normal -1.12289174975624e-031 -1.0 -2.02282194631185e-015
outer loop
vertex 8.88178419700125e-016 18.6 16.0
vertex 4.0 18.5114071483516 16.6729295172666
vertex 9.25533511901087e-016 18.5114071483516 16.6729295172666
endloop
endfacet
facet normal 5.55111512312578e-017 -2.63677968348475e-016 1.0
outer loop
vertex 10.0 0.0 32.0
vertex 1.77635683940025e-015 32.0 32.0
vertex 1.77635683940025e-015 0.0 32.0
endloop
endfacet
facet normal 5.55111512312578e-017 -2.63677968348475e-016 1.0
outer loop
vertex 1.77635683940025e-015 32.0 32.0
vertex 10.0 0.0 32.0
vertex 10.0 31.3205080756888 32.0
endloop
endfacet
facet normal 5.55111512312578e-017 -2.63677968348475e-016 1.0
outer loop
vertex 1.77635683940025e-015 32.0 32.0
vertex 10.0 31.3205080756888 32.0
vertex 19.0 64.9089653438087 32.0
endloop
endfacet
facet normal 5.55111512312578e-017 -2.63677968348475e-016 1.0
outer loop
vertex 19.0 64.9089653438087 32.0
vertex 10.0 31.3205080756888 32.0
vertex 26.7942286340599 60.4089653438087 32.0
endloop
endfacet
facet normal 0.5 0.866025403784439 2.00596243392419e-016
outer loop
vertex 19.0 64.9089653438087 1.66154637483757e-014
vertex 26.7942286340599 60.4089653438087 32.0
vertex 26.7942286340599 60.4089653438087 1.49962462863713e-014
endloop
endfacet
facet normal 0.5 0.866025403784439 2.00596243392419e-016
outer loop
vertex 26.7942286340599 60.4089653438087 32.0
vertex 19.0 64.9089653438087 1.66154637483757e-014
vertex 19.0 64.9089653438087 32.0
endloop
endfacet
facet normal -3.92523114670944e-017 0.707106781186548 -0.707106781186547
outer loop
vertex 9.90234429514571e-016 14.161522368915 17.838477631085
vertex 4.0 13.7483339501605 17.3
vertex 9.6034291630076e-016 13.7483339501605 17.3
endloop
endfacet
facet normal -2.77555756156288e-017 0.86602540378444 -0.499999999999998
outer loop
vertex 4.0 13.7483339501605 17.3
vertex 9.90234429514571e-016 14.161522368915 17.838477631085
vertex 4.0 14.161522368915 17.838477631085
endloop
endfacet
facet normal -2.77555756156288e-017 -0.866025403784439 -0.499999999999999
outer loop
vertex 4.0 18.2516660498395 17.3
vertex 9.25533511901087e-016 18.5114071483516 16.6729295172666
vertex 4.0 18.5114071483516 16.6729295172666
endloop
endfacet
facet normal -1.43673431542158e-017 -0.965925826289068 -0.258819045102522
outer loop
vertex 9.25533511901087e-016 18.5114071483516 16.6729295172666
vertex 4.0 18.2516660498395 17.3
vertex 9.60342916300761e-016 18.2516660498395 17.3
endloop
endfacet
facet normal -5.36196546213101e-017 0.258819045102521 -0.965925826289068
outer loop
vertex 1.02758952171553e-015 15.3270704827334 18.5114071483516
vertex 4.0 14.7 18.2516660498395
vertex 1.01317099431506e-015 14.7 18.2516660498395
endloop
endfacet
facet normal -4.80740671595891e-017 0.5 -0.866025403784438
outer loop
vertex 4.0 14.7 18.2516660498395
vertex 1.02758952171553e-015 15.3270704827334 18.5114071483516
vertex 4.0 15.3270704827334 18.5114071483516
endloop
endfacet
facet normal -4.80740671595891e-017 0.5 -0.866025403784438
outer loop
vertex 1.01317099431506e-015 14.7 18.2516660498395
vertex 4.0 14.161522368915 17.838477631085
vertex 9.90234429514571e-016 14.161522368915 17.838477631085
endloop
endfacet
facet normal -3.92523114670944e-017 0.707106781186548 -0.707106781186547
outer loop
vertex 4.0 14.161522368915 17.838477631085
vertex 1.01317099431506e-015 14.7 18.2516660498395
vertex 4.0 14.7 18.2516660498395
endloop
endfacet
facet normal -0.866025403784438 0.5 1.79913051333826e-016
outer loop
vertex 1.77635683940025e-015 32.0 32.0
vertex 7.53589838486224 45.0525588832577 20.0
vertex 4.69618757639384e-031 32.0 8.99280649946376e-015
endloop
endfacet
facet normal -0.866025403784438 0.5 1.79913051333826e-016
outer loop
vertex 7.53589838486224 45.0525588832577 20.0
vertex 1.77635683940025e-015 32.0 32.0
vertex 8.1715728752538 46.1535793976913 21.6568542494924
endloop
endfacet
facet normal -0.866025403784438 0.5 1.79913051333826e-016
outer loop
vertex 8.1715728752538 46.1535793976913 21.6568542494924
vertex 1.77635683940025e-015 32.0 32.0
vertex 9.0 47.5884572681199 22.9282032302755
endloop
endfacet
facet normal -0.866025403784438 0.5 1.79913051333826e-016
outer loop
vertex 9.0 47.5884572681199 22.9282032302755
vertex 1.77635683940025e-015 32.0 32.0
vertex 19.0 64.9089653438087 32.0
endloop
endfacet
facet normal -0.866025403784438 0.5 1.79913051333826e-016
outer loop
vertex 4.69618757639384e-031 32.0 8.99280649946376e-015
vertex 7.53589838486224 45.0525588832577 20.0
vertex 7.13629669484374 44.3604284533552 18.0705523608202
endloop
endfacet
facet normal -0.866025403784438 0.5 1.79913051333826e-016
outer loop
vertex 4.69618757639384e-031 32.0 8.99280649946376e-015
vertex 7.13629669484374 44.3604284533552 18.0705523608202
vertex 7.00000000000001 44.1243556529822 16.0
endloop
endfacet
facet normal -0.866025403784438 0.5 1.79913051333826e-016
outer loop
vertex 9.0 47.5884572681199 22.9282032302755
vertex 19.0 64.9089653438087 32.0
vertex 9.96472381958996 49.2594079389216 23.7274066103126
endloop
endfacet
facet normal -0.866025403784438 0.5 1.79913051333826e-016
outer loop
vertex 9.96472381958996 49.2594079389216 23.7274066103126
vertex 19.0 64.9089653438087 32.0
vertex 11.0 51.0525588832577 24.0
endloop
endfacet
facet normal -0.866025403784438 0.5 1.79913051333826e-016
outer loop
vertex 11.0 51.0525588832577 24.0
vertex 19.0 64.9089653438087 32.0
vertex 12.0352761804101 52.8457098275938 23.7274066103126
endloop
endfacet
facet normal -0.866025403784438 0.5 1.79913051333826e-016
outer loop
vertex 12.0352761804101 52.8457098275938 23.7274066103126
vertex 19.0 64.9089653438087 32.0
vertex 13.0 54.5166604983954 22.9282032302755
endloop
endfacet
facet normal -0.866025403784438 0.5 1.79913051333826e-016
outer loop
vertex 13.0 54.5166604983954 22.9282032302755
vertex 19.0 64.9089653438087 32.0
vertex 13.8284271247462 55.951538368824 21.6568542494924
endloop
endfacet
facet normal -0.866025403784438 0.5 1.79913051333826e-016
outer loop
vertex 13.8284271247462 55.951538368824 21.6568542494924
vertex 19.0 64.9089653438087 32.0
vertex 14.4641016151377 57.0525588832577 20.0
endloop
endfacet
facet normal -0.866025403784438 0.5 1.79913051333826e-016
outer loop
vertex 14.4641016151377 57.0525588832577 20.0
vertex 19.0 64.9089653438087 32.0
vertex 14.8637033051563 57.7446893131602 18.0705523608202
endloop
endfacet
facet normal -0.866025403784438 0.5 1.79913051333826e-016
outer loop
vertex 14.8637033051563 57.7446893131602 18.0705523608202
vertex 19.0 64.9089653438087 32.0
vertex 15.0 57.9807621135332 16.0
endloop
endfacet
facet normal -0.866025403784438 0.5 1.79913051333826e-016
outer loop
vertex 4.69618757639384e-031 32.0 8.99280649946376e-015
vertex 9.0 47.5884572681199 9.07179676972449
vertex 19.0 64.9089653438087 1.66154637483757e-014
endloop
endfacet
facet normal -0.866025403784438 0.5 1.79913051333826e-016
outer loop
vertex 9.0 47.5884572681199 9.07179676972449
vertex 4.69618757639384e-031 32.0 8.99280649946376e-015
vertex 8.1715728752538 46.1535793976913 10.3431457505076
endloop
endfacet
facet normal -0.866025403784438 0.5 1.79913051333826e-016
outer loop
vertex 8.1715728752538 46.1535793976913 10.3431457505076
vertex 4.69618757639384e-031 32.0 8.99280649946376e-015
vertex 7.53589838486224 45.0525588832577 12.0
endloop
endfacet
facet normal -0.866025403784438 0.5 1.79913051333826e-016
outer loop
vertex 7.53589838486224 45.0525588832577 12.0
vertex 4.69618757639384e-031 32.0 8.99280649946376e-015
vertex 7.13629669484373 44.3604284533552 13.9294476391798
endloop
endfacet
facet normal -0.866025403784438 0.5 1.79913051333826e-016
outer loop
vertex 7.13629669484373 44.3604284533552 13.9294476391798
vertex 4.69618757639384e-031 32.0 8.99280649946376e-015
vertex 7.00000000000001 44.1243556529822 16.0
endloop
endfacet
facet normal -0.866025403784438 0.5 1.79913051333826e-016
outer loop
vertex 19.0 64.9089653438087 1.66154637483757e-014
vertex 9.0 47.5884572681199 9.07179676972449
vertex 9.96472381958996 49.2594079389216 8.27259338968747
endloop
endfacet
facet normal -0.866025403784438 0.5 1.79913051333826e-016
outer loop
vertex 19.0 64.9089653438087 1.66154637483757e-014
vertex 9.96472381958996 49.2594079389216 8.27259338968747
vertex 11.0 51.0525588832577 8.00000000000001
endloop
endfacet
facet normal -0.866025403784438 0.5 1.79913051333826e-016
outer loop
vertex 19.0 64.9089653438087 1.66154637483757e-014
vertex 11.0 51.0525588832577 8.00000000000001
vertex 12.0352761804101 52.8457098275938 8.27259338968747
endloop
endfacet
facet normal -0.866025403784438 0.5 1.79913051333826e-016
outer loop
vertex 19.0 64.9089653438087 1.66154637483757e-014
vertex 12.0352761804101 52.8457098275938 8.27259338968747
vertex 13.0 54.5166604983954 9.07179676972449
endloop
endfacet
facet normal -0.866025403784438 0.5 1.79913051333826e-016
outer loop
vertex 19.0 64.9089653438087 1.66154637483757e-014
vertex 13.0 54.5166604983954 9.07179676972449
vertex 13.8284271247462 55.951538368824 10.3431457505076
endloop
endfacet
facet normal -0.866025403784438 0.5 1.79913051333826e-016
outer loop
vertex 19.0 64.9089653438087 1.66154637483757e-014
vertex 13.8284271247462 55.951538368824 10.3431457505076
vertex 14.4641016151377 57.0525588832577 12.0
endloop
endfacet
facet normal -0.866025403784438 0.5 1.79913051333826e-016
outer loop
vertex 19.0 64.9089653438087 1.66154637483757e-014
vertex 14.4641016151377 57.0525588832577 12.0
vertex 14.8637033051563 57.7446893131602 13.9294476391798
endloop
endfacet
facet normal -0.866025403784438 0.5 1.79913051333826e-016
outer loop
vertex 19.0 64.9089653438087 1.66154637483757e-014
vertex 14.8637033051563 57.7446893131602 13.9294476391798
vertex 15.0 57.9807621135332 16.0
endloop
endfacet
facet normal -0.866025403784438 0.5 1.79913051333826e-016
outer loop
vertex 19.0 64.9089653438087 1.66154637483757e-014
vertex 15.0 57.9807621135332 16.0
vertex 19.0 64.9089653438087 32.0
endloop
endfacet
facet normal 1.43673431542157e-017 -0.965925826289068 0.25881904510252
outer loop
vertex 10.0 23.7274066103126 13.9294476391798
vertex 4.0 22.9282032302755 12.0
vertex 10.0 22.9282032302755 12.0
endloop
endfacet
facet normal 2.77555756156289e-017 -0.866025403784439 0.499999999999999
outer loop
vertex 4.0 22.9282032302755 12.0
vertex 10.0 23.7274066103126 13.9294476391798
vertex 4.0 23.7274066103126 13.9294476391798
endloop
endfacet
facet normal -3.92523114670944e-017 -0.707106781186547 -0.707106781186548
outer loop
vertex 10.0 21.6568542494924 21.6568542494924
vertex 4.0 22.9282032302755 20.0
vertex 10.0 22.9282032302755 20.0
endloop
endfacet
facet normal -2.77555756156289e-017 -0.866025403784438 -0.5
outer loop
vertex 4.0 22.9282032302755 20.0
vertex 10.0 21.6568542494924 21.6568542494924
vertex 4.0 21.6568542494924 21.6568542494924
endloop
endfacet
facet normal -2.77555756156289e-017 -0.866025403784438 -0.5
outer loop
vertex 10.0 22.9282032302755 20.0
vertex 4.0 23.7274066103125 18.0705523608202
vertex 10.0 23.7274066103125 18.0705523608202
endloop
endfacet
facet normal -1.43673431542158e-017 -0.965925826289068 -0.258819045102521
outer loop
vertex 4.0 23.7274066103125 18.0705523608202
vertex 10.0 22.9282032302755 20.0
vertex 4.0 22.9282032302755 20.0
endloop
endfacet
facet normal -3.92523114670944e-017 -0.707106781186547 -0.707106781186548
outer loop
vertex 4.0 17.838477631085 17.838477631085
vertex 1.01317099431506e-015 17.3 18.2516660498395
vertex 9.90234429514571e-016 17.838477631085 17.838477631085
endloop
endfacet
facet normal -4.80740671595891e-017 -0.5 -0.866025403784439
outer loop
vertex 1.01317099431506e-015 17.3 18.2516660498395
vertex 4.0 17.838477631085 17.838477631085
vertex 4.0 17.3 18.2516660498395
endloop
endfacet
facet normal -4.80740671595891e-017 -0.5 -0.866025403784439
outer loop
vertex 4.0 17.3 18.2516660498395
vertex 1.02758952171553e-015 16.6729295172665 18.5114071483516
vertex 1.01317099431506e-015 17.3 18.2516660498395
endloop
endfacet
facet normal -5.36196546213101e-017 -0.258819045102521 -0.965925826289068
outer loop
vertex 1.02758952171553e-015 16.6729295172665 18.5114071483516
vertex 4.0 17.3 18.2516660498395
vertex 4.0 16.6729295172665 18.5114071483516
endloop
endfacet
facet normal -5.36196546213101e-017 -0.258819045102521 -0.965925826289068
outer loop
vertex 4.0 16.6729295172665 18.5114071483516
vertex 1.0325074129014e-015 16.0 18.6
vertex 1.02758952171553e-015 16.6729295172665 18.5114071483516
endloop
endfacet
facet normal -5.55111512312578e-017 2.49511077078113e-016 -1.0
outer loop
vertex 1.0325074129014e-015 16.0 18.6
vertex 4.0 16.6729295172665 18.5114071483516
vertex 4.0 16.0 18.6
endloop
endfacet
facet normal -0.249999999999995 -0.433012701892223 0.866025403784438
outer loop
vertex 14.7320508075689 53.5166604983955 9.07179676972449
vertex 13.8284271247462 55.951538368824 10.3431457505076
vertex 13.0 54.5166604983954 9.07179676972449
endloop
endfacet
facet normal -0.353553390593272 -0.612372435695798 0.707106781186546
outer loop
vertex 13.8284271247462 55.951538368824 10.3431457505076
vertex 14.7320508075689 53.5166604983955 9.07179676972449
vertex 15.5604779323151 54.951538368824 10.3431457505076
endloop
endfacet
facet normal 3.92523114670944e-017 0.707106781186547 0.707106781186548
outer loop
vertex 10.0 10.3431457505076 10.3431457505076
vertex 4.0 12.0 9.07179676972449
vertex 4.0 10.3431457505076 10.3431457505076
endloop
endfacet
facet normal 4.80740671595891e-017 0.5 0.866025403784439
outer loop
vertex 4.0 12.0 9.07179676972449
vertex 10.0 10.3431457505076 10.3431457505076
vertex 10.0 12.0 9.07179676972449
endloop
endfacet
facet normal 2.77555756156289e-017 0.866025403784438 0.500000000000001
outer loop
vertex 4.0 9.07179676972449 12.0
vertex 10.0 10.3431457505076 10.3431457505076
vertex 4.0 10.3431457505076 10.3431457505076
endloop
endfacet
facet normal 3.92523114670944e-017 0.707106781186547 0.707106781186548
outer loop
vertex 10.0 10.3431457505076 10.3431457505076
vertex 4.0 9.07179676972449 12.0
vertex 10.0 9.07179676972449 12.0
endloop
endfacet
facet normal 4.80740671595891e-017 -0.5 0.866025403784439
outer loop
vertex 10.0 20.0 9.0717967697245
vertex 4.0 21.6568542494924 10.3431457505076
vertex 4.0 20.0 9.0717967697245
endloop
endfacet
facet normal 3.92523114670943e-017 -0.707106781186548 0.707106781186547
outer loop
vertex 4.0 21.6568542494924 10.3431457505076
vertex 10.0 20.0 9.0717967697245
vertex 10.0 21.6568542494924 10.3431457505076
endloop
endfacet
facet normal 5.36196546213101e-017 -0.258819045102521 0.965925826289068
outer loop
vertex 10.0 18.0705523608202 8.27259338968746
vertex 4.0 20.0 9.0717967697245
vertex 4.0 18.0705523608202 8.27259338968746
endloop
endfacet
facet normal 4.80740671595891e-017 -0.5 0.866025403784439
outer loop
vertex 4.0 20.0 9.0717967697245
vertex 10.0 18.0705523608202 8.27259338968746
vertex 10.0 20.0 9.0717967697245
endloop
endfacet
facet normal 5.55111512312578e-017 -1.49706646246868e-015 1.0
outer loop
vertex 10.0 16.0 8.00000000000001
vertex 4.0 18.0705523608202 8.27259338968746
vertex 4.0 16.0 8.00000000000001
endloop
endfacet
facet normal 5.36196546213101e-017 -0.258819045102521 0.965925826289068
outer loop
vertex 4.0 18.0705523608202 8.27259338968746
vertex 10.0 16.0 8.00000000000001
vertex 10.0 18.0705523608202 8.27259338968746
endloop
endfacet
facet normal 5.36196546213102e-017 0.25881904510252 0.965925826289069
outer loop
vertex 10.0 13.9294476391798 8.27259338968745
vertex 4.0 16.0 8.00000000000001
vertex 4.0 13.9294476391798 8.27259338968745
endloop
endfacet
facet normal 5.55111512312578e-017 -1.49706646246868e-015 1.0
outer loop
vertex 4.0 16.0 8.00000000000001
vertex 10.0 13.9294476391798 8.27259338968745
vertex 10.0 16.0 8.00000000000001
endloop
endfacet
facet normal 4.80740671595891e-017 0.5 0.866025403784439
outer loop
vertex 10.0 12.0 9.07179676972449
vertex 4.0 13.9294476391798 8.27259338968745
vertex 4.0 12.0 9.07179676972449
endloop
endfacet
facet normal 5.36196546213102e-017 0.25881904510252 0.965925826289069
outer loop
vertex 4.0 13.9294476391798 8.27259338968745
vertex 10.0 12.0 9.07179676972449
vertex 10.0 13.9294476391798 8.27259338968745
endloop
endfacet
facet normal 1.43673431542158e-017 0.965925826289068 0.258819045102522
outer loop
vertex 4.0 8.27259338968745 13.9294476391798
vertex 10.0 9.07179676972449 12.0
vertex 4.0 9.07179676972449 12.0
endloop
endfacet
facet normal 2.77555756156289e-017 0.866025403784438 0.500000000000001
outer loop
vertex 10.0 9.07179676972449 12.0
vertex 4.0 8.27259338968745 13.9294476391798
vertex 10.0 8.27259338968745 13.9294476391798
endloop
endfacet
facet normal -1.43673431542158e-017 -0.965925826289068 -0.258819045102521
outer loop
vertex 10.0 23.7274066103125 18.0705523608202
vertex 4.0 24.0 16.0
vertex 10.0 24.0 16.0
endloop
endfacet
facet normal -2.32493005456138e-032 -1.0 -4.18822165095405e-016
outer loop
vertex 4.0 24.0 16.0
vertex 10.0 23.7274066103125 18.0705523608202
vertex 4.0 23.7274066103125 18.0705523608202
endloop
endfacet
facet normal -2.32493005456138e-032 -1.0 -4.18822165095405e-016
outer loop
vertex 10.0 24.0 16.0
vertex 4.0 23.7274066103126 13.9294476391798
vertex 10.0 23.7274066103126 13.9294476391798
endloop
endfacet
facet normal 1.43673431542157e-017 -0.965925826289068 0.25881904510252
outer loop
vertex 4.0 23.7274066103126 13.9294476391798
vertex 10.0 24.0 16.0
vertex 4.0 24.0 16.0
endloop
endfacet
facet normal -4.80740671595891e-017 0.5 -0.866025403784439
outer loop
vertex 10.0 12.0 22.9282032302755
vertex 4.0 10.3431457505076 21.6568542494924
vertex 4.0 12.0 22.9282032302755
endloop
endfacet
facet normal -3.92523114670943e-017 0.707106781186548 -0.707106781186547
outer loop
vertex 4.0 10.3431457505076 21.6568542494924
vertex 10.0 12.0 22.9282032302755
vertex 10.0 10.3431457505076 21.6568542494924
endloop
endfacet
facet normal -5.36196546213101e-017 0.258819045102521 -0.965925826289068
outer loop
vertex 10.0 13.9294476391798 23.7274066103125
vertex 4.0 12.0 22.9282032302755
vertex 4.0 13.9294476391798 23.7274066103125
endloop
endfacet
facet normal -4.80740671595891e-017 0.5 -0.866025403784439
outer loop
vertex 4.0 12.0 22.9282032302755
vertex 10.0 13.9294476391798 23.7274066103125
vertex 10.0 12.0 22.9282032302755
endloop
endfacet
facet normal -5.55111512312578e-017 1.69311088017291e-016 -1.0
outer loop
vertex 10.0 16.0 24.0
vertex 4.0 13.9294476391798 23.7274066103125
vertex 4.0 16.0 24.0
endloop
endfacet
facet normal -5.36196546213101e-017 0.258819045102521 -0.965925826289068
outer loop
vertex 4.0 13.9294476391798 23.7274066103125
vertex 10.0 16.0 24.0
vertex 10.0 13.9294476391798 23.7274066103125
endloop
endfacet
facet normal -5.36196546213101e-017 -0.258819045102521 -0.965925826289068
outer loop
vertex 10.0 18.0705523608202 23.7274066103125
vertex 4.0 16.0 24.0
vertex 4.0 18.0705523608202 23.7274066103125
endloop
endfacet
facet normal -5.55111512312578e-017 1.69311088017291e-016 -1.0
outer loop
vertex 4.0 16.0 24.0
vertex 10.0 18.0705523608202 23.7274066103125
vertex 10.0 16.0 24.0
endloop
endfacet
facet normal 0.866025403784439 -0.5 -1.79913051333826e-016
outer loop
vertex 10.0 31.3205080756888 8.25852793703961e-015
vertex 13.360895861184 37.1417504662074 13.0882857425966
vertex 13.16922863406 36.8097730906827 16.0
endloop
endfacet
facet normal 0.866025403784439 -0.5 -1.79913051333826e-016
outer loop
vertex 13.360895861184 37.1417504662074 13.0882857425966
vertex 10.0 31.3205080756888 8.25852793703961e-015
vertex 13.9228357377725 38.1150588832577 10.375
endloop
endfacet
facet normal 0.866025403784439 -0.5 -1.79913051333826e-016
outer loop
vertex 13.9228357377725 38.1150588832577 10.375
vertex 10.0 31.3205080756888 8.25852793703961e-015
vertex 14.8167529898856 39.66336898168 8.04504871165133
endloop
endfacet
facet normal 0.866025403784439 -0.5 -1.79913051333826e-016
outer loop
vertex 14.8167529898856 39.66336898168 8.04504871165133
vertex 10.0 31.3205080756888 8.25852793703961e-015
vertex 15.98172863406 41.6811659869702 6.25721420742507
endloop
endfacet
facet normal 0.866025403784439 -0.5 -1.79913051333826e-016
outer loop
vertex 15.98172863406 41.6811659869702 6.25721420742507
vertex 10.0 31.3205080756888 8.25852793703961e-015
vertex 17.3383715053583 44.030940367785 5.13333445424799
endloop
endfacet
facet normal 0.866025403784439 -0.5 -1.79913051333826e-016
outer loop
vertex 17.3383715053583 44.030940367785 5.13333445424799
vertex 10.0 31.3205080756888 8.25852793703961e-015
vertex 26.7942286340599 60.4089653438087 1.49962462863713e-014
endloop
endfacet
facet normal 0.866025403784439 -0.5 -1.79913051333826e-016
outer loop
vertex 17.3383715053583 44.030940367785 5.13333445424799
vertex 26.7942286340599 60.4089653438087 1.49962462863713e-014
vertex 18.7942286340599 46.5525588832577 4.75000000000001
endloop
endfacet
facet normal 0.866025403784439 -0.5 -1.79913051333826e-016
outer loop
vertex 18.7942286340599 46.5525588832577 4.75000000000001
vertex 26.7942286340599 60.4089653438087 1.49962462863713e-014
vertex 20.2500857627616 49.0741773987303 5.133334454248
endloop
endfacet
facet normal 0.866025403784439 -0.5 -1.79913051333826e-016
outer loop
vertex 20.2500857627616 49.0741773987303 5.133334454248
vertex 26.7942286340599 60.4089653438087 1.49962462863713e-014
vertex 21.60672863406 51.4239517795452 6.25721420742508
endloop
endfacet
facet normal 0.866025403784439 -0.5 -1.79913051333826e-016
outer loop
vertex 21.60672863406 51.4239517795452 6.25721420742508
vertex 26.7942286340599 60.4089653438087 1.49962462863713e-014
vertex 22.7717042782343 53.4417487848354 8.04504871165135
endloop
endfacet
facet normal 0.866025403784439 -0.5 -1.79913051333826e-016
outer loop
vertex 22.7717042782343 53.4417487848354 8.04504871165135
vertex 26.7942286340599 60.4089653438087 1.49962462863713e-014
vertex 23.6656215303474 54.9900588832577 10.375
endloop
endfacet
facet normal 0.866025403784439 -0.5 -1.79913051333826e-016
outer loop
vertex 23.6656215303474 54.9900588832577 10.375
vertex 26.7942286340599 60.4089653438087 1.49962462863713e-014
vertex 24.2275614069359 55.963367300308 13.0882857425967
endloop
endfacet
facet normal 0.866025403784439 -0.5 -1.79913051333826e-016
outer loop
vertex 24.2275614069359 55.963367300308 13.0882857425967
vertex 26.7942286340599 60.4089653438087 1.49962462863713e-014
vertex 24.41922863406 56.2953446758326 16.0
endloop
endfacet
facet normal 0.866025403784439 -0.5 -1.79913051333826e-016
outer loop
vertex 24.41922863406 56.2953446758326 16.0
vertex 26.7942286340599 60.4089653438087 1.49962462863713e-014
vertex 26.7942286340599 60.4089653438087 32.0
endloop
endfacet
facet normal 0.866025403784439 -0.5 -1.79913051333826e-016
outer loop
vertex 10.0 31.3205080756888 32.0
vertex 17.3383715053583 44.030940367785 26.866665545752
vertex 26.7942286340599 60.4089653438087 32.0
endloop
endfacet
facet normal 0.866025403784439 -0.5 -1.79913051333826e-016
outer loop
vertex 17.3383715053583 44.030940367785 26.866665545752
vertex 10.0 31.3205080756888 32.0
vertex 15.98172863406 41.6811659869702 25.7427857925749
endloop
endfacet
facet normal 0.866025403784439 -0.5 -1.79913051333826e-016
outer loop
vertex 15.98172863406 41.6811659869702 25.7427857925749
vertex 10.0 31.3205080756888 32.0
vertex 14.8167529898856 39.66336898168 23.9549512883487
endloop
endfacet
facet normal 0.866025403784439 -0.5 -1.79913051333826e-016
outer loop
vertex 14.8167529898856 39.66336898168 23.9549512883487
vertex 10.0 31.3205080756888 32.0
vertex 13.9228357377725 38.1150588832577 21.625
endloop
endfacet
facet normal 0.866025403784439 -0.5 -1.79913051333826e-016
outer loop
vertex 13.9228357377725 38.1150588832577 21.625
vertex 10.0 31.3205080756888 32.0
vertex 13.360895861184 37.1417504662074 18.9117142574034
endloop
endfacet
facet normal 0.866025403784439 -0.5 -1.79913051333826e-016
outer loop
vertex 13.360895861184 37.1417504662074 18.9117142574034
vertex 10.0 31.3205080756888 32.0
vertex 10.0 31.3205080756888 8.25852793703961e-015
endloop
endfacet
facet normal 0.866025403784439 -0.5 -1.79913051333826e-016
outer loop
vertex 13.360895861184 37.1417504662074 18.9117142574034
vertex 10.0 31.3205080756888 8.25852793703961e-015
vertex 13.16922863406 36.8097730906827 16.0
endloop
endfacet
facet normal 0.866025403784439 -0.5 -1.79913051333826e-016
outer loop
vertex 26.7942286340599 60.4089653438087 32.0
vertex 17.3383715053583 44.030940367785 26.866665545752
vertex 18.7942286340599 46.5525588832576 27.25
endloop
endfacet
facet normal 0.866025403784439 -0.5 -1.79913051333826e-016
outer loop
vertex 26.7942286340599 60.4089653438087 32.0
vertex 18.7942286340599 46.5525588832576 27.25
vertex 20.2500857627616 49.0741773987303 26.866665545752
endloop
endfacet
facet normal 0.866025403784439 -0.5 -1.79913051333826e-016
outer loop
vertex 26.7942286340599 60.4089653438087 32.0
vertex 20.2500857627616 49.0741773987303 26.866665545752
vertex 21.60672863406 51.4239517795452 25.7427857925749
endloop
endfacet
facet normal 0.866025403784439 -0.5 -1.79913051333826e-016
outer loop
vertex 26.7942286340599 60.4089653438087 32.0
vertex 21.60672863406 51.4239517795452 25.7427857925749
vertex 22.7717042782343 53.4417487848354 23.9549512883487
endloop
endfacet
facet normal 0.866025403784439 -0.5 -1.79913051333826e-016
outer loop
vertex 26.7942286340599 60.4089653438087 32.0
vertex 22.7717042782343 53.4417487848354 23.9549512883487
vertex 23.6656215303474 54.9900588832577 21.625
endloop
endfacet
facet normal 0.866025403784439 -0.5 -1.79913051333826e-016
outer loop
vertex 26.7942286340599 60.4089653438087 32.0
vertex 23.6656215303474 54.9900588832577 21.625
vertex 24.2275614069359 55.963367300308 18.9117142574034
endloop
endfacet
facet normal 0.866025403784439 -0.5 -1.79913051333826e-016
outer loop
vertex 26.7942286340599 60.4089653438087 32.0
vertex 24.2275614069359 55.963367300308 18.9117142574034
vertex 24.41922863406 56.2953446758326 16.0
endloop
endfacet
facet normal -3.92523114670943e-017 0.707106781186548 -0.707106781186547
outer loop
vertex 4.0 10.3431457505076 21.6568542494924
vertex 10.0 9.07179676972449 20.0
vertex 4.0 9.07179676972449 20.0
endloop
endfacet
facet normal -2.77555756156289e-017 0.866025403784439 -0.499999999999999
outer loop
vertex 10.0 9.07179676972449 20.0
vertex 4.0 10.3431457505076 21.6568542494924
vertex 10.0 10.3431457505076 21.6568542494924
endloop
endfacet
facet normal 0.482962913144539 0.836516303737805 0.258819045102522
outer loop
vertex 7.13629669484373 44.3604284533552 13.9294476391798
vertex 9.26794919243112 44.0525588832577 12.0
vertex 7.53589838486224 45.0525588832577 12.0
endloop
endfacet
facet normal 0.433012701892221 0.750000000000002 0.499999999999995
outer loop
vertex 9.26794919243112 44.0525588832577 12.0
vertex 7.13629669484373 44.3604284533552 13.9294476391798
vertex 8.86834750241261 43.3604284533552 13.9294476391798
endloop
endfacet
facet normal -5.55111512312578e-017 2.63677968348475e-016 -1.0
outer loop
vertex 19.0 64.9089653438087 1.66154637483757e-014
vertex 10.0 31.3205080756888 8.25852793703961e-015
vertex 4.69618757639384e-031 32.0 8.99280649946376e-015
endloop
endfacet
facet normal -5.55111512312578e-017 2.63677968348475e-016 -1.0
outer loop
vertex 10.0 31.3205080756888 8.25852793703961e-015
vertex 19.0 64.9089653438087 1.66154637483757e-014
vertex 26.7942286340599 60.4089653438087 1.49962462863713e-014
endloop
endfacet
facet normal -5.55111512312578e-017 2.63677968348475e-016 -1.0
outer loop
vertex 4.69618757639384e-031 32.0 8.99280649946376e-015
vertex 10.0 1.12798659301916e-014 0.0
vertex 0.0 1.12798659301916e-014 5.55111512312577e-016
endloop
endfacet
facet normal -5.55111512312578e-017 2.63677968348475e-016 -1.0
outer loop
vertex 10.0 1.12798659301916e-014 0.0
vertex 4.69618757639384e-031 32.0 8.99280649946376e-015
vertex 10.0 31.3205080756888 8.25852793703961e-015
endloop
endfacet
facet normal -0.249999999999995 -0.433012701892221 -0.866025403784439
outer loop
vertex 13.0 54.5166604983954 22.9282032302755
vertex 13.767326987979 51.8457098275938 23.7274066103126
vertex 12.0352761804101 52.8457098275938 23.7274066103126
endloop
endfacet
facet normal -0.129409522551259 -0.224143868042014 -0.965925826289068
outer loop
vertex 13.767326987979 51.8457098275938 23.7274066103126
vertex 13.0 54.5166604983954 22.9282032302755
vertex 14.7320508075689 53.5166604983955 22.9282032302755
endloop
endfacet
facet normal 0.353553390593272 0.612372435695793 0.70710678118655
outer loop
vertex 14.8167529898856 39.66336898168 8.04504871165133
vertex 9.91955080756888 45.1811659869702 6.25721420742507
vertex 8.75457516339455 43.16336898168 8.04504871165134
endloop
endfacet
facet normal 0.249999999999999 0.433012701892217 0.86602540378444
outer loop
vertex 9.91955080756888 45.1811659869702 6.25721420742507
vertex 14.8167529898856 39.66336898168 8.04504871165133
vertex 15.98172863406 41.6811659869702 6.25721420742507
endloop
endfacet
facet normal -0.482962913144532 -0.836516303737808 0.258819045102523
outer loop
vertex 24.2275614069359 55.963367300308 13.0882857425967
vertex 17.6034437038564 58.4900588832577 10.375
vertex 23.6656215303474 54.9900588832577 10.375
endloop
endfacet
facet normal -0.433012701892221 -0.750000000000003 0.499999999999995
outer loop
vertex 17.6034437038564 58.4900588832577 10.375
vertex 24.2275614069359 55.963367300308 13.0882857425967
vertex 18.1653835804449 59.463367300308 13.0882857425967
endloop
endfacet
facet normal -5.55111512312578e-017 2.49511077078113e-016 -1.0
outer loop
vertex 1.0325074129014e-015 16.0 18.6
vertex 4.0 15.3270704827334 18.5114071483516
vertex 1.02758952171553e-015 15.3270704827334 18.5114071483516
endloop
endfacet
facet normal -5.36196546213101e-017 0.258819045102521 -0.965925826289068
outer loop
vertex 4.0 15.3270704827334 18.5114071483516
vertex 1.0325074129014e-015 16.0 18.6
vertex 4.0 16.0 18.6
endloop
endfacet
endsolid 16mmBearing-5mmHole-v3
