solid PulleyV5
facet normal 4.63377714573639e-016 1.0 0.0
outer loop
vertex 0.0 12.0 12.0
vertex 2.09643426533042 12.2760008070585 0.0
vertex 0.0 12.0 0.0
endloop
endfacet
facet normal -0.258819045102521 0.965925826289068 0.0
outer loop
vertex 2.09643426533042 12.2760008070585 0.0
vertex 0.0 12.0 12.0
vertex 2.09643426533042 12.2760008070585 12.0
endloop
endfacet
facet normal 0.258819045102521 -0.965925826289068 0.0
outer loop
vertex 2.87289140063798 9.37822332819134 12.0
vertex -2.8199664825479e-015 9.0 3.0
vertex 2.87289140063798 9.37822332819134 3.0
endloop
endfacet
facet normal -4.00999945304111e-016 -1.0 0.0
outer loop
vertex -2.8199664825479e-015 9.0 3.0
vertex 2.87289140063798 9.37822332819134 12.0
vertex -2.8199664825479e-015 9.0 12.0
endloop
endfacet
facet normal 0.258819045102521 -0.965925826289068 0.0
outer loop
vertex 5.20226280656067 0.684890891589725 3.0
vertex -5.63993296509579e-015 -7.49053596926785e-016 0.0
vertex 5.20226280656067 0.684890891589725 0.0
endloop
endfacet
facet normal -4.63377714573639e-016 -1.0 0.0
outer loop
vertex -5.63993296509579e-015 -7.49053596926785e-016 0.0
vertex 5.20226280656067 0.684890891589725 3.0
vertex -5.63993296509579e-015 -7.49053596926785e-016 3.0
endloop
endfacet
facet normal -0.258819045102521 0.965925826289068 0.0
outer loop
vertex 2.09643426533042 12.2760008070585 12.0
vertex 4.05 13.085194229346 0.0
vertex 2.09643426533042 12.2760008070585 0.0
endloop
endfacet
facet normal -0.5 0.866025403784439 0.0
outer loop
vertex 4.05 13.085194229346 0.0
vertex 2.09643426533042 12.2760008070585 12.0
vertex 4.05 13.085194229346 12.0
endloop
endfacet
facet normal 0.5 -0.866025403784439 0.0
outer loop
vertex 5.55 10.4871180179927 12.0
vertex 2.87289140063798 9.37822332819134 3.0
vertex 5.55 10.4871180179927 3.0
endloop
endfacet
facet normal 0.258819045102521 -0.965925826289068 0.0
outer loop
vertex 2.87289140063798 9.37822332819134 3.0
vertex 5.55 10.4871180179927 12.0
vertex 2.87289140063798 9.37822332819134 12.0
endloop
endfacet
facet normal 0.5 -0.866025403784439 0.0
outer loop
vertex 10.05 2.69288938393278 3.0
vertex 5.20226280656067 0.684890891589725 0.0
vertex 10.05 2.69288938393278 0.0
endloop
endfacet
facet normal 0.258819045102521 -0.965925826289068 0.0
outer loop
vertex 5.20226280656067 0.684890891589725 0.0
vertex 10.05 2.69288938393278 3.0
vertex 5.20226280656067 0.684890891589725 3.0
endloop
endfacet
facet normal -0.5 0.866025403784439 0.0
outer loop
vertex 4.05 13.085194229346 12.0
vertex 5.72756492761103 14.372435072389 0.0
vertex 4.05 13.085194229346 0.0
endloop
endfacet
facet normal -0.707106781186548 0.707106781186547 0.0
outer loop
vertex 5.72756492761103 14.372435072389 0.0
vertex 4.05 13.085194229346 12.0
vertex 5.72756492761103 14.372435072389 12.0
endloop
endfacet
facet normal 0.707106781186547 -0.707106781186548 0.0
outer loop
vertex 7.84888527117067 12.2511147288293 12.0
vertex 5.55 10.4871180179927 3.0
vertex 7.84888527117067 12.2511147288293 3.0
endloop
endfacet
facet normal 0.5 -0.866025403784439 0.0
outer loop
vertex 5.55 10.4871180179927 3.0
vertex 7.84888527117067 12.2511147288293 12.0
vertex 5.55 10.4871180179927 12.0
endloop
endfacet
facet normal 0.707106781186548 -0.707106781186547 0.0
outer loop
vertex 14.2128463018496 5.88715369815039 3.0
vertex 10.05 2.69288938393278 0.0
vertex 14.2128463018496 5.88715369815039 0.0
endloop
endfacet
facet normal 0.5 -0.866025403784439 0.0
outer loop
vertex 10.05 2.69288938393278 0.0
vertex 14.2128463018496 5.88715369815039 3.0
vertex 10.05 2.69288938393278 3.0
endloop
endfacet
facet normal 0.965925826289068 -0.258819045102521 0.0
outer loop
vertex 19.4151091084103 14.8977371934393 0.0
vertex 17.4071106160672 10.05 3.0
vertex 17.4071106160672 10.05 0.0
endloop
endfacet
facet normal 0.866025403784439 -0.5 0.0
outer loop
vertex 17.4071106160672 10.05 3.0
vertex 19.4151091084103 14.8977371934393 0.0
vertex 19.4151091084103 14.8977371934393 3.0
endloop
endfacet
facet normal -0.866025403784439 0.5 0.0
outer loop
vertex 7.01480577065395 16.05 12.0
vertex 5.72756492761103 14.372435072389 0.0
vertex 5.72756492761103 14.372435072389 12.0
endloop
endfacet
facet normal -0.707106781186548 0.707106781186547 0.0
outer loop
vertex 5.72756492761103 14.372435072389 0.0
vertex 7.01480577065395 16.05 12.0
vertex 7.01480577065395 16.05 0.0
endloop
endfacet
facet normal 0.866025403784439 -0.5 0.0
outer loop
vertex 9.61288198200727 14.55 3.0
vertex 7.84888527117067 12.2511147288293 12.0
vertex 7.84888527117067 12.2511147288293 3.0
endloop
endfacet
facet normal 0.707106781186547 -0.707106781186548 0.0
outer loop
vertex 7.84888527117067 12.2511147288293 12.0
vertex 9.61288198200727 14.55 3.0
vertex 9.61288198200727 14.55 12.0
endloop
endfacet
facet normal 0.866025403784439 -0.5 0.0
outer loop
vertex 17.4071106160672 10.05 0.0
vertex 14.2128463018496 5.88715369815039 3.0
vertex 14.2128463018496 5.88715369815039 0.0
endloop
endfacet
facet normal 0.707106781186548 -0.707106781186547 0.0
outer loop
vertex 14.2128463018496 5.88715369815039 3.0
vertex 17.4071106160672 10.05 0.0
vertex 17.4071106160672 10.05 3.0
endloop
endfacet
facet normal -0.965925826289068 0.258819045102521 0.0
outer loop
vertex 7.82399919294145 18.0035657346696 12.0
vertex 7.01480577065395 16.05 0.0
vertex 7.01480577065395 16.05 12.0
endloop
endfacet
facet normal -0.866025403784439 0.5 0.0
outer loop
vertex 7.01480577065395 16.05 0.0
vertex 7.82399919294145 18.0035657346696 12.0
vertex 7.82399919294145 18.0035657346696 0.0
endloop
endfacet
facet normal 0.965925826289068 -0.258819045102521 0.0
outer loop
vertex 10.7217766718087 17.227108599362 3.0
vertex 9.61288198200727 14.55 12.0
vertex 9.61288198200727 14.55 3.0
endloop
endfacet
facet normal 0.866025403784439 -0.5 0.0
outer loop
vertex 9.61288198200727 14.55 12.0
vertex 10.7217766718087 17.227108599362 3.0
vertex 10.7217766718087 17.227108599362 12.0
endloop
endfacet
facet normal 0.866025403784439 0.5 0.0
outer loop
vertex 9.61288198200727 25.65 3.0
vertex 10.7217766718087 22.972891400638 12.0
vertex 10.7217766718087 22.972891400638 3.0
endloop
endfacet
facet normal 0.965925826289068 0.258819045102521 0.0
outer loop
vertex 10.7217766718087 22.972891400638 12.0
vertex 9.61288198200727 25.65 3.0
vertex 9.61288198200727 25.65 12.0
endloop
endfacet
facet normal -1.0 2.3168885728682e-016 0.0
outer loop
vertex 8.09999999999999 20.1 12.0
vertex 7.82399919294145 18.0035657346696 0.0
vertex 7.82399919294145 18.0035657346696 12.0
endloop
endfacet
facet normal -0.965925826289068 0.258819045102521 0.0
outer loop
vertex 7.82399919294145 18.0035657346696 0.0
vertex 8.09999999999999 20.1 12.0
vertex 8.09999999999999 20.1 0.0
endloop
endfacet
facet normal 1.0 -1.69311088017291e-016 0.0
outer loop
vertex 11.1 20.1 3.0
vertex 10.7217766718087 17.227108599362 12.0
vertex 10.7217766718087 17.227108599362 3.0
endloop
endfacet
facet normal 0.965925826289068 -0.258819045102521 0.0
outer loop
vertex 10.7217766718087 17.227108599362 12.0
vertex 11.1 20.1 3.0
vertex 11.1 20.1 12.0
endloop
endfacet
facet normal 0.707106781186548 0.707106781186547 0.0
outer loop
vertex 7.84888527117067 27.9488852711707 3.0
vertex 9.61288198200727 25.65 12.0
vertex 9.61288198200727 25.65 3.0
endloop
endfacet
facet normal 0.866025403784439 0.5 0.0
outer loop
vertex 9.61288198200727 25.65 12.0
vertex 7.84888527117067 27.9488852711707 3.0
vertex 7.84888527117067 27.9488852711707 12.0
endloop
endfacet
facet normal 1.0 -2.49511077078113e-016 0.0
outer loop
vertex 20.1 20.1 0.0
vertex 19.4151091084103 14.8977371934393 3.0
vertex 19.4151091084103 14.8977371934393 0.0
endloop
endfacet
facet normal 0.965925826289068 -0.258819045102521 0.0
outer loop
vertex 19.4151091084103 14.8977371934393 3.0
vertex 20.1 20.1 0.0
vertex 20.1 20.1 3.0
endloop
endfacet
facet normal -0.965925826289068 -0.258819045102521 0.0
outer loop
vertex 7.82399919294145 22.1964342653304 12.0
vertex 8.09999999999999 20.1 0.0
vertex 8.09999999999999 20.1 12.0
endloop
endfacet
facet normal -1.0 2.3168885728682e-016 0.0
outer loop
vertex 8.09999999999999 20.1 0.0
vertex 7.82399919294145 22.1964342653304 12.0
vertex 7.82399919294145 22.1964342653304 0.0
endloop
endfacet
facet normal 0.965925826289068 0.258819045102521 0.0
outer loop
vertex 10.7217766718087 22.972891400638 3.0
vertex 11.1 20.1 12.0
vertex 11.1 20.1 3.0
endloop
endfacet
facet normal 1.0 -1.69311088017291e-016 0.0
outer loop
vertex 11.1 20.1 12.0
vertex 10.7217766718087 22.972891400638 3.0
vertex 10.7217766718087 22.972891400638 12.0
endloop
endfacet
facet normal 0.965925826289068 0.258819045102521 0.0
outer loop
vertex 19.4151091084103 25.3022628065607 0.0
vertex 20.1 20.1 3.0
vertex 20.1 20.1 0.0
endloop
endfacet
facet normal 1.0 -2.49511077078113e-016 0.0
outer loop
vertex 20.1 20.1 3.0
vertex 19.4151091084103 25.3022628065607 0.0
vertex 19.4151091084103 25.3022628065607 3.0
endloop
endfacet
facet normal -0.866025403784439 -0.5 0.0
outer loop
vertex 7.01480577065395 24.15 12.0
vertex 7.82399919294145 22.1964342653304 0.0
vertex 7.82399919294145 22.1964342653304 12.0
endloop
endfacet
facet normal -0.965925826289068 -0.258819045102521 0.0
outer loop
vertex 7.82399919294145 22.1964342653304 0.0
vertex 7.01480577065395 24.15 12.0
vertex 7.01480577065395 24.15 0.0
endloop
endfacet
facet normal 0.0 0.0 -1.0
outer loop
vertex -10.05 37.5071106160672 0.0
vertex -7.82399919294145 22.1964342653304 0.0
vertex -8.1 20.1 0.0
endloop
endfacet
facet normal 0.0 0.0 -1.0
outer loop
vertex -7.82399919294145 22.1964342653304 0.0
vertex -10.05 37.5071106160672 0.0
vertex -5.20226280656065 39.5151091084103 0.0
endloop
endfacet
facet normal 0.0 0.0 -1.0
outer loop
vertex -7.82399919294145 22.1964342653304 0.0
vertex -5.20226280656065 39.5151091084103 0.0
vertex -7.01480577065395 24.15 0.0
endloop
endfacet
facet normal 0.0 0.0 -1.0
outer loop
vertex -7.01480577065395 24.15 0.0
vertex -5.20226280656065 39.5151091084103 0.0
vertex -5.72756492761103 25.827564927611 0.0
endloop
endfacet
facet normal 0.0 0.0 -1.0
outer loop
vertex -5.72756492761103 25.827564927611 0.0
vertex -5.20226280656065 39.5151091084103 0.0
vertex -4.05 27.114805770654 0.0
endloop
endfacet
facet normal 0.0 0.0 -1.0
outer loop
vertex -4.05 27.114805770654 0.0
vertex -5.20226280656065 39.5151091084103 0.0
vertex 1.97397653778353e-014 40.2 0.0
endloop
endfacet
facet normal 0.0 0.0 -1.0
outer loop
vertex -4.05 27.114805770654 0.0
vertex 1.97397653778353e-014 40.2 0.0
vertex -2.09643426533041 27.9239991929415 0.0
endloop
endfacet
facet normal 0.0 0.0 -1.0
outer loop
vertex -2.09643426533041 27.9239991929415 0.0
vertex 1.97397653778353e-014 40.2 0.0
vertex 0.0 28.2 0.0
endloop
endfacet
facet normal 0.0 0.0 -1.0
outer loop
vertex 0.0 28.2 0.0
vertex 1.97397653778353e-014 40.2 0.0
vertex 2.09643426533042 27.9239991929414 0.0
endloop
endfacet
facet normal 0.0 0.0 -1.0
outer loop
vertex 2.09643426533042 27.9239991929414 0.0
vertex 1.97397653778353e-014 40.2 0.0
vertex 5.20226280656067 39.5151091084103 0.0
endloop
endfacet
facet normal 0.0 0.0 -1.0
outer loop
vertex 2.09643426533042 27.9239991929414 0.0
vertex 5.20226280656067 39.5151091084103 0.0
vertex 4.05 27.1148057706539 0.0
endloop
endfacet
facet normal 0.0 0.0 -1.0
outer loop
vertex 4.05 27.1148057706539 0.0
vertex 5.20226280656067 39.5151091084103 0.0
vertex 5.72756492761103 25.827564927611 0.0
endloop
endfacet
facet normal 0.0 0.0 -1.0
outer loop
vertex 5.72756492761103 25.827564927611 0.0
vertex 5.20226280656067 39.5151091084103 0.0
vertex 10.05 37.5071106160672 0.0
endloop
endfacet
facet normal 0.0 0.0 -1.0
outer loop
vertex 5.72756492761103 25.827564927611 0.0
vertex 10.05 37.5071106160672 0.0
vertex 7.01480577065395 24.15 0.0
endloop
endfacet
facet normal 0.0 0.0 -1.0
outer loop
vertex 7.01480577065395 24.15 0.0
vertex 10.05 37.5071106160672 0.0
vertex 7.82399919294145 22.1964342653304 0.0
endloop
endfacet
facet normal 0.0 0.0 -1.0
outer loop
vertex 7.82399919294145 22.1964342653304 0.0
vertex 10.05 37.5071106160672 0.0
vertex 8.09999999999999 20.1 0.0
endloop
endfacet
facet normal 0.0 0.0 -1.0
outer loop
vertex 8.09999999999999 20.1 0.0
vertex 10.05 37.5071106160672 0.0
vertex 10.05 2.69288938393278 0.0
endloop
endfacet
facet normal 0.0 0.0 -1.0
outer loop
vertex 10.05 2.69288938393278 0.0
vertex 10.05 37.5071106160672 0.0
vertex 14.2128463018496 5.88715369815039 0.0
endloop
endfacet
facet normal 0.0 0.0 -1.0
outer loop
vertex 14.2128463018496 5.88715369815039 0.0
vertex 10.05 37.5071106160672 0.0
vertex 14.2128463018496 34.3128463018496 0.0
endloop
endfacet
facet normal 0.0 0.0 -1.0
outer loop
vertex 14.2128463018496 5.88715369815039 0.0
vertex 14.2128463018496 34.3128463018496 0.0
vertex 17.4071106160672 10.05 0.0
endloop
endfacet
facet normal 0.0 0.0 -1.0
outer loop
vertex 17.4071106160672 10.05 0.0
vertex 14.2128463018496 34.3128463018496 0.0
vertex 17.4071106160672 30.15 0.0
endloop
endfacet
facet normal 0.0 0.0 -1.0
outer loop
vertex 17.4071106160672 10.05 0.0
vertex 17.4071106160672 30.15 0.0
vertex 19.4151091084103 25.3022628065607 0.0
endloop
endfacet
facet normal 0.0 0.0 -1.0
outer loop
vertex 17.4071106160672 10.05 0.0
vertex 19.4151091084103 25.3022628065607 0.0
vertex 19.4151091084103 14.8977371934393 0.0
endloop
endfacet
facet normal 0.0 0.0 -1.0
outer loop
vertex 19.4151091084103 14.8977371934393 0.0
vertex 19.4151091084103 25.3022628065607 0.0
vertex 20.1 20.1 0.0
endloop
endfacet
facet normal 0.0 0.0 -1.0
outer loop
vertex -19.4151091084103 25.3022628065607 0.0
vertex -19.4151091084103 14.8977371934393 0.0
vertex -20.1 20.1 0.0
endloop
endfacet
facet normal 0.0 0.0 -1.0
outer loop
vertex -19.4151091084103 14.8977371934393 0.0
vertex -19.4151091084103 25.3022628065607 0.0
vertex -17.4071106160672 10.05 0.0
endloop
endfacet
facet normal 0.0 0.0 -1.0
outer loop
vertex -17.4071106160672 10.05 0.0
vertex -19.4151091084103 25.3022628065607 0.0
vertex -17.4071106160672 30.15 0.0
endloop
endfacet
facet normal 0.0 0.0 -1.0
outer loop
vertex -17.4071106160672 10.05 0.0
vertex -17.4071106160672 30.15 0.0
vertex -14.2128463018496 5.88715369815041 0.0
endloop
endfacet
facet normal 0.0 0.0 -1.0
outer loop
vertex -14.2128463018496 5.88715369815041 0.0
vertex -17.4071106160672 30.15 0.0
vertex -14.2128463018496 34.3128463018496 0.0
endloop
endfacet
facet normal 0.0 0.0 -1.0
outer loop
vertex -14.2128463018496 5.88715369815041 0.0
vertex -14.2128463018496 34.3128463018496 0.0
vertex -10.05 2.6928893839328 0.0
endloop
endfacet
facet normal 0.0 0.0 -1.0
outer loop
vertex -10.05 2.6928893839328 0.0
vertex -14.2128463018496 34.3128463018496 0.0
vertex -10.05 37.5071106160672 0.0
endloop
endfacet
facet normal 0.0 0.0 -1.0
outer loop
vertex -10.05 2.6928893839328 0.0
vertex -10.05 37.5071106160672 0.0
vertex -8.1 20.1 0.0
endloop
endfacet
facet normal 0.0 0.0 -1.0
outer loop
vertex -10.05 2.6928893839328 0.0
vertex -8.1 20.1 0.0
vertex -7.82399919294145 18.0035657346696 0.0
endloop
endfacet
facet normal 0.0 0.0 -1.0
outer loop
vertex -10.05 2.6928893839328 0.0
vertex -7.82399919294145 18.0035657346696 0.0
vertex -5.20226280656068 0.684890891589741 0.0
endloop
endfacet
facet normal 0.0 0.0 -1.0
outer loop
vertex -5.20226280656068 0.684890891589741 0.0
vertex -7.82399919294145 18.0035657346696 0.0
vertex -7.01480577065395 16.05 0.0
endloop
endfacet
facet normal 0.0 0.0 -1.0
outer loop
vertex -5.20226280656068 0.684890891589741 0.0
vertex -7.01480577065395 16.05 0.0
vertex -5.72756492761103 14.372435072389 0.0
endloop
endfacet
facet normal 0.0 0.0 -1.0
outer loop
vertex -5.20226280656068 0.684890891589741 0.0
vertex -5.72756492761103 14.372435072389 0.0
vertex -4.05 13.085194229346 0.0
endloop
endfacet
facet normal 0.0 0.0 -1.0
outer loop
vertex -5.20226280656068 0.684890891589741 0.0
vertex -4.05 13.085194229346 0.0
vertex -5.63993296509579e-015 -7.49053596926785e-016 0.0
endloop
endfacet
facet normal 0.0 0.0 -1.0
outer loop
vertex -5.63993296509579e-015 -7.49053596926785e-016 0.0
vertex -4.05 13.085194229346 0.0
vertex -2.09643426533042 12.2760008070585 0.0
endloop
endfacet
facet normal 0.0 0.0 -1.0
outer loop
vertex -5.63993296509579e-015 -7.49053596926785e-016 0.0
vertex -2.09643426533042 12.2760008070585 0.0
vertex 0.0 12.0 0.0
endloop
endfacet
facet normal 0.0 0.0 -1.0
outer loop
vertex -5.63993296509579e-015 -7.49053596926785e-016 0.0
vertex 0.0 12.0 0.0
vertex 5.20226280656067 0.684890891589725 0.0
endloop
endfacet
facet normal 0.0 0.0 -1.0
outer loop
vertex 5.20226280656067 0.684890891589725 0.0
vertex 0.0 12.0 0.0
vertex 2.09643426533042 12.2760008070585 0.0
endloop
endfacet
facet normal 0.0 0.0 -1.0
outer loop
vertex 5.20226280656067 0.684890891589725 0.0
vertex 2.09643426533042 12.2760008070585 0.0
vertex 4.05 13.085194229346 0.0
endloop
endfacet
facet normal 0.0 0.0 -1.0
outer loop
vertex 5.20226280656067 0.684890891589725 0.0
vertex 4.05 13.085194229346 0.0
vertex 5.72756492761103 14.372435072389 0.0
endloop
endfacet
facet normal 0.0 0.0 -1.0
outer loop
vertex 5.20226280656067 0.684890891589725 0.0
vertex 5.72756492761103 14.372435072389 0.0
vertex 10.05 2.69288938393278 0.0
endloop
endfacet
facet normal 0.0 0.0 -1.0
outer loop
vertex 10.05 2.69288938393278 0.0
vertex 5.72756492761103 14.372435072389 0.0
vertex 7.01480577065395 16.05 0.0
endloop
endfacet
facet normal 0.0 0.0 -1.0
outer loop
vertex 10.05 2.69288938393278 0.0
vertex 7.01480577065395 16.05 0.0
vertex 7.82399919294145 18.0035657346696 0.0
endloop
endfacet
facet normal 0.0 0.0 -1.0
outer loop
vertex 10.05 2.69288938393278 0.0
vertex 7.82399919294145 18.0035657346696 0.0
vertex 8.09999999999999 20.1 0.0
endloop
endfacet
facet normal 0.866025403784439 0.5 0.0
outer loop
vertex 17.4071106160672 30.15 0.0
vertex 19.4151091084103 25.3022628065607 3.0
vertex 19.4151091084103 25.3022628065607 0.0
endloop
endfacet
facet normal 0.965925826289068 0.258819045102521 0.0
outer loop
vertex 19.4151091084103 25.3022628065607 3.0
vertex 17.4071106160672 30.15 0.0
vertex 17.4071106160672 30.15 3.0
endloop
endfacet
facet normal 3.69060061757146e-033 4.10066735285717e-033 1.0
outer loop
vertex -19.4151091084103 14.8977371934393 3.0
vertex -19.4151091084103 25.3022628065607 3.0
vertex -20.1 20.1 3.0
endloop
endfacet
facet normal 3.69060061757146e-033 4.10066735285717e-033 1.0
outer loop
vertex -19.4151091084103 25.3022628065607 3.0
vertex -19.4151091084103 14.8977371934393 3.0
vertex -17.4071106160672 10.05 3.0
endloop
endfacet
facet normal 3.69060061757146e-033 4.10066735285717e-033 1.0
outer loop
vertex -19.4151091084103 25.3022628065607 3.0
vertex -17.4071106160672 10.05 3.0
vertex -17.4071106160672 30.15 3.0
endloop
endfacet
facet normal 3.69060061757146e-033 4.10066735285717e-033 1.0
outer loop
vertex -17.4071106160672 30.15 3.0
vertex -17.4071106160672 10.05 3.0
vertex -14.2128463018496 5.88715369815041 3.0
endloop
endfacet
facet normal 3.69060061757146e-033 4.10066735285717e-033 1.0
outer loop
vertex -17.4071106160672 30.15 3.0
vertex -14.2128463018496 5.88715369815041 3.0
vertex -14.2128463018496 34.3128463018496 3.0
endloop
endfacet
facet normal 3.69060061757146e-033 4.10066735285717e-033 1.0
outer loop
vertex -14.2128463018496 34.3128463018496 3.0
vertex -14.2128463018496 5.88715369815041 3.0
vertex -10.05 2.6928893839328 3.0
endloop
endfacet
facet normal 3.69060061757146e-033 4.10066735285717e-033 1.0
outer loop
vertex -14.2128463018496 34.3128463018496 3.0
vertex -10.05 2.6928893839328 3.0
vertex -11.1 20.1 3.0
endloop
endfacet
facet normal 3.69060061757146e-033 4.10066735285717e-033 1.0
outer loop
vertex -11.1 20.1 3.0
vertex -10.05 2.6928893839328 3.0
vertex -10.7217766718087 17.227108599362 3.0
endloop
endfacet
facet normal 3.69060061757146e-033 4.10066735285717e-033 1.0
outer loop
vertex -10.7217766718087 17.227108599362 3.0
vertex -10.05 2.6928893839328 3.0
vertex -9.61288198200727 14.55 3.0
endloop
endfacet
facet normal 3.69060061757146e-033 4.10066735285717e-033 1.0
outer loop
vertex -9.61288198200727 14.55 3.0
vertex -10.05 2.6928893839328 3.0
vertex -5.20226280656068 0.684890891589741 3.0
endloop
endfacet
facet normal 3.69060061757146e-033 4.10066735285717e-033 1.0
outer loop
vertex -9.61288198200727 14.55 3.0
vertex -5.20226280656068 0.684890891589741 3.0
vertex -7.84888527117068 12.2511147288293 3.0
endloop
endfacet
facet normal 3.69060061757146e-033 4.10066735285717e-033 1.0
outer loop
vertex -7.84888527117068 12.2511147288293 3.0
vertex -5.20226280656068 0.684890891589741 3.0
vertex -5.55 10.4871180179927 3.0
endloop
endfacet
facet normal 3.69060061757146e-033 4.10066735285717e-033 1.0
outer loop
vertex -5.55 10.4871180179927 3.0
vertex -5.20226280656068 0.684890891589741 3.0
vertex -2.87289140063799 9.37822332819135 3.0
endloop
endfacet
facet normal 3.69060061757146e-033 4.10066735285717e-033 1.0
outer loop
vertex -2.87289140063799 9.37822332819135 3.0
vertex -5.20226280656068 0.684890891589741 3.0
vertex -5.63993296509579e-015 -7.49053596926785e-016 3.0
endloop
endfacet
facet normal 3.69060061757146e-033 4.10066735285717e-033 1.0
outer loop
vertex -2.87289140063799 9.37822332819135 3.0
vertex -5.63993296509579e-015 -7.49053596926785e-016 3.0
vertex -2.8199664825479e-015 9.0 3.0
endloop
endfacet
facet normal 3.69060061757146e-033 4.10066735285717e-033 1.0
outer loop
vertex -2.8199664825479e-015 9.0 3.0
vertex -5.63993296509579e-015 -7.49053596926785e-016 3.0
vertex 5.20226280656067 0.684890891589725 3.0
endloop
endfacet
facet normal 3.69060061757146e-033 4.10066735285717e-033 1.0
outer loop
vertex -2.8199664825479e-015 9.0 3.0
vertex 5.20226280656067 0.684890891589725 3.0
vertex 2.87289140063798 9.37822332819134 3.0
endloop
endfacet
facet normal 3.69060061757146e-033 4.10066735285717e-033 1.0
outer loop
vertex 2.87289140063798 9.37822332819134 3.0
vertex 5.20226280656067 0.684890891589725 3.0
vertex 5.55 10.4871180179927 3.0
endloop
endfacet
facet normal 3.69060061757146e-033 4.10066735285717e-033 1.0
outer loop
vertex 5.55 10.4871180179927 3.0
vertex 5.20226280656067 0.684890891589725 3.0
vertex 10.05 2.69288938393278 3.0
endloop
endfacet
facet normal 3.69060061757146e-033 4.10066735285717e-033 1.0
outer loop
vertex 5.55 10.4871180179927 3.0
vertex 10.05 2.69288938393278 3.0
vertex 7.84888527117067 12.2511147288293 3.0
endloop
endfacet
facet normal 3.69060061757146e-033 4.10066735285717e-033 1.0
outer loop
vertex 7.84888527117067 12.2511147288293 3.0
vertex 10.05 2.69288938393278 3.0
vertex 9.61288198200727 14.55 3.0
endloop
endfacet
facet normal 3.69060061757146e-033 4.10066735285717e-033 1.0
outer loop
vertex 9.61288198200727 14.55 3.0
vertex 10.05 2.69288938393278 3.0
vertex 10.7217766718087 17.227108599362 3.0
endloop
endfacet
facet normal 3.69060061757146e-033 4.10066735285717e-033 1.0
outer loop
vertex 10.7217766718087 17.227108599362 3.0
vertex 10.05 2.69288938393278 3.0
vertex 14.2128463018496 5.88715369815039 3.0
endloop
endfacet
facet normal 3.69060061757146e-033 4.10066735285717e-033 1.0
outer loop
vertex 10.7217766718087 17.227108599362 3.0
vertex 14.2128463018496 5.88715369815039 3.0
vertex 11.1 20.1 3.0
endloop
endfacet
facet normal 3.69060061757146e-033 4.10066735285717e-033 1.0
outer loop
vertex -11.1 20.1 3.0
vertex -10.05 37.5071106160672 3.0
vertex -14.2128463018496 34.3128463018496 3.0
endloop
endfacet
facet normal 3.69060061757146e-033 4.10066735285717e-033 1.0
outer loop
vertex -10.05 37.5071106160672 3.0
vertex -11.1 20.1 3.0
vertex -10.7217766718087 22.972891400638 3.0
endloop
endfacet
facet normal 3.69060061757146e-033 4.10066735285717e-033 1.0
outer loop
vertex -10.05 37.5071106160672 3.0
vertex -10.7217766718087 22.972891400638 3.0
vertex -9.61288198200726 25.65 3.0
endloop
endfacet
facet normal 3.69060061757146e-033 4.10066735285717e-033 1.0
outer loop
vertex -10.05 37.5071106160672 3.0
vertex -9.61288198200726 25.65 3.0
vertex -5.20226280656065 39.5151091084103 3.0
endloop
endfacet
facet normal 3.69060061757146e-033 4.10066735285717e-033 1.0
outer loop
vertex -5.20226280656065 39.5151091084103 3.0
vertex -9.61288198200726 25.65 3.0
vertex -7.84888527117067 27.9488852711707 3.0
endloop
endfacet
facet normal 3.69060061757146e-033 4.10066735285717e-033 1.0
outer loop
vertex -5.20226280656065 39.5151091084103 3.0
vertex -7.84888527117067 27.9488852711707 3.0
vertex -5.55 29.7128819820073 3.0
endloop
endfacet
facet normal 3.69060061757146e-033 4.10066735285717e-033 1.0
outer loop
vertex -5.20226280656065 39.5151091084103 3.0
vertex -5.55 29.7128819820073 3.0
vertex -2.87289140063797 30.8217766718087 3.0
endloop
endfacet
facet normal 3.69060061757146e-033 4.10066735285717e-033 1.0
outer loop
vertex -5.20226280656065 39.5151091084103 3.0
vertex -2.87289140063797 30.8217766718087 3.0
vertex 1.97397653778353e-014 40.2 3.0
endloop
endfacet
facet normal 3.69060061757146e-033 4.10066735285717e-033 1.0
outer loop
vertex 1.97397653778353e-014 40.2 3.0
vertex -2.87289140063797 30.8217766718087 3.0
vertex 5.63993296509579e-015 31.2 3.0
endloop
endfacet
facet normal 3.69060061757146e-033 4.10066735285717e-033 1.0
outer loop
vertex 1.97397653778353e-014 40.2 3.0
vertex 5.63993296509579e-015 31.2 3.0
vertex 2.87289140063798 30.8217766718086 3.0
endloop
endfacet
facet normal 3.69060061757146e-033 4.10066735285717e-033 1.0
outer loop
vertex 1.97397653778353e-014 40.2 3.0
vertex 2.87289140063798 30.8217766718086 3.0
vertex 5.20226280656067 39.5151091084103 3.0
endloop
endfacet
facet normal 3.69060061757146e-033 4.10066735285717e-033 1.0
outer loop
vertex 5.20226280656067 39.5151091084103 3.0
vertex 2.87289140063798 30.8217766718086 3.0
vertex 5.55 29.7128819820073 3.0
endloop
endfacet
facet normal 3.69060061757146e-033 4.10066735285717e-033 1.0
outer loop
vertex 5.20226280656067 39.5151091084103 3.0
vertex 5.55 29.7128819820073 3.0
vertex 10.05 37.5071106160672 3.0
endloop
endfacet
facet normal 3.69060061757146e-033 4.10066735285717e-033 1.0
outer loop
vertex 10.05 37.5071106160672 3.0
vertex 5.55 29.7128819820073 3.0
vertex 7.84888527117067 27.9488852711707 3.0
endloop
endfacet
facet normal 3.69060061757146e-033 4.10066735285717e-033 1.0
outer loop
vertex 10.05 37.5071106160672 3.0
vertex 7.84888527117067 27.9488852711707 3.0
vertex 9.61288198200727 25.65 3.0
endloop
endfacet
facet normal 3.69060061757146e-033 4.10066735285717e-033 1.0
outer loop
vertex 10.05 37.5071106160672 3.0
vertex 9.61288198200727 25.65 3.0
vertex 10.7217766718087 22.972891400638 3.0
endloop
endfacet
facet normal 3.69060061757146e-033 4.10066735285717e-033 1.0
outer loop
vertex 10.05 37.5071106160672 3.0
vertex 10.7217766718087 22.972891400638 3.0
vertex 14.2128463018496 34.3128463018496 3.0
endloop
endfacet
facet normal 3.69060061757146e-033 4.10066735285717e-033 1.0
outer loop
vertex 14.2128463018496 34.3128463018496 3.0
vertex 10.7217766718087 22.972891400638 3.0
vertex 11.1 20.1 3.0
endloop
endfacet
facet normal 3.69060061757146e-033 4.10066735285717e-033 1.0
outer loop
vertex 14.2128463018496 34.3128463018496 3.0
vertex 11.1 20.1 3.0
vertex 14.2128463018496 5.88715369815039 3.0
endloop
endfacet
facet normal 3.69060061757146e-033 4.10066735285717e-033 1.0
outer loop
vertex 14.2128463018496 34.3128463018496 3.0
vertex 14.2128463018496 5.88715369815039 3.0
vertex 17.4071106160672 10.05 3.0
endloop
endfacet
facet normal 3.69060061757146e-033 4.10066735285717e-033 1.0
outer loop
vertex 14.2128463018496 34.3128463018496 3.0
vertex 17.4071106160672 10.05 3.0
vertex 17.4071106160672 30.15 3.0
endloop
endfacet
facet normal 3.69060061757146e-033 4.10066735285717e-033 1.0
outer loop
vertex 17.4071106160672 30.15 3.0
vertex 17.4071106160672 10.05 3.0
vertex 19.4151091084103 14.8977371934393 3.0
endloop
endfacet
facet normal 3.69060061757146e-033 4.10066735285717e-033 1.0
outer loop
vertex 17.4071106160672 30.15 3.0
vertex 19.4151091084103 14.8977371934393 3.0
vertex 19.4151091084103 25.3022628065607 3.0
endloop
endfacet
facet normal 3.69060061757146e-033 4.10066735285717e-033 1.0
outer loop
vertex 19.4151091084103 25.3022628065607 3.0
vertex 19.4151091084103 14.8977371934393 3.0
vertex 20.1 20.1 3.0
endloop
endfacet
facet normal -0.707106781186548 -0.707106781186547 0.0
outer loop
vertex 5.72756492761103 25.827564927611 12.0
vertex 7.01480577065395 24.15 0.0
vertex 7.01480577065395 24.15 12.0
endloop
endfacet
facet normal -0.866025403784439 -0.5 0.0
outer loop
vertex 7.01480577065395 24.15 0.0
vertex 5.72756492761103 25.827564927611 12.0
vertex 5.72756492761103 25.827564927611 0.0
endloop
endfacet
facet normal 0.707106781186548 0.707106781186547 0.0
outer loop
vertex 14.2128463018496 34.3128463018496 0.0
vertex 17.4071106160672 30.15 3.0
vertex 17.4071106160672 30.15 0.0
endloop
endfacet
facet normal 0.866025403784439 0.5 0.0
outer loop
vertex 17.4071106160672 30.15 3.0
vertex 14.2128463018496 34.3128463018496 0.0
vertex 14.2128463018496 34.3128463018496 3.0
endloop
endfacet
facet normal -0.707106781186548 -0.707106781186547 0.0
outer loop
vertex 5.72756492761103 25.827564927611 12.0
vertex 4.05 27.1148057706539 0.0
vertex 5.72756492761103 25.827564927611 0.0
endloop
endfacet
facet normal -0.5 -0.866025403784438 -2.99989663864746e-018
outer loop
vertex 4.05 27.1148057706539 0.0
vertex 5.72756492761103 25.827564927611 12.0
vertex 4.05 27.1148057706539 12.0
endloop
endfacet
facet normal 0.500000000000001 0.866025403784438 0.0
outer loop
vertex 5.55 29.7128819820073 12.0
vertex 7.84888527117067 27.9488852711707 3.0
vertex 5.55 29.7128819820073 3.0
endloop
endfacet
facet normal 0.707106781186548 0.707106781186547 0.0
outer loop
vertex 7.84888527117067 27.9488852711707 3.0
vertex 5.55 29.7128819820073 12.0
vertex 7.84888527117067 27.9488852711707 12.0
endloop
endfacet
facet normal 0.5 0.866025403784438 0.0
outer loop
vertex 10.05 37.5071106160672 3.0
vertex 14.2128463018496 34.3128463018496 0.0
vertex 10.05 37.5071106160672 0.0
endloop
endfacet
facet normal 0.707106781186548 0.707106781186547 0.0
outer loop
vertex 14.2128463018496 34.3128463018496 0.0
vertex 10.05 37.5071106160672 3.0
vertex 14.2128463018496 34.3128463018496 3.0
endloop
endfacet
facet normal -0.5 -0.866025403784438 -2.99989663864746e-018
outer loop
vertex 4.05 27.1148057706539 12.0
vertex 2.09643426533042 27.9239991929414 0.0
vertex 4.05 27.1148057706539 0.0
endloop
endfacet
facet normal -0.258819045102521 -0.965925826289068 -4.02310551622129e-018
outer loop
vertex 2.09643426533042 27.9239991929414 0.0
vertex 4.05 27.1148057706539 12.0
vertex 2.09643426533042 27.9239991929414 12.0
endloop
endfacet
facet normal 0.258819045102523 0.965925826289068 0.0
outer loop
vertex 2.87289140063798 30.8217766718086 12.0
vertex 5.55 29.7128819820073 3.0
vertex 2.87289140063798 30.8217766718086 3.0
endloop
endfacet
facet normal 0.500000000000001 0.866025403784438 0.0
outer loop
vertex 5.55 29.7128819820073 3.0
vertex 2.87289140063798 30.8217766718086 12.0
vertex 5.55 29.7128819820073 12.0
endloop
endfacet
facet normal 0.258819045102521 0.965925826289068 0.0
outer loop
vertex 5.20226280656067 39.5151091084103 3.0
vertex 10.05 37.5071106160672 0.0
vertex 5.20226280656067 39.5151091084103 0.0
endloop
endfacet
facet normal 0.5 0.866025403784438 0.0
outer loop
vertex 10.05 37.5071106160672 0.0
vertex 5.20226280656067 39.5151091084103 3.0
vertex 10.05 37.5071106160672 3.0
endloop
endfacet
facet normal -0.258819045102521 -0.965925826289068 -4.02310551622129e-018
outer loop
vertex 2.09643426533042 27.9239991929414 12.0
vertex 0.0 28.2 0.0
vertex 2.09643426533042 27.9239991929414 0.0
endloop
endfacet
facet normal -1.23864427549492e-015 -1.0 -1.9168306300905e-032
outer loop
vertex 0.0 28.2 0.0
vertex 2.09643426533042 27.9239991929414 12.0
vertex 0.0 28.2 12.0
endloop
endfacet
facet normal 0.965925826289068 -0.258819045102522 0.0
outer loop
vertex -7.82399919294145 22.1964342653304 0.0
vertex -8.1 20.1 12.0
vertex -8.1 20.1 0.0
endloop
endfacet
facet normal 1.0 -4.9011104426058e-016 0.0
outer loop
vertex -8.1 20.1 12.0
vertex -7.82399919294145 22.1964342653304 0.0
vertex -7.82399919294145 22.1964342653304 12.0
endloop
endfacet
facet normal 2.91393293587654e-015 1.0 0.0
outer loop
vertex 5.63993296509579e-015 31.2 12.0
vertex 2.87289140063798 30.8217766718086 3.0
vertex 5.63993296509579e-015 31.2 3.0
endloop
endfacet
facet normal 0.258819045102523 0.965925826289068 0.0
outer loop
vertex 2.87289140063798 30.8217766718086 3.0
vertex 5.63993296509579e-015 31.2 12.0
vertex 2.87289140063798 30.8217766718086 12.0
endloop
endfacet
facet normal 1.11388873695586e-015 1.0 0.0
outer loop
vertex 1.97397653778353e-014 40.2 3.0
vertex 5.20226280656067 39.5151091084103 0.0
vertex 1.97397653778353e-014 40.2 0.0
endloop
endfacet
facet normal 0.258819045102521 0.965925826289068 0.0
outer loop
vertex 5.20226280656067 39.5151091084103 0.0
vertex 1.97397653778353e-014 40.2 3.0
vertex 5.20226280656067 39.5151091084103 3.0
endloop
endfacet
facet normal -1.23864427549492e-015 -1.0 -1.9168306300905e-032
outer loop
vertex 0.0 28.2 12.0
vertex -2.09643426533041 27.9239991929415 0.0
vertex 0.0 28.2 0.0
endloop
endfacet
facet normal 0.25881904510252 -0.965925826289069 4.02310551622127e-018
outer loop
vertex -2.09643426533041 27.9239991929415 0.0
vertex 0.0 28.2 12.0
vertex -2.09643426533042 27.9239991929415 12.0
endloop
endfacet
facet normal -0.25881904510252 0.965925826289069 0.0
outer loop
vertex -2.87289140063797 30.8217766718087 12.0
vertex 5.63993296509579e-015 31.2 3.0
vertex -2.87289140063797 30.8217766718087 3.0
endloop
endfacet
facet normal 2.91393293587654e-015 1.0 0.0
outer loop
vertex 5.63993296509579e-015 31.2 3.0
vertex -2.87289140063797 30.8217766718087 12.0
vertex 5.63993296509579e-015 31.2 12.0
endloop
endfacet
facet normal -0.25881904510252 0.965925826289068 0.0
outer loop
vertex -5.20226280656065 39.5151091084103 3.0
vertex 1.97397653778353e-014 40.2 0.0
vertex -5.20226280656065 39.5151091084103 0.0
endloop
endfacet
facet normal 1.11388873695586e-015 1.0 0.0
outer loop
vertex 1.97397653778353e-014 40.2 0.0
vertex -5.20226280656065 39.5151091084103 3.0
vertex 1.97397653778353e-014 40.2 3.0
endloop
endfacet
facet normal -0.965925826289068 -0.25881904510252 0.0
outer loop
vertex -10.7217766718087 17.227108599362 12.0
vertex -9.61288198200727 14.55 3.0
vertex -9.61288198200727 14.55 12.0
endloop
endfacet
facet normal -0.866025403784439 -0.499999999999999 0.0
outer loop
vertex -9.61288198200727 14.55 3.0
vertex -10.7217766718087 17.227108599362 12.0
vertex -10.7217766718087 17.227108599362 3.0
endloop
endfacet
facet normal -0.965925826289068 -0.25881904510252 0.0
outer loop
vertex -19.4151091084103 14.8977371934393 3.0
vertex -17.4071106160672 10.05 0.0
vertex -17.4071106160672 10.05 3.0
endloop
endfacet
facet normal -0.866025403784439 -0.499999999999999 0.0
outer loop
vertex -17.4071106160672 10.05 0.0
vertex -19.4151091084103 14.8977371934393 3.0
vertex -19.4151091084103 14.8977371934393 0.0
endloop
endfacet
facet normal 0.25881904510252 -0.965925826289069 4.02310551622128e-018
outer loop
vertex -2.09643426533042 27.9239991929415 12.0
vertex -4.05 27.114805770654 0.0
vertex -2.09643426533041 27.9239991929415 0.0
endloop
endfacet
facet normal 0.5 -0.866025403784439 2.99989663864746e-018
outer loop
vertex -4.05 27.114805770654 0.0
vertex -2.09643426533042 27.9239991929415 12.0
vertex -4.05 27.114805770654 12.0
endloop
endfacet
facet normal -0.500000000000001 0.866025403784438 0.0
outer loop
vertex -5.55 29.7128819820073 12.0
vertex -2.87289140063797 30.8217766718087 3.0
vertex -5.55 29.7128819820073 3.0
endloop
endfacet
facet normal -0.25881904510252 0.965925826289069 0.0
outer loop
vertex -2.87289140063797 30.8217766718087 3.0
vertex -5.55 29.7128819820073 12.0
vertex -2.87289140063797 30.8217766718087 12.0
endloop
endfacet
facet normal -0.500000000000001 0.866025403784438 0.0
outer loop
vertex -10.05 37.5071106160672 3.0
vertex -5.20226280656065 39.5151091084103 0.0
vertex -10.05 37.5071106160672 0.0
endloop
endfacet
facet normal -0.25881904510252 0.965925826289068 0.0
outer loop
vertex -5.20226280656065 39.5151091084103 0.0
vertex -10.05 37.5071106160672 3.0
vertex -5.20226280656065 39.5151091084103 3.0
endloop
endfacet
facet normal 0.5 -0.866025403784439 2.99989663864746e-018
outer loop
vertex -4.05 27.114805770654 12.0
vertex -5.72756492761103 25.827564927611 0.0
vertex -4.05 27.114805770654 0.0
endloop
endfacet
facet normal 0.707106781186548 -0.707106781186547 0.0
outer loop
vertex -5.72756492761103 25.827564927611 0.0
vertex -4.05 27.114805770654 12.0
vertex -5.72756492761103 25.827564927611 12.0
endloop
endfacet
facet normal -0.707106781186548 0.707106781186547 0.0
outer loop
vertex -7.84888527117067 27.9488852711707 12.0
vertex -5.55 29.7128819820073 3.0
vertex -7.84888527117067 27.9488852711707 3.0
endloop
endfacet
facet normal -0.500000000000001 0.866025403784438 0.0
outer loop
vertex -5.55 29.7128819820073 3.0
vertex -7.84888527117067 27.9488852711707 12.0
vertex -5.55 29.7128819820073 12.0
endloop
endfacet
facet normal -0.707106781186548 0.707106781186547 0.0
outer loop
vertex -14.2128463018496 34.3128463018496 3.0
vertex -10.05 37.5071106160672 0.0
vertex -14.2128463018496 34.3128463018496 0.0
endloop
endfacet
facet normal -0.500000000000001 0.866025403784438 0.0
outer loop
vertex -10.05 37.5071106160672 0.0
vertex -14.2128463018496 34.3128463018496 3.0
vertex -10.05 37.5071106160672 3.0
endloop
endfacet
facet normal 0.707106781186548 -0.707106781186547 0.0
outer loop
vertex -5.72756492761103 25.827564927611 0.0
vertex -7.01480577065395 24.15 12.0
vertex -7.01480577065395 24.15 0.0
endloop
endfacet
facet normal 0.866025403784438 -0.500000000000001 0.0
outer loop
vertex -7.01480577065395 24.15 12.0
vertex -5.72756492761103 25.827564927611 0.0
vertex -5.72756492761103 25.827564927611 12.0
endloop
endfacet
facet normal -0.707106781186548 0.707106781186547 0.0
outer loop
vertex -7.84888527117067 27.9488852711707 12.0
vertex -9.61288198200726 25.65 3.0
vertex -9.61288198200726 25.65 12.0
endloop
endfacet
facet normal -0.866025403784438 0.500000000000001 0.0
outer loop
vertex -9.61288198200726 25.65 3.0
vertex -7.84888527117067 27.9488852711707 12.0
vertex -7.84888527117067 27.9488852711707 3.0
endloop
endfacet
facet normal -0.707106781186548 0.707106781186547 0.0
outer loop
vertex -14.2128463018496 34.3128463018496 3.0
vertex -17.4071106160672 30.15 0.0
vertex -17.4071106160672 30.15 3.0
endloop
endfacet
facet normal -0.866025403784438 0.500000000000001 0.0
outer loop
vertex -17.4071106160672 30.15 0.0
vertex -14.2128463018496 34.3128463018496 3.0
vertex -14.2128463018496 34.3128463018496 0.0
endloop
endfacet
facet normal 0.866025403784438 -0.500000000000001 0.0
outer loop
vertex -7.01480577065395 24.15 0.0
vertex -7.82399919294145 22.1964342653304 12.0
vertex -7.82399919294145 22.1964342653304 0.0
endloop
endfacet
facet normal 0.965925826289068 -0.258819045102522 0.0
outer loop
vertex -7.82399919294145 22.1964342653304 12.0
vertex -7.01480577065395 24.15 0.0
vertex -7.01480577065395 24.15 12.0
endloop
endfacet
facet normal 1.07569880186857e-032 2.67076092785603e-048 1.0
outer loop
vertex -10.7217766718087 17.227108599362 12.0
vertex -10.7217766718087 22.972891400638 12.0
vertex -11.1 20.1 12.0
endloop
endfacet
facet normal 1.07569880186857e-032 2.67076092785603e-048 1.0
outer loop
vertex -10.7217766718087 22.972891400638 12.0
vertex -10.7217766718087 17.227108599362 12.0
vertex -9.61288198200727 14.55 12.0
endloop
endfacet
facet normal 1.07569880186857e-032 2.67076092785603e-048 1.0
outer loop
vertex -10.7217766718087 22.972891400638 12.0
vertex -9.61288198200727 14.55 12.0
vertex -9.61288198200726 25.65 12.0
endloop
endfacet
facet normal 1.07569880186857e-032 2.67076092785603e-048 1.0
outer loop
vertex -9.61288198200726 25.65 12.0
vertex -9.61288198200727 14.55 12.0
vertex -7.84888527117068 12.2511147288293 12.0
endloop
endfacet
facet normal 1.07569880186857e-032 2.67076092785603e-048 1.0
outer loop
vertex -9.61288198200726 25.65 12.0
vertex -7.84888527117068 12.2511147288293 12.0
vertex -8.1 20.1 12.0
endloop
endfacet
facet normal 1.07569880186857e-032 2.67076092785603e-048 1.0
outer loop
vertex -8.1 20.1 12.0
vertex -7.84888527117068 12.2511147288293 12.0
vertex -7.82399919294145 18.0035657346696 12.0
endloop
endfacet
facet normal 1.07569880186857e-032 2.67076092785603e-048 1.0
outer loop
vertex -7.82399919294145 18.0035657346696 12.0
vertex -7.84888527117068 12.2511147288293 12.0
vertex -5.55 10.4871180179927 12.0
endloop
endfacet
facet normal 1.07569880186857e-032 2.67076092785603e-048 1.0
outer loop
vertex -7.82399919294145 18.0035657346696 12.0
vertex -5.55 10.4871180179927 12.0
vertex -7.01480577065395 16.05 12.0
endloop
endfacet
facet normal 1.07569880186857e-032 2.67076092785603e-048 1.0
outer loop
vertex -7.01480577065395 16.05 12.0
vertex -5.55 10.4871180179927 12.0
vertex -5.72756492761103 14.372435072389 12.0
endloop
endfacet
facet normal 1.07569880186857e-032 2.67076092785603e-048 1.0
outer loop
vertex -5.72756492761103 14.372435072389 12.0
vertex -5.55 10.4871180179927 12.0
vertex -4.05 13.085194229346 12.0
endloop
endfacet
facet normal 1.07569880186857e-032 2.67076092785603e-048 1.0
outer loop
vertex -4.05 13.085194229346 12.0
vertex -5.55 10.4871180179927 12.0
vertex -2.87289140063799 9.37822332819135 12.0
endloop
endfacet
facet normal 1.07569880186857e-032 2.67076092785603e-048 1.0
outer loop
vertex -4.05 13.085194229346 12.0
vertex -2.87289140063799 9.37822332819135 12.0
vertex -2.09643426533042 12.2760008070585 12.0
endloop
endfacet
facet normal 1.07569880186857e-032 2.67076092785603e-048 1.0
outer loop
vertex -2.09643426533042 12.2760008070585 12.0
vertex -2.87289140063799 9.37822332819135 12.0
vertex -2.8199664825479e-015 9.0 12.0
endloop
endfacet
facet normal 1.07569880186857e-032 2.67076092785603e-048 1.0
outer loop
vertex -2.09643426533042 12.2760008070585 12.0
vertex -2.8199664825479e-015 9.0 12.0
vertex 0.0 12.0 12.0
endloop
endfacet
facet normal 1.07569880186857e-032 2.67076092785603e-048 1.0
outer loop
vertex 0.0 12.0 12.0
vertex -2.8199664825479e-015 9.0 12.0
vertex 2.87289140063798 9.37822332819134 12.0
endloop
endfacet
facet normal 1.07569880186857e-032 2.67076092785603e-048 1.0
outer loop
vertex 0.0 12.0 12.0
vertex 2.87289140063798 9.37822332819134 12.0
vertex 2.09643426533042 12.2760008070585 12.0
endloop
endfacet
facet normal 1.07569880186857e-032 2.67076092785603e-048 1.0
outer loop
vertex 2.09643426533042 12.2760008070585 12.0
vertex 2.87289140063798 9.37822332819134 12.0
vertex 4.05 13.085194229346 12.0
endloop
endfacet
facet normal 1.07569880186857e-032 2.67076092785603e-048 1.0
outer loop
vertex 4.05 13.085194229346 12.0
vertex 2.87289140063798 9.37822332819134 12.0
vertex 5.55 10.4871180179927 12.0
endloop
endfacet
facet normal 1.07569880186857e-032 2.67076092785603e-048 1.0
outer loop
vertex 4.05 13.085194229346 12.0
vertex 5.55 10.4871180179927 12.0
vertex 5.72756492761103 14.372435072389 12.0
endloop
endfacet
facet normal 1.07569880186857e-032 2.67076092785603e-048 1.0
outer loop
vertex 5.72756492761103 14.372435072389 12.0
vertex 5.55 10.4871180179927 12.0
vertex 7.84888527117067 12.2511147288293 12.0
endloop
endfacet
facet normal 1.07569880186857e-032 2.67076092785603e-048 1.0
outer loop
vertex 5.72756492761103 14.372435072389 12.0
vertex 7.84888527117067 12.2511147288293 12.0
vertex 7.01480577065395 16.05 12.0
endloop
endfacet
facet normal 1.07569880186857e-032 2.67076092785603e-048 1.0
outer loop
vertex 7.01480577065395 16.05 12.0
vertex 7.84888527117067 12.2511147288293 12.0
vertex 7.82399919294145 18.0035657346696 12.0
endloop
endfacet
facet normal 1.07569880186857e-032 2.67076092785603e-048 1.0
outer loop
vertex 7.82399919294145 18.0035657346696 12.0
vertex 7.84888527117067 12.2511147288293 12.0
vertex 8.09999999999999 20.1 12.0
endloop
endfacet
facet normal 1.07569880186857e-032 2.67076092785603e-048 1.0
outer loop
vertex 8.09999999999999 20.1 12.0
vertex 7.84888527117067 12.2511147288293 12.0
vertex 9.61288198200727 14.55 12.0
endloop
endfacet
facet normal 1.07569880186857e-032 2.67076092785603e-048 1.0
outer loop
vertex -8.1 20.1 12.0
vertex -7.84888527117067 27.9488852711707 12.0
vertex -9.61288198200726 25.65 12.0
endloop
endfacet
facet normal 1.07569880186857e-032 2.67076092785603e-048 1.0
outer loop
vertex -7.84888527117067 27.9488852711707 12.0
vertex -8.1 20.1 12.0
vertex -7.82399919294145 22.1964342653304 12.0
endloop
endfacet
facet normal 1.07569880186857e-032 2.67076092785603e-048 1.0
outer loop
vertex -7.84888527117067 27.9488852711707 12.0
vertex -7.82399919294145 22.1964342653304 12.0
vertex -5.55 29.7128819820073 12.0
endloop
endfacet
facet normal 1.07569880186857e-032 2.67076092785603e-048 1.0
outer loop
vertex -5.55 29.7128819820073 12.0
vertex -7.82399919294145 22.1964342653304 12.0
vertex -7.01480577065395 24.15 12.0
endloop
endfacet
facet normal 1.07569880186857e-032 2.67076092785603e-048 1.0
outer loop
vertex -5.55 29.7128819820073 12.0
vertex -7.01480577065395 24.15 12.0
vertex -5.72756492761103 25.827564927611 12.0
endloop
endfacet
facet normal 1.07569880186857e-032 2.67076092785603e-048 1.0
outer loop
vertex -5.55 29.7128819820073 12.0
vertex -5.72756492761103 25.827564927611 12.0
vertex -4.05 27.114805770654 12.0
endloop
endfacet
facet normal 1.07569880186857e-032 2.67076092785603e-048 1.0
outer loop
vertex -5.55 29.7128819820073 12.0
vertex -4.05 27.114805770654 12.0
vertex -2.87289140063797 30.8217766718087 12.0
endloop
endfacet
facet normal 1.07569880186857e-032 2.67076092785603e-048 1.0
outer loop
vertex -2.87289140063797 30.8217766718087 12.0
vertex -4.05 27.114805770654 12.0
vertex -2.09643426533042 27.9239991929415 12.0
endloop
endfacet
facet normal 1.07569880186857e-032 2.67076092785603e-048 1.0
outer loop
vertex -2.87289140063797 30.8217766718087 12.0
vertex -2.09643426533042 27.9239991929415 12.0
vertex 5.63993296509579e-015 31.2 12.0
endloop
endfacet
facet normal 1.07569880186857e-032 2.67076092785603e-048 1.0
outer loop
vertex 5.63993296509579e-015 31.2 12.0
vertex -2.09643426533042 27.9239991929415 12.0
vertex 0.0 28.2 12.0
endloop
endfacet
facet normal 1.07569880186857e-032 2.67076092785603e-048 1.0
outer loop
vertex 5.63993296509579e-015 31.2 12.0
vertex 0.0 28.2 12.0
vertex 2.09643426533042 27.9239991929414 12.0
endloop
endfacet
facet normal 1.07569880186857e-032 2.67076092785603e-048 1.0
outer loop
vertex 5.63993296509579e-015 31.2 12.0
vertex 2.09643426533042 27.9239991929414 12.0
vertex 2.87289140063798 30.8217766718086 12.0
endloop
endfacet
facet normal 1.07569880186857e-032 2.67076092785603e-048 1.0
outer loop
vertex 2.87289140063798 30.8217766718086 12.0
vertex 2.09643426533042 27.9239991929414 12.0
vertex 4.05 27.1148057706539 12.0
endloop
endfacet
facet normal 1.07569880186857e-032 2.67076092785603e-048 1.0
outer loop
vertex 2.87289140063798 30.8217766718086 12.0
vertex 4.05 27.1148057706539 12.0
vertex 5.55 29.7128819820073 12.0
endloop
endfacet
facet normal 1.07569880186857e-032 2.67076092785603e-048 1.0
outer loop
vertex 5.55 29.7128819820073 12.0
vertex 4.05 27.1148057706539 12.0
vertex 5.72756492761103 25.827564927611 12.0
endloop
endfacet
facet normal 1.07569880186857e-032 2.67076092785603e-048 1.0
outer loop
vertex 5.55 29.7128819820073 12.0
vertex 5.72756492761103 25.827564927611 12.0
vertex 7.84888527117067 27.9488852711707 12.0
endloop
endfacet
facet normal 1.07569880186857e-032 2.67076092785603e-048 1.0
outer loop
vertex 7.84888527117067 27.9488852711707 12.0
vertex 5.72756492761103 25.827564927611 12.0
vertex 7.01480577065395 24.15 12.0
endloop
endfacet
facet normal 1.07569880186857e-032 2.67076092785603e-048 1.0
outer loop
vertex 7.84888527117067 27.9488852711707 12.0
vertex 7.01480577065395 24.15 12.0
vertex 7.82399919294145 22.1964342653304 12.0
endloop
endfacet
facet normal 1.07569880186857e-032 2.67076092785603e-048 1.0
outer loop
vertex 7.84888527117067 27.9488852711707 12.0
vertex 7.82399919294145 22.1964342653304 12.0
vertex 8.09999999999999 20.1 12.0
endloop
endfacet
facet normal 1.07569880186857e-032 2.67076092785603e-048 1.0
outer loop
vertex 7.84888527117067 27.9488852711707 12.0
vertex 8.09999999999999 20.1 12.0
vertex 9.61288198200727 25.65 12.0
endloop
endfacet
facet normal 1.07569880186857e-032 2.67076092785603e-048 1.0
outer loop
vertex 9.61288198200727 25.65 12.0
vertex 8.09999999999999 20.1 12.0
vertex 9.61288198200727 14.55 12.0
endloop
endfacet
facet normal 1.07569880186857e-032 2.67076092785603e-048 1.0
outer loop
vertex 9.61288198200727 25.65 12.0
vertex 9.61288198200727 14.55 12.0
vertex 10.7217766718087 17.227108599362 12.0
endloop
endfacet
facet normal 1.07569880186857e-032 2.67076092785603e-048 1.0
outer loop
vertex 9.61288198200727 25.65 12.0
vertex 10.7217766718087 17.227108599362 12.0
vertex 10.7217766718087 22.972891400638 12.0
endloop
endfacet
facet normal 1.07569880186857e-032 2.67076092785603e-048 1.0
outer loop
vertex 10.7217766718087 22.972891400638 12.0
vertex 10.7217766718087 17.227108599362 12.0
vertex 11.1 20.1 12.0
endloop
endfacet
facet normal -0.866025403784438 0.500000000000001 0.0
outer loop
vertex -9.61288198200726 25.65 12.0
vertex -10.7217766718087 22.972891400638 3.0
vertex -10.7217766718087 22.972891400638 12.0
endloop
endfacet
facet normal -0.965925826289068 0.258819045102522 0.0
outer loop
vertex -10.7217766718087 22.972891400638 3.0
vertex -9.61288198200726 25.65 12.0
vertex -9.61288198200726 25.65 3.0
endloop
endfacet
facet normal -0.866025403784438 0.500000000000001 0.0
outer loop
vertex -17.4071106160672 30.15 3.0
vertex -19.4151091084103 25.3022628065607 0.0
vertex -19.4151091084103 25.3022628065607 3.0
endloop
endfacet
facet normal -0.965925826289068 0.258819045102521 0.0
outer loop
vertex -19.4151091084103 25.3022628065607 0.0
vertex -17.4071106160672 30.15 3.0
vertex -17.4071106160672 30.15 0.0
endloop
endfacet
facet normal -0.965925826289068 0.258819045102522 0.0
outer loop
vertex -10.7217766718087 22.972891400638 12.0
vertex -11.1 20.1 3.0
vertex -11.1 20.1 12.0
endloop
endfacet
facet normal -1.0 3.02977736451995e-016 0.0
outer loop
vertex -11.1 20.1 3.0
vertex -10.7217766718087 22.972891400638 12.0
vertex -10.7217766718087 22.972891400638 3.0
endloop
endfacet
facet normal -0.965925826289068 0.258819045102521 0.0
outer loop
vertex -19.4151091084103 25.3022628065607 3.0
vertex -20.1 20.1 0.0
vertex -20.1 20.1 3.0
endloop
endfacet
facet normal -1.0 4.27733274991051e-016 0.0
outer loop
vertex -20.1 20.1 0.0
vertex -19.4151091084103 25.3022628065607 3.0
vertex -19.4151091084103 25.3022628065607 0.0
endloop
endfacet
facet normal 1.0 -4.9011104426058e-016 0.0
outer loop
vertex -8.1 20.1 0.0
vertex -7.82399919294145 18.0035657346696 12.0
vertex -7.82399919294145 18.0035657346696 0.0
endloop
endfacet
facet normal 0.965925826289068 0.25881904510252 0.0
outer loop
vertex -7.82399919294145 18.0035657346696 12.0
vertex -8.1 20.1 0.0
vertex -8.1 20.1 12.0
endloop
endfacet
facet normal -1.0 3.02977736451995e-016 0.0
outer loop
vertex -11.1 20.1 12.0
vertex -10.7217766718087 17.227108599362 3.0
vertex -10.7217766718087 17.227108599362 12.0
endloop
endfacet
facet normal -0.965925826289068 -0.25881904510252 0.0
outer loop
vertex -10.7217766718087 17.227108599362 3.0
vertex -11.1 20.1 12.0
vertex -11.1 20.1 3.0
endloop
endfacet
facet normal -1.0 4.27733274991051e-016 0.0
outer loop
vertex -20.1 20.1 3.0
vertex -19.4151091084103 14.8977371934393 0.0
vertex -19.4151091084103 14.8977371934393 3.0
endloop
endfacet
facet normal -0.965925826289068 -0.25881904510252 0.0
outer loop
vertex -19.4151091084103 14.8977371934393 0.0
vertex -20.1 20.1 3.0
vertex -20.1 20.1 0.0
endloop
endfacet
facet normal 0.965925826289068 0.25881904510252 0.0
outer loop
vertex -7.82399919294145 18.0035657346696 0.0
vertex -7.01480577065395 16.05 12.0
vertex -7.01480577065395 16.05 0.0
endloop
endfacet
facet normal 0.866025403784439 0.499999999999999 0.0
outer loop
vertex -7.01480577065395 16.05 12.0
vertex -7.82399919294145 18.0035657346696 0.0
vertex -7.82399919294145 18.0035657346696 12.0
endloop
endfacet
facet normal 0.866025403784439 0.499999999999999 0.0
outer loop
vertex -7.01480577065395 16.05 0.0
vertex -5.72756492761103 14.372435072389 12.0
vertex -5.72756492761103 14.372435072389 0.0
endloop
endfacet
facet normal 0.707106781186548 0.707106781186547 0.0
outer loop
vertex -5.72756492761103 14.372435072389 12.0
vertex -7.01480577065395 16.05 0.0
vertex -7.01480577065395 16.05 12.0
endloop
endfacet
facet normal -0.866025403784439 -0.499999999999999 0.0
outer loop
vertex -9.61288198200727 14.55 12.0
vertex -7.84888527117068 12.2511147288293 3.0
vertex -7.84888527117068 12.2511147288293 12.0
endloop
endfacet
facet normal -0.707106781186548 -0.707106781186547 0.0
outer loop
vertex -7.84888527117068 12.2511147288293 3.0
vertex -9.61288198200727 14.55 12.0
vertex -9.61288198200727 14.55 3.0
endloop
endfacet
facet normal -0.866025403784439 -0.499999999999999 0.0
outer loop
vertex -17.4071106160672 10.05 3.0
vertex -14.2128463018496 5.88715369815041 0.0
vertex -14.2128463018496 5.88715369815041 3.0
endloop
endfacet
facet normal -0.707106781186548 -0.707106781186547 0.0
outer loop
vertex -14.2128463018496 5.88715369815041 0.0
vertex -17.4071106160672 10.05 3.0
vertex -17.4071106160672 10.05 0.0
endloop
endfacet
facet normal 0.707106781186548 0.707106781186547 0.0
outer loop
vertex -5.72756492761103 14.372435072389 12.0
vertex -4.05 13.085194229346 0.0
vertex -5.72756492761103 14.372435072389 0.0
endloop
endfacet
facet normal 0.5 0.866025403784439 0.0
outer loop
vertex -4.05 13.085194229346 0.0
vertex -5.72756492761103 14.372435072389 12.0
vertex -4.05 13.085194229346 12.0
endloop
endfacet
facet normal -0.5 -0.866025403784439 0.0
outer loop
vertex -5.55 10.4871180179927 12.0
vertex -7.84888527117068 12.2511147288293 3.0
vertex -5.55 10.4871180179927 3.0
endloop
endfacet
facet normal -0.707106781186548 -0.707106781186547 0.0
outer loop
vertex -7.84888527117068 12.2511147288293 3.0
vertex -5.55 10.4871180179927 12.0
vertex -7.84888527117068 12.2511147288293 12.0
endloop
endfacet
facet normal -0.5 -0.866025403784439 0.0
outer loop
vertex -10.05 2.6928893839328 3.0
vertex -14.2128463018496 5.88715369815041 0.0
vertex -10.05 2.6928893839328 0.0
endloop
endfacet
facet normal -0.707106781186548 -0.707106781186547 0.0
outer loop
vertex -14.2128463018496 5.88715369815041 0.0
vertex -10.05 2.6928893839328 3.0
vertex -14.2128463018496 5.88715369815041 3.0
endloop
endfacet
facet normal 0.5 0.866025403784439 0.0
outer loop
vertex -4.05 13.085194229346 12.0
vertex -2.09643426533042 12.2760008070585 0.0
vertex -4.05 13.085194229346 0.0
endloop
endfacet
facet normal 0.258819045102521 0.965925826289068 0.0
outer loop
vertex -2.09643426533042 12.2760008070585 0.0
vertex -4.05 13.085194229346 12.0
vertex -2.09643426533042 12.2760008070585 12.0
endloop
endfacet
facet normal -0.258819045102521 -0.965925826289068 0.0
outer loop
vertex -2.87289140063799 9.37822332819135 12.0
vertex -5.55 10.4871180179927 3.0
vertex -2.87289140063799 9.37822332819135 3.0
endloop
endfacet
facet normal -0.5 -0.866025403784439 0.0
outer loop
vertex -5.55 10.4871180179927 3.0
vertex -2.87289140063799 9.37822332819135 12.0
vertex -5.55 10.4871180179927 12.0
endloop
endfacet
facet normal -0.258819045102521 -0.965925826289068 0.0
outer loop
vertex -5.20226280656068 0.684890891589741 3.0
vertex -10.05 2.6928893839328 0.0
vertex -5.20226280656068 0.684890891589741 0.0
endloop
endfacet
facet normal -0.5 -0.866025403784439 0.0
outer loop
vertex -10.05 2.6928893839328 0.0
vertex -5.20226280656068 0.684890891589741 3.0
vertex -10.05 2.6928893839328 3.0
endloop
endfacet
facet normal 0.258819045102521 0.965925826289068 0.0
outer loop
vertex -2.09643426533042 12.2760008070585 12.0
vertex 0.0 12.0 0.0
vertex -2.09643426533042 12.2760008070585 0.0
endloop
endfacet
facet normal 4.63377714573639e-016 1.0 0.0
outer loop
vertex 0.0 12.0 0.0
vertex -2.09643426533042 12.2760008070585 12.0
vertex 0.0 12.0 12.0
endloop
endfacet
facet normal -4.00999945304111e-016 -1.0 0.0
outer loop
vertex -2.8199664825479e-015 9.0 12.0
vertex -2.87289140063799 9.37822332819135 3.0
vertex -2.8199664825479e-015 9.0 3.0
endloop
endfacet
facet normal -0.258819045102521 -0.965925826289068 0.0
outer loop
vertex -2.87289140063799 9.37822332819135 3.0
vertex -2.8199664825479e-015 9.0 12.0
vertex -2.87289140063799 9.37822332819135 12.0
endloop
endfacet
facet normal -4.63377714573639e-016 -1.0 0.0
outer loop
vertex -5.63993296509579e-015 -7.49053596926785e-016 3.0
vertex -5.20226280656068 0.684890891589741 0.0
vertex -5.63993296509579e-015 -7.49053596926785e-016 0.0
endloop
endfacet
facet normal -0.258819045102521 -0.965925826289068 0.0
outer loop
vertex -5.20226280656068 0.684890891589741 0.0
vertex -5.63993296509579e-015 -7.49053596926785e-016 3.0
vertex -5.20226280656068 0.684890891589741 3.0
endloop
endfacet
endsolid PulleyV5
