solid standiff-onewire-x1
facet normal 0.965925826289068 -0.258819045102521 0.0
outer loop
vertex 2.41481456572267 -0.647047612756302 0.0
vertex 2.1650635094611 -1.25 11.0
vertex 2.1650635094611 -1.25 0.0
endloop
endfacet
facet normal 0.866025403784439 -0.5 0.0
outer loop
vertex 2.1650635094611 -1.25 11.0
vertex 2.41481456572267 -0.647047612756302 0.0
vertex 2.41481456572267 -0.647047612756302 11.0
endloop
endfacet
facet normal 0.866025403784439 0.5 0.0
outer loop
vertex 2.1650635094611 1.25 0.0
vertex 2.41481456572267 0.647047612756301 11.0
vertex 2.41481456572267 0.647047612756301 0.0
endloop
endfacet
facet normal 0.965925826289068 0.258819045102521 0.0
outer loop
vertex 2.41481456572267 0.647047612756301 11.0
vertex 2.1650635094611 1.25 0.0
vertex 2.1650635094611 1.25 11.0
endloop
endfacet
facet normal 0.965925826289068 0.258819045102521 0.0
outer loop
vertex 2.41481456572267 0.647047612756301 0.0
vertex 2.5 0.0 11.0
vertex 2.5 0.0 0.0
endloop
endfacet
facet normal 1.0 6.23777692695283e-017 0.0
outer loop
vertex 2.5 0.0 11.0
vertex 2.41481456572267 0.647047612756301 0.0
vertex 2.41481456572267 0.647047612756301 11.0
endloop
endfacet
facet normal 1.0 6.23777692695283e-017 0.0
outer loop
vertex 2.5 0.0 0.0
vertex 2.41481456572267 -0.647047612756302 11.0
vertex 2.41481456572267 -0.647047612756302 0.0
endloop
endfacet
facet normal 0.965925826289068 -0.258819045102521 0.0
outer loop
vertex 2.41481456572267 -0.647047612756302 11.0
vertex 2.5 0.0 0.0
vertex 2.5 0.0 11.0
endloop
endfacet
facet normal -0.965925826289068 -0.258819045102521 0.0
outer loop
vertex 1.4488887394336 0.388228567653781 11.0
vertex 1.5 0.0 0.0
vertex 1.5 0.0 11.0
endloop
endfacet
facet normal -1.0 1.69311088017291e-016 0.0
outer loop
vertex 1.5 0.0 0.0
vertex 1.4488887394336 0.388228567653781 11.0
vertex 1.4488887394336 0.388228567653781 0.0
endloop
endfacet
facet normal 0.866025403784439 -0.5 0.0
outer loop
vertex 2.1650635094611 -1.25 0.0
vertex 1.76776695296637 -1.76776695296637 11.0
vertex 1.76776695296637 -1.76776695296637 0.0
endloop
endfacet
facet normal 0.707106781186547 -0.707106781186548 0.0
outer loop
vertex 1.76776695296637 -1.76776695296637 11.0
vertex 2.1650635094611 -1.25 0.0
vertex 2.1650635094611 -1.25 11.0
endloop
endfacet
facet normal -0.5 -0.866025403784439 0.0
outer loop
vertex 0.750000000000001 1.29903810567666 11.0
vertex 0.388228567653782 1.4488887394336 0.0
vertex 0.750000000000001 1.29903810567666 0.0
endloop
endfacet
facet normal -0.258819045102521 -0.965925826289068 0.0
outer loop
vertex 0.388228567653782 1.4488887394336 0.0
vertex 0.750000000000001 1.29903810567666 11.0
vertex 0.388228567653782 1.4488887394336 11.0
endloop
endfacet
facet normal -0.5 0.866025403784439 0.0
outer loop
vertex 0.75 -1.29903810567666 11.0
vertex 1.06066017177982 -1.06066017177982 0.0
vertex 0.75 -1.29903810567666 0.0
endloop
endfacet
facet normal -0.707106781186547 0.707106781186548 0.0
outer loop
vertex 1.06066017177982 -1.06066017177982 0.0
vertex 0.75 -1.29903810567666 11.0
vertex 1.06066017177982 -1.06066017177982 11.0
endloop
endfacet
facet normal 0.965925826289068 -0.258819045102521 0.0
outer loop
vertex -1.4488887394336 0.388228567653782 0.0
vertex -1.5 3.52495810318487e-016 11.0
vertex -1.5 3.52495810318487e-016 0.0
endloop
endfacet
facet normal 1.0 -2.22777747391173e-016 0.0
outer loop
vertex -1.5 3.52495810318487e-016 11.0
vertex -1.4488887394336 0.388228567653782 0.0
vertex -1.4488887394336 0.388228567653782 11.0
endloop
endfacet
facet normal 1.0 -2.22777747391173e-016 0.0
outer loop
vertex -1.5 3.52495810318487e-016 0.0
vertex -1.4488887394336 -0.38822856765378 11.0
vertex -1.4488887394336 -0.38822856765378 0.0
endloop
endfacet
facet normal 0.965925826289068 0.25881904510252 0.0
outer loop
vertex -1.4488887394336 -0.38822856765378 11.0
vertex -1.5 3.52495810318487e-016 0.0
vertex -1.5 3.52495810318487e-016 11.0
endloop
endfacet
facet normal -0.866025403784439 0.5 0.0
outer loop
vertex 1.29903810567666 -0.75 11.0
vertex 1.06066017177982 -1.06066017177982 0.0
vertex 1.06066017177982 -1.06066017177982 11.0
endloop
endfacet
facet normal -0.707106781186547 0.707106781186548 0.0
outer loop
vertex 1.06066017177982 -1.06066017177982 0.0
vertex 1.29903810567666 -0.75 11.0
vertex 1.29903810567666 -0.75 0.0
endloop
endfacet
facet normal -0.965925826289068 0.258819045102521 0.0
outer loop
vertex 1.4488887394336 -0.388228567653781 11.0
vertex 1.29903810567666 -0.75 0.0
vertex 1.29903810567666 -0.75 11.0
endloop
endfacet
facet normal -0.866025403784439 0.5 0.0
outer loop
vertex 1.29903810567666 -0.75 0.0
vertex 1.4488887394336 -0.388228567653781 11.0
vertex 1.4488887394336 -0.388228567653781 0.0
endloop
endfacet
facet normal -0.707106781186548 -0.707106781186547 0.0
outer loop
vertex 1.06066017177982 1.06066017177982 11.0
vertex 0.750000000000001 1.29903810567666 0.0
vertex 1.06066017177982 1.06066017177982 0.0
endloop
endfacet
facet normal -0.5 -0.866025403784439 0.0
outer loop
vertex 0.750000000000001 1.29903810567666 0.0
vertex 1.06066017177982 1.06066017177982 11.0
vertex 0.750000000000001 1.29903810567666 11.0
endloop
endfacet
facet normal -9.80222088521159e-017 -1.0 0.0
outer loop
vertex 3.52495810318487e-016 1.5 11.0
vertex -0.388228567653781 1.4488887394336 0.0
vertex 3.52495810318487e-016 1.5 0.0
endloop
endfacet
facet normal 0.258819045102521 -0.965925826289068 0.0
outer loop
vertex -0.388228567653781 1.4488887394336 0.0
vertex 3.52495810318487e-016 1.5 11.0
vertex -0.388228567653781 1.4488887394336 11.0
endloop
endfacet
facet normal 0.707106781186547 -0.707106781186548 0.0
outer loop
vertex -1.06066017177982 1.06066017177982 0.0
vertex -1.29903810567666 0.75 11.0
vertex -1.29903810567666 0.75 0.0
endloop
endfacet
facet normal 0.866025403784438 -0.500000000000001 0.0
outer loop
vertex -1.29903810567666 0.75 11.0
vertex -1.06066017177982 1.06066017177982 0.0
vertex -1.06066017177982 1.06066017177982 11.0
endloop
endfacet
facet normal 0.866025403784438 -0.500000000000001 0.0
outer loop
vertex -1.29903810567666 0.75 0.0
vertex -1.4488887394336 0.388228567653782 11.0
vertex -1.4488887394336 0.388228567653782 0.0
endloop
endfacet
facet normal 0.965925826289068 -0.258819045102521 0.0
outer loop
vertex -1.4488887394336 0.388228567653782 11.0
vertex -1.29903810567666 0.75 0.0
vertex -1.29903810567666 0.75 11.0
endloop
endfacet
facet normal -0.707106781186548 -0.707106781186547 0.0
outer loop
vertex 1.06066017177982 1.06066017177982 11.0
vertex 1.29903810567666 0.75 0.0
vertex 1.29903810567666 0.75 11.0
endloop
endfacet
facet normal -0.866025403784439 -0.5 0.0
outer loop
vertex 1.29903810567666 0.75 0.0
vertex 1.06066017177982 1.06066017177982 11.0
vertex 1.06066017177982 1.06066017177982 0.0
endloop
endfacet
facet normal 2.40599967182466e-016 1.0 0.0
outer loop
vertex 0.0 -1.5 11.0
vertex 0.388228567653781 -1.4488887394336 0.0
vertex 0.0 -1.5 0.0
endloop
endfacet
facet normal -0.258819045102521 0.965925826289068 0.0
outer loop
vertex 0.388228567653781 -1.4488887394336 0.0
vertex 0.0 -1.5 11.0
vertex 0.388228567653781 -1.4488887394336 11.0
endloop
endfacet
facet normal -0.258819045102521 -0.965925826289068 0.0
outer loop
vertex 0.388228567653782 1.4488887394336 11.0
vertex 3.52495810318487e-016 1.5 0.0
vertex 0.388228567653782 1.4488887394336 0.0
endloop
endfacet
facet normal -9.80222088521159e-017 -1.0 0.0
outer loop
vertex 3.52495810318487e-016 1.5 0.0
vertex 0.388228567653782 1.4488887394336 11.0
vertex 3.52495810318487e-016 1.5 11.0
endloop
endfacet
facet normal -0.258819045102521 0.965925826289068 0.0
outer loop
vertex 0.388228567653781 -1.4488887394336 11.0
vertex 0.75 -1.29903810567666 0.0
vertex 0.388228567653781 -1.4488887394336 0.0
endloop
endfacet
facet normal -0.5 0.866025403784439 0.0
outer loop
vertex 0.75 -1.29903810567666 0.0
vertex 0.388228567653781 -1.4488887394336 11.0
vertex 0.75 -1.29903810567666 11.0
endloop
endfacet
facet normal -1.0 1.69311088017291e-016 0.0
outer loop
vertex 1.5 0.0 11.0
vertex 1.4488887394336 -0.388228567653781 0.0
vertex 1.4488887394336 -0.388228567653781 11.0
endloop
endfacet
facet normal -0.965925826289068 0.258819045102521 0.0
outer loop
vertex 1.4488887394336 -0.388228567653781 0.0
vertex 1.5 0.0 11.0
vertex 1.5 0.0 0.0
endloop
endfacet
facet normal -0.866025403784439 -0.5 0.0
outer loop
vertex 1.29903810567666 0.75 11.0
vertex 1.4488887394336 0.388228567653781 0.0
vertex 1.4488887394336 0.388228567653781 11.0
endloop
endfacet
facet normal -0.965925826289068 -0.258819045102521 0.0
outer loop
vertex 1.4488887394336 0.388228567653781 0.0
vertex 1.29903810567666 0.75 11.0
vertex 1.29903810567666 0.75 0.0
endloop
endfacet
facet normal 0.258819045102521 -0.965925826289068 0.0
outer loop
vertex -0.388228567653781 1.4488887394336 11.0
vertex -0.75 1.29903810567666 0.0
vertex -0.388228567653781 1.4488887394336 0.0
endloop
endfacet
facet normal 0.5 -0.866025403784439 0.0
outer loop
vertex -0.75 1.29903810567666 0.0
vertex -0.388228567653781 1.4488887394336 11.0
vertex -0.75 1.29903810567666 11.0
endloop
endfacet
facet normal 0.5 -0.866025403784439 0.0
outer loop
vertex -0.75 1.29903810567666 11.0
vertex -1.06066017177982 1.06066017177982 0.0
vertex -0.75 1.29903810567666 0.0
endloop
endfacet
facet normal 0.707106781186547 -0.707106781186548 0.0
outer loop
vertex -1.06066017177982 1.06066017177982 0.0
vertex -0.75 1.29903810567666 11.0
vertex -1.06066017177982 1.06066017177982 11.0
endloop
endfacet
facet normal 0.965925826289068 0.25881904510252 0.0
outer loop
vertex -1.4488887394336 -0.38822856765378 0.0
vertex -1.29903810567666 -0.749999999999999 11.0
vertex -1.29903810567666 -0.749999999999999 0.0
endloop
endfacet
facet normal 0.866025403784439 0.5 0.0
outer loop
vertex -1.29903810567666 -0.749999999999999 11.0
vertex -1.4488887394336 -0.38822856765378 0.0
vertex -1.4488887394336 -0.38822856765378 11.0
endloop
endfacet
facet normal 0.866025403784439 0.5 0.0
outer loop
vertex -1.29903810567666 -0.749999999999999 0.0
vertex -1.06066017177982 -1.06066017177982 11.0
vertex -1.06066017177982 -1.06066017177982 0.0
endloop
endfacet
facet normal 0.707106781186548 0.707106781186547 0.0
outer loop
vertex -1.06066017177982 -1.06066017177982 11.0
vertex -1.29903810567666 -0.749999999999999 0.0
vertex -1.29903810567666 -0.749999999999999 11.0
endloop
endfacet
facet normal 0.707106781186548 0.707106781186547 0.0
outer loop
vertex -1.06066017177982 -1.06066017177982 11.0
vertex -0.750000000000001 -1.29903810567666 0.0
vertex -1.06066017177982 -1.06066017177982 0.0
endloop
endfacet
facet normal 0.5 0.866025403784439 0.0
outer loop
vertex -0.750000000000001 -1.29903810567666 0.0
vertex -1.06066017177982 -1.06066017177982 11.0
vertex -0.750000000000001 -1.29903810567666 11.0
endloop
endfacet
facet normal 0.5 0.866025403784439 0.0
outer loop
vertex -0.750000000000001 -1.29903810567666 11.0
vertex -0.388228567653782 -1.4488887394336 0.0
vertex -0.750000000000001 -1.29903810567666 0.0
endloop
endfacet
facet normal 0.258819045102521 0.965925826289068 0.0
outer loop
vertex -0.388228567653782 -1.4488887394336 0.0
vertex -0.750000000000001 -1.29903810567666 11.0
vertex -0.388228567653782 -1.4488887394336 11.0
endloop
endfacet
facet normal -0.5 -0.866025403784438 0.0
outer loop
vertex -1.25 -2.1650635094611 11.0
vertex -1.76776695296637 -1.76776695296637 0.0
vertex -1.25 -2.1650635094611 0.0
endloop
endfacet
facet normal -0.707106781186548 -0.707106781186547 0.0
outer loop
vertex -1.76776695296637 -1.76776695296637 0.0
vertex -1.25 -2.1650635094611 11.0
vertex -1.76776695296637 -1.76776695296637 11.0
endloop
endfacet
facet normal -0.707106781186547 0.707106781186548 0.0
outer loop
vertex -1.76776695296637 1.76776695296637 11.0
vertex -2.1650635094611 1.25 0.0
vertex -2.1650635094611 1.25 11.0
endloop
endfacet
facet normal -0.866025403784438 0.500000000000001 0.0
outer loop
vertex -2.1650635094611 1.25 0.0
vertex -1.76776695296637 1.76776695296637 11.0
vertex -1.76776695296637 1.76776695296637 0.0
endloop
endfacet
facet normal -0.707106781186547 0.707106781186548 0.0
outer loop
vertex -1.76776695296637 1.76776695296637 11.0
vertex -1.25 2.1650635094611 0.0
vertex -1.76776695296637 1.76776695296637 0.0
endloop
endfacet
facet normal -0.5 0.866025403784439 0.0
outer loop
vertex -1.25 2.1650635094611 0.0
vertex -1.76776695296637 1.76776695296637 11.0
vertex -1.25 2.1650635094611 11.0
endloop
endfacet
facet normal -0.866025403784438 0.500000000000001 0.0
outer loop
vertex -2.1650635094611 1.25 11.0
vertex -2.41481456572267 0.647047612756304 0.0
vertex -2.41481456572267 0.647047612756304 11.0
endloop
endfacet
facet normal -0.965925826289068 0.258819045102522 0.0
outer loop
vertex -2.41481456572267 0.647047612756304 0.0
vertex -2.1650635094611 1.25 11.0
vertex -2.1650635094611 1.25 0.0
endloop
endfacet
facet normal 1.51488868225997e-016 1.0 0.0
outer loop
vertex 3.52495810318487e-016 2.5 11.0
vertex 0.647047612756302 2.41481456572267 0.0
vertex 3.52495810318487e-016 2.5 0.0
endloop
endfacet
facet normal 0.258819045102521 0.965925826289068 0.0
outer loop
vertex 0.647047612756302 2.41481456572267 0.0
vertex 3.52495810318487e-016 2.5 11.0
vertex 0.647047612756302 2.41481456572267 11.0
endloop
endfacet
facet normal 0.258819045102521 0.965925826289068 0.0
outer loop
vertex 0.647047612756302 2.41481456572267 11.0
vertex 1.25 2.1650635094611 0.0
vertex 0.647047612756302 2.41481456572267 0.0
endloop
endfacet
facet normal 0.5 0.866025403784438 0.0
outer loop
vertex 1.25 2.1650635094611 0.0
vertex 0.647047612756302 2.41481456572267 11.0
vertex 1.25 2.1650635094611 11.0
endloop
endfacet
facet normal 0.5 0.866025403784438 0.0
outer loop
vertex 1.25 2.1650635094611 11.0
vertex 1.76776695296637 1.76776695296637 0.0
vertex 1.25 2.1650635094611 0.0
endloop
endfacet
facet normal 0.707106781186548 0.707106781186547 0.0
outer loop
vertex 1.76776695296637 1.76776695296637 0.0
vertex 1.25 2.1650635094611 11.0
vertex 1.76776695296637 1.76776695296637 11.0
endloop
endfacet
facet normal 0.5 -0.866025403784439 0.0
outer loop
vertex 1.25 -2.1650635094611 11.0
vertex 0.647047612756302 -2.41481456572267 0.0
vertex 1.25 -2.1650635094611 0.0
endloop
endfacet
facet normal 0.258819045102521 -0.965925826289068 0.0
outer loop
vertex 0.647047612756302 -2.41481456572267 0.0
vertex 1.25 -2.1650635094611 11.0
vertex 0.647047612756302 -2.41481456572267 11.0
endloop
endfacet
facet normal 0.707106781186547 -0.707106781186548 0.0
outer loop
vertex 1.76776695296637 -1.76776695296637 11.0
vertex 1.25 -2.1650635094611 0.0
vertex 1.76776695296637 -1.76776695296637 0.0
endloop
endfacet
facet normal 0.5 -0.866025403784439 0.0
outer loop
vertex 1.25 -2.1650635094611 0.0
vertex 1.76776695296637 -1.76776695296637 11.0
vertex 1.25 -2.1650635094611 11.0
endloop
endfacet
facet normal -1.0 3.20799956243289e-016 0.0
outer loop
vertex -2.5 3.52495810318487e-016 11.0
vertex -2.41481456572267 -0.647047612756301 0.0
vertex -2.41481456572267 -0.647047612756301 11.0
endloop
endfacet
facet normal -0.965925826289069 -0.25881904510252 0.0
outer loop
vertex -2.41481456572267 -0.647047612756301 0.0
vertex -2.5 3.52495810318487e-016 11.0
vertex -2.5 3.52495810318487e-016 0.0
endloop
endfacet
facet normal -0.965925826289068 0.258819045102522 0.0
outer loop
vertex -2.41481456572267 0.647047612756304 11.0
vertex -2.5 3.52495810318487e-016 0.0
vertex -2.5 3.52495810318487e-016 11.0
endloop
endfacet
facet normal -1.0 3.20799956243289e-016 0.0
outer loop
vertex -2.5 3.52495810318487e-016 0.0
vertex -2.41481456572267 0.647047612756304 11.0
vertex -2.41481456572267 0.647047612756304 0.0
endloop
endfacet
facet normal -0.965925826289069 -0.25881904510252 0.0
outer loop
vertex -2.41481456572267 -0.647047612756301 11.0
vertex -2.1650635094611 -1.25 0.0
vertex -2.1650635094611 -1.25 11.0
endloop
endfacet
facet normal -0.866025403784439 -0.5 0.0
outer loop
vertex -2.1650635094611 -1.25 0.0
vertex -2.41481456572267 -0.647047612756301 11.0
vertex -2.41481456572267 -0.647047612756301 0.0
endloop
endfacet
facet normal -0.25881904510252 0.965925826289068 0.0
outer loop
vertex -0.647047612756301 2.41481456572267 11.0
vertex 3.52495810318487e-016 2.5 0.0
vertex -0.647047612756301 2.41481456572267 0.0
endloop
endfacet
facet normal 1.51488868225997e-016 1.0 0.0
outer loop
vertex 3.52495810318487e-016 2.5 0.0
vertex -0.647047612756301 2.41481456572267 11.0
vertex 3.52495810318487e-016 2.5 11.0
endloop
endfacet
facet normal -0.866025403784439 -0.5 0.0
outer loop
vertex -2.1650635094611 -1.25 11.0
vertex -1.76776695296637 -1.76776695296637 0.0
vertex -1.76776695296637 -1.76776695296637 11.0
endloop
endfacet
facet normal -0.707106781186548 -0.707106781186547 0.0
outer loop
vertex -1.76776695296637 -1.76776695296637 0.0
vertex -2.1650635094611 -1.25 11.0
vertex -2.1650635094611 -1.25 0.0
endloop
endfacet
facet normal 0.707106781186548 0.707106781186547 0.0
outer loop
vertex 1.76776695296637 1.76776695296637 0.0
vertex 2.1650635094611 1.25 11.0
vertex 2.1650635094611 1.25 0.0
endloop
endfacet
facet normal 0.866025403784439 0.5 0.0
outer loop
vertex 2.1650635094611 1.25 11.0
vertex 1.76776695296637 1.76776695296637 0.0
vertex 1.76776695296637 1.76776695296637 11.0
endloop
endfacet
facet normal 0.258819045102521 -0.965925826289068 0.0
outer loop
vertex 0.647047612756302 -2.41481456572267 11.0
vertex 0.0 -2.5 0.0
vertex 0.647047612756302 -2.41481456572267 0.0
endloop
endfacet
facet normal -5.34666593738814e-017 -1.0 0.0
outer loop
vertex 0.0 -2.5 0.0
vertex 0.647047612756302 -2.41481456572267 11.0
vertex 0.0 -2.5 11.0
endloop
endfacet
facet normal -0.5 0.866025403784439 0.0
outer loop
vertex -1.25 2.1650635094611 11.0
vertex -0.647047612756301 2.41481456572267 0.0
vertex -1.25 2.1650635094611 0.0
endloop
endfacet
facet normal -0.25881904510252 0.965925826289068 0.0
outer loop
vertex -0.647047612756301 2.41481456572267 0.0
vertex -1.25 2.1650635094611 11.0
vertex -0.647047612756301 2.41481456572267 11.0
endloop
endfacet
facet normal -5.34666593738814e-017 -1.0 0.0
outer loop
vertex 0.0 -2.5 11.0
vertex -0.647047612756304 -2.41481456572267 0.0
vertex 0.0 -2.5 0.0
endloop
endfacet
facet normal -0.258819045102521 -0.965925826289068 0.0
outer loop
vertex -0.647047612756304 -2.41481456572267 0.0
vertex 0.0 -2.5 11.0
vertex -0.647047612756304 -2.41481456572267 11.0
endloop
endfacet
facet normal -0.258819045102521 -0.965925826289068 0.0
outer loop
vertex -0.647047612756304 -2.41481456572267 11.0
vertex -1.25 -2.1650635094611 0.0
vertex -0.647047612756304 -2.41481456572267 0.0
endloop
endfacet
facet normal -0.5 -0.866025403784438 0.0
outer loop
vertex -1.25 -2.1650635094611 0.0
vertex -0.647047612756304 -2.41481456572267 11.0
vertex -1.25 -2.1650635094611 11.0
endloop
endfacet
facet normal 0.258819045102521 0.965925826289068 0.0
outer loop
vertex -0.388228567653782 -1.4488887394336 11.0
vertex 0.0 -1.5 0.0
vertex -0.388228567653782 -1.4488887394336 0.0
endloop
endfacet
facet normal 2.40599967182466e-016 1.0 0.0
outer loop
vertex 0.0 -1.5 0.0
vertex -0.388228567653782 -1.4488887394336 11.0
vertex 0.0 -1.5 11.0
endloop
endfacet
facet normal 0.0 0.0 1.0
outer loop
vertex -2.41481456572267 -0.647047612756301 11.0
vertex -2.41481456572267 0.647047612756304 11.0
vertex -2.5 3.52495810318487e-016 11.0
endloop
endfacet
facet normal 0.0 0.0 1.0
outer loop
vertex -2.41481456572267 0.647047612756304 11.0
vertex -2.41481456572267 -0.647047612756301 11.0
vertex -2.1650635094611 -1.25 11.0
endloop
endfacet
facet normal 0.0 0.0 1.0
outer loop
vertex -2.41481456572267 0.647047612756304 11.0
vertex -2.1650635094611 -1.25 11.0
vertex -2.1650635094611 1.25 11.0
endloop
endfacet
facet normal 0.0 0.0 1.0
outer loop
vertex -2.1650635094611 1.25 11.0
vertex -2.1650635094611 -1.25 11.0
vertex -1.76776695296637 -1.76776695296637 11.0
endloop
endfacet
facet normal 0.0 0.0 1.0
outer loop
vertex -2.1650635094611 1.25 11.0
vertex -1.76776695296637 -1.76776695296637 11.0
vertex -1.76776695296637 1.76776695296637 11.0
endloop
endfacet
facet normal 0.0 0.0 1.0
outer loop
vertex -1.76776695296637 1.76776695296637 11.0
vertex -1.76776695296637 -1.76776695296637 11.0
vertex -1.25 -2.1650635094611 11.0
endloop
endfacet
facet normal 0.0 0.0 1.0
outer loop
vertex -1.76776695296637 1.76776695296637 11.0
vertex -1.25 -2.1650635094611 11.0
vertex -1.5 3.52495810318487e-016 11.0
endloop
endfacet
facet normal 0.0 0.0 1.0
outer loop
vertex -1.5 3.52495810318487e-016 11.0
vertex -1.25 -2.1650635094611 11.0
vertex -1.4488887394336 -0.38822856765378 11.0
endloop
endfacet
facet normal 0.0 0.0 1.0
outer loop
vertex -1.4488887394336 -0.38822856765378 11.0
vertex -1.25 -2.1650635094611 11.0
vertex -1.29903810567666 -0.749999999999999 11.0
endloop
endfacet
facet normal 0.0 0.0 1.0
outer loop
vertex -1.29903810567666 -0.749999999999999 11.0
vertex -1.25 -2.1650635094611 11.0
vertex -1.06066017177982 -1.06066017177982 11.0
endloop
endfacet
facet normal 0.0 0.0 1.0
outer loop
vertex -1.06066017177982 -1.06066017177982 11.0
vertex -1.25 -2.1650635094611 11.0
vertex -0.647047612756304 -2.41481456572267 11.0
endloop
endfacet
facet normal 0.0 0.0 1.0
outer loop
vertex -1.06066017177982 -1.06066017177982 11.0
vertex -0.647047612756304 -2.41481456572267 11.0
vertex -0.750000000000001 -1.29903810567666 11.0
endloop
endfacet
facet normal 0.0 0.0 1.0
outer loop
vertex -0.750000000000001 -1.29903810567666 11.0
vertex -0.647047612756304 -2.41481456572267 11.0
vertex -0.388228567653782 -1.4488887394336 11.0
endloop
endfacet
facet normal 0.0 0.0 1.0
outer loop
vertex -0.388228567653782 -1.4488887394336 11.0
vertex -0.647047612756304 -2.41481456572267 11.0
vertex 0.0 -2.5 11.0
endloop
endfacet
facet normal 0.0 0.0 1.0
outer loop
vertex -0.388228567653782 -1.4488887394336 11.0
vertex 0.0 -2.5 11.0
vertex 0.0 -1.5 11.0
endloop
endfacet
facet normal 0.0 0.0 1.0
outer loop
vertex 0.0 -1.5 11.0
vertex 0.0 -2.5 11.0
vertex 0.647047612756302 -2.41481456572267 11.0
endloop
endfacet
facet normal 0.0 0.0 1.0
outer loop
vertex 0.0 -1.5 11.0
vertex 0.647047612756302 -2.41481456572267 11.0
vertex 0.388228567653781 -1.4488887394336 11.0
endloop
endfacet
facet normal 0.0 0.0 1.0
outer loop
vertex 0.388228567653781 -1.4488887394336 11.0
vertex 0.647047612756302 -2.41481456572267 11.0
vertex 0.75 -1.29903810567666 11.0
endloop
endfacet
facet normal 0.0 0.0 1.0
outer loop
vertex 0.75 -1.29903810567666 11.0
vertex 0.647047612756302 -2.41481456572267 11.0
vertex 1.25 -2.1650635094611 11.0
endloop
endfacet
facet normal 0.0 0.0 1.0
outer loop
vertex 0.75 -1.29903810567666 11.0
vertex 1.25 -2.1650635094611 11.0
vertex 1.06066017177982 -1.06066017177982 11.0
endloop
endfacet
facet normal 0.0 0.0 1.0
outer loop
vertex 1.06066017177982 -1.06066017177982 11.0
vertex 1.25 -2.1650635094611 11.0
vertex 1.29903810567666 -0.75 11.0
endloop
endfacet
facet normal 0.0 0.0 1.0
outer loop
vertex 1.29903810567666 -0.75 11.0
vertex 1.25 -2.1650635094611 11.0
vertex 1.76776695296637 -1.76776695296637 11.0
endloop
endfacet
facet normal 0.0 0.0 1.0
outer loop
vertex 1.29903810567666 -0.75 11.0
vertex 1.76776695296637 -1.76776695296637 11.0
vertex 1.4488887394336 -0.388228567653781 11.0
endloop
endfacet
facet normal 0.0 0.0 1.0
outer loop
vertex 1.4488887394336 -0.388228567653781 11.0
vertex 1.76776695296637 -1.76776695296637 11.0
vertex 1.5 0.0 11.0
endloop
endfacet
facet normal 0.0 0.0 1.0
outer loop
vertex -1.5 3.52495810318487e-016 11.0
vertex -1.25 2.1650635094611 11.0
vertex -1.76776695296637 1.76776695296637 11.0
endloop
endfacet
facet normal 0.0 0.0 1.0
outer loop
vertex -1.25 2.1650635094611 11.0
vertex -1.5 3.52495810318487e-016 11.0
vertex -1.4488887394336 0.388228567653782 11.0
endloop
endfacet
facet normal 0.0 0.0 1.0
outer loop
vertex -1.25 2.1650635094611 11.0
vertex -1.4488887394336 0.388228567653782 11.0
vertex -1.29903810567666 0.75 11.0
endloop
endfacet
facet normal 0.0 0.0 1.0
outer loop
vertex -1.25 2.1650635094611 11.0
vertex -1.29903810567666 0.75 11.0
vertex -1.06066017177982 1.06066017177982 11.0
endloop
endfacet
facet normal 0.0 0.0 1.0
outer loop
vertex -1.25 2.1650635094611 11.0
vertex -1.06066017177982 1.06066017177982 11.0
vertex -0.647047612756301 2.41481456572267 11.0
endloop
endfacet
facet normal 0.0 0.0 1.0
outer loop
vertex -0.647047612756301 2.41481456572267 11.0
vertex -1.06066017177982 1.06066017177982 11.0
vertex -0.75 1.29903810567666 11.0
endloop
endfacet
facet normal 0.0 0.0 1.0
outer loop
vertex -0.647047612756301 2.41481456572267 11.0
vertex -0.75 1.29903810567666 11.0
vertex -0.388228567653781 1.4488887394336 11.0
endloop
endfacet
facet normal 0.0 0.0 1.0
outer loop
vertex -0.647047612756301 2.41481456572267 11.0
vertex -0.388228567653781 1.4488887394336 11.0
vertex 3.52495810318487e-016 2.5 11.0
endloop
endfacet
facet normal 0.0 0.0 1.0
outer loop
vertex 3.52495810318487e-016 2.5 11.0
vertex -0.388228567653781 1.4488887394336 11.0
vertex 3.52495810318487e-016 1.5 11.0
endloop
endfacet
facet normal 0.0 0.0 1.0
outer loop
vertex 3.52495810318487e-016 2.5 11.0
vertex 3.52495810318487e-016 1.5 11.0
vertex 0.388228567653782 1.4488887394336 11.0
endloop
endfacet
facet normal 0.0 0.0 1.0
outer loop
vertex 3.52495810318487e-016 2.5 11.0
vertex 0.388228567653782 1.4488887394336 11.0
vertex 0.647047612756302 2.41481456572267 11.0
endloop
endfacet
facet normal 0.0 0.0 1.0
outer loop
vertex 0.647047612756302 2.41481456572267 11.0
vertex 0.388228567653782 1.4488887394336 11.0
vertex 0.750000000000001 1.29903810567666 11.0
endloop
endfacet
facet normal 0.0 0.0 1.0
outer loop
vertex 0.647047612756302 2.41481456572267 11.0
vertex 0.750000000000001 1.29903810567666 11.0
vertex 1.25 2.1650635094611 11.0
endloop
endfacet
facet normal 0.0 0.0 1.0
outer loop
vertex 1.25 2.1650635094611 11.0
vertex 0.750000000000001 1.29903810567666 11.0
vertex 1.06066017177982 1.06066017177982 11.0
endloop
endfacet
facet normal 0.0 0.0 1.0
outer loop
vertex 1.25 2.1650635094611 11.0
vertex 1.06066017177982 1.06066017177982 11.0
vertex 1.29903810567666 0.75 11.0
endloop
endfacet
facet normal 0.0 0.0 1.0
outer loop
vertex 1.25 2.1650635094611 11.0
vertex 1.29903810567666 0.75 11.0
vertex 1.76776695296637 1.76776695296637 11.0
endloop
endfacet
facet normal 0.0 0.0 1.0
outer loop
vertex 1.76776695296637 1.76776695296637 11.0
vertex 1.29903810567666 0.75 11.0
vertex 1.4488887394336 0.388228567653781 11.0
endloop
endfacet
facet normal 0.0 0.0 1.0
outer loop
vertex 1.76776695296637 1.76776695296637 11.0
vertex 1.4488887394336 0.388228567653781 11.0
vertex 1.5 0.0 11.0
endloop
endfacet
facet normal 0.0 0.0 1.0
outer loop
vertex 1.76776695296637 1.76776695296637 11.0
vertex 1.5 0.0 11.0
vertex 1.76776695296637 -1.76776695296637 11.0
endloop
endfacet
facet normal 0.0 0.0 1.0
outer loop
vertex 1.76776695296637 1.76776695296637 11.0
vertex 1.76776695296637 -1.76776695296637 11.0
vertex 2.1650635094611 -1.25 11.0
endloop
endfacet
facet normal 0.0 0.0 1.0
outer loop
vertex 1.76776695296637 1.76776695296637 11.0
vertex 2.1650635094611 -1.25 11.0
vertex 2.1650635094611 1.25 11.0
endloop
endfacet
facet normal 0.0 0.0 1.0
outer loop
vertex 2.1650635094611 1.25 11.0
vertex 2.1650635094611 -1.25 11.0
vertex 2.41481456572267 -0.647047612756302 11.0
endloop
endfacet
facet normal 0.0 0.0 1.0
outer loop
vertex 2.1650635094611 1.25 11.0
vertex 2.41481456572267 -0.647047612756302 11.0
vertex 2.41481456572267 0.647047612756301 11.0
endloop
endfacet
facet normal 0.0 0.0 1.0
outer loop
vertex 2.41481456572267 0.647047612756301 11.0
vertex 2.41481456572267 -0.647047612756302 11.0
vertex 2.5 0.0 11.0
endloop
endfacet
facet normal 0.0 0.0 -1.0
outer loop
vertex -1.25 2.1650635094611 0.0
vertex -1.5 3.52495810318487e-016 0.0
vertex -1.76776695296637 1.76776695296637 0.0
endloop
endfacet
facet normal 0.0 0.0 -1.0
outer loop
vertex -1.5 3.52495810318487e-016 0.0
vertex -1.25 2.1650635094611 0.0
vertex -1.4488887394336 0.388228567653782 0.0
endloop
endfacet
facet normal 0.0 0.0 -1.0
outer loop
vertex -1.4488887394336 0.388228567653782 0.0
vertex -1.25 2.1650635094611 0.0
vertex -1.29903810567666 0.75 0.0
endloop
endfacet
facet normal 0.0 0.0 -1.0
outer loop
vertex -1.29903810567666 0.75 0.0
vertex -1.25 2.1650635094611 0.0
vertex -1.06066017177982 1.06066017177982 0.0
endloop
endfacet
facet normal 0.0 0.0 -1.0
outer loop
vertex -1.06066017177982 1.06066017177982 0.0
vertex -1.25 2.1650635094611 0.0
vertex -0.647047612756301 2.41481456572267 0.0
endloop
endfacet
facet normal 0.0 0.0 -1.0
outer loop
vertex -1.06066017177982 1.06066017177982 0.0
vertex -0.647047612756301 2.41481456572267 0.0
vertex -0.75 1.29903810567666 0.0
endloop
endfacet
facet normal 0.0 0.0 -1.0
outer loop
vertex -0.75 1.29903810567666 0.0
vertex -0.647047612756301 2.41481456572267 0.0
vertex -0.388228567653781 1.4488887394336 0.0
endloop
endfacet
facet normal 0.0 0.0 -1.0
outer loop
vertex -0.388228567653781 1.4488887394336 0.0
vertex -0.647047612756301 2.41481456572267 0.0
vertex 3.52495810318487e-016 2.5 0.0
endloop
endfacet
facet normal 0.0 0.0 -1.0
outer loop
vertex -0.388228567653781 1.4488887394336 0.0
vertex 3.52495810318487e-016 2.5 0.0
vertex 3.52495810318487e-016 1.5 0.0
endloop
endfacet
facet normal 0.0 0.0 -1.0
outer loop
vertex 3.52495810318487e-016 1.5 0.0
vertex 3.52495810318487e-016 2.5 0.0
vertex 0.647047612756302 2.41481456572267 0.0
endloop
endfacet
facet normal 0.0 0.0 -1.0
outer loop
vertex 3.52495810318487e-016 1.5 0.0
vertex 0.647047612756302 2.41481456572267 0.0
vertex 0.388228567653782 1.4488887394336 0.0
endloop
endfacet
facet normal 0.0 0.0 -1.0
outer loop
vertex 0.388228567653782 1.4488887394336 0.0
vertex 0.647047612756302 2.41481456572267 0.0
vertex 0.750000000000001 1.29903810567666 0.0
endloop
endfacet
facet normal 0.0 0.0 -1.0
outer loop
vertex 0.750000000000001 1.29903810567666 0.0
vertex 0.647047612756302 2.41481456572267 0.0
vertex 1.25 2.1650635094611 0.0
endloop
endfacet
facet normal 0.0 0.0 -1.0
outer loop
vertex 0.750000000000001 1.29903810567666 0.0
vertex 1.25 2.1650635094611 0.0
vertex 1.06066017177982 1.06066017177982 0.0
endloop
endfacet
facet normal 0.0 0.0 -1.0
outer loop
vertex 1.06066017177982 1.06066017177982 0.0
vertex 1.25 2.1650635094611 0.0
vertex 1.29903810567666 0.75 0.0
endloop
endfacet
facet normal 0.0 0.0 -1.0
outer loop
vertex 1.29903810567666 0.75 0.0
vertex 1.25 2.1650635094611 0.0
vertex 1.76776695296637 1.76776695296637 0.0
endloop
endfacet
facet normal 0.0 0.0 -1.0
outer loop
vertex 1.29903810567666 0.75 0.0
vertex 1.76776695296637 1.76776695296637 0.0
vertex 1.4488887394336 0.388228567653781 0.0
endloop
endfacet
facet normal 0.0 0.0 -1.0
outer loop
vertex 1.4488887394336 0.388228567653781 0.0
vertex 1.76776695296637 1.76776695296637 0.0
vertex 1.5 0.0 0.0
endloop
endfacet
facet normal 0.0 0.0 -1.0
outer loop
vertex 1.5 0.0 0.0
vertex 1.76776695296637 1.76776695296637 0.0
vertex 1.76776695296637 -1.76776695296637 0.0
endloop
endfacet
facet normal 0.0 0.0 -1.0
outer loop
vertex 1.76776695296637 -1.76776695296637 0.0
vertex 1.76776695296637 1.76776695296637 0.0
vertex 2.1650635094611 -1.25 0.0
endloop
endfacet
facet normal 0.0 0.0 -1.0
outer loop
vertex 2.1650635094611 -1.25 0.0
vertex 1.76776695296637 1.76776695296637 0.0
vertex 2.1650635094611 1.25 0.0
endloop
endfacet
facet normal 0.0 0.0 -1.0
outer loop
vertex 2.1650635094611 -1.25 0.0
vertex 2.1650635094611 1.25 0.0
vertex 2.41481456572267 0.647047612756301 0.0
endloop
endfacet
facet normal 0.0 0.0 -1.0
outer loop
vertex 2.1650635094611 -1.25 0.0
vertex 2.41481456572267 0.647047612756301 0.0
vertex 2.41481456572267 -0.647047612756302 0.0
endloop
endfacet
facet normal 0.0 0.0 -1.0
outer loop
vertex 2.41481456572267 -0.647047612756302 0.0
vertex 2.41481456572267 0.647047612756301 0.0
vertex 2.5 0.0 0.0
endloop
endfacet
facet normal 0.0 0.0 -1.0
outer loop
vertex -2.41481456572267 0.647047612756304 0.0
vertex -2.41481456572267 -0.647047612756301 0.0
vertex -2.5 3.52495810318487e-016 0.0
endloop
endfacet
facet normal 0.0 0.0 -1.0
outer loop
vertex -2.41481456572267 -0.647047612756301 0.0
vertex -2.41481456572267 0.647047612756304 0.0
vertex -2.1650635094611 -1.25 0.0
endloop
endfacet
facet normal 0.0 0.0 -1.0
outer loop
vertex -2.1650635094611 -1.25 0.0
vertex -2.41481456572267 0.647047612756304 0.0
vertex -2.1650635094611 1.25 0.0
endloop
endfacet
facet normal 0.0 0.0 -1.0
outer loop
vertex -2.1650635094611 -1.25 0.0
vertex -2.1650635094611 1.25 0.0
vertex -1.76776695296637 -1.76776695296637 0.0
endloop
endfacet
facet normal 0.0 0.0 -1.0
outer loop
vertex -1.76776695296637 -1.76776695296637 0.0
vertex -2.1650635094611 1.25 0.0
vertex -1.76776695296637 1.76776695296637 0.0
endloop
endfacet
facet normal 0.0 0.0 -1.0
outer loop
vertex -1.76776695296637 -1.76776695296637 0.0
vertex -1.76776695296637 1.76776695296637 0.0
vertex -1.25 -2.1650635094611 0.0
endloop
endfacet
facet normal 0.0 0.0 -1.0
outer loop
vertex -1.25 -2.1650635094611 0.0
vertex -1.76776695296637 1.76776695296637 0.0
vertex -1.5 3.52495810318487e-016 0.0
endloop
endfacet
facet normal 0.0 0.0 -1.0
outer loop
vertex -1.25 -2.1650635094611 0.0
vertex -1.5 3.52495810318487e-016 0.0
vertex -1.4488887394336 -0.38822856765378 0.0
endloop
endfacet
facet normal 0.0 0.0 -1.0
outer loop
vertex -1.25 -2.1650635094611 0.0
vertex -1.4488887394336 -0.38822856765378 0.0
vertex -1.29903810567666 -0.749999999999999 0.0
endloop
endfacet
facet normal 0.0 0.0 -1.0
outer loop
vertex -1.25 -2.1650635094611 0.0
vertex -1.29903810567666 -0.749999999999999 0.0
vertex -1.06066017177982 -1.06066017177982 0.0
endloop
endfacet
facet normal 0.0 0.0 -1.0
outer loop
vertex -1.25 -2.1650635094611 0.0
vertex -1.06066017177982 -1.06066017177982 0.0
vertex -0.647047612756304 -2.41481456572267 0.0
endloop
endfacet
facet normal 0.0 0.0 -1.0
outer loop
vertex -0.647047612756304 -2.41481456572267 0.0
vertex -1.06066017177982 -1.06066017177982 0.0
vertex -0.750000000000001 -1.29903810567666 0.0
endloop
endfacet
facet normal 0.0 0.0 -1.0
outer loop
vertex -0.647047612756304 -2.41481456572267 0.0
vertex -0.750000000000001 -1.29903810567666 0.0
vertex -0.388228567653782 -1.4488887394336 0.0
endloop
endfacet
facet normal 0.0 0.0 -1.0
outer loop
vertex -0.647047612756304 -2.41481456572267 0.0
vertex -0.388228567653782 -1.4488887394336 0.0
vertex 0.0 -2.5 0.0
endloop
endfacet
facet normal 0.0 0.0 -1.0
outer loop
vertex 0.0 -2.5 0.0
vertex -0.388228567653782 -1.4488887394336 0.0
vertex 0.0 -1.5 0.0
endloop
endfacet
facet normal 0.0 0.0 -1.0
outer loop
vertex 0.0 -2.5 0.0
vertex 0.0 -1.5 0.0
vertex 0.388228567653781 -1.4488887394336 0.0
endloop
endfacet
facet normal 0.0 0.0 -1.0
outer loop
vertex 0.0 -2.5 0.0
vertex 0.388228567653781 -1.4488887394336 0.0
vertex 0.647047612756302 -2.41481456572267 0.0
endloop
endfacet
facet normal 0.0 0.0 -1.0
outer loop
vertex 0.647047612756302 -2.41481456572267 0.0
vertex 0.388228567653781 -1.4488887394336 0.0
vertex 0.75 -1.29903810567666 0.0
endloop
endfacet
facet normal 0.0 0.0 -1.0
outer loop
vertex 0.647047612756302 -2.41481456572267 0.0
vertex 0.75 -1.29903810567666 0.0
vertex 1.25 -2.1650635094611 0.0
endloop
endfacet
facet normal 0.0 0.0 -1.0
outer loop
vertex 1.25 -2.1650635094611 0.0
vertex 0.75 -1.29903810567666 0.0
vertex 1.06066017177982 -1.06066017177982 0.0
endloop
endfacet
facet normal 0.0 0.0 -1.0
outer loop
vertex 1.25 -2.1650635094611 0.0
vertex 1.06066017177982 -1.06066017177982 0.0
vertex 1.29903810567666 -0.75 0.0
endloop
endfacet
facet normal 0.0 0.0 -1.0
outer loop
vertex 1.25 -2.1650635094611 0.0
vertex 1.29903810567666 -0.75 0.0
vertex 1.76776695296637 -1.76776695296637 0.0
endloop
endfacet
facet normal 0.0 0.0 -1.0
outer loop
vertex 1.76776695296637 -1.76776695296637 0.0
vertex 1.29903810567666 -0.75 0.0
vertex 1.4488887394336 -0.388228567653781 0.0
endloop
endfacet
facet normal 0.0 0.0 -1.0
outer loop
vertex 1.76776695296637 -1.76776695296637 0.0
vertex 1.4488887394336 -0.388228567653781 0.0
vertex 1.5 0.0 0.0
endloop
endfacet
endsolid standiff-onewire-x1
