solid 16mmBearing-5mmHole
facet normal -0.046924009724388 0.0469240097243881 0.997795707859465
outer loop
vertex -30.7158533424997 -23.697855156485 28.0
vertex -25.3148585593837 -17.7851414406163 27.9516562650854
vertex -30.9717128088761 -23.4419956901087 27.9516562650854
endloop
endfacet
facet normal -0.144170488931461 0.144170488931462 0.978994249340887
outer loop
vertex -25.3148585593837 -17.7851414406163 27.9516562650854
vertex -30.7158533424997 -23.697855156485 28.0
vertex -25.0589990930073 -18.0410009069927 28.0
endloop
endfacet
facet normal -0.242694657575176 0.242694657575176 0.939254282060474
outer loop
vertex -31.2451325961194 -23.1685759028653 27.8413717171573
vertex -25.8475588356392 -17.2524411643608 27.6763665728151
vertex -31.5044130851316 -22.9092954138532 27.6763665728151
endloop
endfacet
facet normal -0.336123867227508 0.336123867227508 0.879796278555467
outer loop
vertex -25.8475588356392 -17.2524411643608 27.6763665728151
vertex -31.2451325961194 -23.1685759028653 27.8413717171573
vertex -25.588278346627 -17.511721653373 27.8413717171573
endloop
endfacet
facet normal -0.692253472451572 0.692253472451575 0.203887860740841
outer loop
vertex -32.4927277517953 -21.9209807471895 25.800616304237
vertex -26.8700576850888 -16.2299423149112 25.4387763768261
vertex -32.5269119345812 -21.8867965644036 25.4387763768261
endloop
endfacet
facet normal -0.705548111266255 0.705548111266263 0.0663605709531636
outer loop
vertex -26.8700576850888 -16.2299423149112 25.4387763768261
vertex -32.4927277517953 -21.9209807471895 25.800616304237
vertex -26.8358735023028 -16.2641264976971 25.800616304237
endloop
endfacet
facet normal -0.144170488931461 0.144170488931461 0.978994249340887
outer loop
vertex -30.9717128088761 -23.4419956901087 27.9516562650854
vertex -25.588278346627 -17.511721653373 27.8413717171573
vertex -31.2451325961194 -23.1685759028653 27.8413717171573
endloop
endfacet
facet normal -0.242694657575175 0.242694657575176 0.939254282060474
outer loop
vertex -25.588278346627 -17.511721653373 27.8413717171573
vertex -30.9717128088761 -23.4419956901087 27.9516562650854
vertex -25.3148585593837 -17.7851414406163 27.9516562650854
endloop
endfacet
facet normal -0.707106781186548 -0.707106781186547 -7.31491354175391e-016
outer loop
vertex -8.00000000000003 -46.4137084989848 28.0
vertex -15.4883354397424 -38.9253730592424 18.3665809290522
vertex -8.0 -46.4137084989848 -7.51207407004408e-015
endloop
endfacet
facet normal -0.707106781186548 -0.707106781186547 -7.31491354175391e-016
outer loop
vertex -15.4883354397424 -38.9253730592424 18.3665809290522
vertex -8.00000000000003 -46.4137084989848 28.0
vertex -16.5307335187508 -37.8829749802339 20.8308785019529
endloop
endfacet
facet normal -0.707106781186548 -0.707106781186547 -7.31491354175391e-016
outer loop
vertex -16.5307335187508 -37.8829749802339 20.8308785019529
vertex -8.00000000000003 -46.4137084989848 28.0
vertex -17.9886105016222 -36.4250979973626 22.8296629935061
endloop
endfacet
facet normal -0.707106781186548 -0.707106781186547 -7.31491354175391e-016
outer loop
vertex -17.9886105016222 -36.4250979973626 22.8296629935061
vertex -8.00000000000003 -46.4137084989848 28.0
vertex -19.7626144812294 -34.6510940177554 24.2267205437598
endloop
endfacet
facet normal -0.707106781186548 -0.707106781186547 -7.31491354175391e-016
outer loop
vertex -19.7626144812294 -34.6510940177554 24.2267205437598
vertex -8.00000000000003 -46.4137084989848 28.0
vertex -21.7318500180425 -32.6818584809423 24.926843989411
endloop
endfacet
facet normal -0.707106781186548 -0.707106781186547 -7.31491354175391e-016
outer loop
vertex -21.7318500180425 -32.6818584809423 24.926843989411
vertex -8.00000000000003 -46.4137084989848 28.0
vertex -30.7158533424997 -23.697855156485 28.0
endloop
endfacet
facet normal -0.707106781186548 -0.707106781186547 -7.31491354175391e-016
outer loop
vertex -8.0 -46.4137084989848 -7.51207407004408e-015
vertex -15.4883354397424 -38.9253730592424 18.3665809290522
vertex -14.932453971037 -39.4812545279477 15.6047080819527
endloop
endfacet
facet normal -0.707106781186548 -0.707106781186547 -7.31491354175391e-016
outer loop
vertex -8.0 -46.4137084989848 -7.51207407004408e-015
vertex -14.932453971037 -39.4812545279477 15.6047080819527
vertex -14.9009715160895 -39.5127369828953 12.7334770309736
endloop
endfacet
facet normal -0.707106781186548 -0.707106781186547 -7.31491354175391e-016
outer loop
vertex -21.7318500180425 -32.6818584809423 24.926843989411
vertex -30.7158533424997 -23.697855156485 28.0
vertex -23.7621169645432 -30.6515915344416 24.8823210746474
endloop
endfacet
facet normal -0.707106781186548 -0.707106781186547 -7.31491354175391e-016
outer loop
vertex -23.7621169645432 -30.6515915344416 24.8823210746474
vertex -30.7158533424997 -23.697855156485 28.0
vertex -25.7150559835022 -28.6986525154826 24.0961859625324
endloop
endfacet
facet normal -0.707106781186548 -0.707106781186547 -7.31491354175391e-016
outer loop
vertex -25.7150559835022 -28.6986525154826 24.0961859625324
vertex -30.7158533424997 -23.697855156485 28.0
vertex -27.4575775081619 -26.9561309908229 22.6220124618071
endloop
endfacet
facet normal -0.707106781186548 -0.707106781186547 -7.31491354175391e-016
outer loop
vertex -27.4575775081619 -26.9561309908229 22.6220124618071
vertex -30.7158533424997 -23.697855156485 28.0
vertex -28.8709315762696 -25.5427769227152 20.5602630603588
endloop
endfacet
facet normal -0.707106781186548 -0.707106781186547 -7.31491354175391e-016
outer loop
vertex -28.8709315762696 -25.5427769227152 20.5602630603588
vertex -30.7158533424997 -23.697855156485 28.0
vertex -29.8588004437618 -24.5549080552229 18.0514425726944
endloop
endfacet
facet normal -0.707106781186548 -0.707106781186547 -7.31491354175391e-016
outer loop
vertex -29.8588004437618 -24.5549080552229 18.0514425726944
vertex -30.7158533424997 -23.697855156485 28.0
vertex -30.3538624798495 -24.0598460191352 15.2665229690263
endloop
endfacet
facet normal -0.707106781186548 -0.707106781186547 -7.31491354175391e-016
outer loop
vertex -30.3538624798495 -24.0598460191352 15.2665229690263
vertex -30.7158533424997 -23.697855156485 28.0
vertex -30.4055915910215 -24.0081169079632 -3.10196313080269e-014
endloop
endfacet
facet normal -0.707106781186548 -0.707106781186547 -7.31491354175391e-016
outer loop
vertex -30.4055915910215 -24.0081169079632 -3.10196313080269e-014
vertex -30.7158533424997 -23.697855156485 28.0
vertex -30.6824794579453 -23.7312290410394 0.0256654158785376
endloop
endfacet
facet normal -0.707106781186548 -0.707106781186547 -7.31491354175391e-016
outer loop
vertex -30.6824794579453 -23.7312290410394 0.0256654158785376
vertex -30.7158533424997 -23.697855156485 28.0
vertex -30.9546296966982 -23.4590788022865 0.102222521132763
endloop
endfacet
facet normal -0.707106781186548 -0.707106781186547 -7.31491354175391e-016
outer loop
vertex -30.9546296966982 -23.4590788022865 0.102222521132763
vertex -30.7158533424997 -23.697855156485 28.0
vertex -30.9717128088761 -23.4419956901087 27.9516562650854
endloop
endfacet
facet normal -0.707106781186548 -0.707106781186547 -7.31491354175391e-016
outer loop
vertex -30.9546296966982 -23.4590788022865 0.102222521132763
vertex -30.9717128088761 -23.4419956901087 27.9516562650854
vertex -31.2173857412408 -23.1963227577439 0.228361402466108
endloop
endfacet
facet normal -0.707106781186548 -0.707106781186547 -7.31491354175391e-016
outer loop
vertex -31.2173857412408 -23.1963227577439 0.228361402466108
vertex -30.9717128088761 -23.4419956901087 27.9516562650854
vertex -31.2451325961194 -23.1685759028653 27.8413717171573
endloop
endfacet
facet normal -0.707106781186548 -0.707106781186547 -7.31491354175391e-016
outer loop
vertex -31.2173857412408 -23.1963227577439 0.228361402466108
vertex -31.2451325961194 -23.1685759028653 27.8413717171573
vertex -31.4662517628013 -22.9474567361834 0.401923788646651
endloop
endfacet
facet normal -0.707106781186548 -0.707106781186547 -7.31491354175391e-016
outer loop
vertex -31.4662517628013 -22.9474567361834 0.401923788646651
vertex -31.2451325961194 -23.1685759028653 27.8413717171573
vertex -31.5044130851316 -22.9092954138532 27.6763665728151
endloop
endfacet
facet normal -0.707106781186548 -0.707106781186547 -7.31491354175391e-016
outer loop
vertex -31.4662517628013 -22.9474567361834 0.401923788646651
vertex -31.5044130851316 -22.9092954138532 27.6763665728151
vertex -31.6969695947522 -22.7167389042326 0.619939979126261
endloop
endfacet
facet normal -0.707106781186548 -0.707106781186547 -7.31491354175391e-016
outer loop
vertex -31.6969695947522 -22.7167389042326 0.619939979126261
vertex -31.5044130851316 -22.9092954138532 27.6763665728151
vertex -31.7441111257748 -22.6695973732099 27.4601048326766
endloop
endfacet
facet normal -0.707106781186548 -0.707106781186547 -7.31491354175391e-016
outer loop
vertex -31.6969695947522 -22.7167389042326 0.619939979126261
vertex -31.7441111257748 -22.6695973732099 27.4601048326766
vertex -31.9055915910215 -22.5081169079632 0.878679656440324
endloop
endfacet
facet normal -0.707106781186548 -0.707106781186547 -7.31491354175391e-016
outer loop
vertex -31.9055915910215 -22.5081169079632 0.878679656440324
vertex -31.7441111257748 -22.6695973732099 27.4601048326766
vertex -31.9591946679019 -22.4545138310828 27.1971265418688
endloop
endfacet
facet normal -0.707106781186548 -0.707106781186547 -7.31491354175391e-016
outer loop
vertex -31.9055915910215 -22.5081169079632 0.878679656440324
vertex -31.9591946679019 -22.4545138310828 27.1971265418688
vertex -32.0885481714123 -22.3251603275724 1.1737157129738
endloop
endfacet
facet normal -0.707106781186548 -0.707106781186547 -7.31491354175391e-016
outer loop
vertex -32.0885481714123 -22.3251603275724 1.1737157129738
vertex -31.9591946679019 -22.4545138310828 27.1971265418688
vertex -32.145148400637 -22.2685600983477 26.8929524795493
endloop
endfacet
facet normal -0.707106781186548 -0.707106781186547 -7.31491354175391e-016
outer loop
vertex -32.0885481714123 -22.3251603275724 1.1737157129738
vertex -32.145148400637 -22.2685600983477 26.8929524795493
vertex -32.2427088981089 -22.1709996008758 1.49999999999997
endloop
endfacet
facet normal -0.707106781186548 -0.707106781186547 -7.31491354175391e-016
outer loop
vertex -32.2427088981089 -22.1709996008758 1.49999999999997
vertex -32.145148400637 -22.2685600983477 26.8929524795493
vertex -32.2980685436001 -22.1156399553846 26.5539682595974
endloop
endfacet
facet normal -0.707106781186548 -0.707106781186547 -7.31491354175391e-016
outer loop
vertex -32.2427088981089 -22.1709996008758 1.49999999999997
vertex -32.2980685436001 -22.1156399553846 26.5539682595974
vertex -32.3654360383361 -22.0482724606486 1.8519497029047
endloop
endfacet
facet normal -0.707106781186548 -0.707106781186547 -7.31491354175391e-016
outer loop
vertex -32.3654360383361 -22.0482724606486 1.8519497029047
vertex -32.2980685436001 -22.1156399553846 26.5539682595974
vertex -32.4147448000952 -21.9989636988896 26.1872902755777
endloop
endfacet
facet normal -0.707106781186548 -0.707106781186547 -7.31491354175391e-016
outer loop
vertex -32.3654360383361 -22.0482724606486 1.8519497029047
vertex -32.4147448000952 -21.9989636988896 26.1872902755777
vertex -32.4546296966982 -21.9590788022865 2.2235428646924
endloop
endfacet
facet normal -0.707106781186548 -0.707106781186547 -7.31491354175391e-016
outer loop
vertex -32.4546296966982 -21.9590788022865 2.2235428646924
vertex -32.4147448000952 -21.9989636988896 26.1872902755777
vertex -32.4927277517953 -21.9209807471895 25.800616304237
endloop
endfacet
facet normal -0.707106781186548 -0.707106781186547 -7.31491354175391e-016
outer loop
vertex -32.4546296966982 -21.9590788022865 2.2235428646924
vertex -32.4927277517953 -21.9209807471895 25.800616304237
vertex -32.5087637449715 -21.9049447540133 2.60842142333981
endloop
endfacet
facet normal -0.707106781186548 -0.707106781186547 -7.31491354175391e-016
outer loop
vertex -32.5087637449715 -21.9049447540133 2.60842142333981
vertex -32.4927277517953 -21.9209807471895 25.800616304237
vertex -32.5269119345812 -21.8867965644036 25.4387763768261
endloop
endfacet
facet normal -0.707106781186548 -0.707106781186547 -7.31491354175391e-016
outer loop
vertex -32.5087637449715 -21.9049447540133 2.60842142333981
vertex -32.5269119345812 -21.8867965644036 25.4387763768261
vertex -32.5269119345812 -21.8867965644036 2.99999999999997
endloop
endfacet
facet normal -0.707106781186548 -0.707106781186547 -7.31491354175391e-016
outer loop
vertex -8.0 -46.4137084989848 -7.51207407004408e-015
vertex -21.4927170313959 -32.9209914675888 3.11767892535255
vertex -30.4055915910215 -24.0081169079632 -3.10196313080269e-014
endloop
endfacet
facet normal -0.707106781186548 -0.707106781186547 -7.31491354175391e-016
outer loop
vertex -21.4927170313959 -32.9209914675888 3.11767892535255
vertex -8.0 -46.4137084989848 -7.51207407004408e-015
vertex -19.5397780124368 -34.8739304865479 3.90381403746751
endloop
endfacet
facet normal -0.707106781186548 -0.707106781186547 -7.31491354175391e-016
outer loop
vertex -19.5397780124368 -34.8739304865479 3.90381403746751
vertex -8.0 -46.4137084989848 -7.51207407004408e-015
vertex -17.7972564877772 -36.6164520112076 5.37798753819288
endloop
endfacet
facet normal -0.707106781186548 -0.707106781186547 -7.31491354175391e-016
outer loop
vertex -17.7972564877772 -36.6164520112076 5.37798753819288
vertex -8.0 -46.4137084989848 -7.51207407004408e-015
vertex -16.3839024196694 -38.0298060793153 7.43973693964112
endloop
endfacet
facet normal -0.707106781186548 -0.707106781186547 -7.31491354175391e-016
outer loop
vertex -16.3839024196694 -38.0298060793153 7.43973693964112
vertex -8.0 -46.4137084989848 -7.51207407004408e-015
vertex -15.3960335521772 -39.0176749468076 9.94855742730551
endloop
endfacet
facet normal -0.707106781186548 -0.707106781186547 -7.31491354175391e-016
outer loop
vertex -15.3960335521772 -39.0176749468076 9.94855742730551
vertex -8.0 -46.4137084989848 -7.51207407004408e-015
vertex -14.9009715160895 -39.5127369828953 12.7334770309736
endloop
endfacet
facet normal -0.707106781186548 -0.707106781186547 -7.31491354175391e-016
outer loop
vertex -30.4055915910215 -24.0081169079632 -3.10196313080269e-014
vertex -21.4927170313959 -32.9209914675888 3.11767892535255
vertex -23.5229839778966 -30.8907245210882 3.07315601058892
endloop
endfacet
facet normal -0.707106781186548 -0.707106781186547 -7.31491354175391e-016
outer loop
vertex -30.4055915910215 -24.0081169079632 -3.10196313080269e-014
vertex -23.5229839778966 -30.8907245210882 3.07315601058892
vertex -25.4922195147097 -28.9214889842751 3.77327945624017
endloop
endfacet
facet normal -0.707106781186548 -0.707106781186547 -7.31491354175391e-016
outer loop
vertex -30.4055915910215 -24.0081169079632 -3.10196313080269e-014
vertex -25.4922195147097 -28.9214889842751 3.77327945624017
vertex -27.2662234943169 -27.1474850046679 5.17033700649388
endloop
endfacet
facet normal -0.707106781186548 -0.707106781186547 -7.31491354175391e-016
outer loop
vertex -30.4055915910215 -24.0081169079632 -3.10196313080269e-014
vertex -27.2662234943169 -27.1474850046679 5.17033700649388
vertex -28.7241004771882 -25.6896080217965 7.16912149804702
endloop
endfacet
facet normal -0.707106781186548 -0.707106781186547 -7.31491354175391e-016
outer loop
vertex -30.4055915910215 -24.0081169079632 -3.10196313080269e-014
vertex -28.7241004771882 -25.6896080217965 7.16912149804702
vertex -29.7664985561966 -24.6472099427881 9.63341907094777
endloop
endfacet
facet normal -0.707106781186548 -0.707106781186547 -7.31491354175391e-016
outer loop
vertex -30.4055915910215 -24.0081169079632 -3.10196313080269e-014
vertex -29.7664985561966 -24.6472099427881 9.63341907094777
vertex -30.322380024902 -24.0913284740827 12.3952919180473
endloop
endfacet
facet normal -0.707106781186548 -0.707106781186547 -7.31491354175391e-016
outer loop
vertex -30.4055915910215 -24.0081169079632 -3.10196313080269e-014
vertex -30.322380024902 -24.0913284740827 12.3952919180473
vertex -30.3538624798495 -24.0598460191352 15.2665229690263
endloop
endfacet
facet normal -0.336123867227508 0.336123867227508 0.879796278555467
outer loop
vertex -31.5044130851316 -22.9092954138532 27.6763665728151
vertex -26.0872568762824 -17.0127431237176 27.4601048326766
vertex -31.7441111257748 -22.6695973732099 27.4601048326766
endloop
endfacet
facet normal -0.4224967315253 0.422496731525301 0.801868457853828
outer loop
vertex -26.0872568762824 -17.0127431237176 27.4601048326766
vertex -31.5044130851316 -22.9092954138532 27.6763665728151
vertex -25.8475588356392 -17.2524411643608 27.6763665728151
endloop
endfacet
facet normal -0.622109914629261 0.622109914629262 0.475350931670429
outer loop
vertex -32.2980685436001 -22.1156399553846 26.5539682595974
vertex -26.7578905506028 -16.3421094493972 26.1872902755777
vertex -32.4147448000952 -21.9989636988896 26.1872902755777
endloop
endfacet
facet normal -0.664153072103462 0.664153072103463 0.34322207625831
outer loop
vertex -26.7578905506028 -16.3421094493972 26.1872902755777
vertex -32.2980685436001 -22.1156399553846 26.5539682595974
vertex -26.6412142941077 -16.4587857058923 26.5539682595974
endloop
endfacet
facet normal -0.664153072103462 0.664153072103463 0.34322207625831
outer loop
vertex -32.4147448000952 -21.9989636988896 26.1872902755777
vertex -26.8358735023028 -16.2641264976971 25.800616304237
vertex -32.4927277517953 -21.9209807471895 25.800616304237
endloop
endfacet
facet normal -0.692253472451572 0.692253472451575 0.203887860740841
outer loop
vertex -26.8358735023028 -16.2641264976971 25.800616304237
vertex -32.4147448000952 -21.9989636988896 26.1872902755777
vertex -26.7578905506028 -16.3421094493972 26.1872902755777
endloop
endfacet
facet normal -1.01877343780489e-015 -0.258819045102521 0.965925826289068
outer loop
vertex -1.12798659301916e-014 -60.4270704827334 11.4885928516484
vertex -8.00000000000001 -59.8 11.7483339501605
vertex -8.00000000000001 -60.4270704827334 11.4885928516484
endloop
endfacet
facet normal -9.13407276032193e-016 -0.500000000000001 0.866025403784438
outer loop
vertex -8.00000000000001 -59.8 11.7483339501605
vertex -1.12798659301916e-014 -60.4270704827334 11.4885928516484
vertex -1.12798659301916e-014 -59.8 11.7483339501605
endloop
endfacet
facet normal 0.280694453230244 -0.280694453230243 -0.917835087502951
outer loop
vertex -20.0582017340098 -23.0417982659902 24.0961859625324
vertex -23.7621169645432 -30.6515915344416 24.8823210746474
vertex -25.7150559835022 -28.6986525154826 24.0961859625324
endloop
endfacet
facet normal 0.103154542415784 -0.103154542415783 -0.989301915877039
outer loop
vertex -23.7621169645432 -30.6515915344416 24.8823210746474
vertex -20.0582017340098 -23.0417982659902 24.0961859625324
vertex -18.1052627150508 -24.9947372849492 24.8823210746474
endloop
endfacet
facet normal -0.0814151799933692 0.0814151799933703 -0.993349453582824
outer loop
vertex -16.0749957685501 -27.0250042314499 24.926843989411
vertex -19.7626144812294 -34.6510940177554 24.2267205437598
vertex -21.7318500180425 -32.6818584809423 24.926843989411
endloop
endfacet
facet normal -0.26043659243092 0.260436592430921 -0.929701867614528
outer loop
vertex -19.7626144812294 -34.6510940177554 24.2267205437598
vertex -16.0749957685501 -27.0250042314499 24.926843989411
vertex -14.105760231737 -28.994239768263 24.2267205437598
endloop
endfacet
facet normal -0.422496731525301 0.422496731525302 0.801868457853827
outer loop
vertex -31.7441111257748 -22.6695973732099 27.4601048326766
vertex -26.3023404184095 -16.7976595815905 27.1971265418688
vertex -31.9591946679019 -22.4545138310828 27.1971265418688
endloop
endfacet
facet normal -0.499999999999997 0.499999999999998 0.707106781186551
outer loop
vertex -26.3023404184095 -16.7976595815905 27.1971265418688
vertex -31.7441111257748 -22.6695973732099 27.4601048326766
vertex -26.0872568762824 -17.0127431237176 27.4601048326766
endloop
endfacet
facet normal 1.01877343780489e-015 0.25881904510252 -0.965925826289069
outer loop
vertex -1.69197988952874e-014 -61.7729295172665 16.5114071483516
vertex -8.00000000000002 -62.4 16.2516660498395
vertex -8.00000000000002 -61.7729295172665 16.5114071483516
endloop
endfacet
facet normal 9.13407276032194e-016 0.499999999999999 -0.866025403784439
outer loop
vertex -8.00000000000002 -62.4 16.2516660498395
vertex -1.69197988952874e-014 -61.7729295172665 16.5114071483516
vertex -1.69197988952874e-014 -62.4 16.2516660498395
endloop
endfacet
facet normal -3.87818119739601e-031 1.0 3.65355505721523e-016
outer loop
vertex -8.00000000000001 -63.7 14.0
vertex -1.12798659301916e-014 -63.6114071483516 13.3270704827334
vertex -8.00000000000001 -63.6114071483516 13.3270704827334
endloop
endfacet
facet normal -2.729795199301e-016 0.965925826289068 0.258819045102521
outer loop
vertex -1.12798659301916e-014 -63.6114071483516 13.3270704827334
vertex -8.00000000000001 -63.7 14.0
vertex -1.12798659301916e-014 -63.7 14.0
endloop
endfacet
facet normal -0.26043659243092 0.260436592430921 -0.929701867614528
outer loop
vertex -14.105760231737 -28.994239768263 24.2267205437598
vertex -17.9886105016222 -36.4250979973626 22.8296629935061
vertex -19.7626144812294 -34.6510940177554 24.2267205437598
endloop
endfacet
facet normal -0.421709681486123 0.421709681486124 -0.802696635773282
outer loop
vertex -17.9886105016222 -36.4250979973626 22.8296629935061
vertex -14.105760231737 -28.994239768263 24.2267205437598
vertex -12.3317562521298 -30.7682437478702 22.8296629935061
endloop
endfacet
facet normal -0.554243952656247 0.554243952656247 -0.620988954722996
outer loop
vertex -16.5307335187508 -37.8829749802339 20.8308785019529
vertex -9.83148119025002 -33.26851880975 18.3665809290522
vertex -15.4883354397424 -38.9253730592424 18.3665809290522
endloop
endfacet
facet normal -0.649007414384285 0.649007414384285 -0.39696190264111
outer loop
vertex -9.83148119025002 -33.26851880975 18.3665809290522
vertex -16.5307335187508 -37.8829749802339 20.8308785019529
vertex -10.8738792692584 -32.2261207307416 20.8308785019529
endloop
endfacet
facet normal -9.13407276032193e-016 0.5 0.866025403784439
outer loop
vertex -1.12798659301916e-014 -62.4 11.7483339501605
vertex -8.00000000000001 -61.7729295172665 11.4885928516484
vertex -8.00000000000001 -62.4 11.7483339501605
endloop
endfacet
facet normal -1.01877343780489e-015 0.258819045102521 0.965925826289068
outer loop
vertex -8.00000000000001 -61.7729295172665 11.4885928516484
vertex -1.12798659301916e-014 -62.4 11.7483339501605
vertex -1.12798659301916e-014 -61.7729295172665 11.4885928516484
endloop
endfacet
facet normal -7.45793917874792e-016 0.707106781186548 0.707106781186547
outer loop
vertex -8.00000000000001 -62.938477631085 12.161522368915
vertex -1.12798659301916e-014 -63.3516660498395 12.7
vertex -1.12798659301916e-014 -62.938477631085 12.161522368915
endloop
endfacet
facet normal -5.27355936696948e-016 0.86602540378444 0.499999999999999
outer loop
vertex -1.12798659301916e-014 -63.3516660498395 12.7
vertex -8.00000000000001 -62.938477631085 12.161522368915
vertex -8.00000000000002 -63.3516660498395 12.7
endloop
endfacet
facet normal 5.27355936696949e-016 0.866025403784439 -0.5
outer loop
vertex -8.00000000000001 -63.3516660498395 15.3
vertex -1.69197988952874e-014 -63.6114071483516 14.6729295172666
vertex -8.00000000000001 -63.6114071483516 14.6729295172665
endloop
endfacet
facet normal 2.729795199301e-016 0.965925826289068 -0.258819045102521
outer loop
vertex -1.69197988952874e-014 -63.6114071483516 14.6729295172666
vertex -8.00000000000001 -63.3516660498395 15.3
vertex -1.69197988952874e-014 -63.3516660498395 15.3
endloop
endfacet
facet normal -7.45793917874793e-016 0.707106781186548 0.707106781186547
outer loop
vertex -1.12798659301916e-014 -62.938477631085 12.161522368915
vertex -8.00000000000001 -62.4 11.7483339501605
vertex -8.00000000000001 -62.938477631085 12.161522368915
endloop
endfacet
facet normal -9.13407276032193e-016 0.5 0.866025403784439
outer loop
vertex -8.00000000000001 -62.4 11.7483339501605
vertex -1.12798659301916e-014 -62.938477631085 12.161522368915
vertex -1.12798659301916e-014 -62.4 11.7483339501605
endloop
endfacet
facet normal -0.499999999999998 0.499999999999998 0.70710678118655
outer loop
vertex -31.9591946679019 -22.4545138310828 27.1971265418688
vertex -26.4882941511446 -16.6117058488554 26.8929524795493
vertex -32.145148400637 -22.2685600983477 26.8929524795493
endloop
endfacet
facet normal -0.567006624168042 0.567006624168043 0.597500607781381
outer loop
vertex -26.4882941511446 -16.6117058488554 26.8929524795493
vertex -31.9591946679019 -22.4545138310828 27.1971265418688
vertex -26.3023404184095 -16.7976595815905 27.1971265418688
endloop
endfacet
facet normal -0.699542093357498 0.699542093357498 -0.145882552904792
outer loop
vertex -14.932453971037 -39.4812545279477 15.6047080819527
vertex -9.24411726659712 -33.8558827334029 12.7334770309736
vertex -14.9009715160895 -39.5127369828953 12.7334770309736
endloop
endfacet
facet normal -0.702404134716367 0.702404134716366 0.11513845172967
outer loop
vertex -9.24411726659712 -33.8558827334029 12.7334770309736
vertex -14.932453971037 -39.4812545279477 15.6047080819527
vertex -9.27559972154468 -33.8244002784553 15.6047080819527
endloop
endfacet
facet normal -0.567006624168042 0.567006624168043 0.597500607781381
outer loop
vertex -32.145148400637 -22.2685600983477 26.8929524795493
vertex -26.6412142941077 -16.4587857058923 26.5539682595974
vertex -32.2980685436001 -22.1156399553846 26.5539682595974
endloop
endfacet
facet normal -0.622109914629261 0.622109914629262 0.475350931670429
outer loop
vertex -26.6412142941077 -16.4587857058923 26.5539682595974
vertex -32.145148400637 -22.2685600983477 26.8929524795493
vertex -26.4882941511446 -16.6117058488554 26.8929524795493
endloop
endfacet
facet normal -0.705548111266255 0.705548111266263 0.0663605709531637
outer loop
vertex -32.5269119345812 -21.8867965644036 25.4387763768261
vertex -26.8700576850887 -16.2299423149112 2.99999999999999
vertex -32.5269119345812 -21.8867965644036 2.99999999999997
endloop
endfacet
facet normal -0.706728187360347 0.70672818736036 -0.0327190828217775
outer loop
vertex -26.8700576850887 -16.2299423149112 2.99999999999999
vertex -32.5269119345812 -21.8867965644036 25.4387763768261
vertex -26.8700576850888 -16.2299423149112 25.4387763768261
endloop
endfacet
facet normal 7.45793917874794e-016 0.707106781186546 -0.707106781186549
outer loop
vertex -8.00000000000002 -62.938477631085 15.838477631085
vertex -1.69197988952874e-014 -63.3516660498395 15.3
vertex -8.00000000000001 -63.3516660498395 15.3
endloop
endfacet
facet normal 5.27355936696949e-016 0.866025403784439 -0.5
outer loop
vertex -1.69197988952874e-014 -63.3516660498395 15.3
vertex -8.00000000000002 -62.938477631085 15.838477631085
vertex -1.69197988952874e-014 -62.938477631085 15.838477631085
endloop
endfacet
facet normal -0.103154542415784 0.103154542415783 0.98930191587704
outer loop
vertex -21.4927170313959 -32.9209914675888 3.11767892535255
vertex -17.8661297284042 -25.2338702715958 3.07315601058892
vertex -23.5229839778966 -30.8907245210882 3.07315601058892
endloop
endfacet
facet normal 0.0814151799933693 -0.0814151799933702 0.993349453582824
outer loop
vertex -17.8661297284042 -25.2338702715958 3.07315601058892
vertex -21.4927170313959 -32.9209914675888 3.11767892535255
vertex -15.8358627819035 -27.2641372180965 3.11767892535255
endloop
endfacet
facet normal 2.729795199301e-016 0.965925826289068 -0.258819045102521
outer loop
vertex -8.00000000000001 -63.6114071483516 14.6729295172665
vertex -1.12798659301916e-014 -63.7 14.0
vertex -8.00000000000001 -63.7 14.0
endloop
endfacet
facet normal -5.69855196352068e-031 1.0 5.34666593738816e-016
outer loop
vertex -1.12798659301916e-014 -63.7 14.0
vertex -8.00000000000001 -63.6114071483516 14.6729295172665
vertex -1.69197988952874e-014 -63.6114071483516 14.6729295172666
endloop
endfacet
facet normal -2.729795199301e-016 -0.965925826289068 0.258819045102521
outer loop
vertex -1.12798659301916e-014 -58.5885928516484 13.3270704827334
vertex -8.00000000000001 -58.5 14.0
vertex -8.00000000000001 -58.5885928516484 13.3270704827334
endloop
endfacet
facet normal -8.7061210553788e-032 -1.0 8.01999890608221e-017
outer loop
vertex -8.00000000000001 -58.5 14.0
vertex -1.12798659301916e-014 -58.5885928516484 13.3270704827334
vertex -1.12798659301916e-014 -58.5 14.0
endloop
endfacet
facet normal -2.729795199301e-016 -0.965925826289068 0.258819045102521
outer loop
vertex -1.12798659301916e-014 -58.5885928516484 13.3270704827334
vertex -8.00000000000001 -58.8483339501605 12.7
vertex -1.12798659301916e-014 -58.8483339501605 12.7
endloop
endfacet
facet normal -5.2735593669695e-016 -0.866025403784438 0.500000000000001
outer loop
vertex -8.00000000000001 -58.8483339501605 12.7
vertex -1.12798659301916e-014 -58.5885928516484 13.3270704827334
vertex -8.00000000000001 -58.5885928516484 13.3270704827334
endloop
endfacet
facet normal -1.0547118733939e-015 0.0 1.0
outer loop
vertex -1.12798659301916e-014 -61.1 11.4
vertex -8.00000000000001 -60.4270704827334 11.4885928516484
vertex -8.00000000000001 -61.1 11.4
endloop
endfacet
facet normal -1.01877343780489e-015 -0.258819045102521 0.965925826289068
outer loop
vertex -8.00000000000001 -60.4270704827334 11.4885928516484
vertex -1.12798659301916e-014 -61.1 11.4
vertex -1.12798659301916e-014 -60.4270704827334 11.4885928516484
endloop
endfacet
facet normal 1.0547118733939e-015 2.76244406765054e-016 -1.0
outer loop
vertex -1.69197988952874e-014 -61.1 16.6
vertex -8.00000000000002 -61.7729295172665 16.5114071483516
vertex -8.00000000000002 -61.1 16.6
endloop
endfacet
facet normal 1.01877343780489e-015 0.25881904510252 -0.965925826289069
outer loop
vertex -8.00000000000002 -61.7729295172665 16.5114071483516
vertex -1.69197988952874e-014 -61.1 16.6
vertex -1.69197988952874e-014 -61.7729295172665 16.5114071483516
endloop
endfacet
facet normal -0.657398495072031 0.65739849507203 0.368312961154043
outer loop
vertex -9.73917930268482 -33.3608206973152 9.94855742730552
vertex -16.3839024196694 -38.0298060793153 7.43973693964112
vertex -15.3960335521772 -39.0176749468076 9.94855742730551
endloop
endfacet
facet normal -0.567592234390916 0.567592234390916 0.596387550941714
outer loop
vertex -16.3839024196694 -38.0298060793153 7.43973693964112
vertex -9.73917930268482 -33.3608206973152 9.94855742730552
vertex -10.7270481701771 -32.3729518298229 7.43973693964113
endloop
endfacet
facet normal 5.27355936696949e-016 -0.866025403784439 -0.5
outer loop
vertex -1.69197988952874e-014 -58.8483339501605 15.3
vertex -8.00000000000002 -59.261522368915 15.838477631085
vertex -8.00000000000001 -58.8483339501605 15.3
endloop
endfacet
facet normal 7.45793917874794e-016 -0.707106781186547 -0.707106781186549
outer loop
vertex -8.00000000000002 -59.261522368915 15.838477631085
vertex -1.69197988952874e-014 -58.8483339501605 15.3
vertex -1.69197988952874e-014 -59.261522368915 15.838477631085
endloop
endfacet
facet normal 0.707106781186549 0.707106781186547 2.12542988589707e-015
outer loop
vertex 0.0 -43.1 0.0
vertex -10.7270481701771 -32.3729518298229 7.43973693964113
vertex -2.8199664825479e-014 -43.1 28.0
endloop
endfacet
facet normal 0.707106781186549 0.707106781186547 2.12542988589707e-015
outer loop
vertex -10.7270481701771 -32.3729518298229 7.43973693964113
vertex 0.0 -43.1 0.0
vertex -12.1404022382848 -30.9595977617152 5.37798753819289
endloop
endfacet
facet normal 0.707106781186549 0.707106781186547 2.12542988589707e-015
outer loop
vertex -12.1404022382848 -30.9595977617152 5.37798753819289
vertex 0.0 -43.1 0.0
vertex -13.8829237629445 -29.2170762370555 3.90381403746752
endloop
endfacet
facet normal 0.707106781186549 0.707106781186547 2.12542988589707e-015
outer loop
vertex -13.8829237629445 -29.2170762370555 3.90381403746752
vertex 0.0 -43.1 0.0
vertex -15.8358627819035 -27.2641372180965 3.11767892535255
endloop
endfacet
facet normal 0.707106781186549 0.707106781186547 2.12542988589707e-015
outer loop
vertex -15.8358627819035 -27.2641372180965 3.11767892535255
vertex 0.0 -43.1 0.0
vertex -24.7487373415291 -18.3512626584708 -1.47212434209826e-014
endloop
endfacet
facet normal 0.707106781186549 0.707106781186547 2.12542988589707e-015
outer loop
vertex -2.8199664825479e-014 -43.1 28.0
vertex -10.7270481701771 -32.3729518298229 7.43973693964113
vertex -9.73917930268482 -33.3608206973152 9.94855742730552
endloop
endfacet
facet normal 0.707106781186549 0.707106781186547 2.12542988589707e-015
outer loop
vertex -2.8199664825479e-014 -43.1 28.0
vertex -9.73917930268482 -33.3608206973152 9.94855742730552
vertex -9.24411726659712 -33.8558827334029 12.7334770309736
endloop
endfacet
facet normal 0.707106781186549 0.707106781186547 2.12542988589707e-015
outer loop
vertex -15.8358627819035 -27.2641372180965 3.11767892535255
vertex -24.7487373415291 -18.3512626584708 -1.47212434209826e-014
vertex -17.8661297284042 -25.2338702715958 3.07315601058892
endloop
endfacet
facet normal 0.707106781186549 0.707106781186547 2.12542988589707e-015
outer loop
vertex -17.8661297284042 -25.2338702715958 3.07315601058892
vertex -24.7487373415291 -18.3512626584708 -1.47212434209826e-014
vertex -19.8353652652173 -23.2646347347827 3.77327945624018
endloop
endfacet
facet normal 0.707106781186549 0.707106781186547 2.12542988589707e-015
outer loop
vertex -19.8353652652173 -23.2646347347827 3.77327945624018
vertex -24.7487373415291 -18.3512626584708 -1.47212434209826e-014
vertex -21.6093692448245 -21.4906307551755 5.17033700649389
endloop
endfacet
facet normal 0.707106781186549 0.707106781186547 2.12542988589707e-015
outer loop
vertex -21.6093692448245 -21.4906307551755 5.17033700649389
vertex -24.7487373415291 -18.3512626584708 -1.47212434209826e-014
vertex -23.0672462276959 -20.0327537723041 7.16912149804702
endloop
endfacet
facet normal 0.707106781186549 0.707106781186547 2.12542988589707e-015
outer loop
vertex -23.0672462276959 -20.0327537723041 7.16912149804702
vertex -24.7487373415291 -18.3512626584708 -1.47212434209826e-014
vertex -24.1096443067043 -18.9903556932957 9.63341907094778
endloop
endfacet
facet normal 0.707106781186549 0.707106781186547 2.12542988589707e-015
outer loop
vertex -24.1096443067043 -18.9903556932957 9.63341907094778
vertex -24.7487373415291 -18.3512626584708 -1.47212434209826e-014
vertex -24.6655257754096 -18.4344742245904 12.3952919180473
endloop
endfacet
facet normal 0.707106781186549 0.707106781186547 2.12542988589707e-015
outer loop
vertex -24.6655257754096 -18.4344742245904 12.3952919180473
vertex -24.7487373415291 -18.3512626584708 -1.47212434209826e-014
vertex -24.6970082303572 -18.4029917696428 15.2665229690264
endloop
endfacet
facet normal 0.707106781186549 0.707106781186547 2.12542988589707e-015
outer loop
vertex -2.8199664825479e-014 -43.1 28.0
vertex -16.0749957685501 -27.0250042314499 24.926843989411
vertex -25.0589990930073 -18.0410009069927 28.0
endloop
endfacet
facet normal 0.707106781186549 0.707106781186547 2.12542988589707e-015
outer loop
vertex -16.0749957685501 -27.0250042314499 24.926843989411
vertex -2.8199664825479e-014 -43.1 28.0
vertex -14.105760231737 -28.994239768263 24.2267205437598
endloop
endfacet
facet normal 0.707106781186549 0.707106781186547 2.12542988589707e-015
outer loop
vertex -14.105760231737 -28.994239768263 24.2267205437598
vertex -2.8199664825479e-014 -43.1 28.0
vertex -12.3317562521298 -30.7682437478702 22.8296629935061
endloop
endfacet
facet normal 0.707106781186549 0.707106781186547 2.12542988589707e-015
outer loop
vertex -12.3317562521298 -30.7682437478702 22.8296629935061
vertex -2.8199664825479e-014 -43.1 28.0
vertex -10.8738792692584 -32.2261207307416 20.8308785019529
endloop
endfacet
facet normal 0.707106781186549 0.707106781186547 2.12542988589707e-015
outer loop
vertex -10.8738792692584 -32.2261207307416 20.8308785019529
vertex -2.8199664825479e-014 -43.1 28.0
vertex -9.83148119025002 -33.26851880975 18.3665809290522
endloop
endfacet
facet normal 0.707106781186549 0.707106781186547 2.12542988589707e-015
outer loop
vertex -9.83148119025002 -33.26851880975 18.3665809290522
vertex -2.8199664825479e-014 -43.1 28.0
vertex -9.27559972154468 -33.8244002784553 15.6047080819527
endloop
endfacet
facet normal 0.707106781186549 0.707106781186547 2.12542988589707e-015
outer loop
vertex -9.27559972154468 -33.8244002784553 15.6047080819527
vertex -2.8199664825479e-014 -43.1 28.0
vertex -9.24411726659712 -33.8558827334029 12.7334770309736
endloop
endfacet
facet normal 0.707106781186549 0.707106781186547 2.12542988589707e-015
outer loop
vertex -25.0589990930073 -18.0410009069927 28.0
vertex -16.0749957685501 -27.0250042314499 24.926843989411
vertex -18.1052627150508 -24.9947372849492 24.8823210746474
endloop
endfacet
facet normal 0.707106781186549 0.707106781186547 2.12542988589707e-015
outer loop
vertex -25.0589990930073 -18.0410009069927 28.0
vertex -18.1052627150508 -24.9947372849492 24.8823210746474
vertex -20.0582017340098 -23.0417982659902 24.0961859625324
endloop
endfacet
facet normal 0.707106781186549 0.707106781186547 2.12542988589707e-015
outer loop
vertex -25.0589990930073 -18.0410009069927 28.0
vertex -20.0582017340098 -23.0417982659902 24.0961859625324
vertex -21.8007232586695 -21.2992767413305 22.6220124618071
endloop
endfacet
facet normal 0.707106781186549 0.707106781186547 2.12542988589707e-015
outer loop
vertex -25.0589990930073 -18.0410009069927 28.0
vertex -21.8007232586695 -21.2992767413305 22.6220124618071
vertex -23.2140773267772 -19.8859226732228 20.5602630603588
endloop
endfacet
facet normal 0.707106781186549 0.707106781186547 2.12542988589707e-015
outer loop
vertex -25.0589990930073 -18.0410009069927 28.0
vertex -23.2140773267772 -19.8859226732228 20.5602630603588
vertex -24.2019461942695 -18.8980538057305 18.0514425726944
endloop
endfacet
facet normal 0.707106781186549 0.707106781186547 2.12542988589707e-015
outer loop
vertex -25.0589990930073 -18.0410009069927 28.0
vertex -24.2019461942695 -18.8980538057305 18.0514425726944
vertex -24.6970082303572 -18.4029917696428 15.2665229690264
endloop
endfacet
facet normal 0.707106781186549 0.707106781186547 2.12542988589707e-015
outer loop
vertex -25.0589990930073 -18.0410009069927 28.0
vertex -24.6970082303572 -18.4029917696428 15.2665229690264
vertex -24.7487373415291 -18.3512626584708 -1.47212434209826e-014
endloop
endfacet
facet normal 0.707106781186549 0.707106781186547 2.12542988589707e-015
outer loop
vertex -25.0589990930073 -18.0410009069927 28.0
vertex -24.7487373415291 -18.3512626584708 -1.47212434209826e-014
vertex -25.0256252084528 -18.0743747915471 0.0256654158785539
endloop
endfacet
facet normal 0.707106781186549 0.707106781186547 2.12542988589707e-015
outer loop
vertex -25.0589990930073 -18.0410009069927 28.0
vertex -25.0256252084528 -18.0743747915471 0.0256654158785539
vertex -25.2977754472057 -17.8022245527942 0.102222521132779
endloop
endfacet
facet normal 0.707106781186549 0.707106781186547 2.12542988589707e-015
outer loop
vertex -25.0589990930073 -18.0410009069927 28.0
vertex -25.2977754472057 -17.8022245527942 0.102222521132779
vertex -25.3148585593837 -17.7851414406163 27.9516562650854
endloop
endfacet
facet normal 0.707106781186549 0.707106781186547 2.12542988589707e-015
outer loop
vertex -25.3148585593837 -17.7851414406163 27.9516562650854
vertex -25.2977754472057 -17.8022245527942 0.102222521132779
vertex -25.5605314917484 -17.5394685082515 0.228361402466124
endloop
endfacet
facet normal 0.707106781186549 0.707106781186547 2.12542988589707e-015
outer loop
vertex -25.3148585593837 -17.7851414406163 27.9516562650854
vertex -25.5605314917484 -17.5394685082515 0.228361402466124
vertex -25.588278346627 -17.511721653373 27.8413717171573
endloop
endfacet
facet normal 0.707106781186549 0.707106781186547 2.12542988589707e-015
outer loop
vertex -25.588278346627 -17.511721653373 27.8413717171573
vertex -25.5605314917484 -17.5394685082515 0.228361402466124
vertex -25.8093975133089 -17.290602486691 0.401923788646667
endloop
endfacet
facet normal 0.707106781186549 0.707106781186547 2.12542988589707e-015
outer loop
vertex -25.588278346627 -17.511721653373 27.8413717171573
vertex -25.8093975133089 -17.290602486691 0.401923788646667
vertex -25.8475588356392 -17.2524411643608 27.6763665728151
endloop
endfacet
facet normal 0.707106781186549 0.707106781186547 2.12542988589707e-015
outer loop
vertex -25.8475588356392 -17.2524411643608 27.6763665728151
vertex -25.8093975133089 -17.290602486691 0.401923788646667
vertex -26.0401153452597 -17.0598846547402 0.619939979126277
endloop
endfacet
facet normal 0.707106781186549 0.707106781186547 2.12542988589707e-015
outer loop
vertex -25.8475588356392 -17.2524411643608 27.6763665728151
vertex -26.0401153452597 -17.0598846547402 0.619939979126277
vertex -26.0872568762824 -17.0127431237176 27.4601048326766
endloop
endfacet
facet normal 0.707106781186549 0.707106781186547 2.12542988589707e-015
outer loop
vertex -26.0872568762824 -17.0127431237176 27.4601048326766
vertex -26.0401153452597 -17.0598846547402 0.619939979126277
vertex -26.2487373415291 -16.8512626584708 0.878679656440339
endloop
endfacet
facet normal 0.707106781186549 0.707106781186547 2.12542988589707e-015
outer loop
vertex -26.0872568762824 -17.0127431237176 27.4601048326766
vertex -26.2487373415291 -16.8512626584708 0.878679656440339
vertex -26.3023404184095 -16.7976595815905 27.1971265418688
endloop
endfacet
facet normal 0.707106781186549 0.707106781186547 2.12542988589707e-015
outer loop
vertex -26.3023404184095 -16.7976595815905 27.1971265418688
vertex -26.2487373415291 -16.8512626584708 0.878679656440339
vertex -26.4316939219198 -16.6683060780801 1.17371571297382
endloop
endfacet
facet normal 0.707106781186549 0.707106781186547 2.12542988589707e-015
outer loop
vertex -26.3023404184095 -16.7976595815905 27.1971265418688
vertex -26.4316939219198 -16.6683060780801 1.17371571297382
vertex -26.4882941511446 -16.6117058488554 26.8929524795493
endloop
endfacet
facet normal 0.707106781186549 0.707106781186547 2.12542988589707e-015
outer loop
vertex -26.4882941511446 -16.6117058488554 26.8929524795493
vertex -26.4316939219198 -16.6683060780801 1.17371571297382
vertex -26.5858546486164 -16.5141453513835 1.49999999999998
endloop
endfacet
facet normal 0.707106781186549 0.707106781186547 2.12542988589707e-015
outer loop
vertex -26.4882941511446 -16.6117058488554 26.8929524795493
vertex -26.5858546486164 -16.5141453513835 1.49999999999998
vertex -26.6412142941077 -16.4587857058923 26.5539682595974
endloop
endfacet
facet normal 0.707106781186549 0.707106781186547 2.12542988589707e-015
outer loop
vertex -26.6412142941077 -16.4587857058923 26.5539682595974
vertex -26.5858546486164 -16.5141453513835 1.49999999999998
vertex -26.7085817888436 -16.3914182111563 1.85194970290472
endloop
endfacet
facet normal 0.707106781186549 0.707106781186547 2.12542988589707e-015
outer loop
vertex -26.6412142941077 -16.4587857058923 26.5539682595974
vertex -26.7085817888436 -16.3914182111563 1.85194970290472
vertex -26.7578905506028 -16.3421094493972 26.1872902755777
endloop
endfacet
facet normal 0.707106781186549 0.707106781186547 2.12542988589707e-015
outer loop
vertex -26.7578905506028 -16.3421094493972 26.1872902755777
vertex -26.7085817888436 -16.3914182111563 1.85194970290472
vertex -26.7977754472057 -16.3022245527942 2.22354286469243
endloop
endfacet
facet normal 0.707106781186549 0.707106781186547 2.12542988589707e-015
outer loop
vertex -26.7578905506028 -16.3421094493972 26.1872902755777
vertex -26.7977754472057 -16.3022245527942 2.22354286469243
vertex -26.8358735023028 -16.2641264976971 25.800616304237
endloop
endfacet
facet normal 0.707106781186549 0.707106781186547 2.12542988589707e-015
outer loop
vertex -26.8358735023028 -16.2641264976971 25.800616304237
vertex -26.7977754472057 -16.3022245527942 2.22354286469243
vertex -26.851909495479 -16.2480905045209 2.60842142333983
endloop
endfacet
facet normal 0.707106781186549 0.707106781186547 2.12542988589707e-015
outer loop
vertex -26.8358735023028 -16.2641264976971 25.800616304237
vertex -26.851909495479 -16.2480905045209 2.60842142333983
vertex -26.8700576850888 -16.2299423149112 25.4387763768261
endloop
endfacet
facet normal 0.707106781186549 0.707106781186547 2.12542988589707e-015
outer loop
vertex -26.8700576850888 -16.2299423149112 25.4387763768261
vertex -26.851909495479 -16.2480905045209 2.60842142333983
vertex -26.8700576850887 -16.2299423149112 2.99999999999999
endloop
endfacet
facet normal -0.567592234390916 0.567592234390916 0.596387550941714
outer loop
vertex -16.3839024196694 -38.0298060793153 7.43973693964112
vertex -12.1404022382848 -30.9595977617152 5.37798753819289
vertex -17.7972564877772 -36.6164520112076 5.37798753819288
endloop
endfacet
facet normal -0.439105500926577 0.439105500926577 0.783819314709736
outer loop
vertex -12.1404022382848 -30.9595977617152 5.37798753819289
vertex -16.3839024196694 -38.0298060793153 7.43973693964112
vertex -10.7270481701771 -32.3729518298229 7.43973693964113
endloop
endfacet
facet normal 7.45793917874794e-016 -0.707106781186547 -0.707106781186548
outer loop
vertex -1.69197988952874e-014 -59.261522368915 15.838477631085
vertex -8.00000000000002 -59.8 16.2516660498395
vertex -8.00000000000002 -59.261522368915 15.838477631085
endloop
endfacet
facet normal 9.13407276032193e-016 -0.5 -0.866025403784439
outer loop
vertex -8.00000000000002 -59.8 16.2516660498395
vertex -1.69197988952874e-014 -59.261522368915 15.838477631085
vertex -1.69197988952874e-014 -59.8 16.2516660498395
endloop
endfacet
facet normal 2.729795199301e-016 -0.965925826289068 -0.258819045102521
outer loop
vertex -1.69197988952874e-014 -58.5885928516484 14.6729295172666
vertex -8.00000000000001 -58.8483339501605 15.3
vertex -8.00000000000001 -58.5885928516484 14.6729295172665
endloop
endfacet
facet normal 5.27355936696949e-016 -0.866025403784439 -0.5
outer loop
vertex -8.00000000000001 -58.8483339501605 15.3
vertex -1.69197988952874e-014 -58.5885928516484 14.6729295172666
vertex -1.69197988952874e-014 -58.8483339501605 15.3
endloop
endfacet
facet normal 0.260436592430921 -0.260436592430922 0.929701867614527
outer loop
vertex -25.4922195147097 -28.9214889842751 3.77327945624017
vertex -21.6093692448245 -21.4906307551755 5.17033700649389
vertex -27.2662234943169 -27.1474850046679 5.17033700649388
endloop
endfacet
facet normal 0.421709681486125 -0.421709681486125 0.802696635773281
outer loop
vertex -21.6093692448245 -21.4906307551755 5.17033700649389
vertex -25.4922195147097 -28.9214889842751 3.77327945624017
vertex -19.8353652652173 -23.2646347347827 3.77327945624018
endloop
endfacet
facet normal -2.72979519930101e-016 0.965925826289068 0.258819045102522
outer loop
vertex -8.00000000000001 -63.6114071483516 13.3270704827334
vertex -1.12798659301916e-014 -63.3516660498395 12.7
vertex -8.00000000000002 -63.3516660498395 12.7
endloop
endfacet
facet normal -5.27355936696948e-016 0.86602540378444 0.499999999999999
outer loop
vertex -1.12798659301916e-014 -63.3516660498395 12.7
vertex -8.00000000000001 -63.6114071483516 13.3270704827334
vertex -1.12798659301916e-014 -63.6114071483516 13.3270704827334
endloop
endfacet
facet normal -1.0 -2.8558020576237e-017 -1.08266570312107e-015
outer loop
vertex -8.00000000000003 -71.1 28.0
vertex -8.00000000000001 -63.3516660498395 15.3
vertex -8.0 -71.1 -8.43769498715119e-015
endloop
endfacet
facet normal -1.0 -2.8558020576237e-017 -1.08266570312107e-015
outer loop
vertex -8.00000000000001 -63.3516660498395 15.3
vertex -8.00000000000003 -71.1 28.0
vertex -8.00000000000002 -62.938477631085 15.838477631085
endloop
endfacet
facet normal -1.0 -2.8558020576237e-017 -1.08266570312107e-015
outer loop
vertex -8.00000000000002 -62.938477631085 15.838477631085
vertex -8.00000000000003 -71.1 28.0
vertex -8.00000000000002 -62.4 16.2516660498395
endloop
endfacet
facet normal -1.0 -2.8558020576237e-017 -1.08266570312107e-015
outer loop
vertex -8.00000000000002 -62.4 16.2516660498395
vertex -8.00000000000003 -71.1 28.0
vertex -8.00000000000003 -46.4137084989848 28.0
endloop
endfacet
facet normal -1.0 -2.8558020576237e-017 -1.08266570312107e-015
outer loop
vertex -8.0 -71.1 -8.43769498715119e-015
vertex -8.00000000000001 -63.3516660498395 15.3
vertex -8.00000000000001 -63.6114071483516 14.6729295172665
endloop
endfacet
facet normal -1.0 -2.8558020576237e-017 -1.08266570312107e-015
outer loop
vertex -8.0 -71.1 -8.43769498715119e-015
vertex -8.00000000000001 -63.6114071483516 14.6729295172665
vertex -8.00000000000001 -63.7 14.0
endloop
endfacet
facet normal -1.0 -2.8558020576237e-017 -1.08266570312107e-015
outer loop
vertex -8.00000000000002 -62.4 16.2516660498395
vertex -8.00000000000003 -46.4137084989848 28.0
vertex -8.00000000000002 -61.7729295172665 16.5114071483516
endloop
endfacet
facet normal -1.0 -2.8558020576237e-017 -1.08266570312107e-015
outer loop
vertex -8.00000000000002 -61.7729295172665 16.5114071483516
vertex -8.00000000000003 -46.4137084989848 28.0
vertex -8.00000000000002 -61.1 16.6
endloop
endfacet
facet normal -1.0 -2.8558020576237e-017 -1.08266570312107e-015
outer loop
vertex -8.00000000000002 -61.1 16.6
vertex -8.00000000000003 -46.4137084989848 28.0
vertex -8.00000000000002 -60.4270704827334 16.5114071483516
endloop
endfacet
facet normal -1.0 -2.8558020576237e-017 -1.08266570312107e-015
outer loop
vertex -8.00000000000002 -60.4270704827334 16.5114071483516
vertex -8.00000000000003 -46.4137084989848 28.0
vertex -8.00000000000002 -59.8 16.2516660498395
endloop
endfacet
facet normal -1.0 -2.8558020576237e-017 -1.08266570312107e-015
outer loop
vertex -8.00000000000002 -59.8 16.2516660498395
vertex -8.00000000000003 -46.4137084989848 28.0
vertex -8.00000000000002 -59.261522368915 15.838477631085
endloop
endfacet
facet normal -1.0 -2.8558020576237e-017 -1.08266570312107e-015
outer loop
vertex -8.00000000000002 -59.261522368915 15.838477631085
vertex -8.00000000000003 -46.4137084989848 28.0
vertex -8.00000000000001 -58.8483339501605 15.3
endloop
endfacet
facet normal -1.0 -2.8558020576237e-017 -1.08266570312107e-015
outer loop
vertex -8.00000000000001 -58.8483339501605 15.3
vertex -8.00000000000003 -46.4137084989848 28.0
vertex -8.00000000000001 -58.5885928516484 14.6729295172665
endloop
endfacet
facet normal -1.0 -2.8558020576237e-017 -1.08266570312107e-015
outer loop
vertex -8.00000000000001 -58.5885928516484 14.6729295172665
vertex -8.00000000000003 -46.4137084989848 28.0
vertex -8.00000000000001 -58.5 14.0
endloop
endfacet
facet normal -1.0 -2.8558020576237e-017 -1.08266570312107e-015
outer loop
vertex -8.0 -71.1 -8.43769498715119e-015
vertex -8.00000000000001 -62.4 11.7483339501605
vertex -8.0 -46.4137084989848 -7.51207407004408e-015
endloop
endfacet
facet normal -1.0 -2.8558020576237e-017 -1.08266570312107e-015
outer loop
vertex -8.00000000000001 -62.4 11.7483339501605
vertex -8.0 -71.1 -8.43769498715119e-015
vertex -8.00000000000001 -62.938477631085 12.161522368915
endloop
endfacet
facet normal -1.0 -2.8558020576237e-017 -1.08266570312107e-015
outer loop
vertex -8.00000000000001 -62.938477631085 12.161522368915
vertex -8.0 -71.1 -8.43769498715119e-015
vertex -8.00000000000002 -63.3516660498395 12.7
endloop
endfacet
facet normal -1.0 -2.8558020576237e-017 -1.08266570312107e-015
outer loop
vertex -8.00000000000002 -63.3516660498395 12.7
vertex -8.0 -71.1 -8.43769498715119e-015
vertex -8.00000000000001 -63.6114071483516 13.3270704827334
endloop
endfacet
facet normal -1.0 -2.8558020576237e-017 -1.08266570312107e-015
outer loop
vertex -8.00000000000001 -63.6114071483516 13.3270704827334
vertex -8.0 -71.1 -8.43769498715119e-015
vertex -8.00000000000001 -63.7 14.0
endloop
endfacet
facet normal -1.0 -2.8558020576237e-017 -1.08266570312107e-015
outer loop
vertex -8.0 -46.4137084989848 -7.51207407004408e-015
vertex -8.00000000000001 -62.4 11.7483339501605
vertex -8.00000000000001 -61.7729295172665 11.4885928516484
endloop
endfacet
facet normal -1.0 -2.8558020576237e-017 -1.08266570312107e-015
outer loop
vertex -8.0 -46.4137084989848 -7.51207407004408e-015
vertex -8.00000000000001 -61.7729295172665 11.4885928516484
vertex -8.00000000000001 -61.1 11.4
endloop
endfacet
facet normal -1.0 -2.8558020576237e-017 -1.08266570312107e-015
outer loop
vertex -8.0 -46.4137084989848 -7.51207407004408e-015
vertex -8.00000000000001 -61.1 11.4
vertex -8.00000000000001 -60.4270704827334 11.4885928516484
endloop
endfacet
facet normal -1.0 -2.8558020576237e-017 -1.08266570312107e-015
outer loop
vertex -8.0 -46.4137084989848 -7.51207407004408e-015
vertex -8.00000000000001 -60.4270704827334 11.4885928516484
vertex -8.00000000000001 -59.8 11.7483339501605
endloop
endfacet
facet normal -1.0 -2.8558020576237e-017 -1.08266570312107e-015
outer loop
vertex -8.0 -46.4137084989848 -7.51207407004408e-015
vertex -8.00000000000001 -59.8 11.7483339501605
vertex -8.00000000000001 -59.261522368915 12.161522368915
endloop
endfacet
facet normal -1.0 -2.8558020576237e-017 -1.08266570312107e-015
outer loop
vertex -8.0 -46.4137084989848 -7.51207407004408e-015
vertex -8.00000000000001 -59.261522368915 12.161522368915
vertex -8.00000000000001 -58.8483339501605 12.7
endloop
endfacet
facet normal -1.0 -2.8558020576237e-017 -1.08266570312107e-015
outer loop
vertex -8.0 -46.4137084989848 -7.51207407004408e-015
vertex -8.00000000000001 -58.8483339501605 12.7
vertex -8.00000000000001 -58.5885928516484 13.3270704827334
endloop
endfacet
facet normal -1.0 -2.8558020576237e-017 -1.08266570312107e-015
outer loop
vertex -8.0 -46.4137084989848 -7.51207407004408e-015
vertex -8.00000000000001 -58.5885928516484 13.3270704827334
vertex -8.00000000000001 -58.5 14.0
endloop
endfacet
facet normal -1.0 -2.8558020576237e-017 -1.08266570312107e-015
outer loop
vertex -8.0 -46.4137084989848 -7.51207407004408e-015
vertex -8.00000000000001 -58.5 14.0
vertex -8.00000000000003 -46.4137084989848 28.0
endloop
endfacet
facet normal 0.702404134716368 -0.702404134716365 -0.11513845172967
outer loop
vertex -30.3538624798495 -24.0598460191352 15.2665229690263
vertex -24.2019461942695 -18.8980538057305 18.0514425726944
vertex -29.8588004437618 -24.5549080552229 18.0514425726944
endloop
endfacet
facet normal 0.657398495072033 -0.657398495072028 -0.368312961154043
outer loop
vertex -24.2019461942695 -18.8980538057305 18.0514425726944
vertex -30.3538624798495 -24.0598460191352 15.2665229690263
vertex -24.6970082303572 -18.4029917696428 15.2665229690264
endloop
endfacet
facet normal 9.13407276032193e-016 -0.5 -0.866025403784439
outer loop
vertex -1.69197988952874e-014 -59.8 16.2516660498395
vertex -8.00000000000002 -60.4270704827334 16.5114071483516
vertex -8.00000000000002 -59.8 16.2516660498395
endloop
endfacet
facet normal 1.01877343780489e-015 -0.258819045102521 -0.965925826289068
outer loop
vertex -8.00000000000002 -60.4270704827334 16.5114071483516
vertex -1.69197988952874e-014 -59.8 16.2516660498395
vertex -1.69197988952874e-014 -60.4270704827334 16.5114071483516
endloop
endfacet
facet normal 9.13407276032194e-016 0.499999999999999 -0.866025403784439
outer loop
vertex -1.69197988952874e-014 -62.4 16.2516660498395
vertex -8.00000000000002 -62.938477631085 15.838477631085
vertex -8.00000000000002 -62.4 16.2516660498395
endloop
endfacet
facet normal 7.45793917874794e-016 0.707106781186546 -0.707106781186549
outer loop
vertex -8.00000000000002 -62.938477631085 15.838477631085
vertex -1.69197988952874e-014 -62.4 16.2516660498395
vertex -1.69197988952874e-014 -62.938477631085 15.838477631085
endloop
endfacet
facet normal -0.280694453230243 0.280694453230242 0.917835087502951
outer loop
vertex -19.5397780124368 -34.8739304865479 3.90381403746751
vertex -15.8358627819035 -27.2641372180965 3.11767892535255
vertex -21.4927170313959 -32.9209914675888 3.11767892535255
endloop
endfacet
facet normal -0.103154542415784 0.103154542415783 0.98930191587704
outer loop
vertex -15.8358627819035 -27.2641372180965 3.11767892535255
vertex -19.5397780124368 -34.8739304865479 3.90381403746751
vertex -13.8829237629445 -29.2170762370555 3.90381403746752
endloop
endfacet
facet normal 0.6995420933575 -0.699542093357496 0.145882552904791
outer loop
vertex -24.6655257754096 -18.4344742245904 12.3952919180473
vertex -30.3538624798495 -24.0598460191352 15.2665229690263
vertex -30.322380024902 -24.0913284740827 12.3952919180473
endloop
endfacet
facet normal 0.702404134716368 -0.702404134716365 -0.11513845172967
outer loop
vertex -30.3538624798495 -24.0598460191352 15.2665229690263
vertex -24.6655257754096 -18.4344742245904 12.3952919180473
vertex -24.6970082303572 -18.4029917696428 15.2665229690264
endloop
endfacet
facet normal -0.649007414384285 0.649007414384285 -0.39696190264111
outer loop
vertex -15.4883354397424 -38.9253730592424 18.3665809290522
vertex -9.27559972154468 -33.8244002784553 15.6047080819527
vertex -14.932453971037 -39.4812545279477 15.6047080819527
endloop
endfacet
facet normal -0.699542093357498 0.699542093357498 -0.145882552904792
outer loop
vertex -9.27559972154468 -33.8244002784553 15.6047080819527
vertex -15.4883354397424 -38.9253730592424 18.3665809290522
vertex -9.83148119025002 -33.26851880975 18.3665809290522
endloop
endfacet
facet normal -2.69098287166255e-031 -1.0 2.58422186973761e-016
outer loop
vertex -1.12798659301916e-014 -58.5 14.0
vertex -8.00000000000001 -58.5885928516484 14.6729295172665
vertex -8.00000000000001 -58.5 14.0
endloop
endfacet
facet normal 2.729795199301e-016 -0.965925826289068 -0.258819045102521
outer loop
vertex -8.00000000000001 -58.5885928516484 14.6729295172665
vertex -1.12798659301916e-014 -58.5 14.0
vertex -1.69197988952874e-014 -58.5885928516484 14.6729295172666
endloop
endfacet
facet normal 0.649007414384287 -0.649007414384284 0.396961902641109
outer loop
vertex -24.1096443067043 -18.9903556932957 9.63341907094778
vertex -30.322380024902 -24.0913284740827 12.3952919180473
vertex -29.7664985561966 -24.6472099427881 9.63341907094777
endloop
endfacet
facet normal 0.6995420933575 -0.699542093357496 0.145882552904791
outer loop
vertex -30.322380024902 -24.0913284740827 12.3952919180473
vertex -24.1096443067043 -18.9903556932957 9.63341907094778
vertex -24.6655257754096 -18.4344742245904 12.3952919180473
endloop
endfacet
facet normal 0.554243952656248 -0.554243952656246 0.620988954722997
outer loop
vertex -23.0672462276959 -20.0327537723041 7.16912149804702
vertex -29.7664985561966 -24.6472099427881 9.63341907094777
vertex -28.7241004771882 -25.6896080217965 7.16912149804702
endloop
endfacet
facet normal 0.649007414384287 -0.649007414384284 0.396961902641109
outer loop
vertex -29.7664985561966 -24.6472099427881 9.63341907094777
vertex -23.0672462276959 -20.0327537723041 7.16912149804702
vertex -24.1096443067043 -18.9903556932957 9.63341907094778
endloop
endfacet
facet normal -9.13407276032193e-016 -0.500000000000001 0.866025403784438
outer loop
vertex -1.12798659301916e-014 -59.8 11.7483339501605
vertex -8.00000000000001 -59.261522368915 12.161522368915
vertex -8.00000000000001 -59.8 11.7483339501605
endloop
endfacet
facet normal -7.45793917874794e-016 -0.707106781186547 0.707106781186548
outer loop
vertex -8.00000000000001 -59.261522368915 12.161522368915
vertex -1.12798659301916e-014 -59.8 11.7483339501605
vertex -1.12798659301916e-014 -59.261522368915 12.161522368915
endloop
endfacet
facet normal 1.01877343780489e-015 -0.258819045102521 -0.965925826289068
outer loop
vertex -1.69197988952874e-014 -60.4270704827334 16.5114071483516
vertex -8.00000000000002 -61.1 16.6
vertex -8.00000000000002 -60.4270704827334 16.5114071483516
endloop
endfacet
facet normal 1.0547118733939e-015 2.76244406765054e-016 -1.0
outer loop
vertex -8.00000000000002 -61.1 16.6
vertex -1.69197988952874e-014 -60.4270704827334 16.5114071483516
vertex -1.69197988952874e-014 -61.1 16.6
endloop
endfacet
facet normal -1.01877343780489e-015 0.258819045102521 0.965925826289068
outer loop
vertex -1.12798659301916e-014 -61.7729295172665 11.4885928516484
vertex -8.00000000000001 -61.1 11.4
vertex -8.00000000000001 -61.7729295172665 11.4885928516484
endloop
endfacet
facet normal -1.0547118733939e-015 0.0 1.0
outer loop
vertex -8.00000000000001 -61.1 11.4
vertex -1.12798659301916e-014 -61.7729295172665 11.4885928516484
vertex -1.12798659301916e-014 -61.1 11.4
endloop
endfacet
facet normal -5.2735593669695e-016 -0.866025403784438 0.500000000000001
outer loop
vertex -1.12798659301916e-014 -58.8483339501605 12.7
vertex -8.00000000000001 -59.261522368915 12.161522368915
vertex -1.12798659301916e-014 -59.261522368915 12.161522368915
endloop
endfacet
facet normal -7.45793917874794e-016 -0.707106781186547 0.707106781186548
outer loop
vertex -8.00000000000001 -59.261522368915 12.161522368915
vertex -1.12798659301916e-014 -58.8483339501605 12.7
vertex -8.00000000000001 -58.8483339501605 12.7
endloop
endfacet
facet normal 0.0 -1.0 0.0
outer loop
vertex 0.0 -71.1 5.00926674815342e-030
vertex -8.00000000000003 -71.1 28.0
vertex -8.0 -71.1 -8.43769498715119e-015
endloop
endfacet
facet normal 0.0 -1.0 0.0
outer loop
vertex -8.00000000000003 -71.1 28.0
vertex 0.0 -71.1 5.00926674815342e-030
vertex -2.8199664825479e-014 -71.1 28.0
endloop
endfacet
facet normal -0.421709681486123 0.421709681486124 -0.802696635773282
outer loop
vertex -12.3317562521298 -30.7682437478702 22.8296629935061
vertex -16.5307335187508 -37.8829749802339 20.8308785019529
vertex -17.9886105016222 -36.4250979973626 22.8296629935061
endloop
endfacet
facet normal -0.554243952656247 0.554243952656247 -0.620988954722996
outer loop
vertex -16.5307335187508 -37.8829749802339 20.8308785019529
vertex -12.3317562521298 -30.7682437478702 22.8296629935061
vertex -10.8738792692584 -32.2261207307416 20.8308785019529
endloop
endfacet
facet normal 0.103154542415784 -0.103154542415783 -0.989301915877039
outer loop
vertex -18.1052627150508 -24.9947372849492 24.8823210746474
vertex -21.7318500180425 -32.6818584809423 24.926843989411
vertex -23.7621169645432 -30.6515915344416 24.8823210746474
endloop
endfacet
facet normal -0.0814151799933692 0.0814151799933703 -0.993349453582824
outer loop
vertex -21.7318500180425 -32.6818584809423 24.926843989411
vertex -18.1052627150508 -24.9947372849492 24.8823210746474
vertex -16.0749957685501 -27.0250042314499 24.926843989411
endloop
endfacet
facet normal 0.439105500926579 -0.439105500926577 -0.783819314709735
outer loop
vertex -21.8007232586695 -21.2992767413305 22.6220124618071
vertex -25.7150559835022 -28.6986525154826 24.0961859625324
vertex -27.4575775081619 -26.9561309908229 22.6220124618071
endloop
endfacet
facet normal 0.280694453230244 -0.280694453230243 -0.917835087502951
outer loop
vertex -25.7150559835022 -28.6986525154826 24.0961859625324
vertex -21.8007232586695 -21.2992767413305 22.6220124618071
vertex -20.0582017340098 -23.0417982659902 24.0961859625324
endloop
endfacet
facet normal -0.0231358853374812 0.0231358853374836 -0.999464587476366
outer loop
vertex -24.7487373415291 -18.3512626584708 -1.47212434209826e-014
vertex -8.0 -46.4137084989848 -7.51207407004408e-015
vertex -30.4055915910215 -24.0081169079632 -3.10196313080269e-014
endloop
endfacet
facet normal 1.01206070388162e-015 1.13298895625872e-016 -1.0
outer loop
vertex -8.0 -46.4137084989848 -7.51207407004408e-015
vertex -24.7487373415291 -18.3512626584708 -1.47212434209826e-014
vertex 0.0 -43.1 0.0
endloop
endfacet
facet normal 1.01206070388162e-015 1.13298895625872e-016 -1.0
outer loop
vertex -8.0 -46.4137084989848 -7.51207407004408e-015
vertex 0.0 -43.1 0.0
vertex -8.0 -71.1 -8.43769498715119e-015
endloop
endfacet
facet normal 1.01206070388162e-015 1.13298895625872e-016 -1.0
outer loop
vertex -8.0 -71.1 -8.43769498715119e-015
vertex 0.0 -43.1 0.0
vertex 0.0 -71.1 5.00926674815342e-030
endloop
endfacet
facet normal 0.657398495072032 -0.657398495072028 -0.368312961154043
outer loop
vertex -29.8588004437618 -24.5549080552229 18.0514425726944
vertex -23.2140773267772 -19.8859226732228 20.5602630603588
vertex -28.8709315762696 -25.5427769227152 20.5602630603588
endloop
endfacet
facet normal 0.567592234390918 -0.567592234390914 -0.596387550941714
outer loop
vertex -23.2140773267772 -19.8859226732228 20.5602630603588
vertex -29.8588004437618 -24.5549080552229 18.0514425726944
vertex -24.2019461942695 -18.8980538057305 18.0514425726944
endloop
endfacet
facet normal -0.702404134716367 0.702404134716366 0.11513845172967
outer loop
vertex -9.24411726659712 -33.8558827334029 12.7334770309736
vertex -15.3960335521772 -39.0176749468076 9.94855742730551
vertex -14.9009715160895 -39.5127369828953 12.7334770309736
endloop
endfacet
facet normal -0.657398495072031 0.65739849507203 0.368312961154042
outer loop
vertex -15.3960335521772 -39.0176749468076 9.94855742730551
vertex -9.24411726659712 -33.8558827334029 12.7334770309736
vertex -9.73917930268482 -33.3608206973152 9.94855742730552
endloop
endfacet
facet normal -8.78499366981832e-016 2.55795513446626e-016 1.0
outer loop
vertex -2.8199664825479e-014 -71.1 28.0
vertex -8.00000000000003 -46.4137084989848 28.0
vertex -8.00000000000003 -71.1 28.0
endloop
endfacet
facet normal -8.78499366981832e-016 2.55795513446626e-016 1.0
outer loop
vertex -8.00000000000003 -46.4137084989848 28.0
vertex -25.0589990930073 -18.0410009069927 28.0
vertex -30.7158533424997 -23.697855156485 28.0
endloop
endfacet
facet normal -0.0469240097243885 0.0469240097243886 0.997795707859465
outer loop
vertex -25.0589990930073 -18.0410009069927 28.0
vertex -8.00000000000003 -46.4137084989848 28.0
vertex -2.8199664825479e-014 -43.1 28.0
endloop
endfacet
facet normal -8.78499366981832e-016 2.55795513446626e-016 1.0
outer loop
vertex -2.8199664825479e-014 -43.1 28.0
vertex -8.00000000000003 -46.4137084989848 28.0
vertex -2.8199664825479e-014 -71.1 28.0
endloop
endfacet
facet normal 0.567592234390918 -0.567592234390914 -0.596387550941714
outer loop
vertex -23.2140773267772 -19.8859226732228 20.5602630603588
vertex -27.4575775081619 -26.9561309908229 22.6220124618071
vertex -28.8709315762696 -25.5427769227152 20.5602630603588
endloop
endfacet
facet normal 0.439105500926579 -0.439105500926576 -0.783819314709735
outer loop
vertex -27.4575775081619 -26.9561309908229 22.6220124618071
vertex -23.2140773267772 -19.8859226732228 20.5602630603588
vertex -21.8007232586695 -21.2992767413305 22.6220124618071
endloop
endfacet
facet normal 0.421709681486125 -0.421709681486124 0.802696635773281
outer loop
vertex -27.2662234943169 -27.1474850046679 5.17033700649388
vertex -23.0672462276959 -20.0327537723041 7.16912149804702
vertex -28.7241004771882 -25.6896080217965 7.16912149804702
endloop
endfacet
facet normal 0.554243952656248 -0.554243952656246 0.620988954722997
outer loop
vertex -23.0672462276959 -20.0327537723041 7.16912149804702
vertex -27.2662234943169 -27.1474850046679 5.17033700649388
vertex -21.6093692448245 -21.4906307551755 5.17033700649389
endloop
endfacet
facet normal 0.0814151799933692 -0.0814151799933702 0.993349453582824
outer loop
vertex -23.5229839778966 -30.8907245210882 3.07315601058892
vertex -19.8353652652173 -23.2646347347827 3.77327945624018
vertex -25.4922195147097 -28.9214889842751 3.77327945624017
endloop
endfacet
facet normal 0.260436592430921 -0.260436592430922 0.929701867614527
outer loop
vertex -19.8353652652173 -23.2646347347827 3.77327945624018
vertex -23.5229839778966 -30.8907245210882 3.07315601058892
vertex -17.8661297284042 -25.2338702715958 3.07315601058892
endloop
endfacet
facet normal -0.439105500926577 0.439105500926577 0.783819314709736
outer loop
vertex -17.7972564877772 -36.6164520112076 5.37798753819288
vertex -13.8829237629445 -29.2170762370555 3.90381403746752
vertex -19.5397780124368 -34.8739304865479 3.90381403746751
endloop
endfacet
facet normal -0.280694453230243 0.280694453230242 0.917835087502951
outer loop
vertex -13.8829237629445 -29.2170762370555 3.90381403746752
vertex -17.7972564877772 -36.6164520112076 5.37798753819288
vertex -12.1404022382848 -30.9595977617152 5.37798753819289
endloop
endfacet
facet normal 1.0 5.03565443312124e-017 1.00713088662425e-015
outer loop
vertex 0.0 -71.1 5.00926674815342e-030
vertex -1.12798659301916e-014 -63.3516660498395 12.7
vertex -2.8199664825479e-014 -71.1 28.0
endloop
endfacet
facet normal 1.0 5.03565443312124e-017 1.00713088662425e-015
outer loop
vertex -1.12798659301916e-014 -63.3516660498395 12.7
vertex 0.0 -71.1 5.00926674815342e-030
vertex -1.12798659301916e-014 -62.938477631085 12.161522368915
endloop
endfacet
facet normal 1.0 5.03565443312124e-017 1.00713088662425e-015
outer loop
vertex -1.12798659301916e-014 -62.938477631085 12.161522368915
vertex 0.0 -71.1 5.00926674815342e-030
vertex -1.12798659301916e-014 -62.4 11.7483339501605
endloop
endfacet
facet normal 1.0 5.03565443312124e-017 1.00713088662425e-015
outer loop
vertex -1.12798659301916e-014 -62.4 11.7483339501605
vertex 0.0 -71.1 5.00926674815342e-030
vertex 0.0 -43.1 0.0
endloop
endfacet
facet normal 1.0 5.03565443312124e-017 1.00713088662425e-015
outer loop
vertex -2.8199664825479e-014 -71.1 28.0
vertex -1.12798659301916e-014 -63.3516660498395 12.7
vertex -1.12798659301916e-014 -63.6114071483516 13.3270704827334
endloop
endfacet
facet normal 1.0 5.03565443312124e-017 1.00713088662425e-015
outer loop
vertex -2.8199664825479e-014 -71.1 28.0
vertex -1.12798659301916e-014 -63.6114071483516 13.3270704827334
vertex -1.12798659301916e-014 -63.7 14.0
endloop
endfacet
facet normal 1.0 5.03565443312124e-017 1.00713088662425e-015
outer loop
vertex -1.12798659301916e-014 -62.4 11.7483339501605
vertex 0.0 -43.1 0.0
vertex -1.12798659301916e-014 -61.7729295172665 11.4885928516484
endloop
endfacet
facet normal 1.0 5.03565443312124e-017 1.00713088662425e-015
outer loop
vertex -1.12798659301916e-014 -61.7729295172665 11.4885928516484
vertex 0.0 -43.1 0.0
vertex -1.12798659301916e-014 -61.1 11.4
endloop
endfacet
facet normal 1.0 5.03565443312124e-017 1.00713088662425e-015
outer loop
vertex -1.12798659301916e-014 -61.1 11.4
vertex 0.0 -43.1 0.0
vertex -1.12798659301916e-014 -60.4270704827334 11.4885928516484
endloop
endfacet
facet normal 1.0 5.03565443312124e-017 1.00713088662425e-015
outer loop
vertex -1.12798659301916e-014 -60.4270704827334 11.4885928516484
vertex 0.0 -43.1 0.0
vertex -1.12798659301916e-014 -59.8 11.7483339501605
endloop
endfacet
facet normal 1.0 5.03565443312124e-017 1.00713088662425e-015
outer loop
vertex -1.12798659301916e-014 -59.8 11.7483339501605
vertex 0.0 -43.1 0.0
vertex -1.12798659301916e-014 -59.261522368915 12.161522368915
endloop
endfacet
facet normal 1.0 5.03565443312124e-017 1.00713088662425e-015
outer loop
vertex -1.12798659301916e-014 -59.261522368915 12.161522368915
vertex 0.0 -43.1 0.0
vertex -1.12798659301916e-014 -58.8483339501605 12.7
endloop
endfacet
facet normal 1.0 5.03565443312124e-017 1.00713088662425e-015
outer loop
vertex -1.12798659301916e-014 -58.8483339501605 12.7
vertex 0.0 -43.1 0.0
vertex -1.12798659301916e-014 -58.5885928516484 13.3270704827334
endloop
endfacet
facet normal 1.0 5.03565443312124e-017 1.00713088662425e-015
outer loop
vertex -1.12798659301916e-014 -58.5885928516484 13.3270704827334
vertex 0.0 -43.1 0.0
vertex -1.12798659301916e-014 -58.5 14.0
endloop
endfacet
facet normal 1.0 5.03565443312124e-017 1.00713088662425e-015
outer loop
vertex -2.8199664825479e-014 -71.1 28.0
vertex -1.69197988952874e-014 -62.4 16.2516660498395
vertex -2.8199664825479e-014 -43.1 28.0
endloop
endfacet
facet normal 1.0 5.03565443312124e-017 1.00713088662425e-015
outer loop
vertex -1.69197988952874e-014 -62.4 16.2516660498395
vertex -2.8199664825479e-014 -71.1 28.0
vertex -1.69197988952874e-014 -62.938477631085 15.838477631085
endloop
endfacet
facet normal 1.0 5.03565443312124e-017 1.00713088662425e-015
outer loop
vertex -1.69197988952874e-014 -62.938477631085 15.838477631085
vertex -2.8199664825479e-014 -71.1 28.0
vertex -1.69197988952874e-014 -63.3516660498395 15.3
endloop
endfacet
facet normal 1.0 5.03565443312124e-017 1.00713088662425e-015
outer loop
vertex -1.69197988952874e-014 -63.3516660498395 15.3
vertex -2.8199664825479e-014 -71.1 28.0
vertex -1.69197988952874e-014 -63.6114071483516 14.6729295172666
endloop
endfacet
facet normal 1.0 5.03565443312124e-017 1.00713088662425e-015
outer loop
vertex -1.69197988952874e-014 -63.6114071483516 14.6729295172666
vertex -2.8199664825479e-014 -71.1 28.0
vertex -1.12798659301916e-014 -63.7 14.0
endloop
endfacet
facet normal 1.0 5.03565443312124e-017 1.00713088662425e-015
outer loop
vertex -2.8199664825479e-014 -43.1 28.0
vertex -1.69197988952874e-014 -62.4 16.2516660498395
vertex -1.69197988952874e-014 -61.7729295172665 16.5114071483516
endloop
endfacet
facet normal 1.0 5.03565443312124e-017 1.00713088662425e-015
outer loop
vertex -2.8199664825479e-014 -43.1 28.0
vertex -1.69197988952874e-014 -61.7729295172665 16.5114071483516
vertex -1.69197988952874e-014 -61.1 16.6
endloop
endfacet
facet normal 1.0 5.03565443312124e-017 1.00713088662425e-015
outer loop
vertex -2.8199664825479e-014 -43.1 28.0
vertex -1.69197988952874e-014 -61.1 16.6
vertex -1.69197988952874e-014 -60.4270704827334 16.5114071483516
endloop
endfacet
facet normal 1.0 5.03565443312124e-017 1.00713088662425e-015
outer loop
vertex -2.8199664825479e-014 -43.1 28.0
vertex -1.69197988952874e-014 -60.4270704827334 16.5114071483516
vertex -1.69197988952874e-014 -59.8 16.2516660498395
endloop
endfacet
facet normal 1.0 5.03565443312124e-017 1.00713088662425e-015
outer loop
vertex -2.8199664825479e-014 -43.1 28.0
vertex -1.69197988952874e-014 -59.8 16.2516660498395
vertex -1.69197988952874e-014 -59.261522368915 15.838477631085
endloop
endfacet
facet normal 1.0 5.03565443312124e-017 1.00713088662425e-015
outer loop
vertex -2.8199664825479e-014 -43.1 28.0
vertex -1.69197988952874e-014 -59.261522368915 15.838477631085
vertex -1.69197988952874e-014 -58.8483339501605 15.3
endloop
endfacet
facet normal 1.0 5.03565443312124e-017 1.00713088662425e-015
outer loop
vertex -2.8199664825479e-014 -43.1 28.0
vertex -1.69197988952874e-014 -58.8483339501605 15.3
vertex -1.69197988952874e-014 -58.5885928516484 14.6729295172666
endloop
endfacet
facet normal 1.0 5.03565443312124e-017 1.00713088662425e-015
outer loop
vertex -2.8199664825479e-014 -43.1 28.0
vertex -1.69197988952874e-014 -58.5885928516484 14.6729295172666
vertex -1.12798659301916e-014 -58.5 14.0
endloop
endfacet
facet normal 1.0 5.03565443312124e-017 1.00713088662425e-015
outer loop
vertex -2.8199664825479e-014 -43.1 28.0
vertex -1.12798659301916e-014 -58.5 14.0
vertex 0.0 -43.1 0.0
endloop
endfacet
facet normal -0.353553390593271 0.353553390593274 -0.86602540378444
outer loop
vertex -25.8093975133089 -17.290602486691 0.401923788646667
vertex -31.2173857412408 -23.1963227577439 0.228361402466108
vertex -31.4662517628013 -22.9474567361834 0.401923788646651
endloop
endfacet
facet normal -0.270598050073097 0.2705980500731 -0.923879532511287
outer loop
vertex -31.2173857412408 -23.1963227577439 0.228361402466108
vertex -25.8093975133089 -17.290602486691 0.401923788646667
vertex -25.5605314917484 -17.5394685082515 0.228361402466124
endloop
endfacet
facet normal -0.270598050073097 0.2705980500731 -0.923879532511287
outer loop
vertex -25.5605314917484 -17.5394685082515 0.228361402466124
vertex -30.9546296966982 -23.4590788022865 0.102222521132763
vertex -31.2173857412408 -23.1963227577439 0.228361402466108
endloop
endfacet
facet normal -0.183012701892216 0.183012701892219 -0.965925826289069
outer loop
vertex -30.9546296966982 -23.4590788022865 0.102222521132763
vertex -25.5605314917484 -17.5394685082515 0.228361402466124
vertex -25.2977754472057 -17.8022245527942 0.102222521132779
endloop
endfacet
facet normal -0.499999999999998 0.500000000000001 -0.707106781186549
outer loop
vertex -26.2487373415291 -16.8512626584708 0.878679656440339
vertex -31.6969695947522 -22.7167389042326 0.619939979126261
vertex -31.9055915910215 -22.5081169079632 0.878679656440324
endloop
endfacet
facet normal -0.430459334576878 0.430459334576881 -0.793353340291235
outer loop
vertex -31.6969695947522 -22.7167389042326 0.619939979126261
vertex -26.2487373415291 -16.8512626584708 0.878679656440339
vertex -26.0401153452597 -17.0598846547402 0.619939979126277
endloop
endfacet
facet normal -0.430459334576878 0.430459334576881 -0.793353340291236
outer loop
vertex -26.0401153452597 -17.0598846547402 0.619939979126277
vertex -31.4662517628013 -22.9474567361834 0.401923788646651
vertex -31.6969695947522 -22.7167389042326 0.619939979126261
endloop
endfacet
facet normal -0.353553390593271 0.353553390593274 -0.866025403784439
outer loop
vertex -31.4662517628013 -22.9474567361834 0.401923788646651
vertex -26.0401153452597 -17.0598846547402 0.619939979126277
vertex -25.8093975133089 -17.290602486691 0.401923788646667
endloop
endfacet
facet normal -0.683012701892219 0.68301270189222 -0.25881904510252
outer loop
vertex -32.4546296966982 -21.9590788022865 2.2235428646924
vertex -26.7085817888436 -16.3914182111563 1.85194970290472
vertex -32.3654360383361 -22.0482724606486 1.8519497029047
endloop
endfacet
facet normal -0.653281482438188 0.65328148243819 -0.382683432365088
outer loop
vertex -26.7085817888436 -16.3914182111563 1.85194970290472
vertex -32.4546296966982 -21.9590788022865 2.2235428646924
vertex -26.7977754472057 -16.3022245527942 2.22354286469243
endloop
endfacet
facet normal -0.701057384649974 0.701057384649982 -0.130526192220054
outer loop
vertex -32.5087637449715 -21.9049447540133 2.60842142333981
vertex -26.7977754472057 -16.3022245527942 2.22354286469243
vertex -32.4546296966982 -21.9590788022865 2.2235428646924
endloop
endfacet
facet normal -0.683012701892219 0.68301270189222 -0.25881904510252
outer loop
vertex -26.7977754472057 -16.3022245527942 2.22354286469243
vertex -32.5087637449715 -21.9049447540133 2.60842142333981
vertex -26.851909495479 -16.2480905045209 2.60842142333983
endloop
endfacet
facet normal -0.706728187360347 0.70672818736036 -0.0327190828217777
outer loop
vertex -32.5269119345812 -21.8867965644036 2.99999999999997
vertex -26.851909495479 -16.2480905045209 2.60842142333983
vertex -32.5087637449715 -21.9049447540133 2.60842142333981
endloop
endfacet
facet normal -0.701057384649974 0.701057384649982 -0.130526192220054
outer loop
vertex -26.851909495479 -16.2480905045209 2.60842142333983
vertex -32.5269119345812 -21.8867965644036 2.99999999999997
vertex -26.8700576850887 -16.2299423149112 2.99999999999999
endloop
endfacet
facet normal -0.0922959556412552 0.0922959556412586 -0.991444861373811
outer loop
vertex -25.0256252084528 -18.0743747915471 0.0256654158785539
vertex -30.4055915910215 -24.0081169079632 -3.10196313080269e-014
vertex -30.6824794579453 -23.7312290410394 0.0256654158785376
endloop
endfacet
facet normal -0.0231358853374812 0.0231358853374836 -0.999464587476366
outer loop
vertex -30.4055915910215 -24.0081169079632 -3.10196313080269e-014
vertex -25.0256252084528 -18.0743747915471 0.0256654158785539
vertex -24.7487373415291 -18.3512626584708 -1.47212434209826e-014
endloop
endfacet
facet normal -0.612372435695793 0.612372435695795 -0.500000000000002
outer loop
vertex -32.2427088981089 -22.1709996008758 1.49999999999997
vertex -26.4316939219198 -16.6683060780801 1.17371571297382
vertex -32.0885481714123 -22.3251603275724 1.1737157129738
endloop
endfacet
facet normal -0.560985526796928 0.56098552679693 -0.608761429008725
outer loop
vertex -26.4316939219198 -16.6683060780801 1.17371571297382
vertex -32.2427088981089 -22.1709996008758 1.49999999999997
vertex -26.5858546486164 -16.5141453513835 1.49999999999998
endloop
endfacet
facet normal -0.183012701892216 0.183012701892219 -0.965925826289069
outer loop
vertex -25.2977754472057 -17.8022245527942 0.102222521132779
vertex -30.6824794579453 -23.7312290410394 0.0256654158785376
vertex -30.9546296966982 -23.4590788022865 0.102222521132763
endloop
endfacet
facet normal -0.092295955641255 0.0922959556412583 -0.99144486137381
outer loop
vertex -30.6824794579453 -23.7312290410394 0.0256654158785376
vertex -25.2977754472057 -17.8022245527942 0.102222521132779
vertex -25.0256252084528 -18.0743747915471 0.0256654158785539
endloop
endfacet
facet normal -0.560985526796928 0.56098552679693 -0.608761429008725
outer loop
vertex -26.4316939219198 -16.6683060780801 1.17371571297382
vertex -31.9055915910215 -22.5081169079632 0.878679656440324
vertex -32.0885481714123 -22.3251603275724 1.1737157129738
endloop
endfacet
facet normal -0.499999999999998 0.500000000000001 -0.707106781186548
outer loop
vertex -31.9055915910215 -22.5081169079632 0.878679656440324
vertex -26.4316939219198 -16.6683060780801 1.17371571297382
vertex -26.2487373415291 -16.8512626584708 0.878679656440339
endloop
endfacet
facet normal -0.653281482438188 0.65328148243819 -0.382683432365088
outer loop
vertex -32.3654360383361 -22.0482724606486 1.8519497029047
vertex -26.5858546486164 -16.5141453513835 1.49999999999998
vertex -32.2427088981089 -22.1709996008758 1.49999999999997
endloop
endfacet
facet normal -0.612372435695792 0.612372435695795 -0.500000000000002
outer loop
vertex -26.5858546486164 -16.5141453513835 1.49999999999998
vertex -32.3654360383361 -22.0482724606486 1.8519497029047
vertex -26.7085817888436 -16.3914182111563 1.85194970290472
endloop
endfacet
endsolid 16mmBearing-5mmHole
