solid SpoolHolderBracketV5
facet normal 0.486760276350163 -0.843093529744749 -0.228599504527139
outer loop
vertex 10.1985248966274 22.3356367167853 16.5943587117706
vertex 6.85446243955505 20.1277227961182 17.2292171453568
vertex 6.7344232814896 20.3356367167853 16.5943587117706
endloop
endfacet
facet normal 0.440591369401914 -0.763126637180463 -0.472775825137225
outer loop
vertex 6.85446243955505 20.1277227961182 17.2292171453568
vertex 10.1985248966274 22.3356367167853 16.5943587117706
vertex 10.3185640546928 22.1277227961182 17.2292171453568
endloop
endfacet
facet normal -0.425013622132951 0.736145187443151 -0.52673872461185
outer loop
vertex 9.1050354175457 16.2296160520968 17.3695206839908
vertex 12.7087128817486 17.9878635900064 16.7508469751565
vertex 9.24461126661084 15.9878635900064 16.7508469751565
endloop
endfacet
facet normal -0.47869664100416 0.829126903631763 -0.288787298137123
outer loop
vertex 12.7087128817486 17.9878635900064 16.7508469751565
vertex 9.1050354175457 16.2296160520968 17.3695206839908
vertex 12.5691370326835 18.2296160520968 17.3695206839908
endloop
endfacet
facet normal 0.126828121510695 -0.219672750285044 0.967294427967138
outer loop
vertex 10.4494766430522 21.9009755417293 8.26164457626289
vertex 14.6787846925914 26.5755991190675 9.05053117603295
vertex 9.48263226988474 23.5755991190675 9.05053117603295
endloop
endfacet
facet normal 0.247683668156631 -0.429000697452314 0.868683602995881
outer loop
vertex 14.6787846925914 26.5755991190675 9.05053117603295
vertex 10.4494766430522 21.9009755417293 8.26164457626289
vertex 15.6456290657588 24.9009755417293 8.26164457626289
endloop
endfacet
facet normal -0.486760276350163 0.843093529744749 0.228599504527139
outer loop
vertex 9.26557671851045 15.9515503621126 15.4056412882294
vertex 12.6096391755828 18.1594642827798 14.7707828546432
vertex 9.145537560445 16.1594642827798 14.7707828546432
endloop
endfacet
facet normal -0.440591369401914 0.763126637180463 0.472775825137225
outer loop
vertex 12.6096391755828 18.1594642827798 14.7707828546432
vertex 9.26557671851045 15.9515503621126 15.4056412882294
vertex 12.7296783336482 17.9515503621126 15.4056412882294
endloop
endfacet
facet normal -0.236387912568613 0.409435874863987 -0.881182738803828
outer loop
vertex 12.0787101878162 19.0790602648026 18.29107512089
vertex 8.89015323093219 16.6018029169529 17.8948638214511
vertex 8.61460857267842 17.0790602648026 18.29107512089
endloop
endfacet
facet normal -0.342366627281601 0.59299639326773 -0.728793777481178
outer loop
vertex 8.89015323093219 16.6018029169529 17.8948638214511
vertex 12.0787101878162 19.0790602648026 18.29107512089
vertex 12.3542548460699 18.6018029169529 17.8948638214511
endloop
endfacet
facet normal -0.499757274874538 0.865604991534865 -0.0311554945379257
outer loop
vertex 9.29936891467382 15.8930205614583 16.0810042857986
vertex 12.7296783336482 17.9515503621126 15.4056412882294
vertex 9.26557671851045 15.9515503621126 15.4056412882294
endloop
endfacet
facet normal -0.486760276350163 0.843093529744749 0.228599504527139
outer loop
vertex 12.7296783336482 17.9515503621126 15.4056412882294
vertex 9.29936891467382 15.8930205614583 16.0810042857986
vertex 12.7634705298116 17.8930205614583 16.0810042857986
endloop
endfacet
facet normal 0.425013622132951 -0.736145187443151 0.52673872461185
outer loop
vertex 10.3590661975921 22.0575710268012 14.6304793160092
vertex 6.75538873338921 20.2993234888916 15.2491530248435
vertex 6.89496458245435 20.0575710268012 14.6304793160092
endloop
endfacet
facet normal 0.47869664100416 -0.829126903631763 0.288787298137123
outer loop
vertex 6.75538873338921 20.2993234888916 15.2491530248435
vertex 10.3590661975921 22.0575710268012 14.6304793160092
vertex 10.219490348527 22.2993234888916 15.2491530248435
endloop
endfacet
facet normal -1.12206041221615e-016 2.51266731741081e-016 -1.0
outer loop
vertex 42.1999999999999 193.0 3.15768256144075e-014
vertex 32.2 58.0 9.16489106828067e-015
vertex 32.1999999999999 193.0 3.29583582647786e-014
endloop
endfacet
facet normal -1.12206041221615e-016 2.51266731741081e-016 -1.0
outer loop
vertex 3.41713585532275e-014 58.0 7.72779341061717e-015
vertex 10.0 47.695547621385 4.12102916907453e-015
vertex 10.0 34.6794919243112 7.49607588847791e-016
endloop
endfacet
facet normal -1.12206041221615e-016 2.51266731741081e-016 -1.0
outer loop
vertex 10.0 47.695547621385 4.12102916907453e-015
vertex 3.41713585532275e-014 58.0 7.72779341061717e-015
vertex 32.2 58.0 9.16489106828067e-015
endloop
endfacet
facet normal -1.12206041221615e-016 2.51266731741081e-016 -1.0
outer loop
vertex 10.0 47.695547621385 4.12102916907453e-015
vertex 32.2 58.0 9.16489106828067e-015
vertex 42.2 47.695547621385 4.12102916907453e-015
endloop
endfacet
facet normal -1.12206041221615e-016 2.51266731741081e-016 -1.0
outer loop
vertex 42.2 47.695547621385 4.12102916907453e-015
vertex 32.2 58.0 9.16489106828067e-015
vertex 42.1999999999999 193.0 3.15768256144075e-014
endloop
endfacet
facet normal -1.12206041221615e-016 2.51266731741081e-016 -1.0
outer loop
vertex 3.41713585532275e-014 58.0 7.72779341061717e-015
vertex 16.0 4.28718707889797 -7.08927482418298e-015
vertex 1.69197988952874e-014 32.0 1.12798659301916e-014
endloop
endfacet
facet normal -1.12206041221615e-016 2.51266731741081e-016 -1.0
outer loop
vertex 16.0 4.28718707889797 -7.08927482418298e-015
vertex 3.41713585532275e-014 58.0 7.72779341061717e-015
vertex 10.0 34.6794919243112 7.49607588847791e-016
endloop
endfacet
facet normal -1.12206041221615e-016 2.51266731741081e-016 -1.0
outer loop
vertex 16.0 4.28718707889797 -7.08927482418298e-015
vertex 10.0 34.6794919243112 7.49607588847791e-016
vertex 24.6602540378444 9.28718707889797 -5.74605302781579e-015
endloop
endfacet
facet normal 0.440591369401914 -0.763126637180463 -0.472775825137226
outer loop
vertex 10.3185640546928 22.1277227961182 17.2292171453568
vertex 7.05256808927449 19.7845937455377 17.7803064618643
vertex 6.85446243955505 20.1277227961182 17.2292171453568
endloop
endfacet
facet normal 0.364396888740589 -0.631153925418724 -0.684733254563202
outer loop
vertex 7.05256808927449 19.7845937455377 17.7803064618643
vertex 10.3185640546928 22.1277227961182 17.2292171453568
vertex 10.5166697044122 21.7845937455377 17.7803064618643
endloop
endfacet
facet normal 0.0155777472689627 -0.0269814497373105 -0.999514549749076
outer loop
vertex 11.4235994722385 20.213745308766 18.5987378293476
vertex 8.29717935588531 17.6288637960951 18.5311534370208
vertex 7.95949785710072 18.213745308766 18.5987378293476
endloop
endfacet
facet normal -0.11429975226357 0.197972978213038 -0.973520552700325
outer loop
vertex 8.29717935588531 17.6288637960951 18.5311534370208
vertex 11.4235994722385 20.213745308766 18.5987378293476
vertex 11.7612809710231 19.6288637960951 18.5311534370208
endloop
endfacet
facet normal -0.11429975226357 0.197972978213039 -0.973520552700325
outer loop
vertex 11.7612809710231 19.6288637960951 18.5311534370208
vertex 8.61460857267842 17.0790602648026 18.29107512089
vertex 8.29717935588531 17.6288637960951 18.5311534370208
endloop
endfacet
facet normal -0.236387912568613 0.409435874863987 -0.881182738803828
outer loop
vertex 8.61460857267842 17.0790602648026 18.29107512089
vertex 11.7612809710231 19.6288637960951 18.5311534370208
vertex 12.0787101878162 19.0790602648026 18.29107512089
endloop
endfacet
facet normal -0.364396888740589 0.631153925418723 0.684733254563202
outer loop
vertex 8.94743191072556 16.5025933333603 14.2196935381357
vertex 12.1488619571332 18.9575538361047 13.7899291649086
vertex 8.68476034199543 16.9575538361047 13.7899291649086
endloop
endfacet
facet normal -0.263369362305925 0.456169116670877 0.850027244265901
outer loop
vertex 12.1488619571332 18.9575538361047 13.7899291649086
vertex 8.94743191072556 16.5025933333603 14.2196935381357
vertex 12.4115335258633 18.5025933333603 14.2196935381357
endloop
endfacet
facet normal -0.00267055202281344 0.00462553178776847 0.999985736202059
outer loop
vertex 11.4854660313203 20.1065892851468 8.00011411038353
vertex 15.6456290657588 24.9009755417293 8.26164457626289
vertex 10.4494766430522 21.9009755417293 8.26164457626289
endloop
endfacet
facet normal 0.126828121510695 -0.219672750285044 0.967294427967138
outer loop
vertex 15.6456290657588 24.9009755417293 8.26164457626289
vertex 11.4854660313203 20.1065892851468 8.00011411038353
vertex 16.6816184540269 23.1065892851468 8.00011411038353
endloop
endfacet
facet normal -0.47869664100416 0.829126903631763 -0.288787298137123
outer loop
vertex 9.24461126661084 15.9878635900064 16.7508469751565
vertex 12.7634705298116 17.8930205614583 16.0810042857986
vertex 9.29936891467382 15.8930205614583 16.0810042857986
endloop
endfacet
facet normal -0.499757274874538 0.865604991534865 -0.0311554945379258
outer loop
vertex 12.7634705298116 17.8930205614583 16.0810042857986
vertex 9.24461126661084 15.9878635900064 16.7508469751565
vertex 12.7087128817486 17.9878635900064 16.7508469751565
endloop
endfacet
facet normal 0.131987231849263 -0.228608591513296 -0.964529669069374
outer loop
vertex 15.6043561830503 24.9724622715554 23.716237352555
vertex 11.4427371989553 20.1805977937511 23.9998858896165
vertex 10.4082037603437 21.9724622715554 23.716237352555
endloop
endfacet
facet normal 0.00267055202281337 -0.00462553178776833 -0.999985736202059
outer loop
vertex 11.4427371989553 20.1805977937511 23.9998858896165
vertex 15.6043561830503 24.9724622715554 23.716237352555
vertex 16.6388896216619 23.1805977937511 23.9998858896165
endloop
endfacet
facet normal -0.482264834534687 0.835307196117875 -0.263974463698526
outer loop
vertex 15.3222202914153 13.461135970506 18.1117957095882
vertex 20.6601969826526 16.2154891316644 16.042728832365
vertex 15.464044559946 13.2154891316645 16.042728832365
endloop
endfacet
facet normal -0.49999286810103 0.866013050973067 -0.00534110404562638
outer loop
vertex 20.6601969826526 16.2154891316644 16.042728832365
vertex 15.3222202914153 13.461135970506 18.1117957095882
vertex 20.5183727141219 16.461135970506 18.1117957095882
endloop
endfacet
facet normal 0.11429975226357 -0.197972978213038 0.973520552700325
outer loop
vertex 7.70282064411474 18.6583232828029 13.4688465629791
vertex 10.8494930424594 21.2081268140954 13.70892487911
vertex 7.38539142732163 19.2081268140954 13.70892487911
endloop
endfacet
facet normal 0.236387912568613 -0.409435874863987 0.881182738803828
outer loop
vertex 10.8494930424594 21.2081268140954 13.70892487911
vertex 7.70282064411474 18.6583232828029 13.4688465629791
vertex 11.1669222592525 20.6583232828029 13.4688465629791
endloop
endfacet
facet normal 0.355436713023992 -0.615634445832832 -0.703319964268613
outer loop
vertex 13.8167603336525 28.0686691061116 21.6265597141489
vertex 7.98936720315425 26.1620100838124 19.9629386905061
vertex 13.1855196258609 29.1620100838124 19.9629386905061
endloop
endfacet
facet normal 0.43434180149794 -0.752302068045428 -0.495367336313261
outer loop
vertex 7.98936720315425 26.1620100838124 19.9629386905061
vertex 13.8167603336525 28.0686691061116 21.6265597141489
vertex 8.62060791094584 25.0686691061116 21.6265597141489
endloop
endfacet
facet normal -0.247683668156631 0.429000697452314 -0.86868360299588
outer loop
vertex 18.6417233830975 19.7115879598305 22.949468823967
vertex 14.2773814722122 15.2708498910859 21.6869874083839
vertex 13.4455709603908 16.7115879598305 22.949468823967
endloop
endfacet
facet normal -0.351659982134306 0.609092956045382 -0.710873426047983
outer loop
vertex 14.2773814722122 15.2708498910859 21.6869874083839
vertex 18.6417233830975 19.7115879598305 22.949468823967
vertex 19.4735338949189 18.2708498910859 21.6869874083839
endloop
endfacet
facet normal 0.5 -0.866025403784438 -2.21539838255718e-016
outer loop
vertex 24.6602540378444 9.28718707889797 -5.74605302781579e-015
vertex 16.0 4.28718707889796 32.0
vertex 16.0 4.28718707889797 -7.08927482418298e-015
endloop
endfacet
facet normal 0.5 -0.866025403784438 -2.21539838255718e-016
outer loop
vertex 16.0 4.28718707889796 32.0
vertex 24.6602540378444 9.28718707889797 -5.74605302781579e-015
vertex 24.6602540378444 9.28718707889796 32.0
endloop
endfacet
facet normal -0.126828121510695 0.219672750285044 -0.967294427967138
outer loop
vertex 17.67487900993 21.3862115371686 23.7383554237371
vertex 13.4455709603908 16.7115879598305 22.949468823967
vertex 12.4787265872233 18.3862115371686 23.7383554237371
endloop
endfacet
facet normal -0.247683668156631 0.429000697452314 -0.86868360299588
outer loop
vertex 13.4455709603908 16.7115879598305 22.949468823967
vertex 17.67487900993 21.3862115371686 23.7383554237371
vertex 18.6417233830975 19.7115879598305 22.949468823967
endloop
endfacet
facet normal -5.48592176141752e-017 -2.7888313453977e-016 1.0
outer loop
vertex 16.0 4.28718707889796 32.0
vertex 3.41713585532275e-014 58.0 32.0
vertex 1.69197988952874e-014 32.0 32.0
endloop
endfacet
facet normal -5.48592176141752e-017 -2.7888313453977e-016 1.0
outer loop
vertex 3.41713585532275e-014 58.0 32.0
vertex 16.0 4.28718707889796 32.0
vertex 10.0 34.6794919243112 32.0
endloop
endfacet
facet normal -5.48592176141752e-017 -2.7888313453977e-016 1.0
outer loop
vertex 10.0 34.6794919243112 32.0
vertex 16.0 4.28718707889796 32.0
vertex 24.6602540378444 9.28718707889796 32.0
endloop
endfacet
facet normal -5.48592176141752e-017 -2.7888313453977e-016 1.0
outer loop
vertex 3.41713585532275e-014 58.0 32.0
vertex 10.0 47.695547621385 32.0
vertex 32.2 58.0 32.0
endloop
endfacet
facet normal -5.48592176141752e-017 -2.7888313453977e-016 1.0
outer loop
vertex 10.0 47.695547621385 32.0
vertex 3.41713585532275e-014 58.0 32.0
vertex 10.0 34.6794919243112 32.0
endloop
endfacet
facet normal -5.48592176141752e-017 -2.7888313453977e-016 1.0
outer loop
vertex 32.2 58.0 32.0
vertex 10.0 47.695547621385 32.0
vertex 42.2 47.695547621385 32.0
endloop
endfacet
facet normal -5.48592176141752e-017 -2.7888313453977e-016 1.0
outer loop
vertex 32.2 58.0 32.0
vertex 42.2 47.695547621385 32.0
vertex 42.1999999999999 193.0 32.0
endloop
endfacet
facet normal -5.48592176141752e-017 -2.7888313453977e-016 1.0
outer loop
vertex 42.1999999999999 193.0 32.0
vertex 32.1999999999999 193.0 32.0
vertex 32.2 58.0 32.0
endloop
endfacet
facet normal -0.342366627281601 0.59299639326773 -0.728793777481178
outer loop
vertex 8.89015323093219 16.6018029169529 17.8948638214511
vertex 12.5691370326835 18.2296160520968 17.3695206839908
vertex 9.1050354175457 16.2296160520968 17.3695206839908
endloop
endfacet
facet normal -0.425013622132951 0.73614518744315 -0.52673872461185
outer loop
vertex 12.5691370326835 18.2296160520968 17.3695206839908
vertex 8.89015323093219 16.6018029169529 17.8948638214511
vertex 12.3542548460699 18.6018029169529 17.8948638214511
endloop
endfacet
facet normal 0.49999286810103 -0.866013050973067 0.00534110404562615
outer loop
vertex 12.6603110930362 30.0716979472335 15.957271167635
vertex 7.60598293886028 26.826051108392 13.8882042904118
vertex 12.8021353615669 29.826051108392 13.8882042904118
endloop
endfacet
facet normal 0.482264834534687 -0.835307196117876 0.263974463698525
outer loop
vertex 7.60598293886028 26.826051108392 13.8882042904118
vertex 12.6603110930362 30.0716979472335 15.957271167635
vertex 7.46415867032954 27.0716979472335 15.957271167635
endloop
endfacet
facet normal 0.144393649068561 -0.250097136477019 -0.957393282008319
outer loop
vertex 11.0886781275595 20.7938460942892 18.4892225332216
vertex 7.95949785710072 18.213745308766 18.5987378293476
vertex 7.62457651242176 18.7938460942892 18.4892225332216
endloop
endfacet
facet normal 0.0155777472689628 -0.0269814497373106 -0.999514549749076
outer loop
vertex 7.95949785710072 18.213745308766 18.5987378293476
vertex 11.0886781275595 20.7938460942892 18.4892225332216
vertex 11.4235994722385 20.213745308766 18.5987378293476
endloop
endfacet
facet normal -0.131987231849263 0.228608591513296 0.964529669069374
outer loop
vertex 12.5199994699319 18.3147248073426 8.28376264744501
vertex 16.6816184540269 23.1065892851468 8.00011411038353
vertex 11.4854660313203 20.1065892851468 8.00011411038353
endloop
endfacet
facet normal -0.00267055202281342 0.00462553178776843 0.999985736202059
outer loop
vertex 16.6816184540269 23.1065892851468 8.00011411038353
vertex 12.5199994699319 18.3147248073426 8.28376264744501
vertex 17.7161518926385 21.3147248073426 8.28376264744501
endloop
endfacet
facet normal -0.431671249475127 0.74767653625766 -0.504618399888798
outer loop
vertex 14.9174716109388 14.1621812493877 20.0369471991104
vertex 20.5183727141219 16.461135970506 18.1117957095882
vertex 15.3222202914153 13.461135970506 18.1117957095882
endloop
endfacet
facet normal -0.482264834534687 0.835307196117876 -0.263974463698526
outer loop
vertex 20.5183727141219 16.461135970506 18.1117957095882
vertex 14.9174716109388 14.1621812493877 20.0369471991104
vertex 20.1136240336454 17.1621812493877 20.0369471991104
endloop
endfacet
facet normal -0.440591369401914 0.763126637180463 0.472775825137225
outer loop
vertex 9.145537560445 16.1594642827798 14.7707828546432
vertex 12.4115335258633 18.5025933333603 14.2196935381357
vertex 8.94743191072556 16.5025933333603 14.2196935381357
endloop
endfacet
facet normal -0.364396888740589 0.631153925418723 0.684733254563202
outer loop
vertex 12.4115335258633 18.5025933333603 14.2196935381357
vertex 9.145537560445 16.1594642827798 14.7707828546432
vertex 12.6096391755828 18.1594642827798 14.7707828546432
endloop
endfacet
facet normal 0.236387912568613 -0.409435874863987 0.881182738803828
outer loop
vertex 7.38539142732163 19.2081268140954 13.70892487911
vertex 10.5739483842056 21.6853841619451 14.1051361785489
vertex 7.10984676906786 19.6853841619451 14.1051361785489
endloop
endfacet
facet normal 0.342366627281601 -0.59299639326773 0.728793777481178
outer loop
vertex 10.5739483842056 21.6853841619451 14.1051361785489
vertex 7.38539142732163 19.2081268140954 13.70892487911
vertex 10.8494930424594 21.2081268140954 13.70892487911
endloop
endfacet
facet normal -0.144393649068562 0.250097136477019 0.957393282008319
outer loop
vertex 8.37542348757829 17.4933409846087 13.5107774667784
vertex 11.5046037580371 20.073441770132 13.4012621706524
vertex 8.04050214289933 18.073441770132 13.4012621706524
endloop
endfacet
facet normal -0.015577747268963 0.026981449737311 0.999514549749076
outer loop
vertex 11.5046037580371 20.073441770132 13.4012621706524
vertex 8.37542348757829 17.4933409846087 13.5107774667784
vertex 11.839525102716 19.4933409846087 13.5107774667784
endloop
endfacet
facet normal -0.015577747268963 0.0269814497373109 0.999514549749076
outer loop
vertex 8.04050214289933 18.073441770132 13.4012621706524
vertex 11.1669222592525 20.6583232828029 13.4688465629791
vertex 7.70282064411474 18.6583232828029 13.4688465629791
endloop
endfacet
facet normal 0.11429975226357 -0.197972978213038 0.973520552700325
outer loop
vertex 11.1669222592525 20.6583232828029 13.4688465629791
vertex 8.04050214289933 18.073441770132 13.4012621706524
vertex 11.5046037580371 20.073441770132 13.4012621706524
endloop
endfacet
facet normal 0.866025403784439 0.5 1.34322179636719e-016
outer loop
vertex 15.3332793270063 13.4419811589796 13.9707500558289
vertex 15.3222202914153 13.461135970506 18.1117957095882
vertex 15.464044559946 13.2154891316645 16.042728832365
endloop
endfacet
facet normal 0.866025403784439 0.5 1.34322179636719e-016
outer loop
vertex 15.3222202914153 13.461135970506 18.1117957095882
vertex 15.3332793270063 13.4419811589796 13.9707500558289
vertex 14.9388360271213 14.1251769950856 12.0370613094939
endloop
endfacet
facet normal 0.866025403784439 0.5 1.34322179636719e-016
outer loop
vertex 15.3222202914153 13.461135970506 18.1117957095882
vertex 14.9388360271213 14.1251769950856 12.0370613094939
vertex 14.9174716109388 14.1621812493877 20.0369471991104
endloop
endfacet
facet normal 0.866025403784439 0.5 1.34322179636719e-016
outer loop
vertex 14.9174716109388 14.1621812493877 20.0369471991104
vertex 14.9388360271213 14.1251769950856 12.0370613094939
vertex 14.3075953193297 15.2185179727863 10.3734402858511
endloop
endfacet
facet normal 0.866025403784439 0.5 1.34322179636719e-016
outer loop
vertex 14.9174716109388 14.1621812493877 20.0369471991104
vertex 14.3075953193297 15.2185179727863 10.3734402858511
vertex 14.2773814722122 15.2708498910859 21.6869874083839
endloop
endfacet
facet normal 0.866025403784439 0.5 1.34322179636719e-016
outer loop
vertex 14.2773814722122 15.2708498910859 21.6869874083839
vertex 14.3075953193297 15.2185179727863 10.3734402858511
vertex 13.482575214693 16.647494711283 9.09326000839796
endloop
endfacet
facet normal 0.866025403784439 0.5 1.34322179636719e-016
outer loop
vertex 14.2773814722122 15.2708498910859 21.6869874083839
vertex 13.482575214693 16.647494711283 9.09326000839796
vertex 13.4455709603908 16.7115879598305 22.949468823967
endloop
endfacet
facet normal 0.866025403784439 0.5 1.34322179636719e-016
outer loop
vertex 13.4455709603908 16.7115879598305 22.949468823967
vertex 13.482575214693 16.647494711283 9.09326000839796
vertex 12.5199994699319 18.3147248073426 8.28376264744501
endloop
endfacet
facet normal 0.866025403784439 0.5 1.34322179636719e-016
outer loop
vertex 13.4455709603908 16.7115879598305 22.949468823967
vertex 12.5199994699319 18.3147248073426 8.28376264744501
vertex 12.7634705298116 17.8930205614583 16.0810042857986
endloop
endfacet
facet normal 0.866025403784439 0.5 1.34322179636719e-016
outer loop
vertex 12.7634705298116 17.8930205614583 16.0810042857986
vertex 12.5199994699319 18.3147248073426 8.28376264744501
vertex 12.7296783336482 17.9515503621126 15.4056412882294
endloop
endfacet
facet normal 0.866025403784439 0.5 1.34322179636719e-016
outer loop
vertex 12.7296783336482 17.9515503621126 15.4056412882294
vertex 12.5199994699319 18.3147248073426 8.28376264744501
vertex 12.6096391755828 18.1594642827798 14.7707828546432
endloop
endfacet
facet normal 0.866025403784439 0.5 1.34322179636719e-016
outer loop
vertex 12.6096391755828 18.1594642827798 14.7707828546432
vertex 12.5199994699319 18.3147248073426 8.28376264744501
vertex 12.4115335258633 18.5025933333603 14.2196935381357
endloop
endfacet
facet normal 0.866025403784439 0.5 1.34322179636719e-016
outer loop
vertex 12.4115335258633 18.5025933333603 14.2196935381357
vertex 12.5199994699319 18.3147248073426 8.28376264744501
vertex 11.4854660313203 20.1065892851468 8.00011411038353
endloop
endfacet
facet normal 0.866025403784439 0.5 1.34322179636719e-016
outer loop
vertex 12.4115335258633 18.5025933333603 14.2196935381357
vertex 11.4854660313203 20.1065892851468 8.00011411038353
vertex 12.1488619571332 18.9575538361047 13.7899291649086
endloop
endfacet
facet normal 0.866025403784439 0.5 1.34322179636719e-016
outer loop
vertex 12.1488619571332 18.9575538361047 13.7899291649086
vertex 11.4854660313203 20.1065892851468 8.00011411038353
vertex 11.839525102716 19.4933409846087 13.5107774667784
endloop
endfacet
facet normal 0.866025403784439 0.5 1.34322179636719e-016
outer loop
vertex 11.839525102716 19.4933409846087 13.5107774667784
vertex 11.4854660313203 20.1065892851468 8.00011411038353
vertex 11.5046037580371 20.073441770132 13.4012621706524
endloop
endfacet
facet normal 0.866025403784439 0.5 1.34322179636719e-016
outer loop
vertex 11.5046037580371 20.073441770132 13.4012621706524
vertex 11.4854660313203 20.1065892851468 8.00011411038353
vertex 11.1669222592525 20.6583232828029 13.4688465629791
endloop
endfacet
facet normal 0.866025403784439 0.5 1.34322179636719e-016
outer loop
vertex 11.1669222592525 20.6583232828029 13.4688465629791
vertex 11.4854660313203 20.1065892851468 8.00011411038353
vertex 10.4494766430522 21.9009755417293 8.26164457626289
endloop
endfacet
facet normal 0.866025403784439 0.5 1.34322179636719e-016
outer loop
vertex 11.1669222592525 20.6583232828029 13.4688465629791
vertex 10.4494766430522 21.9009755417293 8.26164457626289
vertex 10.8494930424594 21.2081268140954 13.70892487911
endloop
endfacet
facet normal 0.866025403784439 0.5 1.34322179636719e-016
outer loop
vertex 10.8494930424594 21.2081268140954 13.70892487911
vertex 10.4494766430522 21.9009755417293 8.26164457626289
vertex 10.5739483842056 21.6853841619451 14.1051361785489
endloop
endfacet
facet normal 0.866025403784439 0.5 1.34322179636719e-016
outer loop
vertex 10.5739483842056 21.6853841619451 14.1051361785489
vertex 10.4494766430522 21.9009755417293 8.26164457626289
vertex 10.3590661975921 22.0575710268012 14.6304793160092
endloop
endfacet
facet normal 0.866025403784439 0.5 1.34322179636719e-016
outer loop
vertex 10.3590661975921 22.0575710268012 14.6304793160092
vertex 10.4494766430522 21.9009755417293 8.26164457626289
vertex 9.48263226988474 23.5755991190675 9.05053117603295
endloop
endfacet
facet normal 0.866025403784439 0.5 1.34322179636719e-016
outer loop
vertex 10.3590661975921 22.0575710268012 14.6304793160092
vertex 9.48263226988474 23.5755991190675 9.05053117603295
vertex 10.219490348527 22.2993234888916 15.2491530248435
endloop
endfacet
facet normal 0.866025403784439 0.5 1.34322179636719e-016
outer loop
vertex 10.219490348527 22.2993234888916 15.2491530248435
vertex 9.48263226988474 23.5755991190675 9.05053117603295
vertex 10.164732700464 22.3941665174396 15.9189957142014
endloop
endfacet
facet normal 0.866025403784439 0.5 1.34322179636719e-016
outer loop
vertex 12.7634705298116 17.8930205614583 16.0810042857986
vertex 12.4787265872233 18.3862115371686 23.7383554237371
vertex 13.4455709603908 16.7115879598305 22.949468823967
endloop
endfacet
facet normal 0.866025403784439 0.5 1.34322179636719e-016
outer loop
vertex 12.4787265872233 18.3862115371686 23.7383554237371
vertex 12.7634705298116 17.8930205614583 16.0810042857986
vertex 12.7087128817486 17.9878635900064 16.7508469751565
endloop
endfacet
facet normal 0.866025403784439 0.5 1.34322179636719e-016
outer loop
vertex 12.4787265872233 18.3862115371686 23.7383554237371
vertex 12.7087128817486 17.9878635900064 16.7508469751565
vertex 12.5691370326835 18.2296160520968 17.3695206839908
endloop
endfacet
facet normal 0.866025403784439 0.5 1.34322179636719e-016
outer loop
vertex 12.4787265872233 18.3862115371686 23.7383554237371
vertex 12.5691370326835 18.2296160520968 17.3695206839908
vertex 12.3542548460699 18.6018029169529 17.8948638214511
endloop
endfacet
facet normal 0.866025403784439 0.5 1.34322179636719e-016
outer loop
vertex 12.4787265872233 18.3862115371686 23.7383554237371
vertex 12.3542548460699 18.6018029169529 17.8948638214511
vertex 11.4427371989553 20.1805977937511 23.9998858896165
endloop
endfacet
facet normal 0.866025403784439 0.5 1.34322179636719e-016
outer loop
vertex 11.4427371989553 20.1805977937511 23.9998858896165
vertex 12.3542548460699 18.6018029169529 17.8948638214511
vertex 12.0787101878162 19.0790602648026 18.29107512089
endloop
endfacet
facet normal 0.866025403784439 0.5 1.34322179636719e-016
outer loop
vertex 11.4427371989553 20.1805977937511 23.9998858896165
vertex 12.0787101878162 19.0790602648026 18.29107512089
vertex 11.7612809710231 19.6288637960951 18.5311534370208
endloop
endfacet
facet normal 0.866025403784439 0.5 1.34322179636719e-016
outer loop
vertex 11.4427371989553 20.1805977937511 23.9998858896165
vertex 11.7612809710231 19.6288637960951 18.5311534370208
vertex 11.4235994722385 20.213745308766 18.5987378293476
endloop
endfacet
facet normal 0.866025403784439 0.5 1.34322179636719e-016
outer loop
vertex 11.4427371989553 20.1805977937511 23.9998858896165
vertex 11.4235994722385 20.213745308766 18.5987378293476
vertex 10.4082037603437 21.9724622715554 23.716237352555
endloop
endfacet
facet normal 0.866025403784439 0.5 1.34322179636719e-016
outer loop
vertex 10.4082037603437 21.9724622715554 23.716237352555
vertex 11.4235994722385 20.213745308766 18.5987378293476
vertex 11.0886781275595 20.7938460942892 18.4892225332216
endloop
endfacet
facet normal 0.866025403784439 0.5 1.34322179636719e-016
outer loop
vertex 10.4082037603437 21.9724622715554 23.716237352555
vertex 11.0886781275595 20.7938460942892 18.4892225332216
vertex 10.7793412731424 21.3296332427933 18.2100708350913
endloop
endfacet
facet normal 0.866025403784439 0.5 1.34322179636719e-016
outer loop
vertex 10.4082037603437 21.9724622715554 23.716237352555
vertex 10.7793412731424 21.3296332427933 18.2100708350913
vertex 10.5166697044122 21.7845937455377 17.7803064618643
endloop
endfacet
facet normal 0.866025403784439 0.5 1.34322179636719e-016
outer loop
vertex 10.4082037603437 21.9724622715554 23.716237352555
vertex 10.5166697044122 21.7845937455377 17.7803064618643
vertex 10.3185640546928 22.1277227961182 17.2292171453568
endloop
endfacet
facet normal 0.866025403784439 0.5 1.34322179636719e-016
outer loop
vertex 10.4082037603437 21.9724622715554 23.716237352555
vertex 10.3185640546928 22.1277227961182 17.2292171453568
vertex 9.44562801558259 23.639692367615 22.906739991602
endloop
endfacet
facet normal 0.866025403784439 0.5 1.34322179636719e-016
outer loop
vertex 9.44562801558259 23.639692367615 22.906739991602
vertex 10.3185640546928 22.1277227961182 17.2292171453568
vertex 10.1985248966274 22.3356367167853 16.5943587117706
endloop
endfacet
facet normal 0.866025403784439 0.5 1.34322179636719e-016
outer loop
vertex 9.44562801558259 23.639692367615 22.906739991602
vertex 10.1985248966274 22.3356367167853 16.5943587117706
vertex 10.164732700464 22.3941665174396 15.9189957142014
endloop
endfacet
facet normal 0.866025403784439 0.5 1.34322179636719e-016
outer loop
vertex 9.44562801558259 23.639692367615 22.906739991602
vertex 10.164732700464 22.3941665174396 15.9189957142014
vertex 9.48263226988474 23.5755991190675 9.05053117603295
endloop
endfacet
facet normal 0.866025403784439 0.5 1.34322179636719e-016
outer loop
vertex 9.44562801558259 23.639692367615 22.906739991602
vertex 9.48263226988474 23.5755991190675 9.05053117603295
vertex 8.65082175806333 25.016337187812 10.3130125916161
endloop
endfacet
facet normal 0.866025403784439 0.5 1.34322179636719e-016
outer loop
vertex 9.44562801558259 23.639692367615 22.906739991602
vertex 8.65082175806333 25.016337187812 10.3130125916161
vertex 8.62060791094584 25.0686691061116 21.6265597141489
endloop
endfacet
facet normal 0.866025403784439 0.5 1.34322179636719e-016
outer loop
vertex 8.62060791094584 25.0686691061116 21.6265597141489
vertex 8.65082175806333 25.016337187812 10.3130125916161
vertex 8.01073161933676 26.1250058295103 11.9630528008896
endloop
endfacet
facet normal 0.866025403784439 0.5 1.34322179636719e-016
outer loop
vertex 8.62060791094584 25.0686691061116 21.6265597141489
vertex 8.01073161933676 26.1250058295103 11.9630528008896
vertex 7.98936720315425 26.1620100838124 19.9629386905061
endloop
endfacet
facet normal 0.866025403784439 0.5 1.34322179636719e-016
outer loop
vertex 7.98936720315425 26.1620100838124 19.9629386905061
vertex 8.01073161933676 26.1250058295103 11.9630528008896
vertex 7.60598293886028 26.826051108392 13.8882042904118
endloop
endfacet
facet normal 0.866025403784439 0.5 1.34322179636719e-016
outer loop
vertex 7.98936720315425 26.1620100838124 19.9629386905061
vertex 7.60598293886028 26.826051108392 13.8882042904118
vertex 7.59492390326922 26.8452059199184 18.0292499441711
endloop
endfacet
facet normal 0.866025403784439 0.5 1.34322179636719e-016
outer loop
vertex 7.59492390326922 26.8452059199184 18.0292499441711
vertex 7.60598293886028 26.826051108392 13.8882042904118
vertex 7.46415867032954 27.0716979472335 15.957271167635
endloop
endfacet
facet normal 0.342366627281601 -0.59299639326773 0.728793777481178
outer loop
vertex 10.5739483842056 21.6853841619451 14.1051361785489
vertex 6.89496458245435 20.0575710268012 14.6304793160092
vertex 7.10984676906786 19.6853841619451 14.1051361785489
endloop
endfacet
facet normal 0.425013622132951 -0.736145187443151 0.52673872461185
outer loop
vertex 6.89496458245435 20.0575710268012 14.6304793160092
vertex 10.5739483842056 21.6853841619451 14.1051361785489
vertex 10.3590661975921 22.0575710268012 14.6304793160092
endloop
endfacet
facet normal 0.431671249475127 -0.74767653625766 0.504618399888797
outer loop
vertex 13.2068840420434 29.1250058295103 11.9630528008896
vertex 7.60598293886028 26.826051108392 13.8882042904118
vertex 8.01073161933676 26.1250058295103 11.9630528008896
endloop
endfacet
facet normal 0.482264834534687 -0.835307196117876 0.263974463698525
outer loop
vertex 7.60598293886028 26.826051108392 13.8882042904118
vertex 13.2068840420434 29.1250058295103 11.9630528008896
vertex 12.8021353615669 29.826051108392 13.8882042904118
endloop
endfacet
facet normal 0.355436713023992 -0.615634445832832 -0.703319964268613
outer loop
vertex 13.8167603336525 28.0686691061116 21.6265597141489
vertex 9.44562801558259 23.639692367615 22.906739991602
vertex 8.62060791094584 25.0686691061116 21.6265597141489
endloop
endfacet
facet normal 0.252309199944399 -0.437012353520753 -0.863342498950254
outer loop
vertex 9.44562801558259 23.639692367615 22.906739991602
vertex 13.8167603336525 28.0686691061116 21.6265597141489
vertex 14.6417804382892 26.639692367615 22.906739991602
endloop
endfacet
facet normal -0.355436713023992 0.615634445832832 0.703319964268613
outer loop
vertex 14.3075953193297 15.2185179727863 10.3734402858511
vertex 18.6787276373996 19.647494711283 9.09326000839797
vertex 13.482575214693 16.647494711283 9.09326000839796
endloop
endfacet
facet normal -0.252309199944399 0.437012353520754 0.863342498950254
outer loop
vertex 18.6787276373996 19.647494711283 9.09326000839797
vertex 14.3075953193297 15.2185179727863 10.3734402858511
vertex 19.5037477420363 18.2185179727863 10.3734402858511
endloop
endfacet
facet normal 0.47869664100416 -0.829126903631763 0.288787298137123
outer loop
vertex 10.219490348527 22.2993234888916 15.2491530248435
vertex 6.70063108532623 20.3941665174396 15.9189957142014
vertex 6.75538873338921 20.2993234888916 15.2491530248435
endloop
endfacet
facet normal 0.499757274874538 -0.865604991534865 0.0311554945379257
outer loop
vertex 6.70063108532623 20.3941665174396 15.9189957142014
vertex 10.219490348527 22.2993234888916 15.2491530248435
vertex 10.164732700464 22.3941665174396 15.9189957142014
endloop
endfacet
facet normal 0.364396888740589 -0.631153925418723 -0.684733254563202
outer loop
vertex 10.5166697044122 21.7845937455377 17.7803064618643
vertex 7.31523965800462 19.3296332427933 18.2100708350913
vertex 7.05256808927449 19.7845937455377 17.7803064618643
endloop
endfacet
facet normal 0.263369362305925 -0.456169116670878 -0.850027244265901
outer loop
vertex 7.31523965800462 19.3296332427933 18.2100708350913
vertex 10.5166697044122 21.7845937455377 17.7803064618643
vertex 10.7793412731424 21.3296332427933 18.2100708350913
endloop
endfacet
facet normal 0.499757274874538 -0.865604991534865 0.0311554945379258
outer loop
vertex 10.164732700464 22.3941665174396 15.9189957142014
vertex 6.7344232814896 20.3356367167853 16.5943587117706
vertex 6.70063108532623 20.3941665174396 15.9189957142014
endloop
endfacet
facet normal 0.486760276350163 -0.843093529744749 -0.228599504527139
outer loop
vertex 6.7344232814896 20.3356367167853 16.5943587117706
vertex 10.164732700464 22.3941665174396 15.9189957142014
vertex 10.1985248966274 22.3356367167853 16.5943587117706
endloop
endfacet
facet normal -0.49999286810103 0.866013050973067 -0.00534110404562638
outer loop
vertex 15.464044559946 13.2154891316645 16.042728832365
vertex 20.529431749713 16.4419811589796 13.9707500558289
vertex 15.3332793270063 13.4419811589796 13.9707500558289
endloop
endfacet
facet normal -0.483647213983569 0.837701547558679 0.253656243021391
outer loop
vertex 20.529431749713 16.4419811589796 13.9707500558289
vertex 15.464044559946 13.2154891316645 16.042728832365
vertex 20.6601969826526 16.2154891316644 16.042728832365
endloop
endfacet
facet normal 0.263369362305925 -0.456169116670877 -0.850027244265901
outer loop
vertex 10.7793412731424 21.3296332427933 18.2100708350913
vertex 7.62457651242176 18.7938460942892 18.4892225332216
vertex 7.31523965800462 19.3296332427933 18.2100708350913
endloop
endfacet
facet normal 0.144393649068561 -0.250097136477019 -0.957393282008319
outer loop
vertex 7.62457651242176 18.7938460942892 18.4892225332216
vertex 10.7793412731424 21.3296332427933 18.2100708350913
vertex 11.0886781275595 20.7938460942892 18.4892225332216
endloop
endfacet
facet normal -0.252309199944399 0.437012353520754 0.863342498950254
outer loop
vertex 13.482575214693 16.647494711283 9.09326000839796
vertex 17.7161518926385 21.3147248073426 8.28376264744501
vertex 12.5199994699319 18.3147248073426 8.28376264744501
endloop
endfacet
facet normal -0.131987231849263 0.228608591513296 0.964529669069374
outer loop
vertex 17.7161518926385 21.3147248073426 8.28376264744501
vertex 13.482575214693 16.647494711283 9.09326000839796
vertex 18.6787276373996 19.647494711283 9.09326000839797
endloop
endfacet
facet normal 0.00267055202281338 -0.00462553178776836 -0.999985736202059
outer loop
vertex 16.6388896216619 23.1805977937511 23.9998858896165
vertex 12.4787265872233 18.3862115371686 23.7383554237371
vertex 11.4427371989553 20.1805977937511 23.9998858896165
endloop
endfacet
facet normal -0.126828121510695 0.219672750285043 -0.967294427967138
outer loop
vertex 12.4787265872233 18.3862115371686 23.7383554237371
vertex 16.6388896216619 23.1805977937511 23.9998858896165
vertex 17.67487900993 21.3862115371686 23.7383554237371
endloop
endfacet
facet normal 0.431671249475127 -0.74767653625766 0.504618399888797
outer loop
vertex 13.2068840420434 29.1250058295103 11.9630528008896
vertex 8.65082175806333 25.016337187812 10.3130125916161
vertex 13.84697418077 28.016337187812 10.3130125916161
endloop
endfacet
facet normal 0.351659982134306 -0.609092956045382 0.710873426047984
outer loop
vertex 8.65082175806333 25.016337187812 10.3130125916161
vertex 13.2068840420434 29.1250058295103 11.9630528008896
vertex 8.01073161933676 26.1250058295103 11.9630528008896
endloop
endfacet
facet normal -0.866025403784439 -0.5 -1.34322179636719e-016
outer loop
vertex 16.0 4.28718707889796 32.0
vertex 9.1050354175457 16.2296160520968 17.3695206839908
vertex 16.0 4.28718707889797 -7.08927482418298e-015
endloop
endfacet
facet normal -0.866025403784439 -0.5 -1.34322179636719e-016
outer loop
vertex 9.1050354175457 16.2296160520968 17.3695206839908
vertex 16.0 4.28718707889796 32.0
vertex 8.89015323093219 16.6018029169529 17.8948638214511
endloop
endfacet
facet normal -0.866025403784439 -0.5 -1.34322179636719e-016
outer loop
vertex 8.89015323093219 16.6018029169529 17.8948638214511
vertex 16.0 4.28718707889796 32.0
vertex 1.69197988952874e-014 32.0 32.0
endloop
endfacet
facet normal -0.866025403784439 -0.5 -1.34322179636719e-016
outer loop
vertex 16.0 4.28718707889797 -7.08927482418298e-015
vertex 9.1050354175457 16.2296160520968 17.3695206839908
vertex 9.24461126661084 15.9878635900064 16.7508469751565
endloop
endfacet
facet normal -0.866025403784439 -0.5 -1.34322179636719e-016
outer loop
vertex 16.0 4.28718707889797 -7.08927482418298e-015
vertex 9.24461126661084 15.9878635900064 16.7508469751565
vertex 9.29936891467382 15.8930205614583 16.0810042857986
endloop
endfacet
facet normal -0.866025403784439 -0.5 -1.34322179636719e-016
outer loop
vertex 8.89015323093219 16.6018029169529 17.8948638214511
vertex 1.69197988952874e-014 32.0 32.0
vertex 8.61460857267842 17.0790602648026 18.29107512089
endloop
endfacet
facet normal -0.866025403784439 -0.5 -1.34322179636719e-016
outer loop
vertex 8.61460857267842 17.0790602648026 18.29107512089
vertex 1.69197988952874e-014 32.0 32.0
vertex 8.29717935588531 17.6288637960951 18.5311534370208
endloop
endfacet
facet normal -0.866025403784439 -0.5 -1.34322179636719e-016
outer loop
vertex 8.29717935588531 17.6288637960951 18.5311534370208
vertex 1.69197988952874e-014 32.0 32.0
vertex 7.95949785710072 18.213745308766 18.5987378293476
endloop
endfacet
facet normal -0.866025403784439 -0.5 -1.34322179636719e-016
outer loop
vertex 7.95949785710072 18.213745308766 18.5987378293476
vertex 1.69197988952874e-014 32.0 32.0
vertex 7.62457651242176 18.7938460942892 18.4892225332216
endloop
endfacet
facet normal -0.866025403784439 -0.5 -1.34322179636719e-016
outer loop
vertex 7.62457651242176 18.7938460942892 18.4892225332216
vertex 1.69197988952874e-014 32.0 32.0
vertex 7.31523965800462 19.3296332427933 18.2100708350913
endloop
endfacet
facet normal -0.866025403784439 -0.5 -1.34322179636719e-016
outer loop
vertex 7.31523965800462 19.3296332427933 18.2100708350913
vertex 1.69197988952874e-014 32.0 32.0
vertex 7.05256808927449 19.7845937455377 17.7803064618643
endloop
endfacet
facet normal -0.866025403784439 -0.5 -1.34322179636719e-016
outer loop
vertex 7.05256808927449 19.7845937455377 17.7803064618643
vertex 1.69197988952874e-014 32.0 32.0
vertex 6.85446243955505 20.1277227961182 17.2292171453568
endloop
endfacet
facet normal -0.866025403784439 -0.5 -1.34322179636719e-016
outer loop
vertex 6.85446243955505 20.1277227961182 17.2292171453568
vertex 1.69197988952874e-014 32.0 32.0
vertex 6.7344232814896 20.3356367167853 16.5943587117706
endloop
endfacet
facet normal -0.866025403784439 -0.5 -1.34322179636719e-016
outer loop
vertex 6.7344232814896 20.3356367167853 16.5943587117706
vertex 1.69197988952874e-014 32.0 32.0
vertex 6.70063108532623 20.3941665174396 15.9189957142014
endloop
endfacet
facet normal -0.866025403784439 -0.5 -1.34322179636719e-016
outer loop
vertex 16.0 4.28718707889797 -7.08927482418298e-015
vertex 8.68476034199543 16.9575538361047 13.7899291649086
vertex 1.69197988952874e-014 32.0 1.12798659301916e-014
endloop
endfacet
facet normal -0.866025403784439 -0.5 -1.34322179636719e-016
outer loop
vertex 8.68476034199543 16.9575538361047 13.7899291649086
vertex 16.0 4.28718707889797 -7.08927482418298e-015
vertex 8.94743191072556 16.5025933333603 14.2196935381357
endloop
endfacet
facet normal -0.866025403784439 -0.5 -1.34322179636719e-016
outer loop
vertex 8.94743191072556 16.5025933333603 14.2196935381357
vertex 16.0 4.28718707889797 -7.08927482418298e-015
vertex 9.145537560445 16.1594642827798 14.7707828546432
endloop
endfacet
facet normal -0.866025403784439 -0.5 -1.34322179636719e-016
outer loop
vertex 9.145537560445 16.1594642827798 14.7707828546432
vertex 16.0 4.28718707889797 -7.08927482418298e-015
vertex 9.26557671851045 15.9515503621126 15.4056412882294
endloop
endfacet
facet normal -0.866025403784439 -0.5 -1.34322179636719e-016
outer loop
vertex 9.26557671851045 15.9515503621126 15.4056412882294
vertex 16.0 4.28718707889797 -7.08927482418298e-015
vertex 9.29936891467382 15.8930205614583 16.0810042857986
endloop
endfacet
facet normal -0.866025403784439 -0.5 -1.34322179636719e-016
outer loop
vertex 1.69197988952874e-014 32.0 1.12798659301916e-014
vertex 8.68476034199543 16.9575538361047 13.7899291649086
vertex 8.37542348757829 17.4933409846087 13.5107774667784
endloop
endfacet
facet normal -0.866025403784439 -0.5 -1.34322179636719e-016
outer loop
vertex 1.69197988952874e-014 32.0 1.12798659301916e-014
vertex 8.37542348757829 17.4933409846087 13.5107774667784
vertex 8.04050214289933 18.073441770132 13.4012621706524
endloop
endfacet
facet normal -0.866025403784439 -0.5 -1.34322179636719e-016
outer loop
vertex 1.69197988952874e-014 32.0 1.12798659301916e-014
vertex 8.04050214289933 18.073441770132 13.4012621706524
vertex 7.70282064411474 18.6583232828029 13.4688465629791
endloop
endfacet
facet normal -0.866025403784439 -0.5 -1.34322179636719e-016
outer loop
vertex 1.69197988952874e-014 32.0 1.12798659301916e-014
vertex 7.70282064411474 18.6583232828029 13.4688465629791
vertex 7.38539142732163 19.2081268140954 13.70892487911
endloop
endfacet
facet normal -0.866025403784439 -0.5 -1.34322179636719e-016
outer loop
vertex 1.69197988952874e-014 32.0 1.12798659301916e-014
vertex 7.38539142732163 19.2081268140954 13.70892487911
vertex 7.10984676906786 19.6853841619451 14.1051361785489
endloop
endfacet
facet normal -0.866025403784439 -0.5 -1.34322179636719e-016
outer loop
vertex 1.69197988952874e-014 32.0 1.12798659301916e-014
vertex 7.10984676906786 19.6853841619451 14.1051361785489
vertex 6.89496458245435 20.0575710268012 14.6304793160092
endloop
endfacet
facet normal -0.866025403784439 -0.5 -1.34322179636719e-016
outer loop
vertex 1.69197988952874e-014 32.0 1.12798659301916e-014
vertex 6.89496458245435 20.0575710268012 14.6304793160092
vertex 6.75538873338921 20.2993234888916 15.2491530248435
endloop
endfacet
facet normal -0.866025403784439 -0.5 -1.34322179636719e-016
outer loop
vertex 1.69197988952874e-014 32.0 1.12798659301916e-014
vertex 6.75538873338921 20.2993234888916 15.2491530248435
vertex 6.70063108532623 20.3941665174396 15.9189957142014
endloop
endfacet
facet normal -0.866025403784439 -0.5 -1.34322179636719e-016
outer loop
vertex 1.69197988952874e-014 32.0 1.12798659301916e-014
vertex 6.70063108532623 20.3941665174396 15.9189957142014
vertex 1.69197988952874e-014 32.0 32.0
endloop
endfacet
facet normal 0.252309199944399 -0.437012353520753 -0.863342498950254
outer loop
vertex 14.6417804382892 26.639692367615 22.906739991602
vertex 10.4082037603437 21.9724622715554 23.716237352555
vertex 9.44562801558259 23.639692367615 22.906739991602
endloop
endfacet
facet normal 0.131987231849263 -0.228608591513296 -0.964529669069374
outer loop
vertex 10.4082037603437 21.9724622715554 23.716237352555
vertex 14.6417804382892 26.639692367615 22.906739991602
vertex 15.6043561830503 24.9724622715554 23.716237352555
endloop
endfacet
facet normal -0.483647213983569 0.837701547558678 0.25365624302139
outer loop
vertex 15.3332793270063 13.4419811589796 13.9707500558289
vertex 20.1349884498279 17.1251769950856 12.0370613094939
vertex 14.9388360271213 14.1251769950856 12.0370613094939
endloop
endfacet
facet normal -0.43434180149794 0.752302068045429 0.495367336313261
outer loop
vertex 20.1349884498279 17.1251769950856 12.0370613094939
vertex 15.3332793270063 13.4419811589796 13.9707500558289
vertex 20.529431749713 16.4419811589796 13.9707500558289
endloop
endfacet
facet normal 0.247683668156631 -0.429000697452314 0.86868360299588
outer loop
vertex 9.48263226988474 23.5755991190675 9.05053117603295
vertex 13.84697418077 28.016337187812 10.3130125916161
vertex 8.65082175806333 25.016337187812 10.3130125916161
endloop
endfacet
facet normal 0.351659982134306 -0.609092956045382 0.710873426047984
outer loop
vertex 13.84697418077 28.016337187812 10.3130125916161
vertex 9.48263226988474 23.5755991190675 9.05053117603295
vertex 14.6787846925914 26.5755991190675 9.05053117603295
endloop
endfacet
facet normal -0.43434180149794 0.752302068045429 0.495367336313261
outer loop
vertex 14.9388360271213 14.1251769950856 12.0370613094939
vertex 19.5037477420363 18.2185179727863 10.3734402858511
vertex 14.3075953193297 15.2185179727863 10.3734402858511
endloop
endfacet
facet normal -0.355436713023992 0.615634445832832 0.703319964268612
outer loop
vertex 19.5037477420363 18.2185179727863 10.3734402858511
vertex 14.9388360271213 14.1251769950856 12.0370613094939
vertex 20.1349884498279 17.1251769950856 12.0370613094939
endloop
endfacet
facet normal 0.43434180149794 -0.752302068045428 -0.495367336313261
outer loop
vertex 13.1855196258609 29.1620100838124 19.9629386905061
vertex 7.59492390326922 26.8452059199184 18.0292499441711
vertex 12.7910763259759 29.8452059199184 18.0292499441711
endloop
endfacet
facet normal 0.483647213983569 -0.837701547558678 -0.253656243021391
outer loop
vertex 7.59492390326922 26.8452059199184 18.0292499441711
vertex 13.1855196258609 29.1620100838124 19.9629386905061
vertex 7.98936720315425 26.1620100838124 19.9629386905061
endloop
endfacet
facet normal -0.263369362305925 0.456169116670878 0.850027244265901
outer loop
vertex 8.68476034199543 16.9575538361047 13.7899291649086
vertex 11.839525102716 19.4933409846087 13.5107774667784
vertex 8.37542348757829 17.4933409846087 13.5107774667784
endloop
endfacet
facet normal -0.144393649068562 0.250097136477019 0.957393282008319
outer loop
vertex 11.839525102716 19.4933409846087 13.5107774667784
vertex 8.68476034199543 16.9575538361047 13.7899291649086
vertex 12.1488619571332 18.9575538361047 13.7899291649086
endloop
endfacet
facet normal 0.483647213983569 -0.837701547558679 -0.253656243021391
outer loop
vertex 12.7910763259759 29.8452059199184 18.0292499441711
vertex 7.46415867032954 27.0716979472335 15.957271167635
vertex 12.6603110930362 30.0716979472335 15.957271167635
endloop
endfacet
facet normal 0.49999286810103 -0.866013050973067 0.00534110404562611
outer loop
vertex 7.46415867032954 27.0716979472335 15.957271167635
vertex 12.7910763259759 29.8452059199184 18.0292499441711
vertex 7.59492390326922 26.8452059199184 18.0292499441711
endloop
endfacet
facet normal -0.351659982134306 0.609092956045382 -0.710873426047983
outer loop
vertex 14.2773814722122 15.2708498910859 21.6869874083839
vertex 20.1136240336454 17.1621812493877 20.0369471991104
vertex 14.9174716109388 14.1621812493877 20.0369471991104
endloop
endfacet
facet normal -0.431671249475127 0.74767653625766 -0.504618399888798
outer loop
vertex 20.1136240336454 17.1621812493877 20.0369471991104
vertex 14.2773814722122 15.2708498910859 21.6869874083839
vertex 19.4735338949189 18.2708498910859 21.6869874083839
endloop
endfacet
facet normal 0.866025403784439 0.5 1.34322179636719e-016
outer loop
vertex 24.6602540378444 9.28718707889797 -5.74605302781579e-015
vertex 20.529431749713 16.4419811589796 13.9707500558289
vertex 20.6601969826526 16.2154891316644 16.042728832365
endloop
endfacet
facet normal 0.866025403784439 0.5 1.34322179636719e-016
outer loop
vertex 20.529431749713 16.4419811589796 13.9707500558289
vertex 24.6602540378444 9.28718707889797 -5.74605302781579e-015
vertex 20.1349884498279 17.1251769950856 12.0370613094939
endloop
endfacet
facet normal 0.866025403784439 0.5 1.34322179636719e-016
outer loop
vertex 20.1349884498279 17.1251769950856 12.0370613094939
vertex 24.6602540378444 9.28718707889797 -5.74605302781579e-015
vertex 19.5037477420363 18.2185179727863 10.3734402858511
endloop
endfacet
facet normal 0.866025403784439 0.5 1.34322179636719e-016
outer loop
vertex 19.5037477420363 18.2185179727863 10.3734402858511
vertex 24.6602540378444 9.28718707889797 -5.74605302781579e-015
vertex 18.6787276373996 19.647494711283 9.09326000839797
endloop
endfacet
facet normal 0.866025403784439 0.5 1.34322179636719e-016
outer loop
vertex 18.6787276373996 19.647494711283 9.09326000839797
vertex 24.6602540378444 9.28718707889797 -5.74605302781579e-015
vertex 10.0 34.6794919243112 7.49607588847791e-016
endloop
endfacet
facet normal 0.866025403784439 0.5 1.34322179636719e-016
outer loop
vertex 18.6787276373996 19.647494711283 9.09326000839797
vertex 10.0 34.6794919243112 7.49607588847791e-016
vertex 17.7161518926385 21.3147248073426 8.28376264744501
endloop
endfacet
facet normal 0.866025403784439 0.5 1.34322179636719e-016
outer loop
vertex 17.7161518926385 21.3147248073426 8.28376264744501
vertex 10.0 34.6794919243112 7.49607588847791e-016
vertex 16.6816184540269 23.1065892851468 8.00011411038353
endloop
endfacet
facet normal 0.866025403784439 0.5 1.34322179636719e-016
outer loop
vertex 16.6816184540269 23.1065892851468 8.00011411038353
vertex 10.0 34.6794919243112 7.49607588847791e-016
vertex 15.6456290657588 24.9009755417293 8.26164457626289
endloop
endfacet
facet normal 0.866025403784439 0.5 1.34322179636719e-016
outer loop
vertex 15.6456290657588 24.9009755417293 8.26164457626289
vertex 10.0 34.6794919243112 7.49607588847791e-016
vertex 14.6787846925914 26.5755991190675 9.05053117603295
endloop
endfacet
facet normal 0.866025403784439 0.5 1.34322179636719e-016
outer loop
vertex 14.6787846925914 26.5755991190675 9.05053117603295
vertex 10.0 34.6794919243112 7.49607588847791e-016
vertex 13.84697418077 28.016337187812 10.3130125916161
endloop
endfacet
facet normal 0.866025403784439 0.5 1.34322179636719e-016
outer loop
vertex 13.84697418077 28.016337187812 10.3130125916161
vertex 10.0 34.6794919243112 7.49607588847791e-016
vertex 13.2068840420434 29.1250058295103 11.9630528008896
endloop
endfacet
facet normal 0.866025403784439 0.5 1.34322179636719e-016
outer loop
vertex 13.2068840420434 29.1250058295103 11.9630528008896
vertex 10.0 34.6794919243112 7.49607588847791e-016
vertex 12.8021353615669 29.826051108392 13.8882042904118
endloop
endfacet
facet normal 0.866025403784439 0.5 1.34322179636719e-016
outer loop
vertex 12.8021353615669 29.826051108392 13.8882042904118
vertex 10.0 34.6794919243112 7.49607588847791e-016
vertex 12.6603110930362 30.0716979472335 15.957271167635
endloop
endfacet
facet normal 0.866025403784439 0.5 1.34322179636719e-016
outer loop
vertex 24.6602540378444 9.28718707889796 32.0
vertex 18.6417233830975 19.7115879598305 22.949468823967
vertex 10.0 34.6794919243112 32.0
endloop
endfacet
facet normal 0.866025403784439 0.5 1.34322179636719e-016
outer loop
vertex 18.6417233830975 19.7115879598305 22.949468823967
vertex 24.6602540378444 9.28718707889796 32.0
vertex 19.4735338949189 18.2708498910859 21.6869874083839
endloop
endfacet
facet normal 0.866025403784439 0.5 1.34322179636719e-016
outer loop
vertex 19.4735338949189 18.2708498910859 21.6869874083839
vertex 24.6602540378444 9.28718707889796 32.0
vertex 20.1136240336454 17.1621812493877 20.0369471991104
endloop
endfacet
facet normal 0.866025403784439 0.5 1.34322179636719e-016
outer loop
vertex 20.1136240336454 17.1621812493877 20.0369471991104
vertex 24.6602540378444 9.28718707889796 32.0
vertex 24.6602540378444 9.28718707889797 -5.74605302781579e-015
endloop
endfacet
facet normal 0.866025403784439 0.5 1.34322179636719e-016
outer loop
vertex 20.1136240336454 17.1621812493877 20.0369471991104
vertex 24.6602540378444 9.28718707889797 -5.74605302781579e-015
vertex 20.5183727141219 16.461135970506 18.1117957095882
endloop
endfacet
facet normal 0.866025403784439 0.5 1.34322179636719e-016
outer loop
vertex 20.5183727141219 16.461135970506 18.1117957095882
vertex 24.6602540378444 9.28718707889797 -5.74605302781579e-015
vertex 20.6601969826526 16.2154891316644 16.042728832365
endloop
endfacet
facet normal 0.866025403784439 0.5 1.34322179636719e-016
outer loop
vertex 10.0 34.6794919243112 32.0
vertex 18.6417233830975 19.7115879598305 22.949468823967
vertex 17.67487900993 21.3862115371686 23.7383554237371
endloop
endfacet
facet normal 0.866025403784439 0.5 1.34322179636719e-016
outer loop
vertex 10.0 34.6794919243112 32.0
vertex 17.67487900993 21.3862115371686 23.7383554237371
vertex 16.6388896216619 23.1805977937511 23.9998858896165
endloop
endfacet
facet normal 0.866025403784439 0.5 1.34322179636719e-016
outer loop
vertex 10.0 34.6794919243112 32.0
vertex 16.6388896216619 23.1805977937511 23.9998858896165
vertex 15.6043561830503 24.9724622715554 23.716237352555
endloop
endfacet
facet normal 0.866025403784439 0.5 1.34322179636719e-016
outer loop
vertex 10.0 34.6794919243112 32.0
vertex 15.6043561830503 24.9724622715554 23.716237352555
vertex 14.6417804382892 26.639692367615 22.906739991602
endloop
endfacet
facet normal 0.866025403784439 0.5 1.34322179636719e-016
outer loop
vertex 10.0 34.6794919243112 32.0
vertex 14.6417804382892 26.639692367615 22.906739991602
vertex 13.8167603336525 28.0686691061116 21.6265597141489
endloop
endfacet
facet normal 0.866025403784439 0.5 1.34322179636719e-016
outer loop
vertex 10.0 34.6794919243112 32.0
vertex 13.8167603336525 28.0686691061116 21.6265597141489
vertex 13.1855196258609 29.1620100838124 19.9629386905061
endloop
endfacet
facet normal 0.866025403784439 0.5 1.34322179636719e-016
outer loop
vertex 10.0 34.6794919243112 32.0
vertex 13.1855196258609 29.1620100838124 19.9629386905061
vertex 12.7910763259759 29.8452059199184 18.0292499441711
endloop
endfacet
facet normal 0.866025403784439 0.5 1.34322179636719e-016
outer loop
vertex 10.0 34.6794919243112 32.0
vertex 12.7910763259759 29.8452059199184 18.0292499441711
vertex 12.6603110930362 30.0716979472335 15.957271167635
endloop
endfacet
facet normal 0.866025403784439 0.5 1.34322179636719e-016
outer loop
vertex 10.0 34.6794919243112 32.0
vertex 12.6603110930362 30.0716979472335 15.957271167635
vertex 10.0 34.6794919243112 7.49607588847791e-016
endloop
endfacet
facet normal 1.0 -4.33305841366654e-016 4.40619762898109e-017
outer loop
vertex 10.0 47.695547621385 4.12102916907453e-015
vertex 10.0 34.6794919243112 32.0
vertex 10.0 34.6794919243112 7.49607588847791e-016
endloop
endfacet
facet normal 1.0 -4.33305841366654e-016 4.40619762898109e-017
outer loop
vertex 10.0 34.6794919243112 32.0
vertex 10.0 47.695547621385 4.12102916907453e-015
vertex 10.0 47.695547621385 32.0
endloop
endfacet
facet normal -1.0 5.19467509943034e-016 1.65861801432003e-031
outer loop
vertex 3.41713585532275e-014 58.0 32.0
vertex 1.69197988952874e-014 32.0 1.12798659301916e-014
vertex 1.69197988952874e-014 32.0 32.0
endloop
endfacet
facet normal -1.0 5.19467509943034e-016 1.65861801432003e-031
outer loop
vertex 1.69197988952874e-014 32.0 1.12798659301916e-014
vertex 3.41713585532275e-014 58.0 32.0
vertex 3.41713585532275e-014 58.0 7.72779341061717e-015
endloop
endfacet
facet normal -3.79291959472399e-016 -1.0 -0.0
outer loop
vertex 42.2 47.695547621385 32.0
vertex 10.0 47.695547621385 4.12102916907453e-015
vertex 42.2 47.695547621385 4.12102916907453e-015
endloop
endfacet
facet normal -3.79291959472399e-016 -1.0 -0.0
outer loop
vertex 10.0 47.695547621385 4.12102916907453e-015
vertex 42.2 47.695547621385 32.0
vertex 10.0 47.695547621385 32.0
endloop
endfacet
facet normal 2.07350476657934e-016 1.0 1.76247905159244e-016
outer loop
vertex 3.41713585532275e-014 58.0 32.0
vertex 32.2 58.0 9.16489106828067e-015
vertex 3.41713585532275e-014 58.0 7.72779341061717e-015
endloop
endfacet
facet normal 2.07350476657934e-016 1.0 1.76247905159244e-016
outer loop
vertex 32.2 58.0 9.16489106828067e-015
vertex 3.41713585532275e-014 58.0 32.0
vertex 32.2 58.0 32.0
endloop
endfacet
facet normal 1.0 -5.05722612629866e-016 -9.96567079170069e-032
outer loop
vertex 42.2 47.695547621385 4.12102916907453e-015
vertex 42.2 165.860191729768 4.19232365930348
vertex 42.2 47.695547621385 32.0
endloop
endfacet
facet normal 1.0 -5.05722612629866e-016 -9.96567079170069e-032
outer loop
vertex 42.2 165.860191729768 4.19232365930348
vertex 42.2 47.695547621385 4.12102916907453e-015
vertex 42.1999999999999 193.0 3.15768256144075e-014
endloop
endfacet
facet normal 1.0 -5.05722612629866e-016 -9.96567079170069e-032
outer loop
vertex 42.2 47.695547621385 32.0
vertex 42.2 165.860191729768 4.19232365930348
vertex 42.2 162.877052413097 5.14848360726286
endloop
endfacet
facet normal 1.0 -5.05722612629866e-016 -9.96567079170069e-032
outer loop
vertex 42.2 47.695547621385 32.0
vertex 42.2 162.877052413097 5.14848360726286
vertex 42.2 160.243033508402 6.84415646440853
endloop
endfacet
facet normal 1.0 -5.05722612629866e-016 -9.96567079170069e-032
outer loop
vertex 42.2 47.695547621385 32.0
vertex 42.2 160.243033508402 6.84415646440853
vertex 42.2 158.137639051117 9.16378492775792
endloop
endfacet
facet normal 1.0 -5.05722612629866e-016 -9.96567079170069e-032
outer loop
vertex 42.2 47.695547621385 32.0
vertex 42.2 158.137639051117 9.16378492775792
vertex 42.2 156.704348194176 11.949290150901
endloop
endfacet
facet normal 1.0 -5.05722612629866e-016 -9.96567079170069e-032
outer loop
vertex 42.2 47.695547621385 32.0
vertex 42.2 156.704348194176 11.949290150901
vertex 42.2 156.040837340855 15.0108445561457
endloop
endfacet
facet normal 1.0 -5.05722612629866e-016 -9.96567079170069e-032
outer loop
vertex 42.2 165.860191729768 4.19232365930348
vertex 42.1999999999999 193.0 3.15768256144075e-014
vertex 42.2 168.989155443854 4.04083734085481
endloop
endfacet
facet normal 1.0 -5.05722612629866e-016 -9.96567079170069e-032
outer loop
vertex 42.2 168.989155443854 4.04083734085481
vertex 42.1999999999999 193.0 3.15768256144075e-014
vertex 42.2 172.050709849099 4.70434819417614
endloop
endfacet
facet normal 1.0 -5.05722612629866e-016 -9.96567079170069e-032
outer loop
vertex 42.2 172.050709849099 4.70434819417614
vertex 42.1999999999999 193.0 3.15768256144075e-014
vertex 42.2 174.836215072242 6.13763905111716
endloop
endfacet
facet normal 1.0 -5.05722612629866e-016 -9.96567079170069e-032
outer loop
vertex 42.2 174.836215072242 6.13763905111716
vertex 42.1999999999999 193.0 3.15768256144075e-014
vertex 42.2 177.155843535592 8.24303350840247
endloop
endfacet
facet normal 1.0 -5.05722612629866e-016 -9.96567079170069e-032
outer loop
vertex 42.2 177.155843535592 8.24303350840247
vertex 42.1999999999999 193.0 3.15768256144075e-014
vertex 42.2 178.851516392737 10.8770524130969
endloop
endfacet
facet normal 1.0 -5.05722612629866e-016 -9.96567079170069e-032
outer loop
vertex 42.2 178.851516392737 10.8770524130969
vertex 42.1999999999999 193.0 3.15768256144075e-014
vertex 42.2 179.807676340697 13.8601917297676
endloop
endfacet
facet normal 1.0 -5.05722612629866e-016 -9.96567079170069e-032
outer loop
vertex 42.2 179.807676340697 13.8601917297676
vertex 42.1999999999999 193.0 3.15768256144075e-014
vertex 42.2 179.959162659145 16.9891554438543
endloop
endfacet
facet normal 1.0 -5.05722612629866e-016 -9.96567079170069e-032
outer loop
vertex 42.2 47.695547621385 32.0
vertex 42.2 167.010844556146 27.9591626591453
vertex 42.1999999999999 193.0 32.0
endloop
endfacet
facet normal 1.0 -5.05722612629866e-016 -9.96567079170069e-032
outer loop
vertex 42.2 167.010844556146 27.9591626591453
vertex 42.2 47.695547621385 32.0
vertex 42.2 163.949290150901 27.2956518058239
endloop
endfacet
facet normal 1.0 -5.05722612629866e-016 -9.96567079170069e-032
outer loop
vertex 42.2 163.949290150901 27.2956518058239
vertex 42.2 47.695547621385 32.0
vertex 42.2 161.163784927758 25.8623609488829
endloop
endfacet
facet normal 1.0 -5.05722612629866e-016 -9.96567079170069e-032
outer loop
vertex 42.2 161.163784927758 25.8623609488829
vertex 42.2 47.695547621385 32.0
vertex 42.2 158.844156464409 23.7569664915976
endloop
endfacet
facet normal 1.0 -5.05722612629866e-016 -9.96567079170069e-032
outer loop
vertex 42.2 158.844156464409 23.7569664915976
vertex 42.2 47.695547621385 32.0
vertex 42.2 157.148483607263 21.1229475869031
endloop
endfacet
facet normal 1.0 -5.05722612629866e-016 -9.96567079170069e-032
outer loop
vertex 42.2 157.148483607263 21.1229475869031
vertex 42.2 47.695547621385 32.0
vertex 42.2 156.192323659303 18.1398082702324
endloop
endfacet
facet normal 1.0 -5.05722612629866e-016 -9.96567079170069e-032
outer loop
vertex 42.2 156.192323659303 18.1398082702324
vertex 42.2 47.695547621385 32.0
vertex 42.2 156.040837340855 15.0108445561457
endloop
endfacet
facet normal 1.0 -5.05722612629866e-016 -9.96567079170069e-032
outer loop
vertex 42.1999999999999 193.0 32.0
vertex 42.2 167.010844556146 27.9591626591453
vertex 42.2 170.139808270232 27.8076763406966
endloop
endfacet
facet normal 1.0 -5.05722612629866e-016 -9.96567079170069e-032
outer loop
vertex 42.1999999999999 193.0 32.0
vertex 42.2 170.139808270232 27.8076763406966
vertex 42.2 173.122947586903 26.8515163927372
endloop
endfacet
facet normal 1.0 -5.05722612629866e-016 -9.96567079170069e-032
outer loop
vertex 42.1999999999999 193.0 32.0
vertex 42.2 173.122947586903 26.8515163927372
vertex 42.2 175.756966491598 25.1558435355915
endloop
endfacet
facet normal 1.0 -5.05722612629866e-016 -9.96567079170069e-032
outer loop
vertex 42.1999999999999 193.0 32.0
vertex 42.2 175.756966491598 25.1558435355915
vertex 42.2 177.862360948883 22.8362150722421
endloop
endfacet
facet normal 1.0 -5.05722612629866e-016 -9.96567079170069e-032
outer loop
vertex 42.1999999999999 193.0 32.0
vertex 42.2 177.862360948883 22.8362150722421
vertex 42.2 179.295651805824 20.050709849099
endloop
endfacet
facet normal 1.0 -5.05722612629866e-016 -9.96567079170069e-032
outer loop
vertex 42.1999999999999 193.0 32.0
vertex 42.2 179.295651805824 20.050709849099
vertex 42.2 179.959162659145 16.9891554438543
endloop
endfacet
facet normal 1.0 -5.05722612629866e-016 -9.96567079170069e-032
outer loop
vertex 42.1999999999999 193.0 32.0
vertex 42.2 179.959162659145 16.9891554438543
vertex 42.1999999999999 193.0 3.15768256144075e-014
endloop
endfacet
facet normal -1.0 -5.6399329650958e-016 0.0
outer loop
vertex 32.2 58.0 32.0
vertex 32.2 163.949290150901 27.2956518058239
vertex 32.2 58.0 9.16489106828067e-015
endloop
endfacet
facet normal -1.0 -5.6399329650958e-016 0.0
outer loop
vertex 32.2 163.949290150901 27.2956518058239
vertex 32.2 58.0 32.0
vertex 32.2 167.010844556146 27.9591626591453
endloop
endfacet
facet normal -1.0 -5.6399329650958e-016 0.0
outer loop
vertex 32.2 167.010844556146 27.9591626591453
vertex 32.2 58.0 32.0
vertex 32.1999999999999 193.0 32.0
endloop
endfacet
facet normal -1.0 -5.6399329650958e-016 0.0
outer loop
vertex 32.2 58.0 9.16489106828067e-015
vertex 32.2 163.949290150901 27.2956518058239
vertex 32.2 161.163784927758 25.8623609488829
endloop
endfacet
facet normal -1.0 -5.6399329650958e-016 0.0
outer loop
vertex 32.2 58.0 9.16489106828067e-015
vertex 32.2 161.163784927758 25.8623609488829
vertex 32.2 158.844156464409 23.7569664915976
endloop
endfacet
facet normal -1.0 -5.6399329650958e-016 0.0
outer loop
vertex 32.2 58.0 9.16489106828067e-015
vertex 32.2 158.844156464409 23.7569664915976
vertex 32.2 157.148483607263 21.1229475869031
endloop
endfacet
facet normal -1.0 -5.6399329650958e-016 0.0
outer loop
vertex 32.2 58.0 9.16489106828067e-015
vertex 32.2 157.148483607263 21.1229475869031
vertex 32.2 156.192323659303 18.1398082702324
endloop
endfacet
facet normal -1.0 -5.6399329650958e-016 0.0
outer loop
vertex 32.2 58.0 9.16489106828067e-015
vertex 32.2 156.192323659303 18.1398082702324
vertex 32.2 156.040837340855 15.0108445561457
endloop
endfacet
facet normal -1.0 -5.6399329650958e-016 0.0
outer loop
vertex 32.2 167.010844556146 27.9591626591453
vertex 32.1999999999999 193.0 32.0
vertex 32.2 170.139808270232 27.8076763406966
endloop
endfacet
facet normal -1.0 -5.6399329650958e-016 0.0
outer loop
vertex 32.2 170.139808270232 27.8076763406966
vertex 32.1999999999999 193.0 32.0
vertex 32.2 173.122947586903 26.8515163927372
endloop
endfacet
facet normal -1.0 -5.6399329650958e-016 0.0
outer loop
vertex 32.2 173.122947586903 26.8515163927372
vertex 32.1999999999999 193.0 32.0
vertex 32.2 175.756966491598 25.1558435355915
endloop
endfacet
facet normal -1.0 -5.6399329650958e-016 0.0
outer loop
vertex 32.2 175.756966491598 25.1558435355915
vertex 32.1999999999999 193.0 32.0
vertex 32.2 177.862360948883 22.8362150722421
endloop
endfacet
facet normal -1.0 -5.6399329650958e-016 0.0
outer loop
vertex 32.2 177.862360948883 22.8362150722421
vertex 32.1999999999999 193.0 32.0
vertex 32.2 179.295651805824 20.050709849099
endloop
endfacet
facet normal -1.0 -5.6399329650958e-016 0.0
outer loop
vertex 32.2 179.295651805824 20.050709849099
vertex 32.1999999999999 193.0 32.0
vertex 32.2 179.959162659145 16.9891554438543
endloop
endfacet
facet normal -1.0 -5.6399329650958e-016 0.0
outer loop
vertex 32.2 58.0 9.16489106828067e-015
vertex 32.2 165.860191729768 4.19232365930348
vertex 32.1999999999999 193.0 3.29583582647786e-014
endloop
endfacet
facet normal -1.0 -5.6399329650958e-016 0.0
outer loop
vertex 32.2 165.860191729768 4.19232365930348
vertex 32.2 58.0 9.16489106828067e-015
vertex 32.2 162.877052413097 5.14848360726286
endloop
endfacet
facet normal -1.0 -5.6399329650958e-016 0.0
outer loop
vertex 32.2 162.877052413097 5.14848360726286
vertex 32.2 58.0 9.16489106828067e-015
vertex 32.2 160.243033508402 6.84415646440853
endloop
endfacet
facet normal -1.0 -5.6399329650958e-016 0.0
outer loop
vertex 32.2 160.243033508402 6.84415646440853
vertex 32.2 58.0 9.16489106828067e-015
vertex 32.2 158.137639051117 9.16378492775792
endloop
endfacet
facet normal -1.0 -5.6399329650958e-016 0.0
outer loop
vertex 32.2 158.137639051117 9.16378492775792
vertex 32.2 58.0 9.16489106828067e-015
vertex 32.2 156.704348194176 11.949290150901
endloop
endfacet
facet normal -1.0 -5.6399329650958e-016 0.0
outer loop
vertex 32.2 156.704348194176 11.949290150901
vertex 32.2 58.0 9.16489106828067e-015
vertex 32.2 156.040837340855 15.0108445561457
endloop
endfacet
facet normal -1.0 -5.6399329650958e-016 0.0
outer loop
vertex 32.1999999999999 193.0 3.29583582647786e-014
vertex 32.2 165.860191729768 4.19232365930348
vertex 32.2 168.989155443854 4.04083734085481
endloop
endfacet
facet normal -1.0 -5.6399329650958e-016 0.0
outer loop
vertex 32.1999999999999 193.0 3.29583582647786e-014
vertex 32.2 168.989155443854 4.04083734085481
vertex 32.2 172.050709849099 4.70434819417614
endloop
endfacet
facet normal -1.0 -5.6399329650958e-016 0.0
outer loop
vertex 32.1999999999999 193.0 3.29583582647786e-014
vertex 32.2 172.050709849099 4.70434819417614
vertex 32.2 174.836215072242 6.13763905111716
endloop
endfacet
facet normal -1.0 -5.6399329650958e-016 0.0
outer loop
vertex 32.1999999999999 193.0 3.29583582647786e-014
vertex 32.2 174.836215072242 6.13763905111716
vertex 32.2 177.155843535592 8.24303350840247
endloop
endfacet
facet normal -1.0 -5.6399329650958e-016 0.0
outer loop
vertex 32.1999999999999 193.0 3.29583582647786e-014
vertex 32.2 177.155843535592 8.24303350840247
vertex 32.2 178.851516392737 10.8770524130969
endloop
endfacet
facet normal -1.0 -5.6399329650958e-016 0.0
outer loop
vertex 32.1999999999999 193.0 3.29583582647786e-014
vertex 32.2 178.851516392737 10.8770524130969
vertex 32.2 179.807676340697 13.8601917297676
endloop
endfacet
facet normal -1.0 -5.6399329650958e-016 0.0
outer loop
vertex 32.1999999999999 193.0 3.29583582647786e-014
vertex 32.2 179.807676340697 13.8601917297676
vertex 32.2 179.959162659145 16.9891554438543
endloop
endfacet
facet normal -1.0 -5.6399329650958e-016 0.0
outer loop
vertex 32.1999999999999 193.0 3.29583582647786e-014
vertex 32.2 179.959162659145 16.9891554438543
vertex 32.1999999999999 193.0 32.0
endloop
endfacet
facet normal -5.6399329650958e-016 1.0 1.76247905159244e-016
outer loop
vertex 32.1999999999999 193.0 3.29583582647786e-014
vertex 42.1999999999999 193.0 32.0
vertex 42.1999999999999 193.0 3.15768256144075e-014
endloop
endfacet
facet normal -5.6399329650958e-016 1.0 1.76247905159244e-016
outer loop
vertex 42.1999999999999 193.0 32.0
vertex 32.1999999999999 193.0 3.29583582647786e-014
vertex 32.1999999999999 193.0 32.0
endloop
endfacet
facet normal 4.80164175320104e-016 -0.904293032728098 0.426912298908593
outer loop
vertex 42.2 178.851516392737 10.8770524130969
vertex 32.2 177.155843535592 8.24303350840247
vertex 42.2 177.155843535592 8.24303350840247
endloop
endfacet
facet normal 3.92052407432846e-016 -0.76298696129929 0.646413874299799
outer loop
vertex 32.2 177.155843535592 8.24303350840247
vertex 42.2 178.851516392737 10.8770524130969
vertex 32.2 178.851516392737 10.8770524130969
endloop
endfacet
facet normal -5.54445831752554e-016 0.996596888262102 0.082429620321191
outer loop
vertex 32.2 156.040837340855 15.0108445561457
vertex 42.2 156.704348194176 11.949290150901
vertex 32.2 156.704348194176 11.949290150901
endloop
endfacet
facet normal -5.35553548168115e-016 0.94130431715199 0.337559154091583
outer loop
vertex 42.2 156.704348194176 11.949290150901
vertex 32.2 156.040837340855 15.0108445561457
vertex 42.2 156.040837340855 15.0108445561457
endloop
endfacet
facet normal 3.92052407432846e-016 -0.646413874299796 -0.762986961299292
outer loop
vertex 42.2 175.756966491598 25.1558435355915
vertex 32.2 177.862360948883 22.8362150722421
vertex 42.2 177.862360948883 22.8362150722421
endloop
endfacet
facet normal 4.80164175320104e-016 -0.821863412406905 -0.56968458935351
outer loop
vertex 32.2 177.862360948883 22.8362150722421
vertex 42.2 175.756966491598 25.1558435355915
vertex 32.2 175.756966491598 25.1558435355915
endloop
endfacet
facet normal -4.80164175320105e-016 0.904293032728098 -0.426912298908593
outer loop
vertex 32.2 157.148483607263 21.1229475869031
vertex 42.2 156.192323659303 18.1398082702324
vertex 32.2 156.192323659303 18.1398082702324
endloop
endfacet
facet normal -5.35553548168116e-016 0.983973028391379 -0.178317355852698
outer loop
vertex 42.2 156.192323659303 18.1398082702324
vertex 32.2 157.148483607263 21.1229475869031
vertex 42.2 157.148483607263 21.1229475869031
endloop
endfacet
facet normal -2.77222915876278e-016 0.426912298908594 0.904293032728097
outer loop
vertex 32.2 162.877052413097 5.14848360726286
vertex 42.2 165.860191729768 4.19232365930348
vertex 32.2 165.860191729768 4.19232365930348
endloop
endfacet
facet normal -1.43501140735269e-016 0.1783173558527 0.983973028391379
outer loop
vertex 42.2 165.860191729768 4.19232365930348
vertex 32.2 162.877052413097 5.14848360726286
vertex 42.2 162.877052413097 5.14848360726286
endloop
endfacet
facet normal 5.35553548168116e-016 -0.983973028391379 0.178317355852698
outer loop
vertex 42.2 179.807676340697 13.8601917297676
vertex 32.2 178.851516392737 10.8770524130969
vertex 42.2 178.851516392737 10.8770524130969
endloop
endfacet
facet normal 4.80164175320104e-016 -0.904293032728098 0.426912298908593
outer loop
vertex 32.2 178.851516392737 10.8770524130969
vertex 42.2 179.807676340697 13.8601917297676
vertex 32.2 179.807676340697 13.8601917297676
endloop
endfacet
facet normal -3.92052407432846e-016 0.76298696129929 -0.646413874299798
outer loop
vertex 32.2 158.844156464409 23.7569664915976
vertex 42.2 157.148483607263 21.1229475869031
vertex 32.2 157.148483607263 21.1229475869031
endloop
endfacet
facet normal -4.80164175320105e-016 0.904293032728098 -0.426912298908593
outer loop
vertex 42.2 157.148483607263 21.1229475869031
vertex 32.2 158.844156464409 23.7569664915976
vertex 42.2 158.844156464409 23.7569664915976
endloop
endfacet
facet normal -1.66207765602686e-031 -0.0824296203211917 0.996596888262102
outer loop
vertex 42.2 168.989155443854 4.04083734085481
vertex 32.2 172.050709849099 4.70434819417614
vertex 32.2 168.989155443854 4.04083734085481
endloop
endfacet
facet normal 1.43501140735269e-016 -0.337559154091582 0.941304317151991
outer loop
vertex 32.2 172.050709849099 4.70434819417614
vertex 42.2 168.989155443854 4.04083734085481
vertex 42.2 172.050709849099 4.70434819417614
endloop
endfacet
facet normal -5.35553548168116e-016 0.983973028391379 -0.178317355852698
outer loop
vertex 32.2 156.192323659303 18.1398082702324
vertex 42.2 156.040837340855 15.0108445561457
vertex 32.2 156.040837340855 15.0108445561457
endloop
endfacet
facet normal -5.54445831752554e-016 0.996596888262102 0.082429620321191
outer loop
vertex 42.2 156.040837340855 15.0108445561457
vertex 32.2 156.192323659303 18.1398082702324
vertex 42.2 156.192323659303 18.1398082702324
endloop
endfacet
facet normal -2.77222915876277e-016 0.56968458935351 -0.821863412406905
outer loop
vertex 42.2 161.163784927758 25.8623609488829
vertex 32.2 158.844156464409 23.7569664915976
vertex 32.2 161.163784927758 25.8623609488829
endloop
endfacet
facet normal -3.92052407432846e-016 0.76298696129929 -0.646413874299798
outer loop
vertex 32.2 158.844156464409 23.7569664915976
vertex 42.2 161.163784927758 25.8623609488829
vertex 42.2 158.844156464409 23.7569664915976
endloop
endfacet
facet normal -1.4350114073527e-016 0.337559154091584 -0.94130431715199
outer loop
vertex 42.2 163.949290150901 27.2956518058239
vertex 32.2 161.163784927758 25.8623609488829
vertex 32.2 163.949290150901 27.2956518058239
endloop
endfacet
facet normal -2.77222915876277e-016 0.56968458935351 -0.821863412406906
outer loop
vertex 32.2 161.163784927758 25.8623609488829
vertex 42.2 163.949290150901 27.2956518058239
vertex 42.2 161.163784927758 25.8623609488829
endloop
endfacet
facet normal 5.35553548168115e-016 -0.941304317151991 -0.337559154091583
outer loop
vertex 42.2 179.295651805824 20.050709849099
vertex 32.2 179.959162659145 16.9891554438543
vertex 42.2 179.959162659145 16.9891554438543
endloop
endfacet
facet normal 5.54445831752554e-016 -0.996596888262102 -0.0824296203211913
outer loop
vertex 32.2 179.959162659145 16.9891554438543
vertex 42.2 179.295651805824 20.050709849099
vertex 32.2 179.295651805824 20.050709849099
endloop
endfacet
facet normal 2.77222915876276e-016 -0.569684589353508 0.821863412406906
outer loop
vertex 42.2 174.836215072242 6.13763905111716
vertex 32.2 177.155843535592 8.24303350840247
vertex 32.2 174.836215072242 6.13763905111716
endloop
endfacet
facet normal 3.92052407432846e-016 -0.76298696129929 0.646413874299799
outer loop
vertex 32.2 177.155843535592 8.24303350840247
vertex 42.2 174.836215072242 6.13763905111716
vertex 42.2 177.155843535592 8.24303350840247
endloop
endfacet
facet normal -1.43501140735269e-016 0.1783173558527 0.983973028391379
outer loop
vertex 42.2 165.860191729768 4.19232365930348
vertex 32.2 168.989155443854 4.04083734085481
vertex 32.2 165.860191729768 4.19232365930348
endloop
endfacet
facet normal -1.66207765602686e-031 -0.0824296203211917 0.996596888262102
outer loop
vertex 32.2 168.989155443854 4.04083734085481
vertex 42.2 165.860191729768 4.19232365930348
vertex 42.2 168.989155443854 4.04083734085481
endloop
endfacet
facet normal 2.77222915876277e-016 -0.426912298908592 -0.904293032728098
outer loop
vertex 42.2 173.122947586903 26.8515163927372
vertex 32.2 170.139808270232 27.8076763406966
vertex 32.2 173.122947586903 26.8515163927372
endloop
endfacet
facet normal 1.43501140735269e-016 -0.178317355852699 -0.983973028391379
outer loop
vertex 32.2 170.139808270232 27.8076763406966
vertex 42.2 173.122947586903 26.8515163927372
vertex 42.2 170.139808270232 27.8076763406966
endloop
endfacet
facet normal 4.80164175320104e-016 -0.821863412406905 -0.56968458935351
outer loop
vertex 42.2 177.862360948883 22.8362150722421
vertex 32.2 179.295651805824 20.050709849099
vertex 42.2 179.295651805824 20.050709849099
endloop
endfacet
facet normal 5.35553548168115e-016 -0.941304317151991 -0.337559154091583
outer loop
vertex 32.2 179.295651805824 20.050709849099
vertex 42.2 177.862360948883 22.8362150722421
vertex 32.2 177.862360948883 22.8362150722421
endloop
endfacet
facet normal 5.54445831752554e-016 -0.996596888262102 -0.0824296203211913
outer loop
vertex 42.2 179.959162659145 16.9891554438543
vertex 32.2 179.807676340697 13.8601917297676
vertex 42.2 179.807676340697 13.8601917297676
endloop
endfacet
facet normal 5.35553548168116e-016 -0.983973028391379 0.178317355852698
outer loop
vertex 32.2 179.807676340697 13.8601917297676
vertex 42.2 179.959162659145 16.9891554438543
vertex 32.2 179.959162659145 16.9891554438543
endloop
endfacet
facet normal 1.43501140735269e-016 -0.337559154091582 0.941304317151991
outer loop
vertex 32.2 172.050709849099 4.70434819417614
vertex 42.2 174.836215072242 6.13763905111716
vertex 32.2 174.836215072242 6.13763905111716
endloop
endfacet
facet normal 2.77222915876276e-016 -0.569684589353508 0.821863412406906
outer loop
vertex 42.2 174.836215072242 6.13763905111716
vertex 32.2 172.050709849099 4.70434819417614
vertex 42.2 172.050709849099 4.70434819417614
endloop
endfacet
facet normal -3.92052407432847e-016 0.646413874299798 0.762986961299291
outer loop
vertex 42.2 160.243033508402 6.84415646440853
vertex 32.2 162.877052413097 5.14848360726286
vertex 32.2 160.243033508402 6.84415646440853
endloop
endfacet
facet normal -2.77222915876278e-016 0.426912298908594 0.904293032728097
outer loop
vertex 32.2 162.877052413097 5.14848360726286
vertex 42.2 160.243033508402 6.84415646440853
vertex 42.2 162.877052413097 5.14848360726286
endloop
endfacet
facet normal -4.80164175320104e-016 0.821863412406905 0.569684589353511
outer loop
vertex 32.2 158.137639051117 9.16378492775792
vertex 42.2 160.243033508402 6.84415646440853
vertex 32.2 160.243033508402 6.84415646440853
endloop
endfacet
facet normal -3.92052407432847e-016 0.646413874299798 0.762986961299291
outer loop
vertex 42.2 160.243033508402 6.84415646440853
vertex 32.2 158.137639051117 9.16378492775792
vertex 42.2 158.137639051117 9.16378492775792
endloop
endfacet
facet normal -5.35553548168115e-016 0.94130431715199 0.337559154091583
outer loop
vertex 32.2 156.704348194176 11.949290150901
vertex 42.2 158.137639051117 9.16378492775792
vertex 32.2 158.137639051117 9.16378492775792
endloop
endfacet
facet normal -4.80164175320104e-016 0.821863412406905 0.569684589353511
outer loop
vertex 42.2 158.137639051117 9.16378492775792
vertex 32.2 156.704348194176 11.949290150901
vertex 42.2 156.704348194176 11.949290150901
endloop
endfacet
facet normal 1.43501140735269e-016 -0.178317355852699 -0.983973028391379
outer loop
vertex 42.2 170.139808270232 27.8076763406966
vertex 32.2 167.010844556146 27.9591626591453
vertex 32.2 170.139808270232 27.8076763406966
endloop
endfacet
facet normal -8.7061210553788e-032 0.0824296203211922 -0.996596888262102
outer loop
vertex 32.2 167.010844556146 27.9591626591453
vertex 42.2 170.139808270232 27.8076763406966
vertex 42.2 167.010844556146 27.9591626591453
endloop
endfacet
facet normal -8.7061210553788e-032 0.0824296203211922 -0.996596888262102
outer loop
vertex 42.2 167.010844556146 27.9591626591453
vertex 32.2 163.949290150901 27.2956518058239
vertex 32.2 167.010844556146 27.9591626591453
endloop
endfacet
facet normal -1.4350114073527e-016 0.337559154091584 -0.94130431715199
outer loop
vertex 32.2 163.949290150901 27.2956518058239
vertex 42.2 167.010844556146 27.9591626591453
vertex 42.2 163.949290150901 27.2956518058239
endloop
endfacet
facet normal 3.92052407432846e-016 -0.646413874299796 -0.762986961299292
outer loop
vertex 42.2 175.756966491598 25.1558435355915
vertex 32.2 173.122947586903 26.8515163927372
vertex 32.2 175.756966491598 25.1558435355915
endloop
endfacet
facet normal 2.77222915876277e-016 -0.426912298908592 -0.904293032728098
outer loop
vertex 32.2 173.122947586903 26.8515163927372
vertex 42.2 175.756966491598 25.1558435355915
vertex 42.2 173.122947586903 26.8515163927372
endloop
endfacet
endsolid SpoolHolderBracketV5
