solid standiff-onewire-x2
facet normal -0.707106781186547 0.707106781186548 0.0
outer loop
vertex -1.83847763108502 1.83847763108502 10.75
vertex -2.25166604983954 1.3 0.0
vertex -2.25166604983954 1.3 10.75
endloop
endfacet
facet normal -0.866025403784439 0.5 0.0
outer loop
vertex -2.25166604983954 1.3 0.0
vertex -1.83847763108502 1.83847763108502 10.75
vertex -1.83847763108502 1.83847763108502 0.0
endloop
endfacet
facet normal -1.0 4.18822165095404e-016 0.0
outer loop
vertex -2.6 3.52495810318487e-016 10.75
vertex -2.51140714835158 -0.672929517266553 0.0
vertex -2.51140714835158 -0.672929517266553 10.75
endloop
endfacet
facet normal -0.965925826289068 -0.25881904510252 0.0
outer loop
vertex -2.51140714835158 -0.672929517266553 0.0
vertex -2.6 3.52495810318487e-016 10.75
vertex -2.6 3.52495810318487e-016 0.0
endloop
endfacet
facet normal 0.707106781186547 -0.707106781186548 0.0
outer loop
vertex 1.83847763108502 -1.83847763108502 10.75
vertex 1.3 -2.25166604983954 0.0
vertex 1.83847763108502 -1.83847763108502 0.0
endloop
endfacet
facet normal 0.5 -0.866025403784439 0.0
outer loop
vertex 1.3 -2.25166604983954 0.0
vertex 1.83847763108502 -1.83847763108502 10.75
vertex 1.3 -2.25166604983954 10.75
endloop
endfacet
facet normal -0.707106781186548 -0.707106781186547 0.0
outer loop
vertex 1.1667261889578 1.1667261889578 10.75
vertex 0.825 1.42894191624432 0.0
vertex 1.1667261889578 1.1667261889578 0.0
endloop
endfacet
facet normal -0.5 -0.866025403784439 0.0
outer loop
vertex 0.825 1.42894191624432 0.0
vertex 1.1667261889578 1.1667261889578 10.75
vertex 0.825 1.42894191624432 10.75
endloop
endfacet
facet normal 0.866025403784439 0.5 0.0
outer loop
vertex 2.25166604983954 1.3 0.0
vertex 2.51140714835158 0.672929517266554 10.75
vertex 2.51140714835158 0.672929517266554 0.0
endloop
endfacet
facet normal 0.965925826289068 0.258819045102521 0.0
outer loop
vertex 2.51140714835158 0.672929517266554 10.75
vertex 2.25166604983954 1.3 0.0
vertex 2.25166604983954 1.3 10.75
endloop
endfacet
facet normal 0.25881904510252 -0.965925826289068 0.0
outer loop
vertex 0.672929517266553 -2.51140714835158 10.75
vertex -3.52495810318487e-016 -2.6 0.0
vertex 0.672929517266553 -2.51140714835158 0.0
endloop
endfacet
facet normal -2.94066626556348e-016 -1.0 0.0
outer loop
vertex -3.52495810318487e-016 -2.6 0.0
vertex 0.672929517266553 -2.51140714835158 10.75
vertex -3.52495810318487e-016 -2.6 10.75
endloop
endfacet
facet normal -0.965925826289068 0.258819045102521 0.0
outer loop
vertex -2.51140714835158 0.672929517266555 10.75
vertex -2.6 3.52495810318487e-016 0.0
vertex -2.6 3.52495810318487e-016 10.75
endloop
endfacet
facet normal -1.0 4.18822165095404e-016 0.0
outer loop
vertex -2.6 3.52495810318487e-016 0.0
vertex -2.51140714835158 0.672929517266555 10.75
vertex -2.51140714835158 0.672929517266555 0.0
endloop
endfacet
facet normal -0.258819045102521 -0.965925826289068 0.0
outer loop
vertex 0.427051424419159 1.59377761337696 10.75
vertex 0.0 1.65 0.0
vertex 0.427051424419159 1.59377761337696 0.0
endloop
endfacet
facet normal -3.47533285930229e-016 -1.0 0.0
outer loop
vertex 0.0 1.65 0.0
vertex 0.427051424419159 1.59377761337696 10.75
vertex 0.0 1.65 10.75
endloop
endfacet
facet normal -2.94066626556348e-016 -1.0 0.0
outer loop
vertex -3.52495810318487e-016 -2.6 10.75
vertex -0.672929517266556 -2.51140714835158 0.0
vertex -3.52495810318487e-016 -2.6 0.0
endloop
endfacet
facet normal -0.258819045102521 -0.965925826289068 0.0
outer loop
vertex -0.672929517266556 -2.51140714835158 0.0
vertex -3.52495810318487e-016 -2.6 10.75
vertex -0.672929517266556 -2.51140714835158 10.75
endloop
endfacet
facet normal 0.866025403784438 -0.500000000000001 0.0
outer loop
vertex 2.25166604983954 -1.3 0.0
vertex 1.83847763108502 -1.83847763108502 10.75
vertex 1.83847763108502 -1.83847763108502 0.0
endloop
endfacet
facet normal 0.707106781186547 -0.707106781186548 0.0
outer loop
vertex 1.83847763108502 -1.83847763108502 10.75
vertex 2.25166604983954 -1.3 0.0
vertex 2.25166604983954 -1.3 10.75
endloop
endfacet
facet normal 0.5 -0.866025403784439 0.0
outer loop
vertex 1.3 -2.25166604983954 10.75
vertex 0.672929517266553 -2.51140714835158 0.0
vertex 1.3 -2.25166604983954 0.0
endloop
endfacet
facet normal 0.25881904510252 -0.965925826289068 0.0
outer loop
vertex 0.672929517266553 -2.51140714835158 0.0
vertex 1.3 -2.25166604983954 10.75
vertex 0.672929517266553 -2.51140714835158 10.75
endloop
endfacet
facet normal -0.707106781186548 -0.707106781186547 0.0
outer loop
vertex 1.1667261889578 1.1667261889578 10.75
vertex 1.42894191624432 0.825 0.0
vertex 1.42894191624432 0.825 10.75
endloop
endfacet
facet normal -0.866025403784439 -0.5 0.0
outer loop
vertex 1.42894191624432 0.825 0.0
vertex 1.1667261889578 1.1667261889578 10.75
vertex 1.1667261889578 1.1667261889578 0.0
endloop
endfacet
facet normal 0.5 0.866025403784439 0.0
outer loop
vertex 1.3 2.25166604983954 10.75
vertex 1.83847763108502 1.83847763108502 0.0
vertex 1.3 2.25166604983954 0.0
endloop
endfacet
facet normal 0.707106781186548 0.707106781186547 0.0
outer loop
vertex 1.83847763108502 1.83847763108502 0.0
vertex 1.3 2.25166604983954 10.75
vertex 1.83847763108502 1.83847763108502 10.75
endloop
endfacet
facet normal -0.5 -0.866025403784439 0.0
outer loop
vertex 0.825 1.42894191624432 10.75
vertex 0.427051424419159 1.59377761337696 0.0
vertex 0.825 1.42894191624432 0.0
endloop
endfacet
facet normal -0.258819045102521 -0.965925826289068 0.0
outer loop
vertex 0.427051424419159 1.59377761337696 0.0
vertex 0.825 1.42894191624432 10.75
vertex 0.427051424419159 1.59377761337696 10.75
endloop
endfacet
facet normal -0.258819045102521 -0.965925826289068 0.0
outer loop
vertex -0.672929517266556 -2.51140714835158 10.75
vertex -1.3 -2.25166604983954 0.0
vertex -0.672929517266556 -2.51140714835158 0.0
endloop
endfacet
facet normal -0.500000000000001 -0.866025403784438 0.0
outer loop
vertex -1.3 -2.25166604983954 0.0
vertex -0.672929517266556 -2.51140714835158 10.75
vertex -1.3 -2.25166604983954 10.75
endloop
endfacet
facet normal 0.0 0.0 1.0
outer loop
vertex -2.51140714835158 -0.672929517266553 10.75
vertex -2.51140714835158 0.672929517266555 10.75
vertex -2.6 3.52495810318487e-016 10.75
endloop
endfacet
facet normal 0.0 0.0 1.0
outer loop
vertex -2.51140714835158 0.672929517266555 10.75
vertex -2.51140714835158 -0.672929517266553 10.75
vertex -2.25166604983954 -1.3 10.75
endloop
endfacet
facet normal 0.0 0.0 1.0
outer loop
vertex -2.51140714835158 0.672929517266555 10.75
vertex -2.25166604983954 -1.3 10.75
vertex -2.25166604983954 1.3 10.75
endloop
endfacet
facet normal 0.0 0.0 1.0
outer loop
vertex -2.25166604983954 1.3 10.75
vertex -2.25166604983954 -1.3 10.75
vertex -1.83847763108502 -1.83847763108502 10.75
endloop
endfacet
facet normal 0.0 0.0 1.0
outer loop
vertex -2.25166604983954 1.3 10.75
vertex -1.83847763108502 -1.83847763108502 10.75
vertex -1.83847763108502 1.83847763108502 10.75
endloop
endfacet
facet normal 0.0 0.0 1.0
outer loop
vertex -1.83847763108502 1.83847763108502 10.75
vertex -1.83847763108502 -1.83847763108502 10.75
vertex -1.65 3.52495810318487e-016 10.75
endloop
endfacet
facet normal 0.0 0.0 1.0
outer loop
vertex -1.65 3.52495810318487e-016 10.75
vertex -1.83847763108502 -1.83847763108502 10.75
vertex -1.59377761337696 -0.427051424419159 10.75
endloop
endfacet
facet normal 0.0 0.0 1.0
outer loop
vertex -1.59377761337696 -0.427051424419159 10.75
vertex -1.83847763108502 -1.83847763108502 10.75
vertex -1.3 -2.25166604983954 10.75
endloop
endfacet
facet normal 0.0 0.0 1.0
outer loop
vertex -1.59377761337696 -0.427051424419159 10.75
vertex -1.3 -2.25166604983954 10.75
vertex -1.42894191624432 -0.824999999999999 10.75
endloop
endfacet
facet normal 0.0 0.0 1.0
outer loop
vertex -1.42894191624432 -0.824999999999999 10.75
vertex -1.3 -2.25166604983954 10.75
vertex -1.1667261889578 -1.1667261889578 10.75
endloop
endfacet
facet normal 0.0 0.0 1.0
outer loop
vertex -1.1667261889578 -1.1667261889578 10.75
vertex -1.3 -2.25166604983954 10.75
vertex -0.672929517266556 -2.51140714835158 10.75
endloop
endfacet
facet normal 0.0 0.0 1.0
outer loop
vertex -1.1667261889578 -1.1667261889578 10.75
vertex -0.672929517266556 -2.51140714835158 10.75
vertex -0.825000000000001 -1.42894191624432 10.75
endloop
endfacet
facet normal 0.0 0.0 1.0
outer loop
vertex -0.825000000000001 -1.42894191624432 10.75
vertex -0.672929517266556 -2.51140714835158 10.75
vertex -0.42705142441916 -1.59377761337696 10.75
endloop
endfacet
facet normal 0.0 0.0 1.0
outer loop
vertex -0.42705142441916 -1.59377761337696 10.75
vertex -0.672929517266556 -2.51140714835158 10.75
vertex -3.52495810318487e-016 -2.6 10.75
endloop
endfacet
facet normal 0.0 0.0 1.0
outer loop
vertex -0.42705142441916 -1.59377761337696 10.75
vertex -3.52495810318487e-016 -2.6 10.75
vertex -3.52495810318487e-016 -1.65 10.75
endloop
endfacet
facet normal 0.0 0.0 1.0
outer loop
vertex -3.52495810318487e-016 -1.65 10.75
vertex -3.52495810318487e-016 -2.6 10.75
vertex 0.672929517266553 -2.51140714835158 10.75
endloop
endfacet
facet normal 0.0 0.0 1.0
outer loop
vertex -3.52495810318487e-016 -1.65 10.75
vertex 0.672929517266553 -2.51140714835158 10.75
vertex 0.427051424419159 -1.59377761337696 10.75
endloop
endfacet
facet normal 0.0 0.0 1.0
outer loop
vertex 0.427051424419159 -1.59377761337696 10.75
vertex 0.672929517266553 -2.51140714835158 10.75
vertex 0.824999999999999 -1.42894191624432 10.75
endloop
endfacet
facet normal 0.0 0.0 1.0
outer loop
vertex 0.824999999999999 -1.42894191624432 10.75
vertex 0.672929517266553 -2.51140714835158 10.75
vertex 1.3 -2.25166604983954 10.75
endloop
endfacet
facet normal 0.0 0.0 1.0
outer loop
vertex 0.824999999999999 -1.42894191624432 10.75
vertex 1.3 -2.25166604983954 10.75
vertex 1.1667261889578 -1.1667261889578 10.75
endloop
endfacet
facet normal 0.0 0.0 1.0
outer loop
vertex 1.1667261889578 -1.1667261889578 10.75
vertex 1.3 -2.25166604983954 10.75
vertex 1.42894191624432 -0.825000000000001 10.75
endloop
endfacet
facet normal 0.0 0.0 1.0
outer loop
vertex 1.42894191624432 -0.825000000000001 10.75
vertex 1.3 -2.25166604983954 10.75
vertex 1.83847763108502 -1.83847763108502 10.75
endloop
endfacet
facet normal 0.0 0.0 1.0
outer loop
vertex 1.42894191624432 -0.825000000000001 10.75
vertex 1.83847763108502 -1.83847763108502 10.75
vertex 1.59377761337696 -0.427051424419161 10.75
endloop
endfacet
facet normal 0.0 0.0 1.0
outer loop
vertex 1.59377761337696 -0.427051424419161 10.75
vertex 1.83847763108502 -1.83847763108502 10.75
vertex 1.65 0.0 10.75
endloop
endfacet
facet normal 0.0 0.0 1.0
outer loop
vertex -1.83847763108502 1.83847763108502 10.75
vertex -1.59377761337696 0.42705142441916 10.75
vertex -1.3 2.25166604983954 10.75
endloop
endfacet
facet normal 0.0 0.0 1.0
outer loop
vertex -1.59377761337696 0.42705142441916 10.75
vertex -1.83847763108502 1.83847763108502 10.75
vertex -1.65 3.52495810318487e-016 10.75
endloop
endfacet
facet normal 0.0 0.0 1.0
outer loop
vertex -1.3 2.25166604983954 10.75
vertex -1.59377761337696 0.42705142441916 10.75
vertex -1.42894191624432 0.825000000000001 10.75
endloop
endfacet
facet normal 0.0 0.0 1.0
outer loop
vertex -1.3 2.25166604983954 10.75
vertex -1.42894191624432 0.825000000000001 10.75
vertex -1.1667261889578 1.1667261889578 10.75
endloop
endfacet
facet normal 0.0 0.0 1.0
outer loop
vertex -1.3 2.25166604983954 10.75
vertex -1.1667261889578 1.1667261889578 10.75
vertex -0.672929517266554 2.51140714835158 10.75
endloop
endfacet
facet normal 0.0 0.0 1.0
outer loop
vertex -0.672929517266554 2.51140714835158 10.75
vertex -1.1667261889578 1.1667261889578 10.75
vertex -0.825 1.42894191624432 10.75
endloop
endfacet
facet normal 0.0 0.0 1.0
outer loop
vertex -0.672929517266554 2.51140714835158 10.75
vertex -0.825 1.42894191624432 10.75
vertex -0.427051424419159 1.59377761337696 10.75
endloop
endfacet
facet normal 0.0 0.0 1.0
outer loop
vertex -0.672929517266554 2.51140714835158 10.75
vertex -0.427051424419159 1.59377761337696 10.75
vertex 0.0 2.6 10.75
endloop
endfacet
facet normal 0.0 0.0 1.0
outer loop
vertex 0.0 2.6 10.75
vertex -0.427051424419159 1.59377761337696 10.75
vertex 0.0 1.65 10.75
endloop
endfacet
facet normal 0.0 0.0 1.0
outer loop
vertex 0.0 2.6 10.75
vertex 0.0 1.65 10.75
vertex 0.427051424419159 1.59377761337696 10.75
endloop
endfacet
facet normal 0.0 0.0 1.0
outer loop
vertex 0.0 2.6 10.75
vertex 0.427051424419159 1.59377761337696 10.75
vertex 0.672929517266555 2.51140714835158 10.75
endloop
endfacet
facet normal 0.0 0.0 1.0
outer loop
vertex 0.672929517266555 2.51140714835158 10.75
vertex 0.427051424419159 1.59377761337696 10.75
vertex 0.825 1.42894191624432 10.75
endloop
endfacet
facet normal 0.0 0.0 1.0
outer loop
vertex 0.672929517266555 2.51140714835158 10.75
vertex 0.825 1.42894191624432 10.75
vertex 1.3 2.25166604983954 10.75
endloop
endfacet
facet normal 0.0 0.0 1.0
outer loop
vertex 1.3 2.25166604983954 10.75
vertex 0.825 1.42894191624432 10.75
vertex 1.1667261889578 1.1667261889578 10.75
endloop
endfacet
facet normal 0.0 0.0 1.0
outer loop
vertex 1.3 2.25166604983954 10.75
vertex 1.1667261889578 1.1667261889578 10.75
vertex 1.42894191624432 0.825 10.75
endloop
endfacet
facet normal 0.0 0.0 1.0
outer loop
vertex 1.3 2.25166604983954 10.75
vertex 1.42894191624432 0.825 10.75
vertex 1.83847763108502 1.83847763108502 10.75
endloop
endfacet
facet normal 0.0 0.0 1.0
outer loop
vertex 1.83847763108502 1.83847763108502 10.75
vertex 1.42894191624432 0.825 10.75
vertex 1.59377761337696 0.427051424419159 10.75
endloop
endfacet
facet normal 0.0 0.0 1.0
outer loop
vertex 1.83847763108502 1.83847763108502 10.75
vertex 1.59377761337696 0.427051424419159 10.75
vertex 1.65 0.0 10.75
endloop
endfacet
facet normal 0.0 0.0 1.0
outer loop
vertex 1.83847763108502 1.83847763108502 10.75
vertex 1.65 0.0 10.75
vertex 1.83847763108502 -1.83847763108502 10.75
endloop
endfacet
facet normal 0.0 0.0 1.0
outer loop
vertex 1.83847763108502 1.83847763108502 10.75
vertex 1.83847763108502 -1.83847763108502 10.75
vertex 2.25166604983954 -1.3 10.75
endloop
endfacet
facet normal 0.0 0.0 1.0
outer loop
vertex 1.83847763108502 1.83847763108502 10.75
vertex 2.25166604983954 -1.3 10.75
vertex 2.25166604983954 1.3 10.75
endloop
endfacet
facet normal 0.0 0.0 1.0
outer loop
vertex 2.25166604983954 1.3 10.75
vertex 2.25166604983954 -1.3 10.75
vertex 2.51140714835158 -0.672929517266556 10.75
endloop
endfacet
facet normal 0.0 0.0 1.0
outer loop
vertex 2.25166604983954 1.3 10.75
vertex 2.51140714835158 -0.672929517266556 10.75
vertex 2.51140714835158 0.672929517266554 10.75
endloop
endfacet
facet normal 0.0 0.0 1.0
outer loop
vertex 2.51140714835158 0.672929517266554 10.75
vertex 2.51140714835158 -0.672929517266556 10.75
vertex 2.6 0.0 10.75
endloop
endfacet
facet normal 1.0 -5.34666593738814e-017 0.0
outer loop
vertex 2.6 0.0 0.0
vertex 2.51140714835158 -0.672929517266556 10.75
vertex 2.51140714835158 -0.672929517266556 0.0
endloop
endfacet
facet normal 0.965925826289068 -0.258819045102521 0.0
outer loop
vertex 2.51140714835158 -0.672929517266556 10.75
vertex 2.6 0.0 0.0
vertex 2.6 0.0 10.75
endloop
endfacet
facet normal -3.47533285930229e-016 -1.0 0.0
outer loop
vertex 0.0 1.65 10.75
vertex -0.427051424419159 1.59377761337696 0.0
vertex 0.0 1.65 0.0
endloop
endfacet
facet normal 0.258819045102521 -0.965925826289068 0.0
outer loop
vertex -0.427051424419159 1.59377761337696 0.0
vertex 0.0 1.65 10.75
vertex -0.427051424419159 1.59377761337696 10.75
endloop
endfacet
facet normal 0.258819045102521 -0.965925826289068 0.0
outer loop
vertex -0.427051424419159 1.59377761337696 10.75
vertex -0.825 1.42894191624432 0.0
vertex -0.427051424419159 1.59377761337696 0.0
endloop
endfacet
facet normal 0.5 -0.866025403784439 0.0
outer loop
vertex -0.825 1.42894191624432 0.0
vertex -0.427051424419159 1.59377761337696 10.75
vertex -0.825 1.42894191624432 10.75
endloop
endfacet
facet normal 0.707106781186548 0.707106781186547 0.0
outer loop
vertex 1.83847763108502 1.83847763108502 0.0
vertex 2.25166604983954 1.3 10.75
vertex 2.25166604983954 1.3 0.0
endloop
endfacet
facet normal 0.866025403784439 0.5 0.0
outer loop
vertex 2.25166604983954 1.3 10.75
vertex 1.83847763108502 1.83847763108502 0.0
vertex 1.83847763108502 1.83847763108502 10.75
endloop
endfacet
facet normal -0.707106781186547 0.707106781186548 0.0
outer loop
vertex -1.83847763108502 1.83847763108502 10.75
vertex -1.3 2.25166604983954 0.0
vertex -1.83847763108502 1.83847763108502 0.0
endloop
endfacet
facet normal -0.5 0.866025403784439 0.0
outer loop
vertex -1.3 2.25166604983954 0.0
vertex -1.83847763108502 1.83847763108502 10.75
vertex -1.3 2.25166604983954 10.75
endloop
endfacet
facet normal -0.866025403784439 0.5 0.0
outer loop
vertex -2.25166604983954 1.3 10.75
vertex -2.51140714835158 0.672929517266555 0.0
vertex -2.51140714835158 0.672929517266555 10.75
endloop
endfacet
facet normal -0.965925826289068 0.258819045102521 0.0
outer loop
vertex -2.51140714835158 0.672929517266555 0.0
vertex -2.25166604983954 1.3 10.75
vertex -2.25166604983954 1.3 0.0
endloop
endfacet
facet normal 0.965925826289068 -0.258819045102521 0.0
outer loop
vertex 2.51140714835158 -0.672929517266556 0.0
vertex 2.25166604983954 -1.3 10.75
vertex 2.25166604983954 -1.3 0.0
endloop
endfacet
facet normal 0.866025403784438 -0.500000000000001 0.0
outer loop
vertex 2.25166604983954 -1.3 10.75
vertex 2.51140714835158 -0.672929517266556 0.0
vertex 2.51140714835158 -0.672929517266556 10.75
endloop
endfacet
facet normal 2.22777747391173e-016 1.0 0.0
outer loop
vertex 0.0 2.6 10.75
vertex 0.672929517266555 2.51140714835158 0.0
vertex 0.0 2.6 0.0
endloop
endfacet
facet normal 0.258819045102521 0.965925826289068 0.0
outer loop
vertex 0.672929517266555 2.51140714835158 0.0
vertex 0.0 2.6 10.75
vertex 0.672929517266555 2.51140714835158 10.75
endloop
endfacet
facet normal -0.866025403784439 -0.5 0.0
outer loop
vertex 1.42894191624432 0.825 10.75
vertex 1.59377761337696 0.427051424419159 0.0
vertex 1.59377761337696 0.427051424419159 10.75
endloop
endfacet
facet normal -0.965925826289068 -0.258819045102521 0.0
outer loop
vertex 1.59377761337696 0.427051424419159 0.0
vertex 1.42894191624432 0.825 10.75
vertex 1.42894191624432 0.825 0.0
endloop
endfacet
facet normal -0.258819045102521 0.965925826289068 0.0
outer loop
vertex -0.672929517266554 2.51140714835158 10.75
vertex 0.0 2.6 0.0
vertex -0.672929517266554 2.51140714835158 0.0
endloop
endfacet
facet normal 2.22777747391173e-016 1.0 0.0
outer loop
vertex 0.0 2.6 0.0
vertex -0.672929517266554 2.51140714835158 10.75
vertex 0.0 2.6 10.75
endloop
endfacet
facet normal -0.500000000000001 -0.866025403784438 0.0
outer loop
vertex -1.3 -2.25166604983954 10.75
vertex -1.83847763108502 -1.83847763108502 0.0
vertex -1.3 -2.25166604983954 0.0
endloop
endfacet
facet normal -0.707106781186548 -0.707106781186547 0.0
outer loop
vertex -1.83847763108502 -1.83847763108502 0.0
vertex -1.3 -2.25166604983954 10.75
vertex -1.83847763108502 -1.83847763108502 10.75
endloop
endfacet
facet normal 0.5 -0.866025403784439 0.0
outer loop
vertex -0.825 1.42894191624432 10.75
vertex -1.1667261889578 1.1667261889578 0.0
vertex -0.825 1.42894191624432 0.0
endloop
endfacet
facet normal 0.707106781186547 -0.707106781186548 0.0
outer loop
vertex -1.1667261889578 1.1667261889578 0.0
vertex -0.825 1.42894191624432 10.75
vertex -1.1667261889578 1.1667261889578 10.75
endloop
endfacet
facet normal -0.5 0.866025403784439 0.0
outer loop
vertex 0.824999999999999 -1.42894191624432 10.75
vertex 1.1667261889578 -1.1667261889578 0.0
vertex 0.824999999999999 -1.42894191624432 0.0
endloop
endfacet
facet normal -0.707106781186547 0.707106781186548 0.0
outer loop
vertex 1.1667261889578 -1.1667261889578 0.0
vertex 0.824999999999999 -1.42894191624432 10.75
vertex 1.1667261889578 -1.1667261889578 10.75
endloop
endfacet
facet normal 5.79222143217049e-016 1.0 0.0
outer loop
vertex -3.52495810318487e-016 -1.65 10.75
vertex 0.427051424419159 -1.59377761337696 0.0
vertex -3.52495810318487e-016 -1.65 0.0
endloop
endfacet
facet normal -0.25881904510252 0.965925826289068 0.0
outer loop
vertex 0.427051424419159 -1.59377761337696 0.0
vertex -3.52495810318487e-016 -1.65 10.75
vertex 0.427051424419159 -1.59377761337696 10.75
endloop
endfacet
facet normal 0.707106781186547 -0.707106781186548 0.0
outer loop
vertex -1.1667261889578 1.1667261889578 0.0
vertex -1.42894191624432 0.825000000000001 10.75
vertex -1.42894191624432 0.825000000000001 0.0
endloop
endfacet
facet normal 0.866025403784439 -0.5 0.0
outer loop
vertex -1.42894191624432 0.825000000000001 10.75
vertex -1.1667261889578 1.1667261889578 0.0
vertex -1.1667261889578 1.1667261889578 10.75
endloop
endfacet
facet normal -0.965925826289068 -0.25881904510252 0.0
outer loop
vertex -2.51140714835158 -0.672929517266553 10.75
vertex -2.25166604983954 -1.3 0.0
vertex -2.25166604983954 -1.3 10.75
endloop
endfacet
facet normal -0.866025403784439 -0.5 0.0
outer loop
vertex -2.25166604983954 -1.3 0.0
vertex -2.51140714835158 -0.672929517266553 10.75
vertex -2.51140714835158 -0.672929517266553 0.0
endloop
endfacet
facet normal 0.965925826289068 0.258819045102521 0.0
outer loop
vertex 2.51140714835158 0.672929517266554 0.0
vertex 2.6 0.0 10.75
vertex 2.6 0.0 0.0
endloop
endfacet
facet normal 1.0 -5.34666593738814e-017 0.0
outer loop
vertex 2.6 0.0 10.75
vertex 2.51140714835158 0.672929517266554 0.0
vertex 2.51140714835158 0.672929517266554 10.75
endloop
endfacet
facet normal 0.866025403784439 -0.5 0.0
outer loop
vertex -1.42894191624432 0.825000000000001 0.0
vertex -1.59377761337696 0.42705142441916 10.75
vertex -1.59377761337696 0.42705142441916 0.0
endloop
endfacet
facet normal 0.965925826289068 -0.258819045102521 0.0
outer loop
vertex -1.59377761337696 0.42705142441916 10.75
vertex -1.42894191624432 0.825000000000001 0.0
vertex -1.42894191624432 0.825000000000001 10.75
endloop
endfacet
facet normal -0.866025403784439 -0.5 0.0
outer loop
vertex -2.25166604983954 -1.3 10.75
vertex -1.83847763108502 -1.83847763108502 0.0
vertex -1.83847763108502 -1.83847763108502 10.75
endloop
endfacet
facet normal -0.707106781186548 -0.707106781186547 0.0
outer loop
vertex -1.83847763108502 -1.83847763108502 0.0
vertex -2.25166604983954 -1.3 10.75
vertex -2.25166604983954 -1.3 0.0
endloop
endfacet
facet normal 0.866025403784439 0.5 0.0
outer loop
vertex -1.42894191624432 -0.824999999999999 0.0
vertex -1.1667261889578 -1.1667261889578 10.75
vertex -1.1667261889578 -1.1667261889578 0.0
endloop
endfacet
facet normal 0.707106781186548 0.707106781186547 0.0
outer loop
vertex -1.1667261889578 -1.1667261889578 10.75
vertex -1.42894191624432 -0.824999999999999 0.0
vertex -1.42894191624432 -0.824999999999999 10.75
endloop
endfacet
facet normal 0.707106781186548 0.707106781186547 0.0
outer loop
vertex -1.1667261889578 -1.1667261889578 10.75
vertex -0.825000000000001 -1.42894191624432 0.0
vertex -1.1667261889578 -1.1667261889578 0.0
endloop
endfacet
facet normal 0.5 0.866025403784438 0.0
outer loop
vertex -0.825000000000001 -1.42894191624432 0.0
vertex -1.1667261889578 -1.1667261889578 10.75
vertex -0.825000000000001 -1.42894191624432 10.75
endloop
endfacet
facet normal 1.0 -2.94066626556348e-016 0.0
outer loop
vertex -1.65 3.52495810318487e-016 0.0
vertex -1.59377761337696 -0.427051424419159 10.75
vertex -1.59377761337696 -0.427051424419159 0.0
endloop
endfacet
facet normal 0.965925826289068 0.258819045102521 0.0
outer loop
vertex -1.59377761337696 -0.427051424419159 10.75
vertex -1.65 3.52495810318487e-016 0.0
vertex -1.65 3.52495810318487e-016 10.75
endloop
endfacet
facet normal 0.258819045102521 0.965925826289068 0.0
outer loop
vertex -0.42705142441916 -1.59377761337696 10.75
vertex -3.52495810318487e-016 -1.65 0.0
vertex -0.42705142441916 -1.59377761337696 0.0
endloop
endfacet
facet normal 5.79222143217049e-016 1.0 0.0
outer loop
vertex -3.52495810318487e-016 -1.65 0.0
vertex -0.42705142441916 -1.59377761337696 10.75
vertex -3.52495810318487e-016 -1.65 10.75
endloop
endfacet
facet normal -0.25881904510252 0.965925826289068 0.0
outer loop
vertex 0.427051424419159 -1.59377761337696 10.75
vertex 0.824999999999999 -1.42894191624432 0.0
vertex 0.427051424419159 -1.59377761337696 0.0
endloop
endfacet
facet normal -0.5 0.866025403784439 0.0
outer loop
vertex 0.824999999999999 -1.42894191624432 0.0
vertex 0.427051424419159 -1.59377761337696 10.75
vertex 0.824999999999999 -1.42894191624432 10.75
endloop
endfacet
facet normal 0.5 0.866025403784438 0.0
outer loop
vertex -0.825000000000001 -1.42894191624432 10.75
vertex -0.42705142441916 -1.59377761337696 0.0
vertex -0.825000000000001 -1.42894191624432 0.0
endloop
endfacet
facet normal 0.258819045102521 0.965925826289068 0.0
outer loop
vertex -0.42705142441916 -1.59377761337696 0.0
vertex -0.825000000000001 -1.42894191624432 10.75
vertex -0.42705142441916 -1.59377761337696 10.75
endloop
endfacet
facet normal -0.965925826289068 -0.258819045102521 0.0
outer loop
vertex 1.59377761337696 0.427051424419159 10.75
vertex 1.65 0.0 0.0
vertex 1.65 0.0 10.75
endloop
endfacet
facet normal -1.0 5.88133253112696e-016 0.0
outer loop
vertex 1.65 0.0 0.0
vertex 1.59377761337696 0.427051424419159 10.75
vertex 1.59377761337696 0.427051424419159 0.0
endloop
endfacet
facet normal 0.0 0.0 -1.0
outer loop
vertex -1.83847763108502 1.83847763108502 0.0
vertex -1.59377761337696 0.42705142441916 0.0
vertex -1.65 3.52495810318487e-016 0.0
endloop
endfacet
facet normal 0.0 0.0 -1.0
outer loop
vertex -1.59377761337696 0.42705142441916 0.0
vertex -1.83847763108502 1.83847763108502 0.0
vertex -1.3 2.25166604983954 0.0
endloop
endfacet
facet normal 0.0 0.0 -1.0
outer loop
vertex -1.59377761337696 0.42705142441916 0.0
vertex -1.3 2.25166604983954 0.0
vertex -1.42894191624432 0.825000000000001 0.0
endloop
endfacet
facet normal 0.0 0.0 -1.0
outer loop
vertex -1.42894191624432 0.825000000000001 0.0
vertex -1.3 2.25166604983954 0.0
vertex -1.1667261889578 1.1667261889578 0.0
endloop
endfacet
facet normal 0.0 0.0 -1.0
outer loop
vertex -1.1667261889578 1.1667261889578 0.0
vertex -1.3 2.25166604983954 0.0
vertex -0.672929517266554 2.51140714835158 0.0
endloop
endfacet
facet normal 0.0 0.0 -1.0
outer loop
vertex -1.1667261889578 1.1667261889578 0.0
vertex -0.672929517266554 2.51140714835158 0.0
vertex -0.825 1.42894191624432 0.0
endloop
endfacet
facet normal 0.0 0.0 -1.0
outer loop
vertex -0.825 1.42894191624432 0.0
vertex -0.672929517266554 2.51140714835158 0.0
vertex -0.427051424419159 1.59377761337696 0.0
endloop
endfacet
facet normal 0.0 0.0 -1.0
outer loop
vertex -0.427051424419159 1.59377761337696 0.0
vertex -0.672929517266554 2.51140714835158 0.0
vertex 0.0 2.6 0.0
endloop
endfacet
facet normal 0.0 0.0 -1.0
outer loop
vertex -0.427051424419159 1.59377761337696 0.0
vertex 0.0 2.6 0.0
vertex 0.0 1.65 0.0
endloop
endfacet
facet normal 0.0 0.0 -1.0
outer loop
vertex 0.0 1.65 0.0
vertex 0.0 2.6 0.0
vertex 0.672929517266555 2.51140714835158 0.0
endloop
endfacet
facet normal 0.0 0.0 -1.0
outer loop
vertex 0.0 1.65 0.0
vertex 0.672929517266555 2.51140714835158 0.0
vertex 0.427051424419159 1.59377761337696 0.0
endloop
endfacet
facet normal 0.0 0.0 -1.0
outer loop
vertex 0.427051424419159 1.59377761337696 0.0
vertex 0.672929517266555 2.51140714835158 0.0
vertex 0.825 1.42894191624432 0.0
endloop
endfacet
facet normal 0.0 0.0 -1.0
outer loop
vertex 0.825 1.42894191624432 0.0
vertex 0.672929517266555 2.51140714835158 0.0
vertex 1.3 2.25166604983954 0.0
endloop
endfacet
facet normal 0.0 0.0 -1.0
outer loop
vertex 0.825 1.42894191624432 0.0
vertex 1.3 2.25166604983954 0.0
vertex 1.1667261889578 1.1667261889578 0.0
endloop
endfacet
facet normal 0.0 0.0 -1.0
outer loop
vertex 1.1667261889578 1.1667261889578 0.0
vertex 1.3 2.25166604983954 0.0
vertex 1.42894191624432 0.825 0.0
endloop
endfacet
facet normal 0.0 0.0 -1.0
outer loop
vertex 1.42894191624432 0.825 0.0
vertex 1.3 2.25166604983954 0.0
vertex 1.83847763108502 1.83847763108502 0.0
endloop
endfacet
facet normal 0.0 0.0 -1.0
outer loop
vertex 1.42894191624432 0.825 0.0
vertex 1.83847763108502 1.83847763108502 0.0
vertex 1.59377761337696 0.427051424419159 0.0
endloop
endfacet
facet normal 0.0 0.0 -1.0
outer loop
vertex 1.59377761337696 0.427051424419159 0.0
vertex 1.83847763108502 1.83847763108502 0.0
vertex 1.65 0.0 0.0
endloop
endfacet
facet normal 0.0 0.0 -1.0
outer loop
vertex 1.65 0.0 0.0
vertex 1.83847763108502 1.83847763108502 0.0
vertex 1.83847763108502 -1.83847763108502 0.0
endloop
endfacet
facet normal 0.0 0.0 -1.0
outer loop
vertex 1.83847763108502 -1.83847763108502 0.0
vertex 1.83847763108502 1.83847763108502 0.0
vertex 2.25166604983954 -1.3 0.0
endloop
endfacet
facet normal 0.0 0.0 -1.0
outer loop
vertex 2.25166604983954 -1.3 0.0
vertex 1.83847763108502 1.83847763108502 0.0
vertex 2.25166604983954 1.3 0.0
endloop
endfacet
facet normal 0.0 0.0 -1.0
outer loop
vertex 2.25166604983954 -1.3 0.0
vertex 2.25166604983954 1.3 0.0
vertex 2.51140714835158 -0.672929517266556 0.0
endloop
endfacet
facet normal 0.0 0.0 -1.0
outer loop
vertex 2.51140714835158 -0.672929517266556 0.0
vertex 2.25166604983954 1.3 0.0
vertex 2.51140714835158 0.672929517266554 0.0
endloop
endfacet
facet normal 0.0 0.0 -1.0
outer loop
vertex 2.51140714835158 -0.672929517266556 0.0
vertex 2.51140714835158 0.672929517266554 0.0
vertex 2.6 0.0 0.0
endloop
endfacet
facet normal 0.0 0.0 -1.0
outer loop
vertex -2.51140714835158 0.672929517266555 0.0
vertex -2.51140714835158 -0.672929517266553 0.0
vertex -2.6 3.52495810318487e-016 0.0
endloop
endfacet
facet normal 0.0 0.0 -1.0
outer loop
vertex -2.51140714835158 -0.672929517266553 0.0
vertex -2.51140714835158 0.672929517266555 0.0
vertex -2.25166604983954 -1.3 0.0
endloop
endfacet
facet normal 0.0 0.0 -1.0
outer loop
vertex -2.25166604983954 -1.3 0.0
vertex -2.51140714835158 0.672929517266555 0.0
vertex -2.25166604983954 1.3 0.0
endloop
endfacet
facet normal 0.0 0.0 -1.0
outer loop
vertex -2.25166604983954 -1.3 0.0
vertex -2.25166604983954 1.3 0.0
vertex -1.83847763108502 -1.83847763108502 0.0
endloop
endfacet
facet normal 0.0 0.0 -1.0
outer loop
vertex -1.83847763108502 -1.83847763108502 0.0
vertex -2.25166604983954 1.3 0.0
vertex -1.83847763108502 1.83847763108502 0.0
endloop
endfacet
facet normal 0.0 0.0 -1.0
outer loop
vertex -1.83847763108502 -1.83847763108502 0.0
vertex -1.83847763108502 1.83847763108502 0.0
vertex -1.65 3.52495810318487e-016 0.0
endloop
endfacet
facet normal 0.0 0.0 -1.0
outer loop
vertex -1.83847763108502 -1.83847763108502 0.0
vertex -1.65 3.52495810318487e-016 0.0
vertex -1.59377761337696 -0.427051424419159 0.0
endloop
endfacet
facet normal 0.0 0.0 -1.0
outer loop
vertex -1.83847763108502 -1.83847763108502 0.0
vertex -1.59377761337696 -0.427051424419159 0.0
vertex -1.3 -2.25166604983954 0.0
endloop
endfacet
facet normal 0.0 0.0 -1.0
outer loop
vertex -1.3 -2.25166604983954 0.0
vertex -1.59377761337696 -0.427051424419159 0.0
vertex -1.42894191624432 -0.824999999999999 0.0
endloop
endfacet
facet normal 0.0 0.0 -1.0
outer loop
vertex -1.3 -2.25166604983954 0.0
vertex -1.42894191624432 -0.824999999999999 0.0
vertex -1.1667261889578 -1.1667261889578 0.0
endloop
endfacet
facet normal 0.0 0.0 -1.0
outer loop
vertex -1.3 -2.25166604983954 0.0
vertex -1.1667261889578 -1.1667261889578 0.0
vertex -0.672929517266556 -2.51140714835158 0.0
endloop
endfacet
facet normal 0.0 0.0 -1.0
outer loop
vertex -0.672929517266556 -2.51140714835158 0.0
vertex -1.1667261889578 -1.1667261889578 0.0
vertex -0.825000000000001 -1.42894191624432 0.0
endloop
endfacet
facet normal 0.0 0.0 -1.0
outer loop
vertex -0.672929517266556 -2.51140714835158 0.0
vertex -0.825000000000001 -1.42894191624432 0.0
vertex -0.42705142441916 -1.59377761337696 0.0
endloop
endfacet
facet normal 0.0 0.0 -1.0
outer loop
vertex -0.672929517266556 -2.51140714835158 0.0
vertex -0.42705142441916 -1.59377761337696 0.0
vertex -3.52495810318487e-016 -2.6 0.0
endloop
endfacet
facet normal 0.0 0.0 -1.0
outer loop
vertex -3.52495810318487e-016 -2.6 0.0
vertex -0.42705142441916 -1.59377761337696 0.0
vertex -3.52495810318487e-016 -1.65 0.0
endloop
endfacet
facet normal 0.0 0.0 -1.0
outer loop
vertex -3.52495810318487e-016 -2.6 0.0
vertex -3.52495810318487e-016 -1.65 0.0
vertex 0.427051424419159 -1.59377761337696 0.0
endloop
endfacet
facet normal 0.0 0.0 -1.0
outer loop
vertex -3.52495810318487e-016 -2.6 0.0
vertex 0.427051424419159 -1.59377761337696 0.0
vertex 0.672929517266553 -2.51140714835158 0.0
endloop
endfacet
facet normal 0.0 0.0 -1.0
outer loop
vertex 0.672929517266553 -2.51140714835158 0.0
vertex 0.427051424419159 -1.59377761337696 0.0
vertex 0.824999999999999 -1.42894191624432 0.0
endloop
endfacet
facet normal 0.0 0.0 -1.0
outer loop
vertex 0.672929517266553 -2.51140714835158 0.0
vertex 0.824999999999999 -1.42894191624432 0.0
vertex 1.3 -2.25166604983954 0.0
endloop
endfacet
facet normal 0.0 0.0 -1.0
outer loop
vertex 1.3 -2.25166604983954 0.0
vertex 0.824999999999999 -1.42894191624432 0.0
vertex 1.1667261889578 -1.1667261889578 0.0
endloop
endfacet
facet normal 0.0 0.0 -1.0
outer loop
vertex 1.3 -2.25166604983954 0.0
vertex 1.1667261889578 -1.1667261889578 0.0
vertex 1.42894191624432 -0.825000000000001 0.0
endloop
endfacet
facet normal 0.0 0.0 -1.0
outer loop
vertex 1.3 -2.25166604983954 0.0
vertex 1.42894191624432 -0.825000000000001 0.0
vertex 1.83847763108502 -1.83847763108502 0.0
endloop
endfacet
facet normal 0.0 0.0 -1.0
outer loop
vertex 1.83847763108502 -1.83847763108502 0.0
vertex 1.42894191624432 -0.825000000000001 0.0
vertex 1.59377761337696 -0.427051424419161 0.0
endloop
endfacet
facet normal 0.0 0.0 -1.0
outer loop
vertex 1.83847763108502 -1.83847763108502 0.0
vertex 1.59377761337696 -0.427051424419161 0.0
vertex 1.65 0.0 0.0
endloop
endfacet
facet normal 0.965925826289068 0.258819045102521 0.0
outer loop
vertex -1.59377761337696 -0.427051424419159 0.0
vertex -1.42894191624432 -0.824999999999999 10.75
vertex -1.42894191624432 -0.824999999999999 0.0
endloop
endfacet
facet normal 0.866025403784439 0.5 0.0
outer loop
vertex -1.42894191624432 -0.824999999999999 10.75
vertex -1.59377761337696 -0.427051424419159 0.0
vertex -1.59377761337696 -0.427051424419159 10.75
endloop
endfacet
facet normal 0.258819045102521 0.965925826289068 0.0
outer loop
vertex 0.672929517266555 2.51140714835158 10.75
vertex 1.3 2.25166604983954 0.0
vertex 0.672929517266555 2.51140714835158 0.0
endloop
endfacet
facet normal 0.5 0.866025403784439 0.0
outer loop
vertex 1.3 2.25166604983954 0.0
vertex 0.672929517266555 2.51140714835158 10.75
vertex 1.3 2.25166604983954 10.75
endloop
endfacet
facet normal -0.5 0.866025403784439 0.0
outer loop
vertex -1.3 2.25166604983954 10.75
vertex -0.672929517266554 2.51140714835158 0.0
vertex -1.3 2.25166604983954 0.0
endloop
endfacet
facet normal -0.258819045102521 0.965925826289068 0.0
outer loop
vertex -0.672929517266554 2.51140714835158 0.0
vertex -1.3 2.25166604983954 10.75
vertex -0.672929517266554 2.51140714835158 10.75
endloop
endfacet
facet normal 0.965925826289068 -0.258819045102521 0.0
outer loop
vertex -1.59377761337696 0.42705142441916 0.0
vertex -1.65 3.52495810318487e-016 10.75
vertex -1.65 3.52495810318487e-016 0.0
endloop
endfacet
facet normal 1.0 -2.94066626556348e-016 0.0
outer loop
vertex -1.65 3.52495810318487e-016 10.75
vertex -1.59377761337696 0.42705142441916 0.0
vertex -1.59377761337696 0.42705142441916 10.75
endloop
endfacet
facet normal -0.866025403784439 0.5 0.0
outer loop
vertex 1.42894191624432 -0.825000000000001 10.75
vertex 1.1667261889578 -1.1667261889578 0.0
vertex 1.1667261889578 -1.1667261889578 10.75
endloop
endfacet
facet normal -0.707106781186547 0.707106781186548 0.0
outer loop
vertex 1.1667261889578 -1.1667261889578 0.0
vertex 1.42894191624432 -0.825000000000001 10.75
vertex 1.42894191624432 -0.825000000000001 0.0
endloop
endfacet
facet normal -1.0 5.88133253112696e-016 0.0
outer loop
vertex 1.65 0.0 10.75
vertex 1.59377761337696 -0.427051424419161 0.0
vertex 1.59377761337696 -0.427051424419161 10.75
endloop
endfacet
facet normal -0.965925826289068 0.258819045102521 0.0
outer loop
vertex 1.59377761337696 -0.427051424419161 0.0
vertex 1.65 0.0 10.75
vertex 1.65 0.0 0.0
endloop
endfacet
facet normal -0.965925826289068 0.258819045102521 0.0
outer loop
vertex 1.59377761337696 -0.427051424419161 10.75
vertex 1.42894191624432 -0.825000000000001 0.0
vertex 1.42894191624432 -0.825000000000001 10.75
endloop
endfacet
facet normal -0.866025403784439 0.5 0.0
outer loop
vertex 1.42894191624432 -0.825000000000001 0.0
vertex 1.59377761337696 -0.427051424419161 10.75
vertex 1.59377761337696 -0.427051424419161 0.0
endloop
endfacet
endsolid standiff-onewire-x2
