solid PulleyV7
facet normal 0.5 -0.866025403784439 0.0
outer loop
vertex 7.08 10.8970802824123 14.0
vertex 3.66487767865169 9.48249029974679 3.0
vertex 7.08 10.8970802824123 3.0
endloop
endfacet
facet normal 0.258819045102521 -0.965925826289068 0.0
outer loop
vertex 3.66487767865169 9.48249029974679 3.0
vertex 7.08 10.8970802824123 14.0
vertex 3.66487767865169 9.48249029974679 14.0
endloop
endfacet
facet normal 0.707106781186548 -0.707106781186547 0.0
outer loop
vertex 10.0126320216015 13.1473679783985 14.0
vertex 7.08 10.8970802824123 3.0
vertex 10.0126320216015 13.1473679783985 3.0
endloop
endfacet
facet normal 0.5 -0.866025403784439 0.0
outer loop
vertex 7.08 10.8970802824123 3.0
vertex 10.0126320216015 13.1473679783985 14.0
vertex 7.08 10.8970802824123 14.0
endloop
endfacet
facet normal 0.258819045102521 -0.965925826289068 0.0
outer loop
vertex 5.99424908457438 0.789157863145177 3.0
vertex -2.8199664825479e-015 -5.28743715477731e-016 0.0
vertex 5.99424908457438 0.789157863145177 0.0
endloop
endfacet
facet normal -2.85155516660701e-016 -1.0 0.0
outer loop
vertex -2.8199664825479e-015 -5.28743715477731e-016 0.0
vertex 5.99424908457438 0.789157863145177 3.0
vertex -2.8199664825479e-015 -5.28743715477731e-016 3.0
endloop
endfacet
facet normal -0.5 0.866025403784439 0.0
outer loop
vertex 5.58 13.4951564937657 14.0
vertex 7.89131167804187 15.2686883219581 0.0
vertex 5.58 13.4951564937657 0.0
endloop
endfacet
facet normal -0.707106781186548 0.707106781186548 0.0
outer loop
vertex 7.89131167804187 15.2686883219581 0.0
vertex 5.58 13.4951564937657 14.0
vertex 7.89131167804187 15.2686883219581 14.0
endloop
endfacet
facet normal -0.965925826289068 0.258819045102521 0.0
outer loop
vertex 10.779732221386 20.2715794566559 14.0
vertex 9.66484350623434 17.58 0.0
vertex 9.66484350623434 17.58 14.0
endloop
endfacet
facet normal -0.866025403784439 0.5 0.0
outer loop
vertex 9.66484350623434 17.58 0.0
vertex 10.779732221386 20.2715794566559 14.0
vertex 10.779732221386 20.2715794566559 0.0
endloop
endfacet
facet normal 0.258819045102521 -0.965925826289068 0.0
outer loop
vertex 3.66487767865169 9.48249029974679 14.0
vertex 0.0 9.0 3.0
vertex 3.66487767865169 9.48249029974679 3.0
endloop
endfacet
facet normal -2.13866637495526e-016 -1.0 0.0
outer loop
vertex 0.0 9.0 3.0
vertex 3.66487767865169 9.48249029974679 14.0
vertex 0.0 9.0 14.0
endloop
endfacet
facet normal 0.866025403784439 0.5 0.0
outer loop
vertex -9.66484350623434 17.58 0.0
vertex -7.89131167804187 15.2686883219581 14.0
vertex -7.89131167804187 15.2686883219581 0.0
endloop
endfacet
facet normal 0.707106781186548 0.707106781186547 0.0
outer loop
vertex -7.89131167804187 15.2686883219581 14.0
vertex -9.66484350623434 17.58 0.0
vertex -9.66484350623434 17.58 14.0
endloop
endfacet
facet normal -0.866025403784439 -0.5 0.0
outer loop
vertex -12.2629197175877 16.08 14.0
vertex -10.0126320216015 13.1473679783985 3.0
vertex -10.0126320216015 13.1473679783985 14.0
endloop
endfacet
facet normal -0.707106781186548 -0.707106781186547 0.0
outer loop
vertex -10.0126320216015 13.1473679783985 3.0
vertex -12.2629197175877 16.08 14.0
vertex -12.2629197175877 16.08 3.0
endloop
endfacet
facet normal -0.866025403784439 -0.5 0.0
outer loop
vertex -20.0571483516476 11.58 3.0
vertex -16.3765930522804 6.78340694771958 0.0
vertex -16.3765930522804 6.78340694771958 3.0
endloop
endfacet
facet normal -0.707106781186548 -0.707106781186547 0.0
outer loop
vertex -16.3765930522804 6.78340694771958 0.0
vertex -20.0571483516476 11.58 3.0
vertex -20.0571483516476 11.58 0.0
endloop
endfacet
facet normal 0.707106781186548 0.707106781186547 0.0
outer loop
vertex -7.89131167804187 15.2686883219581 14.0
vertex -5.58000000000001 13.4951564937657 0.0
vertex -7.89131167804187 15.2686883219581 0.0
endloop
endfacet
facet normal 0.5 0.866025403784438 0.0
outer loop
vertex -5.58000000000001 13.4951564937657 0.0
vertex -7.89131167804187 15.2686883219581 14.0
vertex -5.58000000000001 13.4951564937657 14.0
endloop
endfacet
facet normal -0.500000000000001 -0.866025403784438 0.0
outer loop
vertex -7.08000000000001 10.8970802824124 14.0
vertex -10.0126320216015 13.1473679783985 3.0
vertex -7.08000000000001 10.8970802824124 3.0
endloop
endfacet
facet normal -0.707106781186548 -0.707106781186547 0.0
outer loop
vertex -10.0126320216015 13.1473679783985 3.0
vertex -7.08000000000001 10.8970802824124 14.0
vertex -10.0126320216015 13.1473679783985 14.0
endloop
endfacet
facet normal -0.500000000000001 -0.866025403784438 0.0
outer loop
vertex -11.58 3.10285164835242 3.0
vertex -16.3765930522804 6.78340694771958 0.0
vertex -11.58 3.10285164835242 0.0
endloop
endfacet
facet normal -0.707106781186548 -0.707106781186547 0.0
outer loop
vertex -16.3765930522804 6.78340694771958 0.0
vertex -11.58 3.10285164835242 3.0
vertex -16.3765930522804 6.78340694771958 3.0
endloop
endfacet
facet normal 0.5 0.866025403784438 0.0
outer loop
vertex -5.58000000000001 13.4951564937657 14.0
vertex -2.88842054334414 12.380267778614 0.0
vertex -5.58000000000001 13.4951564937657 0.0
endloop
endfacet
facet normal 0.258819045102521 0.965925826289068 0.0
outer loop
vertex -2.88842054334414 12.380267778614 0.0
vertex -5.58000000000001 13.4951564937657 14.0
vertex -2.88842054334414 12.380267778614 14.0
endloop
endfacet
facet normal -0.258819045102521 -0.965925826289068 0.0
outer loop
vertex -3.6648776786517 9.4824902997468 14.0
vertex -7.08000000000001 10.8970802824124 3.0
vertex -3.6648776786517 9.4824902997468 3.0
endloop
endfacet
facet normal -0.500000000000001 -0.866025403784438 0.0
outer loop
vertex -7.08000000000001 10.8970802824124 3.0
vertex -3.6648776786517 9.4824902997468 14.0
vertex -7.08000000000001 10.8970802824124 14.0
endloop
endfacet
facet normal -0.258819045102521 -0.965925826289068 0.0
outer loop
vertex -5.9942490845744 0.789157863145193 3.0
vertex -11.58 3.10285164835242 0.0
vertex -5.9942490845744 0.789157863145193 0.0
endloop
endfacet
facet normal -0.500000000000001 -0.866025403784438 0.0
outer loop
vertex -11.58 3.10285164835242 0.0
vertex -5.9942490845744 0.789157863145193 3.0
vertex -11.58 3.10285164835242 3.0
endloop
endfacet
facet normal 0.258819045102521 0.965925826289068 0.0
outer loop
vertex -2.88842054334414 12.380267778614 14.0
vertex 0.0 12.0 0.0
vertex -2.88842054334414 12.380267778614 0.0
endloop
endfacet
facet normal 2.67333296869407e-016 1.0 0.0
outer loop
vertex 0.0 12.0 0.0
vertex -2.88842054334414 12.380267778614 14.0
vertex 0.0 12.0 14.0
endloop
endfacet
facet normal 0.866025403784439 -0.5 0.0
outer loop
vertex 12.2629197175877 16.08 3.0
vertex 10.0126320216015 13.1473679783985 14.0
vertex 10.0126320216015 13.1473679783985 3.0
endloop
endfacet
facet normal 0.707106781186548 -0.707106781186547 0.0
outer loop
vertex 10.0126320216015 13.1473679783985 14.0
vertex 12.2629197175877 16.08 3.0
vertex 12.2629197175877 16.08 14.0
endloop
endfacet
facet normal -0.25881904510252 0.965925826289068 0.0
outer loop
vertex 2.88842054334413 12.380267778614 14.0
vertex 5.58 13.4951564937657 0.0
vertex 2.88842054334413 12.380267778614 0.0
endloop
endfacet
facet normal -0.5 0.866025403784439 0.0
outer loop
vertex 5.58 13.4951564937657 0.0
vertex 2.88842054334413 12.380267778614 14.0
vertex 5.58 13.4951564937657 14.0
endloop
endfacet
facet normal -1.0 3.7426661561717e-016 0.0
outer loop
vertex -23.16 23.16 3.0
vertex -22.3708421368548 17.1657509154256 0.0
vertex -22.3708421368548 17.1657509154256 3.0
endloop
endfacet
facet normal -0.965925826289068 -0.258819045102521 0.0
outer loop
vertex -22.3708421368548 17.1657509154256 0.0
vertex -23.16 23.16 3.0
vertex -23.16 23.16 0.0
endloop
endfacet
facet normal 0.965925826289068 0.25881904510252 0.0
outer loop
vertex -10.779732221386 20.2715794566559 0.0
vertex -9.66484350623434 17.58 14.0
vertex -9.66484350623434 17.58 0.0
endloop
endfacet
facet normal 0.866025403784439 0.5 0.0
outer loop
vertex -9.66484350623434 17.58 14.0
vertex -10.779732221386 20.2715794566559 0.0
vertex -10.779732221386 20.2715794566559 14.0
endloop
endfacet
facet normal -0.707106781186548 0.707106781186547 0.0
outer loop
vertex -16.3765930522804 39.5365930522804 3.0
vertex -20.0571483516476 34.74 0.0
vertex -20.0571483516476 34.74 3.0
endloop
endfacet
facet normal -0.866025403784439 0.5 0.0
outer loop
vertex -20.0571483516476 34.74 0.0
vertex -16.3765930522804 39.5365930522804 3.0
vertex -16.3765930522804 39.5365930522804 0.0
endloop
endfacet
facet normal 0.866025403784438 -0.500000000000001 0.0
outer loop
vertex -9.66484350623433 28.74 0.0
vertex -10.779732221386 26.0484205433441 14.0
vertex -10.779732221386 26.0484205433441 0.0
endloop
endfacet
facet normal 0.965925826289068 -0.258819045102522 0.0
outer loop
vertex -10.779732221386 26.0484205433441 14.0
vertex -9.66484350623433 28.74 0.0
vertex -9.66484350623433 28.74 14.0
endloop
endfacet
facet normal -0.866025403784439 0.5 0.0
outer loop
vertex -12.2629197175876 30.24 14.0
vertex -13.6775097002532 26.8248776786517 3.0
vertex -13.6775097002532 26.8248776786517 14.0
endloop
endfacet
facet normal -0.965925826289068 0.258819045102522 0.0
outer loop
vertex -13.6775097002532 26.8248776786517 3.0
vertex -12.2629197175876 30.24 14.0
vertex -12.2629197175876 30.24 3.0
endloop
endfacet
facet normal -0.866025403784439 0.5 0.0
outer loop
vertex -20.0571483516476 34.74 3.0
vertex -22.3708421368548 29.1542490845744 0.0
vertex -22.3708421368548 29.1542490845744 3.0
endloop
endfacet
facet normal -0.965925826289068 0.258819045102521 0.0
outer loop
vertex -22.3708421368548 29.1542490845744 0.0
vertex -20.0571483516476 34.74 3.0
vertex -20.0571483516476 34.74 0.0
endloop
endfacet
facet normal 0.707106781186548 -0.707106781186547 0.0
outer loop
vertex 16.3765930522804 6.78340694771956 3.0
vertex 11.58 3.1028516483524 0.0
vertex 16.3765930522804 6.78340694771956 0.0
endloop
endfacet
facet normal 0.5 -0.866025403784439 0.0
outer loop
vertex 11.58 3.1028516483524 0.0
vertex 16.3765930522804 6.78340694771956 3.0
vertex 11.58 3.1028516483524 3.0
endloop
endfacet
facet normal 1.38989521298208e-032 -2.47092482307926e-033 1.0
outer loop
vertex -22.3708421368548 17.1657509154256 3.0
vertex -22.3708421368548 29.1542490845744 3.0
vertex -23.16 23.16 3.0
endloop
endfacet
facet normal 1.38989521298208e-032 -2.47092482307926e-033 1.0
outer loop
vertex -22.3708421368548 29.1542490845744 3.0
vertex -22.3708421368548 17.1657509154256 3.0
vertex -20.0571483516476 11.58 3.0
endloop
endfacet
facet normal 1.38989521298208e-032 -2.47092482307926e-033 1.0
outer loop
vertex -22.3708421368548 29.1542490845744 3.0
vertex -20.0571483516476 11.58 3.0
vertex -20.0571483516476 34.74 3.0
endloop
endfacet
facet normal 1.38989521298208e-032 -2.47092482307926e-033 1.0
outer loop
vertex -20.0571483516476 34.74 3.0
vertex -20.0571483516476 11.58 3.0
vertex -16.3765930522804 6.78340694771958 3.0
endloop
endfacet
facet normal 1.38989521298208e-032 -2.47092482307926e-033 1.0
outer loop
vertex -20.0571483516476 34.74 3.0
vertex -16.3765930522804 6.78340694771958 3.0
vertex -16.3765930522804 39.5365930522804 3.0
endloop
endfacet
facet normal 1.38989521298208e-032 -2.47092482307926e-033 1.0
outer loop
vertex -16.3765930522804 39.5365930522804 3.0
vertex -16.3765930522804 6.78340694771958 3.0
vertex -11.58 3.10285164835242 3.0
endloop
endfacet
facet normal 1.38989521298208e-032 -2.47092482307926e-033 1.0
outer loop
vertex -16.3765930522804 39.5365930522804 3.0
vertex -11.58 3.10285164835242 3.0
vertex -14.16 23.16 3.0
endloop
endfacet
facet normal 1.38989521298208e-032 -2.47092482307926e-033 1.0
outer loop
vertex -14.16 23.16 3.0
vertex -11.58 3.10285164835242 3.0
vertex -13.6775097002532 19.4951223213483 3.0
endloop
endfacet
facet normal 1.38989521298208e-032 -2.47092482307926e-033 1.0
outer loop
vertex -13.6775097002532 19.4951223213483 3.0
vertex -11.58 3.10285164835242 3.0
vertex -12.2629197175877 16.08 3.0
endloop
endfacet
facet normal 1.38989521298208e-032 -2.47092482307926e-033 1.0
outer loop
vertex -12.2629197175877 16.08 3.0
vertex -11.58 3.10285164835242 3.0
vertex -10.0126320216015 13.1473679783985 3.0
endloop
endfacet
facet normal 1.38989521298208e-032 -2.47092482307926e-033 1.0
outer loop
vertex -10.0126320216015 13.1473679783985 3.0
vertex -11.58 3.10285164835242 3.0
vertex -5.9942490845744 0.789157863145193 3.0
endloop
endfacet
facet normal 1.38989521298208e-032 -2.47092482307926e-033 1.0
outer loop
vertex -10.0126320216015 13.1473679783985 3.0
vertex -5.9942490845744 0.789157863145193 3.0
vertex -7.08000000000001 10.8970802824124 3.0
endloop
endfacet
facet normal 1.38989521298208e-032 -2.47092482307926e-033 1.0
outer loop
vertex -7.08000000000001 10.8970802824124 3.0
vertex -5.9942490845744 0.789157863145193 3.0
vertex -3.6648776786517 9.4824902997468 3.0
endloop
endfacet
facet normal 1.38989521298208e-032 -2.47092482307926e-033 1.0
outer loop
vertex -3.6648776786517 9.4824902997468 3.0
vertex -5.9942490845744 0.789157863145193 3.0
vertex -2.8199664825479e-015 -5.28743715477731e-016 3.0
endloop
endfacet
facet normal 1.38989521298208e-032 -2.47092482307926e-033 1.0
outer loop
vertex -3.6648776786517 9.4824902997468 3.0
vertex -2.8199664825479e-015 -5.28743715477731e-016 3.0
vertex 0.0 9.0 3.0
endloop
endfacet
facet normal 1.38989521298208e-032 -2.47092482307926e-033 1.0
outer loop
vertex 0.0 9.0 3.0
vertex -2.8199664825479e-015 -5.28743715477731e-016 3.0
vertex 5.99424908457438 0.789157863145177 3.0
endloop
endfacet
facet normal 1.38989521298208e-032 -2.47092482307926e-033 1.0
outer loop
vertex 0.0 9.0 3.0
vertex 5.99424908457438 0.789157863145177 3.0
vertex 3.66487767865169 9.48249029974679 3.0
endloop
endfacet
facet normal 1.38989521298208e-032 -2.47092482307926e-033 1.0
outer loop
vertex 3.66487767865169 9.48249029974679 3.0
vertex 5.99424908457438 0.789157863145177 3.0
vertex 7.08 10.8970802824123 3.0
endloop
endfacet
facet normal 1.38989521298208e-032 -2.47092482307926e-033 1.0
outer loop
vertex 7.08 10.8970802824123 3.0
vertex 5.99424908457438 0.789157863145177 3.0
vertex 11.58 3.1028516483524 3.0
endloop
endfacet
facet normal 1.38989521298208e-032 -2.47092482307926e-033 1.0
outer loop
vertex 7.08 10.8970802824123 3.0
vertex 11.58 3.1028516483524 3.0
vertex 10.0126320216015 13.1473679783985 3.0
endloop
endfacet
facet normal 1.38989521298208e-032 -2.47092482307926e-033 1.0
outer loop
vertex 10.0126320216015 13.1473679783985 3.0
vertex 11.58 3.1028516483524 3.0
vertex 12.2629197175877 16.08 3.0
endloop
endfacet
facet normal 1.38989521298208e-032 -2.47092482307926e-033 1.0
outer loop
vertex 12.2629197175877 16.08 3.0
vertex 11.58 3.1028516483524 3.0
vertex 16.3765930522804 6.78340694771956 3.0
endloop
endfacet
facet normal 1.38989521298208e-032 -2.47092482307926e-033 1.0
outer loop
vertex 12.2629197175877 16.08 3.0
vertex 16.3765930522804 6.78340694771956 3.0
vertex 13.6775097002532 19.4951223213483 3.0
endloop
endfacet
facet normal 1.38989521298208e-032 -2.47092482307926e-033 1.0
outer loop
vertex 13.6775097002532 19.4951223213483 3.0
vertex 16.3765930522804 6.78340694771956 3.0
vertex 14.16 23.16 3.0
endloop
endfacet
facet normal 1.38989521298208e-032 -2.47092482307926e-033 1.0
outer loop
vertex -14.16 23.16 3.0
vertex -11.58 43.2171483516476 3.0
vertex -16.3765930522804 39.5365930522804 3.0
endloop
endfacet
facet normal 1.38989521298208e-032 -2.47092482307926e-033 1.0
outer loop
vertex -11.58 43.2171483516476 3.0
vertex -14.16 23.16 3.0
vertex -13.6775097002532 26.8248776786517 3.0
endloop
endfacet
facet normal 1.38989521298208e-032 -2.47092482307926e-033 1.0
outer loop
vertex -11.58 43.2171483516476 3.0
vertex -13.6775097002532 26.8248776786517 3.0
vertex -12.2629197175876 30.24 3.0
endloop
endfacet
facet normal 1.38989521298208e-032 -2.47092482307926e-033 1.0
outer loop
vertex -11.58 43.2171483516476 3.0
vertex -12.2629197175876 30.24 3.0
vertex -10.0126320216015 33.1726320216015 3.0
endloop
endfacet
facet normal 1.38989521298208e-032 -2.47092482307926e-033 1.0
outer loop
vertex -11.58 43.2171483516476 3.0
vertex -10.0126320216015 33.1726320216015 3.0
vertex -5.99424908457437 45.5308421368548 3.0
endloop
endfacet
facet normal 1.38989521298208e-032 -2.47092482307926e-033 1.0
outer loop
vertex -5.99424908457437 45.5308421368548 3.0
vertex -10.0126320216015 33.1726320216015 3.0
vertex -7.08 35.4229197175877 3.0
endloop
endfacet
facet normal 1.38989521298208e-032 -2.47092482307926e-033 1.0
outer loop
vertex -5.99424908457437 45.5308421368548 3.0
vertex -7.08 35.4229197175877 3.0
vertex -3.66487767865169 36.8375097002532 3.0
endloop
endfacet
facet normal 1.38989521298208e-032 -2.47092482307926e-033 1.0
outer loop
vertex -5.99424908457437 45.5308421368548 3.0
vertex -3.66487767865169 36.8375097002532 3.0
vertex 1.40998324127395e-014 46.32 3.0
endloop
endfacet
facet normal 1.38989521298208e-032 -2.47092482307926e-033 1.0
outer loop
vertex 1.40998324127395e-014 46.32 3.0
vertex -3.66487767865169 36.8375097002532 3.0
vertex 5.63993296509579e-015 37.32 3.0
endloop
endfacet
facet normal 1.38989521298208e-032 -2.47092482307926e-033 1.0
outer loop
vertex 1.40998324127395e-014 46.32 3.0
vertex 5.63993296509579e-015 37.32 3.0
vertex 3.6648776786517 36.8375097002532 3.0
endloop
endfacet
facet normal 1.38989521298208e-032 -2.47092482307926e-033 1.0
outer loop
vertex 1.40998324127395e-014 46.32 3.0
vertex 3.6648776786517 36.8375097002532 3.0
vertex 5.99424908457439 45.5308421368548 3.0
endloop
endfacet
facet normal 1.38989521298208e-032 -2.47092482307926e-033 1.0
outer loop
vertex 5.99424908457439 45.5308421368548 3.0
vertex 3.6648776786517 36.8375097002532 3.0
vertex 7.08 35.4229197175877 3.0
endloop
endfacet
facet normal 1.38989521298208e-032 -2.47092482307926e-033 1.0
outer loop
vertex 5.99424908457439 45.5308421368548 3.0
vertex 7.08 35.4229197175877 3.0
vertex 11.58 43.2171483516476 3.0
endloop
endfacet
facet normal 1.38989521298208e-032 -2.47092482307926e-033 1.0
outer loop
vertex 11.58 43.2171483516476 3.0
vertex 7.08 35.4229197175877 3.0
vertex 10.0126320216015 33.1726320216015 3.0
endloop
endfacet
facet normal 1.38989521298208e-032 -2.47092482307926e-033 1.0
outer loop
vertex 11.58 43.2171483516476 3.0
vertex 10.0126320216015 33.1726320216015 3.0
vertex 12.2629197175877 30.24 3.0
endloop
endfacet
facet normal 1.38989521298208e-032 -2.47092482307926e-033 1.0
outer loop
vertex 11.58 43.2171483516476 3.0
vertex 12.2629197175877 30.24 3.0
vertex 16.3765930522804 39.5365930522804 3.0
endloop
endfacet
facet normal 1.38989521298208e-032 -2.47092482307926e-033 1.0
outer loop
vertex 16.3765930522804 39.5365930522804 3.0
vertex 12.2629197175877 30.24 3.0
vertex 13.6775097002532 26.8248776786517 3.0
endloop
endfacet
facet normal 1.38989521298208e-032 -2.47092482307926e-033 1.0
outer loop
vertex 16.3765930522804 39.5365930522804 3.0
vertex 13.6775097002532 26.8248776786517 3.0
vertex 14.16 23.16 3.0
endloop
endfacet
facet normal 1.38989521298208e-032 -2.47092482307926e-033 1.0
outer loop
vertex 16.3765930522804 39.5365930522804 3.0
vertex 14.16 23.16 3.0
vertex 16.3765930522804 6.78340694771956 3.0
endloop
endfacet
facet normal 1.38989521298208e-032 -2.47092482307926e-033 1.0
outer loop
vertex 16.3765930522804 39.5365930522804 3.0
vertex 16.3765930522804 6.78340694771956 3.0
vertex 20.0571483516476 11.58 3.0
endloop
endfacet
facet normal 1.38989521298208e-032 -2.47092482307926e-033 1.0
outer loop
vertex 16.3765930522804 39.5365930522804 3.0
vertex 20.0571483516476 11.58 3.0
vertex 20.0571483516476 34.74 3.0
endloop
endfacet
facet normal 1.38989521298208e-032 -2.47092482307926e-033 1.0
outer loop
vertex 20.0571483516476 34.74 3.0
vertex 20.0571483516476 11.58 3.0
vertex 22.3708421368548 17.1657509154256 3.0
endloop
endfacet
facet normal 1.38989521298208e-032 -2.47092482307926e-033 1.0
outer loop
vertex 20.0571483516476 34.74 3.0
vertex 22.3708421368548 17.1657509154256 3.0
vertex 22.3708421368548 29.1542490845744 3.0
endloop
endfacet
facet normal 1.38989521298208e-032 -2.47092482307926e-033 1.0
outer loop
vertex 22.3708421368548 29.1542490845744 3.0
vertex 22.3708421368548 17.1657509154256 3.0
vertex 23.16 23.16 3.0
endloop
endfacet
facet normal -0.965925826289068 -0.25881904510252 0.0
outer loop
vertex -13.6775097002532 19.4951223213483 14.0
vertex -12.2629197175877 16.08 3.0
vertex -12.2629197175877 16.08 14.0
endloop
endfacet
facet normal -0.866025403784439 -0.5 0.0
outer loop
vertex -12.2629197175877 16.08 3.0
vertex -13.6775097002532 19.4951223213483 14.0
vertex -13.6775097002532 19.4951223213483 3.0
endloop
endfacet
facet normal -2.13866637495526e-016 -1.0 0.0
outer loop
vertex 0.0 9.0 14.0
vertex -3.6648776786517 9.4824902997468 3.0
vertex 0.0 9.0 3.0
endloop
endfacet
facet normal -0.258819045102521 -0.965925826289068 0.0
outer loop
vertex -3.6648776786517 9.4824902997468 3.0
vertex 0.0 9.0 14.0
vertex -3.6648776786517 9.4824902997468 14.0
endloop
endfacet
facet normal -2.85155516660701e-016 -1.0 0.0
outer loop
vertex -2.8199664825479e-015 -5.28743715477731e-016 3.0
vertex -5.9942490845744 0.789157863145193 0.0
vertex -2.8199664825479e-015 -5.28743715477731e-016 0.0
endloop
endfacet
facet normal -0.258819045102521 -0.965925826289068 0.0
outer loop
vertex -5.9942490845744 0.789157863145193 0.0
vertex -2.8199664825479e-015 -5.28743715477731e-016 3.0
vertex -5.9942490845744 0.789157863145193 3.0
endloop
endfacet
facet normal 0.866025403784439 -0.5 0.0
outer loop
vertex 20.0571483516476 11.58 0.0
vertex 16.3765930522804 6.78340694771956 3.0
vertex 16.3765930522804 6.78340694771956 0.0
endloop
endfacet
facet normal 0.707106781186548 -0.707106781186547 0.0
outer loop
vertex 16.3765930522804 6.78340694771956 3.0
vertex 20.0571483516476 11.58 0.0
vertex 20.0571483516476 11.58 3.0
endloop
endfacet
facet normal 0.965925826289068 -0.258819045102521 0.0
outer loop
vertex 22.3708421368548 17.1657509154256 0.0
vertex 20.0571483516476 11.58 3.0
vertex 20.0571483516476 11.58 0.0
endloop
endfacet
facet normal 0.866025403784439 -0.5 0.0
outer loop
vertex 20.0571483516476 11.58 3.0
vertex 22.3708421368548 17.1657509154256 0.0
vertex 22.3708421368548 17.1657509154256 3.0
endloop
endfacet
facet normal -0.866025403784439 0.5 0.0
outer loop
vertex 9.66484350623434 17.58 14.0
vertex 7.89131167804187 15.2686883219581 0.0
vertex 7.89131167804187 15.2686883219581 14.0
endloop
endfacet
facet normal -0.707106781186548 0.707106781186548 0.0
outer loop
vertex 7.89131167804187 15.2686883219581 0.0
vertex 9.66484350623434 17.58 14.0
vertex 9.66484350623434 17.58 0.0
endloop
endfacet
facet normal 0.5 -0.866025403784439 0.0
outer loop
vertex 11.58 3.1028516483524 3.0
vertex 5.99424908457438 0.789157863145177 0.0
vertex 11.58 3.1028516483524 0.0
endloop
endfacet
facet normal 0.258819045102521 -0.965925826289068 0.0
outer loop
vertex 5.99424908457438 0.789157863145177 0.0
vertex 11.58 3.1028516483524 3.0
vertex 5.99424908457438 0.789157863145177 3.0
endloop
endfacet
facet normal 2.67333296869407e-016 1.0 0.0
outer loop
vertex 0.0 12.0 14.0
vertex 2.88842054334413 12.380267778614 0.0
vertex 0.0 12.0 0.0
endloop
endfacet
facet normal -0.25881904510252 0.965925826289068 0.0
outer loop
vertex 2.88842054334413 12.380267778614 0.0
vertex 0.0 12.0 14.0
vertex 2.88842054334413 12.380267778614 14.0
endloop
endfacet
facet normal -0.965925826289068 0.258819045102522 0.0
outer loop
vertex -13.6775097002532 26.8248776786517 14.0
vertex -14.16 23.16 3.0
vertex -14.16 23.16 14.0
endloop
endfacet
facet normal -1.0 7.30711011443046e-016 0.0
outer loop
vertex -14.16 23.16 3.0
vertex -13.6775097002532 26.8248776786517 14.0
vertex -13.6775097002532 26.8248776786517 3.0
endloop
endfacet
facet normal 0.0 0.0 -1.0
outer loop
vertex -11.58 43.2171483516476 0.0
vertex -10.779732221386 26.0484205433441 0.0
vertex -11.16 23.16 0.0
endloop
endfacet
facet normal 0.0 0.0 -1.0
outer loop
vertex -10.779732221386 26.0484205433441 0.0
vertex -11.58 43.2171483516476 0.0
vertex -5.99424908457437 45.5308421368548 0.0
endloop
endfacet
facet normal 0.0 0.0 -1.0
outer loop
vertex -10.779732221386 26.0484205433441 0.0
vertex -5.99424908457437 45.5308421368548 0.0
vertex -9.66484350623433 28.74 0.0
endloop
endfacet
facet normal 0.0 0.0 -1.0
outer loop
vertex -9.66484350623433 28.74 0.0
vertex -5.99424908457437 45.5308421368548 0.0
vertex -7.89131167804187 31.0513116780419 0.0
endloop
endfacet
facet normal 0.0 0.0 -1.0
outer loop
vertex -7.89131167804187 31.0513116780419 0.0
vertex -5.99424908457437 45.5308421368548 0.0
vertex -5.58 32.8248435062343 0.0
endloop
endfacet
facet normal 0.0 0.0 -1.0
outer loop
vertex -5.58 32.8248435062343 0.0
vertex -5.99424908457437 45.5308421368548 0.0
vertex 1.40998324127395e-014 46.32 0.0
endloop
endfacet
facet normal 0.0 0.0 -1.0
outer loop
vertex -5.58 32.8248435062343 0.0
vertex 1.40998324127395e-014 46.32 0.0
vertex -2.88842054334413 33.939732221386 0.0
endloop
endfacet
facet normal 0.0 0.0 -1.0
outer loop
vertex -2.88842054334413 33.939732221386 0.0
vertex 1.40998324127395e-014 46.32 0.0
vertex 0.0 34.32 0.0
endloop
endfacet
facet normal 0.0 0.0 -1.0
outer loop
vertex 0.0 34.32 0.0
vertex 1.40998324127395e-014 46.32 0.0
vertex 2.88842054334414 33.939732221386 0.0
endloop
endfacet
facet normal 0.0 0.0 -1.0
outer loop
vertex 2.88842054334414 33.939732221386 0.0
vertex 1.40998324127395e-014 46.32 0.0
vertex 5.99424908457439 45.5308421368548 0.0
endloop
endfacet
facet normal 0.0 0.0 -1.0
outer loop
vertex 2.88842054334414 33.939732221386 0.0
vertex 5.99424908457439 45.5308421368548 0.0
vertex 5.58000000000001 32.8248435062343 0.0
endloop
endfacet
facet normal 0.0 0.0 -1.0
outer loop
vertex 5.58000000000001 32.8248435062343 0.0
vertex 5.99424908457439 45.5308421368548 0.0
vertex 7.89131167804187 31.0513116780419 0.0
endloop
endfacet
facet normal 0.0 0.0 -1.0
outer loop
vertex 7.89131167804187 31.0513116780419 0.0
vertex 5.99424908457439 45.5308421368548 0.0
vertex 11.58 43.2171483516476 0.0
endloop
endfacet
facet normal 0.0 0.0 -1.0
outer loop
vertex 7.89131167804187 31.0513116780419 0.0
vertex 11.58 43.2171483516476 0.0
vertex 9.66484350623434 28.74 0.0
endloop
endfacet
facet normal 0.0 0.0 -1.0
outer loop
vertex 9.66484350623434 28.74 0.0
vertex 11.58 43.2171483516476 0.0
vertex 10.779732221386 26.0484205433441 0.0
endloop
endfacet
facet normal 0.0 0.0 -1.0
outer loop
vertex 10.779732221386 26.0484205433441 0.0
vertex 11.58 43.2171483516476 0.0
vertex 11.16 23.16 0.0
endloop
endfacet
facet normal 0.0 0.0 -1.0
outer loop
vertex 11.16 23.16 0.0
vertex 11.58 43.2171483516476 0.0
vertex 11.58 3.1028516483524 0.0
endloop
endfacet
facet normal 0.0 0.0 -1.0
outer loop
vertex 11.58 3.1028516483524 0.0
vertex 11.58 43.2171483516476 0.0
vertex 16.3765930522804 6.78340694771956 0.0
endloop
endfacet
facet normal 0.0 0.0 -1.0
outer loop
vertex 16.3765930522804 6.78340694771956 0.0
vertex 11.58 43.2171483516476 0.0
vertex 16.3765930522804 39.5365930522804 0.0
endloop
endfacet
facet normal 0.0 0.0 -1.0
outer loop
vertex 16.3765930522804 6.78340694771956 0.0
vertex 16.3765930522804 39.5365930522804 0.0
vertex 20.0571483516476 11.58 0.0
endloop
endfacet
facet normal 0.0 0.0 -1.0
outer loop
vertex 20.0571483516476 11.58 0.0
vertex 16.3765930522804 39.5365930522804 0.0
vertex 20.0571483516476 34.74 0.0
endloop
endfacet
facet normal 0.0 0.0 -1.0
outer loop
vertex 20.0571483516476 11.58 0.0
vertex 20.0571483516476 34.74 0.0
vertex 22.3708421368548 17.1657509154256 0.0
endloop
endfacet
facet normal 0.0 0.0 -1.0
outer loop
vertex 22.3708421368548 17.1657509154256 0.0
vertex 20.0571483516476 34.74 0.0
vertex 22.3708421368548 29.1542490845744 0.0
endloop
endfacet
facet normal 0.0 0.0 -1.0
outer loop
vertex 22.3708421368548 17.1657509154256 0.0
vertex 22.3708421368548 29.1542490845744 0.0
vertex 23.16 23.16 0.0
endloop
endfacet
facet normal 0.0 0.0 -1.0
outer loop
vertex -22.3708421368548 29.1542490845744 0.0
vertex -22.3708421368548 17.1657509154256 0.0
vertex -23.16 23.16 0.0
endloop
endfacet
facet normal 0.0 0.0 -1.0
outer loop
vertex -22.3708421368548 17.1657509154256 0.0
vertex -22.3708421368548 29.1542490845744 0.0
vertex -20.0571483516476 11.58 0.0
endloop
endfacet
facet normal 0.0 0.0 -1.0
outer loop
vertex -20.0571483516476 11.58 0.0
vertex -22.3708421368548 29.1542490845744 0.0
vertex -20.0571483516476 34.74 0.0
endloop
endfacet
facet normal 0.0 0.0 -1.0
outer loop
vertex -20.0571483516476 11.58 0.0
vertex -20.0571483516476 34.74 0.0
vertex -16.3765930522804 6.78340694771958 0.0
endloop
endfacet
facet normal 0.0 0.0 -1.0
outer loop
vertex -16.3765930522804 6.78340694771958 0.0
vertex -20.0571483516476 34.74 0.0
vertex -16.3765930522804 39.5365930522804 0.0
endloop
endfacet
facet normal 0.0 0.0 -1.0
outer loop
vertex -16.3765930522804 6.78340694771958 0.0
vertex -16.3765930522804 39.5365930522804 0.0
vertex -11.58 3.10285164835242 0.0
endloop
endfacet
facet normal 0.0 0.0 -1.0
outer loop
vertex -11.58 3.10285164835242 0.0
vertex -16.3765930522804 39.5365930522804 0.0
vertex -11.58 43.2171483516476 0.0
endloop
endfacet
facet normal 0.0 0.0 -1.0
outer loop
vertex -11.58 3.10285164835242 0.0
vertex -11.58 43.2171483516476 0.0
vertex -11.16 23.16 0.0
endloop
endfacet
facet normal 0.0 0.0 -1.0
outer loop
vertex -11.58 3.10285164835242 0.0
vertex -11.16 23.16 0.0
vertex -10.779732221386 20.2715794566559 0.0
endloop
endfacet
facet normal 0.0 0.0 -1.0
outer loop
vertex -11.58 3.10285164835242 0.0
vertex -10.779732221386 20.2715794566559 0.0
vertex -5.9942490845744 0.789157863145193 0.0
endloop
endfacet
facet normal 0.0 0.0 -1.0
outer loop
vertex -5.9942490845744 0.789157863145193 0.0
vertex -10.779732221386 20.2715794566559 0.0
vertex -9.66484350623434 17.58 0.0
endloop
endfacet
facet normal 0.0 0.0 -1.0
outer loop
vertex -5.9942490845744 0.789157863145193 0.0
vertex -9.66484350623434 17.58 0.0
vertex -7.89131167804187 15.2686883219581 0.0
endloop
endfacet
facet normal 0.0 0.0 -1.0
outer loop
vertex -5.9942490845744 0.789157863145193 0.0
vertex -7.89131167804187 15.2686883219581 0.0
vertex -5.58000000000001 13.4951564937657 0.0
endloop
endfacet
facet normal 0.0 0.0 -1.0
outer loop
vertex -5.9942490845744 0.789157863145193 0.0
vertex -5.58000000000001 13.4951564937657 0.0
vertex -2.8199664825479e-015 -5.28743715477731e-016 0.0
endloop
endfacet
facet normal 0.0 0.0 -1.0
outer loop
vertex -2.8199664825479e-015 -5.28743715477731e-016 0.0
vertex -5.58000000000001 13.4951564937657 0.0
vertex -2.88842054334414 12.380267778614 0.0
endloop
endfacet
facet normal 0.0 0.0 -1.0
outer loop
vertex -2.8199664825479e-015 -5.28743715477731e-016 0.0
vertex -2.88842054334414 12.380267778614 0.0
vertex 0.0 12.0 0.0
endloop
endfacet
facet normal 0.0 0.0 -1.0
outer loop
vertex -2.8199664825479e-015 -5.28743715477731e-016 0.0
vertex 0.0 12.0 0.0
vertex 5.99424908457438 0.789157863145177 0.0
endloop
endfacet
facet normal 0.0 0.0 -1.0
outer loop
vertex 5.99424908457438 0.789157863145177 0.0
vertex 0.0 12.0 0.0
vertex 2.88842054334413 12.380267778614 0.0
endloop
endfacet
facet normal 0.0 0.0 -1.0
outer loop
vertex 5.99424908457438 0.789157863145177 0.0
vertex 2.88842054334413 12.380267778614 0.0
vertex 5.58 13.4951564937657 0.0
endloop
endfacet
facet normal 0.0 0.0 -1.0
outer loop
vertex 5.99424908457438 0.789157863145177 0.0
vertex 5.58 13.4951564937657 0.0
vertex 7.89131167804187 15.2686883219581 0.0
endloop
endfacet
facet normal 0.0 0.0 -1.0
outer loop
vertex 5.99424908457438 0.789157863145177 0.0
vertex 7.89131167804187 15.2686883219581 0.0
vertex 11.58 3.1028516483524 0.0
endloop
endfacet
facet normal 0.0 0.0 -1.0
outer loop
vertex 11.58 3.1028516483524 0.0
vertex 7.89131167804187 15.2686883219581 0.0
vertex 9.66484350623434 17.58 0.0
endloop
endfacet
facet normal 0.0 0.0 -1.0
outer loop
vertex 11.58 3.1028516483524 0.0
vertex 9.66484350623434 17.58 0.0
vertex 10.779732221386 20.2715794566559 0.0
endloop
endfacet
facet normal 0.0 0.0 -1.0
outer loop
vertex 11.58 3.1028516483524 0.0
vertex 10.779732221386 20.2715794566559 0.0
vertex 11.16 23.16 0.0
endloop
endfacet
facet normal -0.965925826289068 0.258819045102521 0.0
outer loop
vertex -22.3708421368548 29.1542490845744 3.0
vertex -23.16 23.16 0.0
vertex -23.16 23.16 3.0
endloop
endfacet
facet normal -1.0 3.7426661561717e-016 0.0
outer loop
vertex -23.16 23.16 0.0
vertex -22.3708421368548 29.1542490845744 3.0
vertex -22.3708421368548 29.1542490845744 0.0
endloop
endfacet
facet normal 1.0 -5.88133253112696e-016 0.0
outer loop
vertex -11.16 23.16 0.0
vertex -10.779732221386 20.2715794566559 14.0
vertex -10.779732221386 20.2715794566559 0.0
endloop
endfacet
facet normal 0.965925826289068 0.25881904510252 0.0
outer loop
vertex -10.779732221386 20.2715794566559 14.0
vertex -11.16 23.16 0.0
vertex -11.16 23.16 14.0
endloop
endfacet
facet normal -1.0 7.30711011443046e-016 0.0
outer loop
vertex -14.16 23.16 14.0
vertex -13.6775097002532 19.4951223213483 3.0
vertex -13.6775097002532 19.4951223213483 14.0
endloop
endfacet
facet normal -0.965925826289068 -0.25881904510252 0.0
outer loop
vertex -13.6775097002532 19.4951223213483 3.0
vertex -14.16 23.16 14.0
vertex -14.16 23.16 3.0
endloop
endfacet
facet normal -0.500000000000001 0.866025403784438 0.0
outer loop
vertex -7.08 35.4229197175877 14.0
vertex -3.66487767865169 36.8375097002532 3.0
vertex -7.08 35.4229197175877 3.0
endloop
endfacet
facet normal -0.25881904510252 0.965925826289068 0.0
outer loop
vertex -3.66487767865169 36.8375097002532 3.0
vertex -7.08 35.4229197175877 14.0
vertex -3.66487767865169 36.8375097002532 14.0
endloop
endfacet
facet normal -0.5 0.866025403784439 0.0
outer loop
vertex -11.58 43.2171483516476 3.0
vertex -5.99424908457437 45.5308421368548 0.0
vertex -11.58 43.2171483516476 0.0
endloop
endfacet
facet normal -0.25881904510252 0.965925826289069 0.0
outer loop
vertex -5.99424908457437 45.5308421368548 0.0
vertex -11.58 43.2171483516476 3.0
vertex -5.99424908457437 45.5308421368548 3.0
endloop
endfacet
facet normal 0.5 -0.866025403784439 0.0
outer loop
vertex -5.58 32.8248435062343 14.0
vertex -7.89131167804187 31.0513116780419 0.0
vertex -5.58 32.8248435062343 0.0
endloop
endfacet
facet normal 0.707106781186547 -0.707106781186548 0.0
outer loop
vertex -7.89131167804187 31.0513116780419 0.0
vertex -5.58 32.8248435062343 14.0
vertex -7.89131167804187 31.0513116780419 14.0
endloop
endfacet
facet normal -0.707106781186548 0.707106781186547 0.0
outer loop
vertex -10.0126320216015 33.1726320216015 14.0
vertex -7.08 35.4229197175877 3.0
vertex -10.0126320216015 33.1726320216015 3.0
endloop
endfacet
facet normal -0.500000000000001 0.866025403784438 0.0
outer loop
vertex -7.08 35.4229197175877 3.0
vertex -10.0126320216015 33.1726320216015 14.0
vertex -7.08 35.4229197175877 14.0
endloop
endfacet
facet normal -0.707106781186548 0.707106781186547 0.0
outer loop
vertex -16.3765930522804 39.5365930522804 3.0
vertex -11.58 43.2171483516476 0.0
vertex -16.3765930522804 39.5365930522804 0.0
endloop
endfacet
facet normal -0.5 0.866025403784439 0.0
outer loop
vertex -11.58 43.2171483516476 0.0
vertex -16.3765930522804 39.5365930522804 3.0
vertex -11.58 43.2171483516476 3.0
endloop
endfacet
facet normal 0.707106781186547 -0.707106781186548 0.0
outer loop
vertex -7.89131167804187 31.0513116780419 0.0
vertex -9.66484350623433 28.74 14.0
vertex -9.66484350623433 28.74 0.0
endloop
endfacet
facet normal 0.866025403784438 -0.500000000000001 0.0
outer loop
vertex -9.66484350623433 28.74 14.0
vertex -7.89131167804187 31.0513116780419 0.0
vertex -7.89131167804187 31.0513116780419 14.0
endloop
endfacet
facet normal -0.707106781186548 0.707106781186547 0.0
outer loop
vertex -10.0126320216015 33.1726320216015 14.0
vertex -12.2629197175876 30.24 3.0
vertex -12.2629197175876 30.24 14.0
endloop
endfacet
facet normal -0.866025403784439 0.5 0.0
outer loop
vertex -12.2629197175876 30.24 3.0
vertex -10.0126320216015 33.1726320216015 14.0
vertex -10.0126320216015 33.1726320216015 3.0
endloop
endfacet
facet normal 0.965925826289068 -0.258819045102521 0.0
outer loop
vertex 13.6775097002532 19.4951223213483 3.0
vertex 12.2629197175877 16.08 14.0
vertex 12.2629197175877 16.08 3.0
endloop
endfacet
facet normal 0.866025403784439 -0.5 0.0
outer loop
vertex 12.2629197175877 16.08 14.0
vertex 13.6775097002532 19.4951223213483 3.0
vertex 13.6775097002532 19.4951223213483 14.0
endloop
endfacet
facet normal 0.866025403784439 0.5 0.0
outer loop
vertex 12.2629197175877 30.24 3.0
vertex 13.6775097002532 26.8248776786517 14.0
vertex 13.6775097002532 26.8248776786517 3.0
endloop
endfacet
facet normal 0.965925826289068 0.25881904510252 0.0
outer loop
vertex 13.6775097002532 26.8248776786517 14.0
vertex 12.2629197175877 30.24 3.0
vertex 12.2629197175877 30.24 14.0
endloop
endfacet
facet normal -1.0 1.51488868225997e-016 0.0
outer loop
vertex 11.16 23.16 14.0
vertex 10.779732221386 20.2715794566559 0.0
vertex 10.779732221386 20.2715794566559 14.0
endloop
endfacet
facet normal -0.965925826289068 0.258819045102521 0.0
outer loop
vertex 10.779732221386 20.2715794566559 0.0
vertex 11.16 23.16 14.0
vertex 11.16 23.16 0.0
endloop
endfacet
facet normal 1.0 -2.67333296869407e-016 0.0
outer loop
vertex 14.16 23.16 3.0
vertex 13.6775097002532 19.4951223213483 14.0
vertex 13.6775097002532 19.4951223213483 3.0
endloop
endfacet
facet normal 0.965925826289068 -0.258819045102521 0.0
outer loop
vertex 13.6775097002532 19.4951223213483 14.0
vertex 14.16 23.16 3.0
vertex 14.16 23.16 14.0
endloop
endfacet
facet normal 0.707106781186548 0.707106781186547 0.0
outer loop
vertex 10.0126320216015 33.1726320216015 3.0
vertex 12.2629197175877 30.24 14.0
vertex 12.2629197175877 30.24 3.0
endloop
endfacet
facet normal 0.866025403784439 0.5 0.0
outer loop
vertex 12.2629197175877 30.24 14.0
vertex 10.0126320216015 33.1726320216015 3.0
vertex 10.0126320216015 33.1726320216015 14.0
endloop
endfacet
facet normal 1.0 -1.96044417704232e-016 0.0
outer loop
vertex 23.16 23.16 0.0
vertex 22.3708421368548 17.1657509154256 3.0
vertex 22.3708421368548 17.1657509154256 0.0
endloop
endfacet
facet normal 0.965925826289068 -0.258819045102521 0.0
outer loop
vertex 22.3708421368548 17.1657509154256 3.0
vertex 23.16 23.16 0.0
vertex 23.16 23.16 3.0
endloop
endfacet
facet normal -0.965925826289068 -0.258819045102521 0.0
outer loop
vertex 10.779732221386 26.0484205433441 14.0
vertex 11.16 23.16 0.0
vertex 11.16 23.16 14.0
endloop
endfacet
facet normal -1.0 1.51488868225997e-016 0.0
outer loop
vertex 11.16 23.16 0.0
vertex 10.779732221386 26.0484205433441 14.0
vertex 10.779732221386 26.0484205433441 0.0
endloop
endfacet
facet normal 0.965925826289068 0.25881904510252 0.0
outer loop
vertex 13.6775097002532 26.8248776786517 3.0
vertex 14.16 23.16 14.0
vertex 14.16 23.16 3.0
endloop
endfacet
facet normal 1.0 -2.67333296869407e-016 0.0
outer loop
vertex 14.16 23.16 14.0
vertex 13.6775097002532 26.8248776786517 3.0
vertex 13.6775097002532 26.8248776786517 14.0
endloop
endfacet
facet normal 0.965925826289068 0.258819045102521 0.0
outer loop
vertex 22.3708421368548 29.1542490845744 0.0
vertex 23.16 23.16 3.0
vertex 23.16 23.16 0.0
endloop
endfacet
facet normal 1.0 -1.96044417704232e-016 0.0
outer loop
vertex 23.16 23.16 3.0
vertex 22.3708421368548 29.1542490845744 0.0
vertex 22.3708421368548 29.1542490845744 3.0
endloop
endfacet
facet normal -0.866025403784439 -0.5 0.0
outer loop
vertex 9.66484350623434 28.74 14.0
vertex 10.779732221386 26.0484205433441 0.0
vertex 10.779732221386 26.0484205433441 14.0
endloop
endfacet
facet normal -0.965925826289068 -0.258819045102521 0.0
outer loop
vertex 10.779732221386 26.0484205433441 0.0
vertex 9.66484350623434 28.74 14.0
vertex 9.66484350623434 28.74 0.0
endloop
endfacet
facet normal 0.866025403784439 0.5 0.0
outer loop
vertex 20.0571483516476 34.74 0.0
vertex 22.3708421368548 29.1542490845744 3.0
vertex 22.3708421368548 29.1542490845744 0.0
endloop
endfacet
facet normal 0.965925826289068 0.258819045102521 0.0
outer loop
vertex 22.3708421368548 29.1542490845744 3.0
vertex 20.0571483516476 34.74 0.0
vertex 20.0571483516476 34.74 3.0
endloop
endfacet
facet normal -0.707106781186548 -0.707106781186547 0.0
outer loop
vertex 7.89131167804187 31.0513116780419 14.0
vertex 9.66484350623434 28.74 0.0
vertex 9.66484350623434 28.74 14.0
endloop
endfacet
facet normal -0.866025403784439 -0.5 0.0
outer loop
vertex 9.66484350623434 28.74 0.0
vertex 7.89131167804187 31.0513116780419 14.0
vertex 7.89131167804187 31.0513116780419 0.0
endloop
endfacet
facet normal 0.707106781186548 0.707106781186547 0.0
outer loop
vertex 16.3765930522804 39.5365930522804 0.0
vertex 20.0571483516476 34.74 3.0
vertex 20.0571483516476 34.74 0.0
endloop
endfacet
facet normal 0.866025403784439 0.5 0.0
outer loop
vertex 20.0571483516476 34.74 3.0
vertex 16.3765930522804 39.5365930522804 0.0
vertex 16.3765930522804 39.5365930522804 3.0
endloop
endfacet
facet normal -0.707106781186548 -0.707106781186547 0.0
outer loop
vertex 7.89131167804187 31.0513116780419 14.0
vertex 5.58000000000001 32.8248435062343 0.0
vertex 7.89131167804187 31.0513116780419 0.0
endloop
endfacet
facet normal -0.5 -0.866025403784439 0.0
outer loop
vertex 5.58000000000001 32.8248435062343 0.0
vertex 7.89131167804187 31.0513116780419 14.0
vertex 5.58000000000001 32.8248435062343 14.0
endloop
endfacet
facet normal 0.500000000000001 0.866025403784438 0.0
outer loop
vertex 7.08 35.4229197175877 14.0
vertex 10.0126320216015 33.1726320216015 3.0
vertex 7.08 35.4229197175877 3.0
endloop
endfacet
facet normal 0.707106781186548 0.707106781186547 0.0
outer loop
vertex 10.0126320216015 33.1726320216015 3.0
vertex 7.08 35.4229197175877 14.0
vertex 10.0126320216015 33.1726320216015 14.0
endloop
endfacet
facet normal 0.5 0.866025403784438 0.0
outer loop
vertex 11.58 43.2171483516476 3.0
vertex 16.3765930522804 39.5365930522804 0.0
vertex 11.58 43.2171483516476 0.0
endloop
endfacet
facet normal 0.707106781186548 0.707106781186547 0.0
outer loop
vertex 16.3765930522804 39.5365930522804 0.0
vertex 11.58 43.2171483516476 3.0
vertex 16.3765930522804 39.5365930522804 3.0
endloop
endfacet
facet normal 0.0 0.0 1.0
outer loop
vertex -13.6775097002532 19.4951223213483 14.0
vertex -13.6775097002532 26.8248776786517 14.0
vertex -14.16 23.16 14.0
endloop
endfacet
facet normal 0.0 0.0 1.0
outer loop
vertex -13.6775097002532 26.8248776786517 14.0
vertex -13.6775097002532 19.4951223213483 14.0
vertex -12.2629197175877 16.08 14.0
endloop
endfacet
facet normal 0.0 0.0 1.0
outer loop
vertex -13.6775097002532 26.8248776786517 14.0
vertex -12.2629197175877 16.08 14.0
vertex -12.2629197175876 30.24 14.0
endloop
endfacet
facet normal 0.0 0.0 1.0
outer loop
vertex -12.2629197175876 30.24 14.0
vertex -12.2629197175877 16.08 14.0
vertex -10.0126320216015 13.1473679783985 14.0
endloop
endfacet
facet normal 0.0 0.0 1.0
outer loop
vertex -12.2629197175876 30.24 14.0
vertex -10.0126320216015 13.1473679783985 14.0
vertex -11.16 23.16 14.0
endloop
endfacet
facet normal 0.0 0.0 1.0
outer loop
vertex -11.16 23.16 14.0
vertex -10.0126320216015 13.1473679783985 14.0
vertex -10.779732221386 20.2715794566559 14.0
endloop
endfacet
facet normal 0.0 0.0 1.0
outer loop
vertex -10.779732221386 20.2715794566559 14.0
vertex -10.0126320216015 13.1473679783985 14.0
vertex -9.66484350623434 17.58 14.0
endloop
endfacet
facet normal 0.0 0.0 1.0
outer loop
vertex -9.66484350623434 17.58 14.0
vertex -10.0126320216015 13.1473679783985 14.0
vertex -7.08000000000001 10.8970802824124 14.0
endloop
endfacet
facet normal 0.0 0.0 1.0
outer loop
vertex -9.66484350623434 17.58 14.0
vertex -7.08000000000001 10.8970802824124 14.0
vertex -7.89131167804187 15.2686883219581 14.0
endloop
endfacet
facet normal 0.0 0.0 1.0
outer loop
vertex -7.89131167804187 15.2686883219581 14.0
vertex -7.08000000000001 10.8970802824124 14.0
vertex -5.58000000000001 13.4951564937657 14.0
endloop
endfacet
facet normal 0.0 0.0 1.0
outer loop
vertex -5.58000000000001 13.4951564937657 14.0
vertex -7.08000000000001 10.8970802824124 14.0
vertex -3.6648776786517 9.4824902997468 14.0
endloop
endfacet
facet normal 0.0 0.0 1.0
outer loop
vertex -5.58000000000001 13.4951564937657 14.0
vertex -3.6648776786517 9.4824902997468 14.0
vertex -2.88842054334414 12.380267778614 14.0
endloop
endfacet
facet normal 0.0 0.0 1.0
outer loop
vertex -2.88842054334414 12.380267778614 14.0
vertex -3.6648776786517 9.4824902997468 14.0
vertex 0.0 9.0 14.0
endloop
endfacet
facet normal 0.0 0.0 1.0
outer loop
vertex -2.88842054334414 12.380267778614 14.0
vertex 0.0 9.0 14.0
vertex 0.0 12.0 14.0
endloop
endfacet
facet normal 0.0 0.0 1.0
outer loop
vertex 0.0 12.0 14.0
vertex 0.0 9.0 14.0
vertex 3.66487767865169 9.48249029974679 14.0
endloop
endfacet
facet normal 0.0 0.0 1.0
outer loop
vertex 0.0 12.0 14.0
vertex 3.66487767865169 9.48249029974679 14.0
vertex 2.88842054334413 12.380267778614 14.0
endloop
endfacet
facet normal 0.0 0.0 1.0
outer loop
vertex 2.88842054334413 12.380267778614 14.0
vertex 3.66487767865169 9.48249029974679 14.0
vertex 5.58 13.4951564937657 14.0
endloop
endfacet
facet normal 0.0 0.0 1.0
outer loop
vertex 5.58 13.4951564937657 14.0
vertex 3.66487767865169 9.48249029974679 14.0
vertex 7.08 10.8970802824123 14.0
endloop
endfacet
facet normal 0.0 0.0 1.0
outer loop
vertex 5.58 13.4951564937657 14.0
vertex 7.08 10.8970802824123 14.0
vertex 7.89131167804187 15.2686883219581 14.0
endloop
endfacet
facet normal 0.0 0.0 1.0
outer loop
vertex 7.89131167804187 15.2686883219581 14.0
vertex 7.08 10.8970802824123 14.0
vertex 10.0126320216015 13.1473679783985 14.0
endloop
endfacet
facet normal 0.0 0.0 1.0
outer loop
vertex 7.89131167804187 15.2686883219581 14.0
vertex 10.0126320216015 13.1473679783985 14.0
vertex 9.66484350623434 17.58 14.0
endloop
endfacet
facet normal 0.0 0.0 1.0
outer loop
vertex 9.66484350623434 17.58 14.0
vertex 10.0126320216015 13.1473679783985 14.0
vertex 10.779732221386 20.2715794566559 14.0
endloop
endfacet
facet normal 0.0 0.0 1.0
outer loop
vertex 10.779732221386 20.2715794566559 14.0
vertex 10.0126320216015 13.1473679783985 14.0
vertex 12.2629197175877 16.08 14.0
endloop
endfacet
facet normal 0.0 0.0 1.0
outer loop
vertex 10.779732221386 20.2715794566559 14.0
vertex 12.2629197175877 16.08 14.0
vertex 11.16 23.16 14.0
endloop
endfacet
facet normal 0.0 0.0 1.0
outer loop
vertex -11.16 23.16 14.0
vertex -10.0126320216015 33.1726320216015 14.0
vertex -12.2629197175876 30.24 14.0
endloop
endfacet
facet normal 0.0 0.0 1.0
outer loop
vertex -10.0126320216015 33.1726320216015 14.0
vertex -11.16 23.16 14.0
vertex -10.779732221386 26.0484205433441 14.0
endloop
endfacet
facet normal 0.0 0.0 1.0
outer loop
vertex -10.0126320216015 33.1726320216015 14.0
vertex -10.779732221386 26.0484205433441 14.0
vertex -9.66484350623433 28.74 14.0
endloop
endfacet
facet normal 0.0 0.0 1.0
outer loop
vertex -10.0126320216015 33.1726320216015 14.0
vertex -9.66484350623433 28.74 14.0
vertex -7.08 35.4229197175877 14.0
endloop
endfacet
facet normal 0.0 0.0 1.0
outer loop
vertex -7.08 35.4229197175877 14.0
vertex -9.66484350623433 28.74 14.0
vertex -7.89131167804187 31.0513116780419 14.0
endloop
endfacet
facet normal 0.0 0.0 1.0
outer loop
vertex -7.08 35.4229197175877 14.0
vertex -7.89131167804187 31.0513116780419 14.0
vertex -5.58 32.8248435062343 14.0
endloop
endfacet
facet normal 0.0 0.0 1.0
outer loop
vertex -7.08 35.4229197175877 14.0
vertex -5.58 32.8248435062343 14.0
vertex -3.66487767865169 36.8375097002532 14.0
endloop
endfacet
facet normal 0.0 0.0 1.0
outer loop
vertex -3.66487767865169 36.8375097002532 14.0
vertex -5.58 32.8248435062343 14.0
vertex -2.88842054334413 33.939732221386 14.0
endloop
endfacet
facet normal 0.0 0.0 1.0
outer loop
vertex -3.66487767865169 36.8375097002532 14.0
vertex -2.88842054334413 33.939732221386 14.0
vertex 5.63993296509579e-015 37.32 14.0
endloop
endfacet
facet normal 0.0 0.0 1.0
outer loop
vertex 5.63993296509579e-015 37.32 14.0
vertex -2.88842054334413 33.939732221386 14.0
vertex 2.8199664825479e-015 34.32 14.0
endloop
endfacet
facet normal 0.0 0.0 1.0
outer loop
vertex 5.63993296509579e-015 37.32 14.0
vertex 2.8199664825479e-015 34.32 14.0
vertex 2.88842054334414 33.939732221386 14.0
endloop
endfacet
facet normal 0.0 0.0 1.0
outer loop
vertex 5.63993296509579e-015 37.32 14.0
vertex 2.88842054334414 33.939732221386 14.0
vertex 3.6648776786517 36.8375097002532 14.0
endloop
endfacet
facet normal 0.0 0.0 1.0
outer loop
vertex 3.6648776786517 36.8375097002532 14.0
vertex 2.88842054334414 33.939732221386 14.0
vertex 5.58000000000001 32.8248435062343 14.0
endloop
endfacet
facet normal 0.0 0.0 1.0
outer loop
vertex 3.6648776786517 36.8375097002532 14.0
vertex 5.58000000000001 32.8248435062343 14.0
vertex 7.08 35.4229197175877 14.0
endloop
endfacet
facet normal 0.0 0.0 1.0
outer loop
vertex 7.08 35.4229197175877 14.0
vertex 5.58000000000001 32.8248435062343 14.0
vertex 7.89131167804187 31.0513116780419 14.0
endloop
endfacet
facet normal 0.0 0.0 1.0
outer loop
vertex 7.08 35.4229197175877 14.0
vertex 7.89131167804187 31.0513116780419 14.0
vertex 10.0126320216015 33.1726320216015 14.0
endloop
endfacet
facet normal 0.0 0.0 1.0
outer loop
vertex 10.0126320216015 33.1726320216015 14.0
vertex 7.89131167804187 31.0513116780419 14.0
vertex 9.66484350623434 28.74 14.0
endloop
endfacet
facet normal 0.0 0.0 1.0
outer loop
vertex 10.0126320216015 33.1726320216015 14.0
vertex 9.66484350623434 28.74 14.0
vertex 10.779732221386 26.0484205433441 14.0
endloop
endfacet
facet normal 0.0 0.0 1.0
outer loop
vertex 10.0126320216015 33.1726320216015 14.0
vertex 10.779732221386 26.0484205433441 14.0
vertex 12.2629197175877 30.24 14.0
endloop
endfacet
facet normal 0.0 0.0 1.0
outer loop
vertex 12.2629197175877 30.24 14.0
vertex 10.779732221386 26.0484205433441 14.0
vertex 11.16 23.16 14.0
endloop
endfacet
facet normal 0.0 0.0 1.0
outer loop
vertex 12.2629197175877 30.24 14.0
vertex 11.16 23.16 14.0
vertex 12.2629197175877 16.08 14.0
endloop
endfacet
facet normal 0.0 0.0 1.0
outer loop
vertex 12.2629197175877 30.24 14.0
vertex 12.2629197175877 16.08 14.0
vertex 13.6775097002532 19.4951223213483 14.0
endloop
endfacet
facet normal 0.0 0.0 1.0
outer loop
vertex 12.2629197175877 30.24 14.0
vertex 13.6775097002532 19.4951223213483 14.0
vertex 13.6775097002532 26.8248776786517 14.0
endloop
endfacet
facet normal 0.0 0.0 1.0
outer loop
vertex 13.6775097002532 26.8248776786517 14.0
vertex 13.6775097002532 19.4951223213483 14.0
vertex 14.16 23.16 14.0
endloop
endfacet
facet normal -0.5 -0.866025403784439 0.0
outer loop
vertex 5.58000000000001 32.8248435062343 14.0
vertex 2.88842054334414 33.939732221386 0.0
vertex 5.58000000000001 32.8248435062343 0.0
endloop
endfacet
facet normal -0.258819045102521 -0.965925826289068 0.0
outer loop
vertex 2.88842054334414 33.939732221386 0.0
vertex 5.58000000000001 32.8248435062343 14.0
vertex 2.88842054334414 33.939732221386 14.0
endloop
endfacet
facet normal 0.258819045102522 0.965925826289068 0.0
outer loop
vertex 3.6648776786517 36.8375097002532 14.0
vertex 7.08 35.4229197175877 3.0
vertex 3.6648776786517 36.8375097002532 3.0
endloop
endfacet
facet normal 0.500000000000001 0.866025403784438 0.0
outer loop
vertex 7.08 35.4229197175877 3.0
vertex 3.6648776786517 36.8375097002532 14.0
vertex 7.08 35.4229197175877 14.0
endloop
endfacet
facet normal 0.258819045102521 0.965925826289068 0.0
outer loop
vertex 5.99424908457439 45.5308421368548 3.0
vertex 11.58 43.2171483516476 0.0
vertex 5.99424908457439 45.5308421368548 0.0
endloop
endfacet
facet normal 0.5 0.866025403784438 0.0
outer loop
vertex 11.58 43.2171483516476 0.0
vertex 5.99424908457439 45.5308421368548 3.0
vertex 11.58 43.2171483516476 3.0
endloop
endfacet
facet normal -0.258819045102521 -0.965925826289068 0.0
outer loop
vertex 2.88842054334414 33.939732221386 14.0
vertex 0.0 34.32 0.0
vertex 2.88842054334414 33.939732221386 0.0
endloop
endfacet
facet normal -8.19822110399515e-016 -1.0 0.0
outer loop
vertex 0.0 34.32 0.0
vertex 2.88842054334414 33.939732221386 14.0
vertex 2.8199664825479e-015 34.32 14.0
endloop
endfacet
facet normal 0.965925826289068 -0.258819045102522 0.0
outer loop
vertex -10.779732221386 26.0484205433441 0.0
vertex -11.16 23.16 14.0
vertex -11.16 23.16 0.0
endloop
endfacet
facet normal 1.0 -5.88133253112696e-016 0.0
outer loop
vertex -11.16 23.16 14.0
vertex -10.779732221386 26.0484205433441 0.0
vertex -10.779732221386 26.0484205433441 14.0
endloop
endfacet
facet normal 1.47924424267739e-015 1.0 0.0
outer loop
vertex 5.63993296509579e-015 37.32 14.0
vertex 3.6648776786517 36.8375097002532 3.0
vertex 5.63993296509579e-015 37.32 3.0
endloop
endfacet
facet normal 0.258819045102522 0.965925826289068 0.0
outer loop
vertex 3.6648776786517 36.8375097002532 3.0
vertex 5.63993296509579e-015 37.32 14.0
vertex 3.6648776786517 36.8375097002532 14.0
endloop
endfacet
facet normal 1.01586652810375e-015 1.0 0.0
outer loop
vertex 1.40998324127395e-014 46.32 3.0
vertex 5.99424908457439 45.5308421368548 0.0
vertex 1.40998324127395e-014 46.32 0.0
endloop
endfacet
facet normal 0.258819045102521 0.965925826289068 0.0
outer loop
vertex 5.99424908457439 45.5308421368548 0.0
vertex 1.40998324127395e-014 46.32 3.0
vertex 5.99424908457439 45.5308421368548 3.0
endloop
endfacet
facet normal -8.55466549982103e-016 -1.0 0.0
outer loop
vertex 2.8199664825479e-015 34.32 14.0
vertex -2.88842054334413 33.939732221386 0.0
vertex 0.0 34.32 0.0
endloop
endfacet
facet normal 0.25881904510252 -0.965925826289068 0.0
outer loop
vertex -2.88842054334413 33.939732221386 0.0
vertex 2.8199664825479e-015 34.32 14.0
vertex -2.88842054334413 33.939732221386 14.0
endloop
endfacet
facet normal -0.25881904510252 0.965925826289068 0.0
outer loop
vertex -3.66487767865169 36.8375097002532 14.0
vertex 5.63993296509579e-015 37.32 3.0
vertex -3.66487767865169 36.8375097002532 3.0
endloop
endfacet
facet normal 1.47924424267739e-015 1.0 0.0
outer loop
vertex 5.63993296509579e-015 37.32 3.0
vertex -3.66487767865169 36.8375097002532 14.0
vertex 5.63993296509579e-015 37.32 14.0
endloop
endfacet
facet normal -0.25881904510252 0.965925826289069 0.0
outer loop
vertex -5.99424908457437 45.5308421368548 3.0
vertex 1.40998324127395e-014 46.32 0.0
vertex -5.99424908457437 45.5308421368548 0.0
endloop
endfacet
facet normal 1.01586652810375e-015 1.0 0.0
outer loop
vertex 1.40998324127395e-014 46.32 0.0
vertex -5.99424908457437 45.5308421368548 3.0
vertex 1.40998324127395e-014 46.32 3.0
endloop
endfacet
facet normal -0.965925826289068 -0.258819045102521 0.0
outer loop
vertex -22.3708421368548 17.1657509154256 3.0
vertex -20.0571483516476 11.58 0.0
vertex -20.0571483516476 11.58 3.0
endloop
endfacet
facet normal -0.866025403784439 -0.5 0.0
outer loop
vertex -20.0571483516476 11.58 0.0
vertex -22.3708421368548 17.1657509154256 3.0
vertex -22.3708421368548 17.1657509154256 0.0
endloop
endfacet
facet normal 0.25881904510252 -0.965925826289068 0.0
outer loop
vertex -2.88842054334413 33.939732221386 14.0
vertex -5.58 32.8248435062343 0.0
vertex -2.88842054334413 33.939732221386 0.0
endloop
endfacet
facet normal 0.5 -0.866025403784439 0.0
outer loop
vertex -5.58 32.8248435062343 0.0
vertex -2.88842054334413 33.939732221386 14.0
vertex -5.58 32.8248435062343 14.0
endloop
endfacet
endsolid PulleyV7
