solid Pulley
facet normal -0.866025403784438 0.500000000000001 0.0
outer loop
vertex -18.2298347496624 21.575 2.5
vertex -20.3327386433849 16.4981408994081 0.0
vertex -20.3327386433849 16.4981408994081 2.5
endloop
endfacet
facet normal -0.965925826289068 0.258819045102521 0.0
outer loop
vertex -20.3327386433849 16.4981408994081 0.0
vertex -18.2298347496624 21.575 2.5
vertex -18.2298347496624 21.575 0.0
endloop
endfacet
facet normal 0.866025403784439 0.5 1.67876129664179e-017
outer loop
vertex -9.56958071181805 5.52500000000001 0.0
vertex -7.81352993211135 3.23647006788865 12.5
vertex -7.81352993211135 3.23647006788865 0.0
endloop
endfacet
facet normal 0.707106781186548 0.707106781186547 1.03078362269394e-017
outer loop
vertex -7.81352993211135 3.23647006788865 12.5
vertex -9.56958071181805 5.52500000000001 0.0
vertex -9.56958071181805 5.52500000000001 12.5
endloop
endfacet
facet normal -0.866025403784439 -0.5 0.0
outer loop
vertex -13.8997077307402 3.02500000000001 12.5
vertex -11.3490638380441 -0.29906383804408 5.0
vertex -11.3490638380441 -0.29906383804408 12.5
endloop
endfacet
facet normal -0.707106781186548 -0.707106781186547 0.0
outer loop
vertex -11.3490638380441 -0.29906383804408 5.0
vertex -13.8997077307402 3.02500000000001 12.5
vertex -13.8997077307402 3.02500000000001 5.0
endloop
endfacet
facet normal -0.316227766016838 -0.316227766016838 0.894427190999916
outer loop
vertex -14.8845977439768 -3.83459774397681 2.5
vertex -13.8997077307402 3.02500000000001 5.0
vertex -18.2298347496624 0.525000000000017 2.5
endloop
endfacet
facet normal -0.387298334620742 -0.223606797749979 0.894427190999916
outer loop
vertex -13.8997077307402 3.02500000000001 5.0
vertex -14.8845977439768 -3.83459774397681 2.5
vertex -11.3490638380441 -0.29906383804408 5.0
endloop
endfacet
facet normal -0.866025403784439 -0.5 0.0
outer loop
vertex -18.2298347496624 0.525000000000017 2.5
vertex -14.8845977439768 -3.83459774397681 0.0
vertex -14.8845977439768 -3.83459774397681 2.5
endloop
endfacet
facet normal -0.707106781186548 -0.707106781186547 0.0
outer loop
vertex -14.8845977439768 -3.83459774397681 0.0
vertex -18.2298347496624 0.525000000000017 2.5
vertex -18.2298347496624 0.525000000000017 0.0
endloop
endfacet
facet normal 0.707106781186548 0.707106781186547 1.03078362269394e-017
outer loop
vertex -7.81352993211135 3.23647006788865 12.5
vertex -5.52500000000001 1.48041928818196 0.0
vertex -7.81352993211135 3.23647006788865 0.0
endloop
endfacet
facet normal 0.500000000000001 0.866025403784438 0.0
outer loop
vertex -5.52500000000001 1.48041928818196 0.0
vertex -7.81352993211135 3.23647006788865 12.5
vertex -5.52500000000001 1.48041928818196 12.5
endloop
endfacet
facet normal 0.0 0.0 -1.0
outer loop
vertex -10.525 29.2798347496624 0.0
vertex -11.05 11.05 0.0
vertex -14.8845977439768 25.9345977439768 0.0
endloop
endfacet
facet normal 0.0 0.0 -1.0
outer loop
vertex -11.05 11.05 0.0
vertex -10.525 29.2798347496624 0.0
vertex -10.6734803804942 13.9099504483829 0.0
endloop
endfacet
facet normal 0.0 0.0 -1.0
outer loop
vertex -10.6734803804942 13.9099504483829 0.0
vertex -10.525 29.2798347496624 0.0
vertex -9.56958071181804 16.575 0.0
endloop
endfacet
facet normal 0.0 0.0 -1.0
outer loop
vertex -9.56958071181804 16.575 0.0
vertex -10.525 29.2798347496624 0.0
vertex -5.44814089940805 31.3827386433849 0.0
endloop
endfacet
facet normal 0.0 0.0 -1.0
outer loop
vertex -9.56958071181804 16.575 0.0
vertex -5.44814089940805 31.3827386433849 0.0
vertex -7.81352993211135 18.8635299321114 0.0
endloop
endfacet
facet normal 0.0 0.0 -1.0
outer loop
vertex -7.81352993211135 18.8635299321114 0.0
vertex -5.44814089940805 31.3827386433849 0.0
vertex -5.525 20.619580711818 0.0
endloop
endfacet
facet normal 0.0 0.0 -1.0
outer loop
vertex -5.525 20.619580711818 0.0
vertex -5.44814089940805 31.3827386433849 0.0
vertex -2.85995044838285 21.7234803804942 0.0
endloop
endfacet
facet normal 0.0 0.0 -1.0
outer loop
vertex -2.85995044838285 21.7234803804942 0.0
vertex -5.44814089940805 31.3827386433849 0.0
vertex 5.63993296509579e-015 32.1 0.0
endloop
endfacet
facet normal 0.0 0.0 -1.0
outer loop
vertex -2.85995044838285 21.7234803804942 0.0
vertex 5.63993296509579e-015 32.1 0.0
vertex 0.0 22.1 0.0
endloop
endfacet
facet normal 0.0 0.0 -1.0
outer loop
vertex 0.0 22.1 0.0
vertex 5.63993296509579e-015 32.1 0.0
vertex 2.85995044838286 21.7234803804942 0.0
endloop
endfacet
facet normal 0.0 0.0 -1.0
outer loop
vertex 2.85995044838286 21.7234803804942 0.0
vertex 5.63993296509579e-015 32.1 0.0
vertex 5.44814089940807 31.3827386433849 0.0
endloop
endfacet
facet normal 0.0 0.0 -1.0
outer loop
vertex 2.85995044838286 21.7234803804942 0.0
vertex 5.44814089940807 31.3827386433849 0.0
vertex 5.52500000000001 20.619580711818 0.0
endloop
endfacet
facet normal 0.0 0.0 -1.0
outer loop
vertex 5.52500000000001 20.619580711818 0.0
vertex 5.44814089940807 31.3827386433849 0.0
vertex 10.525 29.2798347496624 0.0
endloop
endfacet
facet normal 0.0 0.0 -1.0
outer loop
vertex 5.52500000000001 20.619580711818 0.0
vertex 10.525 29.2798347496624 0.0
vertex 7.81352993211135 18.8635299321114 0.0
endloop
endfacet
facet normal 0.0 0.0 -1.0
outer loop
vertex 7.81352993211135 18.8635299321114 0.0
vertex 10.525 29.2798347496624 0.0
vertex 9.56958071181805 16.575 0.0
endloop
endfacet
facet normal 0.0 0.0 -1.0
outer loop
vertex 9.56958071181805 16.575 0.0
vertex 10.525 29.2798347496624 0.0
vertex 10.6734803804942 13.9099504483829 0.0
endloop
endfacet
facet normal 0.0 0.0 -1.0
outer loop
vertex 10.6734803804942 13.9099504483829 0.0
vertex 10.525 29.2798347496624 0.0
vertex 14.8845977439768 25.9345977439768 0.0
endloop
endfacet
facet normal 0.0 0.0 -1.0
outer loop
vertex 10.6734803804942 13.9099504483829 0.0
vertex 14.8845977439768 25.9345977439768 0.0
vertex 11.05 11.05 0.0
endloop
endfacet
facet normal 0.0 0.0 -1.0
outer loop
vertex -20.3327386433849 16.4981408994081 0.0
vertex -20.3327386433849 5.60185910059195 0.0
vertex -21.05 11.05 0.0
endloop
endfacet
facet normal 0.0 0.0 -1.0
outer loop
vertex -20.3327386433849 5.60185910059195 0.0
vertex -20.3327386433849 16.4981408994081 0.0
vertex -18.2298347496624 0.525000000000017 0.0
endloop
endfacet
facet normal 0.0 0.0 -1.0
outer loop
vertex -18.2298347496624 0.525000000000017 0.0
vertex -20.3327386433849 16.4981408994081 0.0
vertex -18.2298347496624 21.575 0.0
endloop
endfacet
facet normal 0.0 0.0 -1.0
outer loop
vertex -18.2298347496624 0.525000000000017 0.0
vertex -18.2298347496624 21.575 0.0
vertex -14.8845977439768 -3.83459774397681 0.0
endloop
endfacet
facet normal 0.0 0.0 -1.0
outer loop
vertex -14.8845977439768 -3.83459774397681 0.0
vertex -18.2298347496624 21.575 0.0
vertex -14.8845977439768 25.9345977439768 0.0
endloop
endfacet
facet normal 0.0 0.0 -1.0
outer loop
vertex -14.8845977439768 -3.83459774397681 0.0
vertex -14.8845977439768 25.9345977439768 0.0
vertex -10.525 -7.17983474966242 0.0
endloop
endfacet
facet normal 0.0 0.0 -1.0
outer loop
vertex -10.525 -7.17983474966242 0.0
vertex -14.8845977439768 25.9345977439768 0.0
vertex -11.05 11.05 0.0
endloop
endfacet
facet normal 0.0 0.0 -1.0
outer loop
vertex -10.525 -7.17983474966242 0.0
vertex -11.05 11.05 0.0
vertex -10.6734803804942 8.19004955161715 0.0
endloop
endfacet
facet normal 0.0 0.0 -1.0
outer loop
vertex -10.525 -7.17983474966242 0.0
vertex -10.6734803804942 8.19004955161715 0.0
vertex -9.56958071181805 5.52500000000001 0.0
endloop
endfacet
facet normal 0.0 0.0 -1.0
outer loop
vertex -10.525 -7.17983474966242 0.0
vertex -9.56958071181805 5.52500000000001 0.0
vertex -5.44814089940808 -9.28273864338487 0.0
endloop
endfacet
facet normal 0.0 0.0 -1.0
outer loop
vertex -5.44814089940808 -9.28273864338487 0.0
vertex -9.56958071181805 5.52500000000001 0.0
vertex -7.81352993211135 3.23647006788865 0.0
endloop
endfacet
facet normal 0.0 0.0 -1.0
outer loop
vertex -5.44814089940808 -9.28273864338487 0.0
vertex -7.81352993211135 3.23647006788865 0.0
vertex -5.52500000000001 1.48041928818196 0.0
endloop
endfacet
facet normal 0.0 0.0 -1.0
outer loop
vertex -5.44814089940808 -9.28273864338487 0.0
vertex -5.52500000000001 1.48041928818196 0.0
vertex -2.85995044838286 0.376519619505798 0.0
endloop
endfacet
facet normal 0.0 0.0 -1.0
outer loop
vertex -5.44814089940808 -9.28273864338487 0.0
vertex -2.85995044838286 0.376519619505798 0.0
vertex -2.8199664825479e-015 -10.0 0.0
endloop
endfacet
facet normal 0.0 0.0 -1.0
outer loop
vertex -2.8199664825479e-015 -10.0 0.0
vertex -2.85995044838286 0.376519619505798 0.0
vertex 0.0 0.0 0.0
endloop
endfacet
facet normal 0.0 0.0 -1.0
outer loop
vertex -2.8199664825479e-015 -10.0 0.0
vertex 0.0 0.0 0.0
vertex 5.44814089940806 -9.28273864338489 0.0
endloop
endfacet
facet normal 0.0 0.0 -1.0
outer loop
vertex 5.44814089940806 -9.28273864338489 0.0
vertex 0.0 0.0 0.0
vertex 2.85995044838285 0.376519619505795 0.0
endloop
endfacet
facet normal 0.0 0.0 -1.0
outer loop
vertex 5.44814089940806 -9.28273864338489 0.0
vertex 2.85995044838285 0.376519619505795 0.0
vertex 5.525 1.48041928818195 0.0
endloop
endfacet
facet normal 0.0 0.0 -1.0
outer loop
vertex 5.44814089940806 -9.28273864338489 0.0
vertex 5.525 1.48041928818195 0.0
vertex 10.525 -7.17983474966243 0.0
endloop
endfacet
facet normal 0.0 0.0 -1.0
outer loop
vertex 10.525 -7.17983474966243 0.0
vertex 5.525 1.48041928818195 0.0
vertex 7.81352993211135 3.23647006788865 0.0
endloop
endfacet
facet normal 0.0 0.0 -1.0
outer loop
vertex 10.525 -7.17983474966243 0.0
vertex 7.81352993211135 3.23647006788865 0.0
vertex 9.56958071181805 5.525 0.0
endloop
endfacet
facet normal 0.0 0.0 -1.0
outer loop
vertex 10.525 -7.17983474966243 0.0
vertex 9.56958071181805 5.525 0.0
vertex 10.6734803804942 8.19004955161715 0.0
endloop
endfacet
facet normal 0.0 0.0 -1.0
outer loop
vertex 10.525 -7.17983474966243 0.0
vertex 10.6734803804942 8.19004955161715 0.0
vertex 14.8845977439768 -3.83459774397683 0.0
endloop
endfacet
facet normal 0.0 0.0 -1.0
outer loop
vertex 14.8845977439768 -3.83459774397683 0.0
vertex 10.6734803804942 8.19004955161715 0.0
vertex 11.05 11.05 0.0
endloop
endfacet
facet normal 0.0 0.0 -1.0
outer loop
vertex 14.8845977439768 -3.83459774397683 0.0
vertex 11.05 11.05 0.0
vertex 14.8845977439768 25.9345977439768 0.0
endloop
endfacet
facet normal 0.0 0.0 -1.0
outer loop
vertex 14.8845977439768 -3.83459774397683 0.0
vertex 14.8845977439768 25.9345977439768 0.0
vertex 18.2298347496624 21.575 0.0
endloop
endfacet
facet normal 0.0 0.0 -1.0
outer loop
vertex 14.8845977439768 -3.83459774397683 0.0
vertex 18.2298347496624 21.575 0.0
vertex 18.2298347496624 0.524999999999999 0.0
endloop
endfacet
facet normal 0.0 0.0 -1.0
outer loop
vertex 18.2298347496624 0.524999999999999 0.0
vertex 18.2298347496624 21.575 0.0
vertex 20.3327386433849 16.4981408994081 0.0
endloop
endfacet
facet normal 0.0 0.0 -1.0
outer loop
vertex 18.2298347496624 0.524999999999999 0.0
vertex 20.3327386433849 16.4981408994081 0.0
vertex 20.3327386433849 5.60185910059194 0.0
endloop
endfacet
facet normal 0.0 0.0 -1.0
outer loop
vertex 20.3327386433849 5.60185910059194 0.0
vertex 20.3327386433849 16.4981408994081 0.0
vertex 21.05 11.05 0.0
endloop
endfacet
facet normal -1.0 5.61399923425755e-016 0.0
outer loop
vertex -16.05 11.05 12.5
vertex -15.5031095119395 6.89595432610455 5.0
vertex -15.5031095119395 6.89595432610455 12.5
endloop
endfacet
facet normal -0.965925826289069 -0.25881904510252 0.0
outer loop
vertex -15.5031095119395 6.89595432610455 5.0
vertex -16.05 11.05 12.5
vertex -16.05 11.05 5.0
endloop
endfacet
facet normal -0.431975161761002 -0.115747395744164 0.894427190999916
outer loop
vertex -20.3327386433849 5.60185910059195 2.5
vertex -16.05 11.05 5.0
vertex -21.05 11.05 2.5
endloop
endfacet
facet normal -0.447213595499958 2.01796846091247e-016 0.894427190999916
outer loop
vertex -16.05 11.05 5.0
vertex -20.3327386433849 5.60185910059195 2.5
vertex -15.5031095119395 6.89595432610455 5.0
endloop
endfacet
facet normal -1.0 4.18822165095405e-016 0.0
outer loop
vertex -21.05 11.05 2.5
vertex -20.3327386433849 5.60185910059195 0.0
vertex -20.3327386433849 5.60185910059195 2.5
endloop
endfacet
facet normal -0.965925826289068 -0.258819045102521 0.0
outer loop
vertex -20.3327386433849 5.60185910059195 0.0
vertex -21.05 11.05 2.5
vertex -21.05 11.05 0.0
endloop
endfacet
facet normal 0.965925826289068 -0.258819045102521 0.0
outer loop
vertex -10.6734803804942 13.9099504483829 0.0
vertex -11.05 11.05 12.5
vertex -11.05 11.05 0.0
endloop
endfacet
facet normal 1.0 -5.43577703634461e-016 0.0
outer loop
vertex -11.05 11.05 12.5
vertex -10.6734803804942 13.9099504483829 0.0
vertex -10.6734803804942 13.9099504483829 12.5
endloop
endfacet
facet normal 6.23777692695283e-016 1.0 0.0
outer loop
vertex 5.63993296509579e-015 27.1 12.5
vertex 4.15404567389546 26.5531095119395 5.0
vertex 5.63993296509579e-015 27.1 5.0
endloop
endfacet
facet normal 0.25881904510252 0.965925826289068 0.0
outer loop
vertex 4.15404567389546 26.5531095119395 5.0
vertex 5.63993296509579e-015 27.1 12.5
vertex 4.15404567389546 26.5531095119395 12.5
endloop
endfacet
facet normal 0.115747395744164 0.431975161761002 0.894427190999916
outer loop
vertex 4.15404567389546 26.5531095119395 5.0
vertex 5.63993296509579e-015 32.1 2.5
vertex 5.63993296509579e-015 27.1 5.0
endloop
endfacet
facet normal 8.12813529690414e-017 0.447213595499958 0.894427190999916
outer loop
vertex 5.63993296509579e-015 32.1 2.5
vertex 4.15404567389546 26.5531095119395 5.0
vertex 5.44814089940807 31.3827386433849 2.5
endloop
endfacet
facet normal -8.91110989564691e-017 1.0 0.0
outer loop
vertex 5.63993296509579e-015 32.1 2.5
vertex 5.44814089940807 31.3827386433849 0.0
vertex 5.63993296509579e-015 32.1 0.0
endloop
endfacet
facet normal 0.25881904510252 0.965925826289068 0.0
outer loop
vertex 5.44814089940807 31.3827386433849 0.0
vertex 5.63993296509579e-015 32.1 2.5
vertex 5.44814089940807 31.3827386433849 2.5
endloop
endfacet
facet normal -3.83177725512817e-016 -1.0 2.94684156741263e-018
outer loop
vertex 0.0 22.1 12.5
vertex -2.85995044838285 21.7234803804942 0.0
vertex 0.0 22.1 0.0
endloop
endfacet
facet normal 0.258819045102521 -0.965925826289068 3.63334636353248e-018
outer loop
vertex -2.85995044838285 21.7234803804942 0.0
vertex 0.0 22.1 12.5
vertex -2.85995044838285 21.7234803804942 12.5
endloop
endfacet
facet normal -0.25881904510252 0.965925826289069 0.0
outer loop
vertex -4.15404567389545 26.5531095119395 12.5
vertex 5.63993296509579e-015 27.1 5.0
vertex -4.15404567389545 26.5531095119395 5.0
endloop
endfacet
facet normal 6.23777692695283e-016 1.0 0.0
outer loop
vertex 5.63993296509579e-015 27.1 5.0
vertex -4.15404567389545 26.5531095119395 12.5
vertex 5.63993296509579e-015 27.1 12.5
endloop
endfacet
facet normal -0.115747395744164 0.431975161761002 0.894427190999916
outer loop
vertex -4.15404567389545 26.5531095119395 5.0
vertex 5.63993296509579e-015 32.1 2.5
vertex -5.44814089940805 31.3827386433849 2.5
endloop
endfacet
facet normal 8.12813529690414e-017 0.447213595499958 0.894427190999916
outer loop
vertex 5.63993296509579e-015 32.1 2.5
vertex -4.15404567389545 26.5531095119395 5.0
vertex 5.63993296509579e-015 27.1 5.0
endloop
endfacet
facet normal -0.258819045102521 0.965925826289068 0.0
outer loop
vertex -5.44814089940805 31.3827386433849 2.5
vertex 5.63993296509579e-015 32.1 0.0
vertex -5.44814089940805 31.3827386433849 0.0
endloop
endfacet
facet normal -8.91110989564691e-017 1.0 0.0
outer loop
vertex 5.63993296509579e-015 32.1 0.0
vertex -5.44814089940805 31.3827386433849 2.5
vertex 5.63993296509579e-015 32.1 2.5
endloop
endfacet
facet normal -0.965925826289068 -0.258819045102521 0.0
outer loop
vertex -20.3327386433849 5.60185910059195 2.5
vertex -18.2298347496624 0.525000000000017 0.0
vertex -18.2298347496624 0.525000000000017 2.5
endloop
endfacet
facet normal -0.866025403784439 -0.5 0.0
outer loop
vertex -18.2298347496624 0.525000000000017 0.0
vertex -20.3327386433849 5.60185910059195 2.5
vertex -20.3327386433849 5.60185910059195 0.0
endloop
endfacet
facet normal 0.258819045102521 -0.965925826289068 3.63334636353248e-018
outer loop
vertex -2.85995044838285 21.7234803804942 12.5
vertex -5.525 20.619580711818 0.0
vertex -2.85995044838285 21.7234803804942 0.0
endloop
endfacet
facet normal 0.5 -0.866025403784439 2.15992557982617e-018
outer loop
vertex -5.525 20.619580711818 0.0
vertex -2.85995044838285 21.7234803804942 12.5
vertex -5.525 20.619580711818 12.5
endloop
endfacet
facet normal -0.5 0.866025403784439 0.0
outer loop
vertex -8.02499999999999 24.9497077307402 12.5
vertex -4.15404567389545 26.5531095119395 5.0
vertex -8.02499999999999 24.9497077307402 5.0
endloop
endfacet
facet normal -0.25881904510252 0.965925826289069 0.0
outer loop
vertex -4.15404567389545 26.5531095119395 5.0
vertex -8.02499999999999 24.9497077307402 12.5
vertex -4.15404567389545 26.5531095119395 12.5
endloop
endfacet
facet normal -0.223606797749979 0.387298334620742 0.894427190999916
outer loop
vertex -8.02499999999999 24.9497077307402 5.0
vertex -5.44814089940805 31.3827386433849 2.5
vertex -10.525 29.2798347496624 2.5
endloop
endfacet
facet normal -0.115747395744164 0.431975161761002 0.894427190999916
outer loop
vertex -5.44814089940805 31.3827386433849 2.5
vertex -8.02499999999999 24.9497077307402 5.0
vertex -4.15404567389545 26.5531095119395 5.0
endloop
endfacet
facet normal -0.5 0.866025403784439 0.0
outer loop
vertex -10.525 29.2798347496624 2.5
vertex -5.44814089940805 31.3827386433849 0.0
vertex -10.525 29.2798347496624 0.0
endloop
endfacet
facet normal -0.258819045102521 0.965925826289068 0.0
outer loop
vertex -5.44814089940805 31.3827386433849 0.0
vertex -10.525 29.2798347496624 2.5
vertex -5.44814089940805 31.3827386433849 2.5
endloop
endfacet
facet normal 0.5 -0.866025403784439 2.15992557982617e-018
outer loop
vertex -5.525 20.619580711818 12.5
vertex -7.81352993211135 18.8635299321114 0.0
vertex -5.525 20.619580711818 0.0
endloop
endfacet
facet normal 0.707106781186547 -0.707106781186548 0.0
outer loop
vertex -7.81352993211135 18.8635299321114 0.0
vertex -5.525 20.619580711818 12.5
vertex -7.81352993211135 18.8635299321114 12.5
endloop
endfacet
facet normal -0.707106781186547 0.707106781186548 0.0
outer loop
vertex -11.3490638380441 22.3990638380441 12.5
vertex -8.02499999999999 24.9497077307402 5.0
vertex -11.3490638380441 22.3990638380441 5.0
endloop
endfacet
facet normal -0.5 0.866025403784439 0.0
outer loop
vertex -8.02499999999999 24.9497077307402 5.0
vertex -11.3490638380441 22.3990638380441 12.5
vertex -8.02499999999999 24.9497077307402 12.5
endloop
endfacet
facet normal -0.316227766016838 0.316227766016838 0.894427190999916
outer loop
vertex -11.3490638380441 22.3990638380441 5.0
vertex -10.525 29.2798347496624 2.5
vertex -14.8845977439768 25.9345977439768 2.5
endloop
endfacet
facet normal -0.223606797749979 0.387298334620742 0.894427190999916
outer loop
vertex -10.525 29.2798347496624 2.5
vertex -11.3490638380441 22.3990638380441 5.0
vertex -8.02499999999999 24.9497077307402 5.0
endloop
endfacet
facet normal -0.707106781186547 0.707106781186548 0.0
outer loop
vertex -14.8845977439768 25.9345977439768 2.5
vertex -10.525 29.2798347496624 0.0
vertex -14.8845977439768 25.9345977439768 0.0
endloop
endfacet
facet normal -0.5 0.866025403784439 0.0
outer loop
vertex -10.525 29.2798347496624 0.0
vertex -14.8845977439768 25.9345977439768 2.5
vertex -10.525 29.2798347496624 2.5
endloop
endfacet
facet normal 0.707106781186547 -0.707106781186548 0.0
outer loop
vertex -7.81352993211135 18.8635299321114 0.0
vertex -9.56958071181804 16.575 12.5
vertex -9.56958071181804 16.575 0.0
endloop
endfacet
facet normal 0.866025403784438 -0.5 0.0
outer loop
vertex -9.56958071181804 16.575 12.5
vertex -7.81352993211135 18.8635299321114 0.0
vertex -7.81352993211135 18.8635299321114 12.5
endloop
endfacet
facet normal -0.387298334620742 -0.223606797749979 0.894427190999916
outer loop
vertex -18.2298347496624 0.525000000000017 2.5
vertex -15.5031095119395 6.89595432610455 5.0
vertex -20.3327386433849 5.60185910059195 2.5
endloop
endfacet
facet normal -0.431975161761002 -0.115747395744164 0.894427190999916
outer loop
vertex -15.5031095119395 6.89595432610455 5.0
vertex -18.2298347496624 0.525000000000017 2.5
vertex -13.8997077307402 3.02500000000001 5.0
endloop
endfacet
facet normal 0.866025403784439 0.5 1.67876129664179e-017
outer loop
vertex -9.56958071181805 5.52500000000001 0.0
vertex -10.6734803804942 8.19004955161715 12.5
vertex -9.56958071181805 5.52500000000001 12.5
endloop
endfacet
facet normal 0.965925826289068 0.25881904510252 6.4797767394785e-018
outer loop
vertex -10.6734803804942 8.19004955161715 12.5
vertex -9.56958071181805 5.52500000000001 0.0
vertex -10.6734803804942 8.19004955161715 0.0
endloop
endfacet
facet normal -0.965925826289069 -0.25881904510252 0.0
outer loop
vertex -15.5031095119395 6.89595432610455 12.5
vertex -13.8997077307402 3.02500000000001 5.0
vertex -13.8997077307402 3.02500000000001 12.5
endloop
endfacet
facet normal -0.866025403784439 -0.5 0.0
outer loop
vertex -13.8997077307402 3.02500000000001 5.0
vertex -15.5031095119395 6.89595432610455 12.5
vertex -15.5031095119395 6.89595432610455 5.0
endloop
endfacet
facet normal -0.965925826289068 0.258819045102521 0.0
outer loop
vertex -20.3327386433849 16.4981408994081 2.5
vertex -21.05 11.05 0.0
vertex -21.05 11.05 2.5
endloop
endfacet
facet normal -1.0 4.18822165095405e-016 0.0
outer loop
vertex -21.05 11.05 0.0
vertex -20.3327386433849 16.4981408994081 2.5
vertex -20.3327386433849 16.4981408994081 0.0
endloop
endfacet
facet normal 1.0 -5.43577703634461e-016 0.0
outer loop
vertex -11.05 11.05 0.0
vertex -10.6734803804942 8.19004955161715 12.5
vertex -10.6734803804942 8.19004955161715 0.0
endloop
endfacet
facet normal 0.965925826289068 0.25881904510252 6.4797767394785e-018
outer loop
vertex -10.6734803804942 8.19004955161715 12.5
vertex -11.05 11.05 0.0
vertex -11.05 11.05 12.5
endloop
endfacet
facet normal -0.965925826289068 0.258819045102521 0.0
outer loop
vertex -15.5031095119395 15.2040456738955 12.5
vertex -16.05 11.05 5.0
vertex -16.05 11.05 12.5
endloop
endfacet
facet normal -1.0 5.61399923425755e-016 0.0
outer loop
vertex -16.05 11.05 5.0
vertex -15.5031095119395 15.2040456738955 12.5
vertex -15.5031095119395 15.2040456738955 5.0
endloop
endfacet
facet normal -0.447213595499958 2.01796846091247e-016 0.894427190999916
outer loop
vertex -16.05 11.05 5.0
vertex -20.3327386433849 16.4981408994081 2.5
vertex -21.05 11.05 2.5
endloop
endfacet
facet normal -0.431975161761002 0.115747395744164 0.894427190999916
outer loop
vertex -20.3327386433849 16.4981408994081 2.5
vertex -16.05 11.05 5.0
vertex -15.5031095119395 15.2040456738955 5.0
endloop
endfacet
facet normal 0.115747395744164 -0.431975161761002 0.894427190999916
outer loop
vertex 5.44814089940806 -9.28273864338489 2.5
vertex -2.8199664825479e-015 -5.0 5.0
vertex -2.8199664825479e-015 -10.0 2.5
endloop
endfacet
facet normal -1.60613816276706e-016 -0.447213595499958 0.894427190999916
outer loop
vertex -2.8199664825479e-015 -5.0 5.0
vertex 5.44814089940806 -9.28273864338489 2.5
vertex 4.15404567389546 -4.45310951193955 5.0
endloop
endfacet
facet normal 0.258819045102521 -0.965925826289068 0.0
outer loop
vertex 4.15404567389546 -4.45310951193955 12.5
vertex -2.8199664825479e-015 -5.0 5.0
vertex 4.15404567389546 -4.45310951193955 5.0
endloop
endfacet
facet normal -2.40599967182466e-016 -1.0 0.0
outer loop
vertex -2.8199664825479e-015 -5.0 5.0
vertex 4.15404567389546 -4.45310951193955 12.5
vertex -2.8199664825479e-015 -5.0 12.5
endloop
endfacet
facet normal 0.258819045102521 -0.965925826289068 0.0
outer loop
vertex 5.44814089940806 -9.28273864338489 2.5
vertex -2.8199664825479e-015 -10.0 0.0
vertex 5.44814089940806 -9.28273864338489 0.0
endloop
endfacet
facet normal -2.22777747391173e-016 -1.0 0.0
outer loop
vertex -2.8199664825479e-015 -10.0 0.0
vertex 5.44814089940806 -9.28273864338489 2.5
vertex -2.8199664825479e-015 -10.0 2.5
endloop
endfacet
facet normal 0.0 0.0 1.0
outer loop
vertex -15.5031095119395 6.89595432610455 12.5
vertex -15.5031095119395 15.2040456738955 12.5
vertex -16.05 11.05 12.5
endloop
endfacet
facet normal 0.0 0.0 1.0
outer loop
vertex -15.5031095119395 15.2040456738955 12.5
vertex -15.5031095119395 6.89595432610455 12.5
vertex -13.8997077307402 3.02500000000001 12.5
endloop
endfacet
facet normal 0.0 0.0 1.0
outer loop
vertex -15.5031095119395 15.2040456738955 12.5
vertex -13.8997077307402 3.02500000000001 12.5
vertex -13.8997077307402 19.075 12.5
endloop
endfacet
facet normal 0.0 0.0 1.0
outer loop
vertex -13.8997077307402 19.075 12.5
vertex -13.8997077307402 3.02500000000001 12.5
vertex -11.3490638380441 -0.29906383804408 12.5
endloop
endfacet
facet normal 0.0 0.0 1.0
outer loop
vertex -13.8997077307402 19.075 12.5
vertex -11.3490638380441 -0.29906383804408 12.5
vertex -11.3490638380441 22.3990638380441 12.5
endloop
endfacet
facet normal 0.0 0.0 1.0
outer loop
vertex -11.3490638380441 22.3990638380441 12.5
vertex -11.3490638380441 -0.29906383804408 12.5
vertex -11.05 11.05 12.5
endloop
endfacet
facet normal 0.0 0.0 1.0
outer loop
vertex -11.05 11.05 12.5
vertex -11.3490638380441 -0.29906383804408 12.5
vertex -10.6734803804942 8.19004955161715 12.5
endloop
endfacet
facet normal 0.0 0.0 1.0
outer loop
vertex -10.6734803804942 8.19004955161715 12.5
vertex -11.3490638380441 -0.29906383804408 12.5
vertex -8.02500000000001 -2.84970773074023 12.5
endloop
endfacet
facet normal 0.0 0.0 1.0
outer loop
vertex -10.6734803804942 8.19004955161715 12.5
vertex -8.02500000000001 -2.84970773074023 12.5
vertex -9.56958071181805 5.52500000000001 12.5
endloop
endfacet
facet normal 0.0 0.0 1.0
outer loop
vertex -9.56958071181805 5.52500000000001 12.5
vertex -8.02500000000001 -2.84970773074023 12.5
vertex -7.81352993211135 3.23647006788865 12.5
endloop
endfacet
facet normal 0.0 0.0 1.0
outer loop
vertex -7.81352993211135 3.23647006788865 12.5
vertex -8.02500000000001 -2.84970773074023 12.5
vertex -4.15404567389547 -4.45310951193954 12.5
endloop
endfacet
facet normal 0.0 0.0 1.0
outer loop
vertex -7.81352993211135 3.23647006788865 12.5
vertex -4.15404567389547 -4.45310951193954 12.5
vertex -5.52500000000001 1.48041928818196 12.5
endloop
endfacet
facet normal 0.0 0.0 1.0
outer loop
vertex -5.52500000000001 1.48041928818196 12.5
vertex -4.15404567389547 -4.45310951193954 12.5
vertex -2.85995044838286 0.376519619505798 12.5
endloop
endfacet
facet normal 0.0 0.0 1.0
outer loop
vertex -2.85995044838286 0.376519619505798 12.5
vertex -4.15404567389547 -4.45310951193954 12.5
vertex -2.8199664825479e-015 -5.0 12.5
endloop
endfacet
facet normal 0.0 0.0 1.0
outer loop
vertex -2.85995044838286 0.376519619505798 12.5
vertex -2.8199664825479e-015 -5.0 12.5
vertex 0.0 0.0 12.5
endloop
endfacet
facet normal 0.0 0.0 1.0
outer loop
vertex 0.0 0.0 12.5
vertex -2.8199664825479e-015 -5.0 12.5
vertex 4.15404567389546 -4.45310951193955 12.5
endloop
endfacet
facet normal 0.0 0.0 1.0
outer loop
vertex 0.0 0.0 12.5
vertex 4.15404567389546 -4.45310951193955 12.5
vertex 2.85995044838285 0.376519619505795 12.5
endloop
endfacet
facet normal 0.0 0.0 1.0
outer loop
vertex 2.85995044838285 0.376519619505795 12.5
vertex 4.15404567389546 -4.45310951193955 12.5
vertex 5.525 1.48041928818195 12.5
endloop
endfacet
facet normal 0.0 0.0 1.0
outer loop
vertex 5.525 1.48041928818195 12.5
vertex 4.15404567389546 -4.45310951193955 12.5
vertex 8.025 -2.84970773074024 12.5
endloop
endfacet
facet normal 0.0 0.0 1.0
outer loop
vertex 5.525 1.48041928818195 12.5
vertex 8.025 -2.84970773074024 12.5
vertex 7.81352993211135 3.23647006788865 12.5
endloop
endfacet
facet normal 0.0 0.0 1.0
outer loop
vertex 7.81352993211135 3.23647006788865 12.5
vertex 8.025 -2.84970773074024 12.5
vertex 9.56958071181805 5.525 12.5
endloop
endfacet
facet normal 0.0 0.0 1.0
outer loop
vertex 9.56958071181805 5.525 12.5
vertex 8.025 -2.84970773074024 12.5
vertex 11.3490638380441 -0.299063838044089 12.5
endloop
endfacet
facet normal 0.0 0.0 1.0
outer loop
vertex 9.56958071181805 5.525 12.5
vertex 11.3490638380441 -0.299063838044089 12.5
vertex 10.6734803804942 8.19004955161715 12.5
endloop
endfacet
facet normal 0.0 0.0 1.0
outer loop
vertex 10.6734803804942 8.19004955161715 12.5
vertex 11.3490638380441 -0.299063838044089 12.5
vertex 11.05 11.05 12.5
endloop
endfacet
facet normal 0.0 0.0 1.0
outer loop
vertex -11.3490638380441 22.3990638380441 12.5
vertex -10.6734803804942 13.9099504483829 12.5
vertex -8.02499999999999 24.9497077307402 12.5
endloop
endfacet
facet normal 0.0 0.0 1.0
outer loop
vertex -10.6734803804942 13.9099504483829 12.5
vertex -11.3490638380441 22.3990638380441 12.5
vertex -11.05 11.05 12.5
endloop
endfacet
facet normal 0.0 0.0 1.0
outer loop
vertex -8.02499999999999 24.9497077307402 12.5
vertex -10.6734803804942 13.9099504483829 12.5
vertex -9.56958071181804 16.575 12.5
endloop
endfacet
facet normal 0.0 0.0 1.0
outer loop
vertex -8.02499999999999 24.9497077307402 12.5
vertex -9.56958071181804 16.575 12.5
vertex -7.81352993211135 18.8635299321114 12.5
endloop
endfacet
facet normal 0.0 0.0 1.0
outer loop
vertex -8.02499999999999 24.9497077307402 12.5
vertex -7.81352993211135 18.8635299321114 12.5
vertex -4.15404567389545 26.5531095119395 12.5
endloop
endfacet
facet normal 0.0 0.0 1.0
outer loop
vertex -4.15404567389545 26.5531095119395 12.5
vertex -7.81352993211135 18.8635299321114 12.5
vertex -5.525 20.619580711818 12.5
endloop
endfacet
facet normal 0.0 0.0 1.0
outer loop
vertex -4.15404567389545 26.5531095119395 12.5
vertex -5.525 20.619580711818 12.5
vertex -2.85995044838285 21.7234803804942 12.5
endloop
endfacet
facet normal 0.0 0.0 1.0
outer loop
vertex -4.15404567389545 26.5531095119395 12.5
vertex -2.85995044838285 21.7234803804942 12.5
vertex 5.63993296509579e-015 27.1 12.5
endloop
endfacet
facet normal 0.0 0.0 1.0
outer loop
vertex 5.63993296509579e-015 27.1 12.5
vertex -2.85995044838285 21.7234803804942 12.5
vertex 0.0 22.1 12.5
endloop
endfacet
facet normal 0.0 0.0 1.0
outer loop
vertex 5.63993296509579e-015 27.1 12.5
vertex 0.0 22.1 12.5
vertex 2.85995044838286 21.7234803804942 12.5
endloop
endfacet
facet normal 0.0 0.0 1.0
outer loop
vertex 5.63993296509579e-015 27.1 12.5
vertex 2.85995044838286 21.7234803804942 12.5
vertex 4.15404567389546 26.5531095119395 12.5
endloop
endfacet
facet normal 0.0 0.0 1.0
outer loop
vertex 4.15404567389546 26.5531095119395 12.5
vertex 2.85995044838286 21.7234803804942 12.5
vertex 5.52500000000001 20.619580711818 12.5
endloop
endfacet
facet normal 0.0 0.0 1.0
outer loop
vertex 4.15404567389546 26.5531095119395 12.5
vertex 5.52500000000001 20.619580711818 12.5
vertex 8.02500000000001 24.9497077307402 12.5
endloop
endfacet
facet normal 0.0 0.0 1.0
outer loop
vertex 8.02500000000001 24.9497077307402 12.5
vertex 5.52500000000001 20.619580711818 12.5
vertex 7.81352993211135 18.8635299321114 12.5
endloop
endfacet
facet normal 0.0 0.0 1.0
outer loop
vertex 8.02500000000001 24.9497077307402 12.5
vertex 7.81352993211135 18.8635299321114 12.5
vertex 9.56958071181805 16.575 12.5
endloop
endfacet
facet normal 0.0 0.0 1.0
outer loop
vertex 8.02500000000001 24.9497077307402 12.5
vertex 9.56958071181805 16.575 12.5
vertex 11.3490638380441 22.3990638380441 12.5
endloop
endfacet
facet normal 0.0 0.0 1.0
outer loop
vertex 11.3490638380441 22.3990638380441 12.5
vertex 9.56958071181805 16.575 12.5
vertex 10.6734803804942 13.9099504483829 12.5
endloop
endfacet
facet normal 0.0 0.0 1.0
outer loop
vertex 11.3490638380441 22.3990638380441 12.5
vertex 10.6734803804942 13.9099504483829 12.5
vertex 11.05 11.05 12.5
endloop
endfacet
facet normal 0.0 0.0 1.0
outer loop
vertex 11.3490638380441 22.3990638380441 12.5
vertex 11.05 11.05 12.5
vertex 11.3490638380441 -0.299063838044089 12.5
endloop
endfacet
facet normal 0.0 0.0 1.0
outer loop
vertex 11.3490638380441 22.3990638380441 12.5
vertex 11.3490638380441 -0.299063838044089 12.5
vertex 13.8997077307402 3.025 12.5
endloop
endfacet
facet normal 0.0 0.0 1.0
outer loop
vertex 11.3490638380441 22.3990638380441 12.5
vertex 13.8997077307402 3.025 12.5
vertex 13.8997077307402 19.075 12.5
endloop
endfacet
facet normal 0.0 0.0 1.0
outer loop
vertex 13.8997077307402 19.075 12.5
vertex 13.8997077307402 3.025 12.5
vertex 15.5031095119395 6.89595432610454 12.5
endloop
endfacet
facet normal 0.0 0.0 1.0
outer loop
vertex 13.8997077307402 19.075 12.5
vertex 15.5031095119395 6.89595432610454 12.5
vertex 15.5031095119395 15.2040456738955 12.5
endloop
endfacet
facet normal 0.0 0.0 1.0
outer loop
vertex 15.5031095119395 15.2040456738955 12.5
vertex 15.5031095119395 6.89595432610454 12.5
vertex 16.05 11.05 12.5
endloop
endfacet
facet normal -0.258819045102521 0.965925826289068 6.99483873600748e-019
outer loop
vertex 2.85995044838285 0.376519619505795 12.5
vertex 5.525 1.48041928818195 0.0
vertex 2.85995044838285 0.376519619505795 0.0
endloop
endfacet
facet normal -0.5 0.866025403784439 0.0
outer loop
vertex 5.525 1.48041928818195 0.0
vertex 2.85995044838285 0.376519619505795 12.5
vertex 5.525 1.48041928818195 12.5
endloop
endfacet
facet normal 0.5 -0.866025403784439 0.0
outer loop
vertex 8.025 -2.84970773074024 12.5
vertex 4.15404567389546 -4.45310951193955 5.0
vertex 8.025 -2.84970773074024 5.0
endloop
endfacet
facet normal 0.258819045102521 -0.965925826289068 0.0
outer loop
vertex 4.15404567389546 -4.45310951193955 5.0
vertex 8.025 -2.84970773074024 12.5
vertex 4.15404567389546 -4.45310951193955 12.5
endloop
endfacet
facet normal 2.76244406765054e-016 1.0 6.99483873600748e-019
outer loop
vertex 0.0 0.0 12.5
vertex 2.85995044838285 0.376519619505795 0.0
vertex 0.0 0.0 0.0
endloop
endfacet
facet normal -0.258819045102521 0.965925826289068 6.99483873600748e-019
outer loop
vertex 2.85995044838285 0.376519619505795 0.0
vertex 0.0 0.0 12.5
vertex 2.85995044838285 0.376519619505795 12.5
endloop
endfacet
facet normal 0.115747395744164 -0.431975161761002 0.894427190999916
outer loop
vertex 5.44814089940806 -9.28273864338489 2.5
vertex 8.025 -2.84970773074024 5.0
vertex 4.15404567389546 -4.45310951193955 5.0
endloop
endfacet
facet normal 0.223606797749979 -0.387298334620742 0.894427190999916
outer loop
vertex 8.025 -2.84970773074024 5.0
vertex 5.44814089940806 -9.28273864338489 2.5
vertex 10.525 -7.17983474966243 2.5
endloop
endfacet
facet normal 0.5 -0.866025403784439 0.0
outer loop
vertex 10.525 -7.17983474966243 2.5
vertex 5.44814089940806 -9.28273864338489 0.0
vertex 10.525 -7.17983474966243 0.0
endloop
endfacet
facet normal 0.258819045102521 -0.965925826289068 0.0
outer loop
vertex 5.44814089940806 -9.28273864338489 0.0
vertex 10.525 -7.17983474966243 2.5
vertex 5.44814089940806 -9.28273864338489 2.5
endloop
endfacet
facet normal -0.5 0.866025403784439 0.0
outer loop
vertex 5.525 1.48041928818195 12.5
vertex 7.81352993211135 3.23647006788865 0.0
vertex 5.525 1.48041928818195 0.0
endloop
endfacet
facet normal -0.707106781186548 0.707106781186548 -1.03078362269395e-017
outer loop
vertex 7.81352993211135 3.23647006788865 0.0
vertex 5.525 1.48041928818195 12.5
vertex 7.81352993211135 3.23647006788865 12.5
endloop
endfacet
facet normal 0.707106781186547 -0.707106781186548 0.0
outer loop
vertex 11.3490638380441 -0.299063838044089 12.5
vertex 8.025 -2.84970773074024 5.0
vertex 11.3490638380441 -0.299063838044089 5.0
endloop
endfacet
facet normal 0.5 -0.866025403784439 0.0
outer loop
vertex 8.025 -2.84970773074024 5.0
vertex 11.3490638380441 -0.299063838044089 12.5
vertex 8.025 -2.84970773074024 12.5
endloop
endfacet
facet normal 0.223606797749979 -0.387298334620742 0.894427190999916
outer loop
vertex 10.525 -7.17983474966243 2.5
vertex 11.3490638380441 -0.299063838044089 5.0
vertex 8.025 -2.84970773074024 5.0
endloop
endfacet
facet normal 0.316227766016838 -0.316227766016838 0.894427190999916
outer loop
vertex 11.3490638380441 -0.299063838044089 5.0
vertex 10.525 -7.17983474966243 2.5
vertex 14.8845977439768 -3.83459774397683 2.5
endloop
endfacet
facet normal 0.707106781186547 -0.707106781186548 0.0
outer loop
vertex 14.8845977439768 -3.83459774397683 2.5
vertex 10.525 -7.17983474966243 0.0
vertex 14.8845977439768 -3.83459774397683 0.0
endloop
endfacet
facet normal 0.5 -0.866025403784439 0.0
outer loop
vertex 10.525 -7.17983474966243 0.0
vertex 14.8845977439768 -3.83459774397683 2.5
vertex 10.525 -7.17983474966243 2.5
endloop
endfacet
facet normal 0.965925826289068 -0.258819045102521 0.0
outer loop
vertex 20.3327386433849 5.60185910059194 0.0
vertex 18.2298347496624 0.524999999999999 2.5
vertex 18.2298347496624 0.524999999999999 0.0
endloop
endfacet
facet normal 0.866025403784439 -0.5 0.0
outer loop
vertex 18.2298347496624 0.524999999999999 2.5
vertex 20.3327386433849 5.60185910059194 0.0
vertex 20.3327386433849 5.60185910059194 2.5
endloop
endfacet
facet normal -0.866025403784439 0.5 -1.6787612966418e-017
outer loop
vertex 9.56958071181805 5.525 12.5
vertex 7.81352993211135 3.23647006788865 0.0
vertex 7.81352993211135 3.23647006788865 12.5
endloop
endfacet
facet normal -0.707106781186548 0.707106781186548 -1.03078362269395e-017
outer loop
vertex 7.81352993211135 3.23647006788865 0.0
vertex 9.56958071181805 5.525 12.5
vertex 9.56958071181805 5.525 0.0
endloop
endfacet
facet normal 0.866025403784439 -0.5 0.0
outer loop
vertex 13.8997077307402 3.025 5.0
vertex 11.3490638380441 -0.299063838044089 12.5
vertex 11.3490638380441 -0.299063838044089 5.0
endloop
endfacet
facet normal 0.707106781186547 -0.707106781186548 0.0
outer loop
vertex 11.3490638380441 -0.299063838044089 12.5
vertex 13.8997077307402 3.025 5.0
vertex 13.8997077307402 3.025 12.5
endloop
endfacet
facet normal 0.316227766016838 -0.316227766016838 0.894427190999916
outer loop
vertex 14.8845977439768 -3.83459774397683 2.5
vertex 13.8997077307402 3.025 5.0
vertex 11.3490638380441 -0.299063838044089 5.0
endloop
endfacet
facet normal 0.387298334620742 -0.223606797749979 0.894427190999916
outer loop
vertex 13.8997077307402 3.025 5.0
vertex 14.8845977439768 -3.83459774397683 2.5
vertex 18.2298347496624 0.524999999999999 2.5
endloop
endfacet
facet normal 0.866025403784439 -0.5 0.0
outer loop
vertex 18.2298347496624 0.524999999999999 0.0
vertex 14.8845977439768 -3.83459774397683 2.5
vertex 14.8845977439768 -3.83459774397683 0.0
endloop
endfacet
facet normal 0.707106781186547 -0.707106781186548 0.0
outer loop
vertex 14.8845977439768 -3.83459774397683 2.5
vertex 18.2298347496624 0.524999999999999 0.0
vertex 18.2298347496624 0.524999999999999 2.5
endloop
endfacet
facet normal -0.965925826289068 0.258819045102521 -6.4797767394785e-018
outer loop
vertex 10.6734803804942 8.19004955161715 12.5
vertex 9.56958071181805 5.525 0.0
vertex 9.56958071181805 5.525 12.5
endloop
endfacet
facet normal -0.866025403784439 0.5 -1.6787612966418e-017
outer loop
vertex 9.56958071181805 5.525 0.0
vertex 10.6734803804942 8.19004955161715 12.5
vertex 10.6734803804942 8.19004955161715 0.0
endloop
endfacet
facet normal 0.965925826289068 -0.258819045102521 0.0
outer loop
vertex 15.5031095119395 6.89595432610454 5.0
vertex 13.8997077307402 3.025 12.5
vertex 13.8997077307402 3.025 5.0
endloop
endfacet
facet normal 0.866025403784439 -0.5 0.0
outer loop
vertex 13.8997077307402 3.025 12.5
vertex 15.5031095119395 6.89595432610454 5.0
vertex 15.5031095119395 6.89595432610454 12.5
endloop
endfacet
facet normal 0.387298334620742 -0.223606797749979 0.894427190999916
outer loop
vertex 18.2298347496624 0.524999999999999 2.5
vertex 15.5031095119395 6.89595432610454 5.0
vertex 13.8997077307402 3.025 5.0
endloop
endfacet
facet normal 0.431975161761002 -0.115747395744164 0.894427190999916
outer loop
vertex 15.5031095119395 6.89595432610454 5.0
vertex 18.2298347496624 0.524999999999999 2.5
vertex 20.3327386433849 5.60185910059194 2.5
endloop
endfacet
facet normal 0.866025403784439 0.5 0.0
outer loop
vertex 13.8997077307402 19.075 5.0
vertex 15.5031095119395 15.2040456738955 12.5
vertex 15.5031095119395 15.2040456738955 5.0
endloop
endfacet
facet normal 0.965925826289068 0.258819045102521 0.0
outer loop
vertex 15.5031095119395 15.2040456738955 12.5
vertex 13.8997077307402 19.075 5.0
vertex 13.8997077307402 19.075 12.5
endloop
endfacet
facet normal -1.0 1.87133307808585e-016 0.0
outer loop
vertex 11.05 11.05 12.5
vertex 10.6734803804942 8.19004955161715 0.0
vertex 10.6734803804942 8.19004955161715 12.5
endloop
endfacet
facet normal -0.965925826289068 0.258819045102521 -6.4797767394785e-018
outer loop
vertex 10.6734803804942 8.19004955161715 0.0
vertex 11.05 11.05 12.5
vertex 11.05 11.05 0.0
endloop
endfacet
facet normal 1.0 0.0 0.0
outer loop
vertex 16.05 11.05 5.0
vertex 15.5031095119395 6.89595432610454 12.5
vertex 15.5031095119395 6.89595432610454 5.0
endloop
endfacet
facet normal 0.965925826289068 -0.258819045102521 0.0
outer loop
vertex 15.5031095119395 6.89595432610454 12.5
vertex 16.05 11.05 5.0
vertex 16.05 11.05 12.5
endloop
endfacet
facet normal 0.707106781186548 0.707106781186547 0.0
outer loop
vertex 11.3490638380441 22.3990638380441 5.0
vertex 13.8997077307402 19.075 12.5
vertex 13.8997077307402 19.075 5.0
endloop
endfacet
facet normal 0.866025403784439 0.5 0.0
outer loop
vertex 13.8997077307402 19.075 12.5
vertex 11.3490638380441 22.3990638380441 5.0
vertex 11.3490638380441 22.3990638380441 12.5
endloop
endfacet
facet normal 0.431975161761002 -0.115747395744164 0.894427190999916
outer loop
vertex 20.3327386433849 5.60185910059194 2.5
vertex 16.05 11.05 5.0
vertex 15.5031095119395 6.89595432610454 5.0
endloop
endfacet
facet normal 0.447213595499958 -5.35379387589022e-017 0.894427190999916
outer loop
vertex 16.05 11.05 5.0
vertex 20.3327386433849 5.60185910059194 2.5
vertex 21.05 11.05 2.5
endloop
endfacet
facet normal 1.0 -2.22777747391173e-016 0.0
outer loop
vertex 21.05 11.05 0.0
vertex 20.3327386433849 5.60185910059194 2.5
vertex 20.3327386433849 5.60185910059194 0.0
endloop
endfacet
facet normal 0.965925826289068 -0.258819045102521 0.0
outer loop
vertex 20.3327386433849 5.60185910059194 2.5
vertex 21.05 11.05 0.0
vertex 21.05 11.05 2.5
endloop
endfacet
facet normal -0.965925826289068 -0.258819045102521 0.0
outer loop
vertex 10.6734803804942 13.9099504483829 12.5
vertex 11.05 11.05 0.0
vertex 11.05 11.05 12.5
endloop
endfacet
facet normal -1.0 1.87133307808585e-016 0.0
outer loop
vertex 11.05 11.05 0.0
vertex 10.6734803804942 13.9099504483829 12.5
vertex 10.6734803804942 13.9099504483829 0.0
endloop
endfacet
facet normal 0.965925826289068 0.258819045102521 0.0
outer loop
vertex 15.5031095119395 15.2040456738955 5.0
vertex 16.05 11.05 12.5
vertex 16.05 11.05 5.0
endloop
endfacet
facet normal 1.0 0.0 0.0
outer loop
vertex 16.05 11.05 12.5
vertex 15.5031095119395 15.2040456738955 5.0
vertex 15.5031095119395 15.2040456738955 12.5
endloop
endfacet
facet normal 0.447213595499958 -5.35379387589022e-017 0.894427190999916
outer loop
vertex 16.05 11.05 5.0
vertex 20.3327386433849 16.4981408994081 2.5
vertex 15.5031095119395 15.2040456738955 5.0
endloop
endfacet
facet normal 0.431975161761002 0.115747395744164 0.894427190999916
outer loop
vertex 20.3327386433849 16.4981408994081 2.5
vertex 16.05 11.05 5.0
vertex 21.05 11.05 2.5
endloop
endfacet
facet normal 0.965925826289068 0.258819045102521 0.0
outer loop
vertex 20.3327386433849 16.4981408994081 0.0
vertex 21.05 11.05 2.5
vertex 21.05 11.05 0.0
endloop
endfacet
facet normal 1.0 -2.22777747391173e-016 0.0
outer loop
vertex 21.05 11.05 2.5
vertex 20.3327386433849 16.4981408994081 0.0
vertex 20.3327386433849 16.4981408994081 2.5
endloop
endfacet
facet normal -0.866025403784439 -0.5 0.0
outer loop
vertex 9.56958071181805 16.575 12.5
vertex 10.6734803804942 13.9099504483829 0.0
vertex 10.6734803804942 13.9099504483829 12.5
endloop
endfacet
facet normal -0.965925826289068 -0.258819045102521 0.0
outer loop
vertex 10.6734803804942 13.9099504483829 0.0
vertex 9.56958071181805 16.575 12.5
vertex 9.56958071181805 16.575 0.0
endloop
endfacet
facet normal 0.431975161761002 0.115747395744164 0.894427190999916
outer loop
vertex 15.5031095119395 15.2040456738955 5.0
vertex 18.2298347496624 21.575 2.5
vertex 13.8997077307402 19.075 5.0
endloop
endfacet
facet normal 0.387298334620742 0.223606797749979 0.894427190999916
outer loop
vertex 18.2298347496624 21.575 2.5
vertex 15.5031095119395 15.2040456738955 5.0
vertex 20.3327386433849 16.4981408994081 2.5
endloop
endfacet
facet normal 0.866025403784439 0.5 0.0
outer loop
vertex 18.2298347496624 21.575 0.0
vertex 20.3327386433849 16.4981408994081 2.5
vertex 20.3327386433849 16.4981408994081 0.0
endloop
endfacet
facet normal 0.965925826289068 0.258819045102521 0.0
outer loop
vertex 20.3327386433849 16.4981408994081 2.5
vertex 18.2298347496624 21.575 0.0
vertex 18.2298347496624 21.575 2.5
endloop
endfacet
facet normal -0.707106781186548 -0.707106781186547 0.0
outer loop
vertex 7.81352993211135 18.8635299321114 12.5
vertex 9.56958071181805 16.575 0.0
vertex 9.56958071181805 16.575 12.5
endloop
endfacet
facet normal -0.866025403784439 -0.5 0.0
outer loop
vertex 9.56958071181805 16.575 0.0
vertex 7.81352993211135 18.8635299321114 12.5
vertex 7.81352993211135 18.8635299321114 0.0
endloop
endfacet
facet normal 0.387298334620742 0.223606797749979 0.894427190999916
outer loop
vertex 13.8997077307402 19.075 5.0
vertex 14.8845977439768 25.9345977439768 2.5
vertex 11.3490638380441 22.3990638380441 5.0
endloop
endfacet
facet normal 0.316227766016838 0.316227766016838 0.894427190999916
outer loop
vertex 14.8845977439768 25.9345977439768 2.5
vertex 13.8997077307402 19.075 5.0
vertex 18.2298347496624 21.575 2.5
endloop
endfacet
facet normal 0.707106781186548 0.707106781186547 0.0
outer loop
vertex 14.8845977439768 25.9345977439768 0.0
vertex 18.2298347496624 21.575 2.5
vertex 18.2298347496624 21.575 0.0
endloop
endfacet
facet normal 0.866025403784439 0.5 0.0
outer loop
vertex 18.2298347496624 21.575 2.5
vertex 14.8845977439768 25.9345977439768 0.0
vertex 14.8845977439768 25.9345977439768 2.5
endloop
endfacet
facet normal -0.707106781186548 -0.707106781186547 0.0
outer loop
vertex 7.81352993211135 18.8635299321114 12.5
vertex 5.52500000000001 20.619580711818 0.0
vertex 7.81352993211135 18.8635299321114 0.0
endloop
endfacet
facet normal -0.5 -0.866025403784439 2.15992557982617e-018
outer loop
vertex 5.52500000000001 20.619580711818 0.0
vertex 7.81352993211135 18.8635299321114 12.5
vertex 5.52500000000001 20.619580711818 12.5
endloop
endfacet
facet normal 0.5 0.866025403784439 0.0
outer loop
vertex 8.02500000000001 24.9497077307402 12.5
vertex 11.3490638380441 22.3990638380441 5.0
vertex 8.02500000000001 24.9497077307402 5.0
endloop
endfacet
facet normal 0.707106781186548 0.707106781186547 0.0
outer loop
vertex 11.3490638380441 22.3990638380441 5.0
vertex 8.02500000000001 24.9497077307402 12.5
vertex 11.3490638380441 22.3990638380441 12.5
endloop
endfacet
facet normal 0.316227766016838 0.316227766016838 0.894427190999916
outer loop
vertex 11.3490638380441 22.3990638380441 5.0
vertex 10.525 29.2798347496624 2.5
vertex 8.02500000000001 24.9497077307402 5.0
endloop
endfacet
facet normal 0.223606797749979 0.387298334620741 0.894427190999916
outer loop
vertex 10.525 29.2798347496624 2.5
vertex 11.3490638380441 22.3990638380441 5.0
vertex 14.8845977439768 25.9345977439768 2.5
endloop
endfacet
facet normal 0.5 0.866025403784439 0.0
outer loop
vertex 10.525 29.2798347496624 2.5
vertex 14.8845977439768 25.9345977439768 0.0
vertex 10.525 29.2798347496624 0.0
endloop
endfacet
facet normal 0.707106781186548 0.707106781186547 0.0
outer loop
vertex 14.8845977439768 25.9345977439768 0.0
vertex 10.525 29.2798347496624 2.5
vertex 14.8845977439768 25.9345977439768 2.5
endloop
endfacet
facet normal -0.5 -0.866025403784439 2.15992557982617e-018
outer loop
vertex 5.52500000000001 20.619580711818 12.5
vertex 2.85995044838286 21.7234803804942 0.0
vertex 5.52500000000001 20.619580711818 0.0
endloop
endfacet
facet normal -0.258819045102521 -0.965925826289068 3.63334636353249e-018
outer loop
vertex 2.85995044838286 21.7234803804942 0.0
vertex 5.52500000000001 20.619580711818 12.5
vertex 2.85995044838286 21.7234803804942 12.5
endloop
endfacet
facet normal 0.25881904510252 0.965925826289068 0.0
outer loop
vertex 4.15404567389546 26.5531095119395 12.5
vertex 8.02500000000001 24.9497077307402 5.0
vertex 4.15404567389546 26.5531095119395 5.0
endloop
endfacet
facet normal 0.5 0.866025403784439 0.0
outer loop
vertex 8.02500000000001 24.9497077307402 5.0
vertex 4.15404567389546 26.5531095119395 12.5
vertex 8.02500000000001 24.9497077307402 12.5
endloop
endfacet
facet normal 0.223606797749979 0.387298334620742 0.894427190999916
outer loop
vertex 8.02500000000001 24.9497077307402 5.0
vertex 5.44814089940807 31.3827386433849 2.5
vertex 4.15404567389546 26.5531095119395 5.0
endloop
endfacet
facet normal 0.115747395744164 0.431975161761002 0.894427190999916
outer loop
vertex 5.44814089940807 31.3827386433849 2.5
vertex 8.02500000000001 24.9497077307402 5.0
vertex 10.525 29.2798347496624 2.5
endloop
endfacet
facet normal 0.25881904510252 0.965925826289068 0.0
outer loop
vertex 5.44814089940807 31.3827386433849 2.5
vertex 10.525 29.2798347496624 0.0
vertex 5.44814089940807 31.3827386433849 0.0
endloop
endfacet
facet normal 0.5 0.866025403784439 0.0
outer loop
vertex 10.525 29.2798347496624 0.0
vertex 5.44814089940807 31.3827386433849 2.5
vertex 10.525 29.2798347496624 2.5
endloop
endfacet
facet normal -0.258819045102521 -0.965925826289068 3.63334636353249e-018
outer loop
vertex 2.85995044838286 21.7234803804942 12.5
vertex 0.0 22.1 0.0
vertex 2.85995044838286 21.7234803804942 0.0
endloop
endfacet
facet normal -3.83177725512817e-016 -1.0 2.94684156741263e-018
outer loop
vertex 0.0 22.1 0.0
vertex 2.85995044838286 21.7234803804942 12.5
vertex 0.0 22.1 12.5
endloop
endfacet
facet normal -0.707106781186547 0.707106781186548 0.0
outer loop
vertex -11.3490638380441 22.3990638380441 12.5
vertex -13.8997077307402 19.075 5.0
vertex -13.8997077307402 19.075 12.5
endloop
endfacet
facet normal -0.866025403784439 0.5 0.0
outer loop
vertex -13.8997077307402 19.075 5.0
vertex -11.3490638380441 22.3990638380441 12.5
vertex -11.3490638380441 22.3990638380441 5.0
endloop
endfacet
facet normal -0.387298334620742 0.223606797749979 0.894427190999916
outer loop
vertex -13.8997077307402 19.075 5.0
vertex -14.8845977439768 25.9345977439768 2.5
vertex -18.2298347496624 21.575 2.5
endloop
endfacet
facet normal -0.316227766016838 0.316227766016838 0.894427190999916
outer loop
vertex -14.8845977439768 25.9345977439768 2.5
vertex -13.8997077307402 19.075 5.0
vertex -11.3490638380441 22.3990638380441 5.0
endloop
endfacet
facet normal -0.707106781186547 0.707106781186548 0.0
outer loop
vertex -14.8845977439768 25.9345977439768 2.5
vertex -18.2298347496624 21.575 0.0
vertex -18.2298347496624 21.575 2.5
endloop
endfacet
facet normal -0.866025403784438 0.500000000000001 0.0
outer loop
vertex -18.2298347496624 21.575 0.0
vertex -14.8845977439768 25.9345977439768 2.5
vertex -14.8845977439768 25.9345977439768 0.0
endloop
endfacet
facet normal 0.866025403784438 -0.5 0.0
outer loop
vertex -9.56958071181804 16.575 0.0
vertex -10.6734803804942 13.9099504483829 12.5
vertex -10.6734803804942 13.9099504483829 0.0
endloop
endfacet
facet normal 0.965925826289068 -0.258819045102521 0.0
outer loop
vertex -10.6734803804942 13.9099504483829 12.5
vertex -9.56958071181804 16.575 0.0
vertex -9.56958071181804 16.575 12.5
endloop
endfacet
facet normal -0.866025403784439 0.5 0.0
outer loop
vertex -13.8997077307402 19.075 12.5
vertex -15.5031095119395 15.2040456738955 5.0
vertex -15.5031095119395 15.2040456738955 12.5
endloop
endfacet
facet normal -0.965925826289068 0.258819045102521 0.0
outer loop
vertex -15.5031095119395 15.2040456738955 5.0
vertex -13.8997077307402 19.075 12.5
vertex -13.8997077307402 19.075 5.0
endloop
endfacet
facet normal -0.431975161761002 0.115747395744164 0.894427190999916
outer loop
vertex -15.5031095119395 15.2040456738955 5.0
vertex -18.2298347496624 21.575 2.5
vertex -20.3327386433849 16.4981408994081 2.5
endloop
endfacet
facet normal -0.387298334620742 0.223606797749979 0.894427190999916
outer loop
vertex -18.2298347496624 21.575 2.5
vertex -15.5031095119395 15.2040456738955 5.0
vertex -13.8997077307402 19.075 5.0
endloop
endfacet
facet normal -0.500000000000001 -0.866025403784438 0.0
outer loop
vertex -8.02500000000001 -2.84970773074023 12.5
vertex -11.3490638380441 -0.29906383804408 5.0
vertex -8.02500000000001 -2.84970773074023 5.0
endloop
endfacet
facet normal -0.707106781186548 -0.707106781186547 0.0
outer loop
vertex -11.3490638380441 -0.29906383804408 5.0
vertex -8.02500000000001 -2.84970773074023 12.5
vertex -11.3490638380441 -0.29906383804408 12.5
endloop
endfacet
facet normal -0.223606797749979 -0.387298334620742 0.894427190999916
outer loop
vertex -10.525 -7.17983474966242 2.5
vertex -11.3490638380441 -0.29906383804408 5.0
vertex -14.8845977439768 -3.83459774397681 2.5
endloop
endfacet
facet normal -0.316227766016838 -0.316227766016838 0.894427190999916
outer loop
vertex -11.3490638380441 -0.29906383804408 5.0
vertex -10.525 -7.17983474966242 2.5
vertex -8.02500000000001 -2.84970773074023 5.0
endloop
endfacet
facet normal -0.500000000000001 -0.866025403784438 0.0
outer loop
vertex -10.525 -7.17983474966242 2.5
vertex -14.8845977439768 -3.83459774397681 0.0
vertex -10.525 -7.17983474966242 0.0
endloop
endfacet
facet normal -0.707106781186548 -0.707106781186547 0.0
outer loop
vertex -14.8845977439768 -3.83459774397681 0.0
vertex -10.525 -7.17983474966242 2.5
vertex -14.8845977439768 -3.83459774397681 2.5
endloop
endfacet
facet normal 0.500000000000001 0.866025403784438 0.0
outer loop
vertex -5.52500000000001 1.48041928818196 12.5
vertex -2.85995044838286 0.376519619505798 0.0
vertex -5.52500000000001 1.48041928818196 0.0
endloop
endfacet
facet normal 0.258819045102521 0.965925826289068 0.0
outer loop
vertex -2.85995044838286 0.376519619505798 0.0
vertex -5.52500000000001 1.48041928818196 12.5
vertex -2.85995044838286 0.376519619505798 12.5
endloop
endfacet
facet normal -0.258819045102521 -0.965925826289068 0.0
outer loop
vertex -4.15404567389547 -4.45310951193954 12.5
vertex -8.02500000000001 -2.84970773074023 5.0
vertex -4.15404567389547 -4.45310951193954 5.0
endloop
endfacet
facet normal -0.500000000000001 -0.866025403784438 0.0
outer loop
vertex -8.02500000000001 -2.84970773074023 5.0
vertex -4.15404567389547 -4.45310951193954 12.5
vertex -8.02500000000001 -2.84970773074023 12.5
endloop
endfacet
facet normal -0.115747395744164 -0.431975161761002 0.894427190999916
outer loop
vertex -5.44814089940808 -9.28273864338487 2.5
vertex -8.02500000000001 -2.84970773074023 5.0
vertex -10.525 -7.17983474966242 2.5
endloop
endfacet
facet normal -0.223606797749979 -0.387298334620742 0.894427190999916
outer loop
vertex -8.02500000000001 -2.84970773074023 5.0
vertex -5.44814089940808 -9.28273864338487 2.5
vertex -4.15404567389547 -4.45310951193954 5.0
endloop
endfacet
facet normal -0.258819045102521 -0.965925826289068 0.0
outer loop
vertex -5.44814089940808 -9.28273864338487 2.5
vertex -10.525 -7.17983474966242 0.0
vertex -5.44814089940808 -9.28273864338487 0.0
endloop
endfacet
facet normal -0.500000000000001 -0.866025403784438 0.0
outer loop
vertex -10.525 -7.17983474966242 0.0
vertex -5.44814089940808 -9.28273864338487 2.5
vertex -10.525 -7.17983474966242 2.5
endloop
endfacet
facet normal 0.258819045102521 0.965925826289068 0.0
outer loop
vertex -2.85995044838286 0.376519619505798 12.5
vertex 0.0 0.0 0.0
vertex -2.85995044838286 0.376519619505798 0.0
endloop
endfacet
facet normal 2.76244406765054e-016 1.0 6.99483873600748e-019
outer loop
vertex 0.0 0.0 0.0
vertex -2.85995044838286 0.376519619505798 12.5
vertex 0.0 0.0 12.5
endloop
endfacet
facet normal -2.40599967182466e-016 -1.0 0.0
outer loop
vertex -2.8199664825479e-015 -5.0 12.5
vertex -4.15404567389547 -4.45310951193954 5.0
vertex -2.8199664825479e-015 -5.0 5.0
endloop
endfacet
facet normal -0.258819045102521 -0.965925826289068 0.0
outer loop
vertex -4.15404567389547 -4.45310951193954 5.0
vertex -2.8199664825479e-015 -5.0 12.5
vertex -4.15404567389547 -4.45310951193954 12.5
endloop
endfacet
facet normal -9.56251211400489e-017 -0.447213595499958 0.894427190999916
outer loop
vertex -2.8199664825479e-015 -10.0 2.5
vertex -4.15404567389547 -4.45310951193954 5.0
vertex -5.44814089940808 -9.28273864338487 2.5
endloop
endfacet
facet normal -0.115747395744164 -0.431975161761003 0.894427190999916
outer loop
vertex -4.15404567389547 -4.45310951193954 5.0
vertex -2.8199664825479e-015 -10.0 2.5
vertex -2.8199664825479e-015 -5.0 5.0
endloop
endfacet
facet normal -2.22777747391173e-016 -1.0 0.0
outer loop
vertex -2.8199664825479e-015 -10.0 2.5
vertex -5.44814089940808 -9.28273864338487 0.0
vertex -2.8199664825479e-015 -10.0 0.0
endloop
endfacet
facet normal -0.258819045102521 -0.965925826289068 0.0
outer loop
vertex -5.44814089940808 -9.28273864338487 0.0
vertex -2.8199664825479e-015 -10.0 2.5
vertex -5.44814089940808 -9.28273864338487 2.5
endloop
endfacet
endsolid Pulley
