solid square50-10
facet normal 0.0 1.0 3.77741534269802e-016
outer loop
vertex 22.2027361783186 5.59900003053491 15.0
vertex 27.8017362088535 5.59900003053491 10.0
vertex 22.2027361783186 5.59900003053491 10.0
endloop
endfacet
facet normal 0.0 1.0 3.77741534269802e-016
outer loop
vertex 27.8017362088535 5.59900003053491 10.0
vertex 22.2027361783186 5.59900003053491 15.0
vertex 27.8017362088535 5.59900003053491 15.0
endloop
endfacet
facet normal -1.0 0.0 3.77741534269801e-016
outer loop
vertex 22.2027361783186 5.59900003053491 15.0
vertex 22.2027361783186 0.0 10.0
vertex 22.2027361783186 -1.88870767134901e-015 15.0
endloop
endfacet
facet normal -1.0 0.0 3.77741534269801e-016
outer loop
vertex 22.2027361783186 0.0 10.0
vertex 22.2027361783186 5.59900003053491 15.0
vertex 22.2027361783186 5.59900003053491 10.0
endloop
endfacet
facet normal 1.0 2.85377333425007e-031 -3.77741534269801e-016
outer loop
vertex 27.8017362088535 0.0 10.0
vertex 27.8017362088535 5.59900003053491 15.0
vertex 27.8017362088535 -1.88870767134901e-015 15.0
endloop
endfacet
facet normal 1.0 2.85377333425007e-031 -3.77741534269801e-016
outer loop
vertex 27.8017362088535 5.59900003053491 15.0
vertex 27.8017362088535 0.0 10.0
vertex 27.8017362088535 5.59900003053491 10.0
endloop
endfacet
facet normal 3.77741534269801e-016 -3.77741534269801e-016 1.0
outer loop
vertex 27.8017362088535 -1.88870767134901e-015 15.0
vertex 22.2027361783186 5.59900003053491 15.0
vertex 22.2027361783186 -1.88870767134901e-015 15.0
endloop
endfacet
facet normal 3.77741534269801e-016 -3.77741534269801e-016 1.0
outer loop
vertex 22.2027361783186 5.59900003053491 15.0
vertex 27.8017362088535 -1.88870767134901e-015 15.0
vertex 27.8017362088535 5.59900003053491 15.0
endloop
endfacet
facet normal 0.0 0.0 -1.0
outer loop
vertex 0.0 50.0 0.0
vertex 10.0 40.0 0.0
vertex 0.0 0.0 0.0
endloop
endfacet
facet normal 0.0 0.0 -1.0
outer loop
vertex 10.0 40.0 0.0
vertex 0.0 50.0 0.0
vertex 50.0 50.0 0.0
endloop
endfacet
facet normal 0.0 0.0 -1.0
outer loop
vertex 10.0 40.0 0.0
vertex 50.0 50.0 0.0
vertex 40.0 40.0 0.0
endloop
endfacet
facet normal 0.0 0.0 -1.0
outer loop
vertex 40.0 40.0 0.0
vertex 50.0 50.0 0.0
vertex 40.0 10.0 0.0
endloop
endfacet
facet normal 0.0 0.0 -1.0
outer loop
vertex 0.0 0.0 0.0
vertex 10.0 10.0 0.0
vertex 50.0 0.0 0.0
endloop
endfacet
facet normal 0.0 0.0 -1.0
outer loop
vertex 10.0 10.0 0.0
vertex 0.0 0.0 0.0
vertex 10.0 40.0 0.0
endloop
endfacet
facet normal 0.0 0.0 -1.0
outer loop
vertex 50.0 0.0 0.0
vertex 10.0 10.0 0.0
vertex 40.0 10.0 0.0
endloop
endfacet
facet normal 0.0 0.0 -1.0
outer loop
vertex 50.0 0.0 0.0
vertex 40.0 10.0 0.0
vertex 50.0 50.0 0.0
endloop
endfacet
facet normal 4.67387113106692e-018 3.66836885565839e-017 1.0
outer loop
vertex 50.0 0.0 10.0
vertex 27.8017362088535 5.59900003053491 10.0
vertex 27.8017362088535 0.0 10.0
endloop
endfacet
facet normal 4.67387113106692e-018 3.66836885565839e-017 1.0
outer loop
vertex 27.8017362088535 5.59900003053491 10.0
vertex 50.0 0.0 10.0
vertex 40.0 10.0 10.0
endloop
endfacet
facet normal 4.67387113106692e-018 3.66836885565839e-017 1.0
outer loop
vertex 40.0 10.0 10.0
vertex 50.0 0.0 10.0
vertex 40.0 40.0 10.0
endloop
endfacet
facet normal 4.67387113106692e-018 3.66836885565839e-017 1.0
outer loop
vertex 0.0 50.0 10.0
vertex 10.0 40.0 10.0
vertex 50.0 50.0 10.0
endloop
endfacet
facet normal 4.67387113106692e-018 3.66836885565839e-017 1.0
outer loop
vertex 10.0 40.0 10.0
vertex 0.0 50.0 10.0
vertex 10.0 10.0 10.0
endloop
endfacet
facet normal 4.67387113106692e-018 3.66836885565839e-017 1.0
outer loop
vertex 50.0 50.0 10.0
vertex 10.0 40.0 10.0
vertex 40.0 40.0 10.0
endloop
endfacet
facet normal 4.67387113106692e-018 3.66836885565839e-017 1.0
outer loop
vertex 50.0 50.0 10.0
vertex 40.0 40.0 10.0
vertex 50.0 0.0 10.0
endloop
endfacet
facet normal 4.67387113106692e-018 3.66836885565839e-017 1.0
outer loop
vertex 0.0 0.0 10.0
vertex 10.0 10.0 10.0
vertex 0.0 50.0 10.0
endloop
endfacet
facet normal 4.67387113106692e-018 3.66836885565839e-017 1.0
outer loop
vertex 10.0 10.0 10.0
vertex 0.0 0.0 10.0
vertex 22.2027361783186 0.0 10.0
endloop
endfacet
facet normal 4.67387113106692e-018 3.66836885565839e-017 1.0
outer loop
vertex 10.0 10.0 10.0
vertex 22.2027361783186 0.0 10.0
vertex 22.2027361783186 5.59900003053491 10.0
endloop
endfacet
facet normal 4.67387113106692e-018 3.66836885565839e-017 1.0
outer loop
vertex 10.0 10.0 10.0
vertex 22.2027361783186 5.59900003053491 10.0
vertex 40.0 10.0 10.0
endloop
endfacet
facet normal 4.67387113106692e-018 3.66836885565839e-017 1.0
outer loop
vertex 40.0 10.0 10.0
vertex 22.2027361783186 5.59900003053491 10.0
vertex 27.8017362088535 5.59900003053491 10.0
endloop
endfacet
facet normal -1.0 0.0 0.0
outer loop
vertex 40.0 40.0 10.0
vertex 40.0 10.0 0.0
vertex 40.0 10.0 10.0
endloop
endfacet
facet normal -1.0 0.0 0.0
outer loop
vertex 40.0 10.0 0.0
vertex 40.0 40.0 10.0
vertex 40.0 40.0 0.0
endloop
endfacet
facet normal 1.0 0.0 0.0
outer loop
vertex 50.0 50.0 0.0
vertex 50.0 0.0 10.0
vertex 50.0 0.0 0.0
endloop
endfacet
facet normal 1.0 0.0 0.0
outer loop
vertex 50.0 0.0 10.0
vertex 50.0 50.0 0.0
vertex 50.0 50.0 10.0
endloop
endfacet
facet normal 0.0 -1.0 0.0
outer loop
vertex 50.0 0.0 10.0
vertex 0.0 0.0 0.0
vertex 50.0 0.0 0.0
endloop
endfacet
facet normal 0.0 -1.0 0.0
outer loop
vertex 0.0 0.0 0.0
vertex 50.0 0.0 10.0
vertex 0.0 0.0 10.0
endloop
endfacet
facet normal 0.0 -1.0 0.0
outer loop
vertex 0.0 0.0 10.0
vertex 50.0 0.0 10.0
vertex 27.8017362088535 0.0 10.0
endloop
endfacet
facet normal 0.0 -1.0 0.0
outer loop
vertex 0.0 0.0 10.0
vertex 27.8017362088535 0.0 10.0
vertex 22.2027361783186 0.0 10.0
endloop
endfacet
facet normal 0.0 -1.0 0.0
outer loop
vertex 22.2027361783186 0.0 10.0
vertex 27.8017362088535 0.0 10.0
vertex 27.8017362088535 -1.88870767134901e-015 15.0
endloop
endfacet
facet normal 0.0 -1.0 0.0
outer loop
vertex 22.2027361783186 0.0 10.0
vertex 27.8017362088535 -1.88870767134901e-015 15.0
vertex 22.2027361783186 -1.88870767134901e-015 15.0
endloop
endfacet
facet normal 0.0 1.0 0.0
outer loop
vertex 0.0 50.0 10.0
vertex 50.0 50.0 0.0
vertex 0.0 50.0 0.0
endloop
endfacet
facet normal 0.0 1.0 0.0
outer loop
vertex 50.0 50.0 0.0
vertex 0.0 50.0 10.0
vertex 50.0 50.0 10.0
endloop
endfacet
facet normal -0.0 -1.0 -0.0
outer loop
vertex 40.0 40.0 10.0
vertex 10.0 40.0 0.0
vertex 40.0 40.0 0.0
endloop
endfacet
facet normal -0.0 -1.0 -0.0
outer loop
vertex 10.0 40.0 0.0
vertex 40.0 40.0 10.0
vertex 10.0 40.0 10.0
endloop
endfacet
facet normal -1.0 0.0 0.0
outer loop
vertex 0.0 50.0 10.0
vertex 0.0 0.0 0.0
vertex 0.0 0.0 10.0
endloop
endfacet
facet normal -1.0 0.0 0.0
outer loop
vertex 0.0 0.0 0.0
vertex 0.0 50.0 10.0
vertex 0.0 50.0 0.0
endloop
endfacet
facet normal 1.0 0.0 0.0
outer loop
vertex 10.0 40.0 0.0
vertex 10.0 10.0 10.0
vertex 10.0 10.0 0.0
endloop
endfacet
facet normal 1.0 0.0 0.0
outer loop
vertex 10.0 10.0 10.0
vertex 10.0 40.0 0.0
vertex 10.0 40.0 10.0
endloop
endfacet
facet normal 0.0 1.0 0.0
outer loop
vertex 10.0 10.0 10.0
vertex 40.0 10.0 0.0
vertex 10.0 10.0 0.0
endloop
endfacet
facet normal 0.0 1.0 0.0
outer loop
vertex 40.0 10.0 0.0
vertex 10.0 10.0 10.0
vertex 40.0 10.0 10.0
endloop
endfacet
endsolid square50-10
