solid 16mmBearing-5mmHole-v2d
facet normal 0.86602540378444 -0.433012701892217 0.249999999999999
outer loop
vertex -25.7427857925749 151.21883401303 9.91955080756888
vertex -26.866665545752 152.369059632215 17.3383715053583
vertex -26.866665545752 148.869059632215 11.2761936788672
endloop
endfacet
facet normal 0.965925826289069 -0.224143868042012 0.12940952255126
outer loop
vertex -26.866665545752 152.369059632215 17.3383715053583
vertex -25.7427857925749 151.21883401303 9.91955080756888
vertex -25.7427857925749 154.71883401303 15.98172863406
endloop
endfacet
facet normal 2.40599967182466e-016 0.86602540378444 -0.499999999999997
outer loop
vertex -16.0 136.604655324167 18.3570508075689
vertex -13.0882857425966 140.436632699692 24.2275614069359
vertex -13.0882857425966 136.936632699692 18.1653835804449
endloop
endfacet
facet normal -0.258819045102523 0.836516303737808 -0.482962913144532
outer loop
vertex -13.0882857425966 140.436632699692 24.2275614069359
vertex -16.0 136.604655324167 18.3570508075689
vertex -16.0 140.104655324167 24.41922863406
endloop
endfacet
facet normal -0.707106781186546 0.612372435695796 -0.353553390593274
outer loop
vertex -8.04504871165134 142.958251215165 22.7717042782343
vertex -6.25721420742506 141.476048220455 15.5445508075689
vertex -8.04504871165134 139.458251215165 16.7095264517432
endloop
endfacet
facet normal -0.86602540378444 0.433012701892217 -0.249999999999999
outer loop
vertex -6.25721420742506 141.476048220455 15.5445508075689
vertex -8.04504871165134 142.958251215165 22.7717042782343
vertex -6.25721420742506 144.976048220455 21.60672863406
endloop
endfacet
facet normal -0.499999999999995 0.750000000000002 -0.433012701892221
outer loop
vertex -10.375 137.909941116742 17.6034437038564
vertex -8.04504871165134 142.958251215165 22.7717042782343
vertex -8.04504871165134 139.458251215165 16.7095264517432
endloop
endfacet
facet normal -0.707106781186546 0.612372435695796 -0.353553390593274
outer loop
vertex -8.04504871165134 142.958251215165 22.7717042782343
vertex -10.375 137.909941116742 17.6034437038564
vertex -10.375 141.409941116742 23.6656215303474
endloop
endfacet
facet normal 0.500000000000004 0.749999999999998 -0.433012701892219
outer loop
vertex -20.0 140.347441116742 16.1961524227066
vertex -18.0705523608202 138.65531068684 14.8637033051563
vertex -20.0 139.347441116742 14.4641016151377
endloop
endfacet
facet normal 0.258819045102527 0.836516303737806 -0.482962913144534
outer loop
vertex -18.0705523608202 138.65531068684 14.8637033051563
vertex -20.0 140.347441116742 16.1961524227066
vertex -18.0705523608202 139.65531068684 16.5957541127252
endloop
endfacet
facet normal 0.866025403784443 -0.433012701892212 0.249999999999998
outer loop
vertex -22.9282032302755 148.81154273188 9.0
vertex -23.7274066103125 148.140592061078 11.6967746271588
vertex -23.7274066103125 147.140592061078 9.96472381958996
endloop
endfacet
facet normal 0.965925826289069 -0.224143868042009 0.129409522551262
outer loop
vertex -23.7274066103125 148.140592061078 11.6967746271588
vertex -22.9282032302755 148.81154273188 9.0
vertex -22.9282032302755 149.81154273188 10.7320508075689
endloop
endfacet
facet normal -3.47533285930227e-016 0.866025403784439 -0.5
outer loop
vertex -16.0 138.419237886467 15.0
vertex -13.9294476391798 139.65531068684 16.5957541127252
vertex -13.9294476391798 138.65531068684 14.8637033051563
endloop
endfacet
facet normal -0.258819045102526 0.836516303737807 -0.482962913144534
outer loop
vertex -13.9294476391798 139.65531068684 16.5957541127252
vertex -16.0 138.419237886467 15.0
vertex -16.0 139.419237886467 16.7320508075689
endloop
endfacet
facet normal 0.965925826289069 0.224143868042012 -0.129409522551257
outer loop
vertex -23.7274066103125 143.554290172406 12.0352761804101
vertex -22.9282032302755 142.883339501605 14.7320508075689
vertex -22.9282032302755 141.883339501605 13.0
endloop
endfacet
facet normal 0.866025403784438 0.433012701892223 -0.249999999999995
outer loop
vertex -22.9282032302755 142.883339501605 14.7320508075689
vertex -23.7274066103125 143.554290172406 12.0352761804101
vertex -23.7274066103125 144.554290172406 13.767326987979
endloop
endfacet
facet normal -0.258819045102523 0.836516303737808 -0.482962913144533
outer loop
vertex -13.0882857425966 136.936632699692 18.1653835804449
vertex -10.375 141.409941116742 23.6656215303474
vertex -10.375 137.909941116742 17.6034437038564
endloop
endfacet
facet normal -0.499999999999996 0.750000000000002 -0.433012701892221
outer loop
vertex -10.375 141.409941116742 23.6656215303474
vertex -13.0882857425966 136.936632699692 18.1653835804449
vertex -13.0882857425966 140.436632699692 24.2275614069359
endloop
endfacet
facet normal 1.0 -6.05955472903991e-016 1.21191094580798e-015
outer loop
vertex -24.0 145.347441116742 11.0
vertex -23.7274066103125 144.554290172406 13.767326987979
vertex -23.7274066103125 143.554290172406 12.0352761804101
endloop
endfacet
facet normal 0.965925826289069 0.224143868042013 -0.129409522551258
outer loop
vertex -23.7274066103125 144.554290172406 13.767326987979
vertex -24.0 145.347441116742 11.0
vertex -24.0 146.347441116742 12.7320508075689
endloop
endfacet
facet normal -0.707106781186546 0.612372435695798 -0.353553390593272
outer loop
vertex -10.3431457505076 141.448461631176 15.5604779323151
vertex -9.07179676972449 141.883339501605 13.0
vertex -10.3431457505076 140.448461631176 13.8284271247462
endloop
endfacet
facet normal -0.866025403784439 0.433012701892221 -0.249999999999995
outer loop
vertex -9.07179676972449 141.883339501605 13.0
vertex -10.3431457505076 141.448461631176 15.5604779323151
vertex -9.07179676972449 142.883339501605 14.7320508075689
endloop
endfacet
facet normal -0.500000000000003 0.749999999999999 -0.433012701892219
outer loop
vertex -12.0 139.347441116742 14.4641016151377
vertex -10.3431457505076 141.448461631176 15.5604779323151
vertex -10.3431457505076 140.448461631176 13.8284271247462
endloop
endfacet
facet normal -0.707106781186546 0.612372435695798 -0.353553390593272
outer loop
vertex -10.3431457505076 141.448461631176 15.5604779323151
vertex -12.0 139.347441116742 14.4641016151377
vertex -12.0 140.347441116742 16.1961524227066
endloop
endfacet
facet normal 0.707106781186546 0.612372435695798 -0.353553390593272
outer loop
vertex -21.6568542494924 141.448461631176 15.5604779323151
vertex -20.0 139.347441116742 14.4641016151377
vertex -21.6568542494924 140.448461631176 13.8284271247462
endloop
endfacet
facet normal 0.500000000000004 0.749999999999998 -0.433012701892219
outer loop
vertex -20.0 139.347441116742 14.4641016151377
vertex -21.6568542494924 141.448461631176 15.5604779323151
vertex -20.0 140.347441116742 16.1961524227066
endloop
endfacet
facet normal 0.707106781186548 -0.612372435695794 0.353553390593273
outer loop
vertex -21.6568542494924 150.246420602309 8.1715728752538
vertex -22.9282032302755 149.81154273188 10.7320508075689
vertex -22.9282032302755 148.81154273188 9.0
endloop
endfacet
facet normal 0.866025403784443 -0.433012701892212 0.249999999999998
outer loop
vertex -22.9282032302755 149.81154273188 10.7320508075689
vertex -21.6568542494924 150.246420602309 8.1715728752538
vertex -21.6568542494924 151.246420602309 9.90362368282267
endloop
endfacet
facet normal -0.25881904510252 -0.836516303737811 0.482962913144529
outer loop
vertex -13.0882857425966 155.758249533793 7.29871803469287
vertex -16.0 159.590226909317 13.16922863406
vertex -16.0 156.090226909317 7.10705080756886
endloop
endfacet
facet normal -2.49511077078114e-016 -0.866025403784442 0.499999999999995
outer loop
vertex -16.0 159.590226909317 13.16922863406
vertex -13.0882857425966 155.758249533793 7.29871803469287
vertex -13.0882857425966 159.258249533793 13.360895861184
endloop
endfacet
facet normal -0.499999999999998 -0.750000000000003 0.433012701892216
outer loop
vertex -10.375 154.784941116742 7.8606579112814
vertex -13.0882857425966 159.258249533793 13.360895861184
vertex -13.0882857425966 155.758249533793 7.29871803469287
endloop
endfacet
facet normal -0.25881904510252 -0.836516303737811 0.482962913144529
outer loop
vertex -13.0882857425966 159.258249533793 13.360895861184
vertex -10.375 154.784941116742 7.8606579112814
vertex -10.375 158.284941116742 13.9228357377725
endloop
endfacet
facet normal 5.07933264051874e-016 -1.0 0.0
outer loop
vertex -16.0 188.4 10.0
vertex -18.0705523608202 188.127406610313 6.0
vertex -16.0 188.4 6.0
endloop
endfacet
facet normal 0.258819045102522 -0.965925826289068 0.0
outer loop
vertex -18.0705523608202 188.127406610313 6.0
vertex -16.0 188.4 10.0
vertex -18.0705523608202 188.127406610313 10.0
endloop
endfacet
facet normal -0.258819045102521 -0.965925826289068 0.0
outer loop
vertex -13.9294476391798 188.127406610313 10.0
vertex -16.0 188.4 6.0
vertex -13.9294476391798 188.127406610313 6.0
endloop
endfacet
facet normal 5.07933264051874e-016 -1.0 0.0
outer loop
vertex -16.0 188.4 6.0
vertex -13.9294476391798 188.127406610313 10.0
vertex -16.0 188.4 10.0
endloop
endfacet
facet normal 0.0 0.0 1.0
outer loop
vertex -18.0705523608202 172.672593389687 6.0
vertex -18.6 180.4 6.0
vertex -20.0 173.471796769724 6.0
endloop
endfacet
facet normal 0.0 0.0 1.0
outer loop
vertex -18.6 180.4 6.0
vertex -18.0705523608202 172.672593389687 6.0
vertex -18.5114071483516 179.727070482733 6.0
endloop
endfacet
facet normal 0.0 0.0 1.0
outer loop
vertex -18.5114071483516 179.727070482733 6.0
vertex -18.0705523608202 172.672593389687 6.0
vertex -18.2516660498395 179.1 6.0
endloop
endfacet
facet normal 0.0 0.0 1.0
outer loop
vertex -18.2516660498395 179.1 6.0
vertex -18.0705523608202 172.672593389687 6.0
vertex -17.838477631085 178.561522368915 6.0
endloop
endfacet
facet normal 0.0 0.0 1.0
outer loop
vertex -17.838477631085 178.561522368915 6.0
vertex -18.0705523608202 172.672593389687 6.0
vertex -16.0 172.4 6.0
endloop
endfacet
facet normal 0.0 0.0 1.0
outer loop
vertex -17.838477631085 178.561522368915 6.0
vertex -16.0 172.4 6.0
vertex -17.3 178.14833395016 6.0
endloop
endfacet
facet normal 0.0 0.0 1.0
outer loop
vertex -17.3 178.14833395016 6.0
vertex -16.0 172.4 6.0
vertex -16.6729295172665 177.888592851648 6.0
endloop
endfacet
facet normal 0.0 0.0 1.0
outer loop
vertex -16.6729295172665 177.888592851648 6.0
vertex -16.0 172.4 6.0
vertex -16.0 177.8 6.0
endloop
endfacet
facet normal 0.0 0.0 1.0
outer loop
vertex -16.0 177.8 6.0
vertex -16.0 172.4 6.0
vertex -13.9294476391798 172.672593389687 6.0
endloop
endfacet
facet normal 0.0 0.0 1.0
outer loop
vertex -16.0 177.8 6.0
vertex -13.9294476391798 172.672593389687 6.0
vertex -15.3270704827334 177.888592851648 6.0
endloop
endfacet
facet normal 0.0 0.0 1.0
outer loop
vertex -15.3270704827334 177.888592851648 6.0
vertex -13.9294476391798 172.672593389687 6.0
vertex -14.7 178.14833395016 6.0
endloop
endfacet
facet normal 0.0 0.0 1.0
outer loop
vertex -14.7 178.14833395016 6.0
vertex -13.9294476391798 172.672593389687 6.0
vertex -14.161522368915 178.561522368915 6.0
endloop
endfacet
facet normal 0.0 0.0 1.0
outer loop
vertex -14.161522368915 178.561522368915 6.0
vertex -13.9294476391798 172.672593389687 6.0
vertex -13.7483339501605 179.1 6.0
endloop
endfacet
facet normal 0.0 0.0 1.0
outer loop
vertex -13.7483339501605 179.1 6.0
vertex -13.9294476391798 172.672593389687 6.0
vertex -12.0 173.471796769724 6.0
endloop
endfacet
facet normal 0.0 0.0 1.0
outer loop
vertex -13.7483339501605 179.1 6.0
vertex -12.0 173.471796769724 6.0
vertex -13.4885928516484 179.727070482733 6.0
endloop
endfacet
facet normal 0.0 0.0 1.0
outer loop
vertex -13.4885928516484 179.727070482733 6.0
vertex -12.0 173.471796769724 6.0
vertex -13.4 180.4 6.0
endloop
endfacet
facet normal 0.0 0.0 1.0
outer loop
vertex -13.4 180.4 6.0
vertex -12.0 173.471796769724 6.0
vertex -12.0 187.328203230275 6.0
endloop
endfacet
facet normal 0.0 0.0 1.0
outer loop
vertex -12.0 187.328203230275 6.0
vertex -12.0 173.471796769724 6.0
vertex -10.3431457505076 186.056854249492 6.0
endloop
endfacet
facet normal 0.0 0.0 1.0
outer loop
vertex -10.3431457505076 186.056854249492 6.0
vertex -12.0 173.471796769724 6.0
vertex -10.3431457505076 174.743145750508 6.0
endloop
endfacet
facet normal 0.0 0.0 1.0
outer loop
vertex -10.3431457505076 186.056854249492 6.0
vertex -10.3431457505076 174.743145750508 6.0
vertex -9.07179676972449 176.4 6.0
endloop
endfacet
facet normal 0.0 0.0 1.0
outer loop
vertex -10.3431457505076 186.056854249492 6.0
vertex -9.07179676972449 176.4 6.0
vertex -9.07179676972449 184.4 6.0
endloop
endfacet
facet normal 0.0 0.0 1.0
outer loop
vertex -9.07179676972449 184.4 6.0
vertex -9.07179676972449 176.4 6.0
vertex -8.27259338968745 178.32944763918 6.0
endloop
endfacet
facet normal 0.0 0.0 1.0
outer loop
vertex -9.07179676972449 184.4 6.0
vertex -8.27259338968745 178.32944763918 6.0
vertex -8.27259338968745 182.47055236082 6.0
endloop
endfacet
facet normal 0.0 0.0 1.0
outer loop
vertex -8.27259338968745 182.47055236082 6.0
vertex -8.27259338968745 178.32944763918 6.0
vertex -8.0 180.4 6.0
endloop
endfacet
facet normal 0.0 0.0 1.0
outer loop
vertex -23.7274066103125 178.32944763918 6.0
vertex -23.7274066103125 182.47055236082 6.0
vertex -24.0 180.4 6.0
endloop
endfacet
facet normal 0.0 0.0 1.0
outer loop
vertex -23.7274066103125 182.47055236082 6.0
vertex -23.7274066103125 178.32944763918 6.0
vertex -22.9282032302755 184.4 6.0
endloop
endfacet
facet normal 0.0 0.0 1.0
outer loop
vertex -22.9282032302755 184.4 6.0
vertex -23.7274066103125 178.32944763918 6.0
vertex -22.9282032302755 176.4 6.0
endloop
endfacet
facet normal 0.0 0.0 1.0
outer loop
vertex -22.9282032302755 184.4 6.0
vertex -22.9282032302755 176.4 6.0
vertex -21.6568542494924 186.056854249492 6.0
endloop
endfacet
facet normal 0.0 0.0 1.0
outer loop
vertex -21.6568542494924 186.056854249492 6.0
vertex -22.9282032302755 176.4 6.0
vertex -21.6568542494924 174.743145750508 6.0
endloop
endfacet
facet normal 0.0 0.0 1.0
outer loop
vertex -21.6568542494924 186.056854249492 6.0
vertex -21.6568542494924 174.743145750508 6.0
vertex -20.0 187.328203230275 6.0
endloop
endfacet
facet normal 0.0 0.0 1.0
outer loop
vertex -20.0 187.328203230275 6.0
vertex -21.6568542494924 174.743145750508 6.0
vertex -20.0 173.471796769724 6.0
endloop
endfacet
facet normal 0.0 0.0 1.0
outer loop
vertex -20.0 187.328203230275 6.0
vertex -20.0 173.471796769724 6.0
vertex -18.0705523608202 188.127406610313 6.0
endloop
endfacet
facet normal 0.0 0.0 1.0
outer loop
vertex -18.0705523608202 188.127406610313 6.0
vertex -20.0 173.471796769724 6.0
vertex -18.6 180.4 6.0
endloop
endfacet
facet normal 0.0 0.0 1.0
outer loop
vertex -18.0705523608202 188.127406610313 6.0
vertex -18.6 180.4 6.0
vertex -18.5114071483516 181.072929517267 6.0
endloop
endfacet
facet normal 0.0 0.0 1.0
outer loop
vertex -18.0705523608202 188.127406610313 6.0
vertex -18.5114071483516 181.072929517267 6.0
vertex -18.2516660498395 181.7 6.0
endloop
endfacet
facet normal 0.0 0.0 1.0
outer loop
vertex -18.0705523608202 188.127406610313 6.0
vertex -18.2516660498395 181.7 6.0
vertex -17.838477631085 182.238477631085 6.0
endloop
endfacet
facet normal 0.0 0.0 1.0
outer loop
vertex -18.0705523608202 188.127406610313 6.0
vertex -17.838477631085 182.238477631085 6.0
vertex -16.0 188.4 6.0
endloop
endfacet
facet normal 0.0 0.0 1.0
outer loop
vertex -16.0 188.4 6.0
vertex -17.838477631085 182.238477631085 6.0
vertex -17.3 182.651666049839 6.0
endloop
endfacet
facet normal 0.0 0.0 1.0
outer loop
vertex -16.0 188.4 6.0
vertex -17.3 182.651666049839 6.0
vertex -16.6729295172666 182.911407148352 6.0
endloop
endfacet
facet normal 0.0 0.0 1.0
outer loop
vertex -16.0 188.4 6.0
vertex -16.6729295172666 182.911407148352 6.0
vertex -16.0 183.0 6.0
endloop
endfacet
facet normal 0.0 0.0 1.0
outer loop
vertex -16.0 188.4 6.0
vertex -16.0 183.0 6.0
vertex -15.3270704827334 182.911407148352 6.0
endloop
endfacet
facet normal 0.0 0.0 1.0
outer loop
vertex -16.0 188.4 6.0
vertex -15.3270704827334 182.911407148352 6.0
vertex -13.9294476391798 188.127406610313 6.0
endloop
endfacet
facet normal 0.0 0.0 1.0
outer loop
vertex -13.9294476391798 188.127406610313 6.0
vertex -15.3270704827334 182.911407148352 6.0
vertex -14.7 182.651666049839 6.0
endloop
endfacet
facet normal 0.0 0.0 1.0
outer loop
vertex -13.9294476391798 188.127406610313 6.0
vertex -14.7 182.651666049839 6.0
vertex -14.161522368915 182.238477631085 6.0
endloop
endfacet
facet normal 0.0 0.0 1.0
outer loop
vertex -13.9294476391798 188.127406610313 6.0
vertex -14.161522368915 182.238477631085 6.0
vertex -13.7483339501605 181.7 6.0
endloop
endfacet
facet normal 0.0 0.0 1.0
outer loop
vertex -13.9294476391798 188.127406610313 6.0
vertex -13.7483339501605 181.7 6.0
vertex -12.0 187.328203230275 6.0
endloop
endfacet
facet normal 0.0 0.0 1.0
outer loop
vertex -12.0 187.328203230275 6.0
vertex -13.7483339501605 181.7 6.0
vertex -13.4885928516484 181.072929517267 6.0
endloop
endfacet
facet normal 0.0 0.0 1.0
outer loop
vertex -12.0 187.328203230275 6.0
vertex -13.4885928516484 181.072929517267 6.0
vertex -13.4 180.4 6.0
endloop
endfacet
facet normal -0.866025403784439 -0.433012701892219 0.249999999999999
outer loop
vertex -6.25721420742506 154.71883401303 15.98172863406
vertex -8.04504871165134 153.23663101832 8.75457516339455
vertex -6.25721420742506 151.21883401303 9.91955080756886
endloop
endfacet
facet normal -0.707106781186546 -0.612372435695797 0.353553390593273
outer loop
vertex -8.04504871165134 153.23663101832 8.75457516339455
vertex -6.25721420742506 154.71883401303 15.98172863406
vertex -8.04504871165134 156.73663101832 14.8167529898856
endloop
endfacet
facet normal -0.965925826289068 -0.224143868042012 0.129409522551263
outer loop
vertex -8.27259338968745 148.140592061078 11.6967746271588
vertex -9.07179676972449 148.81154273188 9.0
vertex -8.27259338968745 147.140592061078 9.96472381958996
endloop
endfacet
facet normal -0.866025403784442 -0.433012701892214 0.249999999999999
outer loop
vertex -9.07179676972449 148.81154273188 9.0
vertex -8.27259338968745 148.140592061078 11.6967746271588
vertex -9.07179676972449 149.81154273188 10.7320508075689
endloop
endfacet
facet normal -0.965925826289069 -0.224143868042012 0.12940952255126
outer loop
vertex -5.13333445424799 152.369059632215 17.3383715053583
vertex -6.25721420742506 151.21883401303 9.91955080756886
vertex -5.13333445424799 148.869059632215 11.2761936788672
endloop
endfacet
facet normal -0.866025403784439 -0.43301270189222 0.249999999999999
outer loop
vertex -6.25721420742506 151.21883401303 9.91955080756886
vertex -5.13333445424799 152.369059632215 17.3383715053583
vertex -6.25721420742506 154.71883401303 15.98172863406
endloop
endfacet
facet normal -1.0 -2.40599967182466e-016 3.7426661561717e-016
outer loop
vertex -4.75 149.847441116742 18.7942286340599
vertex -5.13333445424799 148.869059632215 11.2761936788672
vertex -4.75 146.347441116742 12.7320508075689
endloop
endfacet
facet normal -0.965925826289069 -0.224143868042011 0.129409522551259
outer loop
vertex -5.13333445424799 148.869059632215 11.2761936788672
vertex -4.75 149.847441116742 18.7942286340599
vertex -5.13333445424799 152.369059632215 17.3383715053583
endloop
endfacet
facet normal -0.707106781186546 -0.612372435695797 0.353553390593273
outer loop
vertex -8.04504871165134 153.23663101832 8.75457516339455
vertex -10.375 158.284941116742 13.9228357377725
vertex -10.375 154.784941116742 7.8606579112814
endloop
endfacet
facet normal -0.499999999999998 -0.750000000000003 0.433012701892216
outer loop
vertex -10.375 158.284941116742 13.9228357377725
vertex -8.04504871165134 153.23663101832 8.75457516339455
vertex -8.04504871165134 156.73663101832 14.8167529898856
endloop
endfacet
facet normal 0.965925826289069 -0.224143868042012 0.12940952255126
outer loop
vertex -26.866665545752 148.869059632215 11.2761936788672
vertex -27.25 149.847441116742 18.7942286340599
vertex -27.25 146.347441116742 12.7320508075689
endloop
endfacet
facet normal 1.0 9.00022099460338e-016 -5.21299928895344e-016
outer loop
vertex -27.25 149.847441116742 18.7942286340599
vertex -26.866665545752 148.869059632215 11.2761936788672
vertex -26.866665545752 152.369059632215 17.3383715053583
endloop
endfacet
facet normal 0.499999999999995 -0.750000000000003 0.433012701892221
outer loop
vertex -20.0 152.347441116742 9.26794919243112
vertex -21.6568542494924 150.246420602309 8.1715728752538
vertex -20.0 151.347441116742 7.53589838486224
endloop
endfacet
facet normal 0.707106781186548 -0.612372435695794 0.353553390593273
outer loop
vertex -21.6568542494924 150.246420602309 8.1715728752538
vertex -20.0 152.347441116742 9.26794919243112
vertex -21.6568542494924 151.246420602309 9.90362368282267
endloop
endfacet
facet normal 0.96592582628907 -0.224143868042007 0.12940952255126
outer loop
vertex -23.7274066103125 147.140592061078 9.96472381958996
vertex -24.0 146.347441116742 12.7320508075689
vertex -24.0 145.347441116742 11.0
endloop
endfacet
facet normal 1.0 -1.84459974839892e-015 1.92479973745974e-015
outer loop
vertex -24.0 146.347441116742 12.7320508075689
vertex -23.7274066103125 147.140592061078 9.96472381958996
vertex -23.7274066103125 148.140592061078 11.6967746271588
endloop
endfacet
facet normal -1.78222197912939e-016 -0.866025403784433 0.50000000000001
outer loop
vertex -16.0 153.275644347018 8.73205080756886
vertex -18.0705523608202 152.039571546645 7.13629669484373
vertex -16.0 152.275644347018 7.00000000000001
endloop
endfacet
facet normal 0.258819045102522 -0.836516303737805 0.482962913144539
outer loop
vertex -18.0705523608202 152.039571546645 7.13629669484373
vertex -16.0 153.275644347018 8.73205080756886
vertex -18.0705523608202 153.039571546645 8.86834750241261
endloop
endfacet
facet normal -0.86602540378444 0.433012701892217 -0.249999999999999
outer loop
vertex -6.25721420742506 144.976048220455 21.60672863406
vertex -5.13333445424799 143.82582260127 14.1879079362706
vertex -6.25721420742506 141.476048220455 15.5445508075689
endloop
endfacet
facet normal -0.965925826289069 0.224143868042011 -0.129409522551259
outer loop
vertex -5.13333445424799 143.82582260127 14.1879079362706
vertex -6.25721420742506 144.976048220455 21.60672863406
vertex -5.13333445424799 147.32582260127 20.2500857627616
endloop
endfacet
facet normal -0.258819045102526 0.836516303737807 -0.482962913144534
outer loop
vertex -13.9294476391798 138.65531068684 14.8637033051563
vertex -12.0 140.347441116742 16.1961524227066
vertex -12.0 139.347441116742 14.4641016151377
endloop
endfacet
facet normal -0.500000000000003 0.749999999999999 -0.433012701892219
outer loop
vertex -12.0 140.347441116742 16.1961524227066
vertex -13.9294476391798 138.65531068684 14.8637033051563
vertex -13.9294476391798 139.65531068684 16.5957541127252
endloop
endfacet
facet normal -3.10768591360084e-032 0.5 0.866025403784439
outer loop
vertex -23.9549512883487 139.458251215165 16.7095264517432
vertex -24.0 146.347441116742 12.7320508075689
vertex -25.7427857925749 141.476048220455 15.5445508075689
endloop
endfacet
facet normal -3.10768591360084e-032 0.5 0.866025403784439
outer loop
vertex -24.0 146.347441116742 12.7320508075689
vertex -23.9549512883487 139.458251215165 16.7095264517432
vertex -23.7274066103125 144.554290172406 13.767326987979
endloop
endfacet
facet normal -3.10768591360084e-032 0.5 0.866025403784439
outer loop
vertex -23.7274066103125 144.554290172406 13.767326987979
vertex -23.9549512883487 139.458251215165 16.7095264517432
vertex -21.625 137.909941116742 17.6034437038564
endloop
endfacet
facet normal -3.10768591360084e-032 0.5 0.866025403784439
outer loop
vertex -23.7274066103125 144.554290172406 13.767326987979
vertex -21.625 137.909941116742 17.6034437038564
vertex -22.9282032302755 142.883339501605 14.7320508075689
endloop
endfacet
facet normal -3.10768591360084e-032 0.5 0.866025403784439
outer loop
vertex -22.9282032302755 142.883339501605 14.7320508075689
vertex -21.625 137.909941116742 17.6034437038564
vertex -21.6568542494924 141.448461631176 15.5604779323151
endloop
endfacet
facet normal -3.10768591360084e-032 0.5 0.866025403784439
outer loop
vertex -21.6568542494924 141.448461631176 15.5604779323151
vertex -21.625 137.909941116742 17.6034437038564
vertex -20.0 140.347441116742 16.1961524227066
endloop
endfacet
facet normal -3.10768591360084e-032 0.5 0.866025403784439
outer loop
vertex -20.0 140.347441116742 16.1961524227066
vertex -21.625 137.909941116742 17.6034437038564
vertex -18.9117142574034 136.936632699692 18.1653835804449
endloop
endfacet
facet normal -3.10768591360084e-032 0.5 0.866025403784439
outer loop
vertex -20.0 140.347441116742 16.1961524227066
vertex -18.9117142574034 136.936632699692 18.1653835804449
vertex -18.0705523608202 139.65531068684 16.5957541127252
endloop
endfacet
facet normal -3.10768591360084e-032 0.5 0.866025403784439
outer loop
vertex -18.0705523608202 139.65531068684 16.5957541127252
vertex -18.9117142574034 136.936632699692 18.1653835804449
vertex -16.0 136.604655324167 18.3570508075689
endloop
endfacet
facet normal -3.10768591360084e-032 0.5 0.866025403784439
outer loop
vertex -18.0705523608202 139.65531068684 16.5957541127252
vertex -16.0 136.604655324167 18.3570508075689
vertex -16.0 139.419237886467 16.7320508075689
endloop
endfacet
facet normal -3.10768591360084e-032 0.5 0.866025403784439
outer loop
vertex -16.0 139.419237886467 16.7320508075689
vertex -16.0 136.604655324167 18.3570508075689
vertex -13.0882857425966 136.936632699692 18.1653835804449
endloop
endfacet
facet normal -3.10768591360084e-032 0.5 0.866025403784439
outer loop
vertex -16.0 139.419237886467 16.7320508075689
vertex -13.0882857425966 136.936632699692 18.1653835804449
vertex -13.9294476391798 139.65531068684 16.5957541127252
endloop
endfacet
facet normal -3.10768591360084e-032 0.5 0.866025403784439
outer loop
vertex -13.9294476391798 139.65531068684 16.5957541127252
vertex -13.0882857425966 136.936632699692 18.1653835804449
vertex -12.0 140.347441116742 16.1961524227066
endloop
endfacet
facet normal -3.10768591360084e-032 0.5 0.866025403784439
outer loop
vertex -12.0 140.347441116742 16.1961524227066
vertex -13.0882857425966 136.936632699692 18.1653835804449
vertex -10.375 137.909941116742 17.6034437038564
endloop
endfacet
facet normal -3.10768591360084e-032 0.5 0.866025403784439
outer loop
vertex -12.0 140.347441116742 16.1961524227066
vertex -10.375 137.909941116742 17.6034437038564
vertex -10.3431457505076 141.448461631176 15.5604779323151
endloop
endfacet
facet normal -3.10768591360084e-032 0.5 0.866025403784439
outer loop
vertex -10.3431457505076 141.448461631176 15.5604779323151
vertex -10.375 137.909941116742 17.6034437038564
vertex -8.04504871165134 139.458251215165 16.7095264517432
endloop
endfacet
facet normal -3.10768591360084e-032 0.5 0.866025403784439
outer loop
vertex -10.3431457505076 141.448461631176 15.5604779323151
vertex -8.04504871165134 139.458251215165 16.7095264517432
vertex -9.07179676972449 142.883339501605 14.7320508075689
endloop
endfacet
facet normal -3.10768591360084e-032 0.5 0.866025403784439
outer loop
vertex -9.07179676972449 142.883339501605 14.7320508075689
vertex -8.04504871165134 139.458251215165 16.7095264517432
vertex -8.27259338968745 144.554290172406 13.767326987979
endloop
endfacet
facet normal -3.10768591360084e-032 0.5 0.866025403784439
outer loop
vertex -8.27259338968745 144.554290172406 13.767326987979
vertex -8.04504871165134 139.458251215165 16.7095264517432
vertex -8.0 146.347441116742 12.7320508075689
endloop
endfacet
facet normal -3.10768591360084e-032 0.5 0.866025403784439
outer loop
vertex -8.0 146.347441116742 12.7320508075689
vertex -8.04504871165134 139.458251215165 16.7095264517432
vertex -6.25721420742506 141.476048220455 15.5445508075689
endloop
endfacet
facet normal -3.10768591360084e-032 0.5 0.866025403784439
outer loop
vertex -26.866665545752 143.82582260127 14.1879079362706
vertex -26.866665545752 148.869059632215 11.2761936788672
vertex -27.25 146.347441116742 12.7320508075689
endloop
endfacet
facet normal -3.10768591360084e-032 0.5 0.866025403784439
outer loop
vertex -26.866665545752 148.869059632215 11.2761936788672
vertex -26.866665545752 143.82582260127 14.1879079362706
vertex -25.7427857925749 151.21883401303 9.91955080756888
endloop
endfacet
facet normal -3.10768591360084e-032 0.5 0.866025403784439
outer loop
vertex -25.7427857925749 151.21883401303 9.91955080756888
vertex -26.866665545752 143.82582260127 14.1879079362706
vertex -25.7427857925749 141.476048220455 15.5445508075689
endloop
endfacet
facet normal -3.10768591360084e-032 0.5 0.866025403784439
outer loop
vertex -25.7427857925749 151.21883401303 9.91955080756888
vertex -25.7427857925749 141.476048220455 15.5445508075689
vertex -23.9549512883487 153.23663101832 8.75457516339455
endloop
endfacet
facet normal -3.10768591360084e-032 0.5 0.866025403784439
outer loop
vertex -23.9549512883487 153.23663101832 8.75457516339455
vertex -25.7427857925749 141.476048220455 15.5445508075689
vertex -24.0 146.347441116742 12.7320508075689
endloop
endfacet
facet normal -3.10768591360084e-032 0.5 0.866025403784439
outer loop
vertex -23.9549512883487 153.23663101832 8.75457516339455
vertex -24.0 146.347441116742 12.7320508075689
vertex -23.7274066103125 148.140592061078 11.6967746271588
endloop
endfacet
facet normal -3.10768591360084e-032 0.5 0.866025403784439
outer loop
vertex -23.9549512883487 153.23663101832 8.75457516339455
vertex -23.7274066103125 148.140592061078 11.6967746271588
vertex -21.625 154.784941116742 7.8606579112814
endloop
endfacet
facet normal -3.10768591360084e-032 0.5 0.866025403784439
outer loop
vertex -21.625 154.784941116742 7.8606579112814
vertex -23.7274066103125 148.140592061078 11.6967746271588
vertex -22.9282032302755 149.81154273188 10.7320508075689
endloop
endfacet
facet normal -3.10768591360084e-032 0.5 0.866025403784439
outer loop
vertex -21.625 154.784941116742 7.8606579112814
vertex -22.9282032302755 149.81154273188 10.7320508075689
vertex -21.6568542494924 151.246420602309 9.90362368282267
endloop
endfacet
facet normal -3.10768591360084e-032 0.5 0.866025403784439
outer loop
vertex -21.625 154.784941116742 7.8606579112814
vertex -21.6568542494924 151.246420602309 9.90362368282267
vertex -20.0 152.347441116742 9.26794919243112
endloop
endfacet
facet normal -3.10768591360084e-032 0.5 0.866025403784439
outer loop
vertex -21.625 154.784941116742 7.8606579112814
vertex -20.0 152.347441116742 9.26794919243112
vertex -18.9117142574034 155.758249533793 7.29871803469287
endloop
endfacet
facet normal -3.10768591360084e-032 0.5 0.866025403784439
outer loop
vertex -18.9117142574034 155.758249533793 7.29871803469287
vertex -20.0 152.347441116742 9.26794919243112
vertex -18.0705523608202 153.039571546645 8.86834750241261
endloop
endfacet
facet normal -3.10768591360084e-032 0.5 0.866025403784439
outer loop
vertex -18.9117142574034 155.758249533793 7.29871803469287
vertex -18.0705523608202 153.039571546645 8.86834750241261
vertex -16.0 156.090226909317 7.10705080756886
endloop
endfacet
facet normal -3.10768591360084e-032 0.5 0.866025403784439
outer loop
vertex -16.0 156.090226909317 7.10705080756886
vertex -18.0705523608202 153.039571546645 8.86834750241261
vertex -16.0 153.275644347018 8.73205080756886
endloop
endfacet
facet normal -3.10768591360084e-032 0.5 0.866025403784439
outer loop
vertex -16.0 156.090226909317 7.10705080756886
vertex -16.0 153.275644347018 8.73205080756886
vertex -13.9294476391798 153.039571546645 8.86834750241262
endloop
endfacet
facet normal -3.10768591360084e-032 0.5 0.866025403784439
outer loop
vertex -16.0 156.090226909317 7.10705080756886
vertex -13.9294476391798 153.039571546645 8.86834750241262
vertex -13.0882857425966 155.758249533793 7.29871803469287
endloop
endfacet
facet normal -3.10768591360084e-032 0.5 0.866025403784439
outer loop
vertex -13.0882857425966 155.758249533793 7.29871803469287
vertex -13.9294476391798 153.039571546645 8.86834750241262
vertex -12.0 152.347441116742 9.26794919243112
endloop
endfacet
facet normal -3.10768591360084e-032 0.5 0.866025403784439
outer loop
vertex -13.0882857425966 155.758249533793 7.29871803469287
vertex -12.0 152.347441116742 9.26794919243112
vertex -10.375 154.784941116742 7.8606579112814
endloop
endfacet
facet normal -3.10768591360084e-032 0.5 0.866025403784439
outer loop
vertex -10.375 154.784941116742 7.8606579112814
vertex -12.0 152.347441116742 9.26794919243112
vertex -10.3431457505076 151.246420602309 9.90362368282267
endloop
endfacet
facet normal -3.10768591360084e-032 0.5 0.866025403784439
outer loop
vertex -10.375 154.784941116742 7.8606579112814
vertex -10.3431457505076 151.246420602309 9.90362368282267
vertex -8.04504871165134 153.23663101832 8.75457516339455
endloop
endfacet
facet normal -3.10768591360084e-032 0.5 0.866025403784439
outer loop
vertex -8.04504871165134 153.23663101832 8.75457516339455
vertex -10.3431457505076 151.246420602309 9.90362368282267
vertex -9.07179676972449 149.81154273188 10.7320508075689
endloop
endfacet
facet normal -3.10768591360084e-032 0.5 0.866025403784439
outer loop
vertex -8.04504871165134 153.23663101832 8.75457516339455
vertex -9.07179676972449 149.81154273188 10.7320508075689
vertex -8.27259338968745 148.140592061078 11.6967746271588
endloop
endfacet
facet normal -3.10768591360084e-032 0.5 0.866025403784439
outer loop
vertex -8.04504871165134 153.23663101832 8.75457516339455
vertex -8.27259338968745 148.140592061078 11.6967746271588
vertex -8.0 146.347441116742 12.7320508075689
endloop
endfacet
facet normal -3.10768591360084e-032 0.5 0.866025403784439
outer loop
vertex -8.04504871165134 153.23663101832 8.75457516339455
vertex -8.0 146.347441116742 12.7320508075689
vertex -6.25721420742506 151.21883401303 9.91955080756886
endloop
endfacet
facet normal -3.10768591360084e-032 0.5 0.866025403784439
outer loop
vertex -6.25721420742506 151.21883401303 9.91955080756886
vertex -8.0 146.347441116742 12.7320508075689
vertex -6.25721420742506 141.476048220455 15.5445508075689
endloop
endfacet
facet normal -3.10768591360084e-032 0.5 0.866025403784439
outer loop
vertex -6.25721420742506 151.21883401303 9.91955080756886
vertex -6.25721420742506 141.476048220455 15.5445508075689
vertex -5.13333445424799 143.82582260127 14.1879079362706
endloop
endfacet
facet normal -3.10768591360084e-032 0.5 0.866025403784439
outer loop
vertex -6.25721420742506 151.21883401303 9.91955080756886
vertex -5.13333445424799 143.82582260127 14.1879079362706
vertex -5.13333445424799 148.869059632215 11.2761936788672
endloop
endfacet
facet normal -3.10768591360084e-032 0.5 0.866025403784439
outer loop
vertex -5.13333445424799 148.869059632215 11.2761936788672
vertex -5.13333445424799 143.82582260127 14.1879079362706
vertex -4.75 146.347441116742 12.7320508075689
endloop
endfacet
facet normal -2.49511077078114e-016 -0.866025403784442 0.499999999999995
outer loop
vertex -16.0 159.590226909317 13.16922863406
vertex -18.9117142574034 155.758249533793 7.29871803469287
vertex -16.0 156.090226909317 7.10705080756886
endloop
endfacet
facet normal 0.25881904510252 -0.836516303737811 0.482962913144529
outer loop
vertex -18.9117142574034 155.758249533793 7.29871803469287
vertex -16.0 159.590226909317 13.16922863406
vertex -18.9117142574034 159.258249533793 13.360895861184
endloop
endfacet
facet normal 0.965925826289069 0.224143868042012 -0.129409522551259
outer loop
vertex -26.866665545752 143.82582260127 14.1879079362706
vertex -25.7427857925749 144.976048220455 21.60672863406
vertex -25.7427857925749 141.476048220455 15.5445508075689
endloop
endfacet
facet normal 0.866025403784439 0.433012701892219 -0.249999999999998
outer loop
vertex -25.7427857925749 144.976048220455 21.60672863406
vertex -26.866665545752 143.82582260127 14.1879079362706
vertex -26.866665545752 147.32582260127 20.2500857627616
endloop
endfacet
facet normal 0.258819045102526 0.836516303737807 -0.482962913144534
outer loop
vertex -18.0705523608202 139.65531068684 16.5957541127252
vertex -16.0 138.419237886467 15.0
vertex -18.0705523608202 138.65531068684 14.8637033051563
endloop
endfacet
facet normal -3.47533285930227e-016 0.866025403784439 -0.5
outer loop
vertex -16.0 138.419237886467 15.0
vertex -18.0705523608202 139.65531068684 16.5957541127252
vertex -16.0 139.419237886467 16.7320508075689
endloop
endfacet
facet normal -0.965925826289069 0.224143868042011 -0.129409522551259
outer loop
vertex -5.13333445424799 147.32582260127 20.2500857627616
vertex -4.75 146.347441116742 12.7320508075689
vertex -5.13333445424799 143.82582260127 14.1879079362706
endloop
endfacet
facet normal -1.0 -5.52488813530107e-016 5.61399923425754e-016
outer loop
vertex -4.75 146.347441116742 12.7320508075689
vertex -5.13333445424799 147.32582260127 20.2500857627616
vertex -4.75 149.847441116742 18.7942286340599
endloop
endfacet
facet normal 0.25881904510252 -0.836516303737811 0.482962913144529
outer loop
vertex -18.9117142574034 159.258249533793 13.360895861184
vertex -21.625 154.784941116742 7.8606579112814
vertex -18.9117142574034 155.758249533793 7.29871803469287
endloop
endfacet
facet normal 0.499999999999999 -0.750000000000003 0.433012701892216
outer loop
vertex -21.625 154.784941116742 7.8606579112814
vertex -18.9117142574034 159.258249533793 13.360895861184
vertex -21.625 158.284941116742 13.9228357377725
endloop
endfacet
facet normal -1.0 -1.84459974839892e-015 1.92479973745974e-015
outer loop
vertex -8.0 146.347441116742 12.7320508075689
vertex -8.27259338968745 147.140592061078 9.96472381958996
vertex -8.0 145.347441116742 11.0
endloop
endfacet
facet normal -0.965925826289069 -0.224143868042009 0.129409522551262
outer loop
vertex -8.27259338968745 147.140592061078 9.96472381958996
vertex -8.0 146.347441116742 12.7320508075689
vertex -8.27259338968745 148.140592061078 11.6967746271588
endloop
endfacet
facet normal -0.965925826289068 0.224143868042015 -0.129409522551259
outer loop
vertex -8.27259338968745 144.554290172406 13.767326987979
vertex -8.0 145.347441116742 11.0
vertex -8.27259338968745 143.554290172406 12.0352761804101
endloop
endfacet
facet normal -1.0 -6.05955472903991e-016 1.21191094580798e-015
outer loop
vertex -8.0 145.347441116742 11.0
vertex -8.27259338968745 144.554290172406 13.767326987979
vertex -8.0 146.347441116742 12.7320508075689
endloop
endfacet
facet normal 0.258819045102523 0.836516303737808 -0.482962913144532
outer loop
vertex -18.9117142574034 140.436632699692 24.2275614069359
vertex -16.0 136.604655324167 18.3570508075689
vertex -18.9117142574034 136.936632699692 18.1653835804449
endloop
endfacet
facet normal 2.40599967182466e-016 0.86602540378444 -0.499999999999997
outer loop
vertex -16.0 136.604655324167 18.3570508075689
vertex -18.9117142574034 140.436632699692 24.2275614069359
vertex -16.0 140.104655324167 24.41922863406
endloop
endfacet
facet normal 0.499999999999999 -0.750000000000003 0.433012701892216
outer loop
vertex -21.625 158.284941116742 13.9228357377725
vertex -23.9549512883487 153.23663101832 8.75457516339455
vertex -21.625 154.784941116742 7.8606579112814
endloop
endfacet
facet normal 0.70710678118655 -0.612372435695793 0.353553390593272
outer loop
vertex -23.9549512883487 153.23663101832 8.75457516339455
vertex -21.625 158.284941116742 13.9228357377725
vertex -23.9549512883487 156.73663101832 14.8167529898856
endloop
endfacet
facet normal 0.707106781186549 -0.707106781186546 0.0
outer loop
vertex -17.838477631085 182.238477631085 0.0
vertex -18.2516660498395 181.7 6.0
vertex -18.2516660498395 181.7 0.0
endloop
endfacet
facet normal 0.866025403784439 -0.5 0.0
outer loop
vertex -18.2516660498395 181.7 6.0
vertex -17.838477631085 182.238477631085 0.0
vertex -17.838477631085 182.238477631085 6.0
endloop
endfacet
facet normal 0.0 1.0 0.0
outer loop
vertex -32.0 196.4 10.0
vertex 0.0 196.4 0.0
vertex -32.0 196.4 0.0
endloop
endfacet
facet normal 0.0 1.0 0.0
outer loop
vertex 0.0 196.4 0.0
vertex -32.0 196.4 10.0
vertex 0.0 196.4 10.0
endloop
endfacet
facet normal -0.866025403784439 0.5 0.0
outer loop
vertex -9.07179676972449 176.4 10.0
vertex -10.3431457505076 174.743145750508 6.0
vertex -10.3431457505076 174.743145750508 10.0
endloop
endfacet
facet normal -0.707106781186548 0.707106781186547 0.0
outer loop
vertex -10.3431457505076 174.743145750508 6.0
vertex -9.07179676972449 176.4 10.0
vertex -9.07179676972449 176.4 6.0
endloop
endfacet
facet normal 0.500000000000001 -0.866025403784438 0.0
outer loop
vertex -17.3 182.651666049839 6.0
vertex -17.838477631085 182.238477631085 0.0
vertex -17.3 182.651666049839 0.0
endloop
endfacet
facet normal 0.707106781186549 -0.707106781186546 0.0
outer loop
vertex -17.838477631085 182.238477631085 0.0
vertex -17.3 182.651666049839 6.0
vertex -17.838477631085 182.238477631085 6.0
endloop
endfacet
facet normal 0.500000000000001 0.866025403784438 0.0
outer loop
vertex -17.3 178.14833395016 6.0
vertex -16.6729295172665 177.888592851648 0.0
vertex -17.3 178.14833395016 0.0
endloop
endfacet
facet normal 0.258819045102521 0.965925826289068 0.0
outer loop
vertex -16.6729295172665 177.888592851648 0.0
vertex -17.3 178.14833395016 6.0
vertex -16.6729295172665 177.888592851648 6.0
endloop
endfacet
facet normal 0.866025403784439 -0.5 0.0
outer loop
vertex -18.2516660498395 181.7 0.0
vertex -18.5114071483516 181.072929517267 6.0
vertex -18.5114071483516 181.072929517267 0.0
endloop
endfacet
facet normal 0.965925826289068 -0.258819045102521 0.0
outer loop
vertex -18.5114071483516 181.072929517267 6.0
vertex -18.2516660498395 181.7 0.0
vertex -18.2516660498395 181.7 6.0
endloop
endfacet
facet normal 0.965925826289068 -0.258819045102521 0.0
outer loop
vertex -18.5114071483516 181.072929517267 0.0
vertex -18.6 180.4 6.0
vertex -18.6 180.4 0.0
endloop
endfacet
facet normal 1.0 -5.43577703634461e-016 0.0
outer loop
vertex -18.6 180.4 6.0
vertex -18.5114071483516 181.072929517267 0.0
vertex -18.5114071483516 181.072929517267 6.0
endloop
endfacet
facet normal 1.0 -5.43577703634461e-016 0.0
outer loop
vertex -18.6 180.4 0.0
vertex -18.5114071483516 179.727070482733 6.0
vertex -18.5114071483516 179.727070482733 0.0
endloop
endfacet
facet normal 0.965925826289068 0.258819045102522 0.0
outer loop
vertex -18.5114071483516 179.727070482733 6.0
vertex -18.6 180.4 0.0
vertex -18.6 180.4 6.0
endloop
endfacet
facet normal 0.965925826289068 0.258819045102522 0.0
outer loop
vertex -18.5114071483516 179.727070482733 0.0
vertex -18.2516660498395 179.1 6.0
vertex -18.2516660498395 179.1 0.0
endloop
endfacet
facet normal 0.866025403784437 0.500000000000002 0.0
outer loop
vertex -18.2516660498395 179.1 6.0
vertex -18.5114071483516 179.727070482733 0.0
vertex -18.5114071483516 179.727070482733 6.0
endloop
endfacet
facet normal 1.0 5.4357770363446e-016 -3.11888846347641e-016
outer loop
vertex -27.25 146.347441116742 12.7320508075689
vertex -26.866665545752 147.32582260127 20.2500857627616
vertex -26.866665545752 143.82582260127 14.1879079362706
endloop
endfacet
facet normal 0.965925826289069 0.224143868042012 -0.129409522551259
outer loop
vertex -26.866665545752 147.32582260127 20.2500857627616
vertex -27.25 146.347441116742 12.7320508075689
vertex -27.25 149.847441116742 18.7942286340599
endloop
endfacet
facet normal 0.707106781186546 0.612372435695796 -0.353553390593274
outer loop
vertex -23.9549512883487 142.958251215165 22.7717042782343
vertex -21.625 137.909941116742 17.6034437038564
vertex -23.9549512883487 139.458251215165 16.7095264517432
endloop
endfacet
facet normal 0.499999999999995 0.750000000000002 -0.433012701892221
outer loop
vertex -21.625 137.909941116742 17.6034437038564
vertex -23.9549512883487 142.958251215165 22.7717042782343
vertex -21.625 141.409941116742 23.6656215303474
endloop
endfacet
facet normal -0.866025403784442 -0.433012701892214 0.249999999999999
outer loop
vertex -9.07179676972449 149.81154273188 10.7320508075689
vertex -10.3431457505076 150.246420602309 8.1715728752538
vertex -9.07179676972449 148.81154273188 9.0
endloop
endfacet
facet normal -0.707106781186548 -0.612372435695794 0.353553390593273
outer loop
vertex -10.3431457505076 150.246420602309 8.1715728752538
vertex -9.07179676972449 149.81154273188 10.7320508075689
vertex -10.3431457505076 151.246420602309 9.90362368282267
endloop
endfacet
facet normal -0.707106781186548 -0.612372435695794 0.353553390593273
outer loop
vertex -10.3431457505076 150.246420602309 8.1715728752538
vertex -12.0 152.347441116742 9.26794919243112
vertex -12.0 151.347441116742 7.53589838486224
endloop
endfacet
facet normal -0.499999999999995 -0.750000000000003 0.433012701892221
outer loop
vertex -12.0 152.347441116742 9.26794919243112
vertex -10.3431457505076 150.246420602309 8.1715728752538
vertex -10.3431457505076 151.246420602309 9.90362368282267
endloop
endfacet
facet normal -0.499999999999995 -0.750000000000002 0.433012701892221
outer loop
vertex -12.0 151.347441116742 7.53589838486224
vertex -13.9294476391798 153.039571546645 8.86834750241262
vertex -13.9294476391798 152.039571546645 7.13629669484374
endloop
endfacet
facet normal -0.258819045102522 -0.836516303737805 0.482962913144539
outer loop
vertex -13.9294476391798 153.039571546645 8.86834750241262
vertex -12.0 151.347441116742 7.53589838486224
vertex -12.0 152.347441116742 9.26794919243112
endloop
endfacet
facet normal -0.258819045102522 -0.836516303737805 0.482962913144539
outer loop
vertex -13.9294476391798 152.039571546645 7.13629669484374
vertex -16.0 153.275644347018 8.73205080756886
vertex -16.0 152.275644347018 7.00000000000001
endloop
endfacet
facet normal -1.78222197912939e-016 -0.866025403784433 0.50000000000001
outer loop
vertex -16.0 153.275644347018 8.73205080756886
vertex -13.9294476391798 152.039571546645 7.13629669484374
vertex -13.9294476391798 153.039571546645 8.86834750241262
endloop
endfacet
facet normal 0.0 0.0 -1.0
outer loop
vertex -32.0 196.4 0.0
vertex -17.838477631085 182.238477631085 0.0
vertex -32.0 164.4 0.0
endloop
endfacet
facet normal 0.0 0.0 -1.0
outer loop
vertex -17.838477631085 182.238477631085 0.0
vertex -32.0 196.4 0.0
vertex 0.0 196.4 0.0
endloop
endfacet
facet normal 0.0 0.0 -1.0
outer loop
vertex -32.0 164.4 0.0
vertex -17.838477631085 182.238477631085 0.0
vertex -18.2516660498395 181.7 0.0
endloop
endfacet
facet normal 0.0 0.0 -1.0
outer loop
vertex -32.0 164.4 0.0
vertex -18.2516660498395 181.7 0.0
vertex -18.5114071483516 181.072929517267 0.0
endloop
endfacet
facet normal 0.0 0.0 -1.0
outer loop
vertex -32.0 164.4 0.0
vertex -18.5114071483516 181.072929517267 0.0
vertex -18.6 180.4 0.0
endloop
endfacet
facet normal 0.0 0.0 -1.0
outer loop
vertex -17.838477631085 182.238477631085 0.0
vertex 0.0 196.4 0.0
vertex -17.3 182.651666049839 0.0
endloop
endfacet
facet normal 0.0 0.0 -1.0
outer loop
vertex -17.3 182.651666049839 0.0
vertex 0.0 196.4 0.0
vertex -16.6729295172666 182.911407148352 0.0
endloop
endfacet
facet normal 0.0 0.0 -1.0
outer loop
vertex -16.6729295172666 182.911407148352 0.0
vertex 0.0 196.4 0.0
vertex -16.0 183.0 0.0
endloop
endfacet
facet normal 0.0 0.0 -1.0
outer loop
vertex -16.0 183.0 0.0
vertex 0.0 196.4 0.0
vertex -15.3270704827334 182.911407148352 0.0
endloop
endfacet
facet normal 0.0 0.0 -1.0
outer loop
vertex -15.3270704827334 182.911407148352 0.0
vertex 0.0 196.4 0.0
vertex -14.7 182.651666049839 0.0
endloop
endfacet
facet normal 0.0 0.0 -1.0
outer loop
vertex -14.7 182.651666049839 0.0
vertex 0.0 196.4 0.0
vertex -14.161522368915 182.238477631085 0.0
endloop
endfacet
facet normal 0.0 0.0 -1.0
outer loop
vertex -14.161522368915 182.238477631085 0.0
vertex 0.0 196.4 0.0
vertex -13.7483339501605 181.7 0.0
endloop
endfacet
facet normal 0.0 0.0 -1.0
outer loop
vertex -13.7483339501605 181.7 0.0
vertex 0.0 196.4 0.0
vertex -13.4885928516484 181.072929517267 0.0
endloop
endfacet
facet normal 0.0 0.0 -1.0
outer loop
vertex -13.4885928516484 181.072929517267 0.0
vertex 0.0 196.4 0.0
vertex -13.4 180.4 0.0
endloop
endfacet
facet normal 0.0 0.0 -1.0
outer loop
vertex -32.0 164.4 0.0
vertex -17.838477631085 178.561522368915 0.0
vertex 0.0 164.4 0.0
endloop
endfacet
facet normal 0.0 0.0 -1.0
outer loop
vertex -17.838477631085 178.561522368915 0.0
vertex -32.0 164.4 0.0
vertex -18.2516660498395 179.1 0.0
endloop
endfacet
facet normal 0.0 0.0 -1.0
outer loop
vertex -18.2516660498395 179.1 0.0
vertex -32.0 164.4 0.0
vertex -18.5114071483516 179.727070482733 0.0
endloop
endfacet
facet normal 0.0 0.0 -1.0
outer loop
vertex -18.5114071483516 179.727070482733 0.0
vertex -32.0 164.4 0.0
vertex -18.6 180.4 0.0
endloop
endfacet
facet normal 0.0 0.0 -1.0
outer loop
vertex 0.0 164.4 0.0
vertex -17.838477631085 178.561522368915 0.0
vertex -17.3 178.14833395016 0.0
endloop
endfacet
facet normal 0.0 0.0 -1.0
outer loop
vertex 0.0 164.4 0.0
vertex -17.3 178.14833395016 0.0
vertex -16.6729295172665 177.888592851648 0.0
endloop
endfacet
facet normal 0.0 0.0 -1.0
outer loop
vertex 0.0 164.4 0.0
vertex -16.6729295172665 177.888592851648 0.0
vertex -16.0 177.8 0.0
endloop
endfacet
facet normal 0.0 0.0 -1.0
outer loop
vertex 0.0 164.4 0.0
vertex -16.0 177.8 0.0
vertex -15.3270704827334 177.888592851648 0.0
endloop
endfacet
facet normal 0.0 0.0 -1.0
outer loop
vertex 0.0 164.4 0.0
vertex -15.3270704827334 177.888592851648 0.0
vertex -14.7 178.14833395016 0.0
endloop
endfacet
facet normal 0.0 0.0 -1.0
outer loop
vertex 0.0 164.4 0.0
vertex -14.7 178.14833395016 0.0
vertex -14.161522368915 178.561522368915 0.0
endloop
endfacet
facet normal 0.0 0.0 -1.0
outer loop
vertex 0.0 164.4 0.0
vertex -14.161522368915 178.561522368915 0.0
vertex -13.7483339501605 179.1 0.0
endloop
endfacet
facet normal 0.0 0.0 -1.0
outer loop
vertex 0.0 164.4 0.0
vertex -13.7483339501605 179.1 0.0
vertex -13.4885928516484 179.727070482733 0.0
endloop
endfacet
facet normal 0.0 0.0 -1.0
outer loop
vertex 0.0 164.4 0.0
vertex -13.4885928516484 179.727070482733 0.0
vertex -13.4 180.4 0.0
endloop
endfacet
facet normal 0.0 0.0 -1.0
outer loop
vertex 0.0 164.4 0.0
vertex -13.4 180.4 0.0
vertex 0.0 196.4 0.0
endloop
endfacet
facet normal -2.76244406765054e-016 -1.0 0.0
outer loop
vertex -16.0 183.0 6.0
vertex -16.6729295172666 182.911407148352 0.0
vertex -16.0 183.0 0.0
endloop
endfacet
facet normal 0.258819045102522 -0.965925826289068 0.0
outer loop
vertex -16.6729295172666 182.911407148352 0.0
vertex -16.0 183.0 6.0
vertex -16.6729295172666 182.911407148352 6.0
endloop
endfacet
facet normal 0.258819045102522 -0.965925826289068 0.0
outer loop
vertex -16.6729295172666 182.911407148352 6.0
vertex -17.3 182.651666049839 0.0
vertex -16.6729295172666 182.911407148352 0.0
endloop
endfacet
facet normal 0.500000000000001 -0.866025403784438 0.0
outer loop
vertex -17.3 182.651666049839 0.0
vertex -16.6729295172666 182.911407148352 6.0
vertex -17.3 182.651666049839 6.0
endloop
endfacet
facet normal 0.0 0.0 1.0
outer loop
vertex -32.0 165.079491924311 10.0
vertex -22.9282032302755 176.4 10.0
vertex -32.0 196.4 10.0
endloop
endfacet
facet normal 0.0 0.0 1.0
outer loop
vertex -22.9282032302755 176.4 10.0
vertex -32.0 165.079491924311 10.0
vertex -21.6568542494924 174.743145750508 10.0
endloop
endfacet
facet normal 0.0 0.0 1.0
outer loop
vertex -21.6568542494924 174.743145750508 10.0
vertex -32.0 165.079491924311 10.0
vertex -20.0 173.471796769724 10.0
endloop
endfacet
facet normal 0.0 0.0 1.0
outer loop
vertex -20.0 173.471796769724 10.0
vertex -32.0 165.079491924311 10.0
vertex 0.0 165.079491924311 10.0
endloop
endfacet
facet normal 0.0 0.0 1.0
outer loop
vertex -32.0 196.4 10.0
vertex -22.9282032302755 176.4 10.0
vertex -23.7274066103125 178.32944763918 10.0
endloop
endfacet
facet normal 0.0 0.0 1.0
outer loop
vertex -32.0 196.4 10.0
vertex -23.7274066103125 178.32944763918 10.0
vertex -24.0 180.4 10.0
endloop
endfacet
facet normal 0.0 0.0 1.0
outer loop
vertex -20.0 173.471796769724 10.0
vertex 0.0 165.079491924311 10.0
vertex -18.0705523608202 172.672593389687 10.0
endloop
endfacet
facet normal 0.0 0.0 1.0
outer loop
vertex -18.0705523608202 172.672593389687 10.0
vertex 0.0 165.079491924311 10.0
vertex -16.0 172.4 10.0
endloop
endfacet
facet normal 0.0 0.0 1.0
outer loop
vertex -16.0 172.4 10.0
vertex 0.0 165.079491924311 10.0
vertex -13.9294476391798 172.672593389687 10.0
endloop
endfacet
facet normal 0.0 0.0 1.0
outer loop
vertex -13.9294476391798 172.672593389687 10.0
vertex 0.0 165.079491924311 10.0
vertex -12.0 173.471796769724 10.0
endloop
endfacet
facet normal 0.0 0.0 1.0
outer loop
vertex -12.0 173.471796769724 10.0
vertex 0.0 165.079491924311 10.0
vertex -10.3431457505076 174.743145750508 10.0
endloop
endfacet
facet normal 0.0 0.0 1.0
outer loop
vertex -10.3431457505076 174.743145750508 10.0
vertex 0.0 165.079491924311 10.0
vertex -9.07179676972449 176.4 10.0
endloop
endfacet
facet normal 0.0 0.0 1.0
outer loop
vertex -9.07179676972449 176.4 10.0
vertex 0.0 165.079491924311 10.0
vertex -8.27259338968745 178.32944763918 10.0
endloop
endfacet
facet normal 0.0 0.0 1.0
outer loop
vertex -8.27259338968745 178.32944763918 10.0
vertex 0.0 165.079491924311 10.0
vertex -8.0 180.4 10.0
endloop
endfacet
facet normal 0.0 0.0 1.0
outer loop
vertex -32.0 196.4 10.0
vertex -20.0 187.328203230275 10.0
vertex 0.0 196.4 10.0
endloop
endfacet
facet normal 0.0 0.0 1.0
outer loop
vertex -20.0 187.328203230275 10.0
vertex -32.0 196.4 10.0
vertex -21.6568542494924 186.056854249492 10.0
endloop
endfacet
facet normal 0.0 0.0 1.0
outer loop
vertex -21.6568542494924 186.056854249492 10.0
vertex -32.0 196.4 10.0
vertex -22.9282032302755 184.4 10.0
endloop
endfacet
facet normal 0.0 0.0 1.0
outer loop
vertex -22.9282032302755 184.4 10.0
vertex -32.0 196.4 10.0
vertex -23.7274066103125 182.47055236082 10.0
endloop
endfacet
facet normal 0.0 0.0 1.0
outer loop
vertex -23.7274066103125 182.47055236082 10.0
vertex -32.0 196.4 10.0
vertex -24.0 180.4 10.0
endloop
endfacet
facet normal 0.0 0.0 1.0
outer loop
vertex 0.0 196.4 10.0
vertex -20.0 187.328203230275 10.0
vertex -18.0705523608202 188.127406610313 10.0
endloop
endfacet
facet normal 0.0 0.0 1.0
outer loop
vertex 0.0 196.4 10.0
vertex -18.0705523608202 188.127406610313 10.0
vertex -16.0 188.4 10.0
endloop
endfacet
facet normal 0.0 0.0 1.0
outer loop
vertex 0.0 196.4 10.0
vertex -16.0 188.4 10.0
vertex -13.9294476391798 188.127406610313 10.0
endloop
endfacet
facet normal 0.0 0.0 1.0
outer loop
vertex 0.0 196.4 10.0
vertex -13.9294476391798 188.127406610313 10.0
vertex -12.0 187.328203230275 10.0
endloop
endfacet
facet normal 0.0 0.0 1.0
outer loop
vertex 0.0 196.4 10.0
vertex -12.0 187.328203230275 10.0
vertex -10.3431457505076 186.056854249492 10.0
endloop
endfacet
facet normal 0.0 0.0 1.0
outer loop
vertex 0.0 196.4 10.0
vertex -10.3431457505076 186.056854249492 10.0
vertex -9.07179676972449 184.4 10.0
endloop
endfacet
facet normal 0.0 0.0 1.0
outer loop
vertex 0.0 196.4 10.0
vertex -9.07179676972449 184.4 10.0
vertex -8.27259338968745 182.47055236082 10.0
endloop
endfacet
facet normal 0.0 0.0 1.0
outer loop
vertex 0.0 196.4 10.0
vertex -8.27259338968745 182.47055236082 10.0
vertex -8.0 180.4 10.0
endloop
endfacet
facet normal 0.0 0.0 1.0
outer loop
vertex 0.0 196.4 10.0
vertex -8.0 180.4 10.0
vertex 0.0 165.079491924311 10.0
endloop
endfacet
facet normal 1.0 0.0 0.0
outer loop
vertex 0.0 164.4 0.0
vertex 0.0 135.991034656191 26.7942286340599
vertex 0.0 131.491034656191 19.0
endloop
endfacet
facet normal 1.0 0.0 0.0
outer loop
vertex 0.0 135.991034656191 26.7942286340599
vertex 0.0 164.4 0.0
vertex 0.0 165.079491924311 10.0
endloop
endfacet
facet normal 1.0 0.0 0.0
outer loop
vertex 0.0 165.079491924311 10.0
vertex 0.0 164.4 0.0
vertex 0.0 196.4 0.0
endloop
endfacet
facet normal 1.0 0.0 0.0
outer loop
vertex 0.0 165.079491924311 10.0
vertex 0.0 196.4 0.0
vertex 0.0 196.4 10.0
endloop
endfacet
facet normal 0.0 -0.866025403784439 0.5
outer loop
vertex 0.0 135.991034656191 26.7942286340599
vertex -32.0 131.491034656191 19.0
vertex 0.0 131.491034656191 19.0
endloop
endfacet
facet normal 0.0 -0.866025403784439 0.5
outer loop
vertex -32.0 131.491034656191 19.0
vertex 0.0 135.991034656191 26.7942286340599
vertex -32.0 135.991034656191 26.7942286340599
endloop
endfacet
facet normal 0.86602540378444 0.433012701892219 -0.249999999999998
outer loop
vertex -25.7427857925749 141.476048220455 15.5445508075689
vertex -23.9549512883487 142.958251215165 22.7717042782343
vertex -23.9549512883487 139.458251215165 16.7095264517432
endloop
endfacet
facet normal 0.707106781186546 0.612372435695796 -0.353553390593274
outer loop
vertex -23.9549512883487 142.958251215165 22.7717042782343
vertex -25.7427857925749 141.476048220455 15.5445508075689
vertex -25.7427857925749 144.976048220455 21.60672863406
endloop
endfacet
facet normal 0.866025403784437 0.500000000000002 0.0
outer loop
vertex -18.2516660498395 179.1 0.0
vertex -17.838477631085 178.561522368915 6.0
vertex -17.838477631085 178.561522368915 0.0
endloop
endfacet
facet normal 0.707106781186547 0.707106781186548 0.0
outer loop
vertex -17.838477631085 178.561522368915 6.0
vertex -18.2516660498395 179.1 0.0
vertex -18.2516660498395 179.1 6.0
endloop
endfacet
facet normal 0.707106781186547 0.707106781186548 0.0
outer loop
vertex -17.838477631085 178.561522368915 6.0
vertex -17.3 178.14833395016 0.0
vertex -17.838477631085 178.561522368915 0.0
endloop
endfacet
facet normal 0.500000000000001 0.866025403784438 0.0
outer loop
vertex -17.3 178.14833395016 0.0
vertex -17.838477631085 178.561522368915 6.0
vertex -17.3 178.14833395016 6.0
endloop
endfacet
facet normal 0.707106781186547 0.707106781186548 0.0
outer loop
vertex -21.6568542494924 174.743145750508 10.0
vertex -20.0 173.471796769724 6.0
vertex -21.6568542494924 174.743145750508 6.0
endloop
endfacet
facet normal 0.499999999999999 0.866025403784439 0.0
outer loop
vertex -20.0 173.471796769724 6.0
vertex -21.6568542494924 174.743145750508 10.0
vertex -20.0 173.471796769724 10.0
endloop
endfacet
facet normal -0.965925826289068 0.258819045102521 0.0
outer loop
vertex -8.27259338968745 178.32944763918 10.0
vertex -9.07179676972449 176.4 6.0
vertex -9.07179676972449 176.4 10.0
endloop
endfacet
facet normal -0.866025403784439 0.5 0.0
outer loop
vertex -9.07179676972449 176.4 6.0
vertex -8.27259338968745 178.32944763918 10.0
vertex -8.27259338968745 178.32944763918 6.0
endloop
endfacet
facet normal 0.258819045102521 0.965925826289068 0.0
outer loop
vertex -16.6729295172665 177.888592851648 6.0
vertex -16.0 177.8 0.0
vertex -16.6729295172665 177.888592851648 0.0
endloop
endfacet
facet normal -1.79113308902503e-015 1.0 0.0
outer loop
vertex -16.0 177.8 0.0
vertex -16.6729295172665 177.888592851648 6.0
vertex -16.0 177.8 6.0
endloop
endfacet
facet normal -1.79113308902503e-015 1.0 0.0
outer loop
vertex -16.0 177.8 6.0
vertex -15.3270704827334 177.888592851648 0.0
vertex -16.0 177.8 0.0
endloop
endfacet
facet normal -0.258819045102521 0.965925826289068 0.0
outer loop
vertex -15.3270704827334 177.888592851648 0.0
vertex -16.0 177.8 6.0
vertex -15.3270704827334 177.888592851648 6.0
endloop
endfacet
facet normal -0.258819045102521 0.965925826289068 0.0
outer loop
vertex -15.3270704827334 177.888592851648 6.0
vertex -14.7 178.14833395016 0.0
vertex -15.3270704827334 177.888592851648 0.0
endloop
endfacet
facet normal -0.499999999999999 0.866025403784439 0.0
outer loop
vertex -14.7 178.14833395016 0.0
vertex -15.3270704827334 177.888592851648 6.0
vertex -14.7 178.14833395016 6.0
endloop
endfacet
facet normal -0.866025403784439 -0.5 0.0
outer loop
vertex -13.7483339501605 181.7 6.0
vertex -13.4885928516484 181.072929517267 0.0
vertex -13.4885928516484 181.072929517267 6.0
endloop
endfacet
facet normal -0.965925826289068 -0.258819045102521 0.0
outer loop
vertex -13.4885928516484 181.072929517267 0.0
vertex -13.7483339501605 181.7 6.0
vertex -13.7483339501605 181.7 0.0
endloop
endfacet
facet normal -0.707106781186548 -0.707106781186548 0.0
outer loop
vertex -14.161522368915 182.238477631085 6.0
vertex -13.7483339501605 181.7 0.0
vertex -13.7483339501605 181.7 6.0
endloop
endfacet
facet normal -0.866025403784439 -0.5 0.0
outer loop
vertex -13.7483339501605 181.7 0.0
vertex -14.161522368915 182.238477631085 6.0
vertex -14.161522368915 182.238477631085 0.0
endloop
endfacet
facet normal -0.707106781186548 -0.707106781186548 0.0
outer loop
vertex -14.161522368915 182.238477631085 6.0
vertex -14.7 182.651666049839 0.0
vertex -14.161522368915 182.238477631085 0.0
endloop
endfacet
facet normal -0.499999999999999 -0.866025403784439 0.0
outer loop
vertex -14.7 182.651666049839 0.0
vertex -14.161522368915 182.238477631085 6.0
vertex -14.7 182.651666049839 6.0
endloop
endfacet
facet normal -0.499999999999999 -0.866025403784439 0.0
outer loop
vertex -14.7 182.651666049839 6.0
vertex -15.3270704827334 182.911407148352 0.0
vertex -14.7 182.651666049839 0.0
endloop
endfacet
facet normal -0.258819045102521 -0.965925826289068 0.0
outer loop
vertex -15.3270704827334 182.911407148352 0.0
vertex -14.7 182.651666049839 6.0
vertex -15.3270704827334 182.911407148352 6.0
endloop
endfacet
facet normal -0.258819045102521 -0.965925826289068 0.0
outer loop
vertex -15.3270704827334 182.911407148352 6.0
vertex -16.0 183.0 0.0
vertex -15.3270704827334 182.911407148352 0.0
endloop
endfacet
facet normal -2.76244406765054e-016 -1.0 0.0
outer loop
vertex -16.0 183.0 0.0
vertex -15.3270704827334 182.911407148352 6.0
vertex -16.0 183.0 6.0
endloop
endfacet
facet normal -0.5 -0.866025403784439 0.0
outer loop
vertex -12.0 187.328203230275 10.0
vertex -13.9294476391798 188.127406610313 6.0
vertex -12.0 187.328203230275 6.0
endloop
endfacet
facet normal -0.258819045102521 -0.965925826289068 0.0
outer loop
vertex -13.9294476391798 188.127406610313 6.0
vertex -12.0 187.328203230275 10.0
vertex -13.9294476391798 188.127406610313 10.0
endloop
endfacet
facet normal -0.499999999999999 0.866025403784439 0.0
outer loop
vertex -14.7 178.14833395016 6.0
vertex -14.161522368915 178.561522368915 0.0
vertex -14.7 178.14833395016 0.0
endloop
endfacet
facet normal -0.707106781186548 0.707106781186548 0.0
outer loop
vertex -14.161522368915 178.561522368915 0.0
vertex -14.7 178.14833395016 6.0
vertex -14.161522368915 178.561522368915 6.0
endloop
endfacet
facet normal -0.866025403784439 0.5 0.0
outer loop
vertex -13.7483339501605 179.1 6.0
vertex -14.161522368915 178.561522368915 0.0
vertex -14.161522368915 178.561522368915 6.0
endloop
endfacet
facet normal -0.707106781186548 0.707106781186548 0.0
outer loop
vertex -14.161522368915 178.561522368915 0.0
vertex -13.7483339501605 179.1 6.0
vertex -13.7483339501605 179.1 0.0
endloop
endfacet
facet normal -0.965925826289068 0.258819045102521 0.0
outer loop
vertex -13.4885928516484 179.727070482733 6.0
vertex -13.7483339501605 179.1 0.0
vertex -13.7483339501605 179.1 6.0
endloop
endfacet
facet normal -0.866025403784439 0.5 0.0
outer loop
vertex -13.7483339501605 179.1 0.0
vertex -13.4885928516484 179.727070482733 6.0
vertex -13.4885928516484 179.727070482733 0.0
endloop
endfacet
facet normal -1.0 0.0 0.0
outer loop
vertex -13.4 180.4 6.0
vertex -13.4885928516484 179.727070482733 0.0
vertex -13.4885928516484 179.727070482733 6.0
endloop
endfacet
facet normal -0.965925826289068 0.258819045102521 0.0
outer loop
vertex -13.4885928516484 179.727070482733 0.0
vertex -13.4 180.4 6.0
vertex -13.4 180.4 0.0
endloop
endfacet
facet normal 0.86602540378444 0.43301270189222 -0.249999999999994
outer loop
vertex -22.9282032302755 141.883339501605 13.0
vertex -21.6568542494924 141.448461631176 15.5604779323151
vertex -21.6568542494924 140.448461631176 13.8284271247462
endloop
endfacet
facet normal 0.707106781186546 0.612372435695798 -0.353553390593272
outer loop
vertex -21.6568542494924 141.448461631176 15.5604779323151
vertex -22.9282032302755 141.883339501605 13.0
vertex -22.9282032302755 142.883339501605 14.7320508075689
endloop
endfacet
facet normal 0.0 -0.5 -0.866025403784438
outer loop
vertex -32.0 164.4 0.0
vertex -22.9282032302755 148.81154273188 9.0
vertex -32.0 131.491034656191 19.0
endloop
endfacet
facet normal 0.0 -0.5 -0.866025403784438
outer loop
vertex -22.9282032302755 148.81154273188 9.0
vertex -32.0 164.4 0.0
vertex -21.6568542494924 150.246420602309 8.1715728752538
endloop
endfacet
facet normal 0.0 -0.5 -0.866025403784438
outer loop
vertex -21.6568542494924 150.246420602309 8.1715728752538
vertex -32.0 164.4 0.0
vertex -20.0 151.347441116742 7.53589838486224
endloop
endfacet
facet normal 0.0 -0.5 -0.866025403784438
outer loop
vertex -20.0 151.347441116742 7.53589838486224
vertex -32.0 164.4 0.0
vertex 0.0 164.4 0.0
endloop
endfacet
facet normal 0.0 -0.5 -0.866025403784438
outer loop
vertex -32.0 131.491034656191 19.0
vertex -22.9282032302755 148.81154273188 9.0
vertex -23.7274066103125 147.140592061078 9.96472381958996
endloop
endfacet
facet normal 0.0 -0.5 -0.866025403784438
outer loop
vertex -32.0 131.491034656191 19.0
vertex -23.7274066103125 147.140592061078 9.96472381958996
vertex -24.0 145.347441116742 11.0
endloop
endfacet
facet normal 0.0 -0.5 -0.866025403784438
outer loop
vertex -20.0 151.347441116742 7.53589838486224
vertex 0.0 164.4 0.0
vertex -18.0705523608202 152.039571546645 7.13629669484373
endloop
endfacet
facet normal 0.0 -0.5 -0.866025403784438
outer loop
vertex -18.0705523608202 152.039571546645 7.13629669484373
vertex 0.0 164.4 0.0
vertex -16.0 152.275644347018 7.00000000000001
endloop
endfacet
facet normal 0.0 -0.5 -0.866025403784438
outer loop
vertex -16.0 152.275644347018 7.00000000000001
vertex 0.0 164.4 0.0
vertex -13.9294476391798 152.039571546645 7.13629669484374
endloop
endfacet
facet normal 0.0 -0.5 -0.866025403784438
outer loop
vertex -13.9294476391798 152.039571546645 7.13629669484374
vertex 0.0 164.4 0.0
vertex -12.0 151.347441116742 7.53589838486224
endloop
endfacet
facet normal 0.0 -0.5 -0.866025403784438
outer loop
vertex -12.0 151.347441116742 7.53589838486224
vertex 0.0 164.4 0.0
vertex -10.3431457505076 150.246420602309 8.1715728752538
endloop
endfacet
facet normal 0.0 -0.5 -0.866025403784438
outer loop
vertex -10.3431457505076 150.246420602309 8.1715728752538
vertex 0.0 164.4 0.0
vertex -9.07179676972449 148.81154273188 9.0
endloop
endfacet
facet normal 0.0 -0.5 -0.866025403784438
outer loop
vertex -9.07179676972449 148.81154273188 9.0
vertex 0.0 164.4 0.0
vertex -8.27259338968745 147.140592061078 9.96472381958996
endloop
endfacet
facet normal 0.0 -0.5 -0.866025403784438
outer loop
vertex -8.27259338968745 147.140592061078 9.96472381958996
vertex 0.0 164.4 0.0
vertex -8.0 145.347441116742 11.0
endloop
endfacet
facet normal 0.0 -0.5 -0.866025403784438
outer loop
vertex -32.0 131.491034656191 19.0
vertex -20.0 139.347441116742 14.4641016151377
vertex 0.0 131.491034656191 19.0
endloop
endfacet
facet normal 0.0 -0.5 -0.866025403784438
outer loop
vertex -20.0 139.347441116742 14.4641016151377
vertex -32.0 131.491034656191 19.0
vertex -21.6568542494924 140.448461631176 13.8284271247462
endloop
endfacet
facet normal 0.0 -0.5 -0.866025403784438
outer loop
vertex -21.6568542494924 140.448461631176 13.8284271247462
vertex -32.0 131.491034656191 19.0
vertex -22.9282032302755 141.883339501605 13.0
endloop
endfacet
facet normal 0.0 -0.5 -0.866025403784438
outer loop
vertex -22.9282032302755 141.883339501605 13.0
vertex -32.0 131.491034656191 19.0
vertex -23.7274066103125 143.554290172406 12.0352761804101
endloop
endfacet
facet normal 0.0 -0.5 -0.866025403784438
outer loop
vertex -23.7274066103125 143.554290172406 12.0352761804101
vertex -32.0 131.491034656191 19.0
vertex -24.0 145.347441116742 11.0
endloop
endfacet
facet normal 0.0 -0.5 -0.866025403784438
outer loop
vertex 0.0 131.491034656191 19.0
vertex -20.0 139.347441116742 14.4641016151377
vertex -18.0705523608202 138.65531068684 14.8637033051563
endloop
endfacet
facet normal 0.0 -0.5 -0.866025403784438
outer loop
vertex 0.0 131.491034656191 19.0
vertex -18.0705523608202 138.65531068684 14.8637033051563
vertex -16.0 138.419237886467 15.0
endloop
endfacet
facet normal 0.0 -0.5 -0.866025403784438
outer loop
vertex 0.0 131.491034656191 19.0
vertex -16.0 138.419237886467 15.0
vertex -13.9294476391798 138.65531068684 14.8637033051563
endloop
endfacet
facet normal 0.0 -0.5 -0.866025403784438
outer loop
vertex 0.0 131.491034656191 19.0
vertex -13.9294476391798 138.65531068684 14.8637033051563
vertex -12.0 139.347441116742 14.4641016151377
endloop
endfacet
facet normal 0.0 -0.5 -0.866025403784438
outer loop
vertex 0.0 131.491034656191 19.0
vertex -12.0 139.347441116742 14.4641016151377
vertex -10.3431457505076 140.448461631176 13.8284271247462
endloop
endfacet
facet normal 0.0 -0.5 -0.866025403784438
outer loop
vertex 0.0 131.491034656191 19.0
vertex -10.3431457505076 140.448461631176 13.8284271247462
vertex -9.07179676972449 141.883339501605 13.0
endloop
endfacet
facet normal 0.0 -0.5 -0.866025403784438
outer loop
vertex 0.0 131.491034656191 19.0
vertex -9.07179676972449 141.883339501605 13.0
vertex -8.27259338968745 143.554290172406 12.0352761804101
endloop
endfacet
facet normal 0.0 -0.5 -0.866025403784438
outer loop
vertex 0.0 131.491034656191 19.0
vertex -8.27259338968745 143.554290172406 12.0352761804101
vertex -8.0 145.347441116742 11.0
endloop
endfacet
facet normal 0.0 -0.5 -0.866025403784438
outer loop
vertex 0.0 131.491034656191 19.0
vertex -8.0 145.347441116742 11.0
vertex 0.0 164.4 0.0
endloop
endfacet
facet normal 0.499999999999999 0.866025403784439 0.0
outer loop
vertex -20.0 173.471796769724 10.0
vertex -18.0705523608202 172.672593389687 6.0
vertex -20.0 173.471796769724 6.0
endloop
endfacet
facet normal 0.25881904510252 0.965925826289068 0.0
outer loop
vertex -18.0705523608202 172.672593389687 6.0
vertex -20.0 173.471796769724 10.0
vertex -18.0705523608202 172.672593389687 10.0
endloop
endfacet
facet normal -0.5 0.866025403784439 0.0
outer loop
vertex -12.0 173.471796769724 10.0
vertex -10.3431457505076 174.743145750508 6.0
vertex -12.0 173.471796769724 6.0
endloop
endfacet
facet normal -0.707106781186548 0.707106781186547 0.0
outer loop
vertex -10.3431457505076 174.743145750508 6.0
vertex -12.0 173.471796769724 10.0
vertex -10.3431457505076 174.743145750508 10.0
endloop
endfacet
facet normal -0.258819045102521 0.965925826289068 0.0
outer loop
vertex -13.9294476391798 172.672593389687 10.0
vertex -12.0 173.471796769724 6.0
vertex -13.9294476391798 172.672593389687 6.0
endloop
endfacet
facet normal -0.5 0.866025403784439 0.0
outer loop
vertex -12.0 173.471796769724 6.0
vertex -13.9294476391798 172.672593389687 10.0
vertex -12.0 173.471796769724 10.0
endloop
endfacet
facet normal -1.69311088017291e-016 1.0 0.0
outer loop
vertex -16.0 172.4 10.0
vertex -13.9294476391798 172.672593389687 6.0
vertex -16.0 172.4 6.0
endloop
endfacet
facet normal -0.258819045102521 0.965925826289068 0.0
outer loop
vertex -13.9294476391798 172.672593389687 6.0
vertex -16.0 172.4 10.0
vertex -13.9294476391798 172.672593389687 10.0
endloop
endfacet
facet normal 0.25881904510252 0.965925826289068 0.0
outer loop
vertex -18.0705523608202 172.672593389687 10.0
vertex -16.0 172.4 6.0
vertex -18.0705523608202 172.672593389687 6.0
endloop
endfacet
facet normal -1.69311088017291e-016 1.0 0.0
outer loop
vertex -16.0 172.4 6.0
vertex -18.0705523608202 172.672593389687 10.0
vertex -16.0 172.4 10.0
endloop
endfacet
facet normal 0.707106781186548 -0.707106781186547 0.0
outer loop
vertex -21.6568542494924 186.056854249492 6.0
vertex -22.9282032302755 184.4 10.0
vertex -22.9282032302755 184.4 6.0
endloop
endfacet
facet normal 0.866025403784439 -0.5 0.0
outer loop
vertex -22.9282032302755 184.4 10.0
vertex -21.6568542494924 186.056854249492 6.0
vertex -21.6568542494924 186.056854249492 10.0
endloop
endfacet
facet normal 0.500000000000001 -0.866025403784438 0.0
outer loop
vertex -20.0 187.328203230275 10.0
vertex -21.6568542494924 186.056854249492 6.0
vertex -20.0 187.328203230275 6.0
endloop
endfacet
facet normal 0.707106781186548 -0.707106781186547 0.0
outer loop
vertex -21.6568542494924 186.056854249492 6.0
vertex -20.0 187.328203230275 10.0
vertex -21.6568542494924 186.056854249492 10.0
endloop
endfacet
facet normal 0.866025403784439 0.5 0.0
outer loop
vertex -22.9282032302755 176.4 6.0
vertex -21.6568542494924 174.743145750508 10.0
vertex -21.6568542494924 174.743145750508 6.0
endloop
endfacet
facet normal 0.707106781186547 0.707106781186548 0.0
outer loop
vertex -21.6568542494924 174.743145750508 10.0
vertex -22.9282032302755 176.4 6.0
vertex -22.9282032302755 176.4 10.0
endloop
endfacet
facet normal 0.965925826289068 0.258819045102521 0.0
outer loop
vertex -23.7274066103125 178.32944763918 6.0
vertex -22.9282032302755 176.4 10.0
vertex -22.9282032302755 176.4 6.0
endloop
endfacet
facet normal 0.866025403784439 0.5 0.0
outer loop
vertex -22.9282032302755 176.4 10.0
vertex -23.7274066103125 178.32944763918 6.0
vertex -23.7274066103125 178.32944763918 10.0
endloop
endfacet
facet normal 1.0 1.25646649528621e-015 0.0
outer loop
vertex -24.0 180.4 6.0
vertex -23.7274066103125 178.32944763918 10.0
vertex -23.7274066103125 178.32944763918 6.0
endloop
endfacet
facet normal 0.965925826289068 0.258819045102521 0.0
outer loop
vertex -23.7274066103125 178.32944763918 10.0
vertex -24.0 180.4 6.0
vertex -24.0 180.4 10.0
endloop
endfacet
facet normal 0.965925826289069 -0.25881904510252 0.0
outer loop
vertex -23.7274066103125 182.47055236082 6.0
vertex -24.0 180.4 10.0
vertex -24.0 180.4 6.0
endloop
endfacet
facet normal 1.0 1.25646649528621e-015 0.0
outer loop
vertex -24.0 180.4 10.0
vertex -23.7274066103125 182.47055236082 6.0
vertex -23.7274066103125 182.47055236082 10.0
endloop
endfacet
facet normal 0.866025403784439 -0.5 0.0
outer loop
vertex -22.9282032302755 184.4 6.0
vertex -23.7274066103125 182.47055236082 10.0
vertex -23.7274066103125 182.47055236082 6.0
endloop
endfacet
facet normal 0.965925826289069 -0.25881904510252 0.0
outer loop
vertex -23.7274066103125 182.47055236082 10.0
vertex -22.9282032302755 184.4 6.0
vertex -22.9282032302755 184.4 10.0
endloop
endfacet
facet normal 0.258819045102522 -0.965925826289068 0.0
outer loop
vertex -18.0705523608202 188.127406610313 10.0
vertex -20.0 187.328203230275 6.0
vertex -18.0705523608202 188.127406610313 6.0
endloop
endfacet
facet normal 0.500000000000001 -0.866025403784438 0.0
outer loop
vertex -20.0 187.328203230275 6.0
vertex -18.0705523608202 188.127406610313 10.0
vertex -20.0 187.328203230275 10.0
endloop
endfacet
facet normal -0.707106781186547 -0.707106781186548 0.0
outer loop
vertex -10.3431457505076 186.056854249492 10.0
vertex -12.0 187.328203230275 6.0
vertex -10.3431457505076 186.056854249492 6.0
endloop
endfacet
facet normal -0.5 -0.866025403784439 0.0
outer loop
vertex -12.0 187.328203230275 6.0
vertex -10.3431457505076 186.056854249492 10.0
vertex -12.0 187.328203230275 10.0
endloop
endfacet
facet normal -0.707106781186547 -0.707106781186548 0.0
outer loop
vertex -10.3431457505076 186.056854249492 10.0
vertex -9.07179676972449 184.4 6.0
vertex -9.07179676972449 184.4 10.0
endloop
endfacet
facet normal -0.866025403784439 -0.5 0.0
outer loop
vertex -9.07179676972449 184.4 6.0
vertex -10.3431457505076 186.056854249492 10.0
vertex -10.3431457505076 186.056854249492 6.0
endloop
endfacet
facet normal -0.866025403784439 -0.5 0.0
outer loop
vertex -9.07179676972449 184.4 10.0
vertex -8.27259338968745 182.47055236082 6.0
vertex -8.27259338968745 182.47055236082 10.0
endloop
endfacet
facet normal -0.965925826289068 -0.258819045102521 0.0
outer loop
vertex -8.27259338968745 182.47055236082 6.0
vertex -9.07179676972449 184.4 10.0
vertex -9.07179676972449 184.4 6.0
endloop
endfacet
facet normal -0.965925826289068 -0.258819045102521 0.0
outer loop
vertex -8.27259338968745 182.47055236082 10.0
vertex -8.0 180.4 6.0
vertex -8.0 180.4 10.0
endloop
endfacet
facet normal -1.0 8.01999890608221e-017 0.0
outer loop
vertex -8.0 180.4 6.0
vertex -8.27259338968745 182.47055236082 10.0
vertex -8.27259338968745 182.47055236082 6.0
endloop
endfacet
facet normal -1.0 8.01999890608221e-017 0.0
outer loop
vertex -8.0 180.4 10.0
vertex -8.27259338968745 178.32944763918 6.0
vertex -8.27259338968745 178.32944763918 10.0
endloop
endfacet
facet normal -0.965925826289068 0.258819045102521 0.0
outer loop
vertex -8.27259338968745 178.32944763918 6.0
vertex -8.0 180.4 10.0
vertex -8.0 180.4 6.0
endloop
endfacet
facet normal 0.0 0.5 0.866025403784439
outer loop
vertex -32.0 135.991034656191 26.7942286340599
vertex -26.866665545752 147.32582260127 20.2500857627616
vertex -32.0 165.079491924311 10.0
endloop
endfacet
facet normal 0.0 0.5 0.866025403784439
outer loop
vertex -26.866665545752 147.32582260127 20.2500857627616
vertex -32.0 135.991034656191 26.7942286340599
vertex -25.7427857925749 144.976048220455 21.60672863406
endloop
endfacet
facet normal 0.0 0.5 0.866025403784439
outer loop
vertex -25.7427857925749 144.976048220455 21.60672863406
vertex -32.0 135.991034656191 26.7942286340599
vertex -23.9549512883487 142.958251215165 22.7717042782343
endloop
endfacet
facet normal 0.0 0.5 0.866025403784439
outer loop
vertex -23.9549512883487 142.958251215165 22.7717042782343
vertex -32.0 135.991034656191 26.7942286340599
vertex -21.625 141.409941116742 23.6656215303474
endloop
endfacet
facet normal 0.0 0.5 0.866025403784439
outer loop
vertex -21.625 141.409941116742 23.6656215303474
vertex -32.0 135.991034656191 26.7942286340599
vertex -18.9117142574034 140.436632699692 24.2275614069359
endloop
endfacet
facet normal 0.0 0.5 0.866025403784439
outer loop
vertex -18.9117142574034 140.436632699692 24.2275614069359
vertex -32.0 135.991034656191 26.7942286340599
vertex 0.0 135.991034656191 26.7942286340599
endloop
endfacet
facet normal 0.0 0.5 0.866025403784439
outer loop
vertex -32.0 165.079491924311 10.0
vertex -26.866665545752 147.32582260127 20.2500857627616
vertex -27.25 149.847441116742 18.7942286340599
endloop
endfacet
facet normal 0.0 0.5 0.866025403784439
outer loop
vertex -18.9117142574034 140.436632699692 24.2275614069359
vertex 0.0 135.991034656191 26.7942286340599
vertex -16.0 140.104655324167 24.41922863406
endloop
endfacet
facet normal 0.0 0.5 0.866025403784439
outer loop
vertex -16.0 140.104655324167 24.41922863406
vertex 0.0 135.991034656191 26.7942286340599
vertex -13.0882857425966 140.436632699692 24.2275614069359
endloop
endfacet
facet normal 0.0 0.5 0.866025403784439
outer loop
vertex -13.0882857425966 140.436632699692 24.2275614069359
vertex 0.0 135.991034656191 26.7942286340599
vertex -10.375 141.409941116742 23.6656215303474
endloop
endfacet
facet normal 0.0 0.5 0.866025403784439
outer loop
vertex -10.375 141.409941116742 23.6656215303474
vertex 0.0 135.991034656191 26.7942286340599
vertex -8.04504871165134 142.958251215165 22.7717042782343
endloop
endfacet
facet normal 0.0 0.5 0.866025403784439
outer loop
vertex -8.04504871165134 142.958251215165 22.7717042782343
vertex 0.0 135.991034656191 26.7942286340599
vertex -6.25721420742506 144.976048220455 21.60672863406
endloop
endfacet
facet normal 0.0 0.5 0.866025403784439
outer loop
vertex -6.25721420742506 144.976048220455 21.60672863406
vertex 0.0 135.991034656191 26.7942286340599
vertex -5.13333445424799 147.32582260127 20.2500857627616
endloop
endfacet
facet normal 0.0 0.5 0.866025403784439
outer loop
vertex -5.13333445424799 147.32582260127 20.2500857627616
vertex 0.0 135.991034656191 26.7942286340599
vertex -4.75 149.847441116742 18.7942286340599
endloop
endfacet
facet normal 0.0 0.5 0.866025403784439
outer loop
vertex -32.0 165.079491924311 10.0
vertex -18.9117142574034 159.258249533793 13.360895861184
vertex 0.0 165.079491924311 10.0
endloop
endfacet
facet normal 0.0 0.5 0.866025403784439
outer loop
vertex -18.9117142574034 159.258249533793 13.360895861184
vertex -32.0 165.079491924311 10.0
vertex -21.625 158.284941116742 13.9228357377725
endloop
endfacet
facet normal 0.0 0.5 0.866025403784439
outer loop
vertex -21.625 158.284941116742 13.9228357377725
vertex -32.0 165.079491924311 10.0
vertex -23.9549512883487 156.73663101832 14.8167529898856
endloop
endfacet
facet normal 0.0 0.5 0.866025403784439
outer loop
vertex -23.9549512883487 156.73663101832 14.8167529898856
vertex -32.0 165.079491924311 10.0
vertex -25.7427857925749 154.71883401303 15.98172863406
endloop
endfacet
facet normal 0.0 0.5 0.866025403784439
outer loop
vertex -25.7427857925749 154.71883401303 15.98172863406
vertex -32.0 165.079491924311 10.0
vertex -26.866665545752 152.369059632215 17.3383715053583
endloop
endfacet
facet normal 0.0 0.5 0.866025403784439
outer loop
vertex -26.866665545752 152.369059632215 17.3383715053583
vertex -32.0 165.079491924311 10.0
vertex -27.25 149.847441116742 18.7942286340599
endloop
endfacet
facet normal 0.0 0.5 0.866025403784439
outer loop
vertex 0.0 165.079491924311 10.0
vertex -18.9117142574034 159.258249533793 13.360895861184
vertex -16.0 159.590226909317 13.16922863406
endloop
endfacet
facet normal 0.0 0.5 0.866025403784439
outer loop
vertex 0.0 165.079491924311 10.0
vertex -16.0 159.590226909317 13.16922863406
vertex -13.0882857425966 159.258249533793 13.360895861184
endloop
endfacet
facet normal 0.0 0.5 0.866025403784439
outer loop
vertex 0.0 165.079491924311 10.0
vertex -13.0882857425966 159.258249533793 13.360895861184
vertex -10.375 158.284941116742 13.9228357377725
endloop
endfacet
facet normal 0.0 0.5 0.866025403784439
outer loop
vertex 0.0 165.079491924311 10.0
vertex -10.375 158.284941116742 13.9228357377725
vertex -8.04504871165134 156.73663101832 14.8167529898856
endloop
endfacet
facet normal 0.0 0.5 0.866025403784439
outer loop
vertex 0.0 165.079491924311 10.0
vertex -8.04504871165134 156.73663101832 14.8167529898856
vertex -6.25721420742506 154.71883401303 15.98172863406
endloop
endfacet
facet normal 0.0 0.5 0.866025403784439
outer loop
vertex 0.0 165.079491924311 10.0
vertex -6.25721420742506 154.71883401303 15.98172863406
vertex -5.13333445424799 152.369059632215 17.3383715053583
endloop
endfacet
facet normal 0.0 0.5 0.866025403784439
outer loop
vertex 0.0 165.079491924311 10.0
vertex -5.13333445424799 152.369059632215 17.3383715053583
vertex -4.75 149.847441116742 18.7942286340599
endloop
endfacet
facet normal 0.0 0.5 0.866025403784439
outer loop
vertex 0.0 165.079491924311 10.0
vertex -4.75 149.847441116742 18.7942286340599
vertex 0.0 135.991034656191 26.7942286340599
endloop
endfacet
facet normal -0.965925826289068 -0.258819045102521 0.0
outer loop
vertex -13.4885928516484 181.072929517267 6.0
vertex -13.4 180.4 0.0
vertex -13.4 180.4 6.0
endloop
endfacet
facet normal -1.0 0.0 0.0
outer loop
vertex -13.4 180.4 0.0
vertex -13.4885928516484 181.072929517267 6.0
vertex -13.4885928516484 181.072929517267 0.0
endloop
endfacet
facet normal 0.258819045102522 -0.836516303737805 0.482962913144539
outer loop
vertex -18.0705523608202 153.039571546645 8.86834750241261
vertex -20.0 151.347441116742 7.53589838486224
vertex -18.0705523608202 152.039571546645 7.13629669484373
endloop
endfacet
facet normal 0.499999999999995 -0.750000000000003 0.433012701892221
outer loop
vertex -20.0 151.347441116742 7.53589838486224
vertex -18.0705523608202 153.039571546645 8.86834750241261
vertex -20.0 152.347441116742 9.26794919243112
endloop
endfacet
facet normal -1.0 0.0 0.0
outer loop
vertex -32.0 135.991034656191 26.7942286340599
vertex -32.0 164.4 0.0
vertex -32.0 131.491034656191 19.0
endloop
endfacet
facet normal -1.0 0.0 0.0
outer loop
vertex -32.0 164.4 0.0
vertex -32.0 135.991034656191 26.7942286340599
vertex -32.0 165.079491924311 10.0
endloop
endfacet
facet normal -1.0 0.0 0.0
outer loop
vertex -32.0 164.4 0.0
vertex -32.0 165.079491924311 10.0
vertex -32.0 196.4 0.0
endloop
endfacet
facet normal -1.0 0.0 0.0
outer loop
vertex -32.0 196.4 0.0
vertex -32.0 165.079491924311 10.0
vertex -32.0 196.4 10.0
endloop
endfacet
facet normal -0.866025403784437 0.433012701892225 -0.249999999999997
outer loop
vertex -9.07179676972449 142.883339501605 14.7320508075689
vertex -8.27259338968745 143.554290172406 12.0352761804101
vertex -9.07179676972449 141.883339501605 13.0
endloop
endfacet
facet normal -0.965925826289068 0.224143868042014 -0.129409522551259
outer loop
vertex -8.27259338968745 143.554290172406 12.0352761804101
vertex -9.07179676972449 142.883339501605 14.7320508075689
vertex -8.27259338968745 144.554290172406 13.767326987979
endloop
endfacet
facet normal 0.70710678118655 -0.612372435695793 0.353553390593272
outer loop
vertex -23.9549512883487 153.23663101832 8.75457516339455
vertex -25.7427857925749 154.71883401303 15.98172863406
vertex -25.7427857925749 151.21883401303 9.91955080756888
endloop
endfacet
facet normal 0.86602540378444 -0.433012701892218 0.249999999999999
outer loop
vertex -25.7427857925749 154.71883401303 15.98172863406
vertex -23.9549512883487 153.23663101832 8.75457516339455
vertex -23.9549512883487 156.73663101832 14.8167529898856
endloop
endfacet
facet normal 0.499999999999996 0.750000000000002 -0.433012701892221
outer loop
vertex -21.625 141.409941116742 23.6656215303474
vertex -18.9117142574034 136.936632699692 18.1653835804449
vertex -21.625 137.909941116742 17.6034437038564
endloop
endfacet
facet normal 0.258819045102523 0.836516303737808 -0.482962913144533
outer loop
vertex -18.9117142574034 136.936632699692 18.1653835804449
vertex -21.625 141.409941116742 23.6656215303474
vertex -18.9117142574034 140.436632699692 24.2275614069359
endloop
endfacet
endsolid 16mmBearing-5mmHole-v2d
