solid Pulleyv4
facet normal 0.25881904510252 -0.965925826289068 7.27016834065654e-019
outer loop
vertex -2.86642092451041 31.7726285261514 10.0
vertex -5.5375 30.6662313469127 0.0
vertex -2.86642092451041 31.7726285261514 0.0
endloop
endfacet
facet normal 0.5 -0.866025403784439 -6.78147120193382e-018
outer loop
vertex -5.5375 30.6662313469127 0.0
vertex -2.86642092451041 31.7726285261514 10.0
vertex -5.5375 30.6662313469127 10.0
endloop
endfacet
facet normal -3.56444395825876e-017 -1.0 0.0
outer loop
vertex 0.0 6.0 10.0
vertex -3.90169710492051 6.5136681686923 4.0
vertex 0.0 6.0 4.0
endloop
endfacet
facet normal -0.258819045102521 -0.965925826289068 0.0
outer loop
vertex -3.90169710492051 6.5136681686923 4.0
vertex 0.0 6.0 10.0
vertex -3.90169710492051 6.5136681686923 10.0
endloop
endfacet
facet normal 0.0 -0.242535625036333 0.970142500145332
outer loop
vertex 0.0 -2.20309881449054e-017 2.5
vertex -3.90169710492051 6.5136681686923 4.0
vertex -5.45461137553564 0.718113210957901 2.5
endloop
endfacet
facet normal -0.0627728388752469 -0.234271424017756 0.970142500145332
outer loop
vertex -3.90169710492051 6.5136681686923 4.0
vertex 0.0 -2.20309881449054e-017 2.5
vertex 0.0 6.0 4.0
endloop
endfacet
facet normal -4.45555494782345e-017 -1.0 0.0
outer loop
vertex 0.0 -2.20309881449054e-017 2.5
vertex -5.45461137553564 0.718113210957901 0.0
vertex 0.0 -2.20309881449054e-017 0.0
endloop
endfacet
facet normal -0.258819045102521 -0.965925826289068 0.0
outer loop
vertex -5.45461137553564 0.718113210957901 0.0
vertex 0.0 -2.20309881449054e-017 2.5
vertex -5.45461137553564 0.718113210957901 2.5
endloop
endfacet
facet normal 0.234271424017756 0.0627728388752467 0.970142500145332
outer loop
vertex 14.5613318313077 24.9766971049205 4.0
vertex 18.251485384757 31.6125 2.5
vertex 13.0553329620504 28.6125 4.0
endloop
endfacet
facet normal 0.210042012604202 0.121267812518166 0.970142500145332
outer loop
vertex 18.251485384757 31.6125 2.5
vertex 14.5613318313077 24.9766971049205 4.0
vertex 20.3568867890421 26.5296113755356 2.5
endloop
endfacet
facet normal -0.965925826289068 -0.25881904510252 0.0
outer loop
vertex -20.3568867890421 15.6203886244644 2.5
vertex -18.251485384757 10.5375 0.0
vertex -18.251485384757 10.5375 2.5
endloop
endfacet
facet normal -0.866025403784439 -0.5 0.0
outer loop
vertex -18.251485384757 10.5375 0.0
vertex -20.3568867890421 15.6203886244644 2.5
vertex -20.3568867890421 15.6203886244644 0.0
endloop
endfacet
facet normal -0.707106781186548 -0.707106781186547 7.809628268743e-018
outer loop
vertex 7.83120760164102 28.906207601641 10.0
vertex 9.59123134691266 26.6125 0.0
vertex 9.59123134691266 26.6125 10.0
endloop
endfacet
facet normal -0.866025403784439 -0.5 1.69201580053475e-017
outer loop
vertex 9.59123134691266 26.6125 0.0
vertex 7.83120760164102 28.906207601641 10.0
vertex 7.83120760164102 28.906207601641 0.0
endloop
endfacet
facet normal -0.258819045102521 0.965925826289068 2.21239831436397e-017
outer loop
vertex 2.86642092451042 10.3773714738486 10.0
vertex 5.5375 11.4837686530873 0.0
vertex 2.86642092451042 10.3773714738486 0.0
endloop
endfacet
facet normal -0.5 0.866025403784439 2.14142420459126e-017
outer loop
vertex 5.5375 11.4837686530873 0.0
vertex 2.86642092451042 10.3773714738486 10.0
vertex 5.5375 11.4837686530873 10.0
endloop
endfacet
facet normal 0.707106781186548 0.707106781186547 0.0
outer loop
vertex 10.6596347263872 31.7346347263872 4.0
vertex 13.0553329620504 28.6125 10.0
vertex 13.0553329620504 28.6125 4.0
endloop
endfacet
facet normal 0.866025403784439 0.5 0.0
outer loop
vertex 13.0553329620504 28.6125 10.0
vertex 10.6596347263872 31.7346347263872 4.0
vertex 10.6596347263872 31.7346347263872 10.0
endloop
endfacet
facet normal -0.707106781186548 -0.707106781186547 7.809628268743e-018
outer loop
vertex 7.83120760164102 28.906207601641 10.0
vertex 5.5375 30.6662313469127 0.0
vertex 7.83120760164102 28.906207601641 0.0
endloop
endfacet
facet normal -0.5 -0.866025403784438 -3.5231709902494e-018
outer loop
vertex 5.5375 30.6662313469127 0.0
vertex 7.83120760164102 28.906207601641 10.0
vertex 5.5375 30.6662313469127 10.0
endloop
endfacet
facet normal 0.866025403784439 0.5 0.0
outer loop
vertex 13.0553329620504 28.6125 4.0
vertex 14.5613318313077 24.9766971049205 10.0
vertex 14.5613318313077 24.9766971049205 4.0
endloop
endfacet
facet normal 0.965925826289068 0.258819045102521 0.0
outer loop
vertex 14.5613318313077 24.9766971049205 10.0
vertex 13.0553329620504 28.6125 4.0
vertex 13.0553329620504 28.6125 10.0
endloop
endfacet
facet normal 0.234271424017756 -0.0627728388752468 0.970142500145332
outer loop
vertex 20.3568867890421 15.6203886244644 2.5
vertex 15.075 21.075 4.0
vertex 14.5613318313077 17.1733028950795 4.0
endloop
endfacet
facet normal 0.242535625036333 -1.02228890990465e-017 0.970142500145332
outer loop
vertex 15.075 21.075 4.0
vertex 20.3568867890421 15.6203886244644 2.5
vertex 21.075 21.075 2.5
endloop
endfacet
facet normal 0.707106781186547 -0.707106781186548 0.0
outer loop
vertex 10.6596347263872 10.4153652736128 10.0
vertex 7.5375 8.01966703794959 4.0
vertex 10.6596347263872 10.4153652736128 4.0
endloop
endfacet
facet normal 0.5 -0.866025403784439 0.0
outer loop
vertex 7.5375 8.01966703794959 4.0
vertex 10.6596347263872 10.4153652736128 10.0
vertex 7.5375 8.01966703794959 10.0
endloop
endfacet
facet normal 1.0 0.0 0.0
outer loop
vertex 15.075 21.075 4.0
vertex 14.5613318313077 17.1733028950795 10.0
vertex 14.5613318313077 17.1733028950795 4.0
endloop
endfacet
facet normal 0.965925826289068 -0.258819045102521 0.0
outer loop
vertex 14.5613318313077 17.1733028950795 10.0
vertex 15.075 21.075 4.0
vertex 15.075 21.075 10.0
endloop
endfacet
facet normal 0.210042012604201 -0.121267812518167 0.970142500145332
outer loop
vertex 18.251485384757 10.5375 2.5
vertex 14.5613318313077 17.1733028950795 4.0
vertex 13.0553329620504 13.5375 4.0
endloop
endfacet
facet normal 0.234271424017756 -0.0627728388752468 0.970142500145332
outer loop
vertex 14.5613318313077 17.1733028950795 4.0
vertex 18.251485384757 10.5375 2.5
vertex 20.3568867890421 15.6203886244644 2.5
endloop
endfacet
facet normal 0.258819045102521 0.965925826289068 0.0
outer loop
vertex 5.45461137553563 41.4318867890421 2.5
vertex 10.5375 39.326485384757 0.0
vertex 5.45461137553563 41.4318867890421 0.0
endloop
endfacet
facet normal 0.5 0.866025403784439 0.0
outer loop
vertex 10.5375 39.326485384757 0.0
vertex 5.45461137553563 41.4318867890421 2.5
vertex 10.5375 39.326485384757 2.5
endloop
endfacet
facet normal 0.965925826289068 -0.258819045102521 0.0
outer loop
vertex 20.3568867890421 15.6203886244644 0.0
vertex 18.251485384757 10.5375 2.5
vertex 18.251485384757 10.5375 0.0
endloop
endfacet
facet normal 0.866025403784439 -0.5 0.0
outer loop
vertex 18.251485384757 10.5375 2.5
vertex 20.3568867890421 15.6203886244644 0.0
vertex 20.3568867890421 15.6203886244644 2.5
endloop
endfacet
facet normal 0.242535625036333 -1.02228890990465e-017 0.970142500145332
outer loop
vertex 15.075 21.075 4.0
vertex 20.3568867890421 26.5296113755356 2.5
vertex 14.5613318313077 24.9766971049205 4.0
endloop
endfacet
facet normal 0.234271424017756 0.0627728388752467 0.970142500145332
outer loop
vertex 20.3568867890421 26.5296113755356 2.5
vertex 15.075 21.075 4.0
vertex 21.075 21.075 2.5
endloop
endfacet
facet normal 0.5 -0.866025403784439 0.0
outer loop
vertex 10.5375 2.82351461524295 2.5
vertex 5.45461137553563 0.718113210957887 0.0
vertex 10.5375 2.82351461524295 0.0
endloop
endfacet
facet normal 0.258819045102521 -0.965925826289068 0.0
outer loop
vertex 5.45461137553563 0.718113210957887 0.0
vertex 10.5375 2.82351461524295 2.5
vertex 5.45461137553563 0.718113210957887 2.5
endloop
endfacet
facet normal -0.258819045102521 0.965925826289068 0.0
outer loop
vertex -5.45461137553562 41.4318867890421 2.5
vertex 0.0 42.15 0.0
vertex -5.45461137553562 41.4318867890421 0.0
endloop
endfacet
facet normal -1.51488868225997e-016 1.0 0.0
outer loop
vertex 0.0 42.15 0.0
vertex -5.45461137553562 41.4318867890421 2.5
vertex 0.0 42.15 2.5
endloop
endfacet
facet normal 0.210042012604202 0.121267812518166 0.970142500145332
outer loop
vertex 13.0553329620504 28.6125 4.0
vertex 14.9022754135065 35.9772754135065 2.5
vertex 10.6596347263872 31.7346347263872 4.0
endloop
endfacet
facet normal 0.171498585142509 0.171498585142509 0.970142500145332
outer loop
vertex 14.9022754135065 35.9772754135065 2.5
vertex 13.0553329620504 28.6125 4.0
vertex 18.251485384757 31.6125 2.5
endloop
endfacet
facet normal 0.0627728388752467 -0.234271424017756 0.970142500145332
outer loop
vertex 5.45461137553563 0.718113210957887 2.5
vertex 7.5375 8.01966703794959 4.0
vertex 3.9016971049205 6.5136681686923 4.0
endloop
endfacet
facet normal 0.121267812518166 -0.210042012604202 0.970142500145332
outer loop
vertex 7.5375 8.01966703794959 4.0
vertex 5.45461137553563 0.718113210957887 2.5
vertex 10.5375 2.82351461524295 2.5
endloop
endfacet
facet normal 0.171498585142509 -0.171498585142509 0.970142500145332
outer loop
vertex 14.9022754135065 6.1727245864935 2.5
vertex 13.0553329620504 13.5375 4.0
vertex 10.6596347263872 10.4153652736128 4.0
endloop
endfacet
facet normal 0.210042012604201 -0.121267812518166 0.970142500145332
outer loop
vertex 13.0553329620504 13.5375 4.0
vertex 14.9022754135065 6.1727245864935 2.5
vertex 18.251485384757 10.5375 2.5
endloop
endfacet
facet normal -0.0627728388752468 0.234271424017756 0.970142500145332
outer loop
vertex -3.90169710492049 35.6363318313077 4.0
vertex 0.0 42.15 2.5
vertex -5.45461137553562 41.4318867890421 2.5
endloop
endfacet
facet normal -4.56793737995543e-017 0.242535625036333 0.970142500145332
outer loop
vertex 0.0 42.15 2.5
vertex -3.90169710492049 35.6363318313077 4.0
vertex 0.0 36.15 4.0
endloop
endfacet
facet normal -0.258819045102521 0.965925826289068 0.0
outer loop
vertex -3.90169710492049 35.6363318313077 10.0
vertex 0.0 36.15 4.0
vertex -3.90169710492049 35.6363318313077 4.0
endloop
endfacet
facet normal -1.51488868225997e-016 1.0 0.0
outer loop
vertex 0.0 36.15 4.0
vertex -3.90169710492049 35.6363318313077 10.0
vertex 0.0 36.15 10.0
endloop
endfacet
facet normal 8.91110989564691e-017 -1.0 7.27016834065618e-019
outer loop
vertex 0.0 32.15 10.0
vertex -2.86642092451041 31.7726285261514 0.0
vertex 0.0 32.15 0.0
endloop
endfacet
facet normal 0.25881904510252 -0.965925826289068 7.27016834065654e-019
outer loop
vertex -2.86642092451041 31.7726285261514 0.0
vertex 0.0 32.15 10.0
vertex -2.86642092451041 31.7726285261514 10.0
endloop
endfacet
facet normal 0.965925826289068 0.258819045102521 0.0
outer loop
vertex 20.3568867890421 26.5296113755356 0.0
vertex 21.075 21.075 2.5
vertex 21.075 21.075 0.0
endloop
endfacet
facet normal 1.0 0.0 0.0
outer loop
vertex 21.075 21.075 2.5
vertex 20.3568867890421 26.5296113755356 0.0
vertex 20.3568867890421 26.5296113755356 2.5
endloop
endfacet
facet normal 0.258819045102521 0.965925826289068 4.86869766459637e-018
outer loop
vertex -2.86642092451043 10.3773714738486 10.0
vertex 0.0 10.0 0.0
vertex -2.86642092451043 10.3773714738486 0.0
endloop
endfacet
facet normal 2.13866637495526e-016 1.0 1.45693562981453e-017
outer loop
vertex 0.0 10.0 0.0
vertex -2.86642092451043 10.3773714738486 10.0
vertex 0.0 10.0 10.0
endloop
endfacet
facet normal 0.866025403784439 -0.5 0.0
outer loop
vertex 13.0553329620504 13.5375 4.0
vertex 10.6596347263872 10.4153652736128 10.0
vertex 10.6596347263872 10.4153652736128 4.0
endloop
endfacet
facet normal 0.707106781186547 -0.707106781186548 0.0
outer loop
vertex 10.6596347263872 10.4153652736128 10.0
vertex 13.0553329620504 13.5375 4.0
vertex 13.0553329620504 13.5375 10.0
endloop
endfacet
facet normal 0.866025403784439 -0.5 0.0
outer loop
vertex 18.251485384757 10.5375 0.0
vertex 14.9022754135065 6.1727245864935 2.5
vertex 14.9022754135065 6.1727245864935 0.0
endloop
endfacet
facet normal 0.707106781186547 -0.707106781186548 0.0
outer loop
vertex 14.9022754135065 6.1727245864935 2.5
vertex 18.251485384757 10.5375 0.0
vertex 18.251485384757 10.5375 2.5
endloop
endfacet
facet normal -1.51488868225997e-016 1.0 0.0
outer loop
vertex 0.0 42.15 2.5
vertex 5.45461137553563 41.4318867890421 0.0
vertex 0.0 42.15 0.0
endloop
endfacet
facet normal 0.258819045102521 0.965925826289068 0.0
outer loop
vertex 5.45461137553563 41.4318867890421 0.0
vertex 0.0 42.15 2.5
vertex 5.45461137553563 41.4318867890421 2.5
endloop
endfacet
facet normal 0.5 -0.866025403784439 0.0
outer loop
vertex 7.5375 8.01966703794959 10.0
vertex 3.9016971049205 6.5136681686923 4.0
vertex 7.5375 8.01966703794959 4.0
endloop
endfacet
facet normal 0.258819045102521 -0.965925826289068 0.0
outer loop
vertex 3.9016971049205 6.5136681686923 4.0
vertex 7.5375 8.01966703794959 10.0
vertex 3.9016971049205 6.5136681686923 10.0
endloop
endfacet
facet normal 0.866025403784439 0.5 0.0
outer loop
vertex 18.251485384757 31.6125 0.0
vertex 20.3568867890421 26.5296113755356 2.5
vertex 20.3568867890421 26.5296113755356 0.0
endloop
endfacet
facet normal 0.965925826289068 0.258819045102521 0.0
outer loop
vertex 20.3568867890421 26.5296113755356 2.5
vertex 18.251485384757 31.6125 0.0
vertex 18.251485384757 31.6125 2.5
endloop
endfacet
facet normal 0.258819045102521 -0.965925826289068 0.0
outer loop
vertex 5.45461137553563 0.718113210957887 2.5
vertex 0.0 -2.20309881449054e-017 0.0
vertex 5.45461137553563 0.718113210957887 0.0
endloop
endfacet
facet normal -4.45555494782345e-017 -1.0 0.0
outer loop
vertex 0.0 -2.20309881449054e-017 0.0
vertex 5.45461137553563 0.718113210957887 2.5
vertex 0.0 -2.20309881449054e-017 2.5
endloop
endfacet
facet normal -0.258819045102521 -0.965925826289068 -4.70446025732827e-018
outer loop
vertex 2.86642092451042 31.7726285261514 10.0
vertex 0.0 32.15 0.0
vertex 2.86642092451042 31.7726285261514 0.0
endloop
endfacet
facet normal 8.91110989564691e-017 -1.0 7.27016834065618e-019
outer loop
vertex 0.0 32.15 0.0
vertex 2.86642092451042 31.7726285261514 10.0
vertex 0.0 32.15 10.0
endloop
endfacet
facet normal -0.707106781186548 0.707106781186547 0.0
outer loop
vertex -14.9022754135065 35.9772754135065 2.5
vertex -10.5375 39.326485384757 0.0
vertex -14.9022754135065 35.9772754135065 0.0
endloop
endfacet
facet normal -0.5 0.866025403784438 0.0
outer loop
vertex -10.5375 39.326485384757 0.0
vertex -14.9022754135065 35.9772754135065 2.5
vertex -10.5375 39.326485384757 2.5
endloop
endfacet
facet normal 0.707106781186548 0.707106781186547 0.0
outer loop
vertex 14.9022754135065 35.9772754135065 0.0
vertex 18.251485384757 31.6125 2.5
vertex 18.251485384757 31.6125 0.0
endloop
endfacet
facet normal 0.866025403784439 0.5 0.0
outer loop
vertex 18.251485384757 31.6125 2.5
vertex 14.9022754135065 35.9772754135065 0.0
vertex 14.9022754135065 35.9772754135065 2.5
endloop
endfacet
facet normal -0.5 0.866025403784439 2.14142420459126e-017
outer loop
vertex 5.5375 11.4837686530873 10.0
vertex 7.83120760164102 13.243792398359 0.0
vertex 5.5375 11.4837686530873 0.0
endloop
endfacet
facet normal -0.707106781186547 0.707106781186548 2.68196204071959e-017
outer loop
vertex 7.83120760164102 13.243792398359 0.0
vertex 5.5375 11.4837686530873 10.0
vertex 7.83120760164102 13.243792398359 10.0
endloop
endfacet
facet normal 2.13866637495526e-016 1.0 1.45693562981453e-017
outer loop
vertex 0.0 10.0 10.0
vertex 2.86642092451042 10.3773714738486 0.0
vertex 0.0 10.0 0.0
endloop
endfacet
facet normal -0.258819045102521 0.965925826289068 2.21239831436397e-017
outer loop
vertex 2.86642092451042 10.3773714738486 0.0
vertex 0.0 10.0 10.0
vertex 2.86642092451042 10.3773714738486 10.0
endloop
endfacet
facet normal 0.0627728388752467 -0.234271424017756 0.970142500145332
outer loop
vertex 5.45461137553563 0.718113210957887 2.5
vertex 0.0 6.0 4.0
vertex 0.0 -2.20309881449054e-017 2.5
endloop
endfacet
facet normal -3.27132451169488e-017 -0.242535625036333 0.970142500145332
outer loop
vertex 0.0 6.0 4.0
vertex 5.45461137553563 0.718113210957887 2.5
vertex 3.9016971049205 6.5136681686923 4.0
endloop
endfacet
facet normal 1.0 0.0 0.0
outer loop
vertex 21.075 21.075 0.0
vertex 20.3568867890421 15.6203886244644 2.5
vertex 20.3568867890421 15.6203886244644 0.0
endloop
endfacet
facet normal 0.965925826289068 -0.258819045102521 0.0
outer loop
vertex 20.3568867890421 15.6203886244644 2.5
vertex 21.075 21.075 0.0
vertex 21.075 21.075 2.5
endloop
endfacet
facet normal -0.866025403784439 -0.5 1.69201580053475e-017
outer loop
vertex 9.59123134691266 26.6125 10.0
vertex 10.6976285261514 23.9414209245104 0.0
vertex 10.6976285261514 23.9414209245104 10.0
endloop
endfacet
facet normal -0.965925826289068 -0.258819045102521 1.77746904393916e-017
outer loop
vertex 10.6976285261514 23.9414209245104 0.0
vertex 9.59123134691266 26.6125 10.0
vertex 9.59123134691266 26.6125 0.0
endloop
endfacet
facet normal 0.500000000000001 0.866025403784438 0.0
outer loop
vertex 7.53750000000001 34.1303329620504 10.0
vertex 10.6596347263872 31.7346347263872 4.0
vertex 7.53750000000001 34.1303329620504 4.0
endloop
endfacet
facet normal 0.707106781186548 0.707106781186547 0.0
outer loop
vertex 10.6596347263872 31.7346347263872 4.0
vertex 7.53750000000001 34.1303329620504 10.0
vertex 10.6596347263872 31.7346347263872 10.0
endloop
endfacet
facet normal 0.258819045102521 -0.965925826289068 0.0
outer loop
vertex 3.9016971049205 6.5136681686923 10.0
vertex 0.0 6.0 4.0
vertex 3.9016971049205 6.5136681686923 4.0
endloop
endfacet
facet normal -3.56444395825876e-017 -1.0 0.0
outer loop
vertex 0.0 6.0 4.0
vertex 3.9016971049205 6.5136681686923 10.0
vertex 0.0 6.0 10.0
endloop
endfacet
facet normal 0.965925826289068 -0.258819045102521 1.28083001455991e-020
outer loop
vertex -10.6976285261514 23.9414209245104 0.0
vertex -11.075 21.075 10.0
vertex -11.075 21.075 0.0
endloop
endfacet
facet normal 1.0 -3.20799956243289e-016 1.41729697248741e-018
outer loop
vertex -11.075 21.075 10.0
vertex -10.6976285261514 23.9414209245104 0.0
vertex -10.6976285261514 23.9414209245104 10.0
endloop
endfacet
facet normal 0.866025403784438 -0.500000000000001 -6.5503981741835e-018
outer loop
vertex -9.59123134691265 26.6125 0.0
vertex -10.6976285261514 23.9414209245104 10.0
vertex -10.6976285261514 23.9414209245104 0.0
endloop
endfacet
facet normal 0.965925826289068 -0.258819045102521 1.28083001455991e-020
outer loop
vertex -10.6976285261514 23.9414209245104 10.0
vertex -9.59123134691265 26.6125 0.0
vertex -9.59123134691265 26.6125 10.0
endloop
endfacet
facet normal -0.965925826289068 -0.258819045102521 1.77746904393916e-017
outer loop
vertex 10.6976285261514 23.9414209245104 10.0
vertex 11.075 21.075 0.0
vertex 11.075 21.075 10.0
endloop
endfacet
facet normal -1.0 0.0 1.93278438758101e-017
outer loop
vertex 11.075 21.075 0.0
vertex 10.6976285261514 23.9414209245104 10.0
vertex 10.6976285261514 23.9414209245104 0.0
endloop
endfacet
facet normal 0.0 0.0 1.0
outer loop
vertex -14.5613318313077 17.1733028950795 10.0
vertex -14.5613318313077 24.9766971049205 10.0
vertex -15.075 21.075 10.0
endloop
endfacet
facet normal 0.0 0.0 1.0
outer loop
vertex -14.5613318313077 24.9766971049205 10.0
vertex -14.5613318313077 17.1733028950795 10.0
vertex -13.0553329620504 13.5375 10.0
endloop
endfacet
facet normal 0.0 0.0 1.0
outer loop
vertex -14.5613318313077 24.9766971049205 10.0
vertex -13.0553329620504 13.5375 10.0
vertex -13.0553329620504 28.6125 10.0
endloop
endfacet
facet normal 0.0 0.0 1.0
outer loop
vertex -13.0553329620504 28.6125 10.0
vertex -13.0553329620504 13.5375 10.0
vertex -10.6596347263872 10.4153652736128 10.0
endloop
endfacet
facet normal 0.0 0.0 1.0
outer loop
vertex -13.0553329620504 28.6125 10.0
vertex -10.6596347263872 10.4153652736128 10.0
vertex -11.075 21.075 10.0
endloop
endfacet
facet normal 0.0 0.0 1.0
outer loop
vertex -11.075 21.075 10.0
vertex -10.6596347263872 10.4153652736128 10.0
vertex -10.6976285261514 18.2085790754896 10.0
endloop
endfacet
facet normal 0.0 0.0 1.0
outer loop
vertex -10.6976285261514 18.2085790754896 10.0
vertex -10.6596347263872 10.4153652736128 10.0
vertex -9.59123134691266 15.5375 10.0
endloop
endfacet
facet normal 0.0 0.0 1.0
outer loop
vertex -9.59123134691266 15.5375 10.0
vertex -10.6596347263872 10.4153652736128 10.0
vertex -7.53750000000001 8.01966703794959 10.0
endloop
endfacet
facet normal 0.0 0.0 1.0
outer loop
vertex -9.59123134691266 15.5375 10.0
vertex -7.53750000000001 8.01966703794959 10.0
vertex -7.83120760164102 13.243792398359 10.0
endloop
endfacet
facet normal 0.0 0.0 1.0
outer loop
vertex -7.83120760164102 13.243792398359 10.0
vertex -7.53750000000001 8.01966703794959 10.0
vertex -5.5375 11.4837686530873 10.0
endloop
endfacet
facet normal 0.0 0.0 1.0
outer loop
vertex -5.5375 11.4837686530873 10.0
vertex -7.53750000000001 8.01966703794959 10.0
vertex -3.90169710492051 6.5136681686923 10.0
endloop
endfacet
facet normal 0.0 0.0 1.0
outer loop
vertex -5.5375 11.4837686530873 10.0
vertex -3.90169710492051 6.5136681686923 10.0
vertex -2.86642092451043 10.3773714738486 10.0
endloop
endfacet
facet normal 0.0 0.0 1.0
outer loop
vertex -2.86642092451043 10.3773714738486 10.0
vertex -3.90169710492051 6.5136681686923 10.0
vertex 0.0 6.0 10.0
endloop
endfacet
facet normal 0.0 0.0 1.0
outer loop
vertex -2.86642092451043 10.3773714738486 10.0
vertex 0.0 6.0 10.0
vertex 0.0 10.0 10.0
endloop
endfacet
facet normal 0.0 0.0 1.0
outer loop
vertex 0.0 10.0 10.0
vertex 0.0 6.0 10.0
vertex 3.9016971049205 6.5136681686923 10.0
endloop
endfacet
facet normal 0.0 0.0 1.0
outer loop
vertex 0.0 10.0 10.0
vertex 3.9016971049205 6.5136681686923 10.0
vertex 2.86642092451042 10.3773714738486 10.0
endloop
endfacet
facet normal 0.0 0.0 1.0
outer loop
vertex 2.86642092451042 10.3773714738486 10.0
vertex 3.9016971049205 6.5136681686923 10.0
vertex 5.5375 11.4837686530873 10.0
endloop
endfacet
facet normal 0.0 0.0 1.0
outer loop
vertex 5.5375 11.4837686530873 10.0
vertex 3.9016971049205 6.5136681686923 10.0
vertex 7.5375 8.01966703794959 10.0
endloop
endfacet
facet normal 0.0 0.0 1.0
outer loop
vertex 5.5375 11.4837686530873 10.0
vertex 7.5375 8.01966703794959 10.0
vertex 7.83120760164102 13.243792398359 10.0
endloop
endfacet
facet normal 0.0 0.0 1.0
outer loop
vertex 7.83120760164102 13.243792398359 10.0
vertex 7.5375 8.01966703794959 10.0
vertex 10.6596347263872 10.4153652736128 10.0
endloop
endfacet
facet normal 0.0 0.0 1.0
outer loop
vertex 7.83120760164102 13.243792398359 10.0
vertex 10.6596347263872 10.4153652736128 10.0
vertex 9.59123134691266 15.5375 10.0
endloop
endfacet
facet normal 0.0 0.0 1.0
outer loop
vertex 9.59123134691266 15.5375 10.0
vertex 10.6596347263872 10.4153652736128 10.0
vertex 10.6976285261514 18.2085790754896 10.0
endloop
endfacet
facet normal 0.0 0.0 1.0
outer loop
vertex 10.6976285261514 18.2085790754896 10.0
vertex 10.6596347263872 10.4153652736128 10.0
vertex 13.0553329620504 13.5375 10.0
endloop
endfacet
facet normal 0.0 0.0 1.0
outer loop
vertex 10.6976285261514 18.2085790754896 10.0
vertex 13.0553329620504 13.5375 10.0
vertex 11.075 21.075 10.0
endloop
endfacet
facet normal 0.0 0.0 1.0
outer loop
vertex -11.075 21.075 10.0
vertex -10.6596347263872 31.7346347263872 10.0
vertex -13.0553329620504 28.6125 10.0
endloop
endfacet
facet normal 0.0 0.0 1.0
outer loop
vertex -10.6596347263872 31.7346347263872 10.0
vertex -11.075 21.075 10.0
vertex -10.6976285261514 23.9414209245104 10.0
endloop
endfacet
facet normal 0.0 0.0 1.0
outer loop
vertex -10.6596347263872 31.7346347263872 10.0
vertex -10.6976285261514 23.9414209245104 10.0
vertex -9.59123134691265 26.6125 10.0
endloop
endfacet
facet normal 0.0 0.0 1.0
outer loop
vertex -10.6596347263872 31.7346347263872 10.0
vertex -9.59123134691265 26.6125 10.0
vertex -7.53749999999999 34.1303329620504 10.0
endloop
endfacet
facet normal 0.0 0.0 1.0
outer loop
vertex -7.53749999999999 34.1303329620504 10.0
vertex -9.59123134691265 26.6125 10.0
vertex -7.83120760164101 28.906207601641 10.0
endloop
endfacet
facet normal 0.0 0.0 1.0
outer loop
vertex -7.53749999999999 34.1303329620504 10.0
vertex -7.83120760164101 28.906207601641 10.0
vertex -5.5375 30.6662313469127 10.0
endloop
endfacet
facet normal 0.0 0.0 1.0
outer loop
vertex -7.53749999999999 34.1303329620504 10.0
vertex -5.5375 30.6662313469127 10.0
vertex -3.90169710492049 35.6363318313077 10.0
endloop
endfacet
facet normal 0.0 0.0 1.0
outer loop
vertex -3.90169710492049 35.6363318313077 10.0
vertex -5.5375 30.6662313469127 10.0
vertex -2.86642092451041 31.7726285261514 10.0
endloop
endfacet
facet normal 0.0 0.0 1.0
outer loop
vertex -3.90169710492049 35.6363318313077 10.0
vertex -2.86642092451041 31.7726285261514 10.0
vertex 0.0 36.15 10.0
endloop
endfacet
facet normal 0.0 0.0 1.0
outer loop
vertex 0.0 36.15 10.0
vertex -2.86642092451041 31.7726285261514 10.0
vertex 0.0 32.15 10.0
endloop
endfacet
facet normal 0.0 0.0 1.0
outer loop
vertex 0.0 36.15 10.0
vertex 0.0 32.15 10.0
vertex 2.86642092451042 31.7726285261514 10.0
endloop
endfacet
facet normal 0.0 0.0 1.0
outer loop
vertex 0.0 36.15 10.0
vertex 2.86642092451042 31.7726285261514 10.0
vertex 3.90169710492051 35.6363318313077 10.0
endloop
endfacet
facet normal 0.0 0.0 1.0
outer loop
vertex 3.90169710492051 35.6363318313077 10.0
vertex 2.86642092451042 31.7726285261514 10.0
vertex 5.5375 30.6662313469127 10.0
endloop
endfacet
facet normal 0.0 0.0 1.0
outer loop
vertex 3.90169710492051 35.6363318313077 10.0
vertex 5.5375 30.6662313469127 10.0
vertex 7.53750000000001 34.1303329620504 10.0
endloop
endfacet
facet normal 0.0 0.0 1.0
outer loop
vertex 7.53750000000001 34.1303329620504 10.0
vertex 5.5375 30.6662313469127 10.0
vertex 7.83120760164102 28.906207601641 10.0
endloop
endfacet
facet normal 0.0 0.0 1.0
outer loop
vertex 7.53750000000001 34.1303329620504 10.0
vertex 7.83120760164102 28.906207601641 10.0
vertex 10.6596347263872 31.7346347263872 10.0
endloop
endfacet
facet normal 0.0 0.0 1.0
outer loop
vertex 10.6596347263872 31.7346347263872 10.0
vertex 7.83120760164102 28.906207601641 10.0
vertex 9.59123134691266 26.6125 10.0
endloop
endfacet
facet normal 0.0 0.0 1.0
outer loop
vertex 10.6596347263872 31.7346347263872 10.0
vertex 9.59123134691266 26.6125 10.0
vertex 10.6976285261514 23.9414209245104 10.0
endloop
endfacet
facet normal 0.0 0.0 1.0
outer loop
vertex 10.6596347263872 31.7346347263872 10.0
vertex 10.6976285261514 23.9414209245104 10.0
vertex 13.0553329620504 28.6125 10.0
endloop
endfacet
facet normal 0.0 0.0 1.0
outer loop
vertex 13.0553329620504 28.6125 10.0
vertex 10.6976285261514 23.9414209245104 10.0
vertex 11.075 21.075 10.0
endloop
endfacet
facet normal 0.0 0.0 1.0
outer loop
vertex 13.0553329620504 28.6125 10.0
vertex 11.075 21.075 10.0
vertex 13.0553329620504 13.5375 10.0
endloop
endfacet
facet normal 0.0 0.0 1.0
outer loop
vertex 13.0553329620504 28.6125 10.0
vertex 13.0553329620504 13.5375 10.0
vertex 14.5613318313077 17.1733028950795 10.0
endloop
endfacet
facet normal 0.0 0.0 1.0
outer loop
vertex 13.0553329620504 28.6125 10.0
vertex 14.5613318313077 17.1733028950795 10.0
vertex 14.5613318313077 24.9766971049205 10.0
endloop
endfacet
facet normal 0.0 0.0 1.0
outer loop
vertex 14.5613318313077 24.9766971049205 10.0
vertex 14.5613318313077 17.1733028950795 10.0
vertex 15.075 21.075 10.0
endloop
endfacet
facet normal -0.866025403784439 -0.5 0.0
outer loop
vertex -13.0553329620504 13.5375 10.0
vertex -10.6596347263872 10.4153652736128 4.0
vertex -10.6596347263872 10.4153652736128 10.0
endloop
endfacet
facet normal -0.707106781186548 -0.707106781186547 0.0
outer loop
vertex -10.6596347263872 10.4153652736128 4.0
vertex -13.0553329620504 13.5375 10.0
vertex -13.0553329620504 13.5375 4.0
endloop
endfacet
facet normal -0.171498585142509 -0.171498585142509 0.970142500145332
outer loop
vertex -14.9022754135065 6.17272458649352 2.5
vertex -13.0553329620504 13.5375 4.0
vertex -18.251485384757 10.5375 2.5
endloop
endfacet
facet normal -0.210042012604202 -0.121267812518167 0.970142500145332
outer loop
vertex -13.0553329620504 13.5375 4.0
vertex -14.9022754135065 6.17272458649352 2.5
vertex -10.6596347263872 10.4153652736128 4.0
endloop
endfacet
facet normal 0.171498585142509 0.171498585142509 0.970142500145332
outer loop
vertex 10.6596347263872 31.7346347263872 4.0
vertex 10.5375 39.326485384757 2.5
vertex 7.53750000000001 34.1303329620504 4.0
endloop
endfacet
facet normal 0.121267812518167 0.210042012604202 0.970142500145332
outer loop
vertex 10.5375 39.326485384757 2.5
vertex 10.6596347263872 31.7346347263872 4.0
vertex 14.9022754135065 35.9772754135065 2.5
endloop
endfacet
facet normal 0.5 0.866025403784439 0.0
outer loop
vertex 10.5375 39.326485384757 2.5
vertex 14.9022754135065 35.9772754135065 0.0
vertex 10.5375 39.326485384757 0.0
endloop
endfacet
facet normal 0.707106781186548 0.707106781186547 0.0
outer loop
vertex 14.9022754135065 35.9772754135065 0.0
vertex 10.5375 39.326485384757 2.5
vertex 14.9022754135065 35.9772754135065 2.5
endloop
endfacet
facet normal 0.121267812518166 -0.210042012604202 0.970142500145332
outer loop
vertex 10.5375 2.82351461524295 2.5
vertex 10.6596347263872 10.4153652736128 4.0
vertex 7.5375 8.01966703794959 4.0
endloop
endfacet
facet normal 0.171498585142509 -0.171498585142509 0.970142500145332
outer loop
vertex 10.6596347263872 10.4153652736128 4.0
vertex 10.5375 2.82351461524295 2.5
vertex 14.9022754135065 6.1727245864935 2.5
endloop
endfacet
facet normal 0.965925826289068 0.258819045102521 0.0
outer loop
vertex 14.5613318313077 24.9766971049205 4.0
vertex 15.075 21.075 10.0
vertex 15.075 21.075 4.0
endloop
endfacet
facet normal 1.0 0.0 0.0
outer loop
vertex 15.075 21.075 10.0
vertex 14.5613318313077 24.9766971049205 4.0
vertex 14.5613318313077 24.9766971049205 10.0
endloop
endfacet
facet normal -0.242535625036333 1.00184313170656e-016 0.970142500145332
outer loop
vertex -15.075 21.075 4.0
vertex -20.3568867890421 26.5296113755356 2.5
vertex -21.075 21.075 2.5
endloop
endfacet
facet normal -0.234271424017756 0.062772838875247 0.970142500145332
outer loop
vertex -20.3568867890421 26.5296113755356 2.5
vertex -15.075 21.075 4.0
vertex -14.5613318313077 24.9766971049205 4.0
endloop
endfacet
facet normal -0.965925826289068 0.258819045102521 0.0
outer loop
vertex -20.3568867890421 26.5296113755356 2.5
vertex -21.075 21.075 0.0
vertex -21.075 21.075 2.5
endloop
endfacet
facet normal -1.0 3.20799956243289e-016 0.0
outer loop
vertex -21.075 21.075 0.0
vertex -20.3568867890421 26.5296113755356 2.5
vertex -20.3568867890421 26.5296113755356 0.0
endloop
endfacet
facet normal 1.0 -3.20799956243289e-016 1.41729697248741e-018
outer loop
vertex -11.075 21.075 0.0
vertex -10.6976285261514 18.2085790754896 10.0
vertex -10.6976285261514 18.2085790754896 0.0
endloop
endfacet
facet normal 0.965925826289068 0.25881904510252 3.97744342326262e-018
outer loop
vertex -10.6976285261514 18.2085790754896 10.0
vertex -11.075 21.075 0.0
vertex -11.075 21.075 10.0
endloop
endfacet
facet normal -0.5 -0.866025403784438 -3.5231709902494e-018
outer loop
vertex 5.5375 30.6662313469127 10.0
vertex 2.86642092451042 31.7726285261514 0.0
vertex 5.5375 30.6662313469127 0.0
endloop
endfacet
facet normal -0.258819045102521 -0.965925826289068 -4.70446025732827e-018
outer loop
vertex 2.86642092451042 31.7726285261514 0.0
vertex 5.5375 30.6662313469127 10.0
vertex 2.86642092451042 31.7726285261514 10.0
endloop
endfacet
facet normal -1.51488868225997e-016 1.0 0.0
outer loop
vertex 0.0 36.15 10.0
vertex 3.90169710492051 35.6363318313077 4.0
vertex 0.0 36.15 4.0
endloop
endfacet
facet normal 0.258819045102521 0.965925826289068 0.0
outer loop
vertex 3.90169710492051 35.6363318313077 4.0
vertex 0.0 36.15 10.0
vertex 3.90169710492051 35.6363318313077 10.0
endloop
endfacet
facet normal 0.0627728388752469 0.234271424017756 0.970142500145332
outer loop
vertex 3.90169710492051 35.6363318313077 4.0
vertex 0.0 42.15 2.5
vertex 0.0 36.15 4.0
endloop
endfacet
facet normal -4.56793737995543e-017 0.242535625036333 0.970142500145332
outer loop
vertex 0.0 42.15 2.5
vertex 3.90169710492051 35.6363318313077 4.0
vertex 5.45461137553563 41.4318867890421 2.5
endloop
endfacet
facet normal -0.965925826289068 -0.25881904510252 0.0
outer loop
vertex -14.5613318313077 17.1733028950795 10.0
vertex -13.0553329620504 13.5375 4.0
vertex -13.0553329620504 13.5375 10.0
endloop
endfacet
facet normal -0.866025403784439 -0.5 0.0
outer loop
vertex -13.0553329620504 13.5375 4.0
vertex -14.5613318313077 17.1733028950795 10.0
vertex -14.5613318313077 17.1733028950795 4.0
endloop
endfacet
facet normal -0.210042012604202 -0.121267812518167 0.970142500145332
outer loop
vertex -18.251485384757 10.5375 2.5
vertex -14.5613318313077 17.1733028950795 4.0
vertex -20.3568867890421 15.6203886244644 2.5
endloop
endfacet
facet normal -0.234271424017756 -0.0627728388752467 0.970142500145332
outer loop
vertex -14.5613318313077 17.1733028950795 4.0
vertex -18.251485384757 10.5375 2.5
vertex -13.0553329620504 13.5375 4.0
endloop
endfacet
facet normal -1.0 3.20799956243289e-016 0.0
outer loop
vertex -21.075 21.075 2.5
vertex -20.3568867890421 15.6203886244644 0.0
vertex -20.3568867890421 15.6203886244644 2.5
endloop
endfacet
facet normal -0.965925826289068 -0.25881904510252 0.0
outer loop
vertex -20.3568867890421 15.6203886244644 0.0
vertex -21.075 21.075 2.5
vertex -21.075 21.075 0.0
endloop
endfacet
facet normal 0.866025403784439 0.5 2.49501392344019e-018
outer loop
vertex -9.59123134691266 15.5375 0.0
vertex -7.83120760164102 13.243792398359 10.0
vertex -7.83120760164102 13.243792398359 0.0
endloop
endfacet
facet normal 0.707106781186548 0.707106781186547 -2.20944633388804e-018
outer loop
vertex -7.83120760164102 13.243792398359 10.0
vertex -9.59123134691266 15.5375 0.0
vertex -9.59123134691266 15.5375 10.0
endloop
endfacet
facet normal 0.965925826289068 0.25881904510252 3.97744342326262e-018
outer loop
vertex -10.6976285261514 18.2085790754896 0.0
vertex -9.59123134691266 15.5375 10.0
vertex -9.59123134691266 15.5375 0.0
endloop
endfacet
facet normal 0.866025403784439 0.5 2.49501392344019e-018
outer loop
vertex -9.59123134691266 15.5375 10.0
vertex -10.6976285261514 18.2085790754896 0.0
vertex -10.6976285261514 18.2085790754896 10.0
endloop
endfacet
facet normal 0.258819045102521 0.965925826289068 0.0
outer loop
vertex 3.90169710492051 35.6363318313077 10.0
vertex 7.53750000000001 34.1303329620504 4.0
vertex 3.90169710492051 35.6363318313077 4.0
endloop
endfacet
facet normal 0.500000000000001 0.866025403784438 0.0
outer loop
vertex 7.53750000000001 34.1303329620504 4.0
vertex 3.90169710492051 35.6363318313077 10.0
vertex 7.53750000000001 34.1303329620504 10.0
endloop
endfacet
facet normal -0.965925826289068 0.258819045102521 3.27943189758223e-017
outer loop
vertex 10.6976285261514 18.2085790754896 10.0
vertex 9.59123134691266 15.5375 0.0
vertex 9.59123134691266 15.5375 10.0
endloop
endfacet
facet normal -0.866025403784439 0.5 3.87780494070944e-017
outer loop
vertex 9.59123134691266 15.5375 0.0
vertex 10.6976285261514 18.2085790754896 10.0
vertex 10.6976285261514 18.2085790754896 0.0
endloop
endfacet
facet normal 0.5 0.866025403784438 9.23600642984745e-033
outer loop
vertex -5.5375 11.4837686530873 10.0
vertex -2.86642092451043 10.3773714738486 0.0
vertex -5.5375 11.4837686530873 0.0
endloop
endfacet
facet normal 0.258819045102521 0.965925826289068 4.86869766459637e-018
outer loop
vertex -2.86642092451043 10.3773714738486 0.0
vertex -5.5375 11.4837686530873 10.0
vertex -2.86642092451043 10.3773714738486 10.0
endloop
endfacet
facet normal -0.965925826289068 0.258819045102522 0.0
outer loop
vertex -14.5613318313077 24.9766971049205 10.0
vertex -15.075 21.075 4.0
vertex -15.075 21.075 10.0
endloop
endfacet
facet normal -1.0 5.25755483843167e-016 0.0
outer loop
vertex -15.075 21.075 4.0
vertex -14.5613318313077 24.9766971049205 10.0
vertex -14.5613318313077 24.9766971049205 4.0
endloop
endfacet
facet normal 0.5 -0.866025403784439 -6.78147120193382e-018
outer loop
vertex -5.5375 30.6662313469127 10.0
vertex -7.83120760164101 28.906207601641 0.0
vertex -5.5375 30.6662313469127 0.0
endloop
endfacet
facet normal 0.707106781186548 -0.707106781186548 -1.12003638697099e-017
outer loop
vertex -7.83120760164101 28.906207601641 0.0
vertex -5.5375 30.6662313469127 10.0
vertex -7.83120760164101 28.906207601641 10.0
endloop
endfacet
facet normal -0.707106781186548 0.707106781186547 0.0
outer loop
vertex -14.9022754135065 35.9772754135065 2.5
vertex -18.251485384757 31.6125 0.0
vertex -18.251485384757 31.6125 2.5
endloop
endfacet
facet normal -0.866025403784438 0.500000000000001 0.0
outer loop
vertex -18.251485384757 31.6125 0.0
vertex -14.9022754135065 35.9772754135065 2.5
vertex -14.9022754135065 35.9772754135065 0.0
endloop
endfacet
facet normal -0.707106781186548 0.707106781186547 0.0
outer loop
vertex -10.6596347263872 31.7346347263872 10.0
vertex -7.53749999999999 34.1303329620504 4.0
vertex -10.6596347263872 31.7346347263872 4.0
endloop
endfacet
facet normal -0.5 0.866025403784438 0.0
outer loop
vertex -7.53749999999999 34.1303329620504 4.0
vertex -10.6596347263872 31.7346347263872 10.0
vertex -7.53749999999999 34.1303329620504 10.0
endloop
endfacet
facet normal 0.121267812518167 0.210042012604201 0.970142500145332
outer loop
vertex 7.53750000000001 34.1303329620504 4.0
vertex 5.45461137553563 41.4318867890421 2.5
vertex 3.90169710492051 35.6363318313077 4.0
endloop
endfacet
facet normal 0.0627728388752469 0.234271424017756 0.970142500145332
outer loop
vertex 5.45461137553563 41.4318867890421 2.5
vertex 7.53750000000001 34.1303329620504 4.0
vertex 10.5375 39.326485384757 2.5
endloop
endfacet
facet normal 0.707106781186547 -0.707106781186548 0.0
outer loop
vertex 14.9022754135065 6.1727245864935 2.5
vertex 10.5375 2.82351461524295 0.0
vertex 14.9022754135065 6.1727245864935 0.0
endloop
endfacet
facet normal 0.5 -0.866025403784439 0.0
outer loop
vertex 10.5375 2.82351461524295 0.0
vertex 14.9022754135065 6.1727245864935 2.5
vertex 10.5375 2.82351461524295 2.5
endloop
endfacet
facet normal -1.0 5.25755483843167e-016 0.0
outer loop
vertex -15.075 21.075 10.0
vertex -14.5613318313077 17.1733028950795 4.0
vertex -14.5613318313077 17.1733028950795 10.0
endloop
endfacet
facet normal -0.965925826289068 -0.25881904510252 0.0
outer loop
vertex -14.5613318313077 17.1733028950795 4.0
vertex -15.075 21.075 10.0
vertex -15.075 21.075 4.0
endloop
endfacet
facet normal -0.234271424017756 -0.0627728388752467 0.970142500145332
outer loop
vertex -20.3568867890421 15.6203886244644 2.5
vertex -15.075 21.075 4.0
vertex -21.075 21.075 2.5
endloop
endfacet
facet normal -0.242535625036333 1.00184313170656e-016 0.970142500145332
outer loop
vertex -15.075 21.075 4.0
vertex -20.3568867890421 15.6203886244644 2.5
vertex -14.5613318313077 17.1733028950795 4.0
endloop
endfacet
facet normal -0.866025403784439 -0.5 0.0
outer loop
vertex -18.251485384757 10.5375 2.5
vertex -14.9022754135065 6.17272458649352 0.0
vertex -14.9022754135065 6.17272458649352 2.5
endloop
endfacet
facet normal -0.707106781186548 -0.707106781186547 0.0
outer loop
vertex -14.9022754135065 6.17272458649352 0.0
vertex -18.251485384757 10.5375 2.5
vertex -18.251485384757 10.5375 0.0
endloop
endfacet
facet normal 0.0 0.0 -1.0
outer loop
vertex -10.5375 39.326485384757 0.0
vertex -11.075 21.075 0.0
vertex -14.9022754135065 35.9772754135065 0.0
endloop
endfacet
facet normal 0.0 0.0 -1.0
outer loop
vertex -11.075 21.075 0.0
vertex -10.5375 39.326485384757 0.0
vertex -10.6976285261514 23.9414209245104 0.0
endloop
endfacet
facet normal 0.0 0.0 -1.0
outer loop
vertex -10.6976285261514 23.9414209245104 0.0
vertex -10.5375 39.326485384757 0.0
vertex -9.59123134691265 26.6125 0.0
endloop
endfacet
facet normal 0.0 0.0 -1.0
outer loop
vertex -9.59123134691265 26.6125 0.0
vertex -10.5375 39.326485384757 0.0
vertex -5.45461137553562 41.4318867890421 0.0
endloop
endfacet
facet normal 0.0 0.0 -1.0
outer loop
vertex -9.59123134691265 26.6125 0.0
vertex -5.45461137553562 41.4318867890421 0.0
vertex -7.83120760164101 28.906207601641 0.0
endloop
endfacet
facet normal 0.0 0.0 -1.0
outer loop
vertex -7.83120760164101 28.906207601641 0.0
vertex -5.45461137553562 41.4318867890421 0.0
vertex -5.5375 30.6662313469127 0.0
endloop
endfacet
facet normal 0.0 0.0 -1.0
outer loop
vertex -5.5375 30.6662313469127 0.0
vertex -5.45461137553562 41.4318867890421 0.0
vertex -2.86642092451041 31.7726285261514 0.0
endloop
endfacet
facet normal 0.0 0.0 -1.0
outer loop
vertex -2.86642092451041 31.7726285261514 0.0
vertex -5.45461137553562 41.4318867890421 0.0
vertex 0.0 42.15 0.0
endloop
endfacet
facet normal 0.0 0.0 -1.0
outer loop
vertex -2.86642092451041 31.7726285261514 0.0
vertex 0.0 42.15 0.0
vertex 0.0 32.15 0.0
endloop
endfacet
facet normal 0.0 0.0 -1.0
outer loop
vertex 0.0 32.15 0.0
vertex 0.0 42.15 0.0
vertex 5.45461137553563 41.4318867890421 0.0
endloop
endfacet
facet normal 0.0 0.0 -1.0
outer loop
vertex 0.0 32.15 0.0
vertex 5.45461137553563 41.4318867890421 0.0
vertex 2.86642092451042 31.7726285261514 0.0
endloop
endfacet
facet normal 0.0 0.0 -1.0
outer loop
vertex 2.86642092451042 31.7726285261514 0.0
vertex 5.45461137553563 41.4318867890421 0.0
vertex 5.5375 30.6662313469127 0.0
endloop
endfacet
facet normal 0.0 0.0 -1.0
outer loop
vertex 5.5375 30.6662313469127 0.0
vertex 5.45461137553563 41.4318867890421 0.0
vertex 10.5375 39.326485384757 0.0
endloop
endfacet
facet normal 0.0 0.0 -1.0
outer loop
vertex 5.5375 30.6662313469127 0.0
vertex 10.5375 39.326485384757 0.0
vertex 7.83120760164102 28.906207601641 0.0
endloop
endfacet
facet normal 0.0 0.0 -1.0
outer loop
vertex 7.83120760164102 28.906207601641 0.0
vertex 10.5375 39.326485384757 0.0
vertex 9.59123134691266 26.6125 0.0
endloop
endfacet
facet normal 0.0 0.0 -1.0
outer loop
vertex 9.59123134691266 26.6125 0.0
vertex 10.5375 39.326485384757 0.0
vertex 10.6976285261514 23.9414209245104 0.0
endloop
endfacet
facet normal 0.0 0.0 -1.0
outer loop
vertex 10.6976285261514 23.9414209245104 0.0
vertex 10.5375 39.326485384757 0.0
vertex 14.9022754135065 35.9772754135065 0.0
endloop
endfacet
facet normal 0.0 0.0 -1.0
outer loop
vertex 10.6976285261514 23.9414209245104 0.0
vertex 14.9022754135065 35.9772754135065 0.0
vertex 11.075 21.075 0.0
endloop
endfacet
facet normal 0.0 0.0 -1.0
outer loop
vertex 11.075 21.075 0.0
vertex 14.9022754135065 35.9772754135065 0.0
vertex 14.9022754135065 6.1727245864935 0.0
endloop
endfacet
facet normal 0.0 0.0 -1.0
outer loop
vertex 14.9022754135065 6.1727245864935 0.0
vertex 14.9022754135065 35.9772754135065 0.0
vertex 18.251485384757 10.5375 0.0
endloop
endfacet
facet normal 0.0 0.0 -1.0
outer loop
vertex 18.251485384757 10.5375 0.0
vertex 14.9022754135065 35.9772754135065 0.0
vertex 18.251485384757 31.6125 0.0
endloop
endfacet
facet normal 0.0 0.0 -1.0
outer loop
vertex 18.251485384757 10.5375 0.0
vertex 18.251485384757 31.6125 0.0
vertex 20.3568867890421 15.6203886244644 0.0
endloop
endfacet
facet normal 0.0 0.0 -1.0
outer loop
vertex 20.3568867890421 15.6203886244644 0.0
vertex 18.251485384757 31.6125 0.0
vertex 20.3568867890421 26.5296113755356 0.0
endloop
endfacet
facet normal 0.0 0.0 -1.0
outer loop
vertex 20.3568867890421 15.6203886244644 0.0
vertex 20.3568867890421 26.5296113755356 0.0
vertex 21.075 21.075 0.0
endloop
endfacet
facet normal 0.0 0.0 -1.0
outer loop
vertex -20.3568867890421 26.5296113755356 0.0
vertex -20.3568867890421 15.6203886244644 0.0
vertex -21.075 21.075 0.0
endloop
endfacet
facet normal 0.0 0.0 -1.0
outer loop
vertex -20.3568867890421 15.6203886244644 0.0
vertex -20.3568867890421 26.5296113755356 0.0
vertex -18.251485384757 10.5375 0.0
endloop
endfacet
facet normal 0.0 0.0 -1.0
outer loop
vertex -18.251485384757 10.5375 0.0
vertex -20.3568867890421 26.5296113755356 0.0
vertex -18.251485384757 31.6125 0.0
endloop
endfacet
facet normal 0.0 0.0 -1.0
outer loop
vertex -18.251485384757 10.5375 0.0
vertex -18.251485384757 31.6125 0.0
vertex -14.9022754135065 6.17272458649352 0.0
endloop
endfacet
facet normal 0.0 0.0 -1.0
outer loop
vertex -14.9022754135065 6.17272458649352 0.0
vertex -18.251485384757 31.6125 0.0
vertex -14.9022754135065 35.9772754135065 0.0
endloop
endfacet
facet normal 0.0 0.0 -1.0
outer loop
vertex -14.9022754135065 6.17272458649352 0.0
vertex -14.9022754135065 35.9772754135065 0.0
vertex -10.5375 2.82351461524297 0.0
endloop
endfacet
facet normal 0.0 0.0 -1.0
outer loop
vertex -10.5375 2.82351461524297 0.0
vertex -14.9022754135065 35.9772754135065 0.0
vertex -11.075 21.075 0.0
endloop
endfacet
facet normal 0.0 0.0 -1.0
outer loop
vertex -10.5375 2.82351461524297 0.0
vertex -11.075 21.075 0.0
vertex -10.6976285261514 18.2085790754896 0.0
endloop
endfacet
facet normal 0.0 0.0 -1.0
outer loop
vertex -10.5375 2.82351461524297 0.0
vertex -10.6976285261514 18.2085790754896 0.0
vertex -9.59123134691266 15.5375 0.0
endloop
endfacet
facet normal 0.0 0.0 -1.0
outer loop
vertex -10.5375 2.82351461524297 0.0
vertex -9.59123134691266 15.5375 0.0
vertex -5.45461137553564 0.718113210957901 0.0
endloop
endfacet
facet normal 0.0 0.0 -1.0
outer loop
vertex -5.45461137553564 0.718113210957901 0.0
vertex -9.59123134691266 15.5375 0.0
vertex -7.83120760164102 13.243792398359 0.0
endloop
endfacet
facet normal 0.0 0.0 -1.0
outer loop
vertex -5.45461137553564 0.718113210957901 0.0
vertex -7.83120760164102 13.243792398359 0.0
vertex -5.5375 11.4837686530873 0.0
endloop
endfacet
facet normal 0.0 0.0 -1.0
outer loop
vertex -5.45461137553564 0.718113210957901 0.0
vertex -5.5375 11.4837686530873 0.0
vertex -2.86642092451043 10.3773714738486 0.0
endloop
endfacet
facet normal 0.0 0.0 -1.0
outer loop
vertex -5.45461137553564 0.718113210957901 0.0
vertex -2.86642092451043 10.3773714738486 0.0
vertex 0.0 -2.20309881449054e-017 0.0
endloop
endfacet
facet normal 0.0 0.0 -1.0
outer loop
vertex 0.0 -2.20309881449054e-017 0.0
vertex -2.86642092451043 10.3773714738486 0.0
vertex 0.0 10.0 0.0
endloop
endfacet
facet normal 0.0 0.0 -1.0
outer loop
vertex 0.0 -2.20309881449054e-017 0.0
vertex 0.0 10.0 0.0
vertex 2.86642092451042 10.3773714738486 0.0
endloop
endfacet
facet normal 0.0 0.0 -1.0
outer loop
vertex 0.0 -2.20309881449054e-017 0.0
vertex 2.86642092451042 10.3773714738486 0.0
vertex 5.45461137553563 0.718113210957887 0.0
endloop
endfacet
facet normal 0.0 0.0 -1.0
outer loop
vertex 5.45461137553563 0.718113210957887 0.0
vertex 2.86642092451042 10.3773714738486 0.0
vertex 5.5375 11.4837686530873 0.0
endloop
endfacet
facet normal 0.0 0.0 -1.0
outer loop
vertex 5.45461137553563 0.718113210957887 0.0
vertex 5.5375 11.4837686530873 0.0
vertex 10.5375 2.82351461524295 0.0
endloop
endfacet
facet normal 0.0 0.0 -1.0
outer loop
vertex 10.5375 2.82351461524295 0.0
vertex 5.5375 11.4837686530873 0.0
vertex 7.83120760164102 13.243792398359 0.0
endloop
endfacet
facet normal 0.0 0.0 -1.0
outer loop
vertex 10.5375 2.82351461524295 0.0
vertex 7.83120760164102 13.243792398359 0.0
vertex 9.59123134691266 15.5375 0.0
endloop
endfacet
facet normal 0.0 0.0 -1.0
outer loop
vertex 10.5375 2.82351461524295 0.0
vertex 9.59123134691266 15.5375 0.0
vertex 10.6976285261514 18.2085790754896 0.0
endloop
endfacet
facet normal 0.0 0.0 -1.0
outer loop
vertex 10.5375 2.82351461524295 0.0
vertex 10.6976285261514 18.2085790754896 0.0
vertex 14.9022754135065 6.1727245864935 0.0
endloop
endfacet
facet normal 0.0 0.0 -1.0
outer loop
vertex 14.9022754135065 6.1727245864935 0.0
vertex 10.6976285261514 18.2085790754896 0.0
vertex 11.075 21.075 0.0
endloop
endfacet
facet normal -0.5 -0.866025403784438 0.0
outer loop
vertex -7.53750000000001 8.01966703794959 10.0
vertex -10.6596347263872 10.4153652736128 4.0
vertex -7.53750000000001 8.01966703794959 4.0
endloop
endfacet
facet normal -0.707106781186548 -0.707106781186547 0.0
outer loop
vertex -10.6596347263872 10.4153652736128 4.0
vertex -7.53750000000001 8.01966703794959 10.0
vertex -10.6596347263872 10.4153652736128 10.0
endloop
endfacet
facet normal -0.121267812518167 -0.210042012604202 0.970142500145332
outer loop
vertex -10.5375 2.82351461524297 2.5
vertex -10.6596347263872 10.4153652736128 4.0
vertex -14.9022754135065 6.17272458649352 2.5
endloop
endfacet
facet normal -0.171498585142509 -0.171498585142509 0.970142500145332
outer loop
vertex -10.6596347263872 10.4153652736128 4.0
vertex -10.5375 2.82351461524297 2.5
vertex -7.53750000000001 8.01966703794959 4.0
endloop
endfacet
facet normal -0.5 -0.866025403784438 0.0
outer loop
vertex -10.5375 2.82351461524297 2.5
vertex -14.9022754135065 6.17272458649352 0.0
vertex -10.5375 2.82351461524297 0.0
endloop
endfacet
facet normal -0.707106781186548 -0.707106781186547 0.0
outer loop
vertex -14.9022754135065 6.17272458649352 0.0
vertex -10.5375 2.82351461524297 2.5
vertex -14.9022754135065 6.17272458649352 2.5
endloop
endfacet
facet normal 0.707106781186548 0.707106781186547 -2.20944633388804e-018
outer loop
vertex -7.83120760164102 13.243792398359 10.0
vertex -5.5375 11.4837686530873 0.0
vertex -7.83120760164102 13.243792398359 0.0
endloop
endfacet
facet normal 0.5 0.866025403784438 9.23600642984745e-033
outer loop
vertex -5.5375 11.4837686530873 0.0
vertex -7.83120760164102 13.243792398359 10.0
vertex -5.5375 11.4837686530873 10.0
endloop
endfacet
facet normal -0.258819045102521 -0.965925826289068 0.0
outer loop
vertex -3.90169710492051 6.5136681686923 10.0
vertex -7.53750000000001 8.01966703794959 4.0
vertex -3.90169710492051 6.5136681686923 4.0
endloop
endfacet
facet normal -0.5 -0.866025403784438 0.0
outer loop
vertex -7.53750000000001 8.01966703794959 4.0
vertex -3.90169710492051 6.5136681686923 10.0
vertex -7.53750000000001 8.01966703794959 10.0
endloop
endfacet
facet normal -0.0627728388752469 -0.234271424017756 0.970142500145332
outer loop
vertex -5.45461137553564 0.718113210957901 2.5
vertex -7.53750000000001 8.01966703794959 4.0
vertex -10.5375 2.82351461524297 2.5
endloop
endfacet
facet normal -0.121267812518167 -0.210042012604202 0.970142500145332
outer loop
vertex -7.53750000000001 8.01966703794959 4.0
vertex -5.45461137553564 0.718113210957901 2.5
vertex -3.90169710492051 6.5136681686923 4.0
endloop
endfacet
facet normal -0.258819045102521 -0.965925826289068 0.0
outer loop
vertex -5.45461137553564 0.718113210957901 2.5
vertex -10.5375 2.82351461524297 0.0
vertex -5.45461137553564 0.718113210957901 0.0
endloop
endfacet
facet normal -0.5 -0.866025403784438 0.0
outer loop
vertex -10.5375 2.82351461524297 0.0
vertex -5.45461137553564 0.718113210957901 2.5
vertex -10.5375 2.82351461524297 2.5
endloop
endfacet
facet normal -0.866025403784438 0.500000000000001 0.0
outer loop
vertex -13.0553329620504 28.6125 10.0
vertex -14.5613318313077 24.9766971049205 4.0
vertex -14.5613318313077 24.9766971049205 10.0
endloop
endfacet
facet normal -0.965925826289068 0.258819045102522 0.0
outer loop
vertex -14.5613318313077 24.9766971049205 4.0
vertex -13.0553329620504 28.6125 10.0
vertex -13.0553329620504 28.6125 4.0
endloop
endfacet
facet normal -0.234271424017756 0.062772838875247 0.970142500145332
outer loop
vertex -14.5613318313077 24.9766971049205 4.0
vertex -18.251485384757 31.6125 2.5
vertex -20.3568867890421 26.5296113755356 2.5
endloop
endfacet
facet normal -0.210042012604202 0.121267812518167 0.970142500145332
outer loop
vertex -18.251485384757 31.6125 2.5
vertex -14.5613318313077 24.9766971049205 4.0
vertex -13.0553329620504 28.6125 4.0
endloop
endfacet
facet normal -0.866025403784438 0.500000000000001 0.0
outer loop
vertex -18.251485384757 31.6125 2.5
vertex -20.3568867890421 26.5296113755356 0.0
vertex -20.3568867890421 26.5296113755356 2.5
endloop
endfacet
facet normal -0.965925826289068 0.258819045102521 0.0
outer loop
vertex -20.3568867890421 26.5296113755356 0.0
vertex -18.251485384757 31.6125 2.5
vertex -18.251485384757 31.6125 0.0
endloop
endfacet
facet normal 0.965925826289068 -0.258819045102521 0.0
outer loop
vertex 14.5613318313077 17.1733028950795 4.0
vertex 13.0553329620504 13.5375 10.0
vertex 13.0553329620504 13.5375 4.0
endloop
endfacet
facet normal 0.866025403784439 -0.5 0.0
outer loop
vertex 13.0553329620504 13.5375 10.0
vertex 14.5613318313077 17.1733028950795 4.0
vertex 14.5613318313077 17.1733028950795 10.0
endloop
endfacet
facet normal -0.121267812518167 0.210042012604202 0.970142500145332
outer loop
vertex -7.53749999999999 34.1303329620504 4.0
vertex -5.45461137553562 41.4318867890421 2.5
vertex -10.5375 39.326485384757 2.5
endloop
endfacet
facet normal -0.0627728388752468 0.234271424017756 0.970142500145332
outer loop
vertex -5.45461137553562 41.4318867890421 2.5
vertex -7.53749999999999 34.1303329620504 4.0
vertex -3.90169710492049 35.6363318313077 4.0
endloop
endfacet
facet normal -0.5 0.866025403784438 0.0
outer loop
vertex -10.5375 39.326485384757 2.5
vertex -5.45461137553562 41.4318867890421 0.0
vertex -10.5375 39.326485384757 0.0
endloop
endfacet
facet normal -0.258819045102521 0.965925826289068 0.0
outer loop
vertex -5.45461137553562 41.4318867890421 0.0
vertex -10.5375 39.326485384757 2.5
vertex -5.45461137553562 41.4318867890421 2.5
endloop
endfacet
facet normal 0.707106781186548 -0.707106781186548 -1.12003638697099e-017
outer loop
vertex -7.83120760164101 28.906207601641 0.0
vertex -9.59123134691265 26.6125 10.0
vertex -9.59123134691265 26.6125 0.0
endloop
endfacet
facet normal 0.866025403784438 -0.500000000000001 -6.5503981741835e-018
outer loop
vertex -9.59123134691265 26.6125 10.0
vertex -7.83120760164101 28.906207601641 0.0
vertex -7.83120760164101 28.906207601641 10.0
endloop
endfacet
facet normal -0.5 0.866025403784438 0.0
outer loop
vertex -7.53749999999999 34.1303329620504 10.0
vertex -3.90169710492049 35.6363318313077 4.0
vertex -7.53749999999999 34.1303329620504 4.0
endloop
endfacet
facet normal -0.258819045102521 0.965925826289068 0.0
outer loop
vertex -3.90169710492049 35.6363318313077 4.0
vertex -7.53749999999999 34.1303329620504 10.0
vertex -3.90169710492049 35.6363318313077 10.0
endloop
endfacet
facet normal -0.210042012604202 0.121267812518167 0.970142500145332
outer loop
vertex -13.0553329620504 28.6125 4.0
vertex -14.9022754135065 35.9772754135065 2.5
vertex -18.251485384757 31.6125 2.5
endloop
endfacet
facet normal -0.171498585142509 0.171498585142509 0.970142500145332
outer loop
vertex -14.9022754135065 35.9772754135065 2.5
vertex -13.0553329620504 28.6125 4.0
vertex -10.6596347263872 31.7346347263872 4.0
endloop
endfacet
facet normal -0.171498585142509 0.171498585142509 0.970142500145332
outer loop
vertex -10.6596347263872 31.7346347263872 4.0
vertex -10.5375 39.326485384757 2.5
vertex -14.9022754135065 35.9772754135065 2.5
endloop
endfacet
facet normal -0.121267812518167 0.210042012604202 0.970142500145332
outer loop
vertex -10.5375 39.326485384757 2.5
vertex -10.6596347263872 31.7346347263872 4.0
vertex -7.53749999999999 34.1303329620504 4.0
endloop
endfacet
facet normal -0.707106781186548 0.707106781186547 0.0
outer loop
vertex -10.6596347263872 31.7346347263872 10.0
vertex -13.0553329620504 28.6125 4.0
vertex -13.0553329620504 28.6125 10.0
endloop
endfacet
facet normal -0.866025403784438 0.500000000000001 0.0
outer loop
vertex -13.0553329620504 28.6125 4.0
vertex -10.6596347263872 31.7346347263872 10.0
vertex -10.6596347263872 31.7346347263872 4.0
endloop
endfacet
facet normal -0.866025403784439 0.5 3.87780494070944e-017
outer loop
vertex 9.59123134691266 15.5375 10.0
vertex 7.83120760164102 13.243792398359 0.0
vertex 7.83120760164102 13.243792398359 10.0
endloop
endfacet
facet normal -0.707106781186547 0.707106781186548 2.68196204071959e-017
outer loop
vertex 7.83120760164102 13.243792398359 0.0
vertex 9.59123134691266 15.5375 10.0
vertex 9.59123134691266 15.5375 0.0
endloop
endfacet
facet normal -1.0 0.0 1.93278438758101e-017
outer loop
vertex 11.075 21.075 10.0
vertex 10.6976285261514 18.2085790754896 0.0
vertex 10.6976285261514 18.2085790754896 10.0
endloop
endfacet
facet normal -0.965925826289068 0.258819045102521 3.27943189758223e-017
outer loop
vertex 10.6976285261514 18.2085790754896 0.0
vertex 11.075 21.075 10.0
vertex 11.075 21.075 0.0
endloop
endfacet
endsolid Pulleyv4
