solid white-board-hanger2
facet normal 5.10112698908488e-019 -2.63353514666954e-018 1.0
outer loop
vertex 75.0 -20.1 0.0
vertex 56.1 -15.9 0.0
vertex 56.1 -20.1 0.0
endloop
endfacet
facet normal -0.0327190828217769 -1.05798916902245e-018 0.999464587476366
outer loop
vertex 56.1 -15.9 0.0
vertex 75.0 -20.1 0.0
vertex 72.0 -15.9 0.0
endloop
endfacet
facet normal 5.10112698908488e-019 -2.63353514666954e-018 1.0
outer loop
vertex 72.0 -15.9 0.0
vertex 75.0 -20.1 0.0
vertex 72.0 0.0 0.0
endloop
endfacet
facet normal 5.10112698908488e-019 -2.63353514666954e-018 1.0
outer loop
vertex 72.0 0.0 0.0
vertex 0.0 0.0 0.0
vertex 0.0 -3.0 0.0
endloop
endfacet
facet normal 5.10112698908488e-019 -2.63353514666954e-018 1.0
outer loop
vertex 0.0 0.0 0.0
vertex 72.0 0.0 0.0
vertex 75.0 3.0 0.0
endloop
endfacet
facet normal 5.10112698908488e-019 -2.63353514666954e-018 1.0
outer loop
vertex 75.0 3.0 0.0
vertex 72.0 0.0 0.0
vertex 75.0 -20.1 0.0
endloop
endfacet
facet normal 5.10112698908488e-019 -2.63353514666954e-018 1.0
outer loop
vertex 0.0 -3.0 0.0
vertex -4.4 0.0 0.0
vertex -4.4 -3.0 0.0
endloop
endfacet
facet normal 5.10112698908488e-019 -2.63353514666954e-018 1.0
outer loop
vertex -4.4 0.0 0.0
vertex 0.0 -3.0 0.0
vertex -4.4 49.0 0.0
endloop
endfacet
facet normal 5.10112698908488e-019 -2.63353514666954e-018 1.0
outer loop
vertex -4.4 49.0 0.0
vertex 0.0 -3.0 0.0
vertex -1.84160068989706 52.95 0.0
endloop
endfacet
facet normal 5.10112698908488e-019 -2.63353514666954e-018 1.0
outer loop
vertex -1.84160068989706 52.95 0.0
vertex 0.0 -3.0 0.0
vertex -0.586143571373723 54.5861435713737 0.0
endloop
endfacet
facet normal 5.10112698908488e-019 -2.63353514666954e-018 1.0
outer loop
vertex -0.586143571373723 54.5861435713737 0.0
vertex 0.0 -3.0 0.0
vertex 0.0 49.0 0.0
endloop
endfacet
facet normal 5.10112698908488e-019 -2.63353514666954e-018 1.0
outer loop
vertex -0.586143571373723 54.5861435713737 0.0
vertex 0.0 49.0 0.0
vertex 0.170370868554659 50.2940952255126 0.0
endloop
endfacet
facet normal 5.10112698908488e-019 -2.63353514666954e-018 1.0
outer loop
vertex -0.586143571373723 54.5861435713737 0.0
vertex 0.170370868554659 50.2940952255126 0.0
vertex 1.05000000000001 55.8416006898971 0.0
endloop
endfacet
facet normal 5.10112698908488e-019 -2.63353514666954e-018 1.0
outer loop
vertex 0.0 49.0 0.0
vertex 0.0 -3.0 0.0
vertex 0.0 0.0 0.0
endloop
endfacet
facet normal 5.10112698908488e-019 -2.63353514666954e-018 1.0
outer loop
vertex 1.05000000000001 55.8416006898971 0.0
vertex 0.170370868554659 50.2940952255126 0.0
vertex 0.669872981077808 51.5 0.0
endloop
endfacet
facet normal 5.10112698908488e-019 -2.63353514666954e-018 1.0
outer loop
vertex 1.05000000000001 55.8416006898971 0.0
vertex 0.669872981077808 51.5 0.0
vertex 1.46446609406726 52.5355339059327 0.0
endloop
endfacet
facet normal 5.10112698908488e-019 -2.63353514666954e-018 1.0
outer loop
vertex 1.05000000000001 55.8416006898971 0.0
vertex 1.46446609406726 52.5355339059327 0.0
vertex 2.95532954369009 56.6308140276836 0.0
endloop
endfacet
facet normal 5.10112698908488e-019 -2.63353514666954e-018 1.0
outer loop
vertex 2.95532954369009 56.6308140276836 0.0
vertex 1.46446609406726 52.5355339059327 0.0
vertex 2.5 53.3301270189222 0.0
endloop
endfacet
facet normal 5.10112698908488e-019 -2.63353514666954e-018 1.0
outer loop
vertex 2.95532954369009 56.6308140276836 0.0
vertex 2.5 53.3301270189222 0.0
vertex 3.7059047744874 53.8296291314453 0.0
endloop
endfacet
facet normal 5.10112698908488e-019 -2.63353514666954e-018 1.0
outer loop
vertex 2.95532954369009 56.6308140276836 0.0
vertex 3.7059047744874 53.8296291314453 0.0
vertex 5.0 56.9 0.0
endloop
endfacet
facet normal 5.10112698908488e-019 -2.63353514666954e-018 1.0
outer loop
vertex 5.0 56.9 0.0
vertex 3.7059047744874 53.8296291314453 0.0
vertex 5.0 54.0 0.0
endloop
endfacet
facet normal 5.10112698908488e-019 -2.63353514666954e-018 1.0
outer loop
vertex 5.0 56.9 0.0
vertex 5.0 54.0 0.0
vertex 6.29409522551261 53.8296291314453 0.0
endloop
endfacet
facet normal 5.10112698908488e-019 -2.63353514666954e-018 1.0
outer loop
vertex 5.0 56.9 0.0
vertex 6.29409522551261 53.8296291314453 0.0
vertex 7.04467045630992 56.6308140276836 0.0
endloop
endfacet
facet normal 5.10112698908488e-019 -2.63353514666954e-018 1.0
outer loop
vertex 7.04467045630992 56.6308140276836 0.0
vertex 6.29409522551261 53.8296291314453 0.0
vertex 7.5 53.3301270189222 0.0
endloop
endfacet
facet normal 5.10112698908488e-019 -2.63353514666954e-018 1.0
outer loop
vertex 7.04467045630992 56.6308140276836 0.0
vertex 7.5 53.3301270189222 0.0
vertex 8.95 55.8416006898971 0.0
endloop
endfacet
facet normal 5.10112698908488e-019 -2.63353514666954e-018 1.0
outer loop
vertex 8.95 55.8416006898971 0.0
vertex 7.5 53.3301270189222 0.0
vertex 25.25 42.5048094716167 0.0
endloop
endfacet
facet normal 5.10112698908488e-019 -2.63353514666954e-018 1.0
outer loop
vertex 8.95 55.8416006898971 0.0
vertex 25.25 42.5048094716167 0.0
vertex 10.7577842921763 54.362457029011 0.0
endloop
endfacet
facet normal 5.10112698908488e-019 -2.63353514666954e-018 1.0
outer loop
vertex 10.7577842921763 54.362457029011 0.0
vertex 25.25 42.5048094716167 0.0
vertex 26.5 44.6698729810778 0.0
endloop
endfacet
facet normal 5.10112698908488e-019 -2.63353514666954e-018 1.0
outer loop
vertex 26.5 44.6698729810778 0.0
vertex 25.25 42.5048094716167 0.0
vertex 27.0588571617311 41.755556302832 0.0
endloop
endfacet
facet normal 5.10112698908488e-019 -2.63353514666954e-018 1.0
outer loop
vertex 26.5 44.6698729810778 0.0
vertex 27.0588571617311 41.755556302832 0.0
vertex 27.7059047744874 44.1703708685546 0.0
endloop
endfacet
facet normal 5.10112698908488e-019 -2.63353514666954e-018 1.0
outer loop
vertex 27.7059047744874 44.1703708685546 0.0
vertex 27.0588571617311 41.755556302832 0.0
vertex 29.0 41.5 0.0
endloop
endfacet
facet normal 5.10112698908488e-019 -2.63353514666954e-018 1.0
outer loop
vertex 27.7059047744874 44.1703708685546 0.0
vertex 29.0 41.5 0.0
vertex 29.0 44.0 0.0
endloop
endfacet
facet normal 5.10112698908488e-019 -2.63353514666954e-018 1.0
outer loop
vertex 29.0 44.0 0.0
vertex 29.0 41.5 0.0
vertex 30.9411428382689 41.755556302832 0.0
endloop
endfacet
facet normal 5.10112698908488e-019 -2.63353514666954e-018 1.0
outer loop
vertex 29.0 44.0 0.0
vertex 30.9411428382689 41.755556302832 0.0
vertex 30.2940952255126 44.1703708685546 0.0
endloop
endfacet
facet normal 5.10112698908488e-019 -2.63353514666954e-018 1.0
outer loop
vertex 30.2940952255126 44.1703708685546 0.0
vertex 30.9411428382689 41.755556302832 0.0
vertex 31.5 44.6698729810778 0.0
endloop
endfacet
facet normal 5.10112698908488e-019 -2.63353514666954e-018 1.0
outer loop
vertex 31.5 44.6698729810778 0.0
vertex 30.9411428382689 41.755556302832 0.0
vertex 32.75 42.5048094716167 0.0
endloop
endfacet
facet normal 5.10112698908488e-019 -2.63353514666954e-018 1.0
outer loop
vertex 31.5 44.6698729810778 0.0
vertex 32.75 42.5048094716167 0.0
vertex 32.5355339059327 45.4644660940673 0.0
endloop
endfacet
facet normal 5.10112698908488e-019 -2.63353514666954e-018 1.0
outer loop
vertex 32.5355339059327 45.4644660940673 0.0
vertex 32.75 42.5048094716167 0.0
vertex 33.3301270189222 46.5 0.0
endloop
endfacet
facet normal 5.10112698908488e-019 -2.63353514666954e-018 1.0
outer loop
vertex 33.3301270189222 46.5 0.0
vertex 32.75 42.5048094716167 0.0
vertex 34.0 43.4639682065904 0.0
endloop
endfacet
facet normal 5.10112698908488e-019 -2.63353514666954e-018 1.0
outer loop
vertex 33.3301270189222 46.5 0.0
vertex 34.0 43.4639682065904 0.0
vertex 33.8296291314453 47.7059047744874 0.0
endloop
endfacet
facet normal 5.10112698908488e-019 -2.63353514666954e-018 1.0
outer loop
vertex 33.8296291314453 47.7059047744874 0.0
vertex 34.0 43.4639682065904 0.0
vertex 34.0 49.0 0.0
endloop
endfacet
facet normal 5.10112698908488e-019 -2.63353514666954e-018 1.0
outer loop
vertex 34.0 49.0 0.0
vertex 34.0 43.4639682065904 0.0
vertex 34.3033008588991 43.6966991411009 0.0
endloop
endfacet
facet normal 5.10112698908488e-019 -2.63353514666954e-018 1.0
outer loop
vertex 34.0 49.0 0.0
vertex 34.3033008588991 43.6966991411009 0.0
vertex 36.5 49.0 0.0
endloop
endfacet
facet normal 5.10112698908488e-019 -2.63353514666954e-018 1.0
outer loop
vertex 36.5 49.0 0.0
vertex 34.3033008588991 43.6966991411009 0.0
vertex 35.4951905283833 45.25 0.0
endloop
endfacet
facet normal 5.10112698908488e-019 -2.63353514666954e-018 1.0
outer loop
vertex 36.5 49.0 0.0
vertex 35.4951905283833 45.25 0.0
vertex 36.244443697168 47.0588571617311 0.0
endloop
endfacet
facet normal 0.0 0.0 1.0
outer loop
vertex 10.7577842921763 54.362457029011 0.0
vertex 10.5861435713737 54.5861435713737 0.0
vertex 8.95 55.8416006898971 0.0
endloop
endfacet
facet normal 1.0 0.0 0.0
outer loop
vertex 75.0 3.0 -20.0
vertex 75.0 -20.1 0.0
vertex 75.0 -20.1 -20.0
endloop
endfacet
facet normal 1.0 0.0 0.0
outer loop
vertex 75.0 -20.1 0.0
vertex 75.0 3.0 -20.0
vertex 75.0 3.0 0.0
endloop
endfacet
facet normal 0.0416305447121813 -0.999133073092352 0.0
outer loop
vertex 72.0 0.0 0.0
vertex 0.0 -3.0 -20.0
vertex 72.0 0.0 -20.0
endloop
endfacet
facet normal 0.020819785153167 -0.999783244781676 0.0
outer loop
vertex 0.0 -3.0 -20.0
vertex 72.0 0.0 0.0
vertex 0.0 -3.0 0.0
endloop
endfacet
facet normal 0.020819785153167 -0.999783244781676 0.0
outer loop
vertex 0.0 -3.0 0.0
vertex -4.4 -3.0 -20.0
vertex 0.0 -3.0 -20.0
endloop
endfacet
facet normal 8.01126841632926e-017 -1.0 0.0
outer loop
vertex -4.4 -3.0 -20.0
vertex 0.0 -3.0 0.0
vertex -4.4 -3.0 0.0
endloop
endfacet
facet normal -1.0 0.0 0.0
outer loop
vertex -4.4 0.0 0.0
vertex -4.4 -3.0 -20.0
vertex -4.4 -3.0 0.0
endloop
endfacet
facet normal -1.0 0.0 0.0
outer loop
vertex -4.4 -3.0 -20.0
vertex -4.4 0.0 0.0
vertex -4.4 0.0 -20.0
endloop
endfacet
facet normal -1.0 4.31627522838964e-017 0.0
outer loop
vertex -4.4 49.0 0.0
vertex -4.4 0.0 -20.0
vertex -4.4 0.0 0.0
endloop
endfacet
facet normal -1.0 4.31627522838964e-017 0.0
outer loop
vertex -4.4 0.0 -20.0
vertex -4.4 49.0 0.0
vertex -4.4 49.0 -20.0
endloop
endfacet
facet normal -0.816989079851012 0.576653139594502 0.0
outer loop
vertex -1.84160068989706 52.95 0.0
vertex -4.4 49.0 -20.0
vertex -4.4 49.0 0.0
endloop
endfacet
facet normal -0.839326141385066 0.543628207866053 0.0
outer loop
vertex -4.4 49.0 -20.0
vertex -1.84160068989706 52.95 0.0
vertex -1.84160068989706 52.95 -20.0
endloop
endfacet
facet normal -0.707106781186547 0.707106781186548 0.0
outer loop
vertex -0.586143571373723 54.5861435713737 0.0
vertex -1.84160068989706 52.95 -20.0
vertex -1.84160068989706 52.95 0.0
endloop
endfacet
facet normal -0.816989079851012 0.576653139594502 0.0
outer loop
vertex -1.84160068989706 52.95 -20.0
vertex -0.586143571373723 54.5861435713737 0.0
vertex -0.586143571373723 54.5861435713737 -20.0
endloop
endfacet
facet normal -0.707106781186547 0.707106781186548 0.0
outer loop
vertex -0.586143571373723 54.5861435713737 0.0
vertex 1.05000000000001 55.8416006898971 -20.0
vertex -0.586143571373723 54.5861435713737 -20.0
endloop
endfacet
facet normal -0.499999999999998 0.86602540378444 0.0
outer loop
vertex 1.05000000000001 55.8416006898971 -20.0
vertex -0.586143571373723 54.5861435713737 0.0
vertex 1.05000000000001 55.8416006898971 0.0
endloop
endfacet
facet normal -0.499999999999998 0.86602540378444 0.0
outer loop
vertex 1.05000000000001 55.8416006898971 0.0
vertex 2.95532954369009 56.6308140276836 -20.0
vertex 1.05000000000001 55.8416006898971 -20.0
endloop
endfacet
facet normal -0.25881904510252 0.965925826289069 0.0
outer loop
vertex 2.95532954369009 56.6308140276836 -20.0
vertex 1.05000000000001 55.8416006898971 0.0
vertex 2.95532954369009 56.6308140276836 0.0
endloop
endfacet
facet normal -0.25881904510252 0.965925826289069 0.0
outer loop
vertex 2.95532954369009 56.6308140276836 0.0
vertex 5.0 56.9 -20.0
vertex 2.95532954369009 56.6308140276836 -20.0
endloop
endfacet
facet normal -2.40599967182466e-016 1.0 0.0
outer loop
vertex 5.0 56.9 -20.0
vertex 2.95532954369009 56.6308140276836 0.0
vertex 5.0 56.9 0.0
endloop
endfacet
facet normal -2.40599967182466e-016 1.0 0.0
outer loop
vertex 5.0 56.9 0.0
vertex 7.04467045630992 56.6308140276836 -20.0
vertex 5.0 56.9 -20.0
endloop
endfacet
facet normal 0.258819045102522 0.965925826289068 0.0
outer loop
vertex 7.04467045630992 56.6308140276836 -20.0
vertex 5.0 56.9 0.0
vertex 7.04467045630992 56.6308140276836 0.0
endloop
endfacet
facet normal 0.258819045102522 0.965925826289068 0.0
outer loop
vertex 7.04467045630992 56.6308140276836 0.0
vertex 8.95 55.8416006898971 -20.0
vertex 7.04467045630992 56.6308140276836 -20.0
endloop
endfacet
facet normal 0.513468669904328 0.858108341077442 0.0
outer loop
vertex 8.95 55.8416006898971 -20.0
vertex 7.04467045630992 56.6308140276836 0.0
vertex 8.95 55.8416006898971 0.0
endloop
endfacet
facet normal 0.513468669904328 0.858108341077442 0.0
outer loop
vertex 8.95 55.8416006898971 0.0
vertex 10.7577842921763 54.362457029011 -20.0
vertex 8.95 55.8416006898971 -20.0
endloop
endfacet
facet normal 0.580071781374588 0.814565361682482 0.0
outer loop
vertex 10.7577842921763 54.362457029011 -20.0
vertex 8.95 55.8416006898971 0.0
vertex 10.7577842921763 54.362457029011 0.0
endloop
endfacet
facet normal 0.580071781374588 0.814565361682482 0.0
outer loop
vertex 10.7577842921763 54.362457029011 0.0
vertex 26.5 44.6698729810778 -20.0
vertex 10.7577842921763 54.362457029011 -20.0
endloop
endfacet
facet normal 0.454930117246062 0.890527140755679 0.0
outer loop
vertex 26.5 44.6698729810778 -20.0
vertex 10.7577842921763 54.362457029011 0.0
vertex 26.5 44.6698729810778 0.0
endloop
endfacet
facet normal 0.454930117246062 0.890527140755679 0.0
outer loop
vertex 26.5 44.6698729810778 0.0
vertex 27.7059047744874 44.1703708685546 -20.0
vertex 26.5 44.6698729810778 -20.0
endloop
endfacet
facet normal 0.258819045102521 0.965925826289068 0.0
outer loop
vertex 27.7059047744874 44.1703708685546 -20.0
vertex 26.5 44.6698729810778 0.0
vertex 27.7059047744874 44.1703708685546 0.0
endloop
endfacet
facet normal 0.258819045102521 0.965925826289068 0.0
outer loop
vertex 27.7059047744874 44.1703708685546 0.0
vertex 29.0 44.0 -20.0
vertex 27.7059047744874 44.1703708685546 -20.0
endloop
endfacet
facet normal -2.94066626556348e-016 1.0 0.0
outer loop
vertex 29.0 44.0 -20.0
vertex 27.7059047744874 44.1703708685546 0.0
vertex 29.0 44.0 0.0
endloop
endfacet
facet normal -2.94066626556348e-016 1.0 0.0
outer loop
vertex 29.0 44.0 0.0
vertex 30.2940952255126 44.1703708685546 -20.0
vertex 29.0 44.0 -20.0
endloop
endfacet
facet normal -0.258819045102521 0.965925826289068 0.0
outer loop
vertex 30.2940952255126 44.1703708685546 -20.0
vertex 29.0 44.0 0.0
vertex 30.2940952255126 44.1703708685546 0.0
endloop
endfacet
facet normal -0.258819045102521 0.965925826289068 0.0
outer loop
vertex 30.2940952255126 44.1703708685546 0.0
vertex 31.5 44.6698729810778 -20.0
vertex 30.2940952255126 44.1703708685546 -20.0
endloop
endfacet
facet normal -0.499999999999999 0.866025403784439 0.0
outer loop
vertex 31.5 44.6698729810778 -20.0
vertex 30.2940952255126 44.1703708685546 0.0
vertex 31.5 44.6698729810778 0.0
endloop
endfacet
facet normal -0.499999999999999 0.866025403784439 0.0
outer loop
vertex 31.5 44.6698729810778 0.0
vertex 32.5355339059327 45.4644660940673 -20.0
vertex 31.5 44.6698729810778 -20.0
endloop
endfacet
facet normal -0.707106781186547 0.707106781186549 0.0
outer loop
vertex 32.5355339059327 45.4644660940673 -20.0
vertex 31.5 44.6698729810778 0.0
vertex 32.5355339059327 45.4644660940673 0.0
endloop
endfacet
facet normal -0.866025403784439 0.5 0.0
outer loop
vertex 33.3301270189222 46.5 0.0
vertex 32.5355339059327 45.4644660940673 -20.0
vertex 32.5355339059327 45.4644660940673 0.0
endloop
endfacet
facet normal -0.707106781186547 0.707106781186549 0.0
outer loop
vertex 32.5355339059327 45.4644660940673 -20.0
vertex 33.3301270189222 46.5 0.0
vertex 33.3301270189222 46.5 -20.0
endloop
endfacet
facet normal -0.965925826289068 0.258819045102521 0.0
outer loop
vertex 33.8296291314453 47.7059047744874 0.0
vertex 33.3301270189222 46.5 -20.0
vertex 33.3301270189222 46.5 0.0
endloop
endfacet
facet normal -0.866025403784439 0.5 0.0
outer loop
vertex 33.3301270189222 46.5 -20.0
vertex 33.8296291314453 47.7059047744874 0.0
vertex 33.8296291314453 47.7059047744874 -20.0
endloop
endfacet
facet normal -0.99144486137381 0.130526192220051 0.0
outer loop
vertex 34.0 49.0 0.0
vertex 33.8296291314453 47.7059047744874 -20.0
vertex 33.8296291314453 47.7059047744874 0.0
endloop
endfacet
facet normal -0.965925826289068 0.258819045102521 0.0
outer loop
vertex 33.8296291314453 47.7059047744874 -20.0
vertex 34.0 49.0 0.0
vertex 34.0 49.0 -20.0
endloop
endfacet
facet normal 0.0 1.0 0.0
outer loop
vertex 34.0 49.0 0.0
vertex 36.5 49.0 -20.0
vertex 34.0 49.0 -20.0
endloop
endfacet
facet normal 0.0 1.0 0.0
outer loop
vertex 36.5 49.0 -20.0
vertex 34.0 49.0 0.0
vertex 36.5 49.0 0.0
endloop
endfacet
facet normal 0.99144486137381 -0.130526192220053 0.0
outer loop
vertex 36.5 49.0 -20.0
vertex 36.244443697168 47.0588571617311 0.0
vertex 36.244443697168 47.0588571617311 -20.0
endloop
endfacet
facet normal 0.965925826289068 -0.258819045102521 0.0
outer loop
vertex 36.244443697168 47.0588571617311 0.0
vertex 36.5 49.0 -20.0
vertex 36.5 49.0 0.0
endloop
endfacet
facet normal 0.965925826289068 -0.258819045102521 0.0
outer loop
vertex 36.244443697168 47.0588571617311 -20.0
vertex 35.4951905283833 45.25 0.0
vertex 35.4951905283833 45.25 -20.0
endloop
endfacet
facet normal 0.866025403784438 -0.500000000000001 0.0
outer loop
vertex 35.4951905283833 45.25 0.0
vertex 36.244443697168 47.0588571617311 -20.0
vertex 36.244443697168 47.0588571617311 0.0
endloop
endfacet
facet normal 0.866025403784438 -0.500000000000001 0.0
outer loop
vertex 35.4951905283833 45.25 -20.0
vertex 34.3033008588991 43.6966991411009 0.0
vertex 34.3033008588991 43.6966991411009 -20.0
endloop
endfacet
facet normal 0.707106781186548 -0.707106781186547 0.0
outer loop
vertex 34.3033008588991 43.6966991411009 0.0
vertex 35.4951905283833 45.25 -20.0
vertex 35.4951905283833 45.25 0.0
endloop
endfacet
facet normal 0.707106781186548 -0.707106781186547 0.0
outer loop
vertex 34.3033008588991 43.6966991411009 0.0
vertex 34.0 43.4639682065904 -20.0
vertex 34.3033008588991 43.6966991411009 -20.0
endloop
endfacet
facet normal 0.608761429008724 -0.793353340291233 0.0
outer loop
vertex 34.0 43.4639682065904 -20.0
vertex 34.3033008588991 43.6966991411009 0.0
vertex 34.0 43.4639682065904 0.0
endloop
endfacet
facet normal 0.608761429008723 -0.793353340291234 0.0
outer loop
vertex 34.0 43.4639682065904 0.0
vertex 32.75 42.5048094716167 -20.0
vertex 34.0 43.4639682065904 -20.0
endloop
endfacet
facet normal 0.500000000000001 -0.866025403784438 0.0
outer loop
vertex 32.75 42.5048094716167 -20.0
vertex 34.0 43.4639682065904 0.0
vertex 32.75 42.5048094716167 0.0
endloop
endfacet
facet normal 0.500000000000001 -0.866025403784438 0.0
outer loop
vertex 32.75 42.5048094716167 0.0
vertex 30.9411428382689 41.755556302832 -20.0
vertex 32.75 42.5048094716167 -20.0
endloop
endfacet
facet normal 0.25881904510252 -0.965925826289069 0.0
outer loop
vertex 30.9411428382689 41.755556302832 -20.0
vertex 32.75 42.5048094716167 0.0
vertex 30.9411428382689 41.755556302832 0.0
endloop
endfacet
facet normal 0.25881904510252 -0.965925826289069 0.0
outer loop
vertex 30.9411428382689 41.755556302832 0.0
vertex 29.0 41.5 -20.0
vertex 30.9411428382689 41.755556302832 -20.0
endloop
endfacet
facet normal 1.78222197912938e-016 -1.0 0.0
outer loop
vertex 29.0 41.5 -20.0
vertex 30.9411428382689 41.755556302832 0.0
vertex 29.0 41.5 0.0
endloop
endfacet
facet normal 1.78222197912938e-016 -1.0 0.0
outer loop
vertex 29.0 41.5 0.0
vertex 27.0588571617311 41.755556302832 -20.0
vertex 29.0 41.5 -20.0
endloop
endfacet
facet normal -0.258819045102522 -0.965925826289068 0.0
outer loop
vertex 27.0588571617311 41.755556302832 -20.0
vertex 29.0 41.5 0.0
vertex 27.0588571617311 41.755556302832 0.0
endloop
endfacet
facet normal -0.258819045102522 -0.965925826289068 0.0
outer loop
vertex 27.0588571617311 41.755556302832 0.0
vertex 25.25 42.5048094716167 -20.0
vertex 27.0588571617311 41.755556302832 -20.0
endloop
endfacet
facet normal -0.453042070946874 -0.891489137315855 0.0
outer loop
vertex 25.25 42.5048094716167 -20.0
vertex 27.0588571617311 41.755556302832 0.0
vertex 25.25 42.5048094716167 0.0
endloop
endfacet
facet normal -0.453042070946874 -0.891489137315855 0.0
outer loop
vertex 25.25 42.5048094716167 0.0
vertex 7.5 53.3301270189222 -20.0
vertex 25.25 42.5048094716167 -20.0
endloop
endfacet
facet normal -0.453042070946873 -0.891489137315856 0.0
outer loop
vertex 7.5 53.3301270189222 -20.0
vertex 25.25 42.5048094716167 0.0
vertex 7.5 53.3301270189222 0.0
endloop
endfacet
facet normal -0.453042070946873 -0.891489137315856 0.0
outer loop
vertex 7.5 53.3301270189222 0.0
vertex 6.29409522551261 53.8296291314453 -20.0
vertex 7.5 53.3301270189222 -20.0
endloop
endfacet
facet normal -0.258819045102523 -0.965925826289068 0.0
outer loop
vertex 6.29409522551261 53.8296291314453 -20.0
vertex 7.5 53.3301270189222 0.0
vertex 6.29409522551261 53.8296291314453 0.0
endloop
endfacet
facet normal -0.258819045102523 -0.965925826289068 0.0
outer loop
vertex 6.29409522551261 53.8296291314453 0.0
vertex 5.0 54.0 -20.0
vertex 6.29409522551261 53.8296291314453 -20.0
endloop
endfacet
facet normal 2.22777747391173e-016 -1.0 0.0
outer loop
vertex 5.0 54.0 -20.0
vertex 6.29409522551261 53.8296291314453 0.0
vertex 5.0 54.0 0.0
endloop
endfacet
facet normal 2.22777747391173e-016 -1.0 0.0
outer loop
vertex 5.0 54.0 0.0
vertex 3.7059047744874 53.8296291314453 -20.0
vertex 5.0 54.0 -20.0
endloop
endfacet
facet normal 0.258819045102523 -0.965925826289068 0.0
outer loop
vertex 3.7059047744874 53.8296291314453 -20.0
vertex 5.0 54.0 0.0
vertex 3.7059047744874 53.8296291314453 0.0
endloop
endfacet
facet normal 0.258819045102523 -0.965925826289068 0.0
outer loop
vertex 3.7059047744874 53.8296291314453 0.0
vertex 2.5 53.3301270189222 -20.0
vertex 3.7059047744874 53.8296291314453 -20.0
endloop
endfacet
facet normal 0.499999999999999 -0.866025403784439 0.0
outer loop
vertex 2.5 53.3301270189222 -20.0
vertex 3.7059047744874 53.8296291314453 0.0
vertex 2.5 53.3301270189222 0.0
endloop
endfacet
facet normal 0.499999999999999 -0.866025403784439 0.0
outer loop
vertex 2.5 53.3301270189222 0.0
vertex 1.46446609406726 52.5355339059327 -20.0
vertex 2.5 53.3301270189222 -20.0
endloop
endfacet
facet normal 0.707106781186546 -0.707106781186549 0.0
outer loop
vertex 1.46446609406726 52.5355339059327 -20.0
vertex 2.5 53.3301270189222 0.0
vertex 1.46446609406726 52.5355339059327 0.0
endloop
endfacet
facet normal 0.707106781186546 -0.707106781186549 0.0
outer loop
vertex 1.46446609406726 52.5355339059327 -20.0
vertex 0.669872981077808 51.5 0.0
vertex 0.669872981077808 51.5 -20.0
endloop
endfacet
facet normal 0.866025403784438 -0.500000000000001 0.0
outer loop
vertex 0.669872981077808 51.5 0.0
vertex 1.46446609406726 52.5355339059327 -20.0
vertex 1.46446609406726 52.5355339059327 0.0
endloop
endfacet
facet normal 0.866025403784438 -0.500000000000001 0.0
outer loop
vertex 0.669872981077808 51.5 -20.0
vertex 0.170370868554659 50.2940952255126 0.0
vertex 0.170370868554659 50.2940952255126 -20.0
endloop
endfacet
facet normal 0.965925826289068 -0.258819045102521 0.0
outer loop
vertex 0.170370868554659 50.2940952255126 0.0
vertex 0.669872981077808 51.5 -20.0
vertex 0.669872981077808 51.5 0.0
endloop
endfacet
facet normal 0.965925826289068 -0.258819045102521 0.0
outer loop
vertex 0.170370868554659 50.2940952255126 -20.0
vertex 0.0 49.0 0.0
vertex 0.0 49.0 -20.0
endloop
endfacet
facet normal 0.997858923238604 -0.0654031292301432 0.0
outer loop
vertex 0.0 49.0 0.0
vertex 0.170370868554659 50.2940952255126 -20.0
vertex 0.170370868554659 50.2940952255126 0.0
endloop
endfacet
facet normal 0.997858923238604 -0.0654031292301432 0.0
outer loop
vertex 0.0 49.0 -20.0
vertex 0.0 0.0 0.0
vertex 0.0 0.0 -20.0
endloop
endfacet
facet normal 1.0 0.0 0.0
outer loop
vertex 0.0 0.0 0.0
vertex 0.0 49.0 -20.0
vertex 0.0 49.0 0.0
endloop
endfacet
facet normal -0.0399680383488716 0.999200958721789 0.0
outer loop
vertex 0.0 0.0 0.0
vertex 75.0 3.0 -20.0
vertex 0.0 0.0 -20.0
endloop
endfacet
facet normal -0.0399680383488716 0.999200958721789 0.0
outer loop
vertex 75.0 3.0 -20.0
vertex 0.0 0.0 0.0
vertex 75.0 3.0 0.0
endloop
endfacet
facet normal -0.316227766016836 0.0 -0.948683298050514
outer loop
vertex 54.0774575140627 -15.9 -19.8176274578121
vertex 53.4487239766215 -20.1 -19.5525253630093
vertex 53.4487239766215 -15.9 -19.5525253630093
endloop
endfacet
facet normal -0.458493925339745 0.0 -0.888697541589124
outer loop
vertex 53.4487239766215 -20.1 -19.5525253630093
vertex 54.0774575140627 -15.9 -19.8176274578121
vertex 54.0774575140627 -20.1 -19.8176274578121
endloop
endfacet
facet normal -0.948683298050514 0.0 -0.316227766016839
outer loop
vertex 51.2823725421879 -15.9 -17.0225424859374
vertex 51.5474746369908 -20.1 -17.6512760233786
vertex 51.2823725421879 -20.1 -17.0225424859374
endloop
endfacet
facet normal -0.888697541589123 0.0 -0.458493925339746
outer loop
vertex 51.5474746369908 -20.1 -17.6512760233786
vertex 51.2823725421879 -15.9 -17.0225424859374
vertex 51.5474746369908 -15.9 -17.6512760233786
endloop
endfacet
facet normal -0.888697541589123 0.0 -0.458493925339746
outer loop
vertex 51.5474746369908 -15.9 -17.6512760233786
vertex 51.9062008892104 -20.1 -18.2317072921268
vertex 51.5474746369908 -20.1 -17.6512760233786
endloop
endfacet
facet normal -0.807527056618201 0.0 -0.589830528906012
outer loop
vertex 51.9062008892104 -20.1 -18.2317072921268
vertex 51.5474746369908 -15.9 -17.6512760233786
vertex 51.9062008892104 -15.9 -18.2317072921268
endloop
endfacet
facet normal -0.589830528906011 0.0 -0.807527056618201
outer loop
vertex 52.8682927078732 -15.9 -19.1937991107896
vertex 52.35 -20.1 -18.75
vertex 52.35 -15.9 -18.75
endloop
endfacet
facet normal -0.707106781186548 0.0 -0.707106781186548
outer loop
vertex 52.35 -20.1 -18.75
vertex 52.8682927078732 -15.9 -19.1937991107896
vertex 52.8682927078732 -20.1 -19.1937991107896
endloop
endfacet
facet normal -0.807527056618201 0.0 -0.589830528906012
outer loop
vertex 51.9062008892104 -15.9 -18.2317072921268
vertex 52.35 -20.1 -18.75
vertex 51.9062008892104 -20.1 -18.2317072921268
endloop
endfacet
facet normal -0.707106781186548 0.0 -0.707106781186548
outer loop
vertex 52.35 -20.1 -18.75
vertex 51.9062008892104 -15.9 -18.2317072921268
vertex 52.35 -15.9 -18.75
endloop
endfacet
facet normal -0.992495191992231 0.000589866604320664 -0.122282238815348
outer loop
vertex 51.1172140955655 -15.9 -16.3604943991027
vertex 51.2823725421879 -20.1 -17.0225424859374
vertex 51.1172140955655 -20.1 -16.3604943991027
endloop
endfacet
facet normal -0.948683298050514 0.0 -0.316227766016839
outer loop
vertex 51.2823725421879 -20.1 -17.0225424859374
vertex 51.1172140955655 -15.9 -16.3604943991027
vertex 51.2823725421879 -15.9 -17.0225424859374
endloop
endfacet
facet normal -0.121929654748991 -2.54552679968791e-005 -0.992538744153003
outer loop
vertex 54.7395056008974 -15.9 -19.9827859044346
vertex 54.0774575140627 -20.1 -19.8176274578121
vertex 54.0774575140627 -15.9 -19.8176274578121
endloop
endfacet
facet normal -0.316227766016836 0.0 -0.948683298050514
outer loop
vertex 54.0774575140627 -20.1 -19.8176274578121
vertex 54.7395056008974 -15.9 -19.9827859044346
vertex 54.7395056008974 -20.1 -19.9827859044346
endloop
endfacet
facet normal -0.999475839424595 0.000585811141410258 0.0323682441879027
outer loop
vertex 51.1 -15.9 -5.0
vertex 51.1 -20.1 -15.0
vertex 51.1 -20.1 -5.0
endloop
endfacet
facet normal -0.999999067971276 0.00117098089785211 -0.000702040109883404
outer loop
vertex 51.1 -20.1 -15.0
vertex 51.1 -15.9 -5.0
vertex 51.1 -20.1 -16.1695871538541
endloop
endfacet
facet normal -0.999999067971276 0.00117098089785211 -0.000702040109883404
outer loop
vertex 51.1 -20.1 -16.1695871538541
vertex 51.1 -15.9 -5.0
vertex 51.1172140955655 -20.1 -16.3604943991027
endloop
endfacet
facet normal -0.992495695976285 0.000589886451971781 -0.122278148099014
outer loop
vertex 51.1172140955655 -20.1 -16.3604943991027
vertex 51.1 -15.9 -5.0
vertex 51.1172140955655 -15.9 -16.3604943991027
endloop
endfacet
facet normal -0.458493925339745 0.0 -0.888697541589124
outer loop
vertex 53.4487239766215 -15.9 -19.5525253630093
vertex 52.8682927078732 -20.1 -19.1937991107896
vertex 52.8682927078732 -15.9 -19.1937991107896
endloop
endfacet
facet normal -0.589830528906011 0.0 -0.807527056618201
outer loop
vertex 52.8682927078732 -20.1 -19.1937991107896
vertex 53.4487239766215 -15.9 -19.5525253630093
vertex 53.4487239766215 -20.1 -19.5525253630093
endloop
endfacet
facet normal 8.32472371703105e-006 -5.05306269531951e-005 -0.999999998688677
outer loop
vertex -0.586143571373723 54.5861435713737 -20.0
vertex 0.170370868554659 50.2940952255126 -20.0
vertex 0.0 49.0 -20.0
endloop
endfacet
facet normal 8.32472371703105e-006 -5.05306269531951e-005 -0.999999998688677
outer loop
vertex 0.170370868554659 50.2940952255126 -20.0
vertex -0.586143571373723 54.5861435713737 -20.0
vertex 1.05000000000001 55.8416006898971 -20.0
endloop
endfacet
facet normal 8.32472371703105e-006 -5.05306269531951e-005 -0.999999998688677
outer loop
vertex 0.170370868554659 50.2940952255126 -20.0
vertex 1.05000000000001 55.8416006898971 -20.0
vertex 0.669872981077808 51.5 -20.0
endloop
endfacet
facet normal 8.32472371703105e-006 -5.05306269531951e-005 -0.999999998688677
outer loop
vertex 0.669872981077808 51.5 -20.0
vertex 1.05000000000001 55.8416006898971 -20.0
vertex 1.46446609406726 52.5355339059327 -20.0
endloop
endfacet
facet normal 8.32472371703105e-006 -5.05306269531951e-005 -0.999999998688677
outer loop
vertex 1.46446609406726 52.5355339059327 -20.0
vertex 1.05000000000001 55.8416006898971 -20.0
vertex 2.95532954369009 56.6308140276836 -20.0
endloop
endfacet
facet normal 8.32472371703105e-006 -5.05306269531951e-005 -0.999999998688677
outer loop
vertex 1.46446609406726 52.5355339059327 -20.0
vertex 2.95532954369009 56.6308140276836 -20.0
vertex 2.5 53.3301270189222 -20.0
endloop
endfacet
facet normal 8.32472371703105e-006 -5.05306269531951e-005 -0.999999998688677
outer loop
vertex 2.5 53.3301270189222 -20.0
vertex 2.95532954369009 56.6308140276836 -20.0
vertex 3.7059047744874 53.8296291314453 -20.0
endloop
endfacet
facet normal 8.32472371703105e-006 -5.05306269531951e-005 -0.999999998688677
outer loop
vertex 3.7059047744874 53.8296291314453 -20.0
vertex 2.95532954369009 56.6308140276836 -20.0
vertex 5.0 56.9 -20.0
endloop
endfacet
facet normal 8.32472371703105e-006 -5.05306269531951e-005 -0.999999998688677
outer loop
vertex 3.7059047744874 53.8296291314453 -20.0
vertex 5.0 56.9 -20.0
vertex 5.0 54.0 -20.0
endloop
endfacet
facet normal 8.32472371703105e-006 -5.05306269531951e-005 -0.999999998688677
outer loop
vertex 5.0 54.0 -20.0
vertex 5.0 56.9 -20.0
vertex 6.29409522551261 53.8296291314453 -20.0
endloop
endfacet
facet normal 8.32472371703105e-006 -5.05306269531951e-005 -0.999999998688677
outer loop
vertex 6.29409522551261 53.8296291314453 -20.0
vertex 5.0 56.9 -20.0
vertex 7.04467045630992 56.6308140276836 -20.0
endloop
endfacet
facet normal 8.32472371703105e-006 -5.05306269531951e-005 -0.999999998688677
outer loop
vertex 6.29409522551261 53.8296291314453 -20.0
vertex 7.04467045630992 56.6308140276836 -20.0
vertex 7.5 53.3301270189222 -20.0
endloop
endfacet
facet normal 8.32472371703105e-006 -5.05306269531951e-005 -0.999999998688677
outer loop
vertex 7.5 53.3301270189222 -20.0
vertex 7.04467045630992 56.6308140276836 -20.0
vertex 8.95 55.8416006898971 -20.0
endloop
endfacet
facet normal 8.32472371703105e-006 -5.05306269531951e-005 -0.999999998688677
outer loop
vertex 7.5 53.3301270189222 -20.0
vertex 8.95 55.8416006898971 -20.0
vertex 25.25 42.5048094716167 -20.0
endloop
endfacet
facet normal 8.32472371703105e-006 -5.05306269531951e-005 -0.999999998688677
outer loop
vertex 25.25 42.5048094716167 -20.0
vertex 8.95 55.8416006898971 -20.0
vertex 10.7577842921763 54.362457029011 -20.0
endloop
endfacet
facet normal 8.32472371703105e-006 -5.05306269531951e-005 -0.999999998688677
outer loop
vertex 25.25 42.5048094716167 -20.0
vertex 10.7577842921763 54.362457029011 -20.0
vertex 26.5 44.6698729810778 -20.0
endloop
endfacet
facet normal 8.32472371703105e-006 -5.05306269531951e-005 -0.999999998688677
outer loop
vertex 25.25 42.5048094716167 -20.0
vertex 26.5 44.6698729810778 -20.0
vertex 27.0588571617311 41.755556302832 -20.0
endloop
endfacet
facet normal 8.32472371703105e-006 -5.05306269531951e-005 -0.999999998688677
outer loop
vertex 27.0588571617311 41.755556302832 -20.0
vertex 26.5 44.6698729810778 -20.0
vertex 27.7059047744874 44.1703708685546 -20.0
endloop
endfacet
facet normal 8.32472371703105e-006 -5.05306269531951e-005 -0.999999998688677
outer loop
vertex 27.0588571617311 41.755556302832 -20.0
vertex 27.7059047744874 44.1703708685546 -20.0
vertex 29.0 41.5 -20.0
endloop
endfacet
facet normal 8.32472371703105e-006 -5.05306269531951e-005 -0.999999998688677
outer loop
vertex 29.0 41.5 -20.0
vertex 27.7059047744874 44.1703708685546 -20.0
vertex 29.0 44.0 -20.0
endloop
endfacet
facet normal 8.32472371703105e-006 -5.05306269531951e-005 -0.999999998688677
outer loop
vertex 29.0 41.5 -20.0
vertex 29.0 44.0 -20.0
vertex 30.2940952255126 44.1703708685546 -20.0
endloop
endfacet
facet normal 8.32472371703105e-006 -5.05306269531951e-005 -0.999999998688677
outer loop
vertex 29.0 41.5 -20.0
vertex 30.2940952255126 44.1703708685546 -20.0
vertex 30.9411428382689 41.755556302832 -20.0
endloop
endfacet
facet normal 8.32472371703105e-006 -5.05306269531951e-005 -0.999999998688677
outer loop
vertex 30.9411428382689 41.755556302832 -20.0
vertex 30.2940952255126 44.1703708685546 -20.0
vertex 31.5 44.6698729810778 -20.0
endloop
endfacet
facet normal 8.32472371703105e-006 -5.05306269531951e-005 -0.999999998688677
outer loop
vertex 30.9411428382689 41.755556302832 -20.0
vertex 31.5 44.6698729810778 -20.0
vertex 32.75 42.5048094716167 -20.0
endloop
endfacet
facet normal 8.32472371703105e-006 -5.05306269531951e-005 -0.999999998688677
outer loop
vertex 32.75 42.5048094716167 -20.0
vertex 31.5 44.6698729810778 -20.0
vertex 32.5355339059327 45.4644660940673 -20.0
endloop
endfacet
facet normal 8.32472371703105e-006 -5.05306269531951e-005 -0.999999998688677
outer loop
vertex 32.75 42.5048094716167 -20.0
vertex 32.5355339059327 45.4644660940673 -20.0
vertex 33.3301270189222 46.5 -20.0
endloop
endfacet
facet normal 8.32472371703105e-006 -5.05306269531951e-005 -0.999999998688677
outer loop
vertex 32.75 42.5048094716167 -20.0
vertex 33.3301270189222 46.5 -20.0
vertex 34.0 43.4639682065904 -20.0
endloop
endfacet
facet normal 8.32472371703105e-006 -5.05306269531951e-005 -0.999999998688677
outer loop
vertex 34.0 43.4639682065904 -20.0
vertex 33.3301270189222 46.5 -20.0
vertex 33.8296291314453 47.7059047744874 -20.0
endloop
endfacet
facet normal 8.32472371703105e-006 -5.05306269531951e-005 -0.999999998688677
outer loop
vertex 34.0 43.4639682065904 -20.0
vertex 33.8296291314453 47.7059047744874 -20.0
vertex 34.0 49.0 -20.0
endloop
endfacet
facet normal 8.32472371703105e-006 -5.05306269531951e-005 -0.999999998688677
outer loop
vertex 34.0 43.4639682065904 -20.0
vertex 34.0 49.0 -20.0
vertex 36.5 49.0 -20.0
endloop
endfacet
facet normal 8.32472371703105e-006 -5.05306269531951e-005 -0.999999998688677
outer loop
vertex 34.0 43.4639682065904 -20.0
vertex 36.5 49.0 -20.0
vertex 34.3033008588991 43.6966991411009 -20.0
endloop
endfacet
facet normal 8.32472371703105e-006 -5.05306269531951e-005 -0.999999998688677
outer loop
vertex 34.3033008588991 43.6966991411009 -20.0
vertex 36.5 49.0 -20.0
vertex 35.4951905283833 45.25 -20.0
endloop
endfacet
facet normal 8.32472371703105e-006 -5.05306269531951e-005 -0.999999998688677
outer loop
vertex 35.4951905283833 45.25 -20.0
vertex 36.5 49.0 -20.0
vertex 36.244443697168 47.0588571617311 -20.0
endloop
endfacet
facet normal 8.32472371703105e-006 -5.05306269531951e-005 -0.999999998688677
outer loop
vertex -4.4 49.0 -20.0
vertex -4.4 -3.0 -20.0
vertex -4.4 0.0 -20.0
endloop
endfacet
facet normal 8.32472371703105e-006 -5.05306269531951e-005 -0.999999998688677
outer loop
vertex -4.4 -3.0 -20.0
vertex -4.4 49.0 -20.0
vertex 0.0 -3.0 -20.0
endloop
endfacet
facet normal 8.32472371703105e-006 -5.05306269531951e-005 -0.999999998688677
outer loop
vertex 0.0 -3.0 -20.0
vertex -4.4 49.0 -20.0
vertex -1.84160068989706 52.95 -20.0
endloop
endfacet
facet normal 8.32472371703105e-006 -5.05306269531951e-005 -0.999999998688677
outer loop
vertex 0.0 -3.0 -20.0
vertex -1.84160068989706 52.95 -20.0
vertex -0.586143571373723 54.5861435713737 -20.0
endloop
endfacet
facet normal 8.32472371703105e-006 -5.05306269531951e-005 -0.999999998688677
outer loop
vertex 0.0 -3.0 -20.0
vertex -0.586143571373723 54.5861435713737 -20.0
vertex 0.0 49.0 -20.0
endloop
endfacet
facet normal 8.32472371703105e-006 -5.05306269531951e-005 -0.999999998688677
outer loop
vertex 0.0 -3.0 -20.0
vertex 0.0 49.0 -20.0
vertex 0.0 0.0 -20.0
endloop
endfacet
facet normal 8.32472371703105e-006 -5.05306269531951e-005 -0.999999998688677
outer loop
vertex 0.0 -3.0 -20.0
vertex 0.0 0.0 -20.0
vertex 75.0 3.0 -20.0
endloop
endfacet
facet normal 8.32472371703105e-006 -5.05306269531951e-005 -0.999999998688677
outer loop
vertex 0.0 -3.0 -20.0
vertex 75.0 3.0 -20.0
vertex 72.0 0.0 -20.0
endloop
endfacet
facet normal 8.32472371703105e-006 -5.05306269531951e-005 -0.999999998688677
outer loop
vertex 72.0 -15.9 -20.0
vertex 54.7395056008974 -20.1 -19.9827859044346
vertex 54.7395056008974 -15.9 -19.9827859044346
endloop
endfacet
facet normal -0.121929833588376 -2.54552306631288e-005 -0.992538722183242
outer loop
vertex 54.7395056008974 -20.1 -19.9827859044346
vertex 72.0 -15.9 -20.0
vertex 54.9304128461459 -20.1 -20.0
endloop
endfacet
facet normal 8.32472371703105e-006 -5.05306269531951e-005 -0.999999998688677
outer loop
vertex 54.9304128461459 -20.1 -20.0
vertex 72.0 -15.9 -20.0
vertex 56.1 -20.1 -20.0
endloop
endfacet
facet normal 8.32472371703105e-006 -5.05306269531951e-005 -0.999999998688677
outer loop
vertex 56.1 -20.1 -20.0
vertex 72.0 -15.9 -20.0
vertex 75.0 -20.1 -20.0
endloop
endfacet
facet normal 8.32472371703105e-006 -5.05306269531951e-005 -0.999999998688677
outer loop
vertex 75.0 -20.1 -20.0
vertex 72.0 -15.9 -20.0
vertex 72.0 0.0 -20.0
endloop
endfacet
facet normal 8.32472371703105e-006 -5.05306269531951e-005 -0.999999998688677
outer loop
vertex 75.0 -20.1 -20.0
vertex 72.0 0.0 -20.0
vertex 75.0 3.0 -20.0
endloop
endfacet
facet normal -0.382683432365091 0.0 0.923879532511286
outer loop
vertex 54.1865828381746 -20.1 -0.380602337443569
vertex 53.6000000000001 -15.9 -0.669872981077812
vertex 53.6000000000001 -20.1 -0.669872981077812
endloop
endfacet
facet normal -0.5 0.0 0.866025403784439
outer loop
vertex 53.6000000000001 -15.9 -0.669872981077812
vertex 54.1865828381746 -20.1 -0.380602337443569
vertex 54.1865828381746 -15.9 -0.380602337443569
endloop
endfacet
facet normal -0.258819045102522 0.0 0.965925826289068
outer loop
vertex 54.8059047744874 -20.1 -0.170370868554662
vertex 54.1865828381746 -15.9 -0.380602337443569
vertex 54.1865828381746 -20.1 -0.380602337443569
endloop
endfacet
facet normal -0.382683432365091 0.0 0.923879532511286
outer loop
vertex 54.1865828381746 -15.9 -0.380602337443569
vertex 54.8059047744874 -20.1 -0.170370868554662
vertex 54.8059047744874 -15.9 -0.170370868554662
endloop
endfacet
facet normal -0.130526192220053 2.59901333669054e-019 0.99144486137381
outer loop
vertex 55.4473690388998 -20.1 -0.0427756931309508
vertex 54.8059047744874 -15.9 -0.170370868554662
vertex 54.8059047744874 -20.1 -0.170370868554662
endloop
endfacet
facet normal -0.258819045102522 0.0 0.965925826289068
outer loop
vertex 54.8059047744874 -15.9 -0.170370868554662
vertex 55.4473690388998 -20.1 -0.0427756931309508
vertex 55.4473690388998 -15.9 -0.0427756931309508
endloop
endfacet
facet normal -0.0327190828217769 -1.05798916902245e-018 0.999464587476366
outer loop
vertex 56.1 -20.1 0.0
vertex 55.4473690388998 -15.9 -0.0427756931309508
vertex 55.4473690388998 -20.1 -0.0427756931309508
endloop
endfacet
facet normal -0.130526192220053 2.59901333669054e-019 0.99144486137381
outer loop
vertex 55.4473690388998 -15.9 -0.0427756931309508
vertex 56.1 -20.1 0.0
vertex 56.1 -15.9 0.0
endloop
endfacet
facet normal -0.965925826289067 0.0 0.258819045102525
outer loop
vertex 51.2703708685547 -15.9 -3.7059047744874
vertex 51.142775693131 -20.1 -4.34736903889974
vertex 51.2703708685547 -20.1 -3.7059047744874
endloop
endfacet
facet normal -0.99144486137381 1.02322055644471e-016 0.130526192220056
outer loop
vertex 51.142775693131 -20.1 -4.34736903889974
vertex 51.2703708685547 -15.9 -3.7059047744874
vertex 51.142775693131 -15.9 -4.34736903889974
endloop
endfacet
facet normal 0.0 -1.0 0.0
outer loop
vertex 51.1 -20.1 -15.0
vertex 51.0559363360922 -20.1 -15.6809136327723
vertex 51.1 -20.1 -16.1695871538541
endloop
endfacet
facet normal 9.39716283065662e-032 -1.0 1.59289874781601e-031
outer loop
vertex 75.0 -20.1 -20.0
vertex 54.9304128461459 -20.1 -20.0
vertex 56.1 -20.1 -20.0
endloop
endfacet
facet normal 9.39716283065662e-032 -1.0 1.59289874781601e-031
outer loop
vertex 54.9304128461459 -20.1 -20.0
vertex 75.0 -20.1 -20.0
vertex 75.0 -20.1 0.0
endloop
endfacet
facet normal 9.39716283065662e-032 -1.0 1.59289874781601e-031
outer loop
vertex 54.9304128461459 -20.1 -20.0
vertex 75.0 -20.1 0.0
vertex 54.7395056008974 -20.1 -19.9827859044346
endloop
endfacet
facet normal 9.39716283065662e-032 -1.0 1.59289874781601e-031
outer loop
vertex 54.7395056008974 -20.1 -19.9827859044346
vertex 75.0 -20.1 0.0
vertex 54.0774575140627 -20.1 -19.8176274578121
endloop
endfacet
facet normal 9.39716283065662e-032 -1.0 1.59289874781601e-031
outer loop
vertex 54.0774575140627 -20.1 -19.8176274578121
vertex 75.0 -20.1 0.0
vertex 53.4487239766215 -20.1 -19.5525253630093
endloop
endfacet
facet normal 9.39716283065662e-032 -1.0 1.59289874781601e-031
outer loop
vertex 53.4487239766215 -20.1 -19.5525253630093
vertex 75.0 -20.1 0.0
vertex 52.8682927078732 -20.1 -19.1937991107896
endloop
endfacet
facet normal 9.39716283065662e-032 -1.0 1.59289874781601e-031
outer loop
vertex 52.8682927078732 -20.1 -19.1937991107896
vertex 75.0 -20.1 0.0
vertex 52.35 -20.1 -18.75
endloop
endfacet
facet normal 9.39716283065662e-032 -1.0 1.59289874781601e-031
outer loop
vertex 52.35 -20.1 -18.75
vertex 75.0 -20.1 0.0
vertex 51.9062008892104 -20.1 -18.2317072921268
endloop
endfacet
facet normal 9.39716283065662e-032 -1.0 1.59289874781601e-031
outer loop
vertex 51.9062008892104 -20.1 -18.2317072921268
vertex 75.0 -20.1 0.0
vertex 51.5474746369908 -20.1 -17.6512760233786
endloop
endfacet
facet normal 9.39716283065662e-032 -1.0 1.59289874781601e-031
outer loop
vertex 51.5474746369908 -20.1 -17.6512760233786
vertex 75.0 -20.1 0.0
vertex 51.2823725421879 -20.1 -17.0225424859374
endloop
endfacet
facet normal 9.39716283065662e-032 -1.0 1.59289874781601e-031
outer loop
vertex 51.2823725421879 -20.1 -17.0225424859374
vertex 75.0 -20.1 0.0
vertex 51.1172140955655 -20.1 -16.3604943991027
endloop
endfacet
facet normal 9.39716283065662e-032 -1.0 1.59289874781601e-031
outer loop
vertex 51.1172140955655 -20.1 -16.3604943991027
vertex 75.0 -20.1 0.0
vertex 51.1 -20.1 -16.1695871538541
endloop
endfacet
facet normal 9.39716283065662e-032 -1.0 1.59289874781601e-031
outer loop
vertex 51.1 -20.1 -16.1695871538541
vertex 75.0 -20.1 0.0
vertex 51.1 -20.1 -15.0
endloop
endfacet
facet normal 9.39716283065662e-032 -1.0 1.59289874781601e-031
outer loop
vertex 51.1 -20.1 -15.0
vertex 75.0 -20.1 0.0
vertex 51.1 -20.1 -5.0
endloop
endfacet
facet normal 9.39716283065662e-032 -1.0 1.59289874781601e-031
outer loop
vertex 51.1 -20.1 -5.0
vertex 75.0 -20.1 0.0
vertex 51.142775693131 -20.1 -4.34736903889974
endloop
endfacet
facet normal 9.39716283065662e-032 -1.0 1.59289874781601e-031
outer loop
vertex 51.142775693131 -20.1 -4.34736903889974
vertex 75.0 -20.1 0.0
vertex 51.2703708685547 -20.1 -3.7059047744874
endloop
endfacet
facet normal 9.39716283065662e-032 -1.0 1.59289874781601e-031
outer loop
vertex 51.2703708685547 -20.1 -3.7059047744874
vertex 75.0 -20.1 0.0
vertex 51.4806023374436 -20.1 -3.08658283817455
endloop
endfacet
facet normal 9.39716283065662e-032 -1.0 1.59289874781601e-031
outer loop
vertex 51.4806023374436 -20.1 -3.08658283817455
vertex 75.0 -20.1 0.0
vertex 51.7698729810779 -20.1 -2.5
endloop
endfacet
facet normal 9.39716283065662e-032 -1.0 1.59289874781601e-031
outer loop
vertex 51.7698729810779 -20.1 -2.5
vertex 75.0 -20.1 0.0
vertex 52.1332332985439 -20.1 -1.9561928549564
endloop
endfacet
facet normal 9.39716283065662e-032 -1.0 1.59289874781601e-031
outer loop
vertex 52.1332332985439 -20.1 -1.9561928549564
vertex 75.0 -20.1 0.0
vertex 52.5644660940673 -20.1 -1.46446609406727
endloop
endfacet
facet normal 9.39716283065662e-032 -1.0 1.59289874781601e-031
outer loop
vertex 52.5644660940673 -20.1 -1.46446609406727
vertex 75.0 -20.1 0.0
vertex 53.0561928549564 -20.1 -1.03323329854383
endloop
endfacet
facet normal 9.39716283065662e-032 -1.0 1.59289874781601e-031
outer loop
vertex 53.0561928549564 -20.1 -1.03323329854383
vertex 75.0 -20.1 0.0
vertex 53.6000000000001 -20.1 -0.669872981077812
endloop
endfacet
facet normal 9.39716283065662e-032 -1.0 1.59289874781601e-031
outer loop
vertex 53.6000000000001 -20.1 -0.669872981077812
vertex 75.0 -20.1 0.0
vertex 54.1865828381746 -20.1 -0.380602337443569
endloop
endfacet
facet normal 9.39716283065662e-032 -1.0 1.59289874781601e-031
outer loop
vertex 54.1865828381746 -20.1 -0.380602337443569
vertex 75.0 -20.1 0.0
vertex 54.8059047744874 -20.1 -0.170370868554662
endloop
endfacet
facet normal 9.39716283065662e-032 -1.0 1.59289874781601e-031
outer loop
vertex 54.8059047744874 -20.1 -0.170370868554662
vertex 75.0 -20.1 0.0
vertex 55.4473690388998 -20.1 -0.0427756931309508
endloop
endfacet
facet normal 9.39716283065662e-032 -1.0 1.59289874781601e-031
outer loop
vertex 55.4473690388998 -20.1 -0.0427756931309508
vertex 75.0 -20.1 0.0
vertex 56.1 -20.1 0.0
endloop
endfacet
facet normal -0.60876142900872 0.0 0.793353340291236
outer loop
vertex 53.0561928549564 -20.1 -1.03323329854383
vertex 52.5644660940673 -15.9 -1.46446609406727
vertex 52.5644660940673 -20.1 -1.46446609406727
endloop
endfacet
facet normal -0.707106781186547 0.0 0.707106781186548
outer loop
vertex 52.5644660940673 -15.9 -1.46446609406727
vertex 53.0561928549564 -20.1 -1.03323329854383
vertex 53.0561928549564 -15.9 -1.03323329854383
endloop
endfacet
facet normal -3.95259969936503e-016 1.0 -2.88363745839683e-016
outer loop
vertex 54.7395056008974 -15.9 -19.9827859044346
vertex 72.0 -15.9 0.0
vertex 72.0 -15.9 -20.0
endloop
endfacet
facet normal -3.95259969936503e-016 1.0 -2.88363745839683e-016
outer loop
vertex 72.0 -15.9 0.0
vertex 54.7395056008974 -15.9 -19.9827859044346
vertex 54.0774575140627 -15.9 -19.8176274578121
endloop
endfacet
facet normal -3.95259969936503e-016 1.0 -2.88363745839683e-016
outer loop
vertex 72.0 -15.9 0.0
vertex 54.0774575140627 -15.9 -19.8176274578121
vertex 53.4487239766215 -15.9 -19.5525253630093
endloop
endfacet
facet normal -3.95259969936503e-016 1.0 -2.88363745839683e-016
outer loop
vertex 72.0 -15.9 0.0
vertex 53.4487239766215 -15.9 -19.5525253630093
vertex 52.8682927078732 -15.9 -19.1937991107896
endloop
endfacet
facet normal -3.95259969936503e-016 1.0 -2.88363745839683e-016
outer loop
vertex 72.0 -15.9 0.0
vertex 52.8682927078732 -15.9 -19.1937991107896
vertex 52.35 -15.9 -18.75
endloop
endfacet
facet normal -3.95259969936503e-016 1.0 -2.88363745839683e-016
outer loop
vertex 72.0 -15.9 0.0
vertex 52.35 -15.9 -18.75
vertex 51.9062008892104 -15.9 -18.2317072921268
endloop
endfacet
facet normal -3.95259969936503e-016 1.0 -2.88363745839683e-016
outer loop
vertex 72.0 -15.9 0.0
vertex 51.9062008892104 -15.9 -18.2317072921268
vertex 51.5474746369908 -15.9 -17.6512760233786
endloop
endfacet
facet normal -3.95259969936503e-016 1.0 -2.88363745839683e-016
outer loop
vertex 72.0 -15.9 0.0
vertex 51.5474746369908 -15.9 -17.6512760233786
vertex 51.2823725421879 -15.9 -17.0225424859374
endloop
endfacet
facet normal -3.95259969936503e-016 1.0 -2.88363745839683e-016
outer loop
vertex 72.0 -15.9 0.0
vertex 51.2823725421879 -15.9 -17.0225424859374
vertex 51.1172140955655 -15.9 -16.3604943991027
endloop
endfacet
facet normal -3.95259969936503e-016 1.0 -2.88363745839683e-016
outer loop
vertex 72.0 -15.9 0.0
vertex 51.1172140955655 -15.9 -16.3604943991027
vertex 51.1 -15.9 -5.0
endloop
endfacet
facet normal -3.95259969936503e-016 1.0 -2.88363745839683e-016
outer loop
vertex 72.0 -15.9 0.0
vertex 51.1 -15.9 -5.0
vertex 51.1051777537666 -15.9 -4.92100274315387
endloop
endfacet
facet normal -3.95259969936503e-016 1.0 -2.88363745839683e-016
outer loop
vertex 72.0 -15.9 0.0
vertex 51.1051777537666 -15.9 -4.92100274315387
vertex 51.142775693131 -15.9 -4.34736903889974
endloop
endfacet
facet normal -3.95259969936503e-016 1.0 -2.88363745839683e-016
outer loop
vertex 72.0 -15.9 0.0
vertex 51.142775693131 -15.9 -4.34736903889974
vertex 51.2703708685547 -15.9 -3.7059047744874
endloop
endfacet
facet normal -3.95259969936503e-016 1.0 -2.88363745839683e-016
outer loop
vertex 72.0 -15.9 0.0
vertex 51.2703708685547 -15.9 -3.7059047744874
vertex 51.4806023374436 -15.9 -3.08658283817455
endloop
endfacet
facet normal -3.95259969936503e-016 1.0 -2.88363745839683e-016
outer loop
vertex 72.0 -15.9 0.0
vertex 51.4806023374436 -15.9 -3.08658283817455
vertex 51.7698729810779 -15.9 -2.5
endloop
endfacet
facet normal -3.95259969936503e-016 1.0 -2.88363745839683e-016
outer loop
vertex 72.0 -15.9 0.0
vertex 51.7698729810779 -15.9 -2.5
vertex 52.1332332985439 -15.9 -1.9561928549564
endloop
endfacet
facet normal -3.95259969936503e-016 1.0 -2.88363745839683e-016
outer loop
vertex 72.0 -15.9 0.0
vertex 52.1332332985439 -15.9 -1.9561928549564
vertex 52.5644660940673 -15.9 -1.46446609406727
endloop
endfacet
facet normal -3.95259969936503e-016 1.0 -2.88363745839683e-016
outer loop
vertex 72.0 -15.9 0.0
vertex 52.5644660940673 -15.9 -1.46446609406727
vertex 53.0561928549564 -15.9 -1.03323329854383
endloop
endfacet
facet normal -3.95259969936503e-016 1.0 -2.88363745839683e-016
outer loop
vertex 72.0 -15.9 0.0
vertex 53.0561928549564 -15.9 -1.03323329854383
vertex 53.6000000000001 -15.9 -0.669872981077812
endloop
endfacet
facet normal -3.95259969936503e-016 1.0 -2.88363745839683e-016
outer loop
vertex 72.0 -15.9 0.0
vertex 53.6000000000001 -15.9 -0.669872981077812
vertex 54.1865828381746 -15.9 -0.380602337443569
endloop
endfacet
facet normal -3.95259969936503e-016 1.0 -2.88363745839683e-016
outer loop
vertex 72.0 -15.9 0.0
vertex 54.1865828381746 -15.9 -0.380602337443569
vertex 54.8059047744874 -15.9 -0.170370868554662
endloop
endfacet
facet normal -3.95259969936503e-016 1.0 -2.88363745839683e-016
outer loop
vertex 72.0 -15.9 0.0
vertex 54.8059047744874 -15.9 -0.170370868554662
vertex 55.4473690388998 -15.9 -0.0427756931309508
endloop
endfacet
facet normal -3.95259969936503e-016 1.0 -2.88363745839683e-016
outer loop
vertex 72.0 -15.9 0.0
vertex 55.4473690388998 -15.9 -0.0427756931309508
vertex 56.1 -15.9 0.0
endloop
endfacet
facet normal -1.0 5.37855410758675e-016 -6.74473677193861e-032
outer loop
vertex 72.0 0.0 0.0
vertex 72.0 -15.9 -20.0
vertex 72.0 -15.9 0.0
endloop
endfacet
facet normal -1.0 5.37855410758675e-016 -6.74473677193861e-032
outer loop
vertex 72.0 -15.9 -20.0
vertex 72.0 0.0 0.0
vertex 72.0 0.0 -20.0
endloop
endfacet
facet normal 0.0 -1.0 0.0
outer loop
vertex 54.9304128461459 -20.1 -20.0
vertex 55.4190863672277 -20.1 -20.0440636639078
vertex 56.1 -20.1 -20.0
endloop
endfacet
facet normal -0.707106781186547 0.0 0.707106781186548
outer loop
vertex 52.5644660940673 -15.9 -1.46446609406727
vertex 52.1332332985439 -20.1 -1.9561928549564
vertex 52.5644660940673 -20.1 -1.46446609406727
endloop
endfacet
facet normal -0.793353340291235 0.0 0.608761429008721
outer loop
vertex 52.1332332985439 -20.1 -1.9561928549564
vertex 52.5644660940673 -15.9 -1.46446609406727
vertex 52.1332332985439 -15.9 -1.9561928549564
endloop
endfacet
facet normal -0.5 0.0 0.866025403784439
outer loop
vertex 53.6000000000001 -20.1 -0.669872981077812
vertex 53.0561928549564 -15.9 -1.03323329854383
vertex 53.0561928549564 -20.1 -1.03323329854383
endloop
endfacet
facet normal -0.60876142900872 0.0 0.793353340291236
outer loop
vertex 53.0561928549564 -15.9 -1.03323329854383
vertex 53.6000000000001 -20.1 -0.669872981077812
vertex 53.6000000000001 -15.9 -0.669872981077812
endloop
endfacet
facet normal -0.793353340291235 0.0 0.608761429008721
outer loop
vertex 52.1332332985439 -15.9 -1.9561928549564
vertex 51.7698729810779 -20.1 -2.5
vertex 52.1332332985439 -20.1 -1.9561928549564
endloop
endfacet
facet normal -0.86602540378444 0.0 0.499999999999998
outer loop
vertex 51.7698729810779 -20.1 -2.5
vertex 52.1332332985439 -15.9 -1.9561928549564
vertex 51.7698729810779 -15.9 -2.5
endloop
endfacet
facet normal -0.86602540378444 0.0 0.499999999999998
outer loop
vertex 51.7698729810779 -15.9 -2.5
vertex 51.4806023374436 -20.1 -3.08658283817455
vertex 51.7698729810779 -20.1 -2.5
endloop
endfacet
facet normal -0.923879532511287 0.0 0.38268343236509
outer loop
vertex 51.4806023374436 -20.1 -3.08658283817455
vertex 51.7698729810779 -15.9 -2.5
vertex 51.4806023374436 -15.9 -3.08658283817455
endloop
endfacet
facet normal -0.923879532511287 0.0 0.38268343236509
outer loop
vertex 51.4806023374436 -15.9 -3.08658283817455
vertex 51.2703708685547 -20.1 -3.7059047744874
vertex 51.4806023374436 -20.1 -3.08658283817455
endloop
endfacet
facet normal -0.965925826289067 0.0 0.258819045102525
outer loop
vertex 51.2703708685547 -20.1 -3.7059047744874
vertex 51.4806023374436 -15.9 -3.08658283817455
vertex 51.2703708685547 -15.9 -3.7059047744874
endloop
endfacet
facet normal -0.99144486137381 1.02322055644471e-016 0.130526192220055
outer loop
vertex 51.142775693131 -15.9 -4.34736903889974
vertex 51.1 -20.1 -5.0
vertex 51.142775693131 -20.1 -4.34736903889974
endloop
endfacet
facet normal -0.999475839380228 0.000585811117134549 0.0323682455583348
outer loop
vertex 51.1 -20.1 -5.0
vertex 51.142775693131 -15.9 -4.34736903889974
vertex 51.1 -15.9 -5.0
endloop
endfacet
facet normal -0.999475839424595 0.000585811141410258 0.0323682441879027
outer loop
vertex 51.1 -15.9 -5.0
vertex 51.142775693131 -15.9 -4.34736903889974
vertex 51.1051777537666 -15.9 -4.92100274315387
endloop
endfacet
endsolid white-board-hanger2
