solid SpoolHolderBracketV7
facet normal -0.364396888740588 0.631153925418723 0.684733254563203
outer loop
vertex -10.0039288527422 165.364105922961 13.3912884006241
vertex -6.80249880633457 167.819066425706 12.9615240273971
vertex -10.2666004214723 165.819066425706 12.9615240273971
endloop
endfacet
facet normal -0.263369362305924 0.456169116670877 0.850027244265902
outer loop
vertex -6.80249880633457 167.819066425706 12.9615240273971
vertex -10.0039288527422 165.364105922961 13.3912884006241
vertex -6.53982723760444 167.364105922961 13.3912884006241
endloop
endfacet
facet normal 0.482264834534688 -0.835307196117875 0.263974463698524
outer loop
vertex -14.8094794397452 173.687563697993 13.0597991529002
vertex -19.6008831819754 169.986518419111 11.134647663378
vertex -14.4047307592688 172.986518419111 11.134647663378
endloop
endfacet
facet normal 0.431671249475128 -0.74767653625766 0.504618399888796
outer loop
vertex -19.6008831819754 169.986518419111 11.134647663378
vertex -14.8094794397452 173.687563697993 13.0597991529002
vertex -20.0056318624519 170.687563697993 13.0597991529002
endloop
endfacet
facet normal 0.440591369401914 -0.763126637180463 -0.472775825137226
outer loop
vertex -8.63279670877496 170.989235385719 16.4008120078452
vertex -12.2169374819782 169.197149306386 15.765953574259
vertex -8.7528358668404 171.197149306386 15.765953574259
endloop
endfacet
facet normal 0.486760276350163 -0.843093529744749 -0.22859950452714
outer loop
vertex -12.2169374819782 169.197149306386 15.765953574259
vertex -8.63279670877496 170.989235385719 16.4008120078452
vertex -12.0968983239127 168.989235385719 16.4008120078452
endloop
endfacet
facet normal 0.00267055202281154 -0.004625531787768 -0.999985736202059
outer loop
vertex -10.9727251796502 167.042110383352 23.1714807521049
vertex -15.1328882140888 162.24772412677 22.9099502862255
vertex -16.1688776023568 164.042110383352 23.1714807521049
endloop
endfacet
facet normal -0.126828121510697 0.219672750285044 -0.967294427967138
outer loop
vertex -15.1328882140888 162.24772412677 22.9099502862255
vertex -10.9727251796502 167.042110383352 23.1714807521049
vertex -9.93673579138215 165.24772412677 22.9099502862255
endloop
endfacet
facet normal 0.486760276350163 -0.843093529744748 -0.228599504527141
outer loop
vertex -8.7528358668404 171.197149306386 15.765953574259
vertex -12.2507296781415 169.255679107041 15.0905905766898
vertex -8.78662806300378 171.255679107041 15.0905905766898
endloop
endfacet
facet normal 0.499757274874538 -0.865604991534864 0.0311554945379244
outer loop
vertex -12.2507296781415 169.255679107041 15.0905905766898
vertex -8.7528358668404 171.197149306386 15.765953574259
vertex -12.2169374819782 169.197149306386 15.765953574259
endloop
endfacet
facet normal -0.131987231849261 0.228608591513295 0.964529669069375
outer loop
vertex -15.0916153313803 162.176237396944 7.45535750993343
vertex -10.9299963472852 166.968101874748 7.17170897287194
vertex -16.1261487699919 163.968101874748 7.17170897287195
endloop
endfacet
facet normal -0.0026705520228114 0.00462553178776774 0.999985736202059
outer loop
vertex -10.9299963472852 166.968101874748 7.17170897287194
vertex -15.0916153313803 162.176237396944 7.45535750993343
vertex -9.89546290867365 165.176237396944 7.45535750993342
endloop
endfacet
facet normal -0.126828121510697 0.219672750285044 -0.967294427967138
outer loop
vertex -9.93673579138215 165.24772412677 22.9099502862255
vertex -14.1660438409213 160.573100549431 22.1210636864555
vertex -15.1328882140888 162.24772412677 22.9099502862255
endloop
endfacet
facet normal -0.247683668156632 0.429000697452314 -0.86868360299588
outer loop
vertex -14.1660438409213 160.573100549431 22.1210636864555
vertex -9.93673579138215 165.24772412677 22.9099502862255
vertex -8.96989141821467 163.573100549431 22.1210636864555
endloop
endfacet
facet normal 0.499757274874538 -0.865604991534864 0.0311554945379237
outer loop
vertex -8.78662806300378 171.255679107041 15.0905905766898
vertex -12.1959720300785 169.160836078493 14.4207478873319
vertex -8.73187041494079 171.160836078493 14.4207478873319
endloop
endfacet
facet normal 0.478696641004161 -0.829126903631763 0.288787298137121
outer loop
vertex -12.1959720300785 169.160836078493 14.4207478873319
vertex -8.78662806300378 171.255679107041 15.0905905766898
vertex -12.2507296781415 169.255679107041 15.0905905766898
endloop
endfacet
facet normal 0.114299752263572 -0.197972978213039 0.973520552700325
outer loop
vertex -11.248540119353 167.519835872404 12.6404414254676
vertex -8.10186772100838 170.069639403696 12.8805197415985
vertex -11.5659693361461 168.069639403696 12.8805197415985
endloop
endfacet
facet normal 0.236387912568615 -0.409435874863987 0.881182738803828
outer loop
vertex -8.10186772100838 170.069639403696 12.8805197415985
vertex -11.248540119353 167.519835872404 12.6404414254676
vertex -7.78443850421527 169.519835872404 12.6404414254676
endloop
endfacet
facet normal 0.425013622132952 -0.736145187443151 0.526738724611849
outer loop
vertex -8.59229456587565 170.919083616402 13.8020741784976
vertex -11.8415139943999 168.546896751546 13.2767310410374
vertex -8.37741237926214 170.546896751546 13.2767310410373
endloop
endfacet
facet normal 0.342366627281603 -0.592996393267731 0.728793777481177
outer loop
vertex -11.8415139943999 168.546896751546 13.2767310410374
vertex -8.59229456587565 170.919083616402 13.8020741784976
vertex -12.0563961810134 168.919083616402 13.8020741784976
endloop
endfacet
facet normal 0.866025403784438 0.500000000000001 -1.28292894732737e-015
outer loop
vertex 0.512740851670005 155.148699668499 -0.828405137511612
vertex -6.22168242981955 166.813062951714 14.5772361507178
vertex -6.18789023365618 166.754533151059 15.252599148287
endloop
endfacet
facet normal 0.866025403784438 0.500000000000001 -1.28292894732737e-015
outer loop
vertex -6.22168242981955 166.813062951714 14.5772361507178
vertex 0.512740851670005 155.148699668499 -0.828405137511612
vertex -6.341721587885 167.020976872381 13.9423777171316
endloop
endfacet
facet normal 0.866025403784438 0.500000000000001 -1.28292894732737e-015
outer loop
vertex -6.341721587885 167.020976872381 13.9423777171316
vertex 0.512740851670005 155.148699668499 -0.828405137511612
vertex -6.53982723760444 167.364105922961 13.3912884006241
endloop
endfacet
facet normal 0.866025403784438 0.500000000000001 -1.28292894732737e-015
outer loop
vertex -6.53982723760444 167.364105922961 13.3912884006241
vertex 0.512740851670005 155.148699668499 -0.828405137511612
vertex -6.80249880633457 167.819066425706 12.9615240273971
endloop
endfacet
facet normal 0.866025403784438 0.500000000000001 -1.28292894732737e-015
outer loop
vertex -6.80249880633457 167.819066425706 12.9615240273971
vertex 0.512740851670005 155.148699668499 -0.828405137511612
vertex -15.48725914833 182.861512589601 -0.828405137511567
endloop
endfacet
facet normal 0.866025403784438 0.500000000000001 -1.28292894732737e-015
outer loop
vertex -6.80249880633457 167.819066425706 12.9615240273971
vertex -15.48725914833 182.861512589601 -0.828405137511567
vertex -7.11183566075172 168.35485357421 12.6823723292668
endloop
endfacet
facet normal 0.866025403784438 0.500000000000001 -1.28292894732737e-015
outer loop
vertex -7.11183566075172 168.35485357421 12.6823723292668
vertex -15.48725914833 182.861512589601 -0.828405137511567
vertex -7.44675700543068 168.934954359733 12.5728570331408
endloop
endfacet
facet normal 0.866025403784438 0.500000000000001 -1.28292894732737e-015
outer loop
vertex -7.44675700543068 168.934954359733 12.5728570331408
vertex -15.48725914833 182.861512589601 -0.828405137511567
vertex -7.78443850421527 169.519835872404 12.6404414254676
endloop
endfacet
facet normal 0.866025403784438 0.500000000000001 -1.28292894732737e-015
outer loop
vertex -7.78443850421527 169.519835872404 12.6404414254676
vertex -15.48725914833 182.861512589601 -0.828405137511567
vertex -8.10186772100838 170.069639403696 12.8805197415985
endloop
endfacet
facet normal 0.866025403784438 0.500000000000001 -1.28292894732737e-015
outer loop
vertex -8.10186772100838 170.069639403696 12.8805197415985
vertex -15.48725914833 182.861512589601 -0.828405137511567
vertex -8.37741237926214 170.546896751546 13.2767310410373
endloop
endfacet
facet normal 0.866025403784438 0.500000000000001 -1.28292894732737e-015
outer loop
vertex -8.37741237926214 170.546896751546 13.2767310410373
vertex -15.48725914833 182.861512589601 -0.828405137511567
vertex -8.59229456587565 170.919083616402 13.8020741784976
endloop
endfacet
facet normal 0.866025403784438 0.500000000000001 -1.28292894732737e-015
outer loop
vertex -8.59229456587565 170.919083616402 13.8020741784976
vertex -15.48725914833 182.861512589601 -0.828405137511567
vertex -8.73187041494079 171.160836078493 14.4207478873319
endloop
endfacet
facet normal 0.866025403784438 0.500000000000001 -1.28292894732737e-015
outer loop
vertex -8.73187041494079 171.160836078493 14.4207478873319
vertex -15.48725914833 182.861512589601 -0.828405137511567
vertex -8.78662806300378 171.255679107041 15.0905905766898
endloop
endfacet
facet normal 0.866025403784438 0.500000000000001 -1.28292894732737e-015
outer loop
vertex -8.78662806300378 171.255679107041 15.0905905766898
vertex -15.48725914833 182.861512589601 -0.828405137511567
vertex -15.48725914833 182.861512589601 31.1715948624884
endloop
endfacet
facet normal 0.866025403784438 0.500000000000001 -1.28292894732737e-015
outer loop
vertex 0.512740851670067 155.148699668499 31.1715948624884
vertex -6.59710591739781 167.463315506554 17.0664586839395
vertex -15.48725914833 182.861512589601 31.1715948624884
endloop
endfacet
facet normal 0.866025403784438 0.500000000000001 -1.28292894732737e-015
outer loop
vertex -6.59710591739781 167.463315506554 17.0664586839395
vertex 0.512740851670067 155.148699668499 31.1715948624884
vertex -6.3822237307843 167.091128641698 16.5411155464792
endloop
endfacet
facet normal 0.866025403784438 0.500000000000001 -1.28292894732737e-015
outer loop
vertex -6.3822237307843 167.091128641698 16.5411155464792
vertex 0.512740851670067 155.148699668499 31.1715948624884
vertex 0.512740851670005 155.148699668499 -0.828405137511612
endloop
endfacet
facet normal 0.866025403784438 0.500000000000001 -1.28292894732737e-015
outer loop
vertex -6.3822237307843 167.091128641698 16.5411155464792
vertex 0.512740851670005 155.148699668499 -0.828405137511612
vertex -6.24264788171916 166.849376179607 15.9224418376449
endloop
endfacet
facet normal 0.866025403784438 0.500000000000001 -1.28292894732737e-015
outer loop
vertex -6.24264788171916 166.849376179607 15.9224418376449
vertex 0.512740851670005 155.148699668499 -0.828405137511612
vertex -6.18789023365618 166.754533151059 15.252599148287
endloop
endfacet
facet normal 0.866025403784438 0.500000000000001 -1.28292894732737e-015
outer loop
vertex -15.48725914833 182.861512589601 31.1715948624884
vertex -6.59710591739781 167.463315506554 17.0664586839395
vertex -6.87265057565158 167.940572854404 17.4626699833784
endloop
endfacet
facet normal 0.866025403784438 0.500000000000001 -1.28292894732737e-015
outer loop
vertex -15.48725914833 182.861512589601 31.1715948624884
vertex -6.87265057565158 167.940572854404 17.4626699833784
vertex -7.19007979244469 168.490376385696 17.7027482995093
endloop
endfacet
facet normal 0.866025403784438 0.500000000000001 -1.28292894732737e-015
outer loop
vertex -15.48725914833 182.861512589601 31.1715948624884
vertex -7.19007979244469 168.490376385696 17.7027482995093
vertex -7.52776129122927 169.075257898367 17.770332691836
endloop
endfacet
facet normal 0.866025403784438 0.500000000000001 -1.28292894732737e-015
outer loop
vertex -15.48725914833 182.861512589601 31.1715948624884
vertex -7.52776129122927 169.075257898367 17.770332691836
vertex -7.86268263590823 169.65535868389 17.66081739571
endloop
endfacet
facet normal 0.866025403784438 0.500000000000001 -1.28292894732737e-015
outer loop
vertex -15.48725914833 182.861512589601 31.1715948624884
vertex -7.86268263590823 169.65535868389 17.66081739571
vertex -8.17201949032538 170.191145832394 17.3816656975798
endloop
endfacet
facet normal 0.866025403784438 0.500000000000001 -1.28292894732737e-015
outer loop
vertex -15.48725914833 182.861512589601 31.1715948624884
vertex -8.17201949032538 170.191145832394 17.3816656975798
vertex -8.43469105905551 170.646106335139 16.9519013243527
endloop
endfacet
facet normal 0.866025403784438 0.500000000000001 -1.28292894732737e-015
outer loop
vertex -15.48725914833 182.861512589601 31.1715948624884
vertex -8.43469105905551 170.646106335139 16.9519013243527
vertex -8.63279670877496 170.989235385719 16.4008120078452
endloop
endfacet
facet normal 0.866025403784438 0.500000000000001 -1.28292894732737e-015
outer loop
vertex -15.48725914833 182.861512589601 31.1715948624884
vertex -8.63279670877496 170.989235385719 16.4008120078452
vertex -8.7528358668404 171.197149306386 15.765953574259
endloop
endfacet
facet normal 0.866025403784438 0.500000000000001 -1.28292894732737e-015
outer loop
vertex -15.48725914833 182.861512589601 31.1715948624884
vertex -8.7528358668404 171.197149306386 15.765953574259
vertex -8.78662806300378 171.255679107041 15.0905905766898
endloop
endfacet
facet normal -0.866025403784438 -0.500000000000001 1.28292894732737e-015
outer loop
vertex -9.93673579138215 165.24772412677 22.9099502862255
vertex -9.65199184879393 164.754533151059 15.252599148287
vertex -8.96989141821467 163.573100549431 22.1210636864555
endloop
endfacet
facet normal -0.866025403784438 -0.500000000000001 1.28292894732737e-015
outer loop
vertex -9.65199184879393 164.754533151059 15.252599148287
vertex -9.93673579138215 165.24772412677 22.9099502862255
vertex -9.70674949685692 164.849376179607 15.9224418376449
endloop
endfacet
facet normal -0.866025403784438 -0.500000000000001 1.28292894732737e-015
outer loop
vertex -9.70674949685692 164.849376179607 15.9224418376449
vertex -9.93673579138215 165.24772412677 22.9099502862255
vertex -9.84632534592205 165.091128641698 16.5411155464792
endloop
endfacet
facet normal -0.866025403784438 -0.500000000000001 1.28292894732737e-015
outer loop
vertex -9.84632534592205 165.091128641698 16.5411155464792
vertex -9.93673579138215 165.24772412677 22.9099502862255
vertex -10.0612075325356 165.463315506554 17.0664586839395
endloop
endfacet
facet normal -0.866025403784438 -0.500000000000001 1.28292894732737e-015
outer loop
vertex -10.0612075325356 165.463315506554 17.0664586839395
vertex -9.93673579138215 165.24772412677 22.9099502862255
vertex -10.9727251796502 167.042110383352 23.1714807521049
endloop
endfacet
facet normal -0.866025403784438 -0.500000000000001 1.28292894732737e-015
outer loop
vertex -10.0612075325356 165.463315506554 17.0664586839395
vertex -10.9727251796502 167.042110383352 23.1714807521049
vertex -10.3367521907893 165.940572854404 17.4626699833784
endloop
endfacet
facet normal -0.866025403784438 -0.500000000000001 1.28292894732737e-015
outer loop
vertex -10.3367521907893 165.940572854404 17.4626699833784
vertex -10.9727251796502 167.042110383352 23.1714807521049
vertex -10.6541814075824 166.490376385696 17.7027482995093
endloop
endfacet
facet normal -0.866025403784438 -0.500000000000001 1.28292894732737e-015
outer loop
vertex -10.6541814075824 166.490376385696 17.7027482995093
vertex -10.9727251796502 167.042110383352 23.1714807521049
vertex -10.991862906367 167.075257898367 17.770332691836
endloop
endfacet
facet normal -0.866025403784438 -0.500000000000001 1.28292894732737e-015
outer loop
vertex -10.991862906367 167.075257898367 17.770332691836
vertex -10.9727251796502 167.042110383352 23.1714807521049
vertex -12.0072586182618 168.833974861156 22.8878322150434
endloop
endfacet
facet normal -0.866025403784438 -0.500000000000001 1.28292894732737e-015
outer loop
vertex -10.991862906367 167.075257898367 17.770332691836
vertex -12.0072586182618 168.833974861156 22.8878322150434
vertex -11.326784251046 167.65535868389 17.66081739571
endloop
endfacet
facet normal -0.866025403784438 -0.500000000000001 1.28292894732737e-015
outer loop
vertex -11.326784251046 167.65535868389 17.66081739571
vertex -12.0072586182618 168.833974861156 22.8878322150434
vertex -11.6361211054631 168.191145832394 17.3816656975798
endloop
endfacet
facet normal -0.866025403784438 -0.500000000000001 1.28292894732737e-015
outer loop
vertex -11.6361211054631 168.191145832394 17.3816656975798
vertex -12.0072586182618 168.833974861156 22.8878322150434
vertex -11.8987926741933 168.646106335139 16.9519013243527
endloop
endfacet
facet normal -0.866025403784438 -0.500000000000001 1.28292894732737e-015
outer loop
vertex -11.8987926741933 168.646106335139 16.9519013243527
vertex -12.0072586182618 168.833974861156 22.8878322150434
vertex -12.0968983239127 168.989235385719 16.4008120078452
endloop
endfacet
facet normal -0.866025403784438 -0.500000000000001 1.28292894732737e-015
outer loop
vertex -12.0968983239127 168.989235385719 16.4008120078452
vertex -12.0072586182618 168.833974861156 22.8878322150434
vertex -12.9698343630229 170.501204957216 22.0783348540905
endloop
endfacet
facet normal -0.866025403784438 -0.500000000000001 1.28292894732737e-015
outer loop
vertex -12.0968983239127 168.989235385719 16.4008120078452
vertex -12.9698343630229 170.501204957216 22.0783348540905
vertex -12.2169374819782 169.197149306386 15.765953574259
endloop
endfacet
facet normal -0.866025403784438 -0.500000000000001 1.28292894732737e-015
outer loop
vertex -12.2169374819782 169.197149306386 15.765953574259
vertex -12.9698343630229 170.501204957216 22.0783348540905
vertex -12.2507296781415 169.255679107041 15.0905905766898
endloop
endfacet
facet normal -0.866025403784438 -0.500000000000001 1.28292894732737e-015
outer loop
vertex -12.2507296781415 169.255679107041 15.0905905766898
vertex -12.9698343630229 170.501204957216 22.0783348540905
vertex -12.9328301087208 170.437111708668 8.22212603852138
endloop
endfacet
facet normal -0.866025403784438 -0.500000000000001 1.28292894732737e-015
outer loop
vertex -12.9328301087208 170.437111708668 8.22212603852138
vertex -12.9698343630229 170.501204957216 22.0783348540905
vertex -13.7646406205422 171.877849777413 9.48460745410456
endloop
endfacet
facet normal -0.866025403784438 -0.500000000000001 1.28292894732737e-015
outer loop
vertex -13.7646406205422 171.877849777413 9.48460745410456
vertex -12.9698343630229 170.501204957216 22.0783348540905
vertex -13.7948544676597 171.930181695713 20.7981545766373
endloop
endfacet
facet normal -0.866025403784438 -0.500000000000001 1.28292894732737e-015
outer loop
vertex -13.7646406205422 171.877849777413 9.48460745410456
vertex -13.7948544676597 171.930181695713 20.7981545766373
vertex -14.4047307592688 172.986518419111 11.134647663378
endloop
endfacet
facet normal -0.866025403784438 -0.500000000000001 1.28292894732737e-015
outer loop
vertex -14.4047307592688 172.986518419111 11.134647663378
vertex -13.7948544676597 171.930181695713 20.7981545766373
vertex -14.4260951754512 173.023522673413 19.1345335529945
endloop
endfacet
facet normal -0.866025403784438 -0.500000000000001 1.28292894732737e-015
outer loop
vertex -14.4047307592688 172.986518419111 11.134647663378
vertex -14.4260951754512 173.023522673413 19.1345335529945
vertex -14.8094794397452 173.687563697993 13.0597991529002
endloop
endfacet
facet normal -0.866025403784438 -0.500000000000001 1.28292894732737e-015
outer loop
vertex -14.8094794397452 173.687563697993 13.0597991529002
vertex -14.4260951754512 173.023522673413 19.1345335529945
vertex -14.8205384753363 173.706718509519 17.2008448066595
endloop
endfacet
facet normal -0.866025403784438 -0.500000000000001 1.28292894732737e-015
outer loop
vertex -14.8094794397452 173.687563697993 13.0597991529002
vertex -14.8205384753363 173.706718509519 17.2008448066595
vertex -14.951303708276 173.933210536834 15.1288660301234
endloop
endfacet
facet normal -0.866025403784438 -0.500000000000001 1.28292894732737e-015
outer loop
vertex -7.09324208719022 160.322648560107 17.2833905720766
vertex -7.08218305159918 160.303493748581 13.1423449183173
vertex -6.95141781865949 160.077001721265 15.2143236948534
endloop
endfacet
facet normal -0.866025403784438 -0.500000000000001 1.28292894732737e-015
outer loop
vertex -7.08218305159918 160.303493748581 13.1423449183173
vertex -7.09324208719022 160.322648560107 17.2833905720766
vertex -7.47662635148421 160.986689584687 11.2086561719823
endloop
endfacet
facet normal -0.866025403784438 -0.500000000000001 1.28292894732737e-015
outer loop
vertex -7.47662635148421 160.986689584687 11.2086561719823
vertex -7.09324208719022 160.322648560107 17.2833905720766
vertex -7.4979907676667 161.023693838989 19.2085420615988
endloop
endfacet
facet normal -0.866025403784438 -0.500000000000001 1.28292894732737e-015
outer loop
vertex -7.47662635148421 160.986689584687 11.2086561719823
vertex -7.4979907676667 161.023693838989 19.2085420615988
vertex -8.1078670592758 162.080030562387 9.54503514833951
endloop
endfacet
facet normal -0.866025403784438 -0.500000000000001 1.28292894732737e-015
outer loop
vertex -8.1078670592758 162.080030562387 9.54503514833951
vertex -7.4979907676667 161.023693838989 19.2085420615988
vertex -8.13808090639327 162.132362480687 20.8585822708723
endloop
endfacet
facet normal -0.866025403784438 -0.500000000000001 1.28292894732737e-015
outer loop
vertex -8.1078670592758 162.080030562387 9.54503514833951
vertex -8.13808090639327 162.132362480687 20.8585822708723
vertex -8.93288716391255 163.509007300884 8.26485487088637
endloop
endfacet
facet normal -0.866025403784438 -0.500000000000001 1.28292894732737e-015
outer loop
vertex -8.93288716391255 163.509007300884 8.26485487088637
vertex -8.13808090639327 162.132362480687 20.8585822708723
vertex -8.96989141821467 163.573100549431 22.1210636864555
endloop
endfacet
facet normal -0.866025403784438 -0.500000000000001 1.28292894732737e-015
outer loop
vertex -8.93288716391255 163.509007300884 8.26485487088637
vertex -8.96989141821467 163.573100549431 22.1210636864555
vertex -9.89546290867365 165.176237396944 7.45535750993342
endloop
endfacet
facet normal -0.866025403784438 -0.500000000000001 1.28292894732737e-015
outer loop
vertex -9.89546290867365 165.176237396944 7.45535750993342
vertex -8.96989141821467 163.573100549431 22.1210636864555
vertex -9.65199184879393 164.754533151059 15.252599148287
endloop
endfacet
facet normal -0.866025403784438 -0.500000000000001 1.28292894732737e-015
outer loop
vertex -9.89546290867365 165.176237396944 7.45535750993342
vertex -9.65199184879393 164.754533151059 15.252599148287
vertex -9.68578404495731 164.813062951714 14.5772361507178
endloop
endfacet
facet normal -0.866025403784438 -0.500000000000001 1.28292894732737e-015
outer loop
vertex -9.89546290867365 165.176237396944 7.45535750993342
vertex -9.68578404495731 164.813062951714 14.5772361507178
vertex -9.80582320302276 165.020976872381 13.9423777171316
endloop
endfacet
facet normal -0.866025403784438 -0.500000000000001 1.28292894732737e-015
outer loop
vertex -9.89546290867365 165.176237396944 7.45535750993342
vertex -9.80582320302276 165.020976872381 13.9423777171316
vertex -10.0039288527422 165.364105922961 13.3912884006241
endloop
endfacet
facet normal -0.866025403784438 -0.500000000000001 1.28292894732737e-015
outer loop
vertex -9.89546290867365 165.176237396944 7.45535750993342
vertex -10.0039288527422 165.364105922961 13.3912884006241
vertex -10.9299963472852 166.968101874748 7.17170897287194
endloop
endfacet
facet normal -0.866025403784438 -0.500000000000001 1.28292894732737e-015
outer loop
vertex -10.9299963472852 166.968101874748 7.17170897287194
vertex -10.0039288527422 165.364105922961 13.3912884006241
vertex -10.2666004214723 165.819066425706 12.9615240273971
endloop
endfacet
facet normal -0.866025403784438 -0.500000000000001 1.28292894732737e-015
outer loop
vertex -10.9299963472852 166.968101874748 7.17170897287194
vertex -10.2666004214723 165.819066425706 12.9615240273971
vertex -10.5759372758895 166.35485357421 12.6823723292668
endloop
endfacet
facet normal -0.866025403784438 -0.500000000000001 1.28292894732737e-015
outer loop
vertex -10.9299963472852 166.968101874748 7.17170897287194
vertex -10.5759372758895 166.35485357421 12.6823723292668
vertex -10.9108586205684 166.934954359733 12.5728570331408
endloop
endfacet
facet normal -0.866025403784438 -0.500000000000001 1.28292894732737e-015
outer loop
vertex -10.9299963472852 166.968101874748 7.17170897287194
vertex -10.9108586205684 166.934954359733 12.5728570331408
vertex -11.248540119353 167.519835872404 12.6404414254676
endloop
endfacet
facet normal -0.866025403784438 -0.500000000000001 1.28292894732737e-015
outer loop
vertex -10.9299963472852 166.968101874748 7.17170897287194
vertex -11.248540119353 167.519835872404 12.6404414254676
vertex -11.9659857355533 168.76248813133 7.43323943875131
endloop
endfacet
facet normal -0.866025403784438 -0.500000000000001 1.28292894732737e-015
outer loop
vertex -11.9659857355533 168.76248813133 7.43323943875131
vertex -11.248540119353 167.519835872404 12.6404414254676
vertex -11.5659693361461 168.069639403696 12.8805197415985
endloop
endfacet
facet normal -0.866025403784438 -0.500000000000001 1.28292894732737e-015
outer loop
vertex -11.9659857355533 168.76248813133 7.43323943875131
vertex -11.5659693361461 168.069639403696 12.8805197415985
vertex -11.8415139943999 168.546896751546 13.2767310410374
endloop
endfacet
facet normal -0.866025403784438 -0.500000000000001 1.28292894732737e-015
outer loop
vertex -11.9659857355533 168.76248813133 7.43323943875131
vertex -11.8415139943999 168.546896751546 13.2767310410374
vertex -12.0563961810134 168.919083616402 13.8020741784976
endloop
endfacet
facet normal -0.866025403784438 -0.500000000000001 1.28292894732737e-015
outer loop
vertex -11.9659857355533 168.76248813133 7.43323943875131
vertex -12.0563961810134 168.919083616402 13.8020741784976
vertex -12.9328301087208 170.437111708668 8.22212603852138
endloop
endfacet
facet normal -0.866025403784438 -0.500000000000001 1.28292894732737e-015
outer loop
vertex -12.9328301087208 170.437111708668 8.22212603852138
vertex -12.0563961810134 168.919083616402 13.8020741784976
vertex -12.1959720300785 169.160836078493 14.4207478873319
endloop
endfacet
facet normal -0.866025403784438 -0.500000000000001 1.28292894732737e-015
outer loop
vertex -12.9328301087208 170.437111708668 8.22212603852138
vertex -12.1959720300785 169.160836078493 14.4207478873319
vertex -12.2507296781415 169.255679107041 15.0905905766898
endloop
endfacet
facet normal 0.478696641004161 -0.829126903631763 0.288787298137122
outer loop
vertex -8.73187041494079 171.160836078493 14.4207478873319
vertex -12.0563961810134 168.919083616402 13.8020741784976
vertex -8.59229456587565 170.919083616402 13.8020741784976
endloop
endfacet
facet normal 0.425013622132952 -0.736145187443151 0.526738724611848
outer loop
vertex -12.0563961810134 168.919083616402 13.8020741784976
vertex -8.73187041494079 171.160836078493 14.4207478873319
vertex -12.1959720300785 169.160836078493 14.4207478873319
endloop
endfacet
facet normal -0.0026705520228115 0.00462553178776791 0.999985736202059
outer loop
vertex -16.1261487699919 163.968101874748 7.17170897287195
vertex -11.9659857355533 168.76248813133 7.43323943875131
vertex -17.1621381582599 165.76248813133 7.43323943875132
endloop
endfacet
facet normal 0.126828121510697 -0.219672750285044 0.967294427967138
outer loop
vertex -11.9659857355533 168.76248813133 7.43323943875131
vertex -16.1261487699919 163.968101874748 7.17170897287195
vertex -10.9299963472852 166.968101874748 7.17170897287194
endloop
endfacet
facet normal -0.355436713023991 0.615634445832831 0.703319964268614
outer loop
vertex -13.3040194819824 159.080030562387 9.54503514833952
vertex -7.47662635148421 160.986689584687 11.2086561719823
vertex -8.1078670592758 162.080030562387 9.54503514833951
endloop
endfacet
facet normal -0.43434180149794 0.752302068045428 0.495367336313263
outer loop
vertex -7.47662635148421 160.986689584687 11.2086561719823
vertex -13.3040194819824 159.080030562387 9.54503514833952
vertex -12.6727787741908 157.986689584687 11.2086561719823
endloop
endfacet
facet normal 0.14439364906856 -0.250097136477018 -0.95739328200832
outer loop
vertex -7.86268263590823 169.65535868389 17.66081739571
vertex -10.991862906367 167.075257898367 17.770332691836
vertex -11.326784251046 167.65535868389 17.66081739571
endloop
endfacet
facet normal 0.0155777472689612 -0.0269814497373106 -0.999514549749076
outer loop
vertex -10.991862906367 167.075257898367 17.770332691836
vertex -7.86268263590823 169.65535868389 17.66081739571
vertex -7.52776129122927 169.075257898367 17.770332691836
endloop
endfacet
facet normal -0.440591369401914 0.763126637180463 0.472775825137226
outer loop
vertex -9.80582320302276 165.020976872381 13.9423777171316
vertex -6.22168242981955 166.813062951714 14.5772361507178
vertex -6.341721587885 167.020976872381 13.9423777171316
endloop
endfacet
facet normal -0.486760276350163 0.843093529744749 0.228599504527141
outer loop
vertex -6.22168242981955 166.813062951714 14.5772361507178
vertex -9.80582320302276 165.020976872381 13.9423777171316
vertex -9.68578404495731 164.813062951714 14.5772361507178
endloop
endfacet
facet normal 0.49999286810103 -0.866013050973067 0.00534110404562511
outer loop
vertex -14.951303708276 173.933210536834 15.1288660301234
vertex -20.0056318624519 170.687563697993 13.0597991529002
vertex -14.8094794397452 173.687563697993 13.0597991529002
endloop
endfacet
facet normal 0.482264834534688 -0.835307196117876 0.263974463698524
outer loop
vertex -20.0056318624519 170.687563697993 13.0597991529002
vertex -14.951303708276 173.933210536834 15.1288660301234
vertex -20.1474561309826 170.933210536834 15.1288660301234
endloop
endfacet
facet normal -0.247683668156632 0.429000697452314 -0.86868360299588
outer loop
vertex -8.96989141821467 163.573100549431 22.1210636864555
vertex -13.3342333290999 159.132362480687 20.8585822708723
vertex -14.1660438409213 160.573100549431 22.1210636864555
endloop
endfacet
facet normal -0.351659982134308 0.609092956045382 -0.710873426047983
outer loop
vertex -13.3342333290999 159.132362480687 20.8585822708723
vertex -8.96989141821467 163.573100549431 22.1210636864555
vertex -8.13808090639327 162.132362480687 20.8585822708723
endloop
endfacet
facet normal 0.131987231849261 -0.228608591513296 -0.964529669069374
outer loop
vertex -12.0072586182618 168.833974861156 22.8878322150434
vertex -16.1688776023568 164.042110383352 23.1714807521049
vertex -17.2034110409685 165.833974861156 22.8878322150434
endloop
endfacet
facet normal 0.00267055202281132 -0.00462553178776761 -0.999985736202059
outer loop
vertex -16.1688776023568 164.042110383352 23.1714807521049
vertex -12.0072586182618 168.833974861156 22.8878322150434
vertex -10.9727251796502 167.042110383352 23.1714807521049
endloop
endfacet
facet normal 0.015577747268961 -0.0269814497373103 -0.999514549749076
outer loop
vertex -7.52776129122927 169.075257898367 17.770332691836
vertex -10.6541814075824 166.490376385696 17.7027482995093
vertex -10.991862906367 167.075257898367 17.770332691836
endloop
endfacet
facet normal -0.114299752263571 0.197972978213039 -0.973520552700325
outer loop
vertex -10.6541814075824 166.490376385696 17.7027482995093
vertex -7.52776129122927 169.075257898367 17.770332691836
vertex -7.19007979244469 168.490376385696 17.7027482995093
endloop
endfacet
facet normal 0.355436713023991 -0.615634445832832 -0.703319964268613
outer loop
vertex -13.7948544676597 171.930181695713 20.7981545766373
vertex -18.1659867857295 167.501204957216 22.0783348540905
vertex -18.9910068903663 168.930181695713 20.7981545766373
endloop
endfacet
facet normal 0.252309199944398 -0.437012353520753 -0.863342498950255
outer loop
vertex -18.1659867857295 167.501204957216 22.0783348540905
vertex -13.7948544676597 171.930181695713 20.7981545766373
vertex -12.9698343630229 170.501204957216 22.0783348540905
endloop
endfacet
facet normal 0.247683668156633 -0.429000697452314 0.86868360299588
outer loop
vertex -18.1289825314274 167.437111708668 8.22212603852139
vertex -13.7646406205422 171.877849777413 9.48460745410456
vertex -18.9607930432488 168.877849777413 9.48460745410456
endloop
endfacet
facet normal 0.351659982134308 -0.609092956045383 0.710873426047982
outer loop
vertex -13.7646406205422 171.877849777413 9.48460745410456
vertex -18.1289825314274 167.437111708668 8.22212603852139
vertex -12.9328301087208 170.437111708668 8.22212603852138
endloop
endfacet
facet normal 0.364396888740588 -0.631153925418723 -0.684733254563203
outer loop
vertex -8.43469105905551 170.646106335139 16.9519013243527
vertex -11.6361211054631 168.191145832394 17.3816656975798
vertex -11.8987926741933 168.646106335139 16.9519013243527
endloop
endfacet
facet normal 0.263369362305924 -0.456169116670877 -0.850027244265901
outer loop
vertex -11.6361211054631 168.191145832394 17.3816656975798
vertex -8.43469105905551 170.646106335139 16.9519013243527
vertex -8.17201949032538 170.191145832394 17.3816656975798
endloop
endfacet
facet normal -0.236387912568615 0.409435874863988 -0.881182738803827
outer loop
vertex -6.87265057565158 167.940572854404 17.4626699833784
vertex -10.0612075325356 165.463315506554 17.0664586839395
vertex -10.3367521907893 165.940572854404 17.4626699833784
endloop
endfacet
facet normal -0.342366627281603 0.59299639326773 -0.728793777481177
outer loop
vertex -10.0612075325356 165.463315506554 17.0664586839395
vertex -6.87265057565158 167.940572854404 17.4626699833784
vertex -6.59710591739781 167.463315506554 17.0664586839395
endloop
endfacet
facet normal 0.355436713023991 -0.615634445832832 -0.703319964268613
outer loop
vertex -13.7948544676597 171.930181695713 20.7981545766373
vertex -19.6222475981579 170.023522673413 19.1345335529945
vertex -14.4260951754512 173.023522673413 19.1345335529945
endloop
endfacet
facet normal 0.43434180149794 -0.752302068045428 -0.495367336313262
outer loop
vertex -19.6222475981579 170.023522673413 19.1345335529945
vertex -13.7948544676597 171.930181695713 20.7981545766373
vertex -18.9910068903663 168.930181695713 20.7981545766373
endloop
endfacet
facet normal -0.0155777472689608 0.0269814497373099 0.999514549749076
outer loop
vertex -10.9108586205684 166.934954359733 12.5728570331408
vertex -7.78443850421527 169.519835872404 12.6404414254676
vertex -11.248540119353 167.519835872404 12.6404414254676
endloop
endfacet
facet normal 0.114299752263571 -0.197972978213039 0.973520552700325
outer loop
vertex -7.78443850421527 169.519835872404 12.6404414254676
vertex -10.9108586205684 166.934954359733 12.5728570331408
vertex -7.44675700543068 168.934954359733 12.5728570331408
endloop
endfacet
facet normal -0.499757274874538 0.865604991534864 -0.0311554945379244
outer loop
vertex -9.65199184879393 164.754533151059 15.252599148287
vertex -6.24264788171916 166.849376179607 15.9224418376449
vertex -6.18789023365618 166.754533151059 15.252599148287
endloop
endfacet
facet normal -0.478696641004161 0.829126903631763 -0.288787298137121
outer loop
vertex -6.24264788171916 166.849376179607 15.9224418376449
vertex -9.65199184879393 164.754533151059 15.252599148287
vertex -9.70674949685692 164.849376179607 15.9224418376449
endloop
endfacet
facet normal -1.87110228306332e-015 7.80244053206618e-016 -1.0
outer loop
vertex -15.48725914833 182.861512589601 -0.828405137511567
vertex -9.48725914832999 152.469207744188 -0.828405137511596
vertex -24.1475131861744 177.861512589601 -0.82840513751155
endloop
endfacet
facet normal -1.87110228306332e-015 7.80244053206618e-016 -1.0
outer loop
vertex -9.48725914832999 152.469207744188 -0.828405137511596
vertex -15.48725914833 182.861512589601 -0.828405137511567
vertex 0.512740851670005 155.148699668499 -0.828405137511612
endloop
endfacet
facet normal -1.87110228306332e-015 7.80244053206618e-016 -1.0
outer loop
vertex -9.48725914832999 152.469207744188 -0.828405137511596
vertex 0.512740851670005 155.148699668499 -0.828405137511612
vertex 0.512740851669999 129.148699668499 -0.828405137511641
endloop
endfacet
facet normal -1.87110228306332e-015 7.80244053206618e-016 -1.0
outer loop
vertex -41.68725914833 139.453152047114 -0.82840513751155
vertex -31.68725914833 129.148699668499 -0.828405137511579
vertex -41.6872591483298 2.1486996684992 -0.828405137511652
endloop
endfacet
facet normal -1.87110228306332e-015 7.80244053206618e-016 -1.0
outer loop
vertex -31.68725914833 129.148699668499 -0.828405137511579
vertex -41.68725914833 139.453152047114 -0.82840513751155
vertex -9.48725914833 139.453152047114 -0.828405137511612
endloop
endfacet
facet normal -1.87110228306332e-015 7.80244053206618e-016 -1.0
outer loop
vertex -31.68725914833 129.148699668499 -0.828405137511579
vertex -9.48725914833 139.453152047114 -0.828405137511612
vertex 0.512740851669999 129.148699668499 -0.828405137511641
endloop
endfacet
facet normal -1.87110228306332e-015 7.80244053206618e-016 -1.0
outer loop
vertex 0.512740851669999 129.148699668499 -0.828405137511641
vertex -9.48725914833 139.453152047114 -0.828405137511612
vertex -9.48725914832999 152.469207744188 -0.828405137511596
endloop
endfacet
facet normal -1.87110228306332e-015 7.80244053206618e-016 -1.0
outer loop
vertex -31.6872591483298 2.1486996684992 -0.828405137511669
vertex -41.6872591483298 2.1486996684992 -0.828405137511652
vertex -31.68725914833 129.148699668499 -0.828405137511579
endloop
endfacet
facet normal 1.27764818361862e-015 -9.1525749000586e-016 1.0
outer loop
vertex -41.6872591483298 2.14869966849918 31.1715948624884
vertex -31.6872591483299 37.2270722370225 31.1715948624884
vertex -41.6872591483298 37.2270722370225 31.1715948624884
endloop
endfacet
facet normal 1.27764818361862e-015 -9.1525749000586e-016 1.0
outer loop
vertex -31.6872591483299 37.2270722370225 31.1715948624884
vertex -41.6872591483298 2.14869966849918 31.1715948624884
vertex -31.6872591483298 2.14869966849918 31.1715948624883
endloop
endfacet
facet normal -0.114299752263571 0.197972978213039 -0.973520552700325
outer loop
vertex -7.19007979244469 168.490376385696 17.7027482995093
vertex -10.3367521907893 165.940572854404 17.4626699833784
vertex -10.6541814075824 166.490376385696 17.7027482995093
endloop
endfacet
facet normal -0.236387912568615 0.409435874863987 -0.881182738803827
outer loop
vertex -10.3367521907893 165.940572854404 17.4626699833784
vertex -7.19007979244469 168.490376385696 17.7027482995093
vertex -6.87265057565158 167.940572854404 17.4626699833784
endloop
endfacet
facet normal 2.31433359291819e-015 -6.79593904961188e-016 1.0
outer loop
vertex -11.4462316527789 129.148699668499 31.1715948624884
vertex -9.48725914832993 139.453152047114 31.1715948624884
vertex -11.4462316527789 139.453152047114 31.1715948624884
endloop
endfacet
facet normal 2.31433359291819e-015 -6.79593904961188e-016 1.0
outer loop
vertex -9.48725914832993 139.453152047114 31.1715948624884
vertex -11.4462316527789 129.148699668499 31.1715948624884
vertex 0.512740851670061 129.148699668499 31.1715948624884
endloop
endfacet
facet normal 2.31433359291819e-015 -6.79593904961188e-016 1.0
outer loop
vertex -9.48725914832994 152.469207744188 31.1715948624884
vertex -15.48725914833 182.861512589601 31.1715948624884
vertex -24.1475131861743 177.861512589601 31.1715948624884
endloop
endfacet
facet normal 2.31433359291819e-015 -6.79593904961188e-016 1.0
outer loop
vertex -15.48725914833 182.861512589601 31.1715948624884
vertex -9.48725914832994 152.469207744188 31.1715948624884
vertex 0.512740851670067 155.148699668499 31.1715948624884
endloop
endfacet
facet normal 2.31433359291819e-015 -6.79593904961188e-016 1.0
outer loop
vertex 0.512740851670067 155.148699668499 31.1715948624884
vertex -9.48725914832994 152.469207744188 31.1715948624884
vertex -9.48725914832993 139.453152047114 31.1715948624884
endloop
endfacet
facet normal 2.31433359291819e-015 -6.79593904961188e-016 1.0
outer loop
vertex 0.512740851670067 155.148699668499 31.1715948624884
vertex -9.48725914832993 139.453152047114 31.1715948624884
vertex 0.512740851670061 129.148699668499 31.1715948624884
endloop
endfacet
facet normal -0.425013622132952 0.736145187443151 -0.526738724611848
outer loop
vertex -9.84632534592205 165.091128641698 16.5411155464792
vertex -6.59710591739781 167.463315506554 17.0664586839395
vertex -6.3822237307843 167.091128641698 16.5411155464792
endloop
endfacet
facet normal -0.342366627281603 0.592996393267731 -0.728793777481177
outer loop
vertex -6.59710591739781 167.463315506554 17.0664586839395
vertex -9.84632534592205 165.091128641698 16.5411155464792
vertex -10.0612075325356 165.463315506554 17.0664586839395
endloop
endfacet
facet normal 0.364396888740588 -0.631153925418723 -0.684733254563203
outer loop
vertex -8.43469105905551 170.646106335139 16.9519013243527
vertex -12.0968983239127 168.989235385719 16.4008120078452
vertex -8.63279670877496 170.989235385719 16.4008120078452
endloop
endfacet
facet normal 0.440591369401914 -0.763126637180462 -0.472775825137227
outer loop
vertex -12.0968983239127 168.989235385719 16.4008120078452
vertex -8.43469105905551 170.646106335139 16.9519013243527
vertex -11.8987926741933 168.646106335139 16.9519013243527
endloop
endfacet
facet normal -0.431671249475129 0.74767653625766 -0.504618399888796
outer loop
vertex -12.6941431903733 158.023693838989 19.2085420615988
vertex -8.13808090639327 162.132362480687 20.8585822708723
vertex -7.4979907676667 161.023693838989 19.2085420615988
endloop
endfacet
facet normal -0.351659982134308 0.609092956045382 -0.710873426047983
outer loop
vertex -8.13808090639327 162.132362480687 20.8585822708723
vertex -12.6941431903733 158.023693838989 19.2085420615988
vertex -13.3342333290999 159.132362480687 20.8585822708723
endloop
endfacet
facet normal 0.43434180149794 -0.752302068045428 -0.495367336313262
outer loop
vertex -14.4260951754512 173.023522673413 19.1345335529945
vertex -20.0166908980429 170.706718509519 17.2008448066596
vertex -14.8205384753363 173.706718509519 17.2008448066595
endloop
endfacet
facet normal 0.483647213983569 -0.837701547558678 -0.253656243021392
outer loop
vertex -20.0166908980429 170.706718509519 17.2008448066596
vertex -14.4260951754512 173.023522673413 19.1345335529945
vertex -19.6222475981579 170.023522673413 19.1345335529945
endloop
endfacet
facet normal -3.678497886264e-016 1.0 6.43325860591756e-016
outer loop
vertex -41.68725914833 139.453152047114 -0.82840513751155
vertex -9.48725914832993 139.453152047114 31.1715948624884
vertex -9.48725914833 139.453152047114 -0.828405137511612
endloop
endfacet
facet normal -3.678497886264e-016 1.0 6.43325860591756e-016
outer loop
vertex -9.48725914832993 139.453152047114 31.1715948624884
vertex -41.68725914833 139.453152047114 -0.82840513751155
vertex -41.6872591483299 139.453152047114 11.1715948624884
endloop
endfacet
facet normal -3.678497886264e-016 1.0 6.43325860591756e-016
outer loop
vertex -9.48725914832993 139.453152047114 31.1715948624884
vertex -41.6872591483299 139.453152047114 11.1715948624884
vertex -11.4462316527789 139.453152047114 31.1715948624884
endloop
endfacet
facet normal -0.478696641004161 0.829126903631763 -0.288787298137121
outer loop
vertex -9.70674949685692 164.849376179607 15.9224418376449
vertex -6.3822237307843 167.091128641698 16.5411155464792
vertex -6.24264788171916 166.849376179607 15.9224418376449
endloop
endfacet
facet normal -0.425013622132952 0.736145187443151 -0.526738724611849
outer loop
vertex -6.3822237307843 167.091128641698 16.5411155464792
vertex -9.70674949685692 164.849376179607 15.9224418376449
vertex -9.84632534592205 165.091128641698 16.5411155464792
endloop
endfacet
facet normal -1.0 -5.96241064891978e-016 2.22765532204962e-015
outer loop
vertex -41.6872591483298 2.14869966849918 31.1715948624884
vertex -41.6872591483298 9.7256872244916 19.2704741717707
vertex -41.6872591483298 2.1486996684992 -0.828405137511652
endloop
endfacet
facet normal -1.0 -5.96241064891978e-016 2.22765532204962e-015
outer loop
vertex -41.6872591483298 9.7256872244916 19.2704741717707
vertex -41.6872591483298 2.14869966849918 31.1715948624884
vertex -41.6872591483298 11.1417107899189 21.8284823740158
endloop
endfacet
facet normal -1.0 -5.96241064891978e-016 2.22765532204962e-015
outer loop
vertex -41.6872591483298 11.1417107899189 21.8284823740158
vertex -41.6872591483298 2.14869966849918 31.1715948624884
vertex -41.6872591483298 13.1715457626685 23.9328346933771
endloop
endfacet
facet normal -1.0 -5.96241064891978e-016 2.22765532204962e-015
outer loop
vertex -41.6872591483298 13.1715457626685 23.9328346933771
vertex -41.6872591483298 2.14869966849918 31.1715948624884
vertex -41.6872591483298 15.6768622438084 25.4401229968967
endloop
endfacet
facet normal -1.0 -5.96241064891978e-016 2.22765532204962e-015
outer loop
vertex -41.6872591483298 15.6768622438084 25.4401229968967
vertex -41.6872591483298 2.14869966849918 31.1715948624884
vertex -41.6872591483298 18.4869270553803 26.2476280776015
endloop
endfacet
facet normal -1.0 -5.96241064891978e-016 2.22765532204962e-015
outer loop
vertex -41.6872591483298 18.4869270553803 26.2476280776015
vertex -41.6872591483298 2.14869966849918 31.1715948624884
vertex -41.6872591483298 37.2270722370225 31.1715948624884
endloop
endfacet
facet normal -1.0 -5.96241064891978e-016 2.22765532204962e-015
outer loop
vertex -41.6872591483298 2.1486996684992 -0.828405137511652
vertex -41.6872591483298 9.7256872244916 19.2704741717707
vertex -41.6872591483298 9.01997473228098 16.4331341183164
endloop
endfacet
facet normal -1.0 -5.96241064891978e-016 2.22765532204962e-015
outer loop
vertex -41.6872591483298 18.4869270553803 26.2476280776015
vertex -41.6872591483298 37.2270722370225 31.1715948624884
vertex -41.6872591483298 21.4102389243272 26.3003197987066
endloop
endfacet
facet normal -1.0 -5.96241064891978e-016 2.22765532204962e-015
outer loop
vertex -41.6872591483298 21.4102389243272 26.3003197987066
vertex -41.6872591483298 37.2270722370225 31.1715948624884
vertex -41.6872591483298 24.2475789777816 25.594607306496
endloop
endfacet
facet normal -1.0 -5.96241064891978e-016 2.22765532204962e-015
outer loop
vertex -41.6872591483298 24.2475789777816 25.594607306496
vertex -41.6872591483298 37.2270722370225 31.1715948624884
vertex -41.6872591483298 26.8055871800266 24.1785837410687
endloop
endfacet
facet normal -1.0 -5.96241064891978e-016 2.22765532204962e-015
outer loop
vertex -41.6872591483298 26.8055871800266 24.1785837410687
vertex -41.6872591483298 37.2270722370225 31.1715948624884
vertex -41.6872591483298 28.9099394993879 22.1487487683191
endloop
endfacet
facet normal -1.0 -5.96241064891978e-016 2.22765532204962e-015
outer loop
vertex -41.6872591483298 28.9099394993879 22.1487487683191
vertex -41.6872591483298 37.2270722370225 31.1715948624884
vertex -41.6872591483298 30.4172278029075 19.6434322871791
endloop
endfacet
facet normal -1.0 -5.96241064891978e-016 2.22765532204962e-015
outer loop
vertex -41.6872591483298 30.4172278029075 19.6434322871791
vertex -41.6872591483298 37.2270722370225 31.1715948624884
vertex -41.6872591483298 31.2247328836123 16.8333674756072
endloop
endfacet
facet normal -1.0 -5.96241064891978e-016 2.22765532204962e-015
outer loop
vertex -41.6872591483298 31.2247328836123 16.8333674756072
vertex -41.6872591483298 37.2270722370225 31.1715948624884
vertex -41.6872591483298 31.2774246047174 13.9100556066604
endloop
endfacet
facet normal -1.0 -5.96241064891978e-016 2.22765532204962e-015
outer loop
vertex -41.6872591483298 2.1486996684992 -0.828405137511652
vertex -41.6872591483299 18.8871604126712 4.04286992627017
vertex -41.68725914833 139.453152047114 -0.82840513751155
endloop
endfacet
facet normal -1.0 -5.96241064891978e-016 2.22765532204962e-015
outer loop
vertex -41.6872591483299 18.8871604126712 4.04286992627017
vertex -41.6872591483298 2.1486996684992 -0.828405137511652
vertex -41.6872591483298 16.0498203592168 4.74858241848079
endloop
endfacet
facet normal -1.0 -5.96241064891978e-016 2.22765532204962e-015
outer loop
vertex -41.6872591483298 16.0498203592168 4.74858241848079
vertex -41.6872591483298 2.1486996684992 -0.828405137511652
vertex -41.6872591483298 13.4918121569717 6.16460598390805
endloop
endfacet
facet normal -1.0 -5.96241064891978e-016 2.22765532204962e-015
outer loop
vertex -41.6872591483298 13.4918121569717 6.16460598390805
vertex -41.6872591483298 2.1486996684992 -0.828405137511652
vertex -41.6872591483298 11.3874598376104 8.19444095665767
endloop
endfacet
facet normal -1.0 -5.96241064891978e-016 2.22765532204962e-015
outer loop
vertex -41.6872591483298 11.3874598376104 8.19444095665767
vertex -41.6872591483298 2.1486996684992 -0.828405137511652
vertex -41.6872591483298 9.88017153409085 10.6997574377976
endloop
endfacet
facet normal -1.0 -5.96241064891978e-016 2.22765532204962e-015
outer loop
vertex -41.6872591483298 9.88017153409085 10.6997574377976
vertex -41.6872591483298 2.1486996684992 -0.828405137511652
vertex -41.6872591483298 9.0726664533861 13.5098222493695
endloop
endfacet
facet normal -1.0 -5.96241064891978e-016 2.22765532204962e-015
outer loop
vertex -41.6872591483298 9.0726664533861 13.5098222493695
vertex -41.6872591483298 2.1486996684992 -0.828405137511652
vertex -41.6872591483298 9.01997473228098 16.4331341183164
endloop
endfacet
facet normal -1.0 -5.96241064891978e-016 2.22765532204962e-015
outer loop
vertex -41.68725914833 139.453152047114 -0.82840513751155
vertex -41.6872591483299 18.8871604126712 4.04286992627017
vertex -41.6872591483299 21.810472281618 4.09556164737529
endloop
endfacet
facet normal -1.0 -5.96241064891978e-016 2.22765532204962e-015
outer loop
vertex -41.68725914833 139.453152047114 -0.82840513751155
vertex -41.6872591483299 21.810472281618 4.09556164737529
vertex -41.6872591483299 24.6205370931899 4.90306672808005
endloop
endfacet
facet normal -1.0 -5.96241064891978e-016 2.22765532204962e-015
outer loop
vertex -41.68725914833 139.453152047114 -0.82840513751155
vertex -41.6872591483299 24.6205370931899 4.90306672808005
vertex -41.6872591483299 27.1258535743299 6.41035503159964
endloop
endfacet
facet normal -1.0 -5.96241064891978e-016 2.22765532204962e-015
outer loop
vertex -41.68725914833 139.453152047114 -0.82840513751155
vertex -41.6872591483299 27.1258535743299 6.41035503159964
vertex -41.6872591483299 29.1556885470795 8.5147073509609
endloop
endfacet
facet normal -1.0 -5.96241064891978e-016 2.22765532204962e-015
outer loop
vertex -41.68725914833 139.453152047114 -0.82840513751155
vertex -41.6872591483299 29.1556885470795 8.5147073509609
vertex -41.6872591483299 30.5717121125068 11.072715553206
endloop
endfacet
facet normal -1.0 -5.96241064891978e-016 2.22765532204962e-015
outer loop
vertex -41.68725914833 139.453152047114 -0.82840513751155
vertex -41.6872591483299 30.5717121125068 11.072715553206
vertex -41.6872591483298 37.2270722370225 11.1715948624884
endloop
endfacet
facet normal -1.0 -5.96241064891978e-016 2.22765532204962e-015
outer loop
vertex -41.6872591483298 37.2270722370225 11.1715948624884
vertex -41.6872591483299 30.5717121125068 11.072715553206
vertex -41.6872591483298 31.2774246047174 13.9100556066604
endloop
endfacet
facet normal -1.0 -5.96241064891978e-016 2.22765532204962e-015
outer loop
vertex -41.6872591483298 37.2270722370225 11.1715948624884
vertex -41.6872591483298 31.2774246047174 13.9100556066604
vertex -41.6872591483298 37.2270722370225 31.1715948624884
endloop
endfacet
facet normal -1.0 -5.96241064891978e-016 2.22765532204962e-015
outer loop
vertex -41.68725914833 139.453152047114 -0.82840513751155
vertex -41.6872591483298 37.2270722370225 11.1715948624884
vertex -41.6872591483299 129.148699668499 11.1715948624884
endloop
endfacet
facet normal -1.0 -5.96241064891978e-016 2.22765532204962e-015
outer loop
vertex -41.68725914833 139.453152047114 -0.82840513751155
vertex -41.6872591483299 129.148699668499 11.1715948624884
vertex -41.6872591483299 139.453152047114 11.1715948624884
endloop
endfacet
facet normal -0.43434180149794 0.752302068045428 0.495367336313263
outer loop
vertex -12.6727787741908 157.986689584687 11.2086561719823
vertex -7.08218305159918 160.303493748581 13.1423449183173
vertex -7.47662635148421 160.986689584687 11.2086561719823
endloop
endfacet
facet normal -0.483647213983569 0.837701547558678 0.253656243021392
outer loop
vertex -7.08218305159918 160.303493748581 13.1423449183173
vertex -12.6727787741908 157.986689584687 11.2086561719823
vertex -12.2783354743058 157.303493748581 13.1423449183173
endloop
endfacet
facet normal -0.355436713023991 0.615634445832831 0.703319964268614
outer loop
vertex -13.3040194819824 159.080030562387 9.54503514833952
vertex -8.93288716391255 163.509007300884 8.26485487088637
vertex -14.1290395866192 160.509007300884 8.26485487088638
endloop
endfacet
facet normal -0.252309199944398 0.437012353520753 0.863342498950255
outer loop
vertex -8.93288716391255 163.509007300884 8.26485487088637
vertex -13.3040194819824 159.080030562387 9.54503514833952
vertex -8.1078670592758 162.080030562387 9.54503514833951
endloop
endfacet
facet normal -1.0 -1.07833684834083e-017 1.88189952438768e-015
outer loop
vertex -9.48725914832994 152.469207744188 31.1715948624884
vertex -9.48725914833 139.453152047114 -0.828405137511612
vertex -9.48725914832993 139.453152047114 31.1715948624884
endloop
endfacet
facet normal -1.0 -1.07833684834083e-017 1.88189952438768e-015
outer loop
vertex -9.48725914833 139.453152047114 -0.828405137511612
vertex -9.48725914832994 152.469207744188 31.1715948624884
vertex -9.48725914832999 152.469207744188 -0.828405137511596
endloop
endfacet
facet normal -0.14439364906856 0.250097136477018 0.95739328200832
outer loop
vertex -10.5759372758895 166.35485357421 12.6823723292668
vertex -7.44675700543068 168.934954359733 12.5728570331408
vertex -10.9108586205684 166.934954359733 12.5728570331408
endloop
endfacet
facet normal -0.0155777472689609 0.0269814497373101 0.999514549749076
outer loop
vertex -7.44675700543068 168.934954359733 12.5728570331408
vertex -10.5759372758895 166.35485357421 12.6823723292668
vertex -7.11183566075172 168.35485357421 12.6823723292668
endloop
endfacet
facet normal -0.483647213983569 0.837701547558678 0.253656243021392
outer loop
vertex -12.2783354743058 157.303493748581 13.1423449183173
vertex -6.95141781865949 160.077001721265 15.2143236948534
vertex -7.08218305159918 160.303493748581 13.1423449183173
endloop
endfacet
facet normal -0.49999286810103 0.866013050973067 -0.0053411040456248
outer loop
vertex -6.95141781865949 160.077001721265 15.2143236948534
vertex -12.2783354743058 157.303493748581 13.1423449183173
vertex -12.1475702413661 157.077001721265 15.2143236948534
endloop
endfacet
facet normal 0.431671249475128 -0.74767653625766 0.504618399888797
outer loop
vertex -14.4047307592688 172.986518419111 11.134647663378
vertex -18.9607930432488 168.877849777413 9.48460745410456
vertex -13.7646406205422 171.877849777413 9.48460745410456
endloop
endfacet
facet normal 0.351659982134308 -0.609092956045383 0.710873426047982
outer loop
vertex -18.9607930432488 168.877849777413 9.48460745410456
vertex -14.4047307592688 172.986518419111 11.134647663378
vertex -19.6008831819754 169.986518419111 11.134647663378
endloop
endfacet
facet normal -0.364396888740588 0.631153925418723 0.684733254563203
outer loop
vertex -10.0039288527422 165.364105922961 13.3912884006241
vertex -6.341721587885 167.020976872381 13.9423777171316
vertex -6.53982723760444 167.364105922961 13.3912884006241
endloop
endfacet
facet normal -0.440591369401914 0.763126637180462 0.472775825137227
outer loop
vertex -6.341721587885 167.020976872381 13.9423777171316
vertex -10.0039288527422 165.364105922961 13.3912884006241
vertex -9.80582320302276 165.020976872381 13.9423777171316
endloop
endfacet
facet normal -0.866025403784438 -0.500000000000001 1.28292894732737e-015
outer loop
vertex -9.48725914832994 152.469207744188 31.1715948624884
vertex -12.2893945098969 157.322648560107 17.2833905720766
vertex -9.48725914832999 152.469207744188 -0.828405137511596
endloop
endfacet
facet normal -0.866025403784438 -0.500000000000001 1.28292894732737e-015
outer loop
vertex -12.2893945098969 157.322648560107 17.2833905720766
vertex -9.48725914832994 152.469207744188 31.1715948624884
vertex -12.6941431903733 158.023693838989 19.2085420615988
endloop
endfacet
facet normal -0.866025403784438 -0.500000000000001 1.28292894732737e-015
outer loop
vertex -12.6941431903733 158.023693838989 19.2085420615988
vertex -9.48725914832994 152.469207744188 31.1715948624884
vertex -13.3342333290999 159.132362480687 20.8585822708723
endloop
endfacet
facet normal -0.866025403784438 -0.500000000000001 1.28292894732737e-015
outer loop
vertex -13.3342333290999 159.132362480687 20.8585822708723
vertex -9.48725914832994 152.469207744188 31.1715948624884
vertex -14.1660438409213 160.573100549431 22.1210636864555
endloop
endfacet
facet normal -0.866025403784438 -0.500000000000001 1.28292894732737e-015
outer loop
vertex -14.1660438409213 160.573100549431 22.1210636864555
vertex -9.48725914832994 152.469207744188 31.1715948624884
vertex -24.1475131861743 177.861512589601 31.1715948624884
endloop
endfacet
facet normal -0.866025403784438 -0.500000000000001 1.28292894732737e-015
outer loop
vertex -9.48725914832999 152.469207744188 -0.828405137511596
vertex -12.2893945098969 157.322648560107 17.2833905720766
vertex -12.1475702413661 157.077001721265 15.2143236948534
endloop
endfacet
facet normal -0.866025403784438 -0.500000000000001 1.28292894732737e-015
outer loop
vertex -14.1660438409213 160.573100549431 22.1210636864555
vertex -24.1475131861743 177.861512589601 31.1715948624884
vertex -15.1328882140888 162.24772412677 22.9099502862255
endloop
endfacet
facet normal -0.866025403784438 -0.500000000000001 1.28292894732737e-015
outer loop
vertex -15.1328882140888 162.24772412677 22.9099502862255
vertex -24.1475131861743 177.861512589601 31.1715948624884
vertex -16.1688776023568 164.042110383352 23.1714807521049
endloop
endfacet
facet normal -0.866025403784438 -0.500000000000001 1.28292894732737e-015
outer loop
vertex -16.1688776023568 164.042110383352 23.1714807521049
vertex -24.1475131861743 177.861512589601 31.1715948624884
vertex -17.2034110409685 165.833974861156 22.8878322150434
endloop
endfacet
facet normal -0.866025403784438 -0.500000000000001 1.28292894732737e-015
outer loop
vertex -17.2034110409685 165.833974861156 22.8878322150434
vertex -24.1475131861743 177.861512589601 31.1715948624884
vertex -18.1659867857295 167.501204957216 22.0783348540905
endloop
endfacet
facet normal -0.866025403784438 -0.500000000000001 1.28292894732737e-015
outer loop
vertex -18.1659867857295 167.501204957216 22.0783348540905
vertex -24.1475131861743 177.861512589601 31.1715948624884
vertex -18.9910068903663 168.930181695713 20.7981545766373
endloop
endfacet
facet normal -0.866025403784438 -0.500000000000001 1.28292894732737e-015
outer loop
vertex -18.9910068903663 168.930181695713 20.7981545766373
vertex -24.1475131861743 177.861512589601 31.1715948624884
vertex -19.6222475981579 170.023522673413 19.1345335529945
endloop
endfacet
facet normal -0.866025403784438 -0.500000000000001 1.28292894732737e-015
outer loop
vertex -19.6222475981579 170.023522673413 19.1345335529945
vertex -24.1475131861743 177.861512589601 31.1715948624884
vertex -20.0166908980429 170.706718509519 17.2008448066596
endloop
endfacet
facet normal -0.866025403784438 -0.500000000000001 1.28292894732737e-015
outer loop
vertex -20.0166908980429 170.706718509519 17.2008448066596
vertex -24.1475131861743 177.861512589601 31.1715948624884
vertex -20.1474561309826 170.933210536834 15.1288660301234
endloop
endfacet
facet normal -0.866025403784438 -0.500000000000001 1.28292894732737e-015
outer loop
vertex -9.48725914832999 152.469207744188 -0.828405137511596
vertex -14.1290395866192 160.509007300884 8.26485487088638
vertex -24.1475131861744 177.861512589601 -0.82840513751155
endloop
endfacet
facet normal -0.866025403784438 -0.500000000000001 1.28292894732737e-015
outer loop
vertex -14.1290395866192 160.509007300884 8.26485487088638
vertex -9.48725914832999 152.469207744188 -0.828405137511596
vertex -13.3040194819824 159.080030562387 9.54503514833952
endloop
endfacet
facet normal -0.866025403784438 -0.500000000000001 1.28292894732737e-015
outer loop
vertex -13.3040194819824 159.080030562387 9.54503514833952
vertex -9.48725914832999 152.469207744188 -0.828405137511596
vertex -12.6727787741908 157.986689584687 11.2086561719823
endloop
endfacet
facet normal -0.866025403784438 -0.500000000000001 1.28292894732737e-015
outer loop
vertex -12.6727787741908 157.986689584687 11.2086561719823
vertex -9.48725914832999 152.469207744188 -0.828405137511596
vertex -12.2783354743058 157.303493748581 13.1423449183173
endloop
endfacet
facet normal -0.866025403784438 -0.500000000000001 1.28292894732737e-015
outer loop
vertex -12.2783354743058 157.303493748581 13.1423449183173
vertex -9.48725914832999 152.469207744188 -0.828405137511596
vertex -12.1475702413661 157.077001721265 15.2143236948534
endloop
endfacet
facet normal -0.866025403784438 -0.500000000000001 1.28292894732737e-015
outer loop
vertex -24.1475131861744 177.861512589601 -0.82840513751155
vertex -14.1290395866192 160.509007300884 8.26485487088638
vertex -15.0916153313803 162.176237396944 7.45535750993343
endloop
endfacet
facet normal -0.866025403784438 -0.500000000000001 1.28292894732737e-015
outer loop
vertex -24.1475131861744 177.861512589601 -0.82840513751155
vertex -15.0916153313803 162.176237396944 7.45535750993343
vertex -16.1261487699919 163.968101874748 7.17170897287195
endloop
endfacet
facet normal -0.866025403784438 -0.500000000000001 1.28292894732737e-015
outer loop
vertex -24.1475131861744 177.861512589601 -0.82840513751155
vertex -16.1261487699919 163.968101874748 7.17170897287195
vertex -17.1621381582599 165.76248813133 7.43323943875132
endloop
endfacet
facet normal -0.866025403784438 -0.500000000000001 1.28292894732737e-015
outer loop
vertex -24.1475131861744 177.861512589601 -0.82840513751155
vertex -17.1621381582599 165.76248813133 7.43323943875132
vertex -18.1289825314274 167.437111708668 8.22212603852139
endloop
endfacet
facet normal -0.866025403784438 -0.500000000000001 1.28292894732737e-015
outer loop
vertex -24.1475131861744 177.861512589601 -0.82840513751155
vertex -18.1289825314274 167.437111708668 8.22212603852139
vertex -18.9607930432488 168.877849777413 9.48460745410456
endloop
endfacet
facet normal -0.866025403784438 -0.500000000000001 1.28292894732737e-015
outer loop
vertex -24.1475131861744 177.861512589601 -0.82840513751155
vertex -18.9607930432488 168.877849777413 9.48460745410456
vertex -19.6008831819754 169.986518419111 11.134647663378
endloop
endfacet
facet normal -0.866025403784438 -0.500000000000001 1.28292894732737e-015
outer loop
vertex -24.1475131861744 177.861512589601 -0.82840513751155
vertex -19.6008831819754 169.986518419111 11.134647663378
vertex -20.0056318624519 170.687563697993 13.0597991529002
endloop
endfacet
facet normal -0.866025403784438 -0.500000000000001 1.28292894732737e-015
outer loop
vertex -24.1475131861744 177.861512589601 -0.82840513751155
vertex -20.0056318624519 170.687563697993 13.0597991529002
vertex -20.1474561309826 170.933210536834 15.1288660301234
endloop
endfacet
facet normal -0.866025403784438 -0.500000000000001 1.28292894732737e-015
outer loop
vertex -24.1475131861744 177.861512589601 -0.82840513751155
vertex -20.1474561309826 170.933210536834 15.1288660301234
vertex -24.1475131861743 177.861512589601 31.1715948624884
endloop
endfacet
facet normal 0.236387912568615 -0.409435874863987 0.881182738803828
outer loop
vertex -11.5659693361461 168.069639403696 12.8805197415985
vertex -8.37741237926214 170.546896751546 13.2767310410373
vertex -11.8415139943999 168.546896751546 13.2767310410374
endloop
endfacet
facet normal 0.342366627281603 -0.59299639326773 0.728793777481177
outer loop
vertex -8.37741237926214 170.546896751546 13.2767310410373
vertex -11.5659693361461 168.069639403696 12.8805197415985
vertex -8.10186772100838 170.069639403696 12.8805197415985
endloop
endfacet
facet normal -0.49999286810103 0.866013050973067 -0.00534110404562478
outer loop
vertex -12.1475702413661 157.077001721265 15.2143236948534
vertex -7.09324208719022 160.322648560107 17.2833905720766
vertex -6.95141781865949 160.077001721265 15.2143236948534
endloop
endfacet
facet normal -0.482264834534688 0.835307196117876 -0.263974463698524
outer loop
vertex -7.09324208719022 160.322648560107 17.2833905720766
vertex -12.1475702413661 157.077001721265 15.2143236948534
vertex -12.2893945098969 157.322648560107 17.2833905720766
endloop
endfacet
facet normal -0.252309199944397 0.437012353520752 0.863342498950255
outer loop
vertex -14.1290395866192 160.509007300884 8.26485487088638
vertex -9.89546290867365 165.176237396944 7.45535750993342
vertex -15.0916153313803 162.176237396944 7.45535750993343
endloop
endfacet
facet normal -0.131987231849261 0.228608591513295 0.964529669069374
outer loop
vertex -9.89546290867365 165.176237396944 7.45535750993342
vertex -14.1290395866192 160.509007300884 8.26485487088638
vertex -8.93288716391255 163.509007300884 8.26485487088637
endloop
endfacet
facet normal 1.00808250635964e-015 -1.0 -6.77608823826094e-016
outer loop
vertex -31.6872591483298 2.14869966849918 31.1715948624883
vertex -41.6872591483298 2.1486996684992 -0.828405137511652
vertex -31.6872591483298 2.1486996684992 -0.828405137511669
endloop
endfacet
facet normal 1.00808250635964e-015 -1.0 -6.77608823826094e-016
outer loop
vertex -41.6872591483298 2.1486996684992 -0.828405137511652
vertex -31.6872591483298 2.14869966849918 31.1715948624883
vertex -41.6872591483298 2.14869966849918 31.1715948624884
endloop
endfacet
facet normal 0.126828121510697 -0.219672750285044 0.967294427967138
outer loop
vertex -17.1621381582599 165.76248813133 7.43323943875132
vertex -12.9328301087208 170.437111708668 8.22212603852138
vertex -18.1289825314274 167.437111708668 8.22212603852139
endloop
endfacet
facet normal 0.247683668156633 -0.429000697452315 0.868683602995879
outer loop
vertex -12.9328301087208 170.437111708668 8.22212603852138
vertex -17.1621381582599 165.76248813133 7.43323943875132
vertex -11.9659857355533 168.76248813133 7.43323943875131
endloop
endfacet
facet normal -0.482264834534688 0.835307196117875 -0.263974463698524
outer loop
vertex -12.2893945098969 157.322648560107 17.2833905720766
vertex -7.4979907676667 161.023693838989 19.2085420615988
vertex -7.09324208719022 160.322648560107 17.2833905720766
endloop
endfacet
facet normal -0.431671249475129 0.74767653625766 -0.504618399888796
outer loop
vertex -7.4979907676667 161.023693838989 19.2085420615988
vertex -12.2893945098969 157.322648560107 17.2833905720766
vertex -12.6941431903733 158.023693838989 19.2085420615988
endloop
endfacet
facet normal 0.483647213983569 -0.837701547558678 -0.253656243021392
outer loop
vertex -14.8205384753363 173.706718509519 17.2008448066595
vertex -20.1474561309826 170.933210536834 15.1288660301234
vertex -14.951303708276 173.933210536834 15.1288660301234
endloop
endfacet
facet normal 0.49999286810103 -0.866013050973067 0.00534110404562493
outer loop
vertex -20.1474561309826 170.933210536834 15.1288660301234
vertex -14.8205384753363 173.706718509519 17.2008448066595
vertex -20.0166908980429 170.706718509519 17.2008448066596
endloop
endfacet
facet normal -0.486760276350163 0.843093529744748 0.228599504527141
outer loop
vertex -9.68578404495731 164.813062951714 14.5772361507178
vertex -6.18789023365618 166.754533151059 15.252599148287
vertex -6.22168242981955 166.813062951714 14.5772361507178
endloop
endfacet
facet normal -0.499757274874538 0.865604991534864 -0.0311554945379245
outer loop
vertex -6.18789023365618 166.754533151059 15.252599148287
vertex -9.68578404495731 164.813062951714 14.5772361507178
vertex -9.65199184879393 164.754533151059 15.252599148287
endloop
endfacet
facet normal -0.263369362305923 0.456169116670877 0.850027244265902
outer loop
vertex -10.2666004214723 165.819066425706 12.9615240273971
vertex -7.11183566075172 168.35485357421 12.6823723292668
vertex -10.5759372758895 166.35485357421 12.6823723292668
endloop
endfacet
facet normal -0.14439364906856 0.250097136477018 0.957393282008319
outer loop
vertex -7.11183566075172 168.35485357421 12.6823723292668
vertex -10.2666004214723 165.819066425706 12.9615240273971
vertex -6.80249880633457 167.819066425706 12.9615240273971
endloop
endfacet
facet normal 0.252309199944398 -0.437012353520753 -0.863342498950255
outer loop
vertex -12.9698343630229 170.501204957216 22.0783348540905
vertex -17.2034110409685 165.833974861156 22.8878322150434
vertex -18.1659867857295 167.501204957216 22.0783348540905
endloop
endfacet
facet normal 0.131987231849261 -0.228608591513296 -0.964529669069374
outer loop
vertex -17.2034110409685 165.833974861156 22.8878322150434
vertex -12.9698343630229 170.501204957216 22.0783348540905
vertex -12.0072586182618 168.833974861156 22.8878322150434
endloop
endfacet
facet normal -0.500000000000001 0.866025403784438 1.61871188062466e-015
outer loop
vertex -24.1475131861744 177.861512589601 -0.82840513751155
vertex -15.48725914833 182.861512589601 31.1715948624884
vertex -15.48725914833 182.861512589601 -0.828405137511567
endloop
endfacet
facet normal -0.500000000000001 0.866025403784438 1.61871188062466e-015
outer loop
vertex -15.48725914833 182.861512589601 31.1715948624884
vertex -24.1475131861744 177.861512589601 -0.82840513751155
vertex -24.1475131861743 177.861512589601 31.1715948624884
endloop
endfacet
facet normal -0.551628173421169 -6.72395388966585e-016 0.834090137987511
outer loop
vertex -41.6872591483299 129.148699668499 11.1715948624884
vertex -11.4462316527789 139.453152047114 31.1715948624884
vertex -41.6872591483299 139.453152047114 11.1715948624884
endloop
endfacet
facet normal -0.551628173421169 -6.72395388966585e-016 0.834090137987511
outer loop
vertex -11.4462316527789 139.453152047114 31.1715948624884
vertex -41.6872591483299 129.148699668499 11.1715948624884
vertex -11.4462316527789 129.148699668499 31.1715948624884
endloop
endfacet
facet normal -4.44089209850062e-016 1.0 5.855079243065e-016
outer loop
vertex -41.6872591483298 37.2270722370225 11.1715948624884
vertex -31.6872591483299 37.2270722370225 31.1715948624884
vertex -31.6872591483299 37.2270722370225 11.1715948624884
endloop
endfacet
facet normal -4.44089209850062e-016 1.0 5.855079243065e-016
outer loop
vertex -31.6872591483299 37.2270722370225 31.1715948624884
vertex -41.6872591483298 37.2270722370225 11.1715948624884
vertex -41.6872591483298 37.2270722370225 31.1715948624884
endloop
endfacet
facet normal 1.0 9.61077336308716e-016 -1.39103224870012e-015
outer loop
vertex -31.6872591483298 2.1486996684992 -0.828405137511669
vertex -31.6872591483298 9.07266645338611 13.5098222493695
vertex -31.6872591483298 9.01997473228099 16.4331341183164
endloop
endfacet
facet normal 1.0 9.61077336308716e-016 -1.39103224870012e-015
outer loop
vertex -31.6872591483298 9.07266645338611 13.5098222493695
vertex -31.6872591483298 2.1486996684992 -0.828405137511669
vertex -31.6872591483298 9.88017153409086 10.6997574377976
endloop
endfacet
facet normal 1.0 9.61077336308716e-016 -1.39103224870012e-015
outer loop
vertex -31.6872591483298 9.88017153409086 10.6997574377976
vertex -31.6872591483298 2.1486996684992 -0.828405137511669
vertex -31.6872591483298 11.3874598376105 8.19444095665765
endloop
endfacet
facet normal 1.0 9.61077336308716e-016 -1.39103224870012e-015
outer loop
vertex -31.6872591483298 11.3874598376105 8.19444095665765
vertex -31.6872591483298 2.1486996684992 -0.828405137511669
vertex -31.6872591483298 13.4918121569717 6.16460598390804
endloop
endfacet
facet normal 1.0 9.61077336308716e-016 -1.39103224870012e-015
outer loop
vertex -31.6872591483298 13.4918121569717 6.16460598390804
vertex -31.6872591483298 2.1486996684992 -0.828405137511669
vertex -31.6872591483298 16.0498203592168 4.74858241848078
endloop
endfacet
facet normal 1.0 9.61077336308716e-016 -1.39103224870012e-015
outer loop
vertex -31.6872591483298 16.0498203592168 4.74858241848078
vertex -31.6872591483298 2.1486996684992 -0.828405137511669
vertex -31.6872591483299 18.8871604126712 4.04286992627015
endloop
endfacet
facet normal 1.0 9.61077336308716e-016 -1.39103224870012e-015
outer loop
vertex -31.6872591483299 18.8871604126712 4.04286992627015
vertex -31.6872591483298 2.1486996684992 -0.828405137511669
vertex -31.68725914833 129.148699668499 -0.828405137511579
endloop
endfacet
facet normal 1.0 9.61077336308716e-016 -1.39103224870012e-015
outer loop
vertex -31.6872591483299 18.8871604126712 4.04286992627015
vertex -31.68725914833 129.148699668499 -0.828405137511579
vertex -31.6872591483299 21.810472281618 4.09556164737528
endloop
endfacet
facet normal 1.0 9.61077336308716e-016 -1.39103224870012e-015
outer loop
vertex -31.6872591483299 21.810472281618 4.09556164737528
vertex -31.68725914833 129.148699668499 -0.828405137511579
vertex -31.6872591483299 24.6205370931899 4.90306672808003
endloop
endfacet
facet normal 1.0 9.61077336308716e-016 -1.39103224870012e-015
outer loop
vertex -31.6872591483299 24.6205370931899 4.90306672808003
vertex -31.68725914833 129.148699668499 -0.828405137511579
vertex -31.6872591483299 27.1258535743299 6.41035503159962
endloop
endfacet
facet normal 1.0 9.61077336308716e-016 -1.39103224870012e-015
outer loop
vertex -31.6872591483299 27.1258535743299 6.41035503159962
vertex -31.68725914833 129.148699668499 -0.828405137511579
vertex -31.6872591483299 29.1556885470795 8.51470735096088
endloop
endfacet
facet normal 1.0 9.61077336308716e-016 -1.39103224870012e-015
outer loop
vertex -31.6872591483299 29.1556885470795 8.51470735096088
vertex -31.68725914833 129.148699668499 -0.828405137511579
vertex -31.6872591483299 30.5717121125068 11.072715553206
endloop
endfacet
facet normal 1.0 9.61077336308716e-016 -1.39103224870012e-015
outer loop
vertex -31.6872591483299 30.5717121125068 11.072715553206
vertex -31.68725914833 129.148699668499 -0.828405137511579
vertex -31.6872591483299 37.2270722370225 11.1715948624884
endloop
endfacet
facet normal 1.0 9.61077336308716e-016 -1.39103224870012e-015
outer loop
vertex -31.6872591483299 30.5717121125068 11.072715553206
vertex -31.6872591483299 37.2270722370225 11.1715948624884
vertex -31.6872591483298 31.2774246047174 13.9100556066604
endloop
endfacet
facet normal 1.0 9.61077336308716e-016 -1.39103224870012e-015
outer loop
vertex -31.6872591483299 37.2270722370225 11.1715948624884
vertex -31.68725914833 129.148699668499 -0.828405137511579
vertex -31.6872591483299 129.148699668499 11.1715948624884
endloop
endfacet
facet normal 1.0 9.61077336308716e-016 -1.39103224870012e-015
outer loop
vertex -31.6872591483298 2.14869966849918 31.1715948624883
vertex -31.6872591483298 18.4869270553803 26.2476280776014
vertex -31.6872591483299 37.2270722370225 31.1715948624884
endloop
endfacet
facet normal 1.0 9.61077336308716e-016 -1.39103224870012e-015
outer loop
vertex -31.6872591483298 18.4869270553803 26.2476280776014
vertex -31.6872591483298 2.14869966849918 31.1715948624883
vertex -31.6872591483298 15.6768622438085 25.4401229968967
endloop
endfacet
facet normal 1.0 9.61077336308716e-016 -1.39103224870012e-015
outer loop
vertex -31.6872591483298 15.6768622438085 25.4401229968967
vertex -31.6872591483298 2.14869966849918 31.1715948624883
vertex -31.6872591483298 13.1715457626685 23.9328346933771
endloop
endfacet
facet normal 1.0 9.61077336308716e-016 -1.39103224870012e-015
outer loop
vertex -31.6872591483298 13.1715457626685 23.9328346933771
vertex -31.6872591483298 2.14869966849918 31.1715948624883
vertex -31.6872591483298 11.1417107899189 21.8284823740158
endloop
endfacet
facet normal 1.0 9.61077336308716e-016 -1.39103224870012e-015
outer loop
vertex -31.6872591483298 11.1417107899189 21.8284823740158
vertex -31.6872591483298 2.14869966849918 31.1715948624883
vertex -31.6872591483298 9.72568722449161 19.2704741717707
endloop
endfacet
facet normal 1.0 9.61077336308716e-016 -1.39103224870012e-015
outer loop
vertex -31.6872591483298 9.72568722449161 19.2704741717707
vertex -31.6872591483298 2.14869966849918 31.1715948624883
vertex -31.6872591483298 2.1486996684992 -0.828405137511669
endloop
endfacet
facet normal 1.0 9.61077336308716e-016 -1.39103224870012e-015
outer loop
vertex -31.6872591483298 9.72568722449161 19.2704741717707
vertex -31.6872591483298 2.1486996684992 -0.828405137511669
vertex -31.6872591483298 9.01997473228099 16.4331341183164
endloop
endfacet
facet normal 1.0 9.61077336308716e-016 -1.39103224870012e-015
outer loop
vertex -31.6872591483299 37.2270722370225 31.1715948624884
vertex -31.6872591483298 18.4869270553803 26.2476280776014
vertex -31.6872591483298 21.4102389243272 26.3003197987066
endloop
endfacet
facet normal 1.0 9.61077336308716e-016 -1.39103224870012e-015
outer loop
vertex -31.6872591483299 37.2270722370225 31.1715948624884
vertex -31.6872591483298 21.4102389243272 26.3003197987066
vertex -31.6872591483298 24.2475789777816 25.5946073064959
endloop
endfacet
facet normal 1.0 9.61077336308716e-016 -1.39103224870012e-015
outer loop
vertex -31.6872591483299 37.2270722370225 31.1715948624884
vertex -31.6872591483298 24.2475789777816 25.5946073064959
vertex -31.6872591483298 26.8055871800267 24.1785837410687
endloop
endfacet
facet normal 1.0 9.61077336308716e-016 -1.39103224870012e-015
outer loop
vertex -31.6872591483299 37.2270722370225 31.1715948624884
vertex -31.6872591483298 26.8055871800267 24.1785837410687
vertex -31.6872591483298 28.9099394993879 22.1487487683191
endloop
endfacet
facet normal 1.0 9.61077336308716e-016 -1.39103224870012e-015
outer loop
vertex -31.6872591483299 37.2270722370225 31.1715948624884
vertex -31.6872591483298 28.9099394993879 22.1487487683191
vertex -31.6872591483298 30.4172278029075 19.6434322871791
endloop
endfacet
facet normal 1.0 9.61077336308716e-016 -1.39103224870012e-015
outer loop
vertex -31.6872591483299 37.2270722370225 31.1715948624884
vertex -31.6872591483298 30.4172278029075 19.6434322871791
vertex -31.6872591483298 31.2247328836123 16.8333674756072
endloop
endfacet
facet normal 1.0 9.61077336308716e-016 -1.39103224870012e-015
outer loop
vertex -31.6872591483299 37.2270722370225 31.1715948624884
vertex -31.6872591483298 31.2247328836123 16.8333674756072
vertex -31.6872591483298 31.2774246047174 13.9100556066604
endloop
endfacet
facet normal 1.0 9.61077336308716e-016 -1.39103224870012e-015
outer loop
vertex -31.6872591483299 37.2270722370225 31.1715948624884
vertex -31.6872591483298 31.2774246047174 13.9100556066604
vertex -31.6872591483299 37.2270722370225 11.1715948624884
endloop
endfacet
facet normal 1.0 -7.53783000929709e-017 -1.92596150067749e-015
outer loop
vertex 0.512740851669999 129.148699668499 -0.828405137511641
vertex 0.512740851670067 155.148699668499 31.1715948624884
vertex 0.512740851670061 129.148699668499 31.1715948624884
endloop
endfacet
facet normal 1.0 -7.53783000929709e-017 -1.92596150067749e-015
outer loop
vertex 0.512740851670067 155.148699668499 31.1715948624884
vertex 0.512740851669999 129.148699668499 -0.828405137511641
vertex 0.512740851670005 155.148699668499 -0.828405137511612
endloop
endfacet
facet normal 3.49195179039559e-016 -1.0 -8.33373256748721e-016
outer loop
vertex 0.512740851670061 129.148699668499 31.1715948624884
vertex -31.68725914833 129.148699668499 -0.828405137511579
vertex 0.512740851669999 129.148699668499 -0.828405137511641
endloop
endfacet
facet normal 3.49195179039559e-016 -1.0 -8.33373256748721e-016
outer loop
vertex -31.68725914833 129.148699668499 -0.828405137511579
vertex 0.512740851670061 129.148699668499 31.1715948624884
vertex -31.6872591483299 129.148699668499 11.1715948624884
endloop
endfacet
facet normal 3.49195179039559e-016 -1.0 -8.33373256748721e-016
outer loop
vertex -31.6872591483299 129.148699668499 11.1715948624884
vertex 0.512740851670061 129.148699668499 31.1715948624884
vertex -41.6872591483299 129.148699668499 11.1715948624884
endloop
endfacet
facet normal 3.49195179039559e-016 -1.0 -8.33373256748721e-016
outer loop
vertex -41.6872591483299 129.148699668499 11.1715948624884
vertex 0.512740851670061 129.148699668499 31.1715948624884
vertex -11.4462316527789 129.148699668499 31.1715948624884
endloop
endfacet
facet normal 1.26467457171087e-015 -5.855079243065e-016 1.0
outer loop
vertex -41.6872591483298 37.2270722370225 11.1715948624884
vertex -31.6872591483299 129.148699668499 11.1715948624884
vertex -41.6872591483299 129.148699668499 11.1715948624884
endloop
endfacet
facet normal 1.26467457171087e-015 -5.855079243065e-016 1.0
outer loop
vertex -31.6872591483299 129.148699668499 11.1715948624884
vertex -41.6872591483298 37.2270722370225 11.1715948624884
vertex -31.6872591483299 37.2270722370225 11.1715948624884
endloop
endfacet
facet normal 0.263369362305924 -0.456169116670877 -0.850027244265902
outer loop
vertex -8.17201949032538 170.191145832394 17.3816656975798
vertex -11.326784251046 167.65535868389 17.66081739571
vertex -11.6361211054631 168.191145832394 17.3816656975798
endloop
endfacet
facet normal 0.14439364906856 -0.250097136477019 -0.957393282008319
outer loop
vertex -11.326784251046 167.65535868389 17.66081739571
vertex -8.17201949032538 170.191145832394 17.3816656975798
vertex -7.86268263590823 169.65535868389 17.66081739571
endloop
endfacet
facet normal -9.34517767235305e-016 -0.365971366900212 -0.930626111072105
outer loop
vertex -31.6872591483298 24.2475789777816 25.5946073064959
vertex -41.6872591483298 21.4102389243272 26.3003197987066
vertex -41.6872591483298 24.2475789777816 25.594607306496
endloop
endfacet
facet normal -1.29088807658276e-015 -0.112637433556071 -0.993636155019483
outer loop
vertex -41.6872591483298 21.4102389243272 26.3003197987066
vertex -31.6872591483298 24.2475789777816 25.5946073064959
vertex -31.6872591483298 21.4102389243272 26.3003197987066
endloop
endfacet
facet normal -5.93457566228693e-017 -0.782253556329351 -0.622960170163456
outer loop
vertex -31.6872591483298 28.9099394993879 22.1487487683191
vertex -41.6872591483298 30.4172278029075 19.6434322871791
vertex -31.6872591483298 30.4172278029075 19.6434322871791
endloop
endfacet
facet normal 3.99814418409008e-016 -0.916832869143601 -0.399271198633102
outer loop
vertex -41.6872591483298 30.4172278029075 19.6434322871791
vertex -31.6872591483298 28.9099394993879 22.1487487683191
vertex -41.6872591483298 28.9099394993879 22.1487487683191
endloop
endfacet
facet normal 5.14461616414398e-016 0.594364956386382 0.804195435587529
outer loop
vertex -41.6872591483298 13.4918121569717 6.16460598390805
vertex -31.6872591483298 16.0498203592168 4.74858241848078
vertex -41.6872591483298 16.0498203592168 4.74858241848079
endloop
endfacet
facet normal 9.34517767235305e-016 0.365971366900212 0.930626111072106
outer loop
vertex -31.6872591483298 16.0498203592168 4.74858241848078
vertex -41.6872591483298 13.4918121569717 6.16460598390805
vertex -31.6872591483298 13.4918121569717 6.16460598390804
endloop
endfacet
facet normal 9.34517767235305e-016 0.365971366900212 0.930626111072105
outer loop
vertex -41.6872591483298 16.0498203592168 4.74858241848079
vertex -31.6872591483299 18.8871604126712 4.04286992627015
vertex -41.6872591483299 18.8871604126712 4.04286992627017
endloop
endfacet
facet normal 1.29088807658276e-015 0.112637433556072 0.993636155019483
outer loop
vertex -31.6872591483299 18.8871604126712 4.04286992627015
vertex -41.6872591483298 16.0498203592168 4.74858241848079
vertex -31.6872591483298 16.0498203592168 4.74858241848078
endloop
endfacet
facet normal 1.55928649680451e-015 -0.148372554742754 0.988931537063668
outer loop
vertex -31.6872591483299 21.810472281618 4.09556164737528
vertex -41.6872591483299 24.6205370931899 4.90306672808005
vertex -41.6872591483299 21.810472281618 4.09556164737529
endloop
endfacet
facet normal 1.7214221191118e-015 -0.399271198633101 0.916832869143601
outer loop
vertex -41.6872591483299 24.6205370931899 4.90306672808005
vertex -31.6872591483299 21.810472281618 4.09556164737528
vertex -31.6872591483299 24.6205370931899 4.90306672808003
endloop
endfacet
facet normal -1.55928649680451e-015 0.148372554742754 -0.988931537063668
outer loop
vertex -31.6872591483298 18.4869270553803 26.2476280776014
vertex -41.6872591483298 15.6768622438084 25.4401229968967
vertex -41.6872591483298 18.4869270553803 26.2476280776015
endloop
endfacet
facet normal -1.7214221191118e-015 0.399271198633101 -0.916832869143601
outer loop
vertex -41.6872591483298 15.6768622438084 25.4401229968967
vertex -31.6872591483298 18.4869270553803 26.2476280776014
vertex -31.6872591483298 15.6768622438085 25.4401229968967
endloop
endfacet
facet normal 1.69070249499177e-015 -0.804195435587528 0.594364956386382
outer loop
vertex -31.6872591483299 29.1556885470795 8.51470735096088
vertex -41.6872591483299 27.1258535743299 6.41035503159964
vertex -31.6872591483299 27.1258535743299 6.41035503159962
endloop
endfacet
facet normal 1.76624566878618e-015 -0.622960170163456 0.782253556329352
outer loop
vertex -41.6872591483299 27.1258535743299 6.41035503159964
vertex -31.6872591483299 29.1556885470795 8.51470735096088
vertex -41.6872591483299 29.1556885470795 8.5147073509609
endloop
endfacet
facet normal -8.31727901550879e-016 0.988931537063668 0.148372554742754
outer loop
vertex -41.6872591483298 9.0726664533861 13.5098222493695
vertex -31.6872591483298 9.01997473228099 16.4331341183164
vertex -31.6872591483298 9.07266645338611 13.5098222493695
endloop
endfacet
facet normal -1.2069605026974e-015 0.993636155019483 -0.112637433556072
outer loop
vertex -31.6872591483298 9.01997473228099 16.4331341183164
vertex -41.6872591483298 9.0726664533861 13.5098222493695
vertex -41.6872591483298 9.01997473228098 16.4331341183164
endloop
endfacet
facet normal 5.93457566228685e-017 0.782253556329351 0.622960170163456
outer loop
vertex -41.6872591483298 11.3874598376104 8.19444095665767
vertex -31.6872591483298 13.4918121569717 6.16460598390804
vertex -41.6872591483298 13.4918121569717 6.16460598390805
endloop
endfacet
facet normal 5.14461616414398e-016 0.594364956386382 0.804195435587529
outer loop
vertex -31.6872591483298 13.4918121569717 6.16460598390804
vertex -41.6872591483298 11.3874598376104 8.19444095665767
vertex -31.6872591483298 11.3874598376105 8.19444095665765
endloop
endfacet
facet normal 1.7214221191118e-015 -0.399271198633101 0.916832869143601
outer loop
vertex -41.6872591483299 24.6205370931899 4.90306672808005
vertex -31.6872591483299 27.1258535743299 6.41035503159962
vertex -41.6872591483299 27.1258535743299 6.41035503159964
endloop
endfacet
facet normal 1.76624566878618e-015 -0.622960170163456 0.782253556329352
outer loop
vertex -31.6872591483299 27.1258535743299 6.41035503159962
vertex -41.6872591483299 24.6205370931899 4.90306672808005
vertex -31.6872591483299 24.6205370931899 4.90306672808003
endloop
endfacet
facet normal -1.69070249499177e-015 0.804195435587529 -0.594364956386381
outer loop
vertex -41.6872591483298 11.1417107899189 21.8284823740158
vertex -31.6872591483298 13.1715457626685 23.9328346933771
vertex -31.6872591483298 11.1417107899189 21.8284823740158
endloop
endfacet
facet normal -1.76624566878618e-015 0.622960170163456 -0.782253556329351
outer loop
vertex -31.6872591483298 13.1715457626685 23.9328346933771
vertex -41.6872591483298 11.1417107899189 21.8284823740158
vertex -41.6872591483298 13.1715457626685 23.9328346933771
endloop
endfacet
facet normal -1.2069605026974e-015 0.993636155019483 -0.112637433556072
outer loop
vertex -41.6872591483298 9.01997473228098 16.4331341183164
vertex -31.6872591483298 9.72568722449161 19.2704741717707
vertex -31.6872591483298 9.01997473228099 16.4331341183164
endloop
endfacet
facet normal -1.49994074018164e-015 0.930626111072105 -0.365971366900212
outer loop
vertex -31.6872591483298 9.72568722449161 19.2704741717707
vertex -41.6872591483298 9.01997473228098 16.4331341183164
vertex -41.6872591483298 9.7256872244916 19.2704741717707
endloop
endfacet
facet normal 8.31727901550878e-016 -0.988931537063668 -0.148372554742755
outer loop
vertex -31.6872591483298 31.2247328836123 16.8333674756072
vertex -41.6872591483298 31.2774246047174 13.9100556066604
vertex -31.6872591483298 31.2774246047174 13.9100556066604
endloop
endfacet
facet normal 1.2069605026974e-015 -0.993636155019483 0.112637433556071
outer loop
vertex -41.6872591483298 31.2774246047174 13.9100556066604
vertex -31.6872591483298 31.2247328836123 16.8333674756072
vertex -41.6872591483298 31.2247328836123 16.8333674756072
endloop
endfacet
facet normal 5.93457566228685e-017 0.782253556329351 0.622960170163456
outer loop
vertex -41.6872591483298 11.3874598376104 8.19444095665767
vertex -31.6872591483298 9.88017153409086 10.6997574377976
vertex -31.6872591483298 11.3874598376105 8.19444095665765
endloop
endfacet
facet normal -3.99814418409009e-016 0.916832869143601 0.399271198633101
outer loop
vertex -31.6872591483298 9.88017153409086 10.6997574377976
vertex -41.6872591483298 11.3874598376104 8.19444095665767
vertex -41.6872591483298 9.88017153409085 10.6997574377976
endloop
endfacet
facet normal -5.93457566228693e-017 -0.782253556329351 -0.622960170163456
outer loop
vertex -31.6872591483298 28.9099394993879 22.1487487683191
vertex -41.6872591483298 26.8055871800266 24.1785837410687
vertex -41.6872591483298 28.9099394993879 22.1487487683191
endloop
endfacet
facet normal -5.14461616414398e-016 -0.594364956386382 -0.804195435587528
outer loop
vertex -41.6872591483298 26.8055871800266 24.1785837410687
vertex -31.6872591483298 28.9099394993879 22.1487487683191
vertex -31.6872591483298 26.8055871800267 24.1785837410687
endloop
endfacet
facet normal -1.29088807658276e-015 -0.112637433556072 -0.993636155019483
outer loop
vertex -31.6872591483298 21.4102389243272 26.3003197987066
vertex -41.6872591483298 18.4869270553803 26.2476280776015
vertex -41.6872591483298 21.4102389243272 26.3003197987066
endloop
endfacet
facet normal -1.55928649680451e-015 0.148372554742755 -0.988931537063668
outer loop
vertex -41.6872591483298 18.4869270553803 26.2476280776015
vertex -31.6872591483298 21.4102389243272 26.3003197987066
vertex -31.6872591483298 18.4869270553803 26.2476280776014
endloop
endfacet
facet normal -1.49994074018164e-015 0.930626111072105 -0.365971366900212
outer loop
vertex -41.6872591483298 9.7256872244916 19.2704741717707
vertex -31.6872591483298 11.1417107899189 21.8284823740158
vertex -31.6872591483298 9.72568722449161 19.2704741717707
endloop
endfacet
facet normal -1.69070249499177e-015 0.804195435587529 -0.594364956386381
outer loop
vertex -31.6872591483298 11.1417107899189 21.8284823740158
vertex -41.6872591483298 9.7256872244916 19.2704741717707
vertex -41.6872591483298 11.1417107899189 21.8284823740158
endloop
endfacet
facet normal 1.29088807658276e-015 0.112637433556072 0.993636155019483
outer loop
vertex -31.6872591483299 18.8871604126712 4.04286992627015
vertex -41.6872591483299 21.810472281618 4.09556164737529
vertex -41.6872591483299 18.8871604126712 4.04286992627017
endloop
endfacet
facet normal 1.55928649680451e-015 -0.148372554742753 0.988931537063668
outer loop
vertex -41.6872591483299 21.810472281618 4.09556164737529
vertex -31.6872591483299 18.8871604126712 4.04286992627015
vertex -31.6872591483299 21.810472281618 4.09556164737528
endloop
endfacet
facet normal 3.99814418409008e-016 -0.916832869143601 -0.399271198633102
outer loop
vertex -31.6872591483298 30.4172278029075 19.6434322871791
vertex -41.6872591483298 31.2247328836123 16.8333674756072
vertex -31.6872591483298 31.2247328836123 16.8333674756072
endloop
endfacet
facet normal 8.31727901550878e-016 -0.988931537063668 -0.148372554742755
outer loop
vertex -41.6872591483298 31.2247328836123 16.8333674756072
vertex -31.6872591483298 30.4172278029075 19.6434322871791
vertex -41.6872591483298 30.4172278029075 19.6434322871791
endloop
endfacet
facet normal -5.14461616414398e-016 -0.594364956386382 -0.804195435587528
outer loop
vertex -31.6872591483298 26.8055871800267 24.1785837410687
vertex -41.6872591483298 24.2475789777816 25.594607306496
vertex -41.6872591483298 26.8055871800266 24.1785837410687
endloop
endfacet
facet normal -9.34517767235305e-016 -0.365971366900212 -0.930626111072105
outer loop
vertex -41.6872591483298 24.2475789777816 25.594607306496
vertex -31.6872591483298 26.8055871800267 24.1785837410687
vertex -31.6872591483298 24.2475789777816 25.5946073064959
endloop
endfacet
facet normal -1.7214221191118e-015 0.399271198633101 -0.916832869143601
outer loop
vertex -31.6872591483298 15.6768622438085 25.4401229968967
vertex -41.6872591483298 13.1715457626685 23.9328346933771
vertex -41.6872591483298 15.6768622438084 25.4401229968967
endloop
endfacet
facet normal -1.76624566878618e-015 0.622960170163456 -0.782253556329351
outer loop
vertex -41.6872591483298 13.1715457626685 23.9328346933771
vertex -31.6872591483298 15.6768622438085 25.4401229968967
vertex -31.6872591483298 13.1715457626685 23.9328346933771
endloop
endfacet
facet normal 1.49994074018164e-015 -0.930626111072105 0.365971366900212
outer loop
vertex -31.6872591483299 30.5717121125068 11.072715553206
vertex -41.6872591483299 29.1556885470795 8.5147073509609
vertex -31.6872591483299 29.1556885470795 8.51470735096088
endloop
endfacet
facet normal 1.69070249499177e-015 -0.804195435587528 0.594364956386382
outer loop
vertex -41.6872591483299 29.1556885470795 8.5147073509609
vertex -31.6872591483299 30.5717121125068 11.072715553206
vertex -41.6872591483299 30.5717121125068 11.072715553206
endloop
endfacet
facet normal 1.2069605026974e-015 -0.993636155019483 0.112637433556071
outer loop
vertex -31.6872591483298 31.2774246047174 13.9100556066604
vertex -41.6872591483299 30.5717121125068 11.072715553206
vertex -31.6872591483299 30.5717121125068 11.072715553206
endloop
endfacet
facet normal 1.49994074018164e-015 -0.930626111072105 0.365971366900212
outer loop
vertex -41.6872591483299 30.5717121125068 11.072715553206
vertex -31.6872591483298 31.2774246047174 13.9100556066604
vertex -41.6872591483298 31.2774246047174 13.9100556066604
endloop
endfacet
facet normal -3.99814418409009e-016 0.916832869143601 0.399271198633101
outer loop
vertex -41.6872591483298 9.88017153409085 10.6997574377976
vertex -31.6872591483298 9.07266645338611 13.5098222493695
vertex -31.6872591483298 9.88017153409086 10.6997574377976
endloop
endfacet
facet normal -8.31727901550879e-016 0.988931537063668 0.148372554742754
outer loop
vertex -31.6872591483298 9.07266645338611 13.5098222493695
vertex -41.6872591483298 9.88017153409085 10.6997574377976
vertex -41.6872591483298 9.0726664533861 13.5098222493695
endloop
endfacet
endsolid SpoolHolderBracketV7
