solid PulseGenBox-bottom-X2
facet normal -0.707106781186548 0.707106781186548 0.0
outer loop
vertex 40.0807611844575 27.9192388155425 6.0
vertex 40.35 28.1258330249198 2.0
vertex 40.0807611844575 27.9192388155425 2.0
endloop
endfacet
facet normal -0.500000000000002 0.866025403784438 0.0
outer loop
vertex 40.35 28.1258330249198 2.0
vertex 40.0807611844575 27.9192388155425 6.0
vertex 40.35 28.1258330249198 6.0
endloop
endfacet
facet normal 0.0 0.0 1.0
outer loop
vertex 2.74429642582421 26.6635352413667 6.0
vertex 2.74429642582421 27.3364647586333 6.0
vertex 2.7 27.0 6.0
endloop
endfacet
facet normal 0.0 0.0 1.0
outer loop
vertex 2.74429642582421 27.3364647586333 6.0
vertex 2.74429642582421 26.6635352413667 6.0
vertex 2.87416697508023 26.35 6.0
endloop
endfacet
facet normal 0.0 0.0 1.0
outer loop
vertex 2.74429642582421 27.3364647586333 6.0
vertex 2.87416697508023 26.35 6.0
vertex 2.87416697508023 27.65 6.0
endloop
endfacet
facet normal 0.0 0.0 1.0
outer loop
vertex 2.87416697508023 27.65 6.0
vertex 2.87416697508023 26.35 6.0
vertex 3.08076118445749 27.9192388155425 6.0
endloop
endfacet
facet normal 0.0 0.0 1.0
outer loop
vertex 3.08076118445749 27.9192388155425 6.0
vertex 2.87416697508023 26.35 6.0
vertex 3.08076118445749 26.0807611844575 6.0
endloop
endfacet
facet normal 0.0 0.0 1.0
outer loop
vertex 3.08076118445749 27.9192388155425 6.0
vertex 3.08076118445749 26.0807611844575 6.0
vertex 3.35 25.8741669750802 6.0
endloop
endfacet
facet normal 0.0 0.0 1.0
outer loop
vertex 3.08076118445749 27.9192388155425 6.0
vertex 3.35 25.8741669750802 6.0
vertex 3.35 28.1258330249198 6.0
endloop
endfacet
facet normal 0.0 0.0 1.0
outer loop
vertex 3.35 28.1258330249198 6.0
vertex 3.35 25.8741669750802 6.0
vertex 3.66353524136672 28.2557035741758 6.0
endloop
endfacet
facet normal 0.0 0.0 1.0
outer loop
vertex 3.66353524136672 28.2557035741758 6.0
vertex 3.35 25.8741669750802 6.0
vertex 3.66353524136672 25.7442964258242 6.0
endloop
endfacet
facet normal 0.0 0.0 1.0
outer loop
vertex 3.66353524136672 28.2557035741758 6.0
vertex 3.66353524136672 25.7442964258242 6.0
vertex 4.0 28.3 6.0
endloop
endfacet
facet normal 0.0 0.0 1.0
outer loop
vertex 4.0 28.3 6.0
vertex 3.66353524136672 25.7442964258242 6.0
vertex 4.0 25.7 6.0
endloop
endfacet
facet normal 0.0 0.0 1.0
outer loop
vertex 4.0 28.3 6.0
vertex 4.0 25.7 6.0
vertex 4.33646475863328 25.7442964258242 6.0
endloop
endfacet
facet normal 0.0 0.0 1.0
outer loop
vertex 4.0 28.3 6.0
vertex 4.33646475863328 25.7442964258242 6.0
vertex 4.33646475863327 28.2557035741758 6.0
endloop
endfacet
facet normal 0.0 0.0 1.0
outer loop
vertex 4.33646475863327 28.2557035741758 6.0
vertex 4.33646475863328 25.7442964258242 6.0
vertex 4.65 28.1258330249198 6.0
endloop
endfacet
facet normal 0.0 0.0 1.0
outer loop
vertex 4.65 28.1258330249198 6.0
vertex 4.33646475863328 25.7442964258242 6.0
vertex 4.65 25.8741669750802 6.0
endloop
endfacet
facet normal 0.0 0.0 1.0
outer loop
vertex 4.65 28.1258330249198 6.0
vertex 4.65 25.8741669750802 6.0
vertex 4.91923881554251 27.9192388155425 6.0
endloop
endfacet
facet normal 0.0 0.0 1.0
outer loop
vertex 4.91923881554251 27.9192388155425 6.0
vertex 4.65 25.8741669750802 6.0
vertex 4.91923881554251 26.0807611844575 6.0
endloop
endfacet
facet normal 0.0 0.0 1.0
outer loop
vertex 4.91923881554251 27.9192388155425 6.0
vertex 4.91923881554251 26.0807611844575 6.0
vertex 5.12583302491977 27.65 6.0
endloop
endfacet
facet normal 0.0 0.0 1.0
outer loop
vertex 5.12583302491977 27.65 6.0
vertex 4.91923881554251 26.0807611844575 6.0
vertex 5.12583302491977 26.35 6.0
endloop
endfacet
facet normal 0.0 0.0 1.0
outer loop
vertex 5.12583302491977 27.65 6.0
vertex 5.12583302491977 26.35 6.0
vertex 5.25570357417579 26.6635352413667 6.0
endloop
endfacet
facet normal 0.0 0.0 1.0
outer loop
vertex 5.12583302491977 27.65 6.0
vertex 5.25570357417579 26.6635352413667 6.0
vertex 5.25570357417579 27.3364647586333 6.0
endloop
endfacet
facet normal 0.0 0.0 1.0
outer loop
vertex 5.25570357417579 27.3364647586333 6.0
vertex 5.25570357417579 26.6635352413667 6.0
vertex 5.3 27.0 6.0
endloop
endfacet
facet normal 0.965925826289069 -0.258819045102518 0.0
outer loop
vertex 42.2557035741758 26.6635352413667 2.0
vertex 42.1258330249198 26.35 6.0
vertex 42.1258330249198 26.35 2.0
endloop
endfacet
facet normal 0.866025403784438 -0.500000000000002 0.0
outer loop
vertex 42.1258330249198 26.35 6.0
vertex 42.2557035741758 26.6635352413667 2.0
vertex 42.2557035741758 26.6635352413667 6.0
endloop
endfacet
facet normal -0.707106781186549 0.707106781186546 0.0
outer loop
vertex 3.08076118445749 27.9192388155425 6.0
vertex 2.87416697508023 27.65 2.0
vertex 2.87416697508023 27.65 6.0
endloop
endfacet
facet normal -0.866025403784438 0.500000000000001 0.0
outer loop
vertex 2.87416697508023 27.65 2.0
vertex 3.08076118445749 27.9192388155425 6.0
vertex 3.08076118445749 27.9192388155425 2.0
endloop
endfacet
facet normal -0.965925826289068 -0.258819045102522 0.0
outer loop
vertex 2.74429642582421 26.6635352413667 6.0
vertex 2.87416697508023 26.35 2.0
vertex 2.87416697508023 26.35 6.0
endloop
endfacet
facet normal -0.866025403784437 -0.500000000000002 0.0
outer loop
vertex 2.87416697508023 26.35 2.0
vertex 2.74429642582421 26.6635352413667 6.0
vertex 2.74429642582421 26.6635352413667 2.0
endloop
endfacet
facet normal -1.0 0.0 0.0
outer loop
vertex 39.7 27.0 6.0
vertex 39.7442964258242 26.6635352413667 2.0
vertex 39.7442964258242 26.6635352413667 6.0
endloop
endfacet
facet normal -0.965925826289069 -0.258819045102518 0.0
outer loop
vertex 39.7442964258242 26.6635352413667 2.0
vertex 39.7 27.0 6.0
vertex 39.7 27.0 2.0
endloop
endfacet
facet normal -0.707106781186549 0.707106781186546 0.0
outer loop
vertex 3.08076118445749 27.9192388155425 6.0
vertex 3.35 28.1258330249198 2.0
vertex 3.08076118445749 27.9192388155425 2.0
endloop
endfacet
facet normal -0.5 0.866025403784438 0.0
outer loop
vertex 3.35 28.1258330249198 2.0
vertex 3.08076118445749 27.9192388155425 6.0
vertex 3.35 28.1258330249198 6.0
endloop
endfacet
facet normal -0.5 -0.866025403784439 0.0
outer loop
vertex 3.35 25.8741669750802 6.0
vertex 3.08076118445749 26.0807611844575 2.0
vertex 3.35 25.8741669750802 2.0
endloop
endfacet
facet normal -0.707106781186549 -0.707106781186546 0.0
outer loop
vertex 3.08076118445749 26.0807611844575 2.0
vertex 3.35 25.8741669750802 6.0
vertex 3.08076118445749 26.0807611844575 6.0
endloop
endfacet
facet normal 0.499999999999994 0.866025403784442 0.0
outer loop
vertex 4.65 28.1258330249198 6.0
vertex 4.91923881554251 27.9192388155425 2.0
vertex 4.65 28.1258330249198 2.0
endloop
endfacet
facet normal 0.707106781186547 0.707106781186548 0.0
outer loop
vertex 4.91923881554251 27.9192388155425 2.0
vertex 4.65 28.1258330249198 6.0
vertex 4.91923881554251 27.9192388155425 6.0
endloop
endfacet
facet normal 0.965925826289068 0.258819045102522 0.0
outer loop
vertex 5.25570357417579 27.3364647586333 2.0
vertex 5.3 27.0 6.0
vertex 5.3 27.0 2.0
endloop
endfacet
facet normal 1.0 0.0 0.0
outer loop
vertex 5.3 27.0 6.0
vertex 5.25570357417579 27.3364647586333 2.0
vertex 5.25570357417579 27.3364647586333 6.0
endloop
endfacet
facet normal -1.0 0.0 0.0
outer loop
vertex 2.7 27.0 6.0
vertex 2.74429642582421 26.6635352413667 2.0
vertex 2.74429642582421 26.6635352413667 6.0
endloop
endfacet
facet normal -0.965925826289068 -0.258819045102522 0.0
outer loop
vertex 2.74429642582421 26.6635352413667 2.0
vertex 2.7 27.0 6.0
vertex 2.7 27.0 2.0
endloop
endfacet
facet normal -0.866025403784437 -0.500000000000002 0.0
outer loop
vertex 2.87416697508023 26.35 6.0
vertex 3.08076118445749 26.0807611844575 2.0
vertex 3.08076118445749 26.0807611844575 6.0
endloop
endfacet
facet normal -0.707106781186549 -0.707106781186546 0.0
outer loop
vertex 3.08076118445749 26.0807611844575 2.0
vertex 2.87416697508023 26.35 6.0
vertex 2.87416697508023 26.35 2.0
endloop
endfacet
facet normal 0.86602540378444 0.499999999999998 0.0
outer loop
vertex 5.12583302491977 27.65 2.0
vertex 5.25570357417579 27.3364647586333 6.0
vertex 5.25570357417579 27.3364647586333 2.0
endloop
endfacet
facet normal 0.965925826289068 0.258819045102522 0.0
outer loop
vertex 5.25570357417579 27.3364647586333 6.0
vertex 5.12583302491977 27.65 2.0
vertex 5.12583302491977 27.65 6.0
endloop
endfacet
facet normal -0.866025403784438 0.500000000000001 0.0
outer loop
vertex 2.87416697508023 27.65 6.0
vertex 2.74429642582421 27.3364647586333 2.0
vertex 2.74429642582421 27.3364647586333 6.0
endloop
endfacet
facet normal -0.965925826289068 0.258819045102522 0.0
outer loop
vertex 2.74429642582421 27.3364647586333 2.0
vertex 2.87416697508023 27.65 6.0
vertex 2.87416697508023 27.65 2.0
endloop
endfacet
facet normal -0.258819045102525 -0.965925826289067 0.0
outer loop
vertex 3.66353524136672 25.7442964258242 6.0
vertex 3.35 25.8741669750802 2.0
vertex 3.66353524136672 25.7442964258242 2.0
endloop
endfacet
facet normal -0.5 -0.866025403784439 0.0
outer loop
vertex 3.35 25.8741669750802 2.0
vertex 3.66353524136672 25.7442964258242 6.0
vertex 3.35 25.8741669750802 6.0
endloop
endfacet
facet normal 1.0 0.0 0.0
outer loop
vertex 5.3 27.0 2.0
vertex 5.25570357417579 26.6635352413667 6.0
vertex 5.25570357417579 26.6635352413667 2.0
endloop
endfacet
facet normal 0.965925826289068 -0.258819045102522 0.0
outer loop
vertex 5.25570357417579 26.6635352413667 6.0
vertex 5.3 27.0 2.0
vertex 5.3 27.0 6.0
endloop
endfacet
facet normal 0.258819045102526 0.965925826289067 0.0
outer loop
vertex 4.33646475863327 28.2557035741758 6.0
vertex 4.65 28.1258330249198 2.0
vertex 4.33646475863327 28.2557035741758 2.0
endloop
endfacet
facet normal 0.499999999999994 0.866025403784442 0.0
outer loop
vertex 4.65 28.1258330249198 2.0
vertex 4.33646475863327 28.2557035741758 6.0
vertex 4.65 28.1258330249198 6.0
endloop
endfacet
facet normal 2.76244406765055e-016 1.0 0.0
outer loop
vertex 4.0 28.3 6.0
vertex 4.33646475863327 28.2557035741758 2.0
vertex 4.0 28.3 2.0
endloop
endfacet
facet normal 0.258819045102526 0.965925826289067 0.0
outer loop
vertex 4.33646475863327 28.2557035741758 2.0
vertex 4.0 28.3 6.0
vertex 4.33646475863327 28.2557035741758 6.0
endloop
endfacet
facet normal -0.258819045102525 0.965925826289067 0.0
outer loop
vertex 3.66353524136672 28.2557035741758 6.0
vertex 4.0 28.3 2.0
vertex 3.66353524136672 28.2557035741758 2.0
endloop
endfacet
facet normal 2.76244406765055e-016 1.0 0.0
outer loop
vertex 4.0 28.3 2.0
vertex 3.66353524136672 28.2557035741758 6.0
vertex 4.0 28.3 6.0
endloop
endfacet
facet normal 0.258819045102525 -0.965925826289067 0.0
outer loop
vertex 4.33646475863328 25.7442964258242 6.0
vertex 4.0 25.7 2.0
vertex 4.33646475863328 25.7442964258242 2.0
endloop
endfacet
facet normal -1.33666648434704e-016 -1.0 0.0
outer loop
vertex 4.0 25.7 2.0
vertex 4.33646475863328 25.7442964258242 6.0
vertex 4.0 25.7 6.0
endloop
endfacet
facet normal 0.5 -0.866025403784439 0.0
outer loop
vertex 4.65 25.8741669750802 6.0
vertex 4.33646475863328 25.7442964258242 2.0
vertex 4.65 25.8741669750802 2.0
endloop
endfacet
facet normal 0.258819045102525 -0.965925826289067 0.0
outer loop
vertex 4.33646475863328 25.7442964258242 2.0
vertex 4.65 25.8741669750802 6.0
vertex 4.33646475863328 25.7442964258242 6.0
endloop
endfacet
facet normal -0.965925826289069 0.258819045102518 0.0
outer loop
vertex 39.7442964258242 27.3364647586333 6.0
vertex 39.7 27.0 2.0
vertex 39.7 27.0 6.0
endloop
endfacet
facet normal -1.0 0.0 0.0
outer loop
vertex 39.7 27.0 2.0
vertex 39.7442964258242 27.3364647586333 6.0
vertex 39.7442964258242 27.3364647586333 2.0
endloop
endfacet
facet normal -0.965925826289068 0.258819045102522 0.0
outer loop
vertex 2.74429642582421 27.3364647586333 6.0
vertex 2.7 27.0 2.0
vertex 2.7 27.0 6.0
endloop
endfacet
facet normal -1.0 0.0 0.0
outer loop
vertex 2.7 27.0 2.0
vertex 2.74429642582421 27.3364647586333 6.0
vertex 2.74429642582421 27.3364647586333 2.0
endloop
endfacet
facet normal -0.707106781186548 0.707106781186548 0.0
outer loop
vertex 40.0807611844575 27.9192388155425 6.0
vertex 39.8741669750802 27.65 2.0
vertex 39.8741669750802 27.65 6.0
endloop
endfacet
facet normal -0.866025403784438 0.500000000000002 0.0
outer loop
vertex 39.8741669750802 27.65 2.0
vertex 40.0807611844575 27.9192388155425 6.0
vertex 40.0807611844575 27.9192388155425 2.0
endloop
endfacet
facet normal 0.0 0.0 1.0
outer loop
vertex 39.7442964258242 26.6635352413667 6.0
vertex 39.7442964258242 27.3364647586333 6.0
vertex 39.7 27.0 6.0
endloop
endfacet
facet normal 0.0 0.0 1.0
outer loop
vertex 39.7442964258242 27.3364647586333 6.0
vertex 39.7442964258242 26.6635352413667 6.0
vertex 39.8741669750802 26.35 6.0
endloop
endfacet
facet normal 0.0 0.0 1.0
outer loop
vertex 39.7442964258242 27.3364647586333 6.0
vertex 39.8741669750802 26.35 6.0
vertex 39.8741669750802 27.65 6.0
endloop
endfacet
facet normal 0.0 0.0 1.0
outer loop
vertex 39.8741669750802 27.65 6.0
vertex 39.8741669750802 26.35 6.0
vertex 40.0807611844575 26.0807611844575 6.0
endloop
endfacet
facet normal 0.0 0.0 1.0
outer loop
vertex 39.8741669750802 27.65 6.0
vertex 40.0807611844575 26.0807611844575 6.0
vertex 40.0807611844575 27.9192388155425 6.0
endloop
endfacet
facet normal 0.0 0.0 1.0
outer loop
vertex 40.0807611844575 27.9192388155425 6.0
vertex 40.0807611844575 26.0807611844575 6.0
vertex 40.35 25.8741669750802 6.0
endloop
endfacet
facet normal 0.0 0.0 1.0
outer loop
vertex 40.0807611844575 27.9192388155425 6.0
vertex 40.35 25.8741669750802 6.0
vertex 40.35 28.1258330249198 6.0
endloop
endfacet
facet normal 0.0 0.0 1.0
outer loop
vertex 40.35 28.1258330249198 6.0
vertex 40.35 25.8741669750802 6.0
vertex 40.6635352413667 25.7442964258242 6.0
endloop
endfacet
facet normal 0.0 0.0 1.0
outer loop
vertex 40.35 28.1258330249198 6.0
vertex 40.6635352413667 25.7442964258242 6.0
vertex 40.6635352413667 28.2557035741758 6.0
endloop
endfacet
facet normal 0.0 0.0 1.0
outer loop
vertex 40.6635352413667 28.2557035741758 6.0
vertex 40.6635352413667 25.7442964258242 6.0
vertex 41.0 25.7 6.0
endloop
endfacet
facet normal 0.0 0.0 1.0
outer loop
vertex 40.6635352413667 28.2557035741758 6.0
vertex 41.0 25.7 6.0
vertex 41.0 28.3 6.0
endloop
endfacet
facet normal 0.0 0.0 1.0
outer loop
vertex 41.0 28.3 6.0
vertex 41.0 25.7 6.0
vertex 41.3364647586333 25.7442964258242 6.0
endloop
endfacet
facet normal 0.0 0.0 1.0
outer loop
vertex 41.0 28.3 6.0
vertex 41.3364647586333 25.7442964258242 6.0
vertex 41.3364647586333 28.2557035741758 6.0
endloop
endfacet
facet normal 0.0 0.0 1.0
outer loop
vertex 41.3364647586333 28.2557035741758 6.0
vertex 41.3364647586333 25.7442964258242 6.0
vertex 41.65 25.8741669750802 6.0
endloop
endfacet
facet normal 0.0 0.0 1.0
outer loop
vertex 41.3364647586333 28.2557035741758 6.0
vertex 41.65 25.8741669750802 6.0
vertex 41.65 28.1258330249198 6.0
endloop
endfacet
facet normal 0.0 0.0 1.0
outer loop
vertex 41.65 28.1258330249198 6.0
vertex 41.65 25.8741669750802 6.0
vertex 41.9192388155425 26.0807611844575 6.0
endloop
endfacet
facet normal 0.0 0.0 1.0
outer loop
vertex 41.65 28.1258330249198 6.0
vertex 41.9192388155425 26.0807611844575 6.0
vertex 41.9192388155425 27.9192388155425 6.0
endloop
endfacet
facet normal 0.0 0.0 1.0
outer loop
vertex 41.9192388155425 27.9192388155425 6.0
vertex 41.9192388155425 26.0807611844575 6.0
vertex 42.1258330249198 26.35 6.0
endloop
endfacet
facet normal 0.0 0.0 1.0
outer loop
vertex 41.9192388155425 27.9192388155425 6.0
vertex 42.1258330249198 26.35 6.0
vertex 42.1258330249198 27.65 6.0
endloop
endfacet
facet normal 0.0 0.0 1.0
outer loop
vertex 42.1258330249198 27.65 6.0
vertex 42.1258330249198 26.35 6.0
vertex 42.2557035741758 26.6635352413667 6.0
endloop
endfacet
facet normal 0.0 0.0 1.0
outer loop
vertex 42.1258330249198 27.65 6.0
vertex 42.2557035741758 26.6635352413667 6.0
vertex 42.2557035741758 27.3364647586333 6.0
endloop
endfacet
facet normal 0.0 0.0 1.0
outer loop
vertex 42.2557035741758 27.3364647586333 6.0
vertex 42.2557035741758 26.6635352413667 6.0
vertex 42.3 27.0 6.0
endloop
endfacet
facet normal -1.33666648434704e-016 -1.0 0.0
outer loop
vertex 4.0 25.7 6.0
vertex 3.66353524136672 25.7442964258242 2.0
vertex 4.0 25.7 2.0
endloop
endfacet
facet normal -0.258819045102525 -0.965925826289067 0.0
outer loop
vertex 3.66353524136672 25.7442964258242 2.0
vertex 4.0 25.7 6.0
vertex 3.66353524136672 25.7442964258242 6.0
endloop
endfacet
facet normal 0.707106781186549 -0.707106781186546 0.0
outer loop
vertex 4.91923881554251 26.0807611844575 6.0
vertex 4.65 25.8741669750802 2.0
vertex 4.91923881554251 26.0807611844575 2.0
endloop
endfacet
facet normal 0.5 -0.866025403784439 0.0
outer loop
vertex 4.65 25.8741669750802 2.0
vertex 4.91923881554251 26.0807611844575 6.0
vertex 4.65 25.8741669750802 6.0
endloop
endfacet
facet normal 0.707106781186547 0.707106781186548 0.0
outer loop
vertex 4.91923881554251 27.9192388155425 2.0
vertex 5.12583302491977 27.65 6.0
vertex 5.12583302491977 27.65 2.0
endloop
endfacet
facet normal 0.86602540378444 0.499999999999998 0.0
outer loop
vertex 5.12583302491977 27.65 6.0
vertex 4.91923881554251 27.9192388155425 2.0
vertex 4.91923881554251 27.9192388155425 6.0
endloop
endfacet
facet normal 0.866025403784438 -0.500000000000001 0.0
outer loop
vertex 5.12583302491977 26.35 2.0
vertex 4.91923881554251 26.0807611844575 6.0
vertex 4.91923881554251 26.0807611844575 2.0
endloop
endfacet
facet normal 0.707106781186549 -0.707106781186546 0.0
outer loop
vertex 4.91923881554251 26.0807611844575 6.0
vertex 5.12583302491977 26.35 2.0
vertex 5.12583302491977 26.35 6.0
endloop
endfacet
facet normal -0.5 0.866025403784438 0.0
outer loop
vertex 3.35 28.1258330249198 6.0
vertex 3.66353524136672 28.2557035741758 2.0
vertex 3.35 28.1258330249198 2.0
endloop
endfacet
facet normal -0.258819045102525 0.965925826289067 0.0
outer loop
vertex 3.66353524136672 28.2557035741758 2.0
vertex 3.35 28.1258330249198 6.0
vertex 3.66353524136672 28.2557035741758 6.0
endloop
endfacet
facet normal 0.965925826289068 -0.258819045102522 0.0
outer loop
vertex 5.25570357417579 26.6635352413667 2.0
vertex 5.12583302491977 26.35 6.0
vertex 5.12583302491977 26.35 2.0
endloop
endfacet
facet normal 0.866025403784438 -0.500000000000001 0.0
outer loop
vertex 5.12583302491977 26.35 6.0
vertex 5.25570357417579 26.6635352413667 2.0
vertex 5.25570357417579 26.6635352413667 6.0
endloop
endfacet
facet normal -0.866025403784438 0.500000000000002 0.0
outer loop
vertex 39.8741669750802 27.65 6.0
vertex 39.7442964258242 27.3364647586333 2.0
vertex 39.7442964258242 27.3364647586333 6.0
endloop
endfacet
facet normal -0.965925826289069 0.258819045102518 0.0
outer loop
vertex 39.7442964258242 27.3364647586333 2.0
vertex 39.8741669750802 27.65 6.0
vertex 39.8741669750802 27.65 2.0
endloop
endfacet
facet normal -0.500000000000002 0.866025403784438 0.0
outer loop
vertex 40.35 28.1258330249198 6.0
vertex 40.6635352413667 28.2557035741758 2.0
vertex 40.35 28.1258330249198 2.0
endloop
endfacet
facet normal -0.258819045102518 0.965925826289069 0.0
outer loop
vertex 40.6635352413667 28.2557035741758 2.0
vertex 40.35 28.1258330249198 6.0
vertex 40.6635352413667 28.2557035741758 6.0
endloop
endfacet
facet normal 0.707106781186548 -0.707106781186547 0.0
outer loop
vertex 4.91923881554251 3.08076118445749 6.0
vertex 4.65 2.87416697508023 2.0
vertex 4.91923881554251 3.08076118445749 2.0
endloop
endfacet
facet normal 0.5 -0.866025403784439 0.0
outer loop
vertex 4.65 2.87416697508023 2.0
vertex 4.91923881554251 3.08076118445749 6.0
vertex 4.65 2.87416697508023 6.0
endloop
endfacet
facet normal 0.0 1.0 0.0
outer loop
vertex 41.0 28.3 6.0
vertex 41.3364647586333 28.2557035741758 2.0
vertex 41.0 28.3 2.0
endloop
endfacet
facet normal 0.258819045102518 0.965925826289069 0.0
outer loop
vertex 41.3364647586333 28.2557035741758 2.0
vertex 41.0 28.3 6.0
vertex 41.3364647586333 28.2557035741758 6.0
endloop
endfacet
facet normal 0.258819045102521 -0.965925826289068 0.0
outer loop
vertex 4.33646475863328 2.74429642582421 6.0
vertex 4.0 2.7 2.0
vertex 4.33646475863328 2.74429642582421 2.0
endloop
endfacet
facet normal -1.33666648434704e-016 -1.0 0.0
outer loop
vertex 4.0 2.7 2.0
vertex 4.33646475863328 2.74429642582421 6.0
vertex 4.0 2.7 6.0
endloop
endfacet
facet normal -0.965925826289068 0.258819045102521 0.0
outer loop
vertex 2.74429642582421 4.33646475863328 6.0
vertex 2.7 4.0 2.0
vertex 2.7 4.0 6.0
endloop
endfacet
facet normal -1.0 1.33666648434704e-016 0.0
outer loop
vertex 2.7 4.0 2.0
vertex 2.74429642582421 4.33646475863328 6.0
vertex 2.74429642582421 4.33646475863328 2.0
endloop
endfacet
facet normal 0.258819045102518 0.965925826289069 0.0
outer loop
vertex 41.3364647586333 28.2557035741758 6.0
vertex 41.65 28.1258330249198 2.0
vertex 41.3364647586333 28.2557035741758 2.0
endloop
endfacet
facet normal 0.500000000000002 0.866025403784438 0.0
outer loop
vertex 41.65 28.1258330249198 2.0
vertex 41.3364647586333 28.2557035741758 6.0
vertex 41.65 28.1258330249198 6.0
endloop
endfacet
facet normal -0.707106781186548 0.707106781186547 0.0
outer loop
vertex 3.08076118445749 4.91923881554251 6.0
vertex 2.87416697508023 4.65 2.0
vertex 2.87416697508023 4.65 6.0
endloop
endfacet
facet normal -0.866025403784439 0.5 0.0
outer loop
vertex 2.87416697508023 4.65 2.0
vertex 3.08076118445749 4.91923881554251 6.0
vertex 3.08076118445749 4.91923881554251 2.0
endloop
endfacet
facet normal -1.0 1.33666648434704e-016 0.0
outer loop
vertex 2.7 4.0 6.0
vertex 2.74429642582421 3.66353524136672 2.0
vertex 2.74429642582421 3.66353524136672 6.0
endloop
endfacet
facet normal -0.965925826289068 -0.258819045102521 0.0
outer loop
vertex 2.74429642582421 3.66353524136672 2.0
vertex 2.7 4.0 6.0
vertex 2.7 4.0 2.0
endloop
endfacet
facet normal 0.707106781186548 0.707106781186548 0.0
outer loop
vertex 41.9192388155425 27.9192388155425 2.0
vertex 42.1258330249198 27.65 6.0
vertex 42.1258330249198 27.65 2.0
endloop
endfacet
facet normal 0.866025403784438 0.500000000000002 0.0
outer loop
vertex 42.1258330249198 27.65 6.0
vertex 41.9192388155425 27.9192388155425 2.0
vertex 41.9192388155425 27.9192388155425 6.0
endloop
endfacet
facet normal -0.866025403784438 -0.5 0.0
outer loop
vertex 2.87416697508023 3.35 6.0
vertex 3.08076118445749 3.08076118445749 2.0
vertex 3.08076118445749 3.08076118445749 6.0
endloop
endfacet
facet normal -0.707106781186547 -0.707106781186548 0.0
outer loop
vertex 3.08076118445749 3.08076118445749 2.0
vertex 2.87416697508023 3.35 6.0
vertex 2.87416697508023 3.35 2.0
endloop
endfacet
facet normal 0.866025403784438 0.500000000000002 0.0
outer loop
vertex 42.1258330249198 27.65 2.0
vertex 42.2557035741758 27.3364647586333 6.0
vertex 42.2557035741758 27.3364647586333 2.0
endloop
endfacet
facet normal 0.965925826289069 0.258819045102518 0.0
outer loop
vertex 42.2557035741758 27.3364647586333 6.0
vertex 42.1258330249198 27.65 2.0
vertex 42.1258330249198 27.65 6.0
endloop
endfacet
facet normal -0.965925826289068 -0.258819045102521 0.0
outer loop
vertex 2.74429642582421 3.66353524136672 6.0
vertex 2.87416697508023 3.35 2.0
vertex 2.87416697508023 3.35 6.0
endloop
endfacet
facet normal -0.866025403784438 -0.5 0.0
outer loop
vertex 2.87416697508023 3.35 2.0
vertex 2.74429642582421 3.66353524136672 6.0
vertex 2.74429642582421 3.66353524136672 2.0
endloop
endfacet
facet normal -0.258819045102521 -0.965925826289068 0.0
outer loop
vertex 3.66353524136672 2.74429642582421 6.0
vertex 3.35 2.87416697508023 2.0
vertex 3.66353524136672 2.74429642582421 2.0
endloop
endfacet
facet normal -0.5 -0.866025403784439 0.0
outer loop
vertex 3.35 2.87416697508023 2.0
vertex 3.66353524136672 2.74429642582421 6.0
vertex 3.35 2.87416697508023 6.0
endloop
endfacet
facet normal -1.33666648434704e-016 -1.0 0.0
outer loop
vertex 4.0 2.7 6.0
vertex 3.66353524136672 2.74429642582421 2.0
vertex 4.0 2.7 2.0
endloop
endfacet
facet normal -0.258819045102521 -0.965925826289068 0.0
outer loop
vertex 3.66353524136672 2.74429642582421 2.0
vertex 4.0 2.7 6.0
vertex 3.66353524136672 2.74429642582421 6.0
endloop
endfacet
facet normal -0.707106781186548 0.707106781186547 0.0
outer loop
vertex 3.08076118445749 4.91923881554251 6.0
vertex 3.35 5.12583302491977 2.0
vertex 3.08076118445749 4.91923881554251 2.0
endloop
endfacet
facet normal -0.500000000000001 0.866025403784438 0.0
outer loop
vertex 3.35 5.12583302491977 2.0
vertex 3.08076118445749 4.91923881554251 6.0
vertex 3.35 5.12583302491977 6.0
endloop
endfacet
facet normal 0.866025403784438 0.500000000000001 0.0
outer loop
vertex 5.12583302491977 4.65 2.0
vertex 5.25570357417579 4.33646475863328 6.0
vertex 5.25570357417579 4.33646475863328 2.0
endloop
endfacet
facet normal 0.965925826289068 0.258819045102521 0.0
outer loop
vertex 5.25570357417579 4.33646475863328 6.0
vertex 5.12583302491977 4.65 2.0
vertex 5.12583302491977 4.65 6.0
endloop
endfacet
facet normal 0.707106781186547 0.707106781186548 0.0
outer loop
vertex 4.91923881554251 4.91923881554251 2.0
vertex 5.12583302491977 4.65 6.0
vertex 5.12583302491977 4.65 2.0
endloop
endfacet
facet normal 0.866025403784438 0.500000000000001 0.0
outer loop
vertex 5.12583302491977 4.65 6.0
vertex 4.91923881554251 4.91923881554251 2.0
vertex 4.91923881554251 4.91923881554251 6.0
endloop
endfacet
facet normal -0.258819045102518 0.965925826289069 0.0
outer loop
vertex 40.6635352413667 28.2557035741758 6.0
vertex 41.0 28.3 2.0
vertex 40.6635352413667 28.2557035741758 2.0
endloop
endfacet
facet normal 0.0 1.0 0.0
outer loop
vertex 41.0 28.3 2.0
vertex 40.6635352413667 28.2557035741758 6.0
vertex 41.0 28.3 6.0
endloop
endfacet
facet normal 0.5 0.866025403784439 0.0
outer loop
vertex 4.65 5.12583302491977 6.0
vertex 4.91923881554251 4.91923881554251 2.0
vertex 4.65 5.12583302491977 2.0
endloop
endfacet
facet normal 0.707106781186547 0.707106781186548 0.0
outer loop
vertex 4.91923881554251 4.91923881554251 2.0
vertex 4.65 5.12583302491977 6.0
vertex 4.91923881554251 4.91923881554251 6.0
endloop
endfacet
facet normal -0.866025403784439 0.5 0.0
outer loop
vertex 2.87416697508023 4.65 6.0
vertex 2.74429642582421 4.33646475863328 2.0
vertex 2.74429642582421 4.33646475863328 6.0
endloop
endfacet
facet normal -0.965925826289068 0.258819045102521 0.0
outer loop
vertex 2.74429642582421 4.33646475863328 2.0
vertex 2.87416697508023 4.65 6.0
vertex 2.87416697508023 4.65 2.0
endloop
endfacet
facet normal 0.965925826289069 0.258819045102518 0.0
outer loop
vertex 42.2557035741758 27.3364647586333 2.0
vertex 42.3 27.0 6.0
vertex 42.3 27.0 2.0
endloop
endfacet
facet normal 1.0 0.0 0.0
outer loop
vertex 42.3 27.0 6.0
vertex 42.2557035741758 27.3364647586333 2.0
vertex 42.2557035741758 27.3364647586333 6.0
endloop
endfacet
facet normal 0.500000000000002 0.866025403784438 0.0
outer loop
vertex 41.65 28.1258330249198 6.0
vertex 41.9192388155425 27.9192388155425 2.0
vertex 41.65 28.1258330249198 2.0
endloop
endfacet
facet normal 0.707106781186548 0.707106781186548 0.0
outer loop
vertex 41.9192388155425 27.9192388155425 2.0
vertex 41.65 28.1258330249198 6.0
vertex 41.9192388155425 27.9192388155425 6.0
endloop
endfacet
facet normal 0.965925826289068 0.258819045102521 0.0
outer loop
vertex 5.25570357417579 4.33646475863328 2.0
vertex 5.3 4.0 6.0
vertex 5.3 4.0 2.0
endloop
endfacet
facet normal 1.0 -1.42577758330351e-016 0.0
outer loop
vertex 5.3 4.0 6.0
vertex 5.25570357417579 4.33646475863328 2.0
vertex 5.25570357417579 4.33646475863328 6.0
endloop
endfacet
facet normal 1.0 0.0 0.0
outer loop
vertex 42.3 27.0 2.0
vertex 42.2557035741758 26.6635352413667 6.0
vertex 42.2557035741758 26.6635352413667 2.0
endloop
endfacet
facet normal 0.965925826289069 -0.258819045102518 0.0
outer loop
vertex 42.2557035741758 26.6635352413667 6.0
vertex 42.3 27.0 2.0
vertex 42.3 27.0 6.0
endloop
endfacet
facet normal -0.258819045102521 0.965925826289068 0.0
outer loop
vertex 3.66353524136672 5.25570357417579 6.0
vertex 4.0 5.3 2.0
vertex 3.66353524136672 5.25570357417579 2.0
endloop
endfacet
facet normal -7.39622121338693e-016 1.0 0.0
outer loop
vertex 4.0 5.3 2.0
vertex 3.66353524136672 5.25570357417579 6.0
vertex 4.0 5.3 6.0
endloop
endfacet
facet normal -0.500000000000001 0.866025403784438 0.0
outer loop
vertex 3.35 5.12583302491977 6.0
vertex 3.66353524136672 5.25570357417579 2.0
vertex 3.35 5.12583302491977 2.0
endloop
endfacet
facet normal -0.258819045102521 0.965925826289068 0.0
outer loop
vertex 3.66353524136672 5.25570357417579 2.0
vertex 3.35 5.12583302491977 6.0
vertex 3.66353524136672 5.25570357417579 6.0
endloop
endfacet
facet normal 0.5 -0.866025403784439 0.0
outer loop
vertex 4.65 2.87416697508023 6.0
vertex 4.33646475863328 2.74429642582421 2.0
vertex 4.65 2.87416697508023 2.0
endloop
endfacet
facet normal 0.258819045102521 -0.965925826289068 0.0
outer loop
vertex 4.33646475863328 2.74429642582421 2.0
vertex 4.65 2.87416697508023 6.0
vertex 4.33646475863328 2.74429642582421 6.0
endloop
endfacet
facet normal 0.0 0.0 1.0
outer loop
vertex 2.74429642582421 3.66353524136672 6.0
vertex 2.74429642582421 4.33646475863328 6.0
vertex 2.7 4.0 6.0
endloop
endfacet
facet normal 0.0 0.0 1.0
outer loop
vertex 2.74429642582421 4.33646475863328 6.0
vertex 2.74429642582421 3.66353524136672 6.0
vertex 2.87416697508023 3.35 6.0
endloop
endfacet
facet normal 0.0 0.0 1.0
outer loop
vertex 2.74429642582421 4.33646475863328 6.0
vertex 2.87416697508023 3.35 6.0
vertex 2.87416697508023 4.65 6.0
endloop
endfacet
facet normal 0.0 0.0 1.0
outer loop
vertex 2.87416697508023 4.65 6.0
vertex 2.87416697508023 3.35 6.0
vertex 3.08076118445749 4.91923881554251 6.0
endloop
endfacet
facet normal 0.0 0.0 1.0
outer loop
vertex 3.08076118445749 4.91923881554251 6.0
vertex 2.87416697508023 3.35 6.0
vertex 3.08076118445749 3.08076118445749 6.0
endloop
endfacet
facet normal 0.0 0.0 1.0
outer loop
vertex 3.08076118445749 4.91923881554251 6.0
vertex 3.08076118445749 3.08076118445749 6.0
vertex 3.35 2.87416697508023 6.0
endloop
endfacet
facet normal 0.0 0.0 1.0
outer loop
vertex 3.08076118445749 4.91923881554251 6.0
vertex 3.35 2.87416697508023 6.0
vertex 3.35 5.12583302491977 6.0
endloop
endfacet
facet normal 0.0 0.0 1.0
outer loop
vertex 3.35 5.12583302491977 6.0
vertex 3.35 2.87416697508023 6.0
vertex 3.66353524136672 5.25570357417579 6.0
endloop
endfacet
facet normal 0.0 0.0 1.0
outer loop
vertex 3.66353524136672 5.25570357417579 6.0
vertex 3.35 2.87416697508023 6.0
vertex 3.66353524136672 2.74429642582421 6.0
endloop
endfacet
facet normal 0.0 0.0 1.0
outer loop
vertex 3.66353524136672 5.25570357417579 6.0
vertex 3.66353524136672 2.74429642582421 6.0
vertex 4.0 5.3 6.0
endloop
endfacet
facet normal 0.0 0.0 1.0
outer loop
vertex 4.0 5.3 6.0
vertex 3.66353524136672 2.74429642582421 6.0
vertex 4.0 2.7 6.0
endloop
endfacet
facet normal 0.0 0.0 1.0
outer loop
vertex 4.0 5.3 6.0
vertex 4.0 2.7 6.0
vertex 4.33646475863328 2.74429642582421 6.0
endloop
endfacet
facet normal 0.0 0.0 1.0
outer loop
vertex 4.0 5.3 6.0
vertex 4.33646475863328 2.74429642582421 6.0
vertex 4.33646475863327 5.25570357417579 6.0
endloop
endfacet
facet normal 0.0 0.0 1.0
outer loop
vertex 4.33646475863327 5.25570357417579 6.0
vertex 4.33646475863328 2.74429642582421 6.0
vertex 4.65 5.12583302491977 6.0
endloop
endfacet
facet normal 0.0 0.0 1.0
outer loop
vertex 4.65 5.12583302491977 6.0
vertex 4.33646475863328 2.74429642582421 6.0
vertex 4.65 2.87416697508023 6.0
endloop
endfacet
facet normal 0.0 0.0 1.0
outer loop
vertex 4.65 5.12583302491977 6.0
vertex 4.65 2.87416697508023 6.0
vertex 4.91923881554251 4.91923881554251 6.0
endloop
endfacet
facet normal 0.0 0.0 1.0
outer loop
vertex 4.91923881554251 4.91923881554251 6.0
vertex 4.65 2.87416697508023 6.0
vertex 4.91923881554251 3.08076118445749 6.0
endloop
endfacet
facet normal 0.0 0.0 1.0
outer loop
vertex 4.91923881554251 4.91923881554251 6.0
vertex 4.91923881554251 3.08076118445749 6.0
vertex 5.12583302491977 4.65 6.0
endloop
endfacet
facet normal 0.0 0.0 1.0
outer loop
vertex 5.12583302491977 4.65 6.0
vertex 4.91923881554251 3.08076118445749 6.0
vertex 5.12583302491977 3.35 6.0
endloop
endfacet
facet normal 0.0 0.0 1.0
outer loop
vertex 5.12583302491977 4.65 6.0
vertex 5.12583302491977 3.35 6.0
vertex 5.25570357417579 3.66353524136672 6.0
endloop
endfacet
facet normal 0.0 0.0 1.0
outer loop
vertex 5.12583302491977 4.65 6.0
vertex 5.25570357417579 3.66353524136672 6.0
vertex 5.25570357417579 4.33646475863328 6.0
endloop
endfacet
facet normal 0.0 0.0 1.0
outer loop
vertex 5.25570357417579 4.33646475863328 6.0
vertex 5.25570357417579 3.66353524136672 6.0
vertex 5.3 4.0 6.0
endloop
endfacet
facet normal 1.0 -1.42577758330351e-016 0.0
outer loop
vertex 5.3 4.0 2.0
vertex 5.25570357417579 3.66353524136672 6.0
vertex 5.25570357417579 3.66353524136672 2.0
endloop
endfacet
facet normal 0.965925826289068 -0.258819045102521 0.0
outer loop
vertex 5.25570357417579 3.66353524136672 6.0
vertex 5.3 4.0 2.0
vertex 5.3 4.0 6.0
endloop
endfacet
facet normal 0.25881904510252 0.965925826289068 0.0
outer loop
vertex 4.33646475863327 5.25570357417579 6.0
vertex 4.65 5.12583302491977 2.0
vertex 4.33646475863327 5.25570357417579 2.0
endloop
endfacet
facet normal 0.5 0.866025403784439 0.0
outer loop
vertex 4.65 5.12583302491977 2.0
vertex 4.33646475863327 5.25570357417579 6.0
vertex 4.65 5.12583302491977 6.0
endloop
endfacet
facet normal -0.5 -0.866025403784439 0.0
outer loop
vertex 3.35 2.87416697508023 6.0
vertex 3.08076118445749 3.08076118445749 2.0
vertex 3.35 2.87416697508023 2.0
endloop
endfacet
facet normal -0.707106781186547 -0.707106781186548 0.0
outer loop
vertex 3.08076118445749 3.08076118445749 2.0
vertex 3.35 2.87416697508023 6.0
vertex 3.08076118445749 3.08076118445749 6.0
endloop
endfacet
facet normal -7.39622121338693e-016 1.0 0.0
outer loop
vertex 4.0 5.3 6.0
vertex 4.33646475863327 5.25570357417579 2.0
vertex 4.0 5.3 2.0
endloop
endfacet
facet normal 0.25881904510252 0.965925826289068 0.0
outer loop
vertex 4.33646475863327 5.25570357417579 2.0
vertex 4.0 5.3 6.0
vertex 4.33646475863327 5.25570357417579 6.0
endloop
endfacet
facet normal 0.0 0.122391918548252 0.992481847831021
outer loop
vertex 48.0 14.7760808145175 7.07518152168979
vertex 46.0 17.3865168908239 7.09658791569996
vertex 46.0 14.7760808145175 7.07518152168979
endloop
endfacet
facet normal 0.0 -0.138651689082385 0.990341208430004
outer loop
vertex 46.0 17.3865168908239 7.09658791569996
vertex 48.0 14.7760808145175 7.07518152168979
vertex 48.0 17.3865168908239 7.09658791569996
endloop
endfacet
facet normal 0.0 -0.373109131808028 0.927787462602001
outer loop
vertex -1.0 18.7310913180803 7.72212537397999
vertex -3.0 21.0052481156641 9.00393877779108
vertex -3.0 18.7310913180803 7.72212537397999
endloop
endfacet
facet normal 0.0 -0.600524811566406 0.799606122220892
outer loop
vertex -3.0 21.0052481156641 9.00393877779108
vertex -1.0 18.7310913180803 7.72212537397999
vertex -1.0 21.0052481156641 9.00393877779108
endloop
endfacet
facet normal -1.56648464985051e-032 0.99274162064806 0.120266681308925
outer loop
vertex -3.0 5.07258379351939 15.7973331869108
vertex -1.0 5.72212537397998 13.2689086819197
vertex -3.0 5.72212537397998 13.2689086819197
endloop
endfacet
facet normal 0.0 0.927787462602001 0.373109131808027
outer loop
vertex -1.0 5.72212537397998 13.2689086819197
vertex -3.0 5.07258379351939 15.7973331869108
vertex -1.0 5.07258379351939 15.7973331869108
endloop
endfacet
facet normal 0.0 0.799606122220892 0.600524811566407
outer loop
vertex -3.0 7.00393877779108 10.9947518843359
vertex -1.0 8.83067053977976 9.12984282169291
vertex -3.0 8.83067053977976 9.12984282169291
endloop
endfacet
facet normal 0.0 0.616932946022024 0.787015717830709
outer loop
vertex -1.0 8.83067053977976 9.12984282169291
vertex -3.0 7.00393877779108 10.9947518843359
vertex -1.0 7.00393877779108 10.9947518843359
endloop
endfacet
facet normal 0.0 -0.919872803529817 0.392216809081654
outer loop
vertex -1.0 24.1987280352982 13.0778319091835
vertex -3.0 22.8701571783071 10.8306705397798
vertex -1.0 22.8701571783071 10.8306705397798
endloop
endfacet
facet normal 0.0 -0.787015717830709 0.616932946022024
outer loop
vertex -3.0 22.8701571783071 10.8306705397798
vertex -1.0 24.1987280352982 13.0778319091835
vertex -3.0 24.1987280352982 13.0778319091835
endloop
endfacet
facet normal 0.0 -0.120266681308925 0.99274162064806
outer loop
vertex -1.0 16.2026668130893 7.07258379351939
vertex -3.0 18.7310913180803 7.72212537397999
vertex -3.0 16.2026668130893 7.07258379351939
endloop
endfacet
facet normal 0.0 -0.373109131808028 0.927787462602001
outer loop
vertex -3.0 18.7310913180803 7.72212537397999
vertex -1.0 16.2026668130893 7.07258379351939
vertex -1.0 18.7310913180803 7.72212537397999
endloop
endfacet
facet normal 0.0 0.392216809081654 0.919872803529817
outer loop
vertex -1.0 11.0778319091835 7.80127196470183
vertex -3.0 13.5922825522871 7.09957922169948
vertex -3.0 11.0778319091835 7.80127196470183
endloop
endfacet
facet normal 0.0 0.140771744771292 0.990042077830052
outer loop
vertex -3.0 13.5922825522871 7.09957922169948
vertex -1.0 11.0778319091835 7.80127196470183
vertex -1.0 13.5922825522871 7.09957922169948
endloop
endfacet
facet normal 7.23161011785716e-020 -0.992481847831021 0.122391918548252
outer loop
vertex 48.0 25.9248184783102 15.7760808145175
vertex 46.0 25.2698648945616 13.2490528080797
vertex 48.0 25.2698648945616 13.2490528080797
endloop
endfacet
facet normal 0.0 -0.926986489456157 0.375094719192034
outer loop
vertex 46.0 25.2698648945616 13.2490528080797
vertex 48.0 25.9248184783102 15.7760808145175
vertex 46.0 25.9248184783102 15.7760808145175
endloop
endfacet
facet normal 0.0 -0.79831853374246 0.602235434596212
outer loop
vertex 48.0 23.9831853374246 10.9776456540379
vertex 46.0 22.1524648923797 9.11665199626229
vertex 48.0 22.1524648923797 9.11665199626229
endloop
endfacet
facet normal 0.0 -0.615246489237969 0.788334800373771
outer loop
vertex 46.0 22.1524648923797 9.11665199626229
vertex 48.0 23.9831853374246 10.9776456540379
vertex 46.0 23.9831853374246 10.9776456540379
endloop
endfacet
facet normal 0.0 0.616932946022024 0.787015717830709
outer loop
vertex -1.0 8.83067053977976 9.12984282169291
vertex -3.0 11.0778319091835 7.80127196470183
vertex -3.0 8.83067053977976 9.12984282169291
endloop
endfacet
facet normal 0.0 0.392216809081654 0.919872803529817
outer loop
vertex -3.0 11.0778319091835 7.80127196470183
vertex -1.0 8.83067053977976 9.12984282169291
vertex -1.0 11.0778319091835 7.80127196470183
endloop
endfacet
facet normal -3.20183932917045e-019 -0.990042077830052 0.140771744771293
outer loop
vertex -1.0 24.9004207783005 15.5922825522871
vertex -3.0 24.1987280352982 13.0778319091835
vertex -1.0 24.1987280352982 13.0778319091835
endloop
endfacet
facet normal 0.0 -0.919872803529817 0.392216809081654
outer loop
vertex -3.0 24.1987280352982 13.0778319091835
vertex -1.0 24.9004207783005 15.5922825522871
vertex -3.0 24.9004207783005 15.5922825522871
endloop
endfacet
facet normal 0.0 -0.390246413234808 0.920710452290712
outer loop
vertex 48.0 19.9024641323481 7.79289547709288
vertex 46.0 22.1524648923797 9.11665199626229
vertex 46.0 19.9024641323481 7.79289547709288
endloop
endfacet
facet normal 0.0 -0.615246489237969 0.788334800373771
outer loop
vertex 46.0 22.1524648923797 9.11665199626229
vertex 48.0 19.9024641323481 7.79289547709288
vertex 48.0 22.1524648923797 9.11665199626229
endloop
endfacet
facet normal 0.0 0.375094719192035 0.926986489456156
outer loop
vertex 48.0 12.2490528080797 7.73013510543844
vertex 46.0 14.7760808145175 7.07518152168979
vertex 46.0 12.2490528080797 7.73013510543844
endloop
endfacet
facet normal 0.0 0.122391918548252 0.992481847831021
outer loop
vertex 46.0 14.7760808145175 7.07518152168979
vertex 48.0 12.2490528080797 7.73013510543844
vertex 48.0 14.7760808145175 7.07518152168979
endloop
endfacet
facet normal 0.0 0.788334800373771 0.615246489237969
outer loop
vertex 48.0 8.11665199626229 10.8475351076203
vertex 46.0 9.97764565403787 9.0168146625754
vertex 46.0 8.11665199626229 10.8475351076203
endloop
endfacet
facet normal 0.0 0.602235434596213 0.79831853374246
outer loop
vertex 46.0 9.97764565403787 9.0168146625754
vertex 48.0 8.11665199626229 10.8475351076203
vertex 48.0 9.97764565403787 9.0168146625754
endloop
endfacet
facet normal 0.866025403784439 -0.5 0.0
outer loop
vertex 5.12583302491977 3.35 2.0
vertex 4.91923881554251 3.08076118445749 6.0
vertex 4.91923881554251 3.08076118445749 2.0
endloop
endfacet
facet normal 0.707106781186548 -0.707106781186547 0.0
outer loop
vertex 4.91923881554251 3.08076118445749 6.0
vertex 5.12583302491977 3.35 2.0
vertex 5.12583302491977 3.35 6.0
endloop
endfacet
facet normal -6.34889429970122e-019 -0.999946530425625 0.0103410004233395
outer loop
vertex -1.0 24.9149787634325 17.0
vertex -3.0 24.9004207783005 15.5922825522871
vertex -1.0 24.9004207783005 15.5922825522871
endloop
endfacet
facet normal -3.20183932917045e-019 -0.990042077830052 0.140771744771293
outer loop
vertex -3.0 24.9004207783005 15.5922825522871
vertex -1.0 24.9149787634325 17.0
vertex -3.0 24.9149787634325 17.0
endloop
endfacet
facet normal -3.26042149518173e-032 0.99996637912546 0.00820003772655792
outer loop
vertex 46.0 6.08521804262162 17.0
vertex 48.0 6.09658791569996 15.6134831091761
vertex 46.0 6.09658791569996 15.6134831091761
endloop
endfacet
facet normal -1.64427777186917e-032 0.990341208430004 0.138651689082386
outer loop
vertex 48.0 6.09658791569996 15.6134831091761
vertex 46.0 6.08521804262162 17.0
vertex 48.0 6.08521804262162 17.0
endloop
endfacet
facet normal 0.0 0.0 1.0
outer loop
vertex -3.0 -4.0 17.0
vertex -1.0 -2.0 17.0
vertex -3.0 5.08502123656747 17.0
endloop
endfacet
facet normal 0.0 0.0 1.0
outer loop
vertex -1.0 -2.0 17.0
vertex -3.0 -4.0 17.0
vertex 48.0 -4.0 17.0
endloop
endfacet
facet normal 0.0 0.0 1.0
outer loop
vertex -1.0 -2.0 17.0
vertex 48.0 -4.0 17.0
vertex 46.0 -2.0 17.0
endloop
endfacet
facet normal 0.0 0.0 1.0
outer loop
vertex 46.0 -2.0 17.0
vertex 48.0 -4.0 17.0
vertex 46.0 6.08521804262162 17.0
endloop
endfacet
facet normal 0.0 0.0 1.0
outer loop
vertex 46.0 6.08521804262162 17.0
vertex 48.0 -4.0 17.0
vertex 48.0 6.08521804262162 17.0
endloop
endfacet
facet normal 0.0 0.0 1.0
outer loop
vertex -1.0 5.08502123656747 17.0
vertex -3.0 5.08502123656747 17.0
vertex -1.0 -2.0 17.0
endloop
endfacet
facet normal 0.0 0.927787462602001 0.373109131808027
outer loop
vertex -3.0 5.72212537397998 13.2689086819197
vertex -1.0 7.00393877779108 10.9947518843359
vertex -3.0 7.00393877779108 10.9947518843359
endloop
endfacet
facet normal 0.0 0.799606122220892 0.600524811566407
outer loop
vertex -1.0 7.00393877779108 10.9947518843359
vertex -3.0 5.72212537397998 13.2689086819197
vertex -1.0 5.72212537397998 13.2689086819197
endloop
endfacet
facet normal -3.10616631303049e-032 0.999946530425625 -0.0103410004233375
outer loop
vertex -3.0 5.08502123656747 17.0
vertex -1.0 5.07258379351939 15.7973331869108
vertex -3.0 5.07258379351939 15.7973331869108
endloop
endfacet
facet normal -1.56648464985051e-032 0.99274162064806 0.120266681308925
outer loop
vertex -1.0 5.07258379351939 15.7973331869108
vertex -3.0 5.08502123656747 17.0
vertex -1.0 5.08502123656747 17.0
endloop
endfacet
facet normal 0.0 -0.600524811566406 0.799606122220892
outer loop
vertex -1.0 21.0052481156641 9.00393877779108
vertex -3.0 22.8701571783071 10.8306705397798
vertex -3.0 21.0052481156641 9.00393877779108
endloop
endfacet
facet normal 0.0 -0.787015717830709 0.616932946022024
outer loop
vertex -3.0 22.8701571783071 10.8306705397798
vertex -1.0 21.0052481156641 9.00393877779108
vertex -1.0 22.8701571783071 10.8306705397798
endloop
endfacet
facet normal 0.0 0.602235434596213 0.79831853374246
outer loop
vertex 48.0 9.97764565403787 9.0168146625754
vertex 46.0 12.2490528080797 7.73013510543844
vertex 46.0 9.97764565403787 9.0168146625754
endloop
endfacet
facet normal 0.0 0.375094719192035 0.926986489456156
outer loop
vertex 46.0 12.2490528080797 7.73013510543844
vertex 48.0 9.97764565403787 9.0168146625754
vertex 48.0 12.2490528080797 7.73013510543844
endloop
endfacet
facet normal -1.64427777186917e-032 0.990341208430004 0.138651689082386
outer loop
vertex 46.0 6.09658791569996 15.6134831091761
vertex 48.0 6.79289547709288 13.0975358676519
vertex 46.0 6.79289547709288 13.0975358676519
endloop
endfacet
facet normal 0.0 0.920710452290712 0.390246413234808
outer loop
vertex 48.0 6.79289547709288 13.0975358676519
vertex 46.0 6.09658791569996 15.6134831091761
vertex 48.0 6.09658791569996 15.6134831091761
endloop
endfacet
facet normal 0.0 -0.926986489456157 0.375094719192034
outer loop
vertex 48.0 25.2698648945616 13.2490528080797
vertex 46.0 23.9831853374246 10.9776456540379
vertex 48.0 23.9831853374246 10.9776456540379
endloop
endfacet
facet normal 0.0 -0.79831853374246 0.602235434596212
outer loop
vertex 46.0 23.9831853374246 10.9776456540379
vertex 48.0 25.2698648945616 13.2490528080797
vertex 46.0 25.2698648945616 13.2490528080797
endloop
endfacet
facet normal 0.965925826289068 -0.258819045102521 0.0
outer loop
vertex 5.25570357417579 3.66353524136672 2.0
vertex 5.12583302491977 3.35 6.0
vertex 5.12583302491977 3.35 2.0
endloop
endfacet
facet normal 0.866025403784439 -0.5 0.0
outer loop
vertex 5.12583302491977 3.35 6.0
vertex 5.25570357417579 3.66353524136672 2.0
vertex 5.25570357417579 3.66353524136672 6.0
endloop
endfacet
facet normal 0.0 0.0 1.0
outer loop
vertex 48.0 25.9147819573784 17.0
vertex 46.0 33.0 17.0
vertex 46.0 25.9147819573784 17.0
endloop
endfacet
facet normal 0.0 0.0 1.0
outer loop
vertex -1.0 24.9149787634325 17.0
vertex -3.0 35.0 17.0
vertex -3.0 24.9149787634325 17.0
endloop
endfacet
facet normal 0.0 0.0 1.0
outer loop
vertex -3.0 35.0 17.0
vertex -1.0 24.9149787634325 17.0
vertex -1.0 33.0 17.0
endloop
endfacet
facet normal 0.0 0.0 1.0
outer loop
vertex -3.0 35.0 17.0
vertex -1.0 33.0 17.0
vertex 48.0 35.0 17.0
endloop
endfacet
facet normal 0.0 0.0 1.0
outer loop
vertex 48.0 35.0 17.0
vertex -1.0 33.0 17.0
vertex 46.0 33.0 17.0
endloop
endfacet
facet normal 0.0 0.0 1.0
outer loop
vertex 48.0 35.0 17.0
vertex 46.0 33.0 17.0
vertex 48.0 25.9147819573784 17.0
endloop
endfacet
facet normal 0.0 -1.0 0.0
outer loop
vertex 46.0 33.0 17.0
vertex -1.0 33.0 2.0
vertex 46.0 33.0 2.0
endloop
endfacet
facet normal 0.0 -1.0 0.0
outer loop
vertex -1.0 33.0 2.0
vertex 46.0 33.0 17.0
vertex -1.0 33.0 17.0
endloop
endfacet
facet normal 0.0 0.140771744771292 0.990042077830052
outer loop
vertex -1.0 13.5922825522871 7.09957922169948
vertex -3.0 16.2026668130893 7.07258379351939
vertex -3.0 13.5922825522871 7.09957922169948
endloop
endfacet
facet normal 0.0 -0.120266681308925 0.99274162064806
outer loop
vertex -3.0 16.2026668130893 7.07258379351939
vertex -1.0 13.5922825522871 7.09957922169948
vertex -1.0 16.2026668130893 7.07258379351939
endloop
endfacet
facet normal 1.43394853816167e-019 -0.99996637912546 -0.00820003772655845
outer loop
vertex 48.0 25.9147819573784 17.0
vertex 46.0 25.9248184783102 15.7760808145175
vertex 48.0 25.9248184783102 15.7760808145175
endloop
endfacet
facet normal 7.23161011785716e-020 -0.992481847831021 0.122391918548252
outer loop
vertex 46.0 25.9248184783102 15.7760808145175
vertex 48.0 25.9147819573784 17.0
vertex 46.0 25.9147819573784 17.0
endloop
endfacet
facet normal 0.0 -0.138651689082385 0.990341208430004
outer loop
vertex 48.0 17.3865168908239 7.09658791569996
vertex 46.0 19.9024641323481 7.79289547709288
vertex 46.0 17.3865168908239 7.09658791569996
endloop
endfacet
facet normal 0.0 -0.390246413234808 0.920710452290712
outer loop
vertex 46.0 19.9024641323481 7.79289547709288
vertex 48.0 17.3865168908239 7.09658791569996
vertex 48.0 19.9024641323481 7.79289547709288
endloop
endfacet
facet normal 0.0 0.920710452290712 0.390246413234808
outer loop
vertex 46.0 6.79289547709288 13.0975358676519
vertex 48.0 8.11665199626229 10.8475351076203
vertex 46.0 8.11665199626229 10.8475351076203
endloop
endfacet
facet normal 0.0 0.788334800373771 0.615246489237969
outer loop
vertex 48.0 8.11665199626229 10.8475351076203
vertex 46.0 6.79289547709288 13.0975358676519
vertex 48.0 6.79289547709288 13.0975358676519
endloop
endfacet
facet normal -1.0 0.0 0.0
outer loop
vertex 46.0 33.0 17.0
vertex 46.0 25.9248184783102 15.7760808145175
vertex 46.0 25.9147819573784 17.0
endloop
endfacet
facet normal -1.0 0.0 0.0
outer loop
vertex 46.0 6.08521804262162 17.0
vertex 46.0 -2.0 2.0
vertex 46.0 -2.0 17.0
endloop
endfacet
facet normal -1.0 0.0 0.0
outer loop
vertex 46.0 -2.0 2.0
vertex 46.0 6.08521804262162 17.0
vertex 46.0 6.09658791569996 15.6134831091761
endloop
endfacet
facet normal -1.0 0.0 0.0
outer loop
vertex 46.0 -2.0 2.0
vertex 46.0 6.09658791569996 15.6134831091761
vertex 46.0 6.79289547709288 13.0975358676519
endloop
endfacet
facet normal -1.0 0.0 0.0
outer loop
vertex 46.0 -2.0 2.0
vertex 46.0 6.79289547709288 13.0975358676519
vertex 46.0 8.11665199626229 10.8475351076203
endloop
endfacet
facet normal -1.0 0.0 0.0
outer loop
vertex 46.0 -2.0 2.0
vertex 46.0 8.11665199626229 10.8475351076203
vertex 46.0 9.97764565403787 9.0168146625754
endloop
endfacet
facet normal -1.0 0.0 0.0
outer loop
vertex 46.0 -2.0 2.0
vertex 46.0 9.97764565403787 9.0168146625754
vertex 46.0 12.2490528080797 7.73013510543844
endloop
endfacet
facet normal -1.0 0.0 0.0
outer loop
vertex 46.0 -2.0 2.0
vertex 46.0 12.2490528080797 7.73013510543844
vertex 46.0 33.0 2.0
endloop
endfacet
facet normal -1.0 0.0 0.0
outer loop
vertex 46.0 33.0 2.0
vertex 46.0 12.2490528080797 7.73013510543844
vertex 46.0 14.7760808145175 7.07518152168979
endloop
endfacet
facet normal -1.0 0.0 0.0
outer loop
vertex 46.0 33.0 2.0
vertex 46.0 14.7760808145175 7.07518152168979
vertex 46.0 17.3865168908239 7.09658791569996
endloop
endfacet
facet normal -1.0 0.0 0.0
outer loop
vertex 46.0 33.0 2.0
vertex 46.0 17.3865168908239 7.09658791569996
vertex 46.0 19.9024641323481 7.79289547709288
endloop
endfacet
facet normal -1.0 0.0 0.0
outer loop
vertex 46.0 33.0 2.0
vertex 46.0 19.9024641323481 7.79289547709288
vertex 46.0 22.1524648923797 9.11665199626229
endloop
endfacet
facet normal -1.0 0.0 0.0
outer loop
vertex 46.0 33.0 2.0
vertex 46.0 22.1524648923797 9.11665199626229
vertex 46.0 23.9831853374246 10.9776456540379
endloop
endfacet
facet normal -1.0 0.0 0.0
outer loop
vertex 46.0 33.0 2.0
vertex 46.0 23.9831853374246 10.9776456540379
vertex 46.0 25.2698648945616 13.2490528080797
endloop
endfacet
facet normal -1.0 0.0 0.0
outer loop
vertex 46.0 33.0 2.0
vertex 46.0 25.2698648945616 13.2490528080797
vertex 46.0 25.9248184783102 15.7760808145175
endloop
endfacet
facet normal -1.0 0.0 0.0
outer loop
vertex 46.0 33.0 2.0
vertex 46.0 25.9248184783102 15.7760808145175
vertex 46.0 33.0 17.0
endloop
endfacet
facet normal -0.500000000000001 -0.866025403784438 0.0
outer loop
vertex 40.35 2.87416697508023 6.0
vertex 40.0807611844575 3.08076118445749 2.0
vertex 40.35 2.87416697508023 2.0
endloop
endfacet
facet normal -0.707106781186545 -0.70710678118655 0.0
outer loop
vertex 40.0807611844575 3.08076118445749 2.0
vertex 40.35 2.87416697508023 6.0
vertex 40.0807611844575 3.08076118445749 6.0
endloop
endfacet
facet normal -0.965925826289069 -0.258819045102518 0.0
outer loop
vertex 39.7442964258242 3.66353524136672 6.0
vertex 39.8741669750802 3.35 2.0
vertex 39.8741669750802 3.35 6.0
endloop
endfacet
facet normal -0.866025403784438 -0.500000000000001 0.0
outer loop
vertex 39.8741669750802 3.35 2.0
vertex 39.7442964258242 3.66353524136672 6.0
vertex 39.7442964258242 3.66353524136672 2.0
endloop
endfacet
facet normal -0.965925826289069 0.258819045102518 0.0
outer loop
vertex 39.7442964258242 4.33646475863328 6.0
vertex 39.7 4.0 2.0
vertex 39.7 4.0 6.0
endloop
endfacet
facet normal -1.0 1.33666648434704e-016 0.0
outer loop
vertex 39.7 4.0 2.0
vertex 39.7442964258242 4.33646475863328 6.0
vertex 39.7442964258242 4.33646475863328 2.0
endloop
endfacet
facet normal -1.0 1.33666648434704e-016 0.0
outer loop
vertex 39.7 4.0 6.0
vertex 39.7442964258242 3.66353524136672 2.0
vertex 39.7442964258242 3.66353524136672 6.0
endloop
endfacet
facet normal -0.965925826289069 -0.258819045102518 0.0
outer loop
vertex 39.7442964258242 3.66353524136672 2.0
vertex 39.7 4.0 6.0
vertex 39.7 4.0 2.0
endloop
endfacet
facet normal -1.0 0.0 0.0
outer loop
vertex -3.0 5.08502123656747 17.0
vertex -3.0 -4.0 0.0
vertex -3.0 -4.0 17.0
endloop
endfacet
facet normal -1.0 0.0 0.0
outer loop
vertex -3.0 -4.0 0.0
vertex -3.0 5.08502123656747 17.0
vertex -3.0 5.07258379351939 15.7973331869108
endloop
endfacet
facet normal -1.0 0.0 0.0
outer loop
vertex -3.0 -4.0 0.0
vertex -3.0 11.0778319091835 7.80127196470183
vertex -3.0 35.0 0.0
endloop
endfacet
facet normal -1.0 0.0 0.0
outer loop
vertex -3.0 11.0778319091835 7.80127196470183
vertex -3.0 -4.0 0.0
vertex -3.0 8.83067053977976 9.12984282169291
endloop
endfacet
facet normal -1.0 0.0 0.0
outer loop
vertex -3.0 8.83067053977976 9.12984282169291
vertex -3.0 -4.0 0.0
vertex -3.0 7.00393877779108 10.9947518843359
endloop
endfacet
facet normal -1.0 0.0 0.0
outer loop
vertex -3.0 7.00393877779108 10.9947518843359
vertex -3.0 -4.0 0.0
vertex -3.0 5.72212537397998 13.2689086819197
endloop
endfacet
facet normal -1.0 0.0 0.0
outer loop
vertex -3.0 5.72212537397998 13.2689086819197
vertex -3.0 -4.0 0.0
vertex -3.0 5.07258379351939 15.7973331869108
endloop
endfacet
facet normal -1.0 0.0 0.0
outer loop
vertex -3.0 35.0 0.0
vertex -3.0 11.0778319091835 7.80127196470183
vertex -3.0 13.5922825522871 7.09957922169948
endloop
endfacet
facet normal -1.0 0.0 0.0
outer loop
vertex -3.0 35.0 0.0
vertex -3.0 13.5922825522871 7.09957922169948
vertex -3.0 16.2026668130893 7.07258379351939
endloop
endfacet
facet normal -1.0 0.0 0.0
outer loop
vertex -3.0 35.0 0.0
vertex -3.0 16.2026668130893 7.07258379351939
vertex -3.0 18.7310913180803 7.72212537397999
endloop
endfacet
facet normal -1.0 0.0 0.0
outer loop
vertex -3.0 35.0 0.0
vertex -3.0 18.7310913180803 7.72212537397999
vertex -3.0 21.0052481156641 9.00393877779108
endloop
endfacet
facet normal -1.0 0.0 0.0
outer loop
vertex -3.0 35.0 0.0
vertex -3.0 21.0052481156641 9.00393877779108
vertex -3.0 22.8701571783071 10.8306705397798
endloop
endfacet
facet normal -1.0 0.0 0.0
outer loop
vertex -3.0 35.0 0.0
vertex -3.0 22.8701571783071 10.8306705397798
vertex -3.0 24.1987280352982 13.0778319091835
endloop
endfacet
facet normal -1.0 0.0 0.0
outer loop
vertex -3.0 35.0 0.0
vertex -3.0 24.1987280352982 13.0778319091835
vertex -3.0 24.9004207783005 15.5922825522871
endloop
endfacet
facet normal -1.0 0.0 0.0
outer loop
vertex -3.0 35.0 0.0
vertex -3.0 24.9004207783005 15.5922825522871
vertex -3.0 24.9149787634325 17.0
endloop
endfacet
facet normal -1.0 0.0 0.0
outer loop
vertex -3.0 35.0 0.0
vertex -3.0 24.9149787634325 17.0
vertex -3.0 35.0 17.0
endloop
endfacet
facet normal -0.866025403784438 -0.500000000000001 0.0
outer loop
vertex 39.8741669750802 3.35 6.0
vertex 40.0807611844575 3.08076118445749 2.0
vertex 40.0807611844575 3.08076118445749 6.0
endloop
endfacet
facet normal -0.707106781186545 -0.70710678118655 0.0
outer loop
vertex 40.0807611844575 3.08076118445749 2.0
vertex 39.8741669750802 3.35 6.0
vertex 39.8741669750802 3.35 2.0
endloop
endfacet
facet normal 0.965925826289069 0.258819045102518 0.0
outer loop
vertex 42.2557035741758 4.33646475863328 2.0
vertex 42.3 4.0 6.0
vertex 42.3 4.0 2.0
endloop
endfacet
facet normal 1.0 -1.4257775833035e-016 0.0
outer loop
vertex 42.3 4.0 6.0
vertex 42.2557035741758 4.33646475863328 2.0
vertex 42.2557035741758 4.33646475863328 6.0
endloop
endfacet
facet normal 0.0 0.0 -1.0
outer loop
vertex 48.0 35.0 0.0
vertex -3.0 -4.0 0.0
vertex -3.0 35.0 0.0
endloop
endfacet
facet normal 0.0 0.0 -1.0
outer loop
vertex -3.0 -4.0 0.0
vertex 48.0 35.0 0.0
vertex 48.0 -4.0 0.0
endloop
endfacet
facet normal 0.707106781186546 -0.707106781186549 0.0
outer loop
vertex 41.9192388155425 3.08076118445749 6.0
vertex 41.65 2.87416697508023 2.0
vertex 41.9192388155425 3.08076118445749 2.0
endloop
endfacet
facet normal 0.5 -0.866025403784438 0.0
outer loop
vertex 41.65 2.87416697508023 2.0
vertex 41.9192388155425 3.08076118445749 6.0
vertex 41.65 2.87416697508023 6.0
endloop
endfacet
facet normal 1.0 -6.8532892639546e-020 5.87378795709746e-018
outer loop
vertex -1.0 -2.0 2.0
vertex -1.0 8.83067053977976 9.12984282169291
vertex -1.0 -2.0 17.0
endloop
endfacet
facet normal 1.0 -6.8532892639546e-020 5.87378795709746e-018
outer loop
vertex -1.0 8.83067053977976 9.12984282169291
vertex -1.0 -2.0 2.0
vertex -1.0 11.0778319091835 7.80127196470183
endloop
endfacet
facet normal 1.0 -6.8532892639546e-020 5.87378795709746e-018
outer loop
vertex -1.0 11.0778319091835 7.80127196470183
vertex -1.0 -2.0 2.0
vertex -1.0 13.5922825522871 7.09957922169948
endloop
endfacet
facet normal 1.0 -6.8532892639546e-020 5.87378795709746e-018
outer loop
vertex -1.0 13.5922825522871 7.09957922169948
vertex -1.0 -2.0 2.0
vertex -1.0 33.0 2.0
endloop
endfacet
facet normal 1.0 -6.8532892639546e-020 5.87378795709746e-018
outer loop
vertex -1.0 -2.0 17.0
vertex -1.0 8.83067053977976 9.12984282169291
vertex -1.0 7.00393877779108 10.9947518843359
endloop
endfacet
facet normal 1.0 -6.8532892639546e-020 5.87378795709746e-018
outer loop
vertex -1.0 -2.0 17.0
vertex -1.0 7.00393877779108 10.9947518843359
vertex -1.0 5.72212537397998 13.2689086819197
endloop
endfacet
facet normal 1.0 -6.8532892639546e-020 5.87378795709746e-018
outer loop
vertex -1.0 -2.0 17.0
vertex -1.0 5.72212537397998 13.2689086819197
vertex -1.0 5.07258379351939 15.7973331869108
endloop
endfacet
facet normal 1.0 -6.8532892639546e-020 5.87378795709746e-018
outer loop
vertex -1.0 13.5922825522871 7.09957922169948
vertex -1.0 33.0 2.0
vertex -1.0 16.2026668130893 7.07258379351939
endloop
endfacet
facet normal 1.0 -6.8532892639546e-020 5.87378795709746e-018
outer loop
vertex -1.0 16.2026668130893 7.07258379351939
vertex -1.0 33.0 2.0
vertex -1.0 18.7310913180803 7.72212537397999
endloop
endfacet
facet normal 1.0 -6.8532892639546e-020 5.87378795709746e-018
outer loop
vertex -1.0 18.7310913180803 7.72212537397999
vertex -1.0 33.0 2.0
vertex -1.0 21.0052481156641 9.00393877779108
endloop
endfacet
facet normal 1.0 -6.8532892639546e-020 5.87378795709746e-018
outer loop
vertex -1.0 21.0052481156641 9.00393877779108
vertex -1.0 33.0 2.0
vertex -1.0 22.8701571783071 10.8306705397798
endloop
endfacet
facet normal 1.0 -6.8532892639546e-020 5.87378795709746e-018
outer loop
vertex -1.0 22.8701571783071 10.8306705397798
vertex -1.0 33.0 2.0
vertex -1.0 24.1987280352982 13.0778319091835
endloop
endfacet
facet normal 1.0 -6.8532892639546e-020 5.87378795709746e-018
outer loop
vertex -1.0 24.1987280352982 13.0778319091835
vertex -1.0 33.0 2.0
vertex -1.0 24.9004207783005 15.5922825522871
endloop
endfacet
facet normal 1.0 -6.8532892639546e-020 5.87378795709746e-018
outer loop
vertex -1.0 24.9004207783005 15.5922825522871
vertex -1.0 33.0 2.0
vertex -1.0 24.9149787634325 17.0
endloop
endfacet
facet normal 1.0 -6.8532892639546e-020 5.87378795709746e-018
outer loop
vertex -1.0 24.9149787634325 17.0
vertex -1.0 33.0 2.0
vertex -1.0 33.0 17.0
endloop
endfacet
facet normal 1.0 -6.8532892639546e-020 5.87378795709746e-018
outer loop
vertex -1.0 5.08502123656747 17.0
vertex -1.0 -2.0 17.0
vertex -1.0 5.07258379351939 15.7973331869108
endloop
endfacet
facet normal 1.0 0.0 0.0
outer loop
vertex 48.0 -4.0 0.0
vertex 48.0 9.97764565403787 9.0168146625754
vertex 48.0 -4.0 17.0
endloop
endfacet
facet normal 1.0 0.0 0.0
outer loop
vertex 48.0 9.97764565403787 9.0168146625754
vertex 48.0 -4.0 0.0
vertex 48.0 12.2490528080797 7.73013510543844
endloop
endfacet
facet normal 1.0 0.0 0.0
outer loop
vertex 48.0 12.2490528080797 7.73013510543844
vertex 48.0 -4.0 0.0
vertex 48.0 35.0 0.0
endloop
endfacet
facet normal 1.0 0.0 0.0
outer loop
vertex 48.0 -4.0 17.0
vertex 48.0 9.97764565403787 9.0168146625754
vertex 48.0 8.11665199626229 10.8475351076203
endloop
endfacet
facet normal 1.0 0.0 0.0
outer loop
vertex 48.0 -4.0 17.0
vertex 48.0 8.11665199626229 10.8475351076203
vertex 48.0 6.79289547709288 13.0975358676519
endloop
endfacet
facet normal 1.0 0.0 0.0
outer loop
vertex 48.0 -4.0 17.0
vertex 48.0 6.79289547709288 13.0975358676519
vertex 48.0 6.09658791569996 15.6134831091761
endloop
endfacet
facet normal 1.0 0.0 0.0
outer loop
vertex 48.0 -4.0 17.0
vertex 48.0 6.09658791569996 15.6134831091761
vertex 48.0 6.08521804262162 17.0
endloop
endfacet
facet normal 1.0 0.0 0.0
outer loop
vertex 48.0 12.2490528080797 7.73013510543844
vertex 48.0 35.0 0.0
vertex 48.0 14.7760808145175 7.07518152168979
endloop
endfacet
facet normal 1.0 0.0 0.0
outer loop
vertex 48.0 14.7760808145175 7.07518152168979
vertex 48.0 35.0 0.0
vertex 48.0 17.3865168908239 7.09658791569996
endloop
endfacet
facet normal 1.0 0.0 0.0
outer loop
vertex 48.0 17.3865168908239 7.09658791569996
vertex 48.0 35.0 0.0
vertex 48.0 19.9024641323481 7.79289547709288
endloop
endfacet
facet normal 1.0 0.0 0.0
outer loop
vertex 48.0 19.9024641323481 7.79289547709288
vertex 48.0 35.0 0.0
vertex 48.0 22.1524648923797 9.11665199626229
endloop
endfacet
facet normal 1.0 0.0 0.0
outer loop
vertex 48.0 22.1524648923797 9.11665199626229
vertex 48.0 35.0 0.0
vertex 48.0 23.9831853374246 10.9776456540379
endloop
endfacet
facet normal 1.0 0.0 0.0
outer loop
vertex 48.0 23.9831853374246 10.9776456540379
vertex 48.0 35.0 0.0
vertex 48.0 25.2698648945616 13.2490528080797
endloop
endfacet
facet normal 1.0 0.0 0.0
outer loop
vertex 48.0 25.2698648945616 13.2490528080797
vertex 48.0 35.0 0.0
vertex 48.0 25.9248184783102 15.7760808145175
endloop
endfacet
facet normal 1.0 0.0 0.0
outer loop
vertex 48.0 25.9248184783102 15.7760808145175
vertex 48.0 35.0 17.0
vertex 48.0 25.9147819573784 17.0
endloop
endfacet
facet normal 1.0 0.0 0.0
outer loop
vertex 48.0 35.0 17.0
vertex 48.0 25.9248184783102 15.7760808145175
vertex 48.0 35.0 0.0
endloop
endfacet
facet normal -0.0 -1.0 -0.0
outer loop
vertex 48.0 -4.0 17.0
vertex -3.0 -4.0 0.0
vertex 48.0 -4.0 0.0
endloop
endfacet
facet normal -0.0 -1.0 -0.0
outer loop
vertex -3.0 -4.0 0.0
vertex 48.0 -4.0 17.0
vertex -3.0 -4.0 17.0
endloop
endfacet
facet normal 1.0 -1.4257775833035e-016 0.0
outer loop
vertex 42.3 4.0 2.0
vertex 42.2557035741758 3.66353524136672 6.0
vertex 42.2557035741758 3.66353524136672 2.0
endloop
endfacet
facet normal 0.965925826289069 -0.258819045102518 0.0
outer loop
vertex 42.2557035741758 3.66353524136672 6.0
vertex 42.3 4.0 2.0
vertex 42.3 4.0 6.0
endloop
endfacet
facet normal 0.965925826289069 -0.258819045102518 0.0
outer loop
vertex 42.2557035741758 3.66353524136672 2.0
vertex 42.1258330249198 3.35 6.0
vertex 42.1258330249198 3.35 2.0
endloop
endfacet
facet normal 0.866025403784438 -0.500000000000001 0.0
outer loop
vertex 42.1258330249198 3.35 6.0
vertex 42.2557035741758 3.66353524136672 2.0
vertex 42.2557035741758 3.66353524136672 6.0
endloop
endfacet
facet normal 0.866025403784438 -0.500000000000001 0.0
outer loop
vertex 42.1258330249198 3.35 2.0
vertex 41.9192388155425 3.08076118445749 6.0
vertex 41.9192388155425 3.08076118445749 2.0
endloop
endfacet
facet normal 0.707106781186546 -0.707106781186549 0.0
outer loop
vertex 41.9192388155425 3.08076118445749 6.0
vertex 42.1258330249198 3.35 2.0
vertex 42.1258330249198 3.35 6.0
endloop
endfacet
facet normal 0.5 -0.866025403784438 0.0
outer loop
vertex 41.65 2.87416697508023 6.0
vertex 41.3364647586333 2.74429642582421 2.0
vertex 41.65 2.87416697508023 2.0
endloop
endfacet
facet normal 0.258819045102521 -0.965925826289068 0.0
outer loop
vertex 41.3364647586333 2.74429642582421 2.0
vertex 41.65 2.87416697508023 6.0
vertex 41.3364647586333 2.74429642582421 6.0
endloop
endfacet
facet normal 0.0 0.0 1.0
outer loop
vertex -1.0 -2.0 2.0
vertex 2.7 4.0 2.0
vertex -1.0 33.0 2.0
endloop
endfacet
facet normal 0.0 0.0 1.0
outer loop
vertex 2.7 4.0 2.0
vertex -1.0 -2.0 2.0
vertex 2.74429642582421 3.66353524136672 2.0
endloop
endfacet
facet normal 0.0 0.0 1.0
outer loop
vertex 2.74429642582421 3.66353524136672 2.0
vertex -1.0 -2.0 2.0
vertex 2.87416697508023 3.35 2.0
endloop
endfacet
facet normal 0.0 0.0 1.0
outer loop
vertex 2.87416697508023 3.35 2.0
vertex -1.0 -2.0 2.0
vertex 3.08076118445749 3.08076118445749 2.0
endloop
endfacet
facet normal 0.0 0.0 1.0
outer loop
vertex 3.08076118445749 3.08076118445749 2.0
vertex -1.0 -2.0 2.0
vertex 3.35 2.87416697508023 2.0
endloop
endfacet
facet normal 0.0 0.0 1.0
outer loop
vertex 3.35 2.87416697508023 2.0
vertex -1.0 -2.0 2.0
vertex 3.66353524136672 2.74429642582421 2.0
endloop
endfacet
facet normal 0.0 0.0 1.0
outer loop
vertex 3.66353524136672 2.74429642582421 2.0
vertex -1.0 -2.0 2.0
vertex 4.0 2.7 2.0
endloop
endfacet
facet normal 0.0 0.0 1.0
outer loop
vertex 4.0 2.7 2.0
vertex -1.0 -2.0 2.0
vertex 46.0 -2.0 2.0
endloop
endfacet
facet normal 0.0 0.0 1.0
outer loop
vertex 4.0 2.7 2.0
vertex 46.0 -2.0 2.0
vertex 4.33646475863328 2.74429642582421 2.0
endloop
endfacet
facet normal 0.0 0.0 1.0
outer loop
vertex 4.33646475863328 2.74429642582421 2.0
vertex 46.0 -2.0 2.0
vertex 4.65 2.87416697508023 2.0
endloop
endfacet
facet normal 0.0 0.0 1.0
outer loop
vertex 4.65 2.87416697508023 2.0
vertex 46.0 -2.0 2.0
vertex 4.91923881554251 3.08076118445749 2.0
endloop
endfacet
facet normal 0.0 0.0 1.0
outer loop
vertex 4.91923881554251 3.08076118445749 2.0
vertex 46.0 -2.0 2.0
vertex 5.12583302491977 3.35 2.0
endloop
endfacet
facet normal 0.0 0.0 1.0
outer loop
vertex 5.12583302491977 3.35 2.0
vertex 46.0 -2.0 2.0
vertex 5.25570357417579 3.66353524136672 2.0
endloop
endfacet
facet normal 0.0 0.0 1.0
outer loop
vertex 5.25570357417579 3.66353524136672 2.0
vertex 46.0 -2.0 2.0
vertex 5.3 4.0 2.0
endloop
endfacet
facet normal 0.0 0.0 1.0
outer loop
vertex 5.3 4.0 2.0
vertex 46.0 -2.0 2.0
vertex 5.3 27.0 2.0
endloop
endfacet
facet normal 0.0 0.0 1.0
outer loop
vertex 5.3 27.0 2.0
vertex 46.0 -2.0 2.0
vertex 40.0807611844575 3.08076118445749 2.0
endloop
endfacet
facet normal 0.0 0.0 1.0
outer loop
vertex 5.3 27.0 2.0
vertex 40.0807611844575 3.08076118445749 2.0
vertex 39.8741669750802 3.35 2.0
endloop
endfacet
facet normal 0.0 0.0 1.0
outer loop
vertex 5.3 27.0 2.0
vertex 39.8741669750802 3.35 2.0
vertex 39.7442964258242 3.66353524136672 2.0
endloop
endfacet
facet normal 0.0 0.0 1.0
outer loop
vertex 5.3 27.0 2.0
vertex 39.7442964258242 3.66353524136672 2.0
vertex 39.7 4.0 2.0
endloop
endfacet
facet normal 0.0 0.0 1.0
outer loop
vertex 40.0807611844575 3.08076118445749 2.0
vertex 46.0 -2.0 2.0
vertex 40.35 2.87416697508023 2.0
endloop
endfacet
facet normal 0.0 0.0 1.0
outer loop
vertex 40.35 2.87416697508023 2.0
vertex 46.0 -2.0 2.0
vertex 40.6635352413667 2.74429642582421 2.0
endloop
endfacet
facet normal 0.0 0.0 1.0
outer loop
vertex 40.6635352413667 2.74429642582421 2.0
vertex 46.0 -2.0 2.0
vertex 41.0 2.7 2.0
endloop
endfacet
facet normal 0.0 0.0 1.0
outer loop
vertex 41.0 2.7 2.0
vertex 46.0 -2.0 2.0
vertex 41.3364647586333 2.74429642582421 2.0
endloop
endfacet
facet normal 0.0 0.0 1.0
outer loop
vertex 41.3364647586333 2.74429642582421 2.0
vertex 46.0 -2.0 2.0
vertex 41.65 2.87416697508023 2.0
endloop
endfacet
facet normal 0.0 0.0 1.0
outer loop
vertex 41.65 2.87416697508023 2.0
vertex 46.0 -2.0 2.0
vertex 41.9192388155425 3.08076118445749 2.0
endloop
endfacet
facet normal 0.0 0.0 1.0
outer loop
vertex 41.9192388155425 3.08076118445749 2.0
vertex 46.0 -2.0 2.0
vertex 42.1258330249198 3.35 2.0
endloop
endfacet
facet normal 0.0 0.0 1.0
outer loop
vertex 42.1258330249198 3.35 2.0
vertex 46.0 -2.0 2.0
vertex 42.2557035741758 3.66353524136672 2.0
endloop
endfacet
facet normal 0.0 0.0 1.0
outer loop
vertex 42.2557035741758 3.66353524136672 2.0
vertex 46.0 -2.0 2.0
vertex 42.3 4.0 2.0
endloop
endfacet
facet normal 0.0 0.0 1.0
outer loop
vertex 42.3 4.0 2.0
vertex 46.0 -2.0 2.0
vertex 42.3 27.0 2.0
endloop
endfacet
facet normal 0.0 0.0 1.0
outer loop
vertex -1.0 33.0 2.0
vertex 4.0 28.3 2.0
vertex 46.0 33.0 2.0
endloop
endfacet
facet normal 0.0 0.0 1.0
outer loop
vertex 4.0 28.3 2.0
vertex -1.0 33.0 2.0
vertex 3.66353524136672 28.2557035741758 2.0
endloop
endfacet
facet normal 0.0 0.0 1.0
outer loop
vertex 3.66353524136672 28.2557035741758 2.0
vertex -1.0 33.0 2.0
vertex 3.35 28.1258330249198 2.0
endloop
endfacet
facet normal 0.0 0.0 1.0
outer loop
vertex 3.35 28.1258330249198 2.0
vertex -1.0 33.0 2.0
vertex 3.08076118445749 27.9192388155425 2.0
endloop
endfacet
facet normal 0.0 0.0 1.0
outer loop
vertex 3.08076118445749 27.9192388155425 2.0
vertex -1.0 33.0 2.0
vertex 2.87416697508023 27.65 2.0
endloop
endfacet
facet normal 0.0 0.0 1.0
outer loop
vertex 2.87416697508023 27.65 2.0
vertex -1.0 33.0 2.0
vertex 2.74429642582421 27.3364647586333 2.0
endloop
endfacet
facet normal 0.0 0.0 1.0
outer loop
vertex 2.74429642582421 27.3364647586333 2.0
vertex -1.0 33.0 2.0
vertex 2.7 27.0 2.0
endloop
endfacet
facet normal 0.0 0.0 1.0
outer loop
vertex 2.7 27.0 2.0
vertex -1.0 33.0 2.0
vertex 2.7 4.0 2.0
endloop
endfacet
facet normal 0.0 0.0 1.0
outer loop
vertex 46.0 33.0 2.0
vertex 4.0 28.3 2.0
vertex 4.33646475863327 28.2557035741758 2.0
endloop
endfacet
facet normal 0.0 0.0 1.0
outer loop
vertex 46.0 33.0 2.0
vertex 4.33646475863327 28.2557035741758 2.0
vertex 4.65 28.1258330249198 2.0
endloop
endfacet
facet normal 0.0 0.0 1.0
outer loop
vertex 46.0 33.0 2.0
vertex 4.65 28.1258330249198 2.0
vertex 4.91923881554251 27.9192388155425 2.0
endloop
endfacet
facet normal 0.0 0.0 1.0
outer loop
vertex 46.0 33.0 2.0
vertex 4.91923881554251 27.9192388155425 2.0
vertex 5.12583302491977 27.65 2.0
endloop
endfacet
facet normal 0.0 0.0 1.0
outer loop
vertex 46.0 33.0 2.0
vertex 5.12583302491977 27.65 2.0
vertex 5.25570357417579 27.3364647586333 2.0
endloop
endfacet
facet normal 0.0 0.0 1.0
outer loop
vertex 46.0 33.0 2.0
vertex 5.25570357417579 27.3364647586333 2.0
vertex 5.3 27.0 2.0
endloop
endfacet
facet normal 0.0 0.0 1.0
outer loop
vertex 46.0 33.0 2.0
vertex 5.3 27.0 2.0
vertex 40.0807611844575 27.9192388155425 2.0
endloop
endfacet
facet normal 0.0 0.0 1.0
outer loop
vertex 40.0807611844575 27.9192388155425 2.0
vertex 5.3 27.0 2.0
vertex 39.8741669750802 27.65 2.0
endloop
endfacet
facet normal 0.0 0.0 1.0
outer loop
vertex 39.8741669750802 27.65 2.0
vertex 5.3 27.0 2.0
vertex 39.7442964258242 27.3364647586333 2.0
endloop
endfacet
facet normal 0.0 0.0 1.0
outer loop
vertex 39.7442964258242 27.3364647586333 2.0
vertex 5.3 27.0 2.0
vertex 39.7 27.0 2.0
endloop
endfacet
facet normal 0.0 0.0 1.0
outer loop
vertex 39.7 27.0 2.0
vertex 5.3 27.0 2.0
vertex 39.7 4.0 2.0
endloop
endfacet
facet normal 0.0 0.0 1.0
outer loop
vertex 46.0 33.0 2.0
vertex 40.0807611844575 27.9192388155425 2.0
vertex 40.35 28.1258330249198 2.0
endloop
endfacet
facet normal 0.0 0.0 1.0
outer loop
vertex 46.0 33.0 2.0
vertex 40.35 28.1258330249198 2.0
vertex 40.6635352413667 28.2557035741758 2.0
endloop
endfacet
facet normal 0.0 0.0 1.0
outer loop
vertex 46.0 33.0 2.0
vertex 40.6635352413667 28.2557035741758 2.0
vertex 41.0 28.3 2.0
endloop
endfacet
facet normal 0.0 0.0 1.0
outer loop
vertex 46.0 33.0 2.0
vertex 41.0 28.3 2.0
vertex 41.3364647586333 28.2557035741758 2.0
endloop
endfacet
facet normal 0.0 0.0 1.0
outer loop
vertex 46.0 33.0 2.0
vertex 41.3364647586333 28.2557035741758 2.0
vertex 41.65 28.1258330249198 2.0
endloop
endfacet
facet normal 0.0 0.0 1.0
outer loop
vertex 46.0 33.0 2.0
vertex 41.65 28.1258330249198 2.0
vertex 41.9192388155425 27.9192388155425 2.0
endloop
endfacet
facet normal 0.0 0.0 1.0
outer loop
vertex 46.0 33.0 2.0
vertex 41.9192388155425 27.9192388155425 2.0
vertex 42.1258330249198 27.65 2.0
endloop
endfacet
facet normal 0.0 0.0 1.0
outer loop
vertex 46.0 33.0 2.0
vertex 42.1258330249198 27.65 2.0
vertex 42.2557035741758 27.3364647586333 2.0
endloop
endfacet
facet normal 0.0 0.0 1.0
outer loop
vertex 46.0 33.0 2.0
vertex 42.2557035741758 27.3364647586333 2.0
vertex 42.3 27.0 2.0
endloop
endfacet
facet normal 0.0 0.0 1.0
outer loop
vertex 46.0 33.0 2.0
vertex 42.3 27.0 2.0
vertex 46.0 -2.0 2.0
endloop
endfacet
facet normal 0.0 0.0 1.0
outer loop
vertex 39.7442964258242 4.33646475863328 2.0
vertex 39.7 27.0 2.0
vertex 39.7 4.0 2.0
endloop
endfacet
facet normal 0.0 0.0 1.0
outer loop
vertex 39.7 27.0 2.0
vertex 39.7442964258242 4.33646475863328 2.0
vertex 39.7442964258242 26.6635352413667 2.0
endloop
endfacet
facet normal 0.0 0.0 1.0
outer loop
vertex 39.7442964258242 26.6635352413667 2.0
vertex 39.7442964258242 4.33646475863328 2.0
vertex 39.8741669750802 4.65 2.0
endloop
endfacet
facet normal 0.0 0.0 1.0
outer loop
vertex 39.7442964258242 26.6635352413667 2.0
vertex 39.8741669750802 4.65 2.0
vertex 39.8741669750802 26.35 2.0
endloop
endfacet
facet normal 0.0 0.0 1.0
outer loop
vertex 39.8741669750802 26.35 2.0
vertex 39.8741669750802 4.65 2.0
vertex 40.0807611844575 4.91923881554251 2.0
endloop
endfacet
facet normal 0.0 0.0 1.0
outer loop
vertex 39.8741669750802 26.35 2.0
vertex 40.0807611844575 4.91923881554251 2.0
vertex 40.0807611844575 26.0807611844575 2.0
endloop
endfacet
facet normal 0.0 0.0 1.0
outer loop
vertex 40.0807611844575 26.0807611844575 2.0
vertex 40.0807611844575 4.91923881554251 2.0
vertex 40.35 5.12583302491977 2.0
endloop
endfacet
facet normal 0.0 0.0 1.0
outer loop
vertex 40.0807611844575 26.0807611844575 2.0
vertex 40.35 5.12583302491977 2.0
vertex 40.35 25.8741669750802 2.0
endloop
endfacet
facet normal 0.0 0.0 1.0
outer loop
vertex 40.35 25.8741669750802 2.0
vertex 40.35 5.12583302491977 2.0
vertex 40.6635352413667 5.25570357417579 2.0
endloop
endfacet
facet normal 0.0 0.0 1.0
outer loop
vertex 40.35 25.8741669750802 2.0
vertex 40.6635352413667 5.25570357417579 2.0
vertex 40.6635352413667 25.7442964258242 2.0
endloop
endfacet
facet normal 0.0 0.0 1.0
outer loop
vertex 40.6635352413667 25.7442964258242 2.0
vertex 40.6635352413667 5.25570357417579 2.0
vertex 41.0 5.3 2.0
endloop
endfacet
facet normal 0.0 0.0 1.0
outer loop
vertex 40.6635352413667 25.7442964258242 2.0
vertex 41.0 5.3 2.0
vertex 41.0 25.7 2.0
endloop
endfacet
facet normal 0.0 0.0 1.0
outer loop
vertex 41.0 25.7 2.0
vertex 41.0 5.3 2.0
vertex 41.3364647586333 5.25570357417579 2.0
endloop
endfacet
facet normal 0.0 0.0 1.0
outer loop
vertex 41.0 25.7 2.0
vertex 41.3364647586333 5.25570357417579 2.0
vertex 41.3364647586333 25.7442964258242 2.0
endloop
endfacet
facet normal 0.0 0.0 1.0
outer loop
vertex 41.3364647586333 25.7442964258242 2.0
vertex 41.3364647586333 5.25570357417579 2.0
vertex 41.65 5.12583302491977 2.0
endloop
endfacet
facet normal 0.0 0.0 1.0
outer loop
vertex 41.3364647586333 25.7442964258242 2.0
vertex 41.65 5.12583302491977 2.0
vertex 41.65 25.8741669750802 2.0
endloop
endfacet
facet normal 0.0 0.0 1.0
outer loop
vertex 41.65 25.8741669750802 2.0
vertex 41.65 5.12583302491977 2.0
vertex 41.9192388155425 4.91923881554251 2.0
endloop
endfacet
facet normal 0.0 0.0 1.0
outer loop
vertex 41.65 25.8741669750802 2.0
vertex 41.9192388155425 4.91923881554251 2.0
vertex 41.9192388155425 26.0807611844575 2.0
endloop
endfacet
facet normal 0.0 0.0 1.0
outer loop
vertex 41.9192388155425 26.0807611844575 2.0
vertex 41.9192388155425 4.91923881554251 2.0
vertex 42.1258330249198 4.65 2.0
endloop
endfacet
facet normal 0.0 0.0 1.0
outer loop
vertex 41.9192388155425 26.0807611844575 2.0
vertex 42.1258330249198 4.65 2.0
vertex 42.1258330249198 26.35 2.0
endloop
endfacet
facet normal 0.0 0.0 1.0
outer loop
vertex 42.1258330249198 26.35 2.0
vertex 42.1258330249198 4.65 2.0
vertex 42.2557035741758 4.33646475863328 2.0
endloop
endfacet
facet normal 0.0 0.0 1.0
outer loop
vertex 42.1258330249198 26.35 2.0
vertex 42.2557035741758 4.33646475863328 2.0
vertex 42.2557035741758 26.6635352413667 2.0
endloop
endfacet
facet normal 0.0 0.0 1.0
outer loop
vertex 42.2557035741758 26.6635352413667 2.0
vertex 42.2557035741758 4.33646475863328 2.0
vertex 42.3 4.0 2.0
endloop
endfacet
facet normal 0.0 0.0 1.0
outer loop
vertex 42.2557035741758 26.6635352413667 2.0
vertex 42.3 4.0 2.0
vertex 42.3 27.0 2.0
endloop
endfacet
facet normal 0.0 0.0 1.0
outer loop
vertex 2.74429642582421 4.33646475863328 2.0
vertex 2.7 27.0 2.0
vertex 2.7 4.0 2.0
endloop
endfacet
facet normal 0.0 0.0 1.0
outer loop
vertex 2.7 27.0 2.0
vertex 2.74429642582421 4.33646475863328 2.0
vertex 2.74429642582421 26.6635352413667 2.0
endloop
endfacet
facet normal 0.0 0.0 1.0
outer loop
vertex 2.74429642582421 26.6635352413667 2.0
vertex 2.74429642582421 4.33646475863328 2.0
vertex 2.87416697508023 4.65 2.0
endloop
endfacet
facet normal 0.0 0.0 1.0
outer loop
vertex 2.74429642582421 26.6635352413667 2.0
vertex 2.87416697508023 4.65 2.0
vertex 2.87416697508023 26.35 2.0
endloop
endfacet
facet normal 0.0 0.0 1.0
outer loop
vertex 2.87416697508023 26.35 2.0
vertex 2.87416697508023 4.65 2.0
vertex 3.08076118445749 4.91923881554251 2.0
endloop
endfacet
facet normal 0.0 0.0 1.0
outer loop
vertex 2.87416697508023 26.35 2.0
vertex 3.08076118445749 4.91923881554251 2.0
vertex 3.08076118445749 26.0807611844575 2.0
endloop
endfacet
facet normal 0.0 0.0 1.0
outer loop
vertex 3.08076118445749 26.0807611844575 2.0
vertex 3.08076118445749 4.91923881554251 2.0
vertex 3.35 5.12583302491977 2.0
endloop
endfacet
facet normal 0.0 0.0 1.0
outer loop
vertex 3.08076118445749 26.0807611844575 2.0
vertex 3.35 5.12583302491977 2.0
vertex 3.35 25.8741669750802 2.0
endloop
endfacet
facet normal 0.0 0.0 1.0
outer loop
vertex 3.35 25.8741669750802 2.0
vertex 3.35 5.12583302491977 2.0
vertex 3.66353524136672 5.25570357417579 2.0
endloop
endfacet
facet normal 0.0 0.0 1.0
outer loop
vertex 3.35 25.8741669750802 2.0
vertex 3.66353524136672 5.25570357417579 2.0
vertex 3.66353524136672 25.7442964258242 2.0
endloop
endfacet
facet normal 0.0 0.0 1.0
outer loop
vertex 3.66353524136672 25.7442964258242 2.0
vertex 3.66353524136672 5.25570357417579 2.0
vertex 4.0 5.3 2.0
endloop
endfacet
facet normal 0.0 0.0 1.0
outer loop
vertex 3.66353524136672 25.7442964258242 2.0
vertex 4.0 5.3 2.0
vertex 4.0 25.7 2.0
endloop
endfacet
facet normal 0.0 0.0 1.0
outer loop
vertex 4.0 25.7 2.0
vertex 4.0 5.3 2.0
vertex 4.33646475863327 5.25570357417579 2.0
endloop
endfacet
facet normal 0.0 0.0 1.0
outer loop
vertex 4.0 25.7 2.0
vertex 4.33646475863327 5.25570357417579 2.0
vertex 4.33646475863328 25.7442964258242 2.0
endloop
endfacet
facet normal 0.0 0.0 1.0
outer loop
vertex 4.33646475863328 25.7442964258242 2.0
vertex 4.33646475863327 5.25570357417579 2.0
vertex 4.65 5.12583302491977 2.0
endloop
endfacet
facet normal 0.0 0.0 1.0
outer loop
vertex 4.33646475863328 25.7442964258242 2.0
vertex 4.65 5.12583302491977 2.0
vertex 4.65 25.8741669750802 2.0
endloop
endfacet
facet normal 0.0 0.0 1.0
outer loop
vertex 4.65 25.8741669750802 2.0
vertex 4.65 5.12583302491977 2.0
vertex 4.91923881554251 4.91923881554251 2.0
endloop
endfacet
facet normal 0.0 0.0 1.0
outer loop
vertex 4.65 25.8741669750802 2.0
vertex 4.91923881554251 4.91923881554251 2.0
vertex 4.91923881554251 26.0807611844575 2.0
endloop
endfacet
facet normal 0.0 0.0 1.0
outer loop
vertex 4.91923881554251 26.0807611844575 2.0
vertex 4.91923881554251 4.91923881554251 2.0
vertex 5.12583302491977 4.65 2.0
endloop
endfacet
facet normal 0.0 0.0 1.0
outer loop
vertex 4.91923881554251 26.0807611844575 2.0
vertex 5.12583302491977 4.65 2.0
vertex 5.12583302491977 26.35 2.0
endloop
endfacet
facet normal 0.0 0.0 1.0
outer loop
vertex 5.12583302491977 26.35 2.0
vertex 5.12583302491977 4.65 2.0
vertex 5.25570357417579 4.33646475863328 2.0
endloop
endfacet
facet normal 0.0 0.0 1.0
outer loop
vertex 5.12583302491977 26.35 2.0
vertex 5.25570357417579 4.33646475863328 2.0
vertex 5.25570357417579 26.6635352413667 2.0
endloop
endfacet
facet normal 0.0 0.0 1.0
outer loop
vertex 5.25570357417579 26.6635352413667 2.0
vertex 5.25570357417579 4.33646475863328 2.0
vertex 5.3 4.0 2.0
endloop
endfacet
facet normal 0.0 0.0 1.0
outer loop
vertex 5.25570357417579 26.6635352413667 2.0
vertex 5.3 4.0 2.0
vertex 5.3 27.0 2.0
endloop
endfacet
facet normal 3.91662011464986e-018 1.0 0.0
outer loop
vertex -1.0 -2.0 17.0
vertex 46.0 -2.0 2.0
vertex -1.0 -2.0 2.0
endloop
endfacet
facet normal 3.91662011464986e-018 1.0 0.0
outer loop
vertex 46.0 -2.0 2.0
vertex -1.0 -2.0 17.0
vertex 46.0 -2.0 17.0
endloop
endfacet
facet normal 0.0 1.0 0.0
outer loop
vertex -3.0 35.0 17.0
vertex 48.0 35.0 0.0
vertex -3.0 35.0 0.0
endloop
endfacet
facet normal 0.0 1.0 0.0
outer loop
vertex 48.0 35.0 0.0
vertex -3.0 35.0 17.0
vertex 48.0 35.0 17.0
endloop
endfacet
facet normal -0.258819045102521 -0.965925826289068 0.0
outer loop
vertex 40.6635352413667 2.74429642582421 6.0
vertex 40.35 2.87416697508023 2.0
vertex 40.6635352413667 2.74429642582421 2.0
endloop
endfacet
facet normal -0.500000000000001 -0.866025403784438 0.0
outer loop
vertex 40.35 2.87416697508023 2.0
vertex 40.6635352413667 2.74429642582421 6.0
vertex 40.35 2.87416697508023 6.0
endloop
endfacet
facet normal 5.16844373947521e-016 -1.0 0.0
outer loop
vertex 41.0 2.7 6.0
vertex 40.6635352413667 2.74429642582421 2.0
vertex 41.0 2.7 2.0
endloop
endfacet
facet normal -0.258819045102521 -0.965925826289068 0.0
outer loop
vertex 40.6635352413667 2.74429642582421 2.0
vertex 41.0 2.7 6.0
vertex 40.6635352413667 2.74429642582421 6.0
endloop
endfacet
facet normal 0.0 0.0 1.0
outer loop
vertex 39.7442964258242 3.66353524136672 6.0
vertex 39.7442964258242 4.33646475863328 6.0
vertex 39.7 4.0 6.0
endloop
endfacet
facet normal 0.0 0.0 1.0
outer loop
vertex 39.7442964258242 4.33646475863328 6.0
vertex 39.7442964258242 3.66353524136672 6.0
vertex 39.8741669750802 3.35 6.0
endloop
endfacet
facet normal 0.0 0.0 1.0
outer loop
vertex 39.7442964258242 4.33646475863328 6.0
vertex 39.8741669750802 3.35 6.0
vertex 39.8741669750802 4.65 6.0
endloop
endfacet
facet normal 0.0 0.0 1.0
outer loop
vertex 39.8741669750802 4.65 6.0
vertex 39.8741669750802 3.35 6.0
vertex 40.0807611844575 3.08076118445749 6.0
endloop
endfacet
facet normal 0.0 0.0 1.0
outer loop
vertex 39.8741669750802 4.65 6.0
vertex 40.0807611844575 3.08076118445749 6.0
vertex 40.0807611844575 4.91923881554251 6.0
endloop
endfacet
facet normal 0.0 0.0 1.0
outer loop
vertex 40.0807611844575 4.91923881554251 6.0
vertex 40.0807611844575 3.08076118445749 6.0
vertex 40.35 2.87416697508023 6.0
endloop
endfacet
facet normal 0.0 0.0 1.0
outer loop
vertex 40.0807611844575 4.91923881554251 6.0
vertex 40.35 2.87416697508023 6.0
vertex 40.35 5.12583302491977 6.0
endloop
endfacet
facet normal 0.0 0.0 1.0
outer loop
vertex 40.35 5.12583302491977 6.0
vertex 40.35 2.87416697508023 6.0
vertex 40.6635352413667 2.74429642582421 6.0
endloop
endfacet
facet normal 0.0 0.0 1.0
outer loop
vertex 40.35 5.12583302491977 6.0
vertex 40.6635352413667 2.74429642582421 6.0
vertex 40.6635352413667 5.25570357417579 6.0
endloop
endfacet
facet normal 0.0 0.0 1.0
outer loop
vertex 40.6635352413667 5.25570357417579 6.0
vertex 40.6635352413667 2.74429642582421 6.0
vertex 41.0 2.7 6.0
endloop
endfacet
facet normal 0.0 0.0 1.0
outer loop
vertex 40.6635352413667 5.25570357417579 6.0
vertex 41.0 2.7 6.0
vertex 41.0 5.3 6.0
endloop
endfacet
facet normal 0.0 0.0 1.0
outer loop
vertex 41.0 5.3 6.0
vertex 41.0 2.7 6.0
vertex 41.3364647586333 2.74429642582421 6.0
endloop
endfacet
facet normal 0.0 0.0 1.0
outer loop
vertex 41.0 5.3 6.0
vertex 41.3364647586333 2.74429642582421 6.0
vertex 41.3364647586333 5.25570357417579 6.0
endloop
endfacet
facet normal 0.0 0.0 1.0
outer loop
vertex 41.3364647586333 5.25570357417579 6.0
vertex 41.3364647586333 2.74429642582421 6.0
vertex 41.65 2.87416697508023 6.0
endloop
endfacet
facet normal 0.0 0.0 1.0
outer loop
vertex 41.3364647586333 5.25570357417579 6.0
vertex 41.65 2.87416697508023 6.0
vertex 41.65 5.12583302491977 6.0
endloop
endfacet
facet normal 0.0 0.0 1.0
outer loop
vertex 41.65 5.12583302491977 6.0
vertex 41.65 2.87416697508023 6.0
vertex 41.9192388155425 3.08076118445749 6.0
endloop
endfacet
facet normal 0.0 0.0 1.0
outer loop
vertex 41.65 5.12583302491977 6.0
vertex 41.9192388155425 3.08076118445749 6.0
vertex 41.9192388155425 4.91923881554251 6.0
endloop
endfacet
facet normal 0.0 0.0 1.0
outer loop
vertex 41.9192388155425 4.91923881554251 6.0
vertex 41.9192388155425 3.08076118445749 6.0
vertex 42.1258330249198 3.35 6.0
endloop
endfacet
facet normal 0.0 0.0 1.0
outer loop
vertex 41.9192388155425 4.91923881554251 6.0
vertex 42.1258330249198 3.35 6.0
vertex 42.1258330249198 4.65 6.0
endloop
endfacet
facet normal 0.0 0.0 1.0
outer loop
vertex 42.1258330249198 4.65 6.0
vertex 42.1258330249198 3.35 6.0
vertex 42.2557035741758 3.66353524136672 6.0
endloop
endfacet
facet normal 0.0 0.0 1.0
outer loop
vertex 42.1258330249198 4.65 6.0
vertex 42.2557035741758 3.66353524136672 6.0
vertex 42.2557035741758 4.33646475863328 6.0
endloop
endfacet
facet normal 0.0 0.0 1.0
outer loop
vertex 42.2557035741758 4.33646475863328 6.0
vertex 42.2557035741758 3.66353524136672 6.0
vertex 42.3 4.0 6.0
endloop
endfacet
facet normal -0.707106781186545 0.70710678118655 0.0
outer loop
vertex 40.0807611844575 4.91923881554251 6.0
vertex 39.8741669750802 4.65 2.0
vertex 39.8741669750802 4.65 6.0
endloop
endfacet
facet normal -0.866025403784438 0.500000000000001 0.0
outer loop
vertex 39.8741669750802 4.65 2.0
vertex 40.0807611844575 4.91923881554251 6.0
vertex 40.0807611844575 4.91923881554251 2.0
endloop
endfacet
facet normal -0.866025403784438 0.500000000000001 0.0
outer loop
vertex 39.8741669750802 4.65 6.0
vertex 39.7442964258242 4.33646475863328 2.0
vertex 39.7442964258242 4.33646475863328 6.0
endloop
endfacet
facet normal -0.965925826289069 0.258819045102518 0.0
outer loop
vertex 39.7442964258242 4.33646475863328 2.0
vertex 39.8741669750802 4.65 6.0
vertex 39.8741669750802 4.65 2.0
endloop
endfacet
facet normal -0.707106781186545 0.70710678118655 0.0
outer loop
vertex 40.0807611844575 4.91923881554251 6.0
vertex 40.35 5.12583302491977 2.0
vertex 40.0807611844575 4.91923881554251 2.0
endloop
endfacet
facet normal -0.500000000000001 0.866025403784438 0.0
outer loop
vertex 40.35 5.12583302491977 2.0
vertex 40.0807611844575 4.91923881554251 6.0
vertex 40.35 5.12583302491977 6.0
endloop
endfacet
facet normal 0.258819045102521 -0.965925826289068 0.0
outer loop
vertex 41.3364647586333 2.74429642582421 6.0
vertex 41.0 2.7 2.0
vertex 41.3364647586333 2.74429642582421 2.0
endloop
endfacet
facet normal 5.16844373947521e-016 -1.0 0.0
outer loop
vertex 41.0 2.7 2.0
vertex 41.3364647586333 2.74429642582421 6.0
vertex 41.0 2.7 6.0
endloop
endfacet
facet normal 0.707106781186546 0.707106781186549 0.0
outer loop
vertex 41.9192388155425 4.91923881554251 2.0
vertex 42.1258330249198 4.65 6.0
vertex 42.1258330249198 4.65 2.0
endloop
endfacet
facet normal 0.866025403784438 0.500000000000001 0.0
outer loop
vertex 42.1258330249198 4.65 6.0
vertex 41.9192388155425 4.91923881554251 2.0
vertex 41.9192388155425 4.91923881554251 6.0
endloop
endfacet
facet normal 0.866025403784438 -0.500000000000002 0.0
outer loop
vertex 42.1258330249198 26.35 2.0
vertex 41.9192388155425 26.0807611844575 6.0
vertex 41.9192388155425 26.0807611844575 2.0
endloop
endfacet
facet normal 0.707106781186548 -0.707106781186548 0.0
outer loop
vertex 41.9192388155425 26.0807611844575 6.0
vertex 42.1258330249198 26.35 2.0
vertex 42.1258330249198 26.35 6.0
endloop
endfacet
facet normal -0.258819045102518 -0.965925826289069 0.0
outer loop
vertex 40.6635352413667 25.7442964258242 6.0
vertex 40.35 25.8741669750802 2.0
vertex 40.6635352413667 25.7442964258242 2.0
endloop
endfacet
facet normal -0.500000000000002 -0.866025403784438 0.0
outer loop
vertex 40.35 25.8741669750802 2.0
vertex 40.6635352413667 25.7442964258242 6.0
vertex 40.35 25.8741669750802 6.0
endloop
endfacet
facet normal 0.0 -1.0 0.0
outer loop
vertex 41.0 25.7 6.0
vertex 40.6635352413667 25.7442964258242 2.0
vertex 41.0 25.7 2.0
endloop
endfacet
facet normal -0.258819045102518 -0.965925826289069 0.0
outer loop
vertex 40.6635352413667 25.7442964258242 2.0
vertex 41.0 25.7 6.0
vertex 40.6635352413667 25.7442964258242 6.0
endloop
endfacet
facet normal -0.866025403784438 -0.500000000000002 0.0
outer loop
vertex 39.8741669750802 26.35 6.0
vertex 40.0807611844575 26.0807611844575 2.0
vertex 40.0807611844575 26.0807611844575 6.0
endloop
endfacet
facet normal -0.707106781186548 -0.707106781186548 0.0
outer loop
vertex 40.0807611844575 26.0807611844575 2.0
vertex 39.8741669750802 26.35 6.0
vertex 39.8741669750802 26.35 2.0
endloop
endfacet
facet normal -0.500000000000001 0.866025403784438 0.0
outer loop
vertex 40.35 5.12583302491977 6.0
vertex 40.6635352413667 5.25570357417579 2.0
vertex 40.35 5.12583302491977 2.0
endloop
endfacet
facet normal -0.258819045102522 0.965925826289068 0.0
outer loop
vertex 40.6635352413667 5.25570357417579 2.0
vertex 40.35 5.12583302491977 6.0
vertex 40.6635352413667 5.25570357417579 6.0
endloop
endfacet
facet normal 0.707106781186548 -0.707106781186548 0.0
outer loop
vertex 41.9192388155425 26.0807611844575 6.0
vertex 41.65 25.8741669750802 2.0
vertex 41.9192388155425 26.0807611844575 2.0
endloop
endfacet
facet normal 0.500000000000002 -0.866025403784438 0.0
outer loop
vertex 41.65 25.8741669750802 2.0
vertex 41.9192388155425 26.0807611844575 6.0
vertex 41.65 25.8741669750802 6.0
endloop
endfacet
facet normal 0.258819045102518 -0.965925826289069 0.0
outer loop
vertex 41.3364647586333 25.7442964258242 6.0
vertex 41.0 25.7 2.0
vertex 41.3364647586333 25.7442964258242 2.0
endloop
endfacet
facet normal 0.0 -1.0 0.0
outer loop
vertex 41.0 25.7 2.0
vertex 41.3364647586333 25.7442964258242 6.0
vertex 41.0 25.7 6.0
endloop
endfacet
facet normal -0.500000000000002 -0.866025403784438 0.0
outer loop
vertex 40.35 25.8741669750802 6.0
vertex 40.0807611844575 26.0807611844575 2.0
vertex 40.35 25.8741669750802 2.0
endloop
endfacet
facet normal -0.707106781186548 -0.707106781186548 0.0
outer loop
vertex 40.0807611844575 26.0807611844575 2.0
vertex 40.35 25.8741669750802 6.0
vertex 40.0807611844575 26.0807611844575 6.0
endloop
endfacet
facet normal -1.02477763799939e-015 1.0 0.0
outer loop
vertex 41.0 5.3 6.0
vertex 41.3364647586333 5.25570357417579 2.0
vertex 41.0 5.3 2.0
endloop
endfacet
facet normal 0.25881904510252 0.965925826289068 0.0
outer loop
vertex 41.3364647586333 5.25570357417579 2.0
vertex 41.0 5.3 6.0
vertex 41.3364647586333 5.25570357417579 6.0
endloop
endfacet
facet normal -0.965925826289069 -0.258819045102518 0.0
outer loop
vertex 39.7442964258242 26.6635352413667 6.0
vertex 39.8741669750802 26.35 2.0
vertex 39.8741669750802 26.35 6.0
endloop
endfacet
facet normal -0.866025403784438 -0.500000000000002 0.0
outer loop
vertex 39.8741669750802 26.35 2.0
vertex 39.7442964258242 26.6635352413667 6.0
vertex 39.7442964258242 26.6635352413667 2.0
endloop
endfacet
facet normal 0.500000000000001 0.866025403784438 0.0
outer loop
vertex 41.65 5.12583302491977 6.0
vertex 41.9192388155425 4.91923881554251 2.0
vertex 41.65 5.12583302491977 2.0
endloop
endfacet
facet normal 0.707106781186546 0.707106781186549 0.0
outer loop
vertex 41.9192388155425 4.91923881554251 2.0
vertex 41.65 5.12583302491977 6.0
vertex 41.9192388155425 4.91923881554251 6.0
endloop
endfacet
facet normal -0.258819045102522 0.965925826289068 0.0
outer loop
vertex 40.6635352413667 5.25570357417579 6.0
vertex 41.0 5.3 2.0
vertex 40.6635352413667 5.25570357417579 2.0
endloop
endfacet
facet normal -1.02477763799939e-015 1.0 0.0
outer loop
vertex 41.0 5.3 2.0
vertex 40.6635352413667 5.25570357417579 6.0
vertex 41.0 5.3 6.0
endloop
endfacet
facet normal 0.25881904510252 0.965925826289068 0.0
outer loop
vertex 41.3364647586333 5.25570357417579 6.0
vertex 41.65 5.12583302491977 2.0
vertex 41.3364647586333 5.25570357417579 2.0
endloop
endfacet
facet normal 0.500000000000001 0.866025403784438 0.0
outer loop
vertex 41.65 5.12583302491977 2.0
vertex 41.3364647586333 5.25570357417579 6.0
vertex 41.65 5.12583302491977 6.0
endloop
endfacet
facet normal 0.866025403784438 0.500000000000001 0.0
outer loop
vertex 42.1258330249198 4.65 2.0
vertex 42.2557035741758 4.33646475863328 6.0
vertex 42.2557035741758 4.33646475863328 2.0
endloop
endfacet
facet normal 0.965925826289069 0.258819045102518 0.0
outer loop
vertex 42.2557035741758 4.33646475863328 6.0
vertex 42.1258330249198 4.65 2.0
vertex 42.1258330249198 4.65 6.0
endloop
endfacet
facet normal 0.500000000000002 -0.866025403784438 0.0
outer loop
vertex 41.65 25.8741669750802 6.0
vertex 41.3364647586333 25.7442964258242 2.0
vertex 41.65 25.8741669750802 2.0
endloop
endfacet
facet normal 0.258819045102518 -0.965925826289069 0.0
outer loop
vertex 41.3364647586333 25.7442964258242 2.0
vertex 41.65 25.8741669750802 6.0
vertex 41.3364647586333 25.7442964258242 6.0
endloop
endfacet
endsolid PulseGenBox-bottom-X2
