solid PulseGenBox-lid-x3
facet normal 0.0 -0.743886753986595 -0.668305691464084
outer loop
vertex 48.0 20.8866234798684 19.3901282905448
vertex 45.921957 19.5838670105191 20.5052895193946
vertex 45.921957 20.8866234798684 19.3901282905448
endloop
endfacet
facet normal 0.0 -0.54556918660868 -0.838065786572357
outer loop
vertex 45.921957 19.5838670105191 20.5052895193946
vertex 48.0 20.8866234798684 19.3901282905448
vertex 48.0 19.5838670105191 20.5052895193946
endloop
endfacet
facet normal 0.0 0.206826329308324 -0.978377672223178
outer loop
vertex 48.0 14.6413491144497 21.427004217568
vertex 45.921957 13.0242129262756 20.8563646345918
vertex 45.921957 14.6413491144497 21.427004217568
endloop
endfacet
facet normal 0.0 0.453001667909908 -0.891509668411309
outer loop
vertex 45.921957 13.0242129262756 20.8563646345918
vertex 48.0 14.6413491144497 21.427004217568
vertex 48.0 13.0242129262756 20.8563646345918
endloop
endfacet
facet normal 0.0 -0.310071980759095 -0.950713083294919
outer loop
vertex 48.0 18.0368759270232 21.2452743654188
vertex 45.921957 16.3510751151972 21.5596540842435
vertex 45.921957 18.0368759270232 21.2452743654188
endloop
endfacet
facet normal 0.0 -0.0534438818389518 -0.998570854518589
outer loop
vertex 45.921957 16.3510751151972 21.5596540842435
vertex 48.0 18.0368759270232 21.2452743654188
vertex 48.0 16.3510751151972 21.5596540842435
endloop
endfacet
facet normal -0.0015814981024162 -0.707525677786223 -0.706685866659931
outer loop
vertex -0.805401407059271 19.7049546071849 19.6946657813537
vertex -2.98902967152458 18.3283004389297 20.7571529738211
vertex -2.99104493459803 19.7049548919922 19.6995567658009
endloop
endfacet
facet normal -0.00193740669758102 -0.500484248967842 -0.865743474125207
outer loop
vertex -2.98902967152458 18.3283004389297 20.7571529738211
vertex -0.805401407059271 19.7049546071849 19.6946657813537
vertex -0.803386143985821 18.3283001541224 20.7522619893738
endloop
endfacet
facet normal -0.000760494734444394 0.923591893460059 -0.383376363359325
outer loop
vertex -1.00000500691576 8.69174270277004 16.9977625500245
vertex -0.808014365006741 9.24283628933069 18.3234034120046
vertex -0.812450966616181 8.69174267832956 16.9951053845871
endloop
endfacet
facet normal -0.00107106207118949 0.86567837459748 -0.500599445245702
outer loop
vertex -0.808014365006741 9.24283628933069 18.3234034120046
vertex -1.00000500691576 8.69174270277004 16.9977625500245
vertex -2.99809449415494 8.69174296313684 16.9999963690343
endloop
endfacet
facet normal -0.00107106207118949 0.86567837459748 -0.500599445245702
outer loop
vertex -0.808014365006741 9.24283628933069 18.3234034120046
vertex -2.99809449415494 8.69174296313684 16.9999963690343
vertex -2.9936578925455 9.24283657413797 18.3282943964518
endloop
endfacet
facet normal -0.00107091607305001 0.865710008752811 -0.500544737145415
outer loop
vertex -2.9936578925455 9.24283657413797 18.3282943964518
vertex -0.805391137137369 10.3004344174038 19.7000553657723
vertex -0.808014365006741 9.24283628933069 18.3234034120046
endloop
endfacet
facet normal -0.00158312749897609 0.706715223462543 -0.707496350968406
outer loop
vertex -0.805391137137369 10.3004344174038 19.7000553657723
vertex -2.9936578925455 9.24283657413797 18.3282943964518
vertex -2.99103466467613 10.3004347022111 19.7049463502195
endloop
endfacet
facet normal 0.0 1.0 0.0
outer loop
vertex -3.0 35.0 30.837146
vertex 48.0 35.0 17.0
vertex -3.0 35.0 17.0
endloop
endfacet
facet normal 0.0 1.0 0.0
outer loop
vertex 48.0 35.0 17.0
vertex -3.0 35.0 30.837146
vertex 48.0 35.0 30.837146
endloop
endfacet
facet normal 0.0 0.668305691464084 -0.743886753986595
outer loop
vertex 45.921957 11.6098717094552 19.8866234798684
vertex 48.0 10.4947104806054 18.5838670105191
vertex 45.921957 10.4947104806054 18.5838670105191
endloop
endfacet
facet normal 0.0 0.838065786572356 -0.545569186608681
outer loop
vertex 48.0 10.4947104806054 18.5838670105191
vertex 45.921957 11.6098717094552 19.8866234798684
vertex 48.0 11.6098717094552 19.8866234798684
endloop
endfacet
facet normal 4.14080097529835e-020 0.950713083294923 -0.310071980759083
outer loop
vertex 45.921957 9.75472563458123 17.0368759270232
vertex 46.0 9.74784875832894 17.0
vertex 45.921957 9.74784875832894 17.0
endloop
endfacet
facet normal 8.2107516978624e-020 0.983052116036217 -0.183326313323309
outer loop
vertex 46.0 9.74784875832894 17.0
vertex 45.921957 9.75472563458123 17.0368759270232
vertex 48.0 9.74784875832894 17.0
endloop
endfacet
facet normal 8.2107516978624e-020 0.983052116036217 -0.183326313323309
outer loop
vertex 48.0 9.74784875832894 17.0
vertex 45.921957 9.75472563458123 17.0368759270232
vertex 48.0 9.75472563458123 17.0368759270232
endloop
endfacet
facet normal 0.0 0.838065786572356 -0.545569186608681
outer loop
vertex 45.921957 10.4947104806054 18.5838670105191
vertex 48.0 9.75472563458123 17.0368759270232
vertex 45.921957 9.75472563458123 17.0368759270232
endloop
endfacet
facet normal 4.14080097529835e-020 0.950713083294923 -0.310071980759083
outer loop
vertex 48.0 9.75472563458123 17.0368759270232
vertex 45.921957 10.4947104806054 18.5838670105191
vertex 48.0 10.4947104806054 18.5838670105191
endloop
endfacet
facet normal 1.0 -3.04193108321449e-018 2.81301460077909e-016
outer loop
vertex 48.0 9.74784875832894 17.0
vertex 48.0 -4.0 30.837146
vertex 48.0 -4.0 17.0
endloop
endfacet
facet normal 1.0 -3.04193108321449e-018 2.81301460077909e-016
outer loop
vertex 48.0 -4.0 30.837146
vertex 48.0 9.74784875832894 17.0
vertex 48.0 9.75472563458123 17.0368759270232
endloop
endfacet
facet normal 1.0 -3.04193108321449e-018 2.81301460077909e-016
outer loop
vertex 48.0 -4.0 30.837146
vertex 48.0 9.75472563458123 17.0368759270232
vertex 48.0 10.4947104806054 18.5838670105191
endloop
endfacet
facet normal 1.0 -3.04193108321449e-018 2.81301460077909e-016
outer loop
vertex 48.0 -4.0 30.837146
vertex 48.0 10.4947104806054 18.5838670105191
vertex 48.0 11.6098717094552 19.8866234798684
endloop
endfacet
facet normal 1.0 -3.04193108321449e-018 2.81301460077909e-016
outer loop
vertex 48.0 -4.0 30.837146
vertex 48.0 11.6098717094552 19.8866234798684
vertex 48.0 13.0242129262756 20.8563646345918
endloop
endfacet
facet normal 1.0 -3.04193108321449e-018 2.81301460077909e-016
outer loop
vertex 48.0 -4.0 30.837146
vertex 48.0 13.0242129262756 20.8563646345918
vertex 48.0 35.0 30.837146
endloop
endfacet
facet normal 1.0 -3.04193108321449e-018 2.81301460077909e-016
outer loop
vertex 48.0 35.0 30.837146
vertex 48.0 13.0242129262756 20.8563646345918
vertex 48.0 14.6413491144497 21.427004217568
endloop
endfacet
facet normal 1.0 -3.04193108321449e-018 2.81301460077909e-016
outer loop
vertex 48.0 35.0 30.837146
vertex 48.0 14.6413491144497 21.427004217568
vertex 48.0 16.3510751151972 21.5596540842435
endloop
endfacet
facet normal 1.0 -3.04193108321449e-018 2.81301460077909e-016
outer loop
vertex 48.0 35.0 30.837146
vertex 48.0 16.3510751151972 21.5596540842435
vertex 48.0 18.0368759270232 21.2452743654188
endloop
endfacet
facet normal 1.0 -3.04193108321449e-018 2.81301460077909e-016
outer loop
vertex 48.0 35.0 30.837146
vertex 48.0 18.0368759270232 21.2452743654188
vertex 48.0 19.5838670105191 20.5052895193946
endloop
endfacet
facet normal 1.0 -3.04193108321449e-018 2.81301460077909e-016
outer loop
vertex 48.0 35.0 30.837146
vertex 48.0 19.5838670105191 20.5052895193946
vertex 48.0 20.8866234798684 19.3901282905448
endloop
endfacet
facet normal 1.0 -3.04193108321449e-018 2.81301460077909e-016
outer loop
vertex 48.0 35.0 30.837146
vertex 48.0 20.8866234798684 19.3901282905448
vertex 48.0 21.8563646345918 17.9757870737244
endloop
endfacet
facet normal 1.0 -3.04193108321449e-018 2.81301460077909e-016
outer loop
vertex 48.0 35.0 30.837146
vertex 48.0 21.8563646345918 17.9757870737244
vertex 48.0 22.2006910635566 17.0
endloop
endfacet
facet normal 1.0 -3.04193108321449e-018 2.81301460077909e-016
outer loop
vertex 48.0 35.0 30.837146
vertex 48.0 22.2006910635566 17.0
vertex 48.0 35.0 17.0
endloop
endfacet
facet normal -0.00216182395190448 0.258258532758697 -0.966073422041268
outer loop
vertex -2.98775825915509 13.2825345113671 21.4243814456334
vertex -0.803378882054403 11.6783001541224 20.756073001064
vertex -2.98902240959316 11.6783004389297 20.7609639855112
endloop
endfacet
facet normal -0.00193852793248719 0.499515546582046 -0.866302753563842
outer loop
vertex -0.803378882054403 11.6783001541224 20.756073001064
vertex -2.98775825915509 13.2825345113671 21.4243814456334
vertex -0.802114731616336 13.2825342265598 21.4194904611862
endloop
endfacet
facet normal -0.0022377718505017 -0.000573080384900297 -0.99999733197445
outer loop
vertex -2.98732836312517 15.003811018609 21.6499879270281
vertex -0.802114731616336 13.2825342265598 21.4194904611862
vertex -2.98775825915509 13.2825345113671 21.4243814456334
endloop
endfacet
facet normal -0.00216181569589572 0.258272330366815 -0.966069733466374
outer loop
vertex -0.802114731616336 13.2825342265598 21.4194904611862
vertex -2.98732836312517 15.003811018609 21.6499879270281
vertex -0.801684835586417 15.0038107338017 21.6450969425808
endloop
endfacet
facet normal -0.999999997633467 -6.998452056475e-006 -6.84403917319388e-005
outer loop
vertex -3.0 35.0 30.837146
vertex -3.0 -4.0 17.0
vertex -3.0 -4.0 30.837146
endloop
endfacet
facet normal -0.999999997633467 -6.998452056475e-006 -6.84403917319388e-005
outer loop
vertex -3.0 -4.0 17.0
vertex -3.0 35.0 30.837146
vertex -2.98902240959316 11.6783004389297 20.7609639855112
endloop
endfacet
facet normal -0.999999997633467 -6.998452056475e-006 -6.84403917319388e-005
outer loop
vertex -3.0 -4.0 17.0
vertex -2.98902240959316 11.6783004389297 20.7609639855112
vertex -2.99103466467613 10.3004347022111 19.7049463502195
endloop
endfacet
facet normal -0.999999997633467 -6.998452056475e-006 -6.84403917319388e-005
outer loop
vertex -3.0 -4.0 17.0
vertex -2.99103466467613 10.3004347022111 19.7049463502195
vertex -2.9936578925455 9.24283657413797 18.3282943964518
endloop
endfacet
facet normal -0.999999997633467 -6.998452056475e-006 -6.84403917319388e-005
outer loop
vertex -3.0 -4.0 17.0
vertex -2.9936578925455 9.24283657413797 18.3282943964518
vertex -2.99809449415494 8.69174296313684 16.9999963690343
endloop
endfacet
facet normal -0.999999997633467 -6.998452056475e-006 -6.84403917319388e-005
outer loop
vertex -2.98902240959316 11.6783004389297 20.7609639855112
vertex -3.0 35.0 30.837146
vertex -2.98775825915509 13.2825345113671 21.4243814456334
endloop
endfacet
facet normal -0.999999997633467 -6.998452056475e-006 -6.84403917319388e-005
outer loop
vertex -2.98775825915509 13.2825345113671 21.4243814456334
vertex -3.0 35.0 30.837146
vertex -2.98732836312517 15.003811018609 21.6499879270281
endloop
endfacet
facet normal -0.999999997633467 -6.998452056475e-006 -6.84403917319388e-005
outer loop
vertex -2.98732836312517 15.003811018609 21.6499879270281
vertex -3.0 35.0 30.837146
vertex -2.9877620182074 16.7248278112306 21.4224087208204
endloop
endfacet
facet normal -0.999999997633467 -6.998452056475e-006 -6.84403917319388e-005
outer loop
vertex -2.9877620182074 16.7248278112306 21.4224087208204
vertex -3.0 35.0 30.837146
vertex -2.98902967152458 18.3283004389297 20.7571529738211
endloop
endfacet
facet normal -0.999999997633467 -6.998452056475e-006 -6.84403917319388e-005
outer loop
vertex -2.98902967152458 18.3283004389297 20.7571529738211
vertex -3.0 35.0 30.837146
vertex -2.99104493459803 19.7049548919922 19.6995567658009
endloop
endfacet
facet normal -0.999999997633467 -6.998452056475e-006 -6.84403917319388e-005
outer loop
vertex -2.99104493459803 19.7049548919922 19.6995567658009
vertex -3.0 35.0 30.837146
vertex -2.99367047057968 20.760974444471 18.3216935305763
endloop
endfacet
facet normal -0.999999997633467 -6.998452056475e-006 -6.84403917319388e-005
outer loop
vertex -2.99367047057968 20.760974444471 18.3216935305763
vertex -3.0 35.0 30.837146
vertex -2.99809449415494 21.3075546360138 16.9999963690343
endloop
endfacet
facet normal -0.999999997633467 -6.998452056475e-006 -6.84403917319388e-005
outer loop
vertex -2.99809449415494 21.3075546360138 16.9999963690343
vertex -3.0 35.0 30.837146
vertex -3.0 35.0 17.0
endloop
endfacet
facet normal -0.00106920312765195 -0.866251311338496 -0.499607368249316
outer loop
vertex -0.808026943040919 20.7609741596637 18.3168025461291
vertex -1.00000500691576 21.307554375647 16.9977625500245
vertex -0.812450966616181 21.3075543512065 16.9951053845871
endloop
endfacet
facet normal -0.000758635388917357 -0.924030520175367 -0.382317959631492
outer loop
vertex -1.00000500691576 21.307554375647 16.9977625500245
vertex -0.808026943040919 20.7609741596637 18.3168025461291
vertex -2.99809449415494 21.3075546360138 16.9999963690343
endloop
endfacet
facet normal -0.000758635388917357 -0.924030520175367 -0.382317959631492
outer loop
vertex -2.99809449415494 21.3075546360138 16.9999963690343
vertex -0.808026943040919 20.7609741596637 18.3168025461291
vertex -2.99367047057968 20.760974444471 18.3216935305763
endloop
endfacet
facet normal 0.0 0.0 1.0
outer loop
vertex 48.0 -4.0 30.837146
vertex -3.0 35.0 30.837146
vertex -3.0 -4.0 30.837146
endloop
endfacet
facet normal 0.0 0.0 1.0
outer loop
vertex -3.0 35.0 30.837146
vertex 48.0 -4.0 30.837146
vertex 48.0 35.0 30.837146
endloop
endfacet
facet normal 0.0 -0.0534438818389518 -0.998570854518589
outer loop
vertex 48.0 16.3510751151972 21.5596540842435
vertex 45.921957 14.6413491144497 21.427004217568
vertex 45.921957 16.3510751151972 21.5596540842435
endloop
endfacet
facet normal 0.0 0.206826329308324 -0.978377672223178
outer loop
vertex 45.921957 14.6413491144497 21.427004217568
vertex 48.0 16.3510751151972 21.5596540842435
vertex 48.0 14.6413491144497 21.427004217568
endloop
endfacet
facet normal 0.0 0.453001667909908 -0.891509668411309
outer loop
vertex 48.0 13.0242129262756 20.8563646345918
vertex 45.921957 11.6098717094552 19.8866234798684
vertex 45.921957 13.0242129262756 20.8563646345918
endloop
endfacet
facet normal 0.0 0.668305691464084 -0.743886753986595
outer loop
vertex 45.921957 11.6098717094552 19.8866234798684
vertex 48.0 13.0242129262756 20.8563646345918
vertex 48.0 11.6098717094552 19.8866234798684
endloop
endfacet
facet normal 1.71016584561884e-016 -0.891509668411309 -0.453001667909908
outer loop
vertex 48.0 21.8563646345918 17.9757870737244
vertex 46.0 22.2006910635566 17.0
vertex 48.0 22.2006910635566 17.0
endloop
endfacet
facet normal 3.39107027947159e-016 -0.943011262393074 -0.332760813497956
outer loop
vertex 46.0 22.2006910635566 17.0
vertex 48.0 21.8563646345918 17.9757870737244
vertex 45.921957 22.2006910635566 17.0
endloop
endfacet
facet normal 3.39107027947159e-016 -0.943011262393074 -0.332760813497956
outer loop
vertex 45.921957 22.2006910635566 17.0
vertex 48.0 21.8563646345918 17.9757870737244
vertex 45.921957 21.8563646345918 17.9757870737244
endloop
endfacet
facet normal 0.0 -1.0 0.0
outer loop
vertex 48.0 -4.0 30.837146
vertex -3.0 -4.0 17.0
vertex 48.0 -4.0 17.0
endloop
endfacet
facet normal 0.0 -1.0 0.0
outer loop
vertex -3.0 -4.0 17.0
vertex 48.0 -4.0 30.837146
vertex -3.0 -4.0 30.837146
endloop
endfacet
facet normal 0.0 -0.54556918660868 -0.838065786572357
outer loop
vertex 48.0 19.5838670105191 20.5052895193946
vertex 45.921957 18.0368759270232 21.2452743654188
vertex 45.921957 19.5838670105191 20.5052895193946
endloop
endfacet
facet normal 0.0 -0.310071980759095 -0.950713083294919
outer loop
vertex 45.921957 18.0368759270232 21.2452743654188
vertex 48.0 19.5838670105191 20.5052895193946
vertex 48.0 18.0368759270232 21.2452743654188
endloop
endfacet
facet normal 0.0 -0.743886753986595 -0.668305691464084
outer loop
vertex 48.0 20.8866234798684 19.3901282905448
vertex 45.921957 21.8563646345918 17.9757870737244
vertex 48.0 21.8563646345918 17.9757870737244
endloop
endfacet
facet normal 1.71016584561884e-016 -0.891509668411309 -0.453001667909908
outer loop
vertex 45.921957 21.8563646345918 17.9757870737244
vertex 48.0 20.8866234798684 19.3901282905448
vertex 45.921957 20.8866234798684 19.3901282905448
endloop
endfacet
facet normal -0.00193855878728763 0.499491635532282 -0.866316540314864
outer loop
vertex -2.98902240959316 11.6783004389297 20.7609639855112
vertex -0.805391137137369 10.3004344174038 19.7000553657723
vertex -2.99103466467613 10.3004347022111 19.7049463502195
endloop
endfacet
facet normal -0.00158312749897609 0.706715223462543 -0.707496350968406
outer loop
vertex -0.805391137137369 10.3004344174038 19.7000553657723
vertex -2.98902240959316 11.6783004389297 20.7609639855112
vertex -0.803378882054403 11.6783001541224 20.756073001064
endloop
endfacet
facet normal 1.14150785212728e-005 -4.31265282383822e-005 -0.999999999004899
outer loop
vertex 48.0 9.74784875832894 17.0
vertex 46.0 -2.0 17.0
vertex 46.0 9.74784875832894 17.0
endloop
endfacet
facet normal 1.14150785212728e-005 -4.31265282383822e-005 -0.999999999004899
outer loop
vertex -3.0 -4.0 17.0
vertex -1.0 -2.0 17.0
vertex 48.0 -4.0 17.0
endloop
endfacet
facet normal 1.14150785212728e-005 -4.31265282383822e-005 -0.999999999004899
outer loop
vertex -1.0 -2.0 17.0
vertex -3.0 -4.0 17.0
vertex -2.99809449415494 8.69174296313684 16.9999963690343
endloop
endfacet
facet normal 1.14150785212728e-005 -4.31265282383822e-005 -0.999999999004899
outer loop
vertex -1.0 -2.0 17.0
vertex -2.99809449415494 8.69174296313684 16.9999963690343
vertex -1.00000500691576 8.69174270277004 16.9977625500245
endloop
endfacet
facet normal 1.14150785212728e-005 -4.31265282383822e-005 -0.999999999004899
outer loop
vertex 48.0 -4.0 17.0
vertex -1.0 -2.0 17.0
vertex 46.0 -2.0 17.0
endloop
endfacet
facet normal 1.14150785212728e-005 -4.31265282383822e-005 -0.999999999004899
outer loop
vertex 48.0 -4.0 17.0
vertex 46.0 -2.0 17.0
vertex 48.0 9.74784875832894 17.0
endloop
endfacet
facet normal -0.0015814981024162 -0.707525677786223 -0.706685866659931
outer loop
vertex -0.805401407059271 19.7049546071849 19.6946657813537
vertex -2.99367047057968 20.760974444471 18.3216935305763
vertex -0.808026943040919 20.7609741596637 18.3168025461291
endloop
endfacet
facet normal -0.00106905574212794 -0.866283181086133 -0.499552106678684
outer loop
vertex -2.99367047057968 20.760974444471 18.3216935305763
vertex -0.805401407059271 19.7049546071849 19.6946657813537
vertex -2.99104493459803 19.7049548919922 19.6995567658009
endloop
endfacet
facet normal -0.00216121928962645 -0.259379453511243 -0.965773072842369
outer loop
vertex -0.802118490668647 16.7248275264234 21.4175177363732
vertex -2.98732836312517 15.003811018609 21.6499879270281
vertex -2.9877620182074 16.7248278112306 21.4224087208204
endloop
endfacet
facet normal -0.0022377718505017 -0.000573080384900297 -0.99999733197445
outer loop
vertex -2.98732836312517 15.003811018609 21.6499879270281
vertex -0.802118490668647 16.7248275264234 21.4175177363732
vertex -0.801684835586417 15.0038107338017 21.6450969425808
endloop
endfacet
facet normal 1.05252530428523e-005 4.68045129511941e-005 -0.999999998849278
outer loop
vertex -3.0 35.0 17.0
vertex -0.999999999999998 33.0 17.0
vertex -2.99809449415494 21.3075546360138 16.9999963690343
endloop
endfacet
facet normal 1.05252530428523e-005 4.68045129511941e-005 -0.999999998849278
outer loop
vertex -0.999999999999998 33.0 17.0
vertex -3.0 35.0 17.0
vertex 48.0 35.0 17.0
endloop
endfacet
facet normal 1.05252530428523e-005 4.68045129511941e-005 -0.999999998849278
outer loop
vertex -2.99809449415494 21.3075546360138 16.9999963690343
vertex -0.999999999999998 33.0 17.0
vertex -1.00000500691576 21.307554375647 16.9977625500245
endloop
endfacet
facet normal 1.05252530428523e-005 4.68045129511941e-005 -0.999999998849278
outer loop
vertex -0.999999999999998 33.0 17.0
vertex 48.0 35.0 17.0
vertex 46.0 33.0 17.0
endloop
endfacet
facet normal 1.05252530428523e-005 4.68045129511941e-005 -0.999999998849278
outer loop
vertex 46.0 33.0 17.0
vertex 48.0 35.0 17.0
vertex 46.0 22.2006910635566 17.0
endloop
endfacet
facet normal 1.05252530428523e-005 4.68045129511941e-005 -0.999999998849278
outer loop
vertex 46.0 22.2006910635566 17.0
vertex 48.0 35.0 17.0
vertex 48.0 22.2006910635566 17.0
endloop
endfacet
facet normal -0.0019373757683254 -0.50050815917894 -0.86572965131757
outer loop
vertex -0.803386143985821 18.3283001541224 20.7522619893738
vertex -2.9877620182074 16.7248278112306 21.4224087208204
vertex -2.98902967152458 18.3283004389297 20.7571529738211
endloop
endfacet
facet normal -0.00216122758862193 -0.259365641502441 -0.965776782234558
outer loop
vertex -2.9877620182074 16.7248278112306 21.4224087208204
vertex -0.803386143985821 18.3283001541224 20.7522619893738
vertex -0.802118490668647 16.7248275264234 21.4175177363732
endloop
endfacet
endsolid PulseGenBox-lid-x3
