solid PulseGenBox-lid-x4
facet normal 0.0 0.0 1.0
outer loop
vertex -3.0 -4.0 31.0
vertex 48.0 35.0 31.0
vertex -3.0 35.0 31.0
endloop
endfacet
facet normal 0.0 0.0 1.0
outer loop
vertex 48.0 35.0 31.0
vertex -3.0 -4.0 31.0
vertex 48.0 -4.0 31.0
endloop
endfacet
facet normal -1.0 -5.47292437945251e-018 -1.42071164519755e-017
outer loop
vertex -3.0 35.0 31.0
vertex -3.0 -4.0 17.0
vertex -3.0 -4.0 31.0
endloop
endfacet
facet normal -1.0 -5.47292437945251e-018 -1.42071164519755e-017
outer loop
vertex -3.0 -4.0 17.0
vertex -3.0 35.0 31.0
vertex -3.0 12.9965310614737 21.6026829558037
endloop
endfacet
facet normal -1.0 -5.47292437945251e-018 -1.42071164519755e-017
outer loop
vertex -3.0 -4.0 17.0
vertex -3.0 12.9965310614737 21.6026829558037
vertex -3.0 11.3558975123737 20.8591660722475
endloop
endfacet
facet normal -1.0 -5.47292437945251e-018 -1.42071164519755e-017
outer loop
vertex -3.0 -4.0 17.0
vertex -3.0 11.3558975123737 20.8591660722475
vertex -3.0 9.96360352564137 19.7163567035974
endloop
endfacet
facet normal -1.0 -5.47292437945251e-018 -1.42071164519755e-017
outer loop
vertex -3.0 -4.0 17.0
vertex -3.0 9.96360352564137 19.7163567035974
vertex -3.0 8.91453163559784 18.2521354197451
endloop
endfacet
facet normal -1.0 -5.47292437945251e-018 -1.42071164519755e-017
outer loop
vertex -3.0 -4.0 17.0
vertex -3.0 8.91453163559784 18.2521354197451
vertex -3.0 8.44337363433048 17.0
endloop
endfacet
facet normal -1.0 -5.47292437945251e-018 -1.42071164519755e-017
outer loop
vertex -3.0 12.9965310614737 21.6026829558037
vertex -3.0 35.0 31.0
vertex -3.0 14.7736977078453 21.8962379073713
endloop
endfacet
facet normal -1.0 -5.47292437945251e-018 -1.42071164519755e-017
outer loop
vertex -3.0 14.7736977078453 21.8962379073713
vertex -3.0 35.0 31.0
vertex -3.0 16.5662864814451 21.7198256421236
endloop
endfacet
facet normal -1.0 -5.47292437945251e-018 -1.42071164519755e-017
outer loop
vertex -3.0 16.5662864814451 21.7198256421236
vertex -3.0 35.0 31.0
vertex -3.0 18.2521354197451 21.0854683644022
endloop
endfacet
facet normal -1.0 -5.47292437945251e-018 -1.42071164519755e-017
outer loop
vertex -3.0 18.2521354197451 21.0854683644022
vertex -3.0 35.0 31.0
vertex -3.0 19.7163567035974 20.0363964743586
endloop
endfacet
facet normal -1.0 -5.47292437945251e-018 -1.42071164519755e-017
outer loop
vertex -3.0 19.7163567035974 20.0363964743586
vertex -3.0 35.0 31.0
vertex -3.0 20.8591660722475 18.6441024876263
endloop
endfacet
facet normal -1.0 -5.47292437945251e-018 -1.42071164519755e-017
outer loop
vertex -3.0 20.8591660722475 18.6441024876263
vertex -3.0 35.0 31.0
vertex -3.0 21.6026829558037 17.0034689385263
endloop
endfacet
facet normal -1.0 -5.47292437945251e-018 -1.42071164519755e-017
outer loop
vertex -3.0 21.6026829558037 17.0034689385263
vertex -3.0 35.0 31.0
vertex -3.0 35.0 17.0
endloop
endfacet
facet normal 1.84311534807052e-017 -1.0 5.32842503969806e-017
outer loop
vertex 48.0 -4.0 31.0
vertex -3.0 -4.0 17.0
vertex 48.0 -4.0 17.0
endloop
endfacet
facet normal 1.84311534807052e-017 -1.0 5.32842503969806e-017
outer loop
vertex -3.0 -4.0 17.0
vertex 48.0 -4.0 31.0
vertex -3.0 -4.0 31.0
endloop
endfacet
facet normal -0.0 1.0 -0.0
outer loop
vertex -3.0 35.0 31.0
vertex 48.0 35.0 17.0
vertex -3.0 35.0 17.0
endloop
endfacet
facet normal -0.0 1.0 -0.0
outer loop
vertex 48.0 35.0 17.0
vertex -3.0 35.0 31.0
vertex 48.0 35.0 31.0
endloop
endfacet
facet normal 0.0 0.0 -1.0
outer loop
vertex -1.00211852322048 33.0000000132385 29.0
vertex -1.0 -2.0 29.0
vertex -1.00231311446407 1.8601340056354 29.0
endloop
endfacet
facet normal 0.0 0.0 -1.0
outer loop
vertex -1.0 -2.0 29.0
vertex -1.00211852322048 33.0000000132385 29.0
vertex 46.0 33.0 29.0
endloop
endfacet
facet normal 0.0 0.0 -1.0
outer loop
vertex -1.0 -2.0 29.0
vertex 46.0 33.0 29.0
vertex 46.0 -2.0 29.0
endloop
endfacet
facet normal 1.0 -0.0 -0.0
outer loop
vertex 48.0 9.40278421652055 17.0
vertex 48.0 -4.0 31.0
vertex 48.0 -4.0 17.0
endloop
endfacet
facet normal 1.0 -0.0 -0.0
outer loop
vertex 48.0 -4.0 31.0
vertex 48.0 9.40278421652055 17.0
vertex 48.0 9.88867507394992 18.2828978013039
endloop
endfacet
facet normal 1.0 -0.0 -0.0
outer loop
vertex 48.0 -4.0 31.0
vertex 48.0 9.88867507394992 18.2828978013039
vertex 48.0 10.9465898951867 19.7527630530185
endloop
endfacet
facet normal 1.0 -0.0 -0.0
outer loop
vertex 48.0 -4.0 31.0
vertex 48.0 10.9465898951867 19.7527630530185
vertex 48.0 12.3488862639115 20.8987353569823
endloop
endfacet
facet normal 1.0 -0.0 -0.0
outer loop
vertex 48.0 -4.0 31.0
vertex 48.0 12.3488862639115 20.8987353569823
vertex 48.0 14.0 21.6427185944888
endloop
endfacet
facet normal 1.0 -0.0 -0.0
outer loop
vertex 48.0 -4.0 31.0
vertex 48.0 14.0 21.6427185944888
vertex 48.0 35.0 31.0
endloop
endfacet
facet normal 1.0 -0.0 -0.0
outer loop
vertex 48.0 35.0 31.0
vertex 48.0 14.0 21.6427185944888
vertex 48.0 15.7874104309322 21.9340115373924
endloop
endfacet
facet normal 1.0 -0.0 -0.0
outer loop
vertex 48.0 35.0 31.0
vertex 48.0 15.7874104309322 21.9340115373924
vertex 48.0 17.5893084896755 21.7527630530185
endloop
endfacet
facet normal 1.0 -0.0 -0.0
outer loop
vertex 48.0 35.0 31.0
vertex 48.0 17.5893084896755 21.7527630530185
vertex 48.0 19.2828978013039 21.1113249260501
endloop
endfacet
facet normal 1.0 -0.0 -0.0
outer loop
vertex 48.0 35.0 31.0
vertex 48.0 19.2828978013039 21.1113249260501
vertex 48.0 20.7527630530185 20.0534101048133
endloop
endfacet
facet normal 1.0 -0.0 -0.0
outer loop
vertex 48.0 35.0 31.0
vertex 48.0 20.7527630530185 20.0534101048133
vertex 48.0 21.8987353569823 18.6511137360885
endloop
endfacet
facet normal 1.0 -0.0 -0.0
outer loop
vertex 48.0 35.0 31.0
vertex 48.0 21.8987353569823 18.6511137360885
vertex 48.0 22.6427185944888 17.0
endloop
endfacet
facet normal 1.0 -0.0 -0.0
outer loop
vertex 48.0 35.0 31.0
vertex 48.0 22.6427185944888 17.0
vertex 48.0 35.0 17.0
endloop
endfacet
facet normal 0.0 -0.229097118568758 -0.973403570089761
outer loop
vertex 48.0 17.5893084896755 21.7527630530185
vertex 46.0 15.7874104309322 21.9340115373924
vertex 46.0 17.5893084896755 21.7527630530185
endloop
endfacet
facet normal 0.0 0.0306445589560458 -0.999530345215386
outer loop
vertex 46.0 15.7874104309322 21.9340115373924
vertex 48.0 17.5893084896755 21.7527630530185
vertex 48.0 15.7874104309322 21.9340115373924
endloop
endfacet
facet normal 0.0 -0.683534910194623 -0.729917821775321
outer loop
vertex -1.006258 19.7163567035974 20.0363964743586
vertex -3.0 20.8591660722475 18.6441024876263
vertex -1.006258 20.8591660722475 18.6441024876263
endloop
endfacet
facet normal 0.0 -0.849160656562366 -0.528134622370634
outer loop
vertex -3.0 20.8591660722475 18.6441024876263
vertex -1.006258 19.7163567035974 20.0363964743586
vertex -3.0 19.7163567035974 20.0363964743586
endloop
endfacet
facet normal 0.0 0.526304139151398 -0.850296391331932
outer loop
vertex 48.0 12.3488862639115 20.8987353569823
vertex 46.0 10.9465898951867 19.7527630530185
vertex 46.0 12.3488862639115 20.8987353569823
endloop
endfacet
facet normal 0.0 0.728443660547821 -0.68510570965924
outer loop
vertex 46.0 10.9465898951867 19.7527630530185
vertex 48.0 12.3488862639115 20.8987353569823
vertex 48.0 10.9465898951867 19.7527630530185
endloop
endfacet
facet normal -3.37490967373618e-005 -0.000150016854077572 -0.999999988177971
outer loop
vertex -3.0 35.0 17.0
vertex -1.0 33.0 17.0
vertex -3.0 21.6026829558037 17.0034689385263
endloop
endfacet
facet normal -3.37490967373618e-005 -0.000150016854077572 -0.999999988177971
outer loop
vertex -1.0 33.0 17.0
vertex -3.0 35.0 17.0
vertex 48.0 35.0 17.0
endloop
endfacet
facet normal -3.37490967373618e-005 -0.000150016854077572 -0.999999988177971
outer loop
vertex -3.0 21.6026829558037 17.0034689385263
vertex -1.0 33.0 17.0
vertex -1.006258 21.6026829558037 17.0034689385263
endloop
endfacet
facet normal -3.37490967373618e-005 -0.000150016854077572 -0.999999988177971
outer loop
vertex -1.0 33.0 17.0
vertex 48.0 35.0 17.0
vertex 46.0 33.0 17.0
endloop
endfacet
facet normal -3.37490967373618e-005 -0.000150016854077572 -0.999999988177971
outer loop
vertex 46.0 33.0 17.0
vertex 48.0 35.0 17.0
vertex 46.0 22.6427185944888 17.0
endloop
endfacet
facet normal -3.37490967373618e-005 -0.000150016854077572 -0.999999988177971
outer loop
vertex 46.0 22.6427185944888 17.0
vertex 48.0 35.0 17.0
vertex 48.0 22.6427185944888 17.0
endloop
endfacet
facet normal 0.0 -0.68510570965924 -0.728443660547821
outer loop
vertex 48.0 20.7527630530185 20.0534101048133
vertex 46.0 19.2828978013039 21.1113249260501
vertex 46.0 20.7527630530185 20.0534101048133
endloop
endfacet
facet normal 0.0 -0.473226206063989 -0.880940950287976
outer loop
vertex 46.0 19.2828978013039 21.1113249260501
vertex 48.0 20.7527630530185 20.0534101048133
vertex 48.0 19.2828978013039 21.1113249260501
endloop
endfacet
facet normal 0.0 0.0 -1.0
outer loop
vertex -1.006258 8.44337363433048 17.0
vertex -3.0 -4.0 17.0
vertex -3.0 8.44337363433048 17.0
endloop
endfacet
facet normal 0.0 0.0 -1.0
outer loop
vertex -3.0 -4.0 17.0
vertex -1.006258 8.44337363433048 17.0
vertex -1.0 -2.0 17.0
endloop
endfacet
facet normal 0.0 0.0 -1.0
outer loop
vertex -3.0 -4.0 17.0
vertex -1.0 -2.0 17.0
vertex 48.0 -4.0 17.0
endloop
endfacet
facet normal 0.0 0.0 -1.0
outer loop
vertex 48.0 -4.0 17.0
vertex -1.0 -2.0 17.0
vertex 46.0 -2.0 17.0
endloop
endfacet
facet normal 0.0 0.0 -1.0
outer loop
vertex 48.0 -4.0 17.0
vertex 46.0 -2.0 17.0
vertex 46.0 9.40278421652055 17.0
endloop
endfacet
facet normal 0.0 0.0 -1.0
outer loop
vertex 48.0 -4.0 17.0
vertex 46.0 9.40278421652055 17.0
vertex 48.0 9.40278421652055 17.0
endloop
endfacet
facet normal 0.0 0.880940950287977 -0.473226206063988
outer loop
vertex 46.0 9.88867507394992 18.2828978013039
vertex 48.0 9.40278421652055 17.0
vertex 46.0 9.40278421652055 17.0
endloop
endfacet
facet normal 0.0 0.93517279307305 -0.354191822457761
outer loop
vertex 48.0 9.40278421652055 17.0
vertex 46.0 9.88867507394992 18.2828978013039
vertex 48.0 9.88867507394992 18.2828978013039
endloop
endfacet
facet normal 0.0 0.728443660547821 -0.68510570965924
outer loop
vertex 46.0 10.9465898951867 19.7527630530185
vertex 48.0 9.88867507394992 18.2828978013039
vertex 46.0 9.88867507394992 18.2828978013039
endloop
endfacet
facet normal 0.0 0.880940950287977 -0.473226206063988
outer loop
vertex 48.0 9.88867507394992 18.2828978013039
vertex 46.0 10.9465898951867 19.7527630530185
vertex 48.0 10.9465898951867 19.7527630530185
endloop
endfacet
facet normal 0.0 -0.849160656562366 -0.528134622370634
outer loop
vertex -1.006258 20.8591660722475 18.6441024876263
vertex -3.0 21.6026829558037 17.0034689385263
vertex -1.006258 21.6026829558037 17.0034689385263
endloop
endfacet
facet normal 0.0 -0.910831370667182 -0.412778650378799
outer loop
vertex -3.0 21.6026829558037 17.0034689385263
vertex -1.006258 20.8591660722475 18.6441024876263
vertex -3.0 20.8591660722475 18.6441024876263
endloop
endfacet
facet normal 0.0 0.528134622370634 -0.849160656562366
outer loop
vertex -1.006258 11.3558975123737 20.8591660722475
vertex -3.0 9.96360352564137 19.7163567035974
vertex -3.0 11.3558975123737 20.8591660722475
endloop
endfacet
facet normal 0.0 0.729917821775321 -0.683534910194622
outer loop
vertex -3.0 9.96360352564137 19.7163567035974
vertex -1.006258 11.3558975123737 20.8591660722475
vertex -1.006258 9.96360352564137 19.7163567035974
endloop
endfacet
facet normal 0.0 0.290359921235118 -0.956917507489719
outer loop
vertex -1.006258 12.9965310614737 21.6026829558037
vertex -3.0 11.3558975123737 20.8591660722475
vertex -3.0 12.9965310614737 21.6026829558037
endloop
endfacet
facet normal 0.0 0.528134622370634 -0.849160656562366
outer loop
vertex -3.0 11.3558975123737 20.8591660722475
vertex -1.006258 12.9965310614737 21.6026829558037
vertex -1.006258 11.3558975123737 20.8591660722475
endloop
endfacet
facet normal 0.0 -0.850296391331931 -0.526304139151399
outer loop
vertex 48.0 21.8987353569823 18.6511137360885
vertex 46.0 22.6427185944888 17.0
vertex 48.0 22.6427185944888 17.0
endloop
endfacet
facet normal 0.0 -0.911718463063823 -0.410815584062413
outer loop
vertex 46.0 22.6427185944888 17.0
vertex 48.0 21.8987353569823 18.6511137360885
vertex 46.0 21.8987353569823 18.6511137360885
endloop
endfacet
facet normal 0.0 0.0306445589560458 -0.999530345215386
outer loop
vertex 48.0 15.7874104309322 21.9340115373924
vertex 46.0 14.0 21.6427185944888
vertex 46.0 15.7874104309322 21.9340115373924
endloop
endfacet
facet normal 0.0 0.288297860430522 -0.957540779116578
outer loop
vertex 46.0 14.0 21.6427185944888
vertex 48.0 15.7874104309322 21.9340115373924
vertex 48.0 14.0 21.6427185944888
endloop
endfacet
facet normal 0.0 -0.226999685714398 -0.973894831429742
outer loop
vertex -1.006258 16.5662864814451 21.7198256421236
vertex -3.0 14.7736977078453 21.8962379073713
vertex -3.0 16.5662864814451 21.7198256421236
endloop
endfacet
facet normal 0.0 0.0327976713098872 -0.999462011662599
outer loop
vertex -3.0 14.7736977078453 21.8962379073713
vertex -1.006258 16.5662864814451 21.7198256421236
vertex -1.006258 14.7736977078453 21.8962379073713
endloop
endfacet
facet normal 0.0 -0.68510570965924 -0.728443660547821
outer loop
vertex 48.0 20.7527630530185 20.0534101048133
vertex 46.0 21.8987353569823 18.6511137360885
vertex 48.0 21.8987353569823 18.6511137360885
endloop
endfacet
facet normal 0.0 -0.850296391331931 -0.526304139151399
outer loop
vertex 46.0 21.8987353569823 18.6511137360885
vertex 48.0 20.7527630530185 20.0534101048133
vertex 46.0 20.7527630530185 20.0534101048133
endloop
endfacet
facet normal 0.0 0.288297860430522 -0.957540779116578
outer loop
vertex 48.0 14.0 21.6427185944888
vertex 46.0 12.3488862639115 20.8987353569823
vertex 46.0 14.0 21.6427185944888
endloop
endfacet
facet normal 0.0 0.526304139151398 -0.850296391331932
outer loop
vertex 46.0 12.3488862639115 20.8987353569823
vertex 48.0 14.0 21.6427185944888
vertex 48.0 12.3488862639115 20.8987353569823
endloop
endfacet
facet normal 0.0 -0.473226206063989 -0.880940950287976
outer loop
vertex 48.0 19.2828978013039 21.1113249260501
vertex 46.0 17.5893084896755 21.7527630530185
vertex 46.0 19.2828978013039 21.1113249260501
endloop
endfacet
facet normal 0.0 -0.229097118568758 -0.973403570089761
outer loop
vertex 46.0 17.5893084896755 21.7527630530185
vertex 48.0 19.2828978013039 21.1113249260501
vertex 48.0 17.5893084896755 21.7527630530185
endloop
endfacet
facet normal 0.0 -0.683534910194623 -0.729917821775321
outer loop
vertex -1.006258 19.7163567035974 20.0363964743586
vertex -3.0 18.2521354197451 21.0854683644022
vertex -3.0 19.7163567035974 20.0363964743586
endloop
endfacet
facet normal 0.0 -0.471327389291964 -0.881958327872253
outer loop
vertex -3.0 18.2521354197451 21.0854683644022
vertex -1.006258 19.7163567035974 20.0363964743586
vertex -1.006258 18.2521354197451 21.0854683644022
endloop
endfacet
facet normal 0.0 0.881958327872253 -0.471327389291964
outer loop
vertex -3.0 8.91453163559784 18.2521354197451
vertex -1.006258 8.44337363433048 17.0
vertex -3.0 8.44337363433048 17.0
endloop
endfacet
facet normal 0.0 0.935933621528082 -0.352176455904321
outer loop
vertex -1.006258 8.44337363433048 17.0
vertex -3.0 8.91453163559784 18.2521354197451
vertex -1.006258 8.91453163559784 18.2521354197451
endloop
endfacet
facet normal 0.0 0.0327976713098872 -0.999462011662599
outer loop
vertex -1.006258 14.7736977078453 21.8962379073713
vertex -3.0 12.9965310614737 21.6026829558037
vertex -3.0 14.7736977078453 21.8962379073713
endloop
endfacet
facet normal 0.0 0.290359921235118 -0.956917507489719
outer loop
vertex -3.0 12.9965310614737 21.6026829558037
vertex -1.006258 14.7736977078453 21.8962379073713
vertex -1.006258 12.9965310614737 21.6026829558037
endloop
endfacet
facet normal 0.0 0.729917821775321 -0.683534910194622
outer loop
vertex -3.0 9.96360352564137 19.7163567035974
vertex -1.006258 8.91453163559784 18.2521354197451
vertex -3.0 8.91453163559784 18.2521354197451
endloop
endfacet
facet normal 0.0 0.881958327872253 -0.471327389291964
outer loop
vertex -1.006258 8.91453163559784 18.2521354197451
vertex -3.0 9.96360352564137 19.7163567035974
vertex -1.006258 9.96360352564137 19.7163567035974
endloop
endfacet
facet normal -2.24997325735205e-017 1.0 8.81239525796218e-017
outer loop
vertex -1.0 -2.0 29.0
vertex 46.0 -2.0 17.0
vertex -1.0 -2.0 17.0
endloop
endfacet
facet normal -2.24997325735205e-017 1.0 8.81239525796218e-017
outer loop
vertex 46.0 -2.0 17.0
vertex -1.0 -2.0 29.0
vertex 46.0 -2.0 29.0
endloop
endfacet
facet normal -1.40835485919785e-010 -1.0 5.51593221944194e-010
outer loop
vertex 46.0 33.0 29.0
vertex -1.0 33.0 17.0
vertex 46.0 33.0 17.0
endloop
endfacet
facet normal -1.40835485919785e-010 -1.0 5.51593221944194e-010
outer loop
vertex -1.0 33.0 17.0
vertex 46.0 33.0 29.0
vertex -1.00211852322048 33.0000000132385 29.0
endloop
endfacet
facet normal 0.0 -0.471327389291964 -0.881958327872253
outer loop
vertex -1.006258 18.2521354197451 21.0854683644022
vertex -3.0 16.5662864814451 21.7198256421236
vertex -3.0 18.2521354197451 21.0854683644022
endloop
endfacet
facet normal 0.0 -0.226999685714398 -0.973894831429742
outer loop
vertex -3.0 16.5662864814451 21.7198256421236
vertex -1.006258 18.2521354197451 21.0854683644022
vertex -1.006258 16.5662864814451 21.7198256421236
endloop
endfacet
facet normal -1.0 4.09715090116516e-018 -2.52962551524762e-016
outer loop
vertex 46.0 33.0 29.0
vertex 46.0 -2.0 17.0
vertex 46.0 -2.0 29.0
endloop
endfacet
facet normal -1.0 4.09715090116516e-018 -2.52962551524762e-016
outer loop
vertex 46.0 -2.0 17.0
vertex 46.0 33.0 29.0
vertex 46.0 14.0 21.6427185944888
endloop
endfacet
facet normal -1.0 4.09715090116516e-018 -2.52962551524762e-016
outer loop
vertex 46.0 -2.0 17.0
vertex 46.0 14.0 21.6427185944888
vertex 46.0 12.3488862639115 20.8987353569823
endloop
endfacet
facet normal -1.0 4.09715090116516e-018 -2.52962551524762e-016
outer loop
vertex 46.0 -2.0 17.0
vertex 46.0 12.3488862639115 20.8987353569823
vertex 46.0 10.9465898951867 19.7527630530185
endloop
endfacet
facet normal -1.0 4.09715090116516e-018 -2.52962551524762e-016
outer loop
vertex 46.0 -2.0 17.0
vertex 46.0 10.9465898951867 19.7527630530185
vertex 46.0 9.88867507394992 18.2828978013039
endloop
endfacet
facet normal -1.0 4.09715090116516e-018 -2.52962551524762e-016
outer loop
vertex 46.0 -2.0 17.0
vertex 46.0 9.88867507394992 18.2828978013039
vertex 46.0 9.40278421652055 17.0
endloop
endfacet
facet normal -1.0 4.09715090116516e-018 -2.52962551524762e-016
outer loop
vertex 46.0 14.0 21.6427185944888
vertex 46.0 33.0 29.0
vertex 46.0 15.7874104309322 21.9340115373924
endloop
endfacet
facet normal -1.0 4.09715090116516e-018 -2.52962551524762e-016
outer loop
vertex 46.0 15.7874104309322 21.9340115373924
vertex 46.0 33.0 29.0
vertex 46.0 17.5893084896755 21.7527630530185
endloop
endfacet
facet normal -1.0 4.09715090116516e-018 -2.52962551524762e-016
outer loop
vertex 46.0 17.5893084896755 21.7527630530185
vertex 46.0 33.0 29.0
vertex 46.0 19.2828978013039 21.1113249260501
endloop
endfacet
facet normal -1.0 4.09715090116516e-018 -2.52962551524762e-016
outer loop
vertex 46.0 19.2828978013039 21.1113249260501
vertex 46.0 33.0 29.0
vertex 46.0 20.7527630530185 20.0534101048133
endloop
endfacet
facet normal -1.0 4.09715090116516e-018 -2.52962551524762e-016
outer loop
vertex 46.0 20.7527630530185 20.0534101048133
vertex 46.0 33.0 29.0
vertex 46.0 21.8987353569823 18.6511137360885
endloop
endfacet
facet normal -1.0 4.09715090116516e-018 -2.52962551524762e-016
outer loop
vertex 46.0 21.8987353569823 18.6511137360885
vertex 46.0 33.0 29.0
vertex 46.0 22.6427185944888 17.0
endloop
endfacet
facet normal -1.0 4.09715090116516e-018 -2.52962551524762e-016
outer loop
vertex 46.0 22.6427185944888 17.0
vertex 46.0 33.0 29.0
vertex 46.0 33.0 17.0
endloop
endfacet
facet normal 0.999999977272232 2.23292756641173e-005 -0.000212030513115439
outer loop
vertex -1.0 -2.0 17.0
vertex -1.00231311446407 1.8601340056354 29.0
vertex -1.0 -2.0 29.0
endloop
endfacet
facet normal 0.999999977272232 2.23292756641173e-005 -0.000212030513115439
outer loop
vertex -1.00231311446407 1.8601340056354 29.0
vertex -1.0 -2.0 17.0
vertex -1.006258 8.44337363433048 17.0
endloop
endfacet
facet normal 0.999999977272232 2.23292756641173e-005 -0.000212030513115439
outer loop
vertex -1.00231311446407 1.8601340056354 29.0
vertex -1.006258 8.44337363433048 17.0
vertex -1.006258 8.91453163559784 18.2521354197451
endloop
endfacet
facet normal 0.999999977272232 2.23292756641173e-005 -0.000212030513115439
outer loop
vertex -1.00231311446407 1.8601340056354 29.0
vertex -1.006258 8.91453163559784 18.2521354197451
vertex -1.006258 9.96360352564137 19.7163567035974
endloop
endfacet
facet normal 0.999999977272232 2.23292756641173e-005 -0.000212030513115439
outer loop
vertex -1.00231311446407 1.8601340056354 29.0
vertex -1.006258 9.96360352564137 19.7163567035974
vertex -1.006258 11.3558975123737 20.8591660722475
endloop
endfacet
facet normal 0.999999977272232 2.23292756641173e-005 -0.000212030513115439
outer loop
vertex -1.00231311446407 1.8601340056354 29.0
vertex -1.006258 11.3558975123737 20.8591660722475
vertex -1.006258 12.9965310614737 21.6026829558037
endloop
endfacet
facet normal 0.999999977272232 2.23292756641173e-005 -0.000212030513115439
outer loop
vertex -1.00231311446407 1.8601340056354 29.0
vertex -1.006258 12.9965310614737 21.6026829558037
vertex -1.00211852322048 33.0000000132385 29.0
endloop
endfacet
facet normal 0.999999977272232 2.23292756641173e-005 -0.000212030513115439
outer loop
vertex -1.00211852322048 33.0000000132385 29.0
vertex -1.006258 12.9965310614737 21.6026829558037
vertex -1.006258 14.7736977078453 21.8962379073713
endloop
endfacet
facet normal 0.999999977272232 2.23292756641173e-005 -0.000212030513115439
outer loop
vertex -1.00211852322048 33.0000000132385 29.0
vertex -1.006258 14.7736977078453 21.8962379073713
vertex -1.006258 16.5662864814451 21.7198256421236
endloop
endfacet
facet normal 0.999999977272232 2.23292756641173e-005 -0.000212030513115439
outer loop
vertex -1.00211852322048 33.0000000132385 29.0
vertex -1.006258 16.5662864814451 21.7198256421236
vertex -1.006258 18.2521354197451 21.0854683644022
endloop
endfacet
facet normal 0.999999977272232 2.23292756641173e-005 -0.000212030513115439
outer loop
vertex -1.00211852322048 33.0000000132385 29.0
vertex -1.006258 18.2521354197451 21.0854683644022
vertex -1.006258 19.7163567035974 20.0363964743586
endloop
endfacet
facet normal 0.999999977272232 2.23292756641173e-005 -0.000212030513115439
outer loop
vertex -1.00211852322048 33.0000000132385 29.0
vertex -1.006258 19.7163567035974 20.0363964743586
vertex -1.006258 20.8591660722475 18.6441024876263
endloop
endfacet
facet normal 0.999999977272232 2.23292756641173e-005 -0.000212030513115439
outer loop
vertex -1.00211852322048 33.0000000132385 29.0
vertex -1.006258 20.8591660722475 18.6441024876263
vertex -1.006258 21.6026829558037 17.0034689385263
endloop
endfacet
facet normal 0.999999977272232 2.23292756641173e-005 -0.000212030513115439
outer loop
vertex -1.00211852322048 33.0000000132385 29.0
vertex -1.006258 21.6026829558037 17.0034689385263
vertex -1.0 33.0 17.0
endloop
endfacet
endsolid PulseGenBox-lid-x4
