solid LightSwitchCover
facet normal -1.0 0.0 1.04083408558608e-016
outer loop
vertex 36.0 22.0 36.0
vertex 36.0 7.41411047216403 19.5454813220625
vertex 36.0 7.0 19.6
endloop
endfacet
facet normal -1.0 0.0 1.04083408558608e-016
outer loop
vertex 36.0 7.41411047216403 19.5454813220625
vertex 36.0 22.0 36.0
vertex 36.0 7.8 19.3856406460551
endloop
endfacet
facet normal -1.0 0.0 1.04083408558608e-016
outer loop
vertex 36.0 7.8 19.3856406460551
vertex 36.0 22.0 36.0
vertex 36.0 8.13137084989847 19.1313708498985
endloop
endfacet
facet normal -1.0 0.0 1.04083408558608e-016
outer loop
vertex 36.0 8.13137084989847 19.1313708498985
vertex 36.0 22.0 36.0
vertex 36.0 8.3856406460551 18.8
endloop
endfacet
facet normal -1.0 0.0 1.04083408558608e-016
outer loop
vertex 36.0 8.3856406460551 18.8
vertex 36.0 22.0 36.0
vertex 36.0 22.0 5.63993296509579e-015
endloop
endfacet
facet normal -1.0 0.0 1.04083408558608e-016
outer loop
vertex 36.0 8.3856406460551 18.8
vertex 36.0 22.0 5.63993296509579e-015
vertex 36.0 8.54548132206251 18.414110472164
endloop
endfacet
facet normal -1.0 0.0 1.04083408558608e-016
outer loop
vertex 36.0 8.54548132206251 18.414110472164
vertex 36.0 22.0 5.63993296509579e-015
vertex 36.0 8.6 18.0
endloop
endfacet
facet normal -1.0 0.0 1.04083408558608e-016
outer loop
vertex 36.0 8.6 18.0
vertex 36.0 22.0 5.63993296509579e-015
vertex 36.0 8.54548132206251 17.585889527836
endloop
endfacet
facet normal -1.0 0.0 1.04083408558608e-016
outer loop
vertex 36.0 8.54548132206251 17.585889527836
vertex 36.0 22.0 5.63993296509579e-015
vertex 36.0 8.3856406460551 17.2
endloop
endfacet
facet normal -1.0 0.0 1.04083408558608e-016
outer loop
vertex 36.0 8.3856406460551 17.2
vertex 36.0 22.0 5.63993296509579e-015
vertex 36.0 8.13137084989847 16.8686291501015
endloop
endfacet
facet normal -1.0 0.0 1.04083408558608e-016
outer loop
vertex 36.0 8.13137084989847 16.8686291501015
vertex 36.0 22.0 5.63993296509579e-015
vertex 36.0 7.8 16.6143593539449
endloop
endfacet
facet normal -1.0 0.0 1.04083408558608e-016
outer loop
vertex 36.0 7.8 16.6143593539449
vertex 36.0 22.0 5.63993296509579e-015
vertex 36.0 7.41411047216403 16.4545186779375
endloop
endfacet
facet normal -1.0 0.0 1.04083408558608e-016
outer loop
vertex 36.0 7.41411047216403 16.4545186779375
vertex 36.0 22.0 5.63993296509579e-015
vertex 36.0 7.0 16.4
endloop
endfacet
facet normal -1.0 0.0 1.04083408558608e-016
outer loop
vertex 36.0 0.0 36.0
vertex 36.0 5.45451867793749 18.414110472164
vertex 36.0 0.0 5.63993296509579e-015
endloop
endfacet
facet normal -1.0 0.0 1.04083408558608e-016
outer loop
vertex 36.0 5.45451867793749 18.414110472164
vertex 36.0 0.0 36.0
vertex 36.0 5.6143593539449 18.8
endloop
endfacet
facet normal -1.0 0.0 1.04083408558608e-016
outer loop
vertex 36.0 5.6143593539449 18.8
vertex 36.0 0.0 36.0
vertex 36.0 5.86862915010152 19.1313708498985
endloop
endfacet
facet normal -1.0 0.0 1.04083408558608e-016
outer loop
vertex 36.0 5.86862915010152 19.1313708498985
vertex 36.0 0.0 36.0
vertex 36.0 22.0 36.0
endloop
endfacet
facet normal -1.0 0.0 1.04083408558608e-016
outer loop
vertex 36.0 5.86862915010152 19.1313708498985
vertex 36.0 22.0 36.0
vertex 36.0 6.2 19.3856406460551
endloop
endfacet
facet normal -1.0 0.0 1.04083408558608e-016
outer loop
vertex 36.0 6.2 19.3856406460551
vertex 36.0 22.0 36.0
vertex 36.0 6.58588952783597 19.5454813220625
endloop
endfacet
facet normal -1.0 0.0 1.04083408558608e-016
outer loop
vertex 36.0 6.58588952783597 19.5454813220625
vertex 36.0 22.0 36.0
vertex 36.0 7.0 19.6
endloop
endfacet
facet normal -1.0 0.0 1.04083408558608e-016
outer loop
vertex 36.0 0.0 5.63993296509579e-015
vertex 36.0 5.45451867793749 18.414110472164
vertex 36.0 5.4 18.0
endloop
endfacet
facet normal -1.0 0.0 1.04083408558608e-016
outer loop
vertex 36.0 0.0 5.63993296509579e-015
vertex 36.0 5.4 18.0
vertex 36.0 5.45451867793749 17.585889527836
endloop
endfacet
facet normal -1.0 0.0 1.04083408558608e-016
outer loop
vertex 36.0 0.0 5.63993296509579e-015
vertex 36.0 5.45451867793749 17.585889527836
vertex 36.0 5.6143593539449 17.2
endloop
endfacet
facet normal -1.0 0.0 1.04083408558608e-016
outer loop
vertex 36.0 0.0 5.63993296509579e-015
vertex 36.0 5.6143593539449 17.2
vertex 36.0 5.86862915010152 16.8686291501015
endloop
endfacet
facet normal -1.0 0.0 1.04083408558608e-016
outer loop
vertex 36.0 0.0 5.63993296509579e-015
vertex 36.0 5.86862915010152 16.8686291501015
vertex 36.0 6.2 16.6143593539449
endloop
endfacet
facet normal -1.0 0.0 1.04083408558608e-016
outer loop
vertex 36.0 0.0 5.63993296509579e-015
vertex 36.0 6.2 16.6143593539449
vertex 36.0 6.58588952783597 16.4545186779375
endloop
endfacet
facet normal -1.0 0.0 1.04083408558608e-016
outer loop
vertex 36.0 0.0 5.63993296509579e-015
vertex 36.0 6.58588952783597 16.4545186779375
vertex 36.0 7.0 16.4
endloop
endfacet
facet normal -1.0 0.0 1.04083408558608e-016
outer loop
vertex 36.0 0.0 5.63993296509579e-015
vertex 36.0 7.0 16.4
vertex 36.0 22.0 5.63993296509579e-015
endloop
endfacet
facet normal -1.04083408558608e-016 0.0 -1.0
outer loop
vertex 36.0 22.0 5.63993296509579e-015
vertex 40.0 0.0 5.63993296509579e-015
vertex 36.0 0.0 5.63993296509579e-015
endloop
endfacet
facet normal -1.04083408558608e-016 0.0 -1.0
outer loop
vertex 40.0 0.0 5.63993296509579e-015
vertex 36.0 22.0 5.63993296509579e-015
vertex 40.0 18.0 5.63993296509579e-015
endloop
endfacet
facet normal -1.04083408558608e-016 0.0 -1.0
outer loop
vertex 40.0 18.0 5.63993296509579e-015
vertex 36.0 22.0 5.63993296509579e-015
vertex 60.0 18.0 5.63993296509579e-015
endloop
endfacet
facet normal -1.04083408558608e-016 0.0 -1.0
outer loop
vertex 60.0 18.0 5.63993296509579e-015
vertex 36.0 22.0 5.63993296509579e-015
vertex 60.5221047688802 18.0342205545048 5.63993296509579e-015
endloop
endfacet
facet normal -1.04083408558608e-016 0.0 -1.0
outer loop
vertex 60.5221047688802 18.0342205545048 5.63993296509579e-015
vertex 36.0 22.0 5.63993296509579e-015
vertex 61.0352761804101 18.1362966948437 5.63993296509579e-015
endloop
endfacet
facet normal -1.04083408558608e-016 0.0 -1.0
outer loop
vertex 61.0352761804101 18.1362966948437 5.63993296509579e-015
vertex 36.0 22.0 5.63993296509579e-015
vertex 61.5307337294603 18.3044818699549 5.63993296509579e-015
endloop
endfacet
facet normal -1.04083408558608e-016 0.0 -1.0
outer loop
vertex 61.5307337294603 18.3044818699549 5.63993296509579e-015
vertex 36.0 22.0 5.63993296509579e-015
vertex 62.0 18.5358983848622 5.63993296509579e-015
endloop
endfacet
facet normal -1.04083408558608e-016 0.0 -1.0
outer loop
vertex 62.0 18.5358983848622 5.63993296509579e-015
vertex 36.0 22.0 5.63993296509579e-015
vertex 62.4350457160349 18.8265866388351 5.63993296509579e-015
endloop
endfacet
facet normal -1.04083408558608e-016 0.0 -1.0
outer loop
vertex 62.4350457160349 18.8265866388351 5.63993296509579e-015
vertex 36.0 22.0 5.63993296509579e-015
vertex 62.8284271247462 19.1715728752538 5.63993296509579e-015
endloop
endfacet
facet normal -1.04083408558608e-016 0.0 -1.0
outer loop
vertex 62.8284271247462 19.1715728752538 5.63993296509579e-015
vertex 36.0 22.0 5.63993296509579e-015
vertex 63.1734133611649 19.5649542839651 0.0
endloop
endfacet
facet normal -1.04083408558608e-016 0.0 -1.0
outer loop
vertex 63.1734133611649 19.5649542839651 0.0
vertex 36.0 22.0 5.63993296509579e-015
vertex 63.4641016151377 20.0 0.0
endloop
endfacet
facet normal -1.04083408558608e-016 0.0 -1.0
outer loop
vertex 63.4641016151377 20.0 0.0
vertex 36.0 22.0 5.63993296509579e-015
vertex 63.6955181300451 20.4692662705396 0.0
endloop
endfacet
facet normal -1.04083408558608e-016 0.0 -1.0
outer loop
vertex 63.6955181300451 20.4692662705396 0.0
vertex 36.0 22.0 5.63993296509579e-015
vertex 63.8637033051563 20.9647238195899 0.0
endloop
endfacet
facet normal -1.04083408558608e-016 0.0 -1.0
outer loop
vertex 63.8637033051563 20.9647238195899 0.0
vertex 36.0 22.0 5.63993296509579e-015
vertex 63.9657794454952 21.4778952311198 0.0
endloop
endfacet
facet normal -1.04083408558608e-016 0.0 -1.0
outer loop
vertex 63.9657794454952 21.4778952311198 0.0
vertex 36.0 22.0 5.63993296509579e-015
vertex 64.0 22.0 0.0
endloop
endfacet
facet normal -1.04083408558608e-016 0.0 -1.0
outer loop
vertex 64.0 22.0 0.0
vertex 36.0 22.0 5.63993296509579e-015
vertex 57.0 22.0 5.63993296509579e-015
endloop
endfacet
facet normal -1.04083408558608e-016 0.0 -1.0
outer loop
vertex 64.0 22.0 0.0
vertex 57.0 22.0 5.63993296509579e-015
vertex 57.3915785766601 22.0256654158786 5.63993296509579e-015
endloop
endfacet
facet normal -1.04083408558608e-016 0.0 -1.0
outer loop
vertex 64.0 22.0 0.0
vertex 57.3915785766601 22.0256654158786 5.63993296509579e-015
vertex 57.7764571353076 22.1022225211328 5.63993296509579e-015
endloop
endfacet
facet normal -1.04083408558608e-016 0.0 -1.0
outer loop
vertex 64.0 22.0 0.0
vertex 57.7764571353076 22.1022225211328 5.63993296509579e-015
vertex 58.1480502970953 22.2283614024661 5.63993296509579e-015
endloop
endfacet
facet normal -1.04083408558608e-016 0.0 -1.0
outer loop
vertex 64.0 22.0 0.0
vertex 58.1480502970953 22.2283614024661 5.63993296509579e-015
vertex 58.5 22.4019237886467 5.63993296509579e-015
endloop
endfacet
facet normal -1.04083408558608e-016 0.0 -1.0
outer loop
vertex 64.0 22.0 0.0
vertex 58.5 22.4019237886467 5.63993296509579e-015
vertex 58.8262842870261 22.6199399791263 5.63993296509579e-015
endloop
endfacet
facet normal -1.04083408558608e-016 0.0 -1.0
outer loop
vertex 64.0 22.0 0.0
vertex 58.8262842870261 22.6199399791263 5.63993296509579e-015
vertex 59.1213203435596 22.8786796564404 5.63993296509579e-015
endloop
endfacet
facet normal -1.04083408558608e-016 0.0 -1.0
outer loop
vertex 64.0 22.0 0.0
vertex 59.1213203435596 22.8786796564404 5.63993296509579e-015
vertex 59.3800600208737 23.1737157129738 5.63993296509579e-015
endloop
endfacet
facet normal -1.04083408558608e-016 0.0 -1.0
outer loop
vertex 64.0 22.0 0.0
vertex 59.3800600208737 23.1737157129738 5.63993296509579e-015
vertex 59.5980762113533 23.5 5.63993296509579e-015
endloop
endfacet
facet normal -1.04083408558608e-016 0.0 -1.0
outer loop
vertex 64.0 22.0 0.0
vertex 59.5980762113533 23.5 5.63993296509579e-015
vertex 59.7716385975339 23.8519497029047 5.63993296509579e-015
endloop
endfacet
facet normal -1.04083408558608e-016 0.0 -1.0
outer loop
vertex 64.0 22.0 0.0
vertex 59.7716385975339 23.8519497029047 5.63993296509579e-015
vertex 59.8977774788672 24.2235428646924 5.63993296509579e-015
endloop
endfacet
facet normal -1.04083408558608e-016 0.0 -1.0
outer loop
vertex 64.0 22.0 0.0
vertex 59.8977774788672 24.2235428646924 5.63993296509579e-015
vertex 59.9743345841214 24.6084214233398 5.63993296509579e-015
endloop
endfacet
facet normal -1.04083408558608e-016 0.0 -1.0
outer loop
vertex 64.0 22.0 0.0
vertex 59.9743345841214 24.6084214233398 5.63993296509579e-015
vertex 64.0 53.0 0.0
endloop
endfacet
facet normal -1.04083408558608e-016 0.0 -1.0
outer loop
vertex 64.0 53.0 0.0
vertex 59.9743345841214 24.6084214233398 5.63993296509579e-015
vertex 60.0 25.0 5.63993296509579e-015
endloop
endfacet
facet normal -1.04083408558608e-016 0.0 -1.0
outer loop
vertex 64.0 53.0 0.0
vertex 60.0 25.0 5.63993296509579e-015
vertex 60.0 50.0 5.63993296509579e-015
endloop
endfacet
facet normal -1.04083408558608e-016 0.0 -1.0
outer loop
vertex 64.0 53.0 0.0
vertex 60.0 50.0 5.63993296509579e-015
vertex 59.9743345841214 50.3915785766601 5.63993296509579e-015
endloop
endfacet
facet normal -1.04083408558608e-016 0.0 -1.0
outer loop
vertex 64.0 53.0 0.0
vertex 59.9743345841214 50.3915785766601 5.63993296509579e-015
vertex 59.8977774788672 50.7764571353076 5.63993296509579e-015
endloop
endfacet
facet normal -1.04083408558608e-016 0.0 -1.0
outer loop
vertex 64.0 53.0 0.0
vertex 59.8977774788672 50.7764571353076 5.63993296509579e-015
vertex 59.7716385975339 51.1480502970953 5.63993296509579e-015
endloop
endfacet
facet normal -1.04083408558608e-016 0.0 -1.0
outer loop
vertex 64.0 53.0 0.0
vertex 59.7716385975339 51.1480502970953 5.63993296509579e-015
vertex 59.5980762113533 51.5 5.63993296509579e-015
endloop
endfacet
facet normal -1.04083408558608e-016 0.0 -1.0
outer loop
vertex 64.0 53.0 0.0
vertex 59.5980762113533 51.5 5.63993296509579e-015
vertex 59.3800600208737 51.8262842870262 5.63993296509579e-015
endloop
endfacet
facet normal -1.04083408558608e-016 0.0 -1.0
outer loop
vertex 64.0 53.0 0.0
vertex 59.3800600208737 51.8262842870262 5.63993296509579e-015
vertex 59.1213203435596 52.1213203435596 5.63993296509579e-015
endloop
endfacet
facet normal -1.04083408558608e-016 0.0 -1.0
outer loop
vertex 64.0 53.0 0.0
vertex 59.1213203435596 52.1213203435596 5.63993296509579e-015
vertex 58.8262842870262 52.3800600208737 5.63993296509579e-015
endloop
endfacet
facet normal -1.04083408558608e-016 0.0 -1.0
outer loop
vertex 64.0 53.0 0.0
vertex 58.8262842870262 52.3800600208737 5.63993296509579e-015
vertex 58.5 52.5980762113533 5.63993296509579e-015
endloop
endfacet
facet normal -1.04083408558608e-016 0.0 -1.0
outer loop
vertex 64.0 53.0 0.0
vertex 58.5 52.5980762113533 5.63993296509579e-015
vertex 58.1480502970953 52.7716385975339 5.63993296509579e-015
endloop
endfacet
facet normal -1.04083408558608e-016 0.0 -1.0
outer loop
vertex 64.0 53.0 0.0
vertex 58.1480502970953 52.7716385975339 5.63993296509579e-015
vertex 57.7764571353076 52.8977774788672 5.63993296509579e-015
endloop
endfacet
facet normal -1.04083408558608e-016 0.0 -1.0
outer loop
vertex 64.0 53.0 0.0
vertex 57.7764571353076 52.8977774788672 5.63993296509579e-015
vertex 57.3915785766601 52.9743345841214 5.63993296509579e-015
endloop
endfacet
facet normal -1.04083408558608e-016 0.0 -1.0
outer loop
vertex 64.0 53.0 0.0
vertex 57.3915785766601 52.9743345841214 5.63993296509579e-015
vertex 57.0 53.0 5.63993296509579e-015
endloop
endfacet
facet normal -1.04083408558608e-016 0.0 -1.0
outer loop
vertex 64.0 53.0 0.0
vertex 57.0 53.0 5.63993296509579e-015
vertex 63.9657794454952 53.5221047688802 0.0
endloop
endfacet
facet normal -1.04083408558608e-016 0.0 -1.0
outer loop
vertex 63.9657794454952 53.5221047688802 0.0
vertex 57.0 53.0 5.63993296509579e-015
vertex 36.0 53.0 5.63993296509579e-015
endloop
endfacet
facet normal -1.04083408558608e-016 0.0 -1.0
outer loop
vertex 63.9657794454952 53.5221047688802 0.0
vertex 36.0 53.0 5.63993296509579e-015
vertex 40.0 57.0 5.63993296509579e-015
endloop
endfacet
facet normal -1.04083408558608e-016 0.0 -1.0
outer loop
vertex 40.0 57.0 5.63993296509579e-015
vertex 36.0 53.0 5.63993296509579e-015
vertex 36.0 75.0 5.63993296509579e-015
endloop
endfacet
facet normal -1.04083408558608e-016 0.0 -1.0
outer loop
vertex 63.9657794454952 53.5221047688802 0.0
vertex 40.0 57.0 5.63993296509579e-015
vertex 63.8637033051563 54.0352761804101 0.0
endloop
endfacet
facet normal -1.04083408558608e-016 0.0 -1.0
outer loop
vertex 63.8637033051563 54.0352761804101 0.0
vertex 40.0 57.0 5.63993296509579e-015
vertex 63.6955181300451 54.5307337294604 0.0
endloop
endfacet
facet normal -1.04083408558608e-016 0.0 -1.0
outer loop
vertex 63.6955181300451 54.5307337294604 0.0
vertex 40.0 57.0 5.63993296509579e-015
vertex 63.4641016151377 55.0 0.0
endloop
endfacet
facet normal -1.04083408558608e-016 0.0 -1.0
outer loop
vertex 63.4641016151377 55.0 0.0
vertex 40.0 57.0 5.63993296509579e-015
vertex 63.1734133611649 55.4350457160349 0.0
endloop
endfacet
facet normal -1.04083408558608e-016 0.0 -1.0
outer loop
vertex 63.1734133611649 55.4350457160349 0.0
vertex 40.0 57.0 5.63993296509579e-015
vertex 62.8284271247462 55.8284271247462 5.63993296509579e-015
endloop
endfacet
facet normal -1.04083408558608e-016 0.0 -1.0
outer loop
vertex 62.8284271247462 55.8284271247462 5.63993296509579e-015
vertex 40.0 57.0 5.63993296509579e-015
vertex 62.4350457160349 56.1734133611649 5.63993296509579e-015
endloop
endfacet
facet normal -1.04083408558608e-016 0.0 -1.0
outer loop
vertex 62.4350457160349 56.1734133611649 5.63993296509579e-015
vertex 40.0 57.0 5.63993296509579e-015
vertex 62.0 56.4641016151378 5.63993296509579e-015
endloop
endfacet
facet normal -1.04083408558608e-016 0.0 -1.0
outer loop
vertex 62.0 56.4641016151378 5.63993296509579e-015
vertex 40.0 57.0 5.63993296509579e-015
vertex 61.5307337294603 56.6955181300451 5.63993296509579e-015
endloop
endfacet
facet normal -1.04083408558608e-016 0.0 -1.0
outer loop
vertex 61.5307337294603 56.6955181300451 5.63993296509579e-015
vertex 40.0 57.0 5.63993296509579e-015
vertex 61.0352761804101 56.8637033051563 5.63993296509579e-015
endloop
endfacet
facet normal -1.04083408558608e-016 0.0 -1.0
outer loop
vertex 61.0352761804101 56.8637033051563 5.63993296509579e-015
vertex 40.0 57.0 5.63993296509579e-015
vertex 60.5221047688802 56.9657794454952 5.63993296509579e-015
endloop
endfacet
facet normal -1.04083408558608e-016 0.0 -1.0
outer loop
vertex 60.5221047688802 56.9657794454952 5.63993296509579e-015
vertex 40.0 57.0 5.63993296509579e-015
vertex 60.0 57.0 5.63993296509579e-015
endloop
endfacet
facet normal -1.04083408558608e-016 0.0 -1.0
outer loop
vertex 40.0 57.0 5.63993296509579e-015
vertex 36.0 75.0 5.63993296509579e-015
vertex 40.0 75.0 5.63993296509579e-015
endloop
endfacet
facet normal 0.0 -1.0 -0.0
outer loop
vertex 40.0 0.0 5.63993296509579e-015
vertex 36.0 0.0 36.0
vertex 36.0 0.0 5.63993296509579e-015
endloop
endfacet
facet normal 0.0 -1.0 -0.0
outer loop
vertex 36.0 0.0 36.0
vertex 40.0 0.0 5.63993296509579e-015
vertex 40.0 0.0 36.0
endloop
endfacet
facet normal 8.06689575860248e-016 -8.60584008125429e-017 1.0
outer loop
vertex 60.5221047688802 18.0342205545048 36.0
vertex 40.0 18.0 36.0
vertex 60.0 18.0 36.0
endloop
endfacet
facet normal 8.06689575860248e-016 -8.60584008125429e-017 1.0
outer loop
vertex 64.0 22.0 36.0
vertex 57.3915785766602 22.0256654158786 36.0
vertex 57.0 22.0 36.0
endloop
endfacet
facet normal 8.06689575860248e-016 -8.60584008125429e-017 1.0
outer loop
vertex 57.3915785766602 22.0256654158786 36.0
vertex 64.0 22.0 36.0
vertex 57.7764571353076 22.1022225211328 36.0
endloop
endfacet
facet normal 8.06689575860248e-016 -8.60584008125429e-017 1.0
outer loop
vertex 57.7764571353076 22.1022225211328 36.0
vertex 64.0 22.0 36.0
vertex 58.1480502970953 22.2283614024661 36.0
endloop
endfacet
facet normal 8.06689575860248e-016 -8.60584008125429e-017 1.0
outer loop
vertex 58.1480502970953 22.2283614024661 36.0
vertex 64.0 22.0 36.0
vertex 58.5 22.4019237886467 36.0
endloop
endfacet
facet normal 8.06689575860248e-016 -8.60584008125429e-017 1.0
outer loop
vertex 58.5 22.4019237886467 36.0
vertex 64.0 22.0 36.0
vertex 58.8262842870262 22.6199399791263 36.0
endloop
endfacet
facet normal 8.06689575860248e-016 -8.60584008125429e-017 1.0
outer loop
vertex 58.8262842870262 22.6199399791263 36.0
vertex 64.0 22.0 36.0
vertex 59.1213203435596 22.8786796564404 36.0
endloop
endfacet
facet normal 8.06689575860248e-016 -8.60584008125429e-017 1.0
outer loop
vertex 59.1213203435596 22.8786796564404 36.0
vertex 64.0 22.0 36.0
vertex 59.3800600208737 23.1737157129738 36.0
endloop
endfacet
facet normal 8.06689575860248e-016 -8.60584008125429e-017 1.0
outer loop
vertex 59.3800600208737 23.1737157129738 36.0
vertex 64.0 22.0 36.0
vertex 59.5980762113533 23.5 36.0
endloop
endfacet
facet normal 8.06689575860248e-016 -8.60584008125429e-017 1.0
outer loop
vertex 59.5980762113533 23.5 36.0
vertex 64.0 22.0 36.0
vertex 59.7716385975339 23.8519497029047 36.0
endloop
endfacet
facet normal 8.06689575860248e-016 -8.60584008125429e-017 1.0
outer loop
vertex 59.7716385975339 23.8519497029047 36.0
vertex 64.0 22.0 36.0
vertex 59.8977774788672 24.2235428646924 36.0
endloop
endfacet
facet normal 8.06689575860248e-016 -8.60584008125429e-017 1.0
outer loop
vertex 59.8977774788672 24.2235428646924 36.0
vertex 64.0 22.0 36.0
vertex 59.9743345841214 24.6084214233398 36.0
endloop
endfacet
facet normal 8.06689575860248e-016 -8.60584008125429e-017 1.0
outer loop
vertex 59.9743345841214 24.6084214233398 36.0
vertex 64.0 22.0 36.0
vertex 64.0 53.0 36.0
endloop
endfacet
facet normal 8.06689575860248e-016 -8.60584008125429e-017 1.0
outer loop
vertex 59.9743345841214 24.6084214233398 36.0
vertex 64.0 53.0 36.0
vertex 60.0 25.0 36.0
endloop
endfacet
facet normal 8.06689575860248e-016 -8.60584008125429e-017 1.0
outer loop
vertex 60.0 25.0 36.0
vertex 64.0 53.0 36.0
vertex 60.0 50.0 36.0
endloop
endfacet
facet normal 8.06689575860248e-016 -8.60584008125429e-017 1.0
outer loop
vertex 60.0 50.0 36.0
vertex 64.0 53.0 36.0
vertex 59.9743345841214 50.3915785766601 36.0
endloop
endfacet
facet normal 8.06689575860248e-016 -8.60584008125429e-017 1.0
outer loop
vertex 59.9743345841214 50.3915785766601 36.0
vertex 64.0 53.0 36.0
vertex 59.8977774788672 50.7764571353076 36.0
endloop
endfacet
facet normal 8.06689575860248e-016 -8.60584008125429e-017 1.0
outer loop
vertex 59.8977774788672 50.7764571353076 36.0
vertex 64.0 53.0 36.0
vertex 59.7716385975339 51.1480502970953 36.0
endloop
endfacet
facet normal 8.06689575860248e-016 -8.60584008125429e-017 1.0
outer loop
vertex 59.7716385975339 51.1480502970953 36.0
vertex 64.0 53.0 36.0
vertex 59.5980762113533 51.5 36.0
endloop
endfacet
facet normal 8.06689575860248e-016 -8.60584008125429e-017 1.0
outer loop
vertex 59.5980762113533 51.5 36.0
vertex 64.0 53.0 36.0
vertex 59.3800600208737 51.8262842870262 36.0
endloop
endfacet
facet normal 8.06689575860248e-016 -8.60584008125429e-017 1.0
outer loop
vertex 59.3800600208737 51.8262842870262 36.0
vertex 64.0 53.0 36.0
vertex 59.1213203435596 52.1213203435596 36.0
endloop
endfacet
facet normal 8.06689575860248e-016 -8.60584008125429e-017 1.0
outer loop
vertex 59.1213203435596 52.1213203435596 36.0
vertex 64.0 53.0 36.0
vertex 58.8262842870262 52.3800600208737 36.0
endloop
endfacet
facet normal 8.06689575860248e-016 -8.60584008125429e-017 1.0
outer loop
vertex 58.8262842870262 52.3800600208737 36.0
vertex 64.0 53.0 36.0
vertex 58.5 52.5980762113533 36.0
endloop
endfacet
facet normal 8.06689575860248e-016 -8.60584008125429e-017 1.0
outer loop
vertex 58.5 52.5980762113533 36.0
vertex 64.0 53.0 36.0
vertex 58.1480502970953 52.7716385975339 36.0
endloop
endfacet
facet normal 8.06689575860248e-016 -8.60584008125429e-017 1.0
outer loop
vertex 58.1480502970953 52.7716385975339 36.0
vertex 64.0 53.0 36.0
vertex 57.7764571353076 52.8977774788672 36.0
endloop
endfacet
facet normal 8.06689575860248e-016 -8.60584008125429e-017 1.0
outer loop
vertex 57.7764571353076 52.8977774788672 36.0
vertex 64.0 53.0 36.0
vertex 57.3915785766602 52.9743345841214 36.0
endloop
endfacet
facet normal 8.06689575860248e-016 -8.60584008125429e-017 1.0
outer loop
vertex 57.3915785766602 52.9743345841214 36.0
vertex 64.0 53.0 36.0
vertex 57.0 53.0 36.0
endloop
endfacet
facet normal 8.06689575860248e-016 -8.60584008125429e-017 1.0
outer loop
vertex 57.0 53.0 36.0
vertex 64.0 53.0 36.0
vertex 63.9657794454952 53.5221047688802 36.0
endloop
endfacet
facet normal 8.06689575860248e-016 -8.60584008125429e-017 1.0
outer loop
vertex 57.0 53.0 36.0
vertex 63.9657794454952 53.5221047688802 36.0
vertex 36.0 53.0 36.0
endloop
endfacet
facet normal 8.06689575860248e-016 -8.60584008125429e-017 1.0
outer loop
vertex 36.0 53.0 36.0
vertex 63.9657794454952 53.5221047688802 36.0
vertex 40.0 57.0 36.0
endloop
endfacet
facet normal 8.06689575860248e-016 -8.60584008125429e-017 1.0
outer loop
vertex 36.0 53.0 36.0
vertex 40.0 57.0 36.0
vertex 36.0 75.0 36.0
endloop
endfacet
facet normal 8.06689575860248e-016 -8.60584008125429e-017 1.0
outer loop
vertex 40.0 57.0 36.0
vertex 63.9657794454952 53.5221047688802 36.0
vertex 63.8637033051563 54.0352761804101 36.0
endloop
endfacet
facet normal 8.06689575860248e-016 -8.60584008125429e-017 1.0
outer loop
vertex 40.0 57.0 36.0
vertex 63.8637033051563 54.0352761804101 36.0
vertex 63.6955181300451 54.5307337294604 36.0
endloop
endfacet
facet normal 8.06689575860248e-016 -8.60584008125429e-017 1.0
outer loop
vertex 40.0 57.0 36.0
vertex 63.6955181300451 54.5307337294604 36.0
vertex 63.4641016151378 55.0 36.0
endloop
endfacet
facet normal 8.06689575860248e-016 -8.60584008125429e-017 1.0
outer loop
vertex 40.0 57.0 36.0
vertex 63.4641016151378 55.0 36.0
vertex 63.1734133611649 55.4350457160349 36.0
endloop
endfacet
facet normal 8.06689575860248e-016 -8.60584008125429e-017 1.0
outer loop
vertex 40.0 57.0 36.0
vertex 63.1734133611649 55.4350457160349 36.0
vertex 62.8284271247462 55.8284271247462 36.0
endloop
endfacet
facet normal 8.06689575860248e-016 -8.60584008125429e-017 1.0
outer loop
vertex 40.0 57.0 36.0
vertex 62.8284271247462 55.8284271247462 36.0
vertex 62.4350457160349 56.1734133611649 36.0
endloop
endfacet
facet normal 8.06689575860248e-016 -8.60584008125429e-017 1.0
outer loop
vertex 40.0 57.0 36.0
vertex 62.4350457160349 56.1734133611649 36.0
vertex 62.0 56.4641016151378 36.0
endloop
endfacet
facet normal 8.06689575860248e-016 -8.60584008125429e-017 1.0
outer loop
vertex 40.0 57.0 36.0
vertex 62.0 56.4641016151378 36.0
vertex 61.5307337294603 56.6955181300451 36.0
endloop
endfacet
facet normal 8.06689575860248e-016 -8.60584008125429e-017 1.0
outer loop
vertex 40.0 57.0 36.0
vertex 61.5307337294603 56.6955181300451 36.0
vertex 61.0352761804101 56.8637033051563 36.0
endloop
endfacet
facet normal 8.06689575860248e-016 -8.60584008125429e-017 1.0
outer loop
vertex 40.0 57.0 36.0
vertex 61.0352761804101 56.8637033051563 36.0
vertex 60.5221047688802 56.9657794454952 36.0
endloop
endfacet
facet normal 8.06689575860248e-016 -8.60584008125429e-017 1.0
outer loop
vertex 40.0 57.0 36.0
vertex 60.5221047688802 56.9657794454952 36.0
vertex 60.0 57.0 36.0
endloop
endfacet
facet normal 8.06689575860248e-016 -8.60584008125429e-017 1.0
outer loop
vertex 36.0 75.0 36.0
vertex 40.0 57.0 36.0
vertex 40.0 75.0 36.0
endloop
endfacet
facet normal 8.06689575860248e-016 -8.60584008125429e-017 1.0
outer loop
vertex 40.0 18.0 36.0
vertex 36.0 0.0 36.0
vertex 40.0 0.0 36.0
endloop
endfacet
facet normal 8.06689575860248e-016 -8.60584008125429e-017 1.0
outer loop
vertex 36.0 0.0 36.0
vertex 40.0 18.0 36.0
vertex 36.0 22.0 36.0
endloop
endfacet
facet normal 8.06689575860248e-016 -8.60584008125429e-017 1.0
outer loop
vertex 36.0 22.0 36.0
vertex 40.0 18.0 36.0
vertex 60.5221047688802 18.0342205545048 36.0
endloop
endfacet
facet normal 8.06689575860248e-016 -8.60584008125429e-017 1.0
outer loop
vertex 36.0 22.0 36.0
vertex 60.5221047688802 18.0342205545048 36.0
vertex 61.0352761804101 18.1362966948437 36.0
endloop
endfacet
facet normal 8.06689575860248e-016 -8.60584008125429e-017 1.0
outer loop
vertex 36.0 22.0 36.0
vertex 61.0352761804101 18.1362966948437 36.0
vertex 61.5307337294604 18.3044818699549 36.0
endloop
endfacet
facet normal 8.06689575860248e-016 -8.60584008125429e-017 1.0
outer loop
vertex 36.0 22.0 36.0
vertex 61.5307337294604 18.3044818699549 36.0
vertex 62.0 18.5358983848622 36.0
endloop
endfacet
facet normal 8.06689575860248e-016 -8.60584008125429e-017 1.0
outer loop
vertex 36.0 22.0 36.0
vertex 62.0 18.5358983848622 36.0
vertex 62.4350457160349 18.8265866388351 36.0
endloop
endfacet
facet normal 8.06689575860248e-016 -8.60584008125429e-017 1.0
outer loop
vertex 36.0 22.0 36.0
vertex 62.4350457160349 18.8265866388351 36.0
vertex 62.8284271247462 19.1715728752538 36.0
endloop
endfacet
facet normal 8.06689575860248e-016 -8.60584008125429e-017 1.0
outer loop
vertex 36.0 22.0 36.0
vertex 62.8284271247462 19.1715728752538 36.0
vertex 63.1734133611649 19.5649542839651 36.0
endloop
endfacet
facet normal 8.06689575860248e-016 -8.60584008125429e-017 1.0
outer loop
vertex 36.0 22.0 36.0
vertex 63.1734133611649 19.5649542839651 36.0
vertex 63.4641016151378 20.0 36.0
endloop
endfacet
facet normal 8.06689575860248e-016 -8.60584008125429e-017 1.0
outer loop
vertex 36.0 22.0 36.0
vertex 63.4641016151378 20.0 36.0
vertex 63.6955181300451 20.4692662705396 36.0
endloop
endfacet
facet normal 8.06689575860248e-016 -8.60584008125429e-017 1.0
outer loop
vertex 36.0 22.0 36.0
vertex 63.6955181300451 20.4692662705396 36.0
vertex 63.8637033051563 20.9647238195899 36.0
endloop
endfacet
facet normal 8.06689575860248e-016 -8.60584008125429e-017 1.0
outer loop
vertex 36.0 22.0 36.0
vertex 63.8637033051563 20.9647238195899 36.0
vertex 63.9657794454952 21.4778952311198 36.0
endloop
endfacet
facet normal 8.06689575860248e-016 -8.60584008125429e-017 1.0
outer loop
vertex 36.0 22.0 36.0
vertex 63.9657794454952 21.4778952311198 36.0
vertex 64.0 22.0 36.0
endloop
endfacet
facet normal 8.06689575860248e-016 -8.60584008125429e-017 1.0
outer loop
vertex 36.0 22.0 36.0
vertex 64.0 22.0 36.0
vertex 57.0 22.0 36.0
endloop
endfacet
facet normal 0.0 1.0 0.0
outer loop
vertex 40.0 75.0 36.0
vertex 36.0 75.0 5.63993296509579e-015
vertex 36.0 75.0 36.0
endloop
endfacet
facet normal 0.0 1.0 0.0
outer loop
vertex 36.0 75.0 5.63993296509579e-015
vertex 40.0 75.0 36.0
vertex 40.0 75.0 5.63993296509579e-015
endloop
endfacet
facet normal 1.0 -6.76791955811495e-016 -1.04083408558608e-016
outer loop
vertex 40.0 57.0 5.63993296509579e-015
vertex 40.0 75.0 36.0
vertex 40.0 57.0 36.0
endloop
endfacet
facet normal 1.0 -6.76791955811495e-016 -1.04083408558608e-016
outer loop
vertex 40.0 75.0 36.0
vertex 40.0 57.0 5.63993296509579e-015
vertex 40.0 66.6143593539449 18.8
endloop
endfacet
facet normal 1.0 -6.76791955811495e-016 -1.04083408558608e-016
outer loop
vertex 40.0 75.0 36.0
vertex 40.0 66.6143593539449 18.8
vertex 40.0 66.8686291501015 19.1313708498985
endloop
endfacet
facet normal 1.0 -6.76791955811495e-016 -1.04083408558608e-016
outer loop
vertex 40.0 75.0 36.0
vertex 40.0 66.8686291501015 19.1313708498985
vertex 40.0 67.2 19.3856406460551
endloop
endfacet
facet normal 1.0 -6.76791955811495e-016 -1.04083408558608e-016
outer loop
vertex 40.0 75.0 36.0
vertex 40.0 67.2 19.3856406460551
vertex 40.0 67.585889527836 19.5454813220625
endloop
endfacet
facet normal 1.0 -6.76791955811495e-016 -1.04083408558608e-016
outer loop
vertex 40.0 75.0 36.0
vertex 40.0 67.585889527836 19.5454813220625
vertex 40.0 68.0 19.6
endloop
endfacet
facet normal 1.0 -6.76791955811495e-016 -1.04083408558608e-016
outer loop
vertex 40.0 66.6143593539449 18.8
vertex 40.0 57.0 5.63993296509579e-015
vertex 40.0 66.4545186779375 18.414110472164
endloop
endfacet
facet normal 1.0 -6.76791955811495e-016 -1.04083408558608e-016
outer loop
vertex 40.0 66.4545186779375 18.414110472164
vertex 40.0 57.0 5.63993296509579e-015
vertex 40.0 66.4 18.0
endloop
endfacet
facet normal 1.0 -6.76791955811495e-016 -1.04083408558608e-016
outer loop
vertex 40.0 66.4 18.0
vertex 40.0 57.0 5.63993296509579e-015
vertex 40.0 66.4545186779375 17.585889527836
endloop
endfacet
facet normal 1.0 -6.76791955811495e-016 -1.04083408558608e-016
outer loop
vertex 40.0 66.4545186779375 17.585889527836
vertex 40.0 57.0 5.63993296509579e-015
vertex 40.0 66.6143593539449 17.2
endloop
endfacet
facet normal 1.0 -6.76791955811495e-016 -1.04083408558608e-016
outer loop
vertex 40.0 66.6143593539449 17.2
vertex 40.0 57.0 5.63993296509579e-015
vertex 40.0 66.8686291501015 16.8686291501015
endloop
endfacet
facet normal 1.0 -6.76791955811495e-016 -1.04083408558608e-016
outer loop
vertex 40.0 66.8686291501015 16.8686291501015
vertex 40.0 57.0 5.63993296509579e-015
vertex 40.0 67.2 16.6143593539449
endloop
endfacet
facet normal 1.0 -6.76791955811495e-016 -1.04083408558608e-016
outer loop
vertex 40.0 67.2 16.6143593539449
vertex 40.0 57.0 5.63993296509579e-015
vertex 40.0 67.585889527836 16.4545186779375
endloop
endfacet
facet normal 1.0 -6.76791955811495e-016 -1.04083408558608e-016
outer loop
vertex 40.0 67.585889527836 16.4545186779375
vertex 40.0 57.0 5.63993296509579e-015
vertex 40.0 68.0 16.4
endloop
endfacet
facet normal 1.0 -6.76791955811495e-016 -1.04083408558608e-016
outer loop
vertex 40.0 75.0 36.0
vertex 40.0 69.5454813220625 18.414110472164
vertex 40.0 75.0 5.63993296509579e-015
endloop
endfacet
facet normal 1.0 -6.76791955811495e-016 -1.04083408558608e-016
outer loop
vertex 40.0 69.5454813220625 18.414110472164
vertex 40.0 75.0 36.0
vertex 40.0 69.3856406460551 18.8
endloop
endfacet
facet normal 1.0 -6.76791955811495e-016 -1.04083408558608e-016
outer loop
vertex 40.0 69.3856406460551 18.8
vertex 40.0 75.0 36.0
vertex 40.0 69.1313708498985 19.1313708498985
endloop
endfacet
facet normal 1.0 -6.76791955811495e-016 -1.04083408558608e-016
outer loop
vertex 40.0 69.1313708498985 19.1313708498985
vertex 40.0 75.0 36.0
vertex 40.0 68.8 19.3856406460551
endloop
endfacet
facet normal 1.0 -6.76791955811495e-016 -1.04083408558608e-016
outer loop
vertex 40.0 68.8 19.3856406460551
vertex 40.0 75.0 36.0
vertex 40.0 68.414110472164 19.5454813220625
endloop
endfacet
facet normal 1.0 -6.76791955811495e-016 -1.04083408558608e-016
outer loop
vertex 40.0 68.414110472164 19.5454813220625
vertex 40.0 75.0 36.0
vertex 40.0 68.0 19.6
endloop
endfacet
facet normal 1.0 -6.76791955811495e-016 -1.04083408558608e-016
outer loop
vertex 40.0 75.0 5.63993296509579e-015
vertex 40.0 69.5454813220625 18.414110472164
vertex 40.0 69.6 18.0
endloop
endfacet
facet normal 1.0 -6.76791955811495e-016 -1.04083408558608e-016
outer loop
vertex 40.0 75.0 5.63993296509579e-015
vertex 40.0 69.6 18.0
vertex 40.0 69.5454813220625 17.585889527836
endloop
endfacet
facet normal 1.0 -6.76791955811495e-016 -1.04083408558608e-016
outer loop
vertex 40.0 75.0 5.63993296509579e-015
vertex 40.0 69.5454813220625 17.585889527836
vertex 40.0 69.3856406460551 17.2
endloop
endfacet
facet normal 1.0 -6.76791955811495e-016 -1.04083408558608e-016
outer loop
vertex 40.0 75.0 5.63993296509579e-015
vertex 40.0 69.3856406460551 17.2
vertex 40.0 69.1313708498985 16.8686291501015
endloop
endfacet
facet normal 1.0 -6.76791955811495e-016 -1.04083408558608e-016
outer loop
vertex 40.0 75.0 5.63993296509579e-015
vertex 40.0 69.1313708498985 16.8686291501015
vertex 40.0 68.8 16.6143593539449
endloop
endfacet
facet normal 1.0 -6.76791955811495e-016 -1.04083408558608e-016
outer loop
vertex 40.0 75.0 5.63993296509579e-015
vertex 40.0 68.8 16.6143593539449
vertex 40.0 68.414110472164 16.4545186779375
endloop
endfacet
facet normal 1.0 -6.76791955811495e-016 -1.04083408558608e-016
outer loop
vertex 40.0 75.0 5.63993296509579e-015
vertex 40.0 68.414110472164 16.4545186779375
vertex 40.0 68.0 16.4
endloop
endfacet
facet normal 1.0 -6.76791955811495e-016 -1.04083408558608e-016
outer loop
vertex 40.0 75.0 5.63993296509579e-015
vertex 40.0 68.0 16.4
vertex 40.0 57.0 5.63993296509579e-015
endloop
endfacet
facet normal 1.0 0.0 -1.04083408558608e-016
outer loop
vertex 64.0 22.0 36.0
vertex 64.0 53.0 0.0
vertex 64.0 53.0 36.0
endloop
endfacet
facet normal 1.0 0.0 -1.04083408558608e-016
outer loop
vertex 64.0 53.0 0.0
vertex 64.0 22.0 36.0
vertex 64.0 22.0 0.0
endloop
endfacet
facet normal 1.0 0.0 -1.04083408558608e-016
outer loop
vertex 40.0 0.0 36.0
vertex 40.0 5.6143593539449 18.8
vertex 40.0 18.0 36.0
endloop
endfacet
facet normal 1.0 0.0 -1.04083408558608e-016
outer loop
vertex 40.0 5.6143593539449 18.8
vertex 40.0 0.0 36.0
vertex 40.0 5.45451867793749 18.414110472164
endloop
endfacet
facet normal 1.0 0.0 -1.04083408558608e-016
outer loop
vertex 40.0 5.45451867793749 18.414110472164
vertex 40.0 0.0 36.0
vertex 40.0 0.0 5.63993296509579e-015
endloop
endfacet
facet normal 1.0 0.0 -1.04083408558608e-016
outer loop
vertex 40.0 18.0 36.0
vertex 40.0 5.6143593539449 18.8
vertex 40.0 5.86862915010152 19.1313708498985
endloop
endfacet
facet normal 1.0 0.0 -1.04083408558608e-016
outer loop
vertex 40.0 18.0 36.0
vertex 40.0 5.86862915010152 19.1313708498985
vertex 40.0 6.2 19.3856406460551
endloop
endfacet
facet normal 1.0 0.0 -1.04083408558608e-016
outer loop
vertex 40.0 18.0 36.0
vertex 40.0 6.2 19.3856406460551
vertex 40.0 6.58588952783597 19.5454813220625
endloop
endfacet
facet normal 1.0 0.0 -1.04083408558608e-016
outer loop
vertex 40.0 18.0 36.0
vertex 40.0 6.58588952783597 19.5454813220625
vertex 40.0 7.0 19.6
endloop
endfacet
facet normal 1.0 0.0 -1.04083408558608e-016
outer loop
vertex 40.0 5.45451867793749 18.414110472164
vertex 40.0 0.0 5.63993296509579e-015
vertex 40.0 5.4 18.0
endloop
endfacet
facet normal 1.0 0.0 -1.04083408558608e-016
outer loop
vertex 40.0 5.4 18.0
vertex 40.0 0.0 5.63993296509579e-015
vertex 40.0 5.45451867793749 17.585889527836
endloop
endfacet
facet normal 1.0 0.0 -1.04083408558608e-016
outer loop
vertex 40.0 5.45451867793749 17.585889527836
vertex 40.0 0.0 5.63993296509579e-015
vertex 40.0 5.6143593539449 17.2
endloop
endfacet
facet normal 1.0 0.0 -1.04083408558608e-016
outer loop
vertex 40.0 5.6143593539449 17.2
vertex 40.0 0.0 5.63993296509579e-015
vertex 40.0 5.86862915010152 16.8686291501015
endloop
endfacet
facet normal 1.0 0.0 -1.04083408558608e-016
outer loop
vertex 40.0 5.86862915010152 16.8686291501015
vertex 40.0 0.0 5.63993296509579e-015
vertex 40.0 6.2 16.6143593539449
endloop
endfacet
facet normal 1.0 0.0 -1.04083408558608e-016
outer loop
vertex 40.0 6.2 16.6143593539449
vertex 40.0 0.0 5.63993296509579e-015
vertex 40.0 6.58588952783597 16.4545186779375
endloop
endfacet
facet normal 1.0 0.0 -1.04083408558608e-016
outer loop
vertex 40.0 6.58588952783597 16.4545186779375
vertex 40.0 0.0 5.63993296509579e-015
vertex 40.0 7.0 16.4
endloop
endfacet
facet normal 1.0 0.0 -1.04083408558608e-016
outer loop
vertex 40.0 18.0 36.0
vertex 40.0 8.3856406460551 18.8
vertex 40.0 18.0 5.63993296509579e-015
endloop
endfacet
facet normal 1.0 0.0 -1.04083408558608e-016
outer loop
vertex 40.0 8.3856406460551 18.8
vertex 40.0 18.0 36.0
vertex 40.0 8.13137084989847 19.1313708498985
endloop
endfacet
facet normal 1.0 0.0 -1.04083408558608e-016
outer loop
vertex 40.0 8.13137084989847 19.1313708498985
vertex 40.0 18.0 36.0
vertex 40.0 7.8 19.3856406460551
endloop
endfacet
facet normal 1.0 0.0 -1.04083408558608e-016
outer loop
vertex 40.0 7.8 19.3856406460551
vertex 40.0 18.0 36.0
vertex 40.0 7.41411047216403 19.5454813220625
endloop
endfacet
facet normal 1.0 0.0 -1.04083408558608e-016
outer loop
vertex 40.0 7.41411047216403 19.5454813220625
vertex 40.0 18.0 36.0
vertex 40.0 7.0 19.6
endloop
endfacet
facet normal 1.0 0.0 -1.04083408558608e-016
outer loop
vertex 40.0 18.0 5.63993296509579e-015
vertex 40.0 8.3856406460551 18.8
vertex 40.0 8.54548132206251 18.414110472164
endloop
endfacet
facet normal 1.0 0.0 -1.04083408558608e-016
outer loop
vertex 40.0 18.0 5.63993296509579e-015
vertex 40.0 8.54548132206251 18.414110472164
vertex 40.0 8.6 18.0
endloop
endfacet
facet normal 1.0 0.0 -1.04083408558608e-016
outer loop
vertex 40.0 18.0 5.63993296509579e-015
vertex 40.0 8.6 18.0
vertex 40.0 8.54548132206251 17.585889527836
endloop
endfacet
facet normal 1.0 0.0 -1.04083408558608e-016
outer loop
vertex 40.0 18.0 5.63993296509579e-015
vertex 40.0 8.54548132206251 17.585889527836
vertex 40.0 8.3856406460551 17.2
endloop
endfacet
facet normal 1.0 0.0 -1.04083408558608e-016
outer loop
vertex 40.0 18.0 5.63993296509579e-015
vertex 40.0 8.3856406460551 17.2
vertex 40.0 8.13137084989847 16.8686291501015
endloop
endfacet
facet normal 1.0 0.0 -1.04083408558608e-016
outer loop
vertex 40.0 18.0 5.63993296509579e-015
vertex 40.0 8.13137084989847 16.8686291501015
vertex 40.0 7.8 16.6143593539449
endloop
endfacet
facet normal 1.0 0.0 -1.04083408558608e-016
outer loop
vertex 40.0 18.0 5.63993296509579e-015
vertex 40.0 7.8 16.6143593539449
vertex 40.0 7.41411047216403 16.4545186779375
endloop
endfacet
facet normal 1.0 0.0 -1.04083408558608e-016
outer loop
vertex 40.0 18.0 5.63993296509579e-015
vertex 40.0 7.41411047216403 16.4545186779375
vertex 40.0 7.0 16.4
endloop
endfacet
facet normal 1.0 0.0 -1.04083408558608e-016
outer loop
vertex 40.0 18.0 5.63993296509579e-015
vertex 40.0 7.0 16.4
vertex 40.0 0.0 5.63993296509579e-015
endloop
endfacet
facet normal 0.0 -1.0 -0.0
outer loop
vertex 60.0 18.0 5.63993296509579e-015
vertex 40.0 18.0 36.0
vertex 40.0 18.0 5.63993296509579e-015
endloop
endfacet
facet normal 0.0 -1.0 -0.0
outer loop
vertex 40.0 18.0 36.0
vertex 60.0 18.0 5.63993296509579e-015
vertex 60.0 18.0 36.0
endloop
endfacet
facet normal -1.00536852414957e-016 -0.25881904510252 -0.965925826289068
outer loop
vertex 36.0 7.41411047216403 19.5454813220625
vertex 40.0 7.0 19.6
vertex 36.0 7.0 19.6
endloop
endfacet
facet normal -1.04083408558608e-016 -2.22777747391173e-016 -1.0
outer loop
vertex 40.0 7.0 19.6
vertex 36.0 7.41411047216403 19.5454813220625
vertex 40.0 7.41411047216403 19.5454813220625
endloop
endfacet
facet normal -9.01388759242295e-017 -0.500000000000001 -0.866025403784438
outer loop
vertex 36.0 7.8 19.3856406460551
vertex 40.0 7.41411047216403 19.5454813220625
vertex 36.0 7.41411047216403 19.5454813220625
endloop
endfacet
facet normal -1.00536852414957e-016 -0.25881904510252 -0.965925826289068
outer loop
vertex 40.0 7.41411047216403 19.5454813220625
vertex 36.0 7.8 19.3856406460551
vertex 40.0 7.8 19.3856406460551
endloop
endfacet
facet normal 1.12798659301916e-015 1.0 -1.26731356588314e-031
outer loop
vertex 60.0 57.0 36.0
vertex 40.0 57.0 5.63993296509579e-015
vertex 40.0 57.0 36.0
endloop
endfacet
facet normal 1.12798659301916e-015 1.0 -1.26731356588314e-031
outer loop
vertex 40.0 57.0 5.63993296509579e-015
vertex 60.0 57.0 36.0
vertex 60.0 57.0 5.63993296509579e-015
endloop
endfacet
facet normal 0.991444861373811 -0.130526192220046 -1.03192960569703e-016
outer loop
vertex 63.9657794454952 21.4778952311198 0.0
vertex 64.0 22.0 36.0
vertex 63.9657794454952 21.4778952311198 36.0
endloop
endfacet
facet normal 0.997858923238604 -0.0654031292301411 -1.03860557991297e-016
outer loop
vertex 64.0 22.0 36.0
vertex 63.9657794454952 21.4778952311198 0.0
vertex 64.0 22.0 0.0
endloop
endfacet
facet normal 0.965925826289069 -0.258819045102519 -1.00536852414957e-016
outer loop
vertex 63.8637033051563 20.9647238195899 0.0
vertex 63.9657794454952 21.4778952311198 36.0
vertex 63.8637033051563 20.9647238195899 36.0
endloop
endfacet
facet normal 0.991444861373811 -0.130526192220046 -1.03192960569703e-016
outer loop
vertex 63.9657794454952 21.4778952311198 36.0
vertex 63.8637033051563 20.9647238195899 0.0
vertex 63.9657794454952 21.4778952311198 0.0
endloop
endfacet
facet normal -7.3598084000802e-017 -0.707106781186547 -0.707106781186548
outer loop
vertex 36.0 8.13137084989847 19.1313708498985
vertex 40.0 7.8 19.3856406460551
vertex 36.0 7.8 19.3856406460551
endloop
endfacet
facet normal -9.01388759242295e-017 -0.500000000000001 -0.866025403784438
outer loop
vertex 40.0 7.8 19.3856406460551
vertex 36.0 8.13137084989847 19.1313708498985
vertex 40.0 8.13137084989847 19.1313708498985
endloop
endfacet
facet normal -5.20417042793043e-017 -0.866025403784438 -0.500000000000001
outer loop
vertex 40.0 8.3856406460551 18.8
vertex 36.0 8.13137084989847 19.1313708498985
vertex 36.0 8.3856406460551 18.8
endloop
endfacet
facet normal -7.3598084000802e-017 -0.707106781186547 -0.707106781186548
outer loop
vertex 36.0 8.13137084989847 19.1313708498985
vertex 40.0 8.3856406460551 18.8
vertex 40.0 8.13137084989847 19.1313708498985
endloop
endfacet
facet normal 0.99144486137381 0.130526192220052 -1.03192960569703e-016
outer loop
vertex 63.9657794454952 53.5221047688802 0.0
vertex 63.8637033051563 54.0352761804101 36.0
vertex 63.9657794454952 53.5221047688802 36.0
endloop
endfacet
facet normal 0.96592582628907 0.258819045102517 -1.00536852414957e-016
outer loop
vertex 63.8637033051563 54.0352761804101 36.0
vertex 63.9657794454952 53.5221047688802 0.0
vertex 63.8637033051563 54.0352761804101 0.0
endloop
endfacet
facet normal 0.923879532511286 -0.382683432365091 -9.61605308413083e-017
outer loop
vertex 63.6955181300451 20.4692662705396 0.0
vertex 63.8637033051563 20.9647238195899 36.0
vertex 63.6955181300451 20.4692662705396 36.0
endloop
endfacet
facet normal 0.965925826289069 -0.258819045102519 -1.00536852414957e-016
outer loop
vertex 63.8637033051563 20.9647238195899 36.0
vertex 63.6955181300451 20.4692662705396 0.0
vertex 63.8637033051563 20.9647238195899 0.0
endloop
endfacet
facet normal 0.866025403784439 -0.5 -9.01388759242296e-017
outer loop
vertex 63.4641016151377 20.0 0.0
vertex 63.6955181300451 20.4692662705396 36.0
vertex 63.4641016151378 20.0 36.0
endloop
endfacet
facet normal 0.923879532511286 -0.382683432365091 -9.61605308413083e-017
outer loop
vertex 63.6955181300451 20.4692662705396 36.0
vertex 63.4641016151377 20.0 0.0
vertex 63.6955181300451 20.4692662705396 0.0
endloop
endfacet
facet normal -2.69387684141546e-017 -0.965925826289068 -0.258819045102521
outer loop
vertex 40.0 8.54548132206251 18.414110472164
vertex 36.0 8.3856406460551 18.8
vertex 36.0 8.54548132206251 18.414110472164
endloop
endfacet
facet normal -5.20417042793043e-017 -0.866025403784438 -0.500000000000001
outer loop
vertex 36.0 8.3856406460551 18.8
vertex 40.0 8.54548132206251 18.414110472164
vertex 40.0 8.3856406460551 18.8
endloop
endfacet
facet normal 5.20417042793043e-017 0.866025403784438 0.500000000000001
outer loop
vertex 40.0 5.6143593539449 17.2
vertex 36.0 5.86862915010152 16.8686291501015
vertex 36.0 5.6143593539449 17.2
endloop
endfacet
facet normal 7.3598084000802e-017 0.707106781186547 0.707106781186548
outer loop
vertex 36.0 5.86862915010152 16.8686291501015
vertex 40.0 5.6143593539449 17.2
vertex 40.0 5.86862915010152 16.8686291501015
endloop
endfacet
facet normal 2.69387684141546e-017 0.965925826289068 0.258819045102521
outer loop
vertex 40.0 5.45451867793749 17.585889527836
vertex 36.0 5.6143593539449 17.2
vertex 36.0 5.45451867793749 17.585889527836
endloop
endfacet
facet normal 5.20417042793043e-017 0.866025403784438 0.500000000000001
outer loop
vertex 36.0 5.6143593539449 17.2
vertex 40.0 5.45451867793749 17.585889527836
vertex 40.0 5.6143593539449 17.2
endloop
endfacet
facet normal 0.793353340291235 -0.608761429008721 -8.25749198488693e-017
outer loop
vertex 63.1734133611649 19.5649542839651 0.0
vertex 63.4641016151378 20.0 36.0
vertex 63.1734133611649 19.5649542839651 36.0
endloop
endfacet
facet normal 0.866025403784439 -0.5 -9.01388759242296e-017
outer loop
vertex 63.4641016151378 20.0 36.0
vertex 63.1734133611649 19.5649542839651 0.0
vertex 63.4641016151377 20.0 0.0
endloop
endfacet
facet normal 0.608761429008716 0.793353340291239 -6.33619645302364e-017
outer loop
vertex 62.4350457160349 56.1734133611649 36.0
vertex 62.0 56.4641016151378 5.63993296509579e-015
vertex 62.0 56.4641016151378 36.0
endloop
endfacet
facet normal 0.499999999999998 0.86602540378444 -5.2041704279304e-017
outer loop
vertex 62.0 56.4641016151378 5.63993296509579e-015
vertex 62.4350457160349 56.1734133611649 36.0
vertex 62.4350457160349 56.1734133611649 5.63993296509579e-015
endloop
endfacet
facet normal 0.86602540378444 0.499999999999999 -9.01388759242296e-017
outer loop
vertex 63.4641016151377 55.0 0.0
vertex 63.1734133611649 55.4350457160349 36.0
vertex 63.4641016151378 55.0 36.0
endloop
endfacet
facet normal 0.793353340291235 0.608761429008721 -8.25749198488693e-017
outer loop
vertex 63.1734133611649 55.4350457160349 36.0
vertex 63.4641016151377 55.0 0.0
vertex 63.1734133611649 55.4350457160349 0.0
endloop
endfacet
facet normal 0.96592582628907 0.258819045102517 -1.00536852414957e-016
outer loop
vertex 63.8637033051563 54.0352761804101 0.0
vertex 63.6955181300451 54.5307337294604 36.0
vertex 63.8637033051563 54.0352761804101 36.0
endloop
endfacet
facet normal 0.92387953251129 0.382683432365083 -9.61605308413087e-017
outer loop
vertex 63.6955181300451 54.5307337294604 36.0
vertex 63.8637033051563 54.0352761804101 0.0
vertex 63.6955181300451 54.5307337294604 0.0
endloop
endfacet
facet normal 0.92387953251129 0.382683432365083 -9.61605308413087e-017
outer loop
vertex 63.6955181300451 54.5307337294604 0.0
vertex 63.4641016151378 55.0 36.0
vertex 63.6955181300451 54.5307337294604 36.0
endloop
endfacet
facet normal 0.86602540378444 0.499999999999999 -9.01388759242296e-017
outer loop
vertex 63.4641016151378 55.0 36.0
vertex 63.6955181300451 54.5307337294604 0.0
vertex 63.4641016151377 55.0 0.0
endloop
endfacet
facet normal -4.63749345989638e-032 1.0 -4.45555494782345e-016
outer loop
vertex 40.0 5.4 18.0
vertex 36.0 5.45451867793749 17.585889527836
vertex 36.0 5.4 18.0
endloop
endfacet
facet normal 2.69387684141546e-017 0.965925826289068 0.258819045102521
outer loop
vertex 36.0 5.45451867793749 17.585889527836
vertex 40.0 5.4 18.0
vertex 40.0 5.45451867793749 17.585889527836
endloop
endfacet
facet normal -2.69387684141546e-017 0.965925826289068 -0.258819045102521
outer loop
vertex 40.0 5.45451867793749 18.414110472164
vertex 36.0 5.4 18.0
vertex 36.0 5.45451867793749 18.414110472164
endloop
endfacet
facet normal -4.63749345989638e-032 1.0 -4.45555494782345e-016
outer loop
vertex 36.0 5.4 18.0
vertex 40.0 5.45451867793749 18.414110472164
vertex 40.0 5.4 18.0
endloop
endfacet
facet normal -5.20417042793041e-017 0.866025403784439 -0.499999999999999
outer loop
vertex 40.0 5.6143593539449 18.8
vertex 36.0 5.45451867793749 18.414110472164
vertex 36.0 5.6143593539449 18.8
endloop
endfacet
facet normal -2.69387684141546e-017 0.965925826289068 -0.258819045102521
outer loop
vertex 36.0 5.45451867793749 18.414110472164
vertex 40.0 5.6143593539449 18.8
vertex 40.0 5.45451867793749 18.414110472164
endloop
endfacet
facet normal -7.35980840008018e-017 0.707106781186549 -0.707106781186546
outer loop
vertex 40.0 5.86862915010152 19.1313708498985
vertex 36.0 5.6143593539449 18.8
vertex 36.0 5.86862915010152 19.1313708498985
endloop
endfacet
facet normal -5.20417042793041e-017 0.866025403784439 -0.499999999999999
outer loop
vertex 36.0 5.6143593539449 18.8
vertex 40.0 5.86862915010152 19.1313708498985
vertex 40.0 5.6143593539449 18.8
endloop
endfacet
facet normal -9.01388759242294e-017 0.500000000000002 -0.866025403784438
outer loop
vertex 36.0 6.2 19.3856406460551
vertex 40.0 5.86862915010152 19.1313708498985
vertex 36.0 5.86862915010152 19.1313708498985
endloop
endfacet
facet normal -7.35980840008018e-017 0.707106781186549 -0.707106781186546
outer loop
vertex 40.0 5.86862915010152 19.1313708498985
vertex 36.0 6.2 19.3856406460551
vertex 40.0 6.2 19.3856406460551
endloop
endfacet
facet normal -1.00536852414957e-016 0.258819045102521 -0.965925826289068
outer loop
vertex 36.0 6.58588952783597 19.5454813220625
vertex 40.0 6.2 19.3856406460551
vertex 36.0 6.2 19.3856406460551
endloop
endfacet
facet normal -9.01388759242294e-017 0.500000000000002 -0.866025403784438
outer loop
vertex 40.0 6.2 19.3856406460551
vertex 36.0 6.58588952783597 19.5454813220625
vertex 40.0 6.58588952783597 19.5454813220625
endloop
endfacet
facet normal -1.04083408558608e-016 -2.22777747391173e-016 -1.0
outer loop
vertex 36.0 7.0 19.6
vertex 40.0 6.58588952783597 19.5454813220625
vertex 36.0 6.58588952783597 19.5454813220625
endloop
endfacet
facet normal -1.00536852414957e-016 0.258819045102521 -0.965925826289068
outer loop
vertex 40.0 6.58588952783597 19.5454813220625
vertex 36.0 7.0 19.6
vertex 40.0 7.0 19.6
endloop
endfacet
facet normal 4.63749345989638e-032 -1.0 4.45555494782345e-016
outer loop
vertex 40.0 8.6 18.0
vertex 36.0 8.54548132206251 18.414110472164
vertex 36.0 8.6 18.0
endloop
endfacet
facet normal -2.69387684141546e-017 -0.965925826289068 -0.258819045102521
outer loop
vertex 36.0 8.54548132206251 18.414110472164
vertex 40.0 8.6 18.0
vertex 40.0 8.54548132206251 18.414110472164
endloop
endfacet
facet normal 2.69387684141545e-017 -0.965925826289069 0.25881904510252
outer loop
vertex 40.0 8.54548132206251 17.585889527836
vertex 36.0 8.6 18.0
vertex 36.0 8.54548132206251 17.585889527836
endloop
endfacet
facet normal 4.63749345989638e-032 -1.0 4.45555494782345e-016
outer loop
vertex 36.0 8.6 18.0
vertex 40.0 8.54548132206251 17.585889527836
vertex 40.0 8.6 18.0
endloop
endfacet
facet normal 5.20417042793041e-017 -0.866025403784439 0.499999999999999
outer loop
vertex 40.0 8.3856406460551 17.2
vertex 36.0 8.54548132206251 17.585889527836
vertex 36.0 8.3856406460551 17.2
endloop
endfacet
facet normal 2.69387684141545e-017 -0.965925826289069 0.25881904510252
outer loop
vertex 36.0 8.54548132206251 17.585889527836
vertex 40.0 8.3856406460551 17.2
vertex 40.0 8.54548132206251 17.585889527836
endloop
endfacet
facet normal 7.35980840008019e-017 -0.707106781186548 0.707106781186547
outer loop
vertex 40.0 8.13137084989847 16.8686291501015
vertex 36.0 8.3856406460551 17.2
vertex 36.0 8.13137084989847 16.8686291501015
endloop
endfacet
facet normal 5.20417042793041e-017 -0.866025403784439 0.499999999999999
outer loop
vertex 36.0 8.3856406460551 17.2
vertex 40.0 8.13137084989847 16.8686291501015
vertex 40.0 8.3856406460551 17.2
endloop
endfacet
facet normal 7.35980840008019e-017 -0.707106781186548 0.707106781186547
outer loop
vertex 40.0 8.13137084989847 16.8686291501015
vertex 36.0 7.8 16.6143593539449
vertex 40.0 7.8 16.6143593539449
endloop
endfacet
facet normal 9.01388759242296e-017 -0.5 0.866025403784439
outer loop
vertex 36.0 7.8 16.6143593539449
vertex 40.0 8.13137084989847 16.8686291501015
vertex 36.0 8.13137084989847 16.8686291501015
endloop
endfacet
facet normal 9.01388759242296e-017 -0.5 0.866025403784439
outer loop
vertex 40.0 7.8 16.6143593539449
vertex 36.0 7.41411047216403 16.4545186779375
vertex 40.0 7.41411047216403 16.4545186779375
endloop
endfacet
facet normal 1.00536852414957e-016 -0.258819045102521 0.965925826289068
outer loop
vertex 36.0 7.41411047216403 16.4545186779375
vertex 40.0 7.8 16.6143593539449
vertex 36.0 7.8 16.6143593539449
endloop
endfacet
facet normal 1.00536852414957e-016 -0.258819045102521 0.965925826289068
outer loop
vertex 40.0 7.41411047216403 16.4545186779375
vertex 36.0 7.0 16.4
vertex 40.0 7.0 16.4
endloop
endfacet
facet normal 1.04083408558608e-016 -3.11888846347642e-015 1.0
outer loop
vertex 36.0 7.0 16.4
vertex 40.0 7.41411047216403 16.4545186779375
vertex 36.0 7.41411047216403 16.4545186779375
endloop
endfacet
facet normal 1.04083408558608e-016 -3.11888846347642e-015 1.0
outer loop
vertex 40.0 7.0 16.4
vertex 36.0 6.58588952783597 16.4545186779375
vertex 40.0 6.58588952783597 16.4545186779375
endloop
endfacet
facet normal 1.00536852414957e-016 0.258819045102521 0.965925826289068
outer loop
vertex 36.0 6.58588952783597 16.4545186779375
vertex 40.0 7.0 16.4
vertex 36.0 7.0 16.4
endloop
endfacet
facet normal 1.00536852414957e-016 0.258819045102521 0.965925826289068
outer loop
vertex 40.0 6.58588952783597 16.4545186779375
vertex 36.0 6.2 16.6143593539449
vertex 40.0 6.2 16.6143593539449
endloop
endfacet
facet normal 9.01388759242294e-017 0.500000000000002 0.866025403784438
outer loop
vertex 36.0 6.2 16.6143593539449
vertex 40.0 6.58588952783597 16.4545186779375
vertex 36.0 6.58588952783597 16.4545186779375
endloop
endfacet
facet normal 9.01388759242294e-017 0.500000000000002 0.866025403784438
outer loop
vertex 40.0 6.2 16.6143593539449
vertex 36.0 5.86862915010152 16.8686291501015
vertex 40.0 5.86862915010152 16.8686291501015
endloop
endfacet
facet normal 7.3598084000802e-017 0.707106781186547 0.707106781186548
outer loop
vertex 36.0 5.86862915010152 16.8686291501015
vertex 40.0 6.2 16.6143593539449
vertex 36.0 6.2 16.6143593539449
endloop
endfacet
facet normal 0.707106781186549 -0.707106781186547 -7.3598084000802e-017
outer loop
vertex 62.8284271247462 19.1715728752538 5.63993296509579e-015
vertex 63.1734133611649 19.5649542839651 36.0
vertex 62.8284271247462 19.1715728752538 36.0
endloop
endfacet
facet normal 0.793353340291235 -0.608761429008721 -8.25749198488693e-017
outer loop
vertex 63.1734133611649 19.5649542839651 36.0
vertex 62.8284271247462 19.1715728752538 5.63993296509579e-015
vertex 63.1734133611649 19.5649542839651 0.0
endloop
endfacet
facet normal 0.707106781186549 -0.707106781186547 -7.3598084000802e-017
outer loop
vertex 62.8284271247462 19.1715728752538 5.63993296509579e-015
vertex 62.4350457160349 18.8265866388351 36.0
vertex 62.4350457160349 18.8265866388351 5.63993296509579e-015
endloop
endfacet
facet normal 0.608761429008722 -0.793353340291235 -6.33619645302371e-017
outer loop
vertex 62.4350457160349 18.8265866388351 36.0
vertex 62.8284271247462 19.1715728752538 5.63993296509579e-015
vertex 62.8284271247462 19.1715728752538 36.0
endloop
endfacet
facet normal 0.608761429008722 -0.793353340291235 -6.33619645302371e-017
outer loop
vertex 62.4350457160349 18.8265866388351 5.63993296509579e-015
vertex 62.0 18.5358983848622 36.0
vertex 62.0 18.5358983848622 5.63993296509579e-015
endloop
endfacet
facet normal 0.5 -0.866025403784439 -5.20417042793042e-017
outer loop
vertex 62.0 18.5358983848622 36.0
vertex 62.4350457160349 18.8265866388351 5.63993296509579e-015
vertex 62.4350457160349 18.8265866388351 36.0
endloop
endfacet
facet normal 0.5 -0.866025403784439 -5.20417042793042e-017
outer loop
vertex 62.0 18.5358983848622 5.63993296509579e-015
vertex 61.5307337294604 18.3044818699549 36.0
vertex 61.5307337294603 18.3044818699549 5.63993296509579e-015
endloop
endfacet
facet normal 0.38268343236509 -0.923879532511287 -3.98309960394663e-017
outer loop
vertex 61.5307337294604 18.3044818699549 36.0
vertex 62.0 18.5358983848622 5.63993296509579e-015
vertex 62.0 18.5358983848622 36.0
endloop
endfacet
facet normal 0.38268343236509 -0.923879532511287 -3.98309960394663e-017
outer loop
vertex 61.5307337294603 18.3044818699549 5.63993296509579e-015
vertex 61.0352761804101 18.1362966948437 36.0
vertex 61.0352761804101 18.1362966948437 5.63993296509579e-015
endloop
endfacet
facet normal 0.258819045102521 -0.965925826289068 -2.69387684141546e-017
outer loop
vertex 61.0352761804101 18.1362966948437 36.0
vertex 61.5307337294603 18.3044818699549 5.63993296509579e-015
vertex 61.5307337294604 18.3044818699549 36.0
endloop
endfacet
facet normal 0.707106781186545 0.70710678118655 -7.35980840008016e-017
outer loop
vertex 62.8284271247462 55.8284271247462 36.0
vertex 62.4350457160349 56.1734133611649 5.63993296509579e-015
vertex 62.4350457160349 56.1734133611649 36.0
endloop
endfacet
facet normal 0.608761429008716 0.793353340291239 -6.33619645302364e-017
outer loop
vertex 62.4350457160349 56.1734133611649 5.63993296509579e-015
vertex 62.8284271247462 55.8284271247462 36.0
vertex 62.8284271247462 55.8284271247462 5.63993296509579e-015
endloop
endfacet
facet normal 0.793353340291235 0.608761429008721 -8.25749198488693e-017
outer loop
vertex 63.1734133611649 55.4350457160349 0.0
vertex 62.8284271247462 55.8284271247462 36.0
vertex 63.1734133611649 55.4350457160349 36.0
endloop
endfacet
facet normal 0.707106781186545 0.70710678118655 -7.35980840008016e-017
outer loop
vertex 62.8284271247462 55.8284271247462 36.0
vertex 63.1734133611649 55.4350457160349 0.0
vertex 62.8284271247462 55.8284271247462 5.63993296509579e-015
endloop
endfacet
facet normal 0.258819045102521 -0.965925826289068 -2.69387684141546e-017
outer loop
vertex 61.0352761804101 18.1362966948437 5.63993296509579e-015
vertex 60.5221047688802 18.0342205545048 36.0
vertex 60.5221047688802 18.0342205545048 5.63993296509579e-015
endloop
endfacet
facet normal 0.130526192220051 -0.991444861373811 -1.3599761176161e-017
outer loop
vertex 60.5221047688802 18.0342205545048 36.0
vertex 61.0352761804101 18.1362966948437 5.63993296509579e-015
vertex 61.0352761804101 18.1362966948437 36.0
endloop
endfacet
facet normal 0.130526192220051 -0.991444861373811 -1.3599761176161e-017
outer loop
vertex 60.5221047688802 18.0342205545048 5.63993296509579e-015
vertex 60.0 18.0 36.0
vertex 60.0 18.0 5.63993296509579e-015
endloop
endfacet
facet normal 0.0654031292301408 -0.997858923238604 -6.83562039485709e-018
outer loop
vertex 60.0 18.0 36.0
vertex 60.5221047688802 18.0342205545048 5.63993296509579e-015
vertex 60.5221047688802 18.0342205545048 36.0
endloop
endfacet
facet normal 0.997858923238604 0.0654031292301411 -1.03860557991297e-016
outer loop
vertex 64.0 53.0 0.0
vertex 63.9657794454952 53.5221047688802 36.0
vertex 64.0 53.0 36.0
endloop
endfacet
facet normal 0.99144486137381 0.130526192220052 -1.03192960569703e-016
outer loop
vertex 63.9657794454952 53.5221047688802 36.0
vertex 64.0 53.0 0.0
vertex 63.9657794454952 53.5221047688802 0.0
endloop
endfacet
facet normal -3.60015038438375e-016 -0.500000000000005 0.866025403784436
outer loop
vertex 40.0 68.8 16.6143593539449
vertex 36.0 68.414110472164 16.4545186779375
vertex 40.0 68.414110472164 16.4545186779375
endloop
endfacet
facet normal -1.32479960114024e-016 -0.258819045102521 0.965925826289068
outer loop
vertex 36.0 68.414110472164 16.4545186779375
vertex 40.0 68.8 16.6143593539449
vertex 36.0 68.8 16.6143593539449
endloop
endfacet
facet normal -1.32479960114024e-016 -0.258819045102521 0.965925826289068
outer loop
vertex 40.0 68.414110472164 16.4545186779375
vertex 36.0 68.0 16.4
vertex 40.0 68.0 16.4
endloop
endfacet
facet normal 1.04083408558608e-016 1.4257775833035e-016 1.0
outer loop
vertex 36.0 68.0 16.4
vertex 40.0 68.414110472164 16.4545186779375
vertex 36.0 68.414110472164 16.4545186779375
endloop
endfacet
facet normal 1.04083408558608e-016 -1.4257775833035e-016 1.0
outer loop
vertex 40.0 68.0 16.4
vertex 36.0 67.585889527836 16.4545186779375
vertex 40.0 67.585889527836 16.4545186779375
endloop
endfacet
facet normal 3.33553664943937e-016 0.258819045102521 0.965925826289068
outer loop
vertex 36.0 67.585889527836 16.4545186779375
vertex 40.0 68.0 16.4
vertex 36.0 68.0 16.4
endloop
endfacet
facet normal 3.33553664943937e-016 0.258819045102521 0.965925826289068
outer loop
vertex 40.0 67.585889527836 16.4545186779375
vertex 36.0 67.2 16.6143593539449
vertex 40.0 67.2 16.6143593539449
endloop
endfacet
facet normal 5.40292790286831e-016 0.500000000000002 0.866025403784437
outer loop
vertex 36.0 67.2 16.6143593539449
vertex 40.0 67.585889527836 16.4545186779375
vertex 36.0 67.585889527836 16.4545186779375
endloop
endfacet
facet normal 5.40292790286831e-016 0.500000000000002 0.866025403784437
outer loop
vertex 40.0 67.2 16.6143593539449
vertex 36.0 66.8686291501015 16.8686291501015
vertex 40.0 66.8686291501015 16.8686291501015
endloop
endfacet
facet normal 7.10211854847728e-016 0.707106781186549 0.707106781186546
outer loop
vertex 36.0 66.8686291501015 16.8686291501015
vertex 40.0 67.2 16.6143593539449
vertex 36.0 67.2 16.6143593539449
endloop
endfacet
facet normal 8.31731155181337e-016 0.86602540378444 0.499999999999998
outer loop
vertex 40.0 66.6143593539449 17.2
vertex 36.0 66.8686291501015 16.8686291501015
vertex 36.0 66.6143593539449 17.2
endloop
endfacet
facet normal 7.10211854847728e-016 0.707106781186549 0.707106781186546
outer loop
vertex 36.0 66.8686291501015 16.8686291501015
vertex 40.0 66.6143593539449 17.2
vertex 40.0 66.8686291501015 16.8686291501015
endloop
endfacet
facet normal 8.9656935179006e-016 0.965925826289067 0.258819045102525
outer loop
vertex 40.0 66.4545186779375 17.585889527836
vertex 36.0 66.6143593539449 17.2
vertex 36.0 66.4545186779375 17.585889527836
endloop
endfacet
facet normal 8.31731155181337e-016 0.86602540378444 0.499999999999998
outer loop
vertex 36.0 66.6143593539449 17.2
vertex 40.0 66.4545186779375 17.585889527836
vertex 40.0 66.6143593539449 17.2
endloop
endfacet
facet normal 9.003078287252e-016 1.0 -9.37071075657186e-032
outer loop
vertex 40.0 66.4 18.0
vertex 36.0 66.4545186779375 17.585889527836
vertex 36.0 66.4 18.0
endloop
endfacet
facet normal 8.9656935179006e-016 0.965925826289067 0.258819045102525
outer loop
vertex 36.0 66.4545186779375 17.585889527836
vertex 40.0 66.4 18.0
vertex 40.0 66.4545186779375 17.585889527836
endloop
endfacet
facet normal 8.4269181496175e-016 0.965925826289067 -0.258819045102525
outer loop
vertex 40.0 66.4545186779375 18.414110472164
vertex 36.0 66.4 18.0
vertex 36.0 66.4545186779375 18.414110472164
endloop
endfacet
facet normal 9.003078287252e-016 1.0 -9.37071075657186e-032
outer loop
vertex 36.0 66.4 18.0
vertex 40.0 66.4545186779375 18.414110472164
vertex 40.0 66.4 18.0
endloop
endfacet
facet normal 7.27647746622728e-016 0.866025403784439 -0.5
outer loop
vertex 40.0 66.6143593539449 18.8
vertex 36.0 66.4545186779375 18.414110472164
vertex 36.0 66.6143593539449 18.8
endloop
endfacet
facet normal 8.4269181496175e-016 0.965925826289067 -0.258819045102525
outer loop
vertex 36.0 66.4545186779375 18.414110472164
vertex 40.0 66.6143593539449 18.8
vertex 40.0 66.4545186779375 18.414110472164
endloop
endfacet
facet normal -8.31731155181337e-016 -0.866025403784439 -0.499999999999999
outer loop
vertex 36.0 69.3856406460551 18.8
vertex 40.0 69.1313708498985 19.1313708498985
vertex 36.0 69.1313708498985 19.1313708498985
endloop
endfacet
facet normal -7.10211854847728e-016 -0.707106781186549 -0.707106781186546
outer loop
vertex 40.0 69.1313708498985 19.1313708498985
vertex 36.0 69.3856406460551 18.8
vertex 40.0 69.3856406460551 18.8
endloop
endfacet
facet normal -8.9656935179006e-016 -0.965925826289067 -0.258819045102525
outer loop
vertex 40.0 69.5454813220625 18.414110472164
vertex 36.0 69.3856406460551 18.8
vertex 36.0 69.5454813220625 18.414110472164
endloop
endfacet
facet normal -8.31731155181337e-016 -0.866025403784439 -0.499999999999999
outer loop
vertex 36.0 69.3856406460551 18.8
vertex 40.0 69.5454813220625 18.414110472164
vertex 40.0 69.3856406460551 18.8
endloop
endfacet
facet normal 0.382683432365092 0.923879532511286 -3.98309960394664e-017
outer loop
vertex 61.5307337294603 56.6955181300451 36.0
vertex 61.0352761804101 56.8637033051563 5.63993296509579e-015
vertex 61.0352761804101 56.8637033051563 36.0
endloop
endfacet
facet normal 0.258819045102518 0.965925826289069 -2.69387684141543e-017
outer loop
vertex 61.0352761804101 56.8637033051563 5.63993296509579e-015
vertex 61.5307337294603 56.6955181300451 36.0
vertex 61.5307337294603 56.6955181300451 5.63993296509579e-015
endloop
endfacet
facet normal 0.258819045102518 0.965925826289069 -2.69387684141543e-017
outer loop
vertex 61.0352761804101 56.8637033051563 36.0
vertex 60.5221047688802 56.9657794454952 5.63993296509579e-015
vertex 60.5221047688802 56.9657794454952 36.0
endloop
endfacet
facet normal 0.130526192220041 0.991444861373812 -1.3585610992438e-017
outer loop
vertex 60.5221047688802 56.9657794454952 5.63993296509579e-015
vertex 61.0352761804101 56.8637033051563 36.0
vertex 61.0352761804101 56.8637033051563 5.63993296509579e-015
endloop
endfacet
facet normal -7.10211854847728e-016 -0.707106781186549 -0.707106781186546
outer loop
vertex 36.0 69.1313708498985 19.1313708498985
vertex 40.0 68.8 19.3856406460551
vertex 36.0 68.8 19.3856406460551
endloop
endfacet
facet normal -5.40292790286831e-016 -0.500000000000002 -0.866025403784437
outer loop
vertex 40.0 68.8 19.3856406460551
vertex 36.0 69.1313708498985 19.1313708498985
vertex 40.0 69.1313708498985 19.1313708498985
endloop
endfacet
facet normal -5.40292790286831e-016 -0.500000000000002 -0.866025403784437
outer loop
vertex 36.0 68.8 19.3856406460551
vertex 40.0 68.414110472164 19.5454813220625
vertex 36.0 68.414110472164 19.5454813220625
endloop
endfacet
facet normal -3.33553664943937e-016 -0.258819045102521 -0.965925826289068
outer loop
vertex 40.0 68.414110472164 19.5454813220625
vertex 36.0 68.8 19.3856406460551
vertex 40.0 68.8 19.3856406460551
endloop
endfacet
facet normal -3.33553664943937e-016 -0.258819045102521 -0.965925826289068
outer loop
vertex 36.0 68.414110472164 19.5454813220625
vertex 40.0 68.0 19.6
vertex 36.0 68.0 19.6
endloop
endfacet
facet normal -1.04083408558608e-016 -1.4257775833035e-016 -1.0
outer loop
vertex 40.0 68.0 19.6
vertex 36.0 68.414110472164 19.5454813220625
vertex 40.0 68.414110472164 19.5454813220625
endloop
endfacet
facet normal -1.04083408558608e-016 1.4257775833035e-016 -1.0
outer loop
vertex 36.0 68.0 19.6
vertex 40.0 67.585889527836 19.5454813220625
vertex 36.0 67.585889527836 19.5454813220625
endloop
endfacet
facet normal 1.32479960114024e-016 0.258819045102521 -0.965925826289068
outer loop
vertex 40.0 67.585889527836 19.5454813220625
vertex 36.0 68.0 19.6
vertex 40.0 68.0 19.6
endloop
endfacet
facet normal 1.32479960114024e-016 0.258819045102521 -0.965925826289068
outer loop
vertex 36.0 67.585889527836 19.5454813220625
vertex 40.0 67.2 19.3856406460551
vertex 36.0 67.2 19.3856406460551
endloop
endfacet
facet normal 3.60015038438375e-016 0.500000000000005 -0.866025403784436
outer loop
vertex 40.0 67.2 19.3856406460551
vertex 36.0 67.585889527836 19.5454813220625
vertex 40.0 67.585889527836 19.5454813220625
endloop
endfacet
facet normal 3.60015038438375e-016 0.500000000000005 -0.866025403784436
outer loop
vertex 36.0 67.2 19.3856406460551
vertex 40.0 66.8686291501015 19.1313708498985
vertex 36.0 66.8686291501015 19.1313708498985
endloop
endfacet
facet normal 5.63015686846125e-016 0.707106781186549 -0.707106781186546
outer loop
vertex 40.0 66.8686291501015 19.1313708498985
vertex 36.0 67.2 19.3856406460551
vertex 40.0 67.2 19.3856406460551
endloop
endfacet
facet normal 5.63015686846125e-016 0.707106781186549 -0.707106781186546
outer loop
vertex 36.0 66.8686291501015 19.1313708498985
vertex 40.0 66.6143593539449 18.8
vertex 36.0 66.6143593539449 18.8
endloop
endfacet
facet normal 7.27647746622728e-016 0.866025403784439 -0.5
outer loop
vertex 40.0 66.6143593539449 18.8
vertex 36.0 66.8686291501015 19.1313708498985
vertex 40.0 66.8686291501015 19.1313708498985
endloop
endfacet
facet normal -5.63015686846125e-016 -0.707106781186549 0.707106781186546
outer loop
vertex 40.0 69.1313708498985 16.8686291501015
vertex 36.0 68.8 16.6143593539449
vertex 40.0 68.8 16.6143593539449
endloop
endfacet
facet normal -3.60015038438375e-016 -0.500000000000005 0.866025403784436
outer loop
vertex 36.0 68.8 16.6143593539449
vertex 40.0 69.1313708498985 16.8686291501015
vertex 36.0 69.1313708498985 16.8686291501015
endloop
endfacet
facet normal -5.63015686846125e-016 -0.707106781186549 0.707106781186546
outer loop
vertex 40.0 69.1313708498985 16.8686291501015
vertex 36.0 69.3856406460551 17.2
vertex 36.0 69.1313708498985 16.8686291501015
endloop
endfacet
facet normal -7.27647746622728e-016 -0.866025403784439 0.5
outer loop
vertex 36.0 69.3856406460551 17.2
vertex 40.0 69.1313708498985 16.8686291501015
vertex 40.0 69.3856406460551 17.2
endloop
endfacet
facet normal -7.27647746622728e-016 -0.866025403784439 0.5
outer loop
vertex 40.0 69.3856406460551 17.2
vertex 36.0 69.5454813220625 17.585889527836
vertex 36.0 69.3856406460551 17.2
endloop
endfacet
facet normal -8.4269181496175e-016 -0.965925826289067 0.258819045102525
outer loop
vertex 36.0 69.5454813220625 17.585889527836
vertex 40.0 69.3856406460551 17.2
vertex 40.0 69.5454813220625 17.585889527836
endloop
endfacet
facet normal -8.4269181496175e-016 -0.965925826289067 0.258819045102525
outer loop
vertex 40.0 69.5454813220625 17.585889527836
vertex 36.0 69.6 18.0
vertex 36.0 69.5454813220625 17.585889527836
endloop
endfacet
facet normal -9.003078287252e-016 -1.0 4.6337771457364e-016
outer loop
vertex 36.0 69.6 18.0
vertex 40.0 69.5454813220625 17.585889527836
vertex 40.0 69.6 18.0
endloop
endfacet
facet normal -9.003078287252e-016 -1.0 4.6337771457364e-016
outer loop
vertex 40.0 69.6 18.0
vertex 36.0 69.5454813220625 18.414110472164
vertex 36.0 69.6 18.0
endloop
endfacet
facet normal -8.9656935179006e-016 -0.965925826289067 -0.258819045102525
outer loop
vertex 36.0 69.5454813220625 18.414110472164
vertex 40.0 69.6 18.0
vertex 40.0 69.5454813220625 18.414110472164
endloop
endfacet
facet normal 0.130526192220041 0.991444861373812 -1.3585610992438e-017
outer loop
vertex 60.5221047688802 56.9657794454952 36.0
vertex 60.0 57.0 5.63993296509579e-015
vertex 60.0 57.0 36.0
endloop
endfacet
facet normal 0.0654031292301301 0.997858923238604 -6.80738062067109e-018
outer loop
vertex 60.0 57.0 5.63993296509579e-015
vertex 60.5221047688802 56.9657794454952 36.0
vertex 60.5221047688802 56.9657794454952 5.63993296509579e-015
endloop
endfacet
facet normal 0.499999999999998 0.86602540378444 -5.2041704279304e-017
outer loop
vertex 62.0 56.4641016151378 36.0
vertex 61.5307337294603 56.6955181300451 5.63993296509579e-015
vertex 61.5307337294603 56.6955181300451 36.0
endloop
endfacet
facet normal 0.382683432365092 0.923879532511286 -3.98309960394664e-017
outer loop
vertex 61.5307337294603 56.6955181300451 5.63993296509579e-015
vertex 62.0 56.4641016151378 36.0
vertex 62.0 56.4641016151378 5.63993296509579e-015
endloop
endfacet
facet normal -0.991444861373812 -0.13052619222004 1.03192960569703e-016
outer loop
vertex 59.9743345841214 50.3915785766601 5.63993296509579e-015
vertex 60.0 50.0 36.0
vertex 59.9743345841214 50.3915785766601 36.0
endloop
endfacet
facet normal -0.997858923238604 -0.06540312923013 1.03860557991297e-016
outer loop
vertex 60.0 50.0 36.0
vertex 59.9743345841214 50.3915785766601 5.63993296509579e-015
vertex 60.0 50.0 5.63993296509579e-015
endloop
endfacet
facet normal -1.0 -4.51194637207664e-016 1.04083408558608e-016
outer loop
vertex 60.0 50.0 5.63993296509579e-015
vertex 60.0 25.0 36.0
vertex 60.0 50.0 36.0
endloop
endfacet
facet normal -1.0 -4.51194637207664e-016 1.04083408558608e-016
outer loop
vertex 60.0 25.0 36.0
vertex 60.0 50.0 5.63993296509579e-015
vertex 60.0 25.0 5.63993296509579e-015
endloop
endfacet
facet normal -0.997858923238604 0.0654031292301443 1.03860557991297e-016
outer loop
vertex 60.0 25.0 5.63993296509579e-015
vertex 59.9743345841214 24.6084214233398 36.0
vertex 60.0 25.0 36.0
endloop
endfacet
facet normal -0.99144486137381 0.130526192220052 1.03192960569703e-016
outer loop
vertex 59.9743345841214 24.6084214233398 36.0
vertex 60.0 25.0 5.63993296509579e-015
vertex 59.9743345841214 24.6084214233398 5.63993296509579e-015
endloop
endfacet
facet normal -0.86602540378444 0.499999999999999 9.01388759242296e-017
outer loop
vertex 59.5980762113533 23.5 5.63993296509579e-015
vertex 59.3800600208737 23.1737157129738 36.0
vertex 59.5980762113533 23.5 36.0
endloop
endfacet
facet normal -0.793353340291234 0.608761429008722 8.25749198488692e-017
outer loop
vertex 59.3800600208737 23.1737157129738 36.0
vertex 59.5980762113533 23.5 5.63993296509579e-015
vertex 59.3800600208737 23.1737157129738 5.63993296509579e-015
endloop
endfacet
facet normal -0.707106781186546 0.707106781186549 7.35980840008017e-017
outer loop
vertex 59.1213203435596 22.8786796564404 36.0
vertex 58.8262842870261 22.6199399791263 5.63993296509579e-015
vertex 58.8262842870262 22.6199399791263 36.0
endloop
endfacet
facet normal -0.60876142900872 0.793353340291236 6.33619645302369e-017
outer loop
vertex 58.8262842870261 22.6199399791263 5.63993296509579e-015
vertex 59.1213203435596 22.8786796564404 36.0
vertex 59.1213203435596 22.8786796564404 5.63993296509579e-015
endloop
endfacet
facet normal -0.965925826289071 -0.25881904510251 1.00536852414957e-016
outer loop
vertex 59.8977774788672 50.7764571353076 5.63993296509579e-015
vertex 59.9743345841214 50.3915785766601 36.0
vertex 59.8977774788672 50.7764571353076 36.0
endloop
endfacet
facet normal -0.991444861373812 -0.13052619222004 1.03192960569703e-016
outer loop
vertex 59.9743345841214 50.3915785766601 36.0
vertex 59.8977774788672 50.7764571353076 5.63993296509579e-015
vertex 59.9743345841214 50.3915785766601 5.63993296509579e-015
endloop
endfacet
facet normal -0.793353340291234 0.608761429008722 8.25749198488692e-017
outer loop
vertex 59.3800600208737 23.1737157129738 5.63993296509579e-015
vertex 59.1213203435596 22.8786796564404 36.0
vertex 59.3800600208737 23.1737157129738 36.0
endloop
endfacet
facet normal -0.707106781186546 0.707106781186549 7.35980840008017e-017
outer loop
vertex 59.1213203435596 22.8786796564404 36.0
vertex 59.3800600208737 23.1737157129738 5.63993296509579e-015
vertex 59.1213203435596 22.8786796564404 5.63993296509579e-015
endloop
endfacet
facet normal -0.923879532511289 -0.382683432365084 9.61605308413087e-017
outer loop
vertex 59.7716385975339 51.1480502970953 5.63993296509579e-015
vertex 59.8977774788672 50.7764571353076 36.0
vertex 59.7716385975339 51.1480502970953 36.0
endloop
endfacet
facet normal -0.965925826289071 -0.25881904510251 1.00536852414957e-016
outer loop
vertex 59.8977774788672 50.7764571353076 36.0
vertex 59.7716385975339 51.1480502970953 5.63993296509579e-015
vertex 59.8977774788672 50.7764571353076 5.63993296509579e-015
endloop
endfacet
facet normal -0.99144486137381 0.130526192220052 1.03192960569703e-016
outer loop
vertex 59.9743345841214 24.6084214233398 5.63993296509579e-015
vertex 59.8977774788672 24.2235428646924 36.0
vertex 59.9743345841214 24.6084214233398 36.0
endloop
endfacet
facet normal -0.965925826289068 0.258819045102522 1.00536852414956e-016
outer loop
vertex 59.8977774788672 24.2235428646924 36.0
vertex 59.9743345841214 24.6084214233398 5.63993296509579e-015
vertex 59.8977774788672 24.2235428646924 5.63993296509579e-015
endloop
endfacet
facet normal -0.965925826289068 0.258819045102522 1.00536852414956e-016
outer loop
vertex 59.8977774788672 24.2235428646924 5.63993296509579e-015
vertex 59.7716385975339 23.8519497029047 36.0
vertex 59.8977774788672 24.2235428646924 36.0
endloop
endfacet
facet normal -0.923879532511287 0.38268343236509 9.61605308413084e-017
outer loop
vertex 59.7716385975339 23.8519497029047 36.0
vertex 59.8977774788672 24.2235428646924 5.63993296509579e-015
vertex 59.7716385975339 23.8519497029047 5.63993296509579e-015
endloop
endfacet
facet normal -0.923879532511287 0.38268343236509 9.61605308413084e-017
outer loop
vertex 59.7716385975339 23.8519497029047 5.63993296509579e-015
vertex 59.5980762113533 23.5 36.0
vertex 59.7716385975339 23.8519497029047 36.0
endloop
endfacet
facet normal -0.86602540378444 0.499999999999999 9.01388759242296e-017
outer loop
vertex 59.5980762113533 23.5 36.0
vertex 59.7716385975339 23.8519497029047 5.63993296509579e-015
vertex 59.5980762113533 23.5 5.63993296509579e-015
endloop
endfacet
facet normal -5.37136472866266e-016 -1.0 5.59069949570695e-032
outer loop
vertex 57.0 53.0 5.63993296509579e-015
vertex 36.0 53.0 36.0
vertex 36.0 53.0 5.63993296509579e-015
endloop
endfacet
facet normal -5.37136472866266e-016 -1.0 5.59069949570695e-032
outer loop
vertex 36.0 53.0 36.0
vertex 57.0 53.0 5.63993296509579e-015
vertex 57.0 53.0 36.0
endloop
endfacet
facet normal -0.130526192220043 -0.991444861373812 1.35856109924382e-017
outer loop
vertex 57.3915785766601 52.9743345841214 5.63993296509579e-015
vertex 57.0 53.0 36.0
vertex 57.0 53.0 5.63993296509579e-015
endloop
endfacet
facet normal -0.06540312923013 -0.997858923238604 6.80738062067108e-018
outer loop
vertex 57.0 53.0 36.0
vertex 57.3915785766601 52.9743345841214 5.63993296509579e-015
vertex 57.3915785766602 52.9743345841214 36.0
endloop
endfacet
facet normal -0.258819045102521 -0.965925826289068 2.69387684141546e-017
outer loop
vertex 57.7764571353076 52.8977774788672 5.63993296509579e-015
vertex 57.3915785766602 52.9743345841214 36.0
vertex 57.3915785766601 52.9743345841214 5.63993296509579e-015
endloop
endfacet
facet normal -0.130526192220043 -0.991444861373812 1.35856109924382e-017
outer loop
vertex 57.3915785766602 52.9743345841214 36.0
vertex 57.7764571353076 52.8977774788672 5.63993296509579e-015
vertex 57.7764571353076 52.8977774788672 36.0
endloop
endfacet
facet normal -0.382683432365093 -0.923879532511286 3.98309960394666e-017
outer loop
vertex 58.1480502970953 52.7716385975339 5.63993296509579e-015
vertex 57.7764571353076 52.8977774788672 36.0
vertex 57.7764571353076 52.8977774788672 5.63993296509579e-015
endloop
endfacet
facet normal -0.258819045102521 -0.965925826289068 2.69387684141546e-017
outer loop
vertex 57.7764571353076 52.8977774788672 36.0
vertex 58.1480502970953 52.7716385975339 5.63993296509579e-015
vertex 58.1480502970953 52.7716385975339 36.0
endloop
endfacet
facet normal -0.500000000000001 -0.866025403784438 5.20417042793043e-017
outer loop
vertex 58.5 52.5980762113533 5.63993296509579e-015
vertex 58.1480502970953 52.7716385975339 36.0
vertex 58.1480502970953 52.7716385975339 5.63993296509579e-015
endloop
endfacet
facet normal -0.382683432365093 -0.923879532511286 3.98309960394666e-017
outer loop
vertex 58.1480502970953 52.7716385975339 36.0
vertex 58.5 52.5980762113533 5.63993296509579e-015
vertex 58.5 52.5980762113533 36.0
endloop
endfacet
facet normal -0.60876142900872 -0.793353340291235 6.33619645302369e-017
outer loop
vertex 58.8262842870262 52.3800600208737 5.63993296509579e-015
vertex 58.5 52.5980762113533 36.0
vertex 58.5 52.5980762113533 5.63993296509579e-015
endloop
endfacet
facet normal -0.500000000000001 -0.866025403784438 5.20417042793043e-017
outer loop
vertex 58.5 52.5980762113533 36.0
vertex 58.8262842870262 52.3800600208737 5.63993296509579e-015
vertex 58.8262842870262 52.3800600208737 36.0
endloop
endfacet
facet normal -0.707106781186551 -0.707106781186544 7.35980840008024e-017
outer loop
vertex 59.1213203435596 52.1213203435596 5.63993296509579e-015
vertex 58.8262842870262 52.3800600208737 36.0
vertex 58.8262842870262 52.3800600208737 5.63993296509579e-015
endloop
endfacet
facet normal -0.60876142900872 -0.793353340291235 6.33619645302369e-017
outer loop
vertex 58.8262842870262 52.3800600208737 36.0
vertex 59.1213203435596 52.1213203435596 5.63993296509579e-015
vertex 59.1213203435596 52.1213203435596 36.0
endloop
endfacet
facet normal -0.707106781186551 -0.707106781186544 7.35980840008024e-017
outer loop
vertex 59.1213203435596 52.1213203435596 5.63993296509579e-015
vertex 59.3800600208737 51.8262842870262 36.0
vertex 59.1213203435596 52.1213203435596 36.0
endloop
endfacet
facet normal -0.793353340291241 -0.608761429008713 8.25749198488699e-017
outer loop
vertex 59.3800600208737 51.8262842870262 36.0
vertex 59.1213203435596 52.1213203435596 5.63993296509579e-015
vertex 59.3800600208737 51.8262842870262 5.63993296509579e-015
endloop
endfacet
facet normal -0.793353340291241 -0.608761429008713 8.25749198488699e-017
outer loop
vertex 59.3800600208737 51.8262842870262 5.63993296509579e-015
vertex 59.5980762113533 51.5 36.0
vertex 59.3800600208737 51.8262842870262 36.0
endloop
endfacet
facet normal -0.866025403784441 -0.499999999999997 9.01388759242298e-017
outer loop
vertex 59.5980762113533 51.5 36.0
vertex 59.3800600208737 51.8262842870262 5.63993296509579e-015
vertex 59.5980762113533 51.5 5.63993296509579e-015
endloop
endfacet
facet normal -0.866025403784441 -0.499999999999997 9.01388759242298e-017
outer loop
vertex 59.5980762113533 51.5 5.63993296509579e-015
vertex 59.7716385975339 51.1480502970953 36.0
vertex 59.5980762113533 51.5 36.0
endloop
endfacet
facet normal -0.923879532511289 -0.382683432365084 9.61605308413087e-017
outer loop
vertex 59.7716385975339 51.1480502970953 36.0
vertex 59.5980762113533 51.5 5.63993296509579e-015
vertex 59.7716385975339 51.1480502970953 5.63993296509579e-015
endloop
endfacet
facet normal -0.60876142900872 0.793353340291236 6.33619645302369e-017
outer loop
vertex 58.8262842870262 22.6199399791263 36.0
vertex 58.5 22.4019237886467 5.63993296509579e-015
vertex 58.5 22.4019237886467 36.0
endloop
endfacet
facet normal -0.5 0.866025403784439 5.20417042793042e-017
outer loop
vertex 58.5 22.4019237886467 5.63993296509579e-015
vertex 58.8262842870262 22.6199399791263 36.0
vertex 58.8262842870261 22.6199399791263 5.63993296509579e-015
endloop
endfacet
facet normal -0.5 0.866025403784439 5.20417042793042e-017
outer loop
vertex 58.5 22.4019237886467 36.0
vertex 58.1480502970953 22.2283614024661 5.63993296509579e-015
vertex 58.1480502970953 22.2283614024661 36.0
endloop
endfacet
facet normal -0.382683432365091 0.923879532511286 3.98309960394664e-017
outer loop
vertex 58.1480502970953 22.2283614024661 5.63993296509579e-015
vertex 58.5 22.4019237886467 36.0
vertex 58.5 22.4019237886467 5.63993296509579e-015
endloop
endfacet
facet normal -0.382683432365091 0.923879532511286 3.98309960394664e-017
outer loop
vertex 58.1480502970953 22.2283614024661 36.0
vertex 57.7764571353076 22.1022225211328 5.63993296509579e-015
vertex 57.7764571353076 22.1022225211328 36.0
endloop
endfacet
facet normal -0.258819045102522 0.965925826289068 2.69387684141547e-017
outer loop
vertex 57.7764571353076 22.1022225211328 5.63993296509579e-015
vertex 58.1480502970953 22.2283614024661 36.0
vertex 58.1480502970953 22.2283614024661 5.63993296509579e-015
endloop
endfacet
facet normal -0.258819045102522 0.965925826289068 2.69387684141547e-017
outer loop
vertex 57.7764571353076 22.1022225211328 36.0
vertex 57.3915785766601 22.0256654158786 5.63993296509579e-015
vertex 57.3915785766602 22.0256654158786 36.0
endloop
endfacet
facet normal -0.130526192220048 0.991444861373811 1.35856109924387e-017
outer loop
vertex 57.3915785766601 22.0256654158786 5.63993296509579e-015
vertex 57.7764571353076 22.1022225211328 36.0
vertex 57.7764571353076 22.1022225211328 5.63993296509579e-015
endloop
endfacet
facet normal -0.130526192220048 0.991444861373811 1.35856109924387e-017
outer loop
vertex 57.3915785766602 22.0256654158786 36.0
vertex 57.0 22.0 5.63993296509579e-015
vertex 57.0 22.0 36.0
endloop
endfacet
facet normal -0.0654031292301371 0.997858923238604 6.80738062067183e-018
outer loop
vertex 57.0 22.0 5.63993296509579e-015
vertex 57.3915785766602 22.0256654158786 36.0
vertex 57.3915785766601 22.0256654158786 5.63993296509579e-015
endloop
endfacet
facet normal 0.0 1.0 0.0
outer loop
vertex 57.0 22.0 36.0
vertex 36.0 22.0 5.63993296509579e-015
vertex 36.0 22.0 36.0
endloop
endfacet
facet normal 0.0 1.0 0.0
outer loop
vertex 36.0 22.0 5.63993296509579e-015
vertex 57.0 22.0 36.0
vertex 57.0 22.0 5.63993296509579e-015
endloop
endfacet
facet normal -1.0 0.0 1.04083408558608e-016
outer loop
vertex 36.0 75.0 36.0
vertex 36.0 69.1313708498985 19.1313708498985
vertex 36.0 53.0 36.0
endloop
endfacet
facet normal -1.0 0.0 1.04083408558608e-016
outer loop
vertex 36.0 69.1313708498985 19.1313708498985
vertex 36.0 75.0 36.0
vertex 36.0 69.3856406460551 18.8
endloop
endfacet
facet normal -1.0 0.0 1.04083408558608e-016
outer loop
vertex 36.0 69.3856406460551 18.8
vertex 36.0 75.0 36.0
vertex 36.0 69.5454813220625 18.414110472164
endloop
endfacet
facet normal -1.0 0.0 1.04083408558608e-016
outer loop
vertex 36.0 69.5454813220625 18.414110472164
vertex 36.0 75.0 36.0
vertex 36.0 75.0 5.63993296509579e-015
endloop
endfacet
facet normal -1.0 0.0 1.04083408558608e-016
outer loop
vertex 36.0 53.0 36.0
vertex 36.0 69.1313708498985 19.1313708498985
vertex 36.0 68.8 19.3856406460551
endloop
endfacet
facet normal -1.0 0.0 1.04083408558608e-016
outer loop
vertex 36.0 53.0 36.0
vertex 36.0 68.8 19.3856406460551
vertex 36.0 68.414110472164 19.5454813220625
endloop
endfacet
facet normal -1.0 0.0 1.04083408558608e-016
outer loop
vertex 36.0 53.0 36.0
vertex 36.0 68.414110472164 19.5454813220625
vertex 36.0 68.0 19.6
endloop
endfacet
facet normal -1.0 0.0 1.04083408558608e-016
outer loop
vertex 36.0 69.5454813220625 18.414110472164
vertex 36.0 75.0 5.63993296509579e-015
vertex 36.0 69.6 18.0
endloop
endfacet
facet normal -1.0 0.0 1.04083408558608e-016
outer loop
vertex 36.0 69.6 18.0
vertex 36.0 75.0 5.63993296509579e-015
vertex 36.0 69.5454813220625 17.585889527836
endloop
endfacet
facet normal -1.0 0.0 1.04083408558608e-016
outer loop
vertex 36.0 69.5454813220625 17.585889527836
vertex 36.0 75.0 5.63993296509579e-015
vertex 36.0 69.3856406460551 17.2
endloop
endfacet
facet normal -1.0 0.0 1.04083408558608e-016
outer loop
vertex 36.0 69.3856406460551 17.2
vertex 36.0 75.0 5.63993296509579e-015
vertex 36.0 69.1313708498985 16.8686291501015
endloop
endfacet
facet normal -1.0 0.0 1.04083408558608e-016
outer loop
vertex 36.0 69.1313708498985 16.8686291501015
vertex 36.0 75.0 5.63993296509579e-015
vertex 36.0 68.8 16.6143593539449
endloop
endfacet
facet normal -1.0 0.0 1.04083408558608e-016
outer loop
vertex 36.0 68.8 16.6143593539449
vertex 36.0 75.0 5.63993296509579e-015
vertex 36.0 68.414110472164 16.4545186779375
endloop
endfacet
facet normal -1.0 0.0 1.04083408558608e-016
outer loop
vertex 36.0 68.414110472164 16.4545186779375
vertex 36.0 75.0 5.63993296509579e-015
vertex 36.0 68.0 16.4
endloop
endfacet
facet normal -1.0 0.0 1.04083408558608e-016
outer loop
vertex 36.0 53.0 36.0
vertex 36.0 66.6143593539449 18.8
vertex 36.0 53.0 5.63993296509579e-015
endloop
endfacet
facet normal -1.0 0.0 1.04083408558608e-016
outer loop
vertex 36.0 66.6143593539449 18.8
vertex 36.0 53.0 36.0
vertex 36.0 66.8686291501015 19.1313708498985
endloop
endfacet
facet normal -1.0 0.0 1.04083408558608e-016
outer loop
vertex 36.0 66.8686291501015 19.1313708498985
vertex 36.0 53.0 36.0
vertex 36.0 67.2 19.3856406460551
endloop
endfacet
facet normal -1.0 0.0 1.04083408558608e-016
outer loop
vertex 36.0 67.2 19.3856406460551
vertex 36.0 53.0 36.0
vertex 36.0 67.585889527836 19.5454813220625
endloop
endfacet
facet normal -1.0 0.0 1.04083408558608e-016
outer loop
vertex 36.0 67.585889527836 19.5454813220625
vertex 36.0 53.0 36.0
vertex 36.0 68.0 19.6
endloop
endfacet
facet normal -1.0 0.0 1.04083408558608e-016
outer loop
vertex 36.0 53.0 5.63993296509579e-015
vertex 36.0 66.6143593539449 18.8
vertex 36.0 66.4545186779375 18.414110472164
endloop
endfacet
facet normal -1.0 0.0 1.04083408558608e-016
outer loop
vertex 36.0 53.0 5.63993296509579e-015
vertex 36.0 66.4545186779375 18.414110472164
vertex 36.0 66.4 18.0
endloop
endfacet
facet normal -1.0 0.0 1.04083408558608e-016
outer loop
vertex 36.0 53.0 5.63993296509579e-015
vertex 36.0 66.4 18.0
vertex 36.0 66.4545186779375 17.585889527836
endloop
endfacet
facet normal -1.0 0.0 1.04083408558608e-016
outer loop
vertex 36.0 53.0 5.63993296509579e-015
vertex 36.0 66.4545186779375 17.585889527836
vertex 36.0 66.6143593539449 17.2
endloop
endfacet
facet normal -1.0 0.0 1.04083408558608e-016
outer loop
vertex 36.0 53.0 5.63993296509579e-015
vertex 36.0 66.6143593539449 17.2
vertex 36.0 66.8686291501015 16.8686291501015
endloop
endfacet
facet normal -1.0 0.0 1.04083408558608e-016
outer loop
vertex 36.0 53.0 5.63993296509579e-015
vertex 36.0 66.8686291501015 16.8686291501015
vertex 36.0 67.2 16.6143593539449
endloop
endfacet
facet normal -1.0 0.0 1.04083408558608e-016
outer loop
vertex 36.0 53.0 5.63993296509579e-015
vertex 36.0 67.2 16.6143593539449
vertex 36.0 67.585889527836 16.4545186779375
endloop
endfacet
facet normal -1.0 0.0 1.04083408558608e-016
outer loop
vertex 36.0 53.0 5.63993296509579e-015
vertex 36.0 67.585889527836 16.4545186779375
vertex 36.0 68.0 16.4
endloop
endfacet
facet normal -1.0 0.0 1.04083408558608e-016
outer loop
vertex 36.0 53.0 5.63993296509579e-015
vertex 36.0 68.0 16.4
vertex 36.0 75.0 5.63993296509579e-015
endloop
endfacet
endsolid LightSwitchCover
