solid PWR-BLK-01B
facet normal 0.9659258262890691 0.25881904510251846 0.0
  outer loop
    vertex 2.0511112605663966 12.26177143234622 4.999999999999998
    vertex 2.2009618943233407 11.899999999999999 8.999999999999998
    vertex 2.2009618943233407 11.899999999999999 4.999999999999998
  endloop
endfacet
facet normal 0.866025403784439 0.4999999999999995 0.0
  outer loop
    vertex 2.2009618943233407 11.899999999999999 8.999999999999998
    vertex 2.0511112605663966 12.26177143234622 4.999999999999998
    vertex 2.0511112605663966 12.26177143234622 8.999999999999998
  endloop
endfacet
facet normal 0.0 0.0 1.0
  outer loop
    vertex 2.0511112605663966 12.26177143234622 4.999999999999998
    vertex 2.0511112605663966 13.038228567653778 4.999999999999998
    vertex 1.9999999999999991 12.649999999999999 4.999999999999998
  endloop
endfacet
facet normal 0.0 0.0 1.0
  outer loop
    vertex 2.0511112605663966 13.038228567653778 4.999999999999998
    vertex 2.0511112605663966 12.26177143234622 4.999999999999998
    vertex 2.2009618943233407 11.899999999999999 4.999999999999998
  endloop
endfacet
facet normal 0.0 0.0 1.0
  outer loop
    vertex 2.0511112605663966 13.038228567653778 4.999999999999998
    vertex 2.2009618943233407 11.899999999999999 4.999999999999998
    vertex 2.2009618943233407 13.399999999999999 4.999999999999998
  endloop
endfacet
facet normal 0.0 0.0 1.0
  outer loop
    vertex 2.2009618943233407 13.399999999999999 4.999999999999998
    vertex 2.2009618943233407 11.899999999999999 4.999999999999998
    vertex 2.439339828220178 11.589339828220178 4.999999999999998
  endloop
endfacet
facet normal 0.0 0.0 1.0
  outer loop
    vertex 2.2009618943233407 13.399999999999999 4.999999999999998
    vertex 2.439339828220178 11.589339828220178 4.999999999999998
    vertex 2.439339828220177 13.710660171779818 4.999999999999998
  endloop
endfacet
facet normal 0.0 0.0 1.0
  outer loop
    vertex 2.439339828220177 13.710660171779818 4.999999999999998
    vertex 2.439339828220178 11.589339828220178 4.999999999999998
    vertex 2.749999999999998 13.949038105676655 4.999999999999998
  endloop
endfacet
facet normal 0.0 0.0 1.0
  outer loop
    vertex 2.749999999999998 13.949038105676655 4.999999999999998
    vertex 2.439339828220178 11.589339828220178 4.999999999999998
    vertex 2.749999999999999 11.35096189432334 4.999999999999998
  endloop
endfacet
facet normal 0.0 0.0 1.0
  outer loop
    vertex 2.749999999999998 13.949038105676655 4.999999999999998
    vertex 2.749999999999999 11.35096189432334 4.999999999999998
    vertex 3.1117714323462167 14.098888739433601 4.999999999999998
  endloop
endfacet
facet normal 0.0 0.0 1.0
  outer loop
    vertex 3.1117714323462167 14.098888739433601 4.999999999999998
    vertex 2.749999999999999 11.35096189432334 4.999999999999998
    vertex 3.111771432346218 11.201111260566394 4.999999999999998
  endloop
endfacet
facet normal 0.0 0.0 1.0
  outer loop
    vertex 3.1117714323462167 14.098888739433601 4.999999999999998
    vertex 3.111771432346218 11.201111260566394 4.999999999999998
    vertex 3.499999999999998 14.150000000000002 4.999999999999998
  endloop
endfacet
facet normal 0.0 0.0 1.0
  outer loop
    vertex 3.499999999999998 14.150000000000002 4.999999999999998
    vertex 3.111771432346218 11.201111260566394 4.999999999999998
    vertex 3.499999999999998 11.149999999999997 4.999999999999998
  endloop
endfacet
facet normal 0.0 0.0 1.0
  outer loop
    vertex 3.499999999999998 14.150000000000002 4.999999999999998
    vertex 3.499999999999998 11.149999999999997 4.999999999999998
    vertex 3.8882285676537793 11.201111260566394 4.999999999999998
  endloop
endfacet
facet normal 0.0 0.0 1.0
  outer loop
    vertex 3.499999999999998 14.150000000000002 4.999999999999998
    vertex 3.8882285676537793 11.201111260566394 4.999999999999998
    vertex 3.8882285676537762 14.098888739433601 4.999999999999998
  endloop
endfacet
facet normal 0.0 0.0 1.0
  outer loop
    vertex 3.8882285676537762 14.098888739433601 4.999999999999998
    vertex 3.8882285676537793 11.201111260566394 4.999999999999998
    vertex 4.2499999999999964 13.949038105676655 4.999999999999998
  endloop
endfacet
facet normal 0.0 0.0 1.0
  outer loop
    vertex 4.2499999999999964 13.949038105676655 4.999999999999998
    vertex 3.8882285676537793 11.201111260566394 4.999999999999998
    vertex 4.2499999999999964 11.35096189432334 4.999999999999998
  endloop
endfacet
facet normal 0.0 0.0 1.0
  outer loop
    vertex 4.2499999999999964 13.949038105676655 4.999999999999998
    vertex 4.2499999999999964 11.35096189432334 4.999999999999998
    vertex 4.560660171779819 11.589339828220178 4.999999999999998
  endloop
endfacet
facet normal 0.0 0.0 1.0
  outer loop
    vertex 4.2499999999999964 13.949038105676655 4.999999999999998
    vertex 4.560660171779819 11.589339828220178 4.999999999999998
    vertex 4.5606601717798165 13.710660171779818 4.999999999999998
  endloop
endfacet
facet normal 0.0 0.0 1.0
  outer loop
    vertex 4.5606601717798165 13.710660171779818 4.999999999999998
    vertex 4.560660171779819 11.589339828220178 4.999999999999998
    vertex 4.799038105676654 13.399999999999999 4.999999999999998
  endloop
endfacet
facet normal 0.0 0.0 1.0
  outer loop
    vertex 4.799038105676654 13.399999999999999 4.999999999999998
    vertex 4.560660171779819 11.589339828220178 4.999999999999998
    vertex 4.799038105676656 11.9 4.999999999999998
  endloop
endfacet
facet normal 0.0 0.0 1.0
  outer loop
    vertex 4.799038105676654 13.399999999999999 4.999999999999998
    vertex 4.799038105676656 11.9 4.999999999999998
    vertex 4.9488887394336 13.038228567653784 4.999999999999998
  endloop
endfacet
facet normal 0.0 0.0 1.0
  outer loop
    vertex 4.9488887394336 13.038228567653784 4.999999999999998
    vertex 4.799038105676656 11.9 4.999999999999998
    vertex 4.9488887394336 12.26177143234622 4.999999999999998
  endloop
endfacet
facet normal 0.0 0.0 1.0
  outer loop
    vertex 4.9488887394336 13.038228567653784 4.999999999999998
    vertex 4.9488887394336 12.26177143234622 4.999999999999998
    vertex 4.999999999999998 12.649999999999999 4.999999999999998
  endloop
endfacet
facet normal -0.9659258262890673 -0.2588190451025248 0.0
  outer loop
    vertex 4.9488887394336 13.038228567653784 8.999999999999998
    vertex 4.999999999999998 12.649999999999999 4.999999999999998
    vertex 4.999999999999998 12.649999999999999 8.999999999999998
  endloop
endfacet
facet normal -1.0 9.35666539042925e-16 0.0
  outer loop
    vertex 4.999999999999998 12.649999999999999 4.999999999999998
    vertex 4.9488887394336 13.038228567653784 8.999999999999998
    vertex 4.9488887394336 13.038228567653784 4.999999999999998
  endloop
endfacet
facet normal 0.8660254037844392 -0.4999999999999995 0.0
  outer loop
    vertex 2.2009618943233407 13.399999999999999 4.999999999999998
    vertex 2.0511112605663966 13.038228567653778 8.999999999999998
    vertex 2.0511112605663966 13.038228567653778 4.999999999999998
  endloop
endfacet
facet normal 0.9659258262890685 -0.25881904510251985 0.0
  outer loop
    vertex 2.0511112605663966 13.038228567653778 8.999999999999998
    vertex 2.2009618943233407 13.399999999999999 4.999999999999998
    vertex 2.2009618943233407 13.399999999999999 8.999999999999998
  endloop
endfacet
facet normal 0.0 0.0 1.0
  outer loop
    vertex 2.031366503088799 30.59485142676004 4.999999999999998
    vertex 2.075551796206144 31.370050332101222 4.999999999999998
    vertex 2.0024307136398805 30.985359431528387 4.999999999999998
  endloop
endfacet
facet normal 0.0 0.0 1.0
  outer loop
    vertex 2.075551796206144 31.370050332101222 4.999999999999998
    vertex 2.031366503088799 30.59485142676004 4.999999999999998
    vertex 2.160387238320609 30.225138792976132 4.999999999999998
  endloop
endfacet
facet normal 0.0 0.0 1.0
  outer loop
    vertex 2.075551796206144 31.370050332101222 4.999999999999998
    vertex 2.160387238320609 30.225138792976132 4.999999999999998
    vertex 2.2457466698490003 31.722708079336254 4.999999999999998
  endloop
endfacet
facet normal 0.0 0.0 1.0
  outer loop
    vertex 2.2457466698490003 31.722708079336254 4.999999999999998
    vertex 2.160387238320609 30.225138792976132 4.999999999999998
    vertex 2.380700369446107 29.90141683519002 4.999999999999998
  endloop
endfacet
facet normal 0.0 0.0 1.0
  outer loop
    vertex 2.2457466698490003 31.722708079336254 4.999999999999998
    vertex 2.380700369446107 29.90141683519002 4.999999999999998
    vertex 2.5014168351900152 32.019299630553895 4.999999999999998
  endloop
endfacet
facet normal 0.0 0.0 1.0
  outer loop
    vertex 2.5014168351900152 32.019299630553895 4.999999999999998
    vertex 2.380700369446107 29.90141683519002 4.999999999999998
    vertex 2.6772919206637544 29.645746669849007 4.999999999999998
  endloop
endfacet
facet normal 0.0 0.0 1.0
  outer loop
    vertex 2.5014168351900152 32.019299630553895 4.999999999999998
    vertex 2.6772919206637544 29.645746669849007 4.999999999999998
    vertex 2.825138792976125 32.239612761679396 4.999999999999998
  endloop
endfacet
facet normal 0.0 0.0 1.0
  outer loop
    vertex 2.825138792976125 32.239612761679396 4.999999999999998
    vertex 2.6772919206637544 29.645746669849007 4.999999999999998
    vertex 3.029949667898784 29.47555179620614 4.999999999999998
  endloop
endfacet
facet normal 0.0 0.0 1.0
  outer loop
    vertex 2.825138792976125 32.239612761679396 4.999999999999998
    vertex 3.029949667898784 29.47555179620614 4.999999999999998
    vertex 3.194851426760036 32.36863349691121 4.999999999999998
  endloop
endfacet
facet normal 0.0 0.0 1.0
  outer loop
    vertex 3.194851426760036 32.36863349691121 4.999999999999998
    vertex 3.029949667898784 29.47555179620614 4.999999999999998
    vertex 3.4146405684716084 29.402430713639884 4.999999999999998
  endloop
endfacet
facet normal 0.0 0.0 1.0
  outer loop
    vertex 3.194851426760036 32.36863349691121 4.999999999999998
    vertex 3.4146405684716084 29.402430713639884 4.999999999999998
    vertex 3.585359431528386 32.397569286360124 4.999999999999998
  endloop
endfacet
facet normal 0.0 0.0 1.0
  outer loop
    vertex 3.585359431528386 32.397569286360124 4.999999999999998
    vertex 3.4146405684716084 29.402430713639884 4.999999999999998
    vertex 3.8051485732399595 29.431366503088803 4.999999999999998
  endloop
endfacet
facet normal 0.0 0.0 1.0
  outer loop
    vertex 3.585359431528386 32.397569286360124 4.999999999999998
    vertex 3.8051485732399595 29.431366503088803 4.999999999999998
    vertex 3.9700503321012115 32.32444820379386 4.999999999999998
  endloop
endfacet
facet normal 0.0 0.0 1.0
  outer loop
    vertex 3.9700503321012115 32.32444820379386 4.999999999999998
    vertex 3.8051485732399595 29.431366503088803 4.999999999999998
    vertex 4.174861207023872 29.56038723832061 4.999999999999998
  endloop
endfacet
facet normal 0.0 0.0 1.0
  outer loop
    vertex 3.9700503321012115 32.32444820379386 4.999999999999998
    vertex 4.174861207023872 29.56038723832061 4.999999999999998
    vertex 4.322708079336239 32.15425333015101 4.999999999999998
  endloop
endfacet
facet normal 0.0 0.0 1.0
  outer loop
    vertex 4.322708079336239 32.15425333015101 4.999999999999998
    vertex 4.174861207023872 29.56038723832061 4.999999999999998
    vertex 4.498583164809981 29.780700369446116 4.999999999999998
  endloop
endfacet
facet normal 0.0 0.0 1.0
  outer loop
    vertex 4.322708079336239 32.15425333015101 4.999999999999998
    vertex 4.498583164809981 29.780700369446116 4.999999999999998
    vertex 4.61929963055389 31.898583164809992 4.999999999999998
  endloop
endfacet
facet normal 0.0 0.0 1.0
  outer loop
    vertex 4.61929963055389 31.898583164809992 4.999999999999998
    vertex 4.498583164809981 29.780700369446116 4.999999999999998
    vertex 4.754253330150997 30.077291920663757 4.999999999999998
  endloop
endfacet
facet normal 0.0 0.0 1.0
  outer loop
    vertex 4.61929963055389 31.898583164809992 4.999999999999998
    vertex 4.754253330150997 30.077291920663757 4.999999999999998
    vertex 4.839612761679388 31.57486120702388 4.999999999999998
  endloop
endfacet
facet normal 0.0 0.0 1.0
  outer loop
    vertex 4.839612761679388 31.57486120702388 4.999999999999998
    vertex 4.754253330150997 30.077291920663757 4.999999999999998
    vertex 4.924448203793851 30.42994966789879 4.999999999999998
  endloop
endfacet
facet normal 0.0 0.0 1.0
  outer loop
    vertex 4.839612761679388 31.57486120702388 4.999999999999998
    vertex 4.924448203793851 30.42994966789879 4.999999999999998
    vertex 4.968633496911196 31.20514857323997 4.999999999999998
  endloop
endfacet
facet normal 0.0 0.0 1.0
  outer loop
    vertex 4.968633496911196 31.20514857323997 4.999999999999998
    vertex 4.924448203793851 30.42994966789879 4.999999999999998
    vertex 4.997569286360114 30.81464056847161 4.999999999999998
  endloop
endfacet
facet normal -0.7461997537025927 -0.6657221098733239 0.0
  outer loop
    vertex 4.61929963055389 31.898583164809992 8.999999999999998
    vertex 4.839612761679388 31.57486120702388 4.999999999999998
    vertex 4.839612761679388 31.57486120702388 8.999999999999998
  endloop
endfacet
facet normal -0.8930751744529266 -0.4499074713492484 0.0
  outer loop
    vertex 4.839612761679388 31.57486120702388 4.999999999999998
    vertex 4.61929963055389 31.898583164809992 8.999999999999998
    vertex 4.61929963055389 31.898583164809992 4.999999999999998
  endloop
endfacet
facet normal -0.9983795242400779 0.05690628768559597 0.0
  outer loop
    vertex 4.997569286360114 30.81464056847161 8.999999999999998
    vertex 4.924448203793851 30.42994966789879 4.999999999999998
    vertex 4.924448203793851 30.42994966789879 8.999999999999998
  endloop
endfacet
facet normal -0.9496321358625706 0.3133668880674738 0.0
  outer loop
    vertex 4.924448203793851 30.42994966789879 4.999999999999998
    vertex 4.997569286360114 30.81464056847161 8.999999999999998
    vertex 4.997569286360114 30.81464056847161 4.999999999999998
  endloop
endfacet
facet normal 0.0 1.0 0.0
  outer loop
    vertex 6.999999999999994 3.0 8.999999999999998
    vertex 61.0 3.0 0.0
    vertex 6.999999999999994 3.0 0.0
  endloop
endfacet
facet normal 0.0 1.0 0.0
  outer loop
    vertex 61.0 3.0 0.0
    vertex 6.999999999999994 3.0 8.999999999999998
    vertex 61.0 3.0 8.999999999999998
  endloop
endfacet
facet normal -1.0 0.0 0.0
  outer loop
    vertex 61.0 40.55000000000001 8.999999999999998
    vertex 61.0 3.0 0.0
    vertex 61.0 3.0 8.999999999999998
  endloop
endfacet
facet normal -1.0 0.0 0.0
  outer loop
    vertex 61.0 3.0 0.0
    vertex 61.0 40.55000000000001 8.999999999999998
    vertex 61.0 40.55000000000001 0.0
  endloop
endfacet
facet normal -0.7461997537025927 -0.6657221098733239 0.0
  outer loop
    vertex 4.61929963055389 31.898583164809992 8.999999999999998
    vertex 4.322708079336239 32.15425333015101 4.999999999999998
    vertex 4.61929963055389 31.898583164809992 4.999999999999998
  endloop
endfacet
facet normal -0.5484720528908252 -0.8361688867673349 0.0
  outer loop
    vertex 4.322708079336239 32.15425333015101 4.999999999999998
    vertex 4.61929963055389 31.898583164809992 8.999999999999998
    vertex 4.322708079336239 32.15425333015101 8.999999999999998
  endloop
endfacet
facet normal -0.7071067811865476 -0.7071067811865476 0.0
  outer loop
    vertex 4.5606601717798165 13.710660171779818 8.999999999999998
    vertex 4.2499999999999964 13.949038105676655 4.999999999999998
    vertex 4.5606601717798165 13.710660171779818 4.999999999999998
  endloop
endfacet
facet normal -0.5000000000000036 -0.8660254037844367 0.0
  outer loop
    vertex 4.2499999999999964 13.949038105676655 4.999999999999998
    vertex 4.5606601717798165 13.710660171779818 8.999999999999998
    vertex 4.2499999999999964 13.949038105676655 8.999999999999998
  endloop
endfacet
facet normal 0.0 -1.0 0.0
  outer loop
    vertex 63.99999999999999 0.0 8.999999999999998
    vertex 0.0 0.0 0.0
    vertex 63.99999999999999 0.0 0.0
  endloop
endfacet
facet normal 0.0 -1.0 0.0
  outer loop
    vertex 0.0 0.0 0.0
    vertex 63.99999999999999 0.0 8.999999999999998
    vertex 0.0 0.0 8.999999999999998
  endloop
endfacet
facet normal 0.4499074713492542 -0.8930751744529238 0.0
  outer loop
    vertex 2.825138792976125 32.239612761679396 8.999999999999998
    vertex 2.5014168351900152 32.019299630553895 4.999999999999998
    vertex 2.825138792976125 32.239612761679396 4.999999999999998
  endloop
endfacet
facet normal 0.6657221098733229 -0.7461997537025937 0.0
  outer loop
    vertex 2.5014168351900152 32.019299630553895 4.999999999999998
    vertex 2.825138792976125 32.239612761679396 8.999999999999998
    vertex 2.5014168351900152 32.019299630553895 8.999999999999998
  endloop
endfacet
facet normal 0.2034323821599768 -0.9790889979407986 0.0
  outer loop
    vertex 3.194851426760036 32.36863349691121 8.999999999999998
    vertex 2.825138792976125 32.239612761679396 4.999999999999998
    vertex 3.194851426760036 32.36863349691121 4.999999999999998
  endloop
endfacet
facet normal 0.4499074713492542 -0.8930751744529238 0.0
  outer loop
    vertex 2.825138792976125 32.239612761679396 4.999999999999998
    vertex 3.194851426760036 32.36863349691121 8.999999999999998
    vertex 2.825138792976125 32.239612761679396 8.999999999999998
  endloop
endfacet
facet normal -0.9496321358625706 0.3133668880674738 0.0
  outer loop
    vertex 4.924448203793851 30.42994966789879 8.999999999999998
    vertex 4.754253330150997 30.077291920663757 4.999999999999998
    vertex 4.754253330150997 30.077291920663757 8.999999999999998
  endloop
endfacet
facet normal -0.8361688867673303 0.5484720528908321 0.0
  outer loop
    vertex 4.754253330150997 30.077291920663757 4.999999999999998
    vertex 4.924448203793851 30.42994966789879 8.999999999999998
    vertex 4.924448203793851 30.42994966789879 4.999999999999998
  endloop
endfacet
facet normal 0.5484720528908373 0.8361688867673268 0.0
  outer loop
    vertex 2.6772919206637544 29.645746669849007 8.999999999999998
    vertex 3.029949667898784 29.47555179620614 4.999999999999998
    vertex 2.6772919206637544 29.645746669849007 4.999999999999998
  endloop
endfacet
facet normal 0.31336688806747987 0.9496321358625684 0.0
  outer loop
    vertex 3.029949667898784 29.47555179620614 4.999999999999998
    vertex 2.6772919206637544 29.645746669849007 8.999999999999998
    vertex 3.029949667898784 29.47555179620614 8.999999999999998
  endloop
endfacet
facet normal -0.8660254037844394 0.4999999999999988 0.0
  outer loop
    vertex 4.799038105676656 11.9 8.999999999999998
    vertex 4.560660171779819 11.589339828220178 4.999999999999998
    vertex 4.560660171779819 11.589339828220178 8.999999999999998
  endloop
endfacet
facet normal -0.7071067811865476 0.7071067811865476 0.0
  outer loop
    vertex 4.560660171779819 11.589339828220178 4.999999999999998
    vertex 4.799038105676656 11.9 8.999999999999998
    vertex 4.799038105676656 11.9 4.999999999999998
  endloop
endfacet
facet normal 0.5000000000000031 0.8660254037844368 0.0
  outer loop
    vertex 2.749999999999999 11.35096189432334 8.999999999999998
    vertex 3.111771432346218 11.201111260566394 4.999999999999998
    vertex 2.749999999999999 11.35096189432334 4.999999999999998
  endloop
endfacet
facet normal 0.2588190451025235 0.9659258262890678 0.0
  outer loop
    vertex 3.111771432346218 11.201111260566394 4.999999999999998
    vertex 2.749999999999999 11.35096189432334 8.999999999999998
    vertex 3.111771432346218 11.201111260566394 8.999999999999998
  endloop
endfacet
facet normal -1.0 9.35666539042925e-16 0.0
  outer loop
    vertex 4.999999999999998 12.649999999999999 8.999999999999998
    vertex 4.9488887394336 12.26177143234622 4.999999999999998
    vertex 4.9488887394336 12.26177143234622 8.999999999999998
  endloop
endfacet
facet normal -0.9659258262890685 0.25881904510251985 0.0
  outer loop
    vertex 4.9488887394336 12.26177143234622 4.999999999999998
    vertex 4.999999999999998 12.649999999999999 8.999999999999998
    vertex 4.999999999999998 12.649999999999999 4.999999999999998
  endloop
endfacet
facet normal -0.5484720528908252 -0.8361688867673349 0.0
  outer loop
    vertex 4.322708079336239 32.15425333015101 8.999999999999998
    vertex 3.9700503321012115 32.32444820379386 4.999999999999998
    vertex 4.322708079336239 32.15425333015101 4.999999999999998
  endloop
endfacet
facet normal -0.3133668880674815 -0.9496321358625679 0.0
  outer loop
    vertex 3.9700503321012115 32.32444820379386 4.999999999999998
    vertex 4.322708079336239 32.15425333015101 8.999999999999998
    vertex 3.9700503321012115 32.32444820379386 8.999999999999998
  endloop
endfacet
facet normal -0.056906287685598 -0.9983795242400778 0.0
  outer loop
    vertex 3.585359431528386 32.397569286360124 8.999999999999998
    vertex 3.194851426760036 32.36863349691121 4.999999999999998
    vertex 3.585359431528386 32.397569286360124 4.999999999999998
  endloop
endfacet
facet normal 0.2034323821599768 -0.9790889979407986 0.0
  outer loop
    vertex 3.194851426760036 32.36863349691121 4.999999999999998
    vertex 3.585359431528386 32.397569286360124 8.999999999999998
    vertex 3.194851426760036 32.36863349691121 8.999999999999998
  endloop
endfacet
facet normal 0.2588190451025235 0.9659258262890678 0.0
  outer loop
    vertex 3.111771432346218 11.201111260566394 8.999999999999998
    vertex 3.499999999999998 11.149999999999997 4.999999999999998
    vertex 3.111771432346218 11.201111260566394 4.999999999999998
  endloop
endfacet
facet normal 2.495110770781134e-16 1.0 0.0
  outer loop
    vertex 3.499999999999998 11.149999999999997 4.999999999999998
    vertex 3.111771432346218 11.201111260566394 8.999999999999998
    vertex 3.499999999999998 11.149999999999997 8.999999999999998
  endloop
endfacet
facet normal -0.9659258262890685 0.25881904510251985 0.0
  outer loop
    vertex 4.9488887394336 12.26177143234622 8.999999999999998
    vertex 4.799038105676656 11.9 4.999999999999998
    vertex 4.799038105676656 11.9 8.999999999999998
  endloop
endfacet
facet normal -0.8660254037844394 0.4999999999999988 0.0
  outer loop
    vertex 4.799038105676656 11.9 4.999999999999998
    vertex 4.9488887394336 12.26177143234622 8.999999999999998
    vertex 4.9488887394336 12.26177143234622 4.999999999999998
  endloop
endfacet
facet normal 0.0 -1.0 0.0
  outer loop
    vertex 6.999999999999994 27.55 8.999999999999998
    vertex 2.9999999999999987 27.55 3.9999999999999996
    vertex 6.999999999999994 27.55 3.9999999999999996
  endloop
endfacet
facet normal 0.0 -1.0 0.0
  outer loop
    vertex 2.9999999999999987 27.55 3.9999999999999996
    vertex 6.999999999999994 27.55 8.999999999999998
    vertex 2.9999999999999987 27.55 8.999999999999998
  endloop
endfacet
facet normal 0.83616888676733 -0.5484720528908323 0.0
  outer loop
    vertex 2.2457466698490003 31.722708079336254 4.999999999999998
    vertex 2.075551796206144 31.370050332101222 8.999999999999998
    vertex 2.075551796206144 31.370050332101222 4.999999999999998
  endloop
endfacet
facet normal 0.9496321358625702 -0.3133668880674745 0.0
  outer loop
    vertex 2.075551796206144 31.370050332101222 8.999999999999998
    vertex 2.2457466698490003 31.722708079336254 4.999999999999998
    vertex 2.2457466698490003 31.722708079336254 8.999999999999998
  endloop
endfacet
facet normal 0.5000000000000031 -0.8660254037844368 0.0
  outer loop
    vertex 2.749999999999998 13.949038105676655 8.999999999999998
    vertex 2.439339828220177 13.710660171779818 4.999999999999998
    vertex 2.749999999999998 13.949038105676655 4.999999999999998
  endloop
endfacet
facet normal 0.7071067811865478 -0.7071067811865474 0.0
  outer loop
    vertex 2.439339828220177 13.710660171779818 4.999999999999998
    vertex 2.749999999999998 13.949038105676655 8.999999999999998
    vertex 2.439339828220177 13.710660171779818 8.999999999999998
  endloop
endfacet
facet normal -0.9790889979407994 -0.20343238215997314 0.0
  outer loop
    vertex 4.968633496911196 31.20514857323997 8.999999999999998
    vertex 4.997569286360114 30.81464056847161 4.999999999999998
    vertex 4.997569286360114 30.81464056847161 8.999999999999998
  endloop
endfacet
facet normal -0.9983795242400779 0.05690628768559597 0.0
  outer loop
    vertex 4.997569286360114 30.81464056847161 4.999999999999998
    vertex 4.968633496911196 31.20514857323997 8.999999999999998
    vertex 4.968633496911196 31.20514857323997 4.999999999999998
  endloop
endfacet
facet normal 0.0 1.0 0.0
  outer loop
    vertex 0.0 15.999999999999998 8.999999999999998
    vertex 2.9999999999999987 15.999999999999998 3.9999999999999996
    vertex 0.0 15.999999999999998 3.9999999999999996
  endloop
endfacet
facet normal 0.0 1.0 0.0
  outer loop
    vertex 2.9999999999999987 15.999999999999998 3.9999999999999996
    vertex 0.0 15.999999999999998 8.999999999999998
    vertex 2.9999999999999987 15.999999999999998 8.999999999999998
  endloop
endfacet
facet normal 0.31336688806747987 0.9496321358625684 0.0
  outer loop
    vertex 3.029949667898784 29.47555179620614 8.999999999999998
    vertex 3.4146405684716084 29.402430713639884 4.999999999999998
    vertex 3.029949667898784 29.47555179620614 4.999999999999998
  endloop
endfacet
facet normal 0.05690628768558431 0.9983795242400785 0.0
  outer loop
    vertex 3.4146405684716084 29.402430713639884 4.999999999999998
    vertex 3.029949667898784 29.47555179620614 8.999999999999998
    vertex 3.4146405684716084 29.402430713639884 8.999999999999998
  endloop
endfacet
facet normal 0.9983795242400781 -0.05690628768559221 0.0
  outer loop
    vertex 2.0024307136398805 30.985359431528387 4.999999999999998
    vertex 2.031366503088799 30.59485142676004 8.999999999999998
    vertex 2.031366503088799 30.59485142676004 4.999999999999998
  endloop
endfacet
facet normal 0.9790889979407985 0.20343238215997755 0.0
  outer loop
    vertex 2.031366503088799 30.59485142676004 8.999999999999998
    vertex 2.0024307136398805 30.985359431528387 4.999999999999998
    vertex 2.0024307136398805 30.985359431528387 8.999999999999998
  endloop
endfacet
facet normal -0.25881904510252646 -0.9659258262890668 0.0
  outer loop
    vertex 3.8882285676537762 14.098888739433601 8.999999999999998
    vertex 3.499999999999998 14.150000000000002 4.999999999999998
    vertex 3.8882285676537762 14.098888739433601 4.999999999999998
  endloop
endfacet
facet normal -4.633777145736395e-16 -1.0 0.0
  outer loop
    vertex 3.499999999999998 14.150000000000002 4.999999999999998
    vertex 3.8882285676537762 14.098888739433601 8.999999999999998
    vertex 3.499999999999998 14.150000000000002 8.999999999999998
  endloop
endfacet
facet normal -1.0 0.0 0.0
  outer loop
    vertex 0.0 43.550000000000004 8.999999999999998
    vertex 0.0 27.531968380075845 3.9999999999999996
    vertex 0.0 27.531968380075845 8.999999999999998
  endloop
endfacet
facet normal -1.0 0.0 0.0
  outer loop
    vertex 0.0 15.999999999999998 8.999999999999998
    vertex 0.0 0.0 0.0
    vertex 0.0 0.0 8.999999999999998
  endloop
endfacet
facet normal -1.0 0.0 0.0
  outer loop
    vertex 0.0 0.0 0.0
    vertex 0.0 15.999999999999998 8.999999999999998
    vertex 0.0 15.999999999999998 3.9999999999999996
  endloop
endfacet
facet normal -1.0 0.0 0.0
  outer loop
    vertex 0.0 0.0 0.0
    vertex 0.0 15.999999999999998 3.9999999999999996
    vertex 0.0 43.550000000000004 0.0
  endloop
endfacet
facet normal -1.0 0.0 0.0
  outer loop
    vertex 0.0 43.550000000000004 0.0
    vertex 0.0 15.999999999999998 3.9999999999999996
    vertex 0.0 27.531968380075845 3.9999999999999996
  endloop
endfacet
facet normal -1.0 0.0 0.0
  outer loop
    vertex 0.0 43.550000000000004 0.0
    vertex 0.0 27.531968380075845 3.9999999999999996
    vertex 0.0 43.550000000000004 8.999999999999998
  endloop
endfacet
facet normal 1.0 0.0 0.0
  outer loop
    vertex 6.999999999999994 3.0 0.0
    vertex 6.999999999999994 15.999999999999998 3.9999999999999996
    vertex 6.999999999999994 3.0 8.999999999999998
  endloop
endfacet
facet normal 1.0 0.0 0.0
  outer loop
    vertex 6.999999999999994 15.999999999999998 3.9999999999999996
    vertex 6.999999999999994 3.0 0.0
    vertex 6.999999999999994 40.55000000000001 0.0
  endloop
endfacet
facet normal 1.0 0.0 0.0
  outer loop
    vertex 6.999999999999994 15.999999999999998 3.9999999999999996
    vertex 6.999999999999994 40.55000000000001 0.0
    vertex 6.999999999999994 27.55 3.9999999999999996
  endloop
endfacet
facet normal 1.0 0.0 0.0
  outer loop
    vertex 6.999999999999994 27.55 3.9999999999999996
    vertex 6.999999999999994 40.55000000000001 0.0
    vertex 6.999999999999994 27.55 8.999999999999998
  endloop
endfacet
facet normal 1.0 0.0 0.0
  outer loop
    vertex 6.999999999999994 27.55 8.999999999999998
    vertex 6.999999999999994 40.55000000000001 0.0
    vertex 6.999999999999994 40.55000000000001 8.999999999999998
  endloop
endfacet
facet normal 1.0 0.0 0.0
  outer loop
    vertex 6.999999999999994 15.999999999999998 8.999999999999998
    vertex 6.999999999999994 3.0 8.999999999999998
    vertex 6.999999999999994 15.999999999999998 3.9999999999999996
  endloop
endfacet
facet normal 1.0 0.0 0.0
  outer loop
    vertex 1.9999999999999991 12.649999999999999 4.999999999999998
    vertex 2.0511112605663966 12.26177143234622 8.999999999999998
    vertex 2.0511112605663966 12.26177143234622 4.999999999999998
  endloop
endfacet
facet normal 0.9659258262890691 0.25881904510251846 0.0
  outer loop
    vertex 2.0511112605663966 12.26177143234622 8.999999999999998
    vertex 1.9999999999999991 12.649999999999999 4.999999999999998
    vertex 1.9999999999999991 12.649999999999999 8.999999999999998
  endloop
endfacet
facet normal 0.0 0.0 1.0
  outer loop
    vertex 0.0 27.531968380075845 8.999999999999998
    vertex 2.031366503088799 30.59485142676004 8.999999999999998
    vertex 0.0 43.550000000000004 8.999999999999998
  endloop
endfacet
facet normal 0.0 0.0 1.0
  outer loop
    vertex 2.031366503088799 30.59485142676004 8.999999999999998
    vertex 0.0 27.531968380075845 8.999999999999998
    vertex 2.9999999999999987 27.55 8.999999999999998
  endloop
endfacet
facet normal 0.0 0.0 1.0
  outer loop
    vertex 0.0 43.550000000000004 8.999999999999998
    vertex 2.031366503088799 30.59485142676004 8.999999999999998
    vertex 2.0024307136398805 30.985359431528387 8.999999999999998
  endloop
endfacet
facet normal 0.0 0.0 1.0
  outer loop
    vertex 2.031366503088799 30.59485142676004 8.999999999999998
    vertex 2.9999999999999987 27.55 8.999999999999998
    vertex 2.160387238320609 30.225138792976132 8.999999999999998
  endloop
endfacet
facet normal 0.0 0.0 1.0
  outer loop
    vertex 2.160387238320609 30.225138792976132 8.999999999999998
    vertex 2.9999999999999987 27.55 8.999999999999998
    vertex 2.380700369446107 29.90141683519002 8.999999999999998
  endloop
endfacet
facet normal 0.0 0.0 1.0
  outer loop
    vertex 2.380700369446107 29.90141683519002 8.999999999999998
    vertex 2.9999999999999987 27.55 8.999999999999998
    vertex 2.6772919206637544 29.645746669849007 8.999999999999998
  endloop
endfacet
facet normal 0.0 0.0 1.0
  outer loop
    vertex 2.6772919206637544 29.645746669849007 8.999999999999998
    vertex 2.9999999999999987 27.55 8.999999999999998
    vertex 3.029949667898784 29.47555179620614 8.999999999999998
  endloop
endfacet
facet normal 0.0 0.0 1.0
  outer loop
    vertex 3.029949667898784 29.47555179620614 8.999999999999998
    vertex 2.9999999999999987 27.55 8.999999999999998
    vertex 6.999999999999994 27.55 8.999999999999998
  endloop
endfacet
facet normal 0.0 0.0 1.0
  outer loop
    vertex 3.029949667898784 29.47555179620614 8.999999999999998
    vertex 6.999999999999994 27.55 8.999999999999998
    vertex 3.4146405684716084 29.402430713639884 8.999999999999998
  endloop
endfacet
facet normal 0.0 0.0 1.0
  outer loop
    vertex 3.4146405684716084 29.402430713639884 8.999999999999998
    vertex 6.999999999999994 27.55 8.999999999999998
    vertex 3.8051485732399595 29.431366503088803 8.999999999999998
  endloop
endfacet
facet normal 0.0 0.0 1.0
  outer loop
    vertex 3.8051485732399595 29.431366503088803 8.999999999999998
    vertex 6.999999999999994 27.55 8.999999999999998
    vertex 4.174861207023872 29.56038723832061 8.999999999999998
  endloop
endfacet
facet normal 0.0 0.0 1.0
  outer loop
    vertex 4.174861207023872 29.56038723832061 8.999999999999998
    vertex 6.999999999999994 27.55 8.999999999999998
    vertex 4.498583164809981 29.780700369446116 8.999999999999998
  endloop
endfacet
facet normal 0.0 0.0 1.0
  outer loop
    vertex 4.498583164809981 29.780700369446116 8.999999999999998
    vertex 6.999999999999994 27.55 8.999999999999998
    vertex 4.754253330150997 30.077291920663757 8.999999999999998
  endloop
endfacet
facet normal 0.0 0.0 1.0
  outer loop
    vertex 4.754253330150997 30.077291920663757 8.999999999999998
    vertex 6.999999999999994 27.55 8.999999999999998
    vertex 4.924448203793851 30.42994966789879 8.999999999999998
  endloop
endfacet
facet normal 0.0 0.0 1.0
  outer loop
    vertex 4.924448203793851 30.42994966789879 8.999999999999998
    vertex 6.999999999999994 27.55 8.999999999999998
    vertex 4.997569286360114 30.81464056847161 8.999999999999998
  endloop
endfacet
facet normal 0.0 0.0 1.0
  outer loop
    vertex 0.0 0.0 8.999999999999998
    vertex 2.2009618943233407 11.899999999999999 8.999999999999998
    vertex 0.0 15.999999999999998 8.999999999999998
  endloop
endfacet
facet normal 0.0 0.0 1.0
  outer loop
    vertex 2.2009618943233407 11.899999999999999 8.999999999999998
    vertex 0.0 0.0 8.999999999999998
    vertex 6.999999999999994 3.0 8.999999999999998
  endloop
endfacet
facet normal 0.0 0.0 1.0
  outer loop
    vertex 6.999999999999994 3.0 8.999999999999998
    vertex 0.0 0.0 8.999999999999998
    vertex 63.99999999999999 0.0 8.999999999999998
  endloop
endfacet
facet normal 0.0 0.0 1.0
  outer loop
    vertex 0.0 15.999999999999998 8.999999999999998
    vertex 2.2009618943233407 11.899999999999999 8.999999999999998
    vertex 2.0511112605663966 12.26177143234622 8.999999999999998
  endloop
endfacet
facet normal 0.0 0.0 1.0
  outer loop
    vertex 0.0 15.999999999999998 8.999999999999998
    vertex 2.0511112605663966 12.26177143234622 8.999999999999998
    vertex 1.9999999999999991 12.649999999999999 8.999999999999998
  endloop
endfacet
facet normal 0.0 0.0 1.0
  outer loop
    vertex 2.2009618943233407 11.899999999999999 8.999999999999998
    vertex 6.999999999999994 3.0 8.999999999999998
    vertex 2.439339828220178 11.589339828220178 8.999999999999998
  endloop
endfacet
facet normal 0.0 0.0 1.0
  outer loop
    vertex 2.439339828220178 11.589339828220178 8.999999999999998
    vertex 6.999999999999994 3.0 8.999999999999998
    vertex 2.749999999999999 11.35096189432334 8.999999999999998
  endloop
endfacet
facet normal 0.0 0.0 1.0
  outer loop
    vertex 2.749999999999999 11.35096189432334 8.999999999999998
    vertex 6.999999999999994 3.0 8.999999999999998
    vertex 3.111771432346218 11.201111260566394 8.999999999999998
  endloop
endfacet
facet normal 0.0 0.0 1.0
  outer loop
    vertex 3.111771432346218 11.201111260566394 8.999999999999998
    vertex 6.999999999999994 3.0 8.999999999999998
    vertex 3.499999999999998 11.149999999999997 8.999999999999998
  endloop
endfacet
facet normal 0.0 0.0 1.0
  outer loop
    vertex 3.499999999999998 11.149999999999997 8.999999999999998
    vertex 6.999999999999994 3.0 8.999999999999998
    vertex 3.8882285676537793 11.201111260566394 8.999999999999998
  endloop
endfacet
facet normal 0.0 0.0 1.0
  outer loop
    vertex 3.8882285676537793 11.201111260566394 8.999999999999998
    vertex 6.999999999999994 3.0 8.999999999999998
    vertex 4.2499999999999964 11.35096189432334 8.999999999999998
  endloop
endfacet
facet normal 0.0 0.0 1.0
  outer loop
    vertex 4.2499999999999964 11.35096189432334 8.999999999999998
    vertex 6.999999999999994 3.0 8.999999999999998
    vertex 4.560660171779819 11.589339828220178 8.999999999999998
  endloop
endfacet
facet normal 0.0 0.0 1.0
  outer loop
    vertex 4.560660171779819 11.589339828220178 8.999999999999998
    vertex 6.999999999999994 3.0 8.999999999999998
    vertex 4.799038105676656 11.9 8.999999999999998
  endloop
endfacet
facet normal 0.0 0.0 1.0
  outer loop
    vertex 4.799038105676656 11.9 8.999999999999998
    vertex 6.999999999999994 3.0 8.999999999999998
    vertex 4.9488887394336 12.26177143234622 8.999999999999998
  endloop
endfacet
facet normal 0.0 0.0 1.0
  outer loop
    vertex 4.9488887394336 12.26177143234622 8.999999999999998
    vertex 6.999999999999994 3.0 8.999999999999998
    vertex 4.999999999999998 12.649999999999999 8.999999999999998
  endloop
endfacet
facet normal 0.0 0.0 1.0
  outer loop
    vertex 6.999999999999994 3.0 8.999999999999998
    vertex 63.99999999999999 0.0 8.999999999999998
    vertex 61.0 3.0 8.999999999999998
  endloop
endfacet
facet normal 0.0 0.0 1.0
  outer loop
    vertex 61.0 3.0 8.999999999999998
    vertex 63.99999999999999 0.0 8.999999999999998
    vertex 61.0 40.55000000000001 8.999999999999998
  endloop
endfacet
facet normal 0.0 0.0 1.0
  outer loop
    vertex 0.0 43.550000000000004 8.999999999999998
    vertex 6.999999999999994 40.55000000000001 8.999999999999998
    vertex 63.99999999999999 43.550000000000004 8.999999999999998
  endloop
endfacet
facet normal 0.0 0.0 1.0
  outer loop
    vertex 6.999999999999994 40.55000000000001 8.999999999999998
    vertex 0.0 43.550000000000004 8.999999999999998
    vertex 2.2457466698490003 31.722708079336254 8.999999999999998
  endloop
endfacet
facet normal 0.0 0.0 1.0
  outer loop
    vertex 2.2457466698490003 31.722708079336254 8.999999999999998
    vertex 0.0 43.550000000000004 8.999999999999998
    vertex 2.075551796206144 31.370050332101222 8.999999999999998
  endloop
endfacet
facet normal 0.0 0.0 1.0
  outer loop
    vertex 2.075551796206144 31.370050332101222 8.999999999999998
    vertex 0.0 43.550000000000004 8.999999999999998
    vertex 2.0024307136398805 30.985359431528387 8.999999999999998
  endloop
endfacet
facet normal 0.0 0.0 1.0
  outer loop
    vertex 6.999999999999994 40.55000000000001 8.999999999999998
    vertex 2.2457466698490003 31.722708079336254 8.999999999999998
    vertex 2.5014168351900152 32.019299630553895 8.999999999999998
  endloop
endfacet
facet normal 0.0 0.0 1.0
  outer loop
    vertex 6.999999999999994 40.55000000000001 8.999999999999998
    vertex 2.5014168351900152 32.019299630553895 8.999999999999998
    vertex 2.825138792976125 32.239612761679396 8.999999999999998
  endloop
endfacet
facet normal 0.0 0.0 1.0
  outer loop
    vertex 6.999999999999994 40.55000000000001 8.999999999999998
    vertex 2.825138792976125 32.239612761679396 8.999999999999998
    vertex 3.194851426760036 32.36863349691121 8.999999999999998
  endloop
endfacet
facet normal 0.0 0.0 1.0
  outer loop
    vertex 6.999999999999994 40.55000000000001 8.999999999999998
    vertex 3.194851426760036 32.36863349691121 8.999999999999998
    vertex 3.585359431528386 32.397569286360124 8.999999999999998
  endloop
endfacet
facet normal 0.0 0.0 1.0
  outer loop
    vertex 6.999999999999994 40.55000000000001 8.999999999999998
    vertex 3.585359431528386 32.397569286360124 8.999999999999998
    vertex 3.9700503321012115 32.32444820379386 8.999999999999998
  endloop
endfacet
facet normal 0.0 0.0 1.0
  outer loop
    vertex 6.999999999999994 40.55000000000001 8.999999999999998
    vertex 3.9700503321012115 32.32444820379386 8.999999999999998
    vertex 4.322708079336239 32.15425333015101 8.999999999999998
  endloop
endfacet
facet normal 0.0 0.0 1.0
  outer loop
    vertex 6.999999999999994 40.55000000000001 8.999999999999998
    vertex 4.322708079336239 32.15425333015101 8.999999999999998
    vertex 4.61929963055389 31.898583164809992 8.999999999999998
  endloop
endfacet
facet normal 0.0 0.0 1.0
  outer loop
    vertex 6.999999999999994 40.55000000000001 8.999999999999998
    vertex 4.61929963055389 31.898583164809992 8.999999999999998
    vertex 4.839612761679388 31.57486120702388 8.999999999999998
  endloop
endfacet
facet normal 0.0 0.0 1.0
  outer loop
    vertex 6.999999999999994 40.55000000000001 8.999999999999998
    vertex 4.839612761679388 31.57486120702388 8.999999999999998
    vertex 4.968633496911196 31.20514857323997 8.999999999999998
  endloop
endfacet
facet normal 0.0 0.0 1.0
  outer loop
    vertex 6.999999999999994 40.55000000000001 8.999999999999998
    vertex 4.968633496911196 31.20514857323997 8.999999999999998
    vertex 4.997569286360114 30.81464056847161 8.999999999999998
  endloop
endfacet
facet normal 0.0 0.0 1.0
  outer loop
    vertex 6.999999999999994 40.55000000000001 8.999999999999998
    vertex 4.997569286360114 30.81464056847161 8.999999999999998
    vertex 6.999999999999994 27.55 8.999999999999998
  endloop
endfacet
facet normal 0.0 0.0 1.0
  outer loop
    vertex 63.99999999999999 43.550000000000004 8.999999999999998
    vertex 6.999999999999994 40.55000000000001 8.999999999999998
    vertex 61.0 40.55000000000001 8.999999999999998
  endloop
endfacet
facet normal 0.0 0.0 1.0
  outer loop
    vertex 63.99999999999999 43.550000000000004 8.999999999999998
    vertex 61.0 40.55000000000001 8.999999999999998
    vertex 63.99999999999999 0.0 8.999999999999998
  endloop
endfacet
facet normal 0.0 0.0 1.0
  outer loop
    vertex 0.0 15.999999999999998 8.999999999999998
    vertex 2.0511112605663966 13.038228567653778 8.999999999999998
    vertex 2.9999999999999987 15.999999999999998 8.999999999999998
  endloop
endfacet
facet normal 0.0 0.0 1.0
  outer loop
    vertex 2.0511112605663966 13.038228567653778 8.999999999999998
    vertex 0.0 15.999999999999998 8.999999999999998
    vertex 1.9999999999999991 12.649999999999999 8.999999999999998
  endloop
endfacet
facet normal 0.0 0.0 1.0
  outer loop
    vertex 2.9999999999999987 15.999999999999998 8.999999999999998
    vertex 2.0511112605663966 13.038228567653778 8.999999999999998
    vertex 2.2009618943233407 13.399999999999999 8.999999999999998
  endloop
endfacet
facet normal 0.0 0.0 1.0
  outer loop
    vertex 2.9999999999999987 15.999999999999998 8.999999999999998
    vertex 2.2009618943233407 13.399999999999999 8.999999999999998
    vertex 2.439339828220177 13.710660171779818 8.999999999999998
  endloop
endfacet
facet normal 0.0 0.0 1.0
  outer loop
    vertex 2.9999999999999987 15.999999999999998 8.999999999999998
    vertex 2.439339828220177 13.710660171779818 8.999999999999998
    vertex 2.749999999999998 13.949038105676655 8.999999999999998
  endloop
endfacet
facet normal 0.0 0.0 1.0
  outer loop
    vertex 2.9999999999999987 15.999999999999998 8.999999999999998
    vertex 2.749999999999998 13.949038105676655 8.999999999999998
    vertex 3.1117714323462167 14.098888739433601 8.999999999999998
  endloop
endfacet
facet normal 0.0 0.0 1.0
  outer loop
    vertex 2.9999999999999987 15.999999999999998 8.999999999999998
    vertex 3.1117714323462167 14.098888739433601 8.999999999999998
    vertex 6.999999999999994 15.999999999999998 8.999999999999998
  endloop
endfacet
facet normal 0.0 0.0 1.0
  outer loop
    vertex 6.999999999999994 15.999999999999998 8.999999999999998
    vertex 3.1117714323462167 14.098888739433601 8.999999999999998
    vertex 3.499999999999998 14.150000000000002 8.999999999999998
  endloop
endfacet
facet normal 0.0 0.0 1.0
  outer loop
    vertex 6.999999999999994 15.999999999999998 8.999999999999998
    vertex 3.499999999999998 14.150000000000002 8.999999999999998
    vertex 3.8882285676537762 14.098888739433601 8.999999999999998
  endloop
endfacet
facet normal 0.0 0.0 1.0
  outer loop
    vertex 6.999999999999994 15.999999999999998 8.999999999999998
    vertex 3.8882285676537762 14.098888739433601 8.999999999999998
    vertex 4.2499999999999964 13.949038105676655 8.999999999999998
  endloop
endfacet
facet normal 0.0 0.0 1.0
  outer loop
    vertex 6.999999999999994 15.999999999999998 8.999999999999998
    vertex 4.2499999999999964 13.949038105676655 8.999999999999998
    vertex 4.5606601717798165 13.710660171779818 8.999999999999998
  endloop
endfacet
facet normal 0.0 0.0 1.0
  outer loop
    vertex 6.999999999999994 15.999999999999998 8.999999999999998
    vertex 4.5606601717798165 13.710660171779818 8.999999999999998
    vertex 4.799038105676654 13.399999999999999 8.999999999999998
  endloop
endfacet
facet normal 0.0 0.0 1.0
  outer loop
    vertex 6.999999999999994 15.999999999999998 8.999999999999998
    vertex 4.799038105676654 13.399999999999999 8.999999999999998
    vertex 4.9488887394336 13.038228567653784 8.999999999999998
  endloop
endfacet
facet normal 0.0 0.0 1.0
  outer loop
    vertex 6.999999999999994 15.999999999999998 8.999999999999998
    vertex 4.9488887394336 13.038228567653784 8.999999999999998
    vertex 4.999999999999998 12.649999999999999 8.999999999999998
  endloop
endfacet
facet normal 0.0 0.0 1.0
  outer loop
    vertex 6.999999999999994 15.999999999999998 8.999999999999998
    vertex 4.999999999999998 12.649999999999999 8.999999999999998
    vertex 6.999999999999994 3.0 8.999999999999998
  endloop
endfacet
facet normal 0.866025403784439 0.4999999999999995 0.0
  outer loop
    vertex 2.2009618943233407 11.899999999999999 4.999999999999998
    vertex 2.439339828220178 11.589339828220178 8.999999999999998
    vertex 2.439339828220178 11.589339828220178 4.999999999999998
  endloop
endfacet
facet normal 0.7071067811865468 0.7071067811865483 0.0
  outer loop
    vertex 2.439339828220178 11.589339828220178 8.999999999999998
    vertex 2.2009618943233407 11.899999999999999 4.999999999999998
    vertex 2.2009618943233407 11.899999999999999 8.999999999999998
  endloop
endfacet
facet normal 0.0 1.0 0.0
  outer loop
    vertex 0.0 43.550000000000004 8.999999999999998
    vertex 63.99999999999999 43.550000000000004 0.0
    vertex 0.0 43.550000000000004 0.0
  endloop
endfacet
facet normal 0.0 1.0 0.0
  outer loop
    vertex 63.99999999999999 43.550000000000004 0.0
    vertex 0.0 43.550000000000004 8.999999999999998
    vertex 63.99999999999999 43.550000000000004 8.999999999999998
  endloop
endfacet
facet normal 0.0 -1.0 0.0
  outer loop
    vertex 61.0 40.55000000000001 8.999999999999998
    vertex 6.999999999999994 40.55000000000001 0.0
    vertex 61.0 40.55000000000001 0.0
  endloop
endfacet
facet normal 0.0 -1.0 0.0
  outer loop
    vertex 6.999999999999994 40.55000000000001 0.0
    vertex 61.0 40.55000000000001 8.999999999999998
    vertex 6.999999999999994 40.55000000000001 8.999999999999998
  endloop
endfacet
facet normal 0.2588190451025267 -0.9659258262890668 0.0
  outer loop
    vertex 3.1117714323462167 14.098888739433601 8.999999999999998
    vertex 2.749999999999998 13.949038105676655 4.999999999999998
    vertex 3.1117714323462167 14.098888739433601 4.999999999999998
  endloop
endfacet
facet normal 0.5000000000000031 -0.8660254037844368 0.0
  outer loop
    vertex 2.749999999999998 13.949038105676655 4.999999999999998
    vertex 3.1117714323462167 14.098888739433601 8.999999999999998
    vertex 2.749999999999998 13.949038105676655 8.999999999999998
  endloop
endfacet
facet normal -0.3133668880674815 -0.9496321358625679 0.0
  outer loop
    vertex 3.9700503321012115 32.32444820379386 8.999999999999998
    vertex 3.585359431528386 32.397569286360124 4.999999999999998
    vertex 3.9700503321012115 32.32444820379386 4.999999999999998
  endloop
endfacet
facet normal -0.056906287685598 -0.9983795242400778 0.0
  outer loop
    vertex 3.585359431528386 32.397569286360124 4.999999999999998
    vertex 3.9700503321012115 32.32444820379386 8.999999999999998
    vertex 3.585359431528386 32.397569286360124 8.999999999999998
  endloop
endfacet
facet normal 0.05690628768558431 0.9983795242400785 0.0
  outer loop
    vertex 3.4146405684716084 29.402430713639884 8.999999999999998
    vertex 3.8051485732399595 29.431366503088803 4.999999999999998
    vertex 3.4146405684716084 29.402430713639884 4.999999999999998
  endloop
endfacet
facet normal -0.20343238215997614 0.9790889979407987 0.0
  outer loop
    vertex 3.8051485732399595 29.431366503088803 4.999999999999998
    vertex 3.4146405684716084 29.402430713639884 8.999999999999998
    vertex 3.8051485732399595 29.431366503088803 8.999999999999998
  endloop
endfacet
facet normal -0.8361688867673303 0.5484720528908321 0.0
  outer loop
    vertex 4.754253330150997 30.077291920663757 8.999999999999998
    vertex 4.498583164809981 29.780700369446116 4.999999999999998
    vertex 4.498583164809981 29.780700369446116 8.999999999999998
  endloop
endfacet
facet normal -0.6657221098733226 0.7461997537025938 0.0
  outer loop
    vertex 4.498583164809981 29.780700369446116 4.999999999999998
    vertex 4.754253330150997 30.077291920663757 8.999999999999998
    vertex 4.754253330150997 30.077291920663757 4.999999999999998
  endloop
endfacet
facet normal 0.893075174452926 0.4499074713492499 0.0
  outer loop
    vertex 2.160387238320609 30.225138792976132 4.999999999999998
    vertex 2.380700369446107 29.90141683519002 8.999999999999998
    vertex 2.380700369446107 29.90141683519002 4.999999999999998
  endloop
endfacet
facet normal 0.7461997537025943 0.6657221098733223 0.0
  outer loop
    vertex 2.380700369446107 29.90141683519002 8.999999999999998
    vertex 2.160387238320609 30.225138792976132 4.999999999999998
    vertex 2.160387238320609 30.225138792976132 8.999999999999998
  endloop
endfacet
facet normal -4.633777145736395e-16 -1.0 0.0
  outer loop
    vertex 3.499999999999998 14.150000000000002 8.999999999999998
    vertex 3.1117714323462167 14.098888739433601 4.999999999999998
    vertex 3.499999999999998 14.150000000000002 4.999999999999998
  endloop
endfacet
facet normal 0.2588190451025267 -0.9659258262890668 0.0
  outer loop
    vertex 3.1117714323462167 14.098888739433601 4.999999999999998
    vertex 3.499999999999998 14.150000000000002 8.999999999999998
    vertex 3.1117714323462167 14.098888739433601 8.999999999999998
  endloop
endfacet
facet normal 0.7071067811865478 -0.7071067811865474 0.0
  outer loop
    vertex 2.439339828220177 13.710660171779818 4.999999999999998
    vertex 2.2009618943233407 13.399999999999999 8.999999999999998
    vertex 2.2009618943233407 13.399999999999999 4.999999999999998
  endloop
endfacet
facet normal 0.8660254037844392 -0.4999999999999995 0.0
  outer loop
    vertex 2.2009618943233407 13.399999999999999 8.999999999999998
    vertex 2.439339828220177 13.710660171779818 4.999999999999998
    vertex 2.439339828220177 13.710660171779818 8.999999999999998
  endloop
endfacet
facet normal 1.0 0.0 0.0
  outer loop
    vertex 63.99999999999999 43.550000000000004 0.0
    vertex 63.99999999999999 0.0 8.999999999999998
    vertex 63.99999999999999 0.0 0.0
  endloop
endfacet
facet normal 1.0 0.0 0.0
  outer loop
    vertex 63.99999999999999 0.0 8.999999999999998
    vertex 63.99999999999999 43.550000000000004 0.0
    vertex 63.99999999999999 43.550000000000004 8.999999999999998
  endloop
endfacet
facet normal 0.006010431407500964 -0.9999819371940154 0.0
  outer loop
    vertex 2.9999999999999987 27.55 8.999999999999998
    vertex 0.0 27.531968380075845 3.9999999999999996
    vertex 2.9999999999999987 27.55 3.9999999999999996
  endloop
endfacet
facet normal 0.006010431407500964 -0.9999819371940154 0.0
  outer loop
    vertex 0.0 27.531968380075845 3.9999999999999996
    vertex 2.9999999999999987 27.55 8.999999999999998
    vertex 0.0 27.531968380075845 8.999999999999998
  endloop
endfacet
facet normal 0.6657221098733229 -0.7461997537025937 0.0
  outer loop
    vertex 2.5014168351900152 32.019299630553895 4.999999999999998
    vertex 2.2457466698490003 31.722708079336254 8.999999999999998
    vertex 2.2457466698490003 31.722708079336254 4.999999999999998
  endloop
endfacet
facet normal 0.83616888676733 -0.5484720528908323 0.0
  outer loop
    vertex 2.2457466698490003 31.722708079336254 8.999999999999998
    vertex 2.5014168351900152 32.019299630553895 4.999999999999998
    vertex 2.5014168351900152 32.019299630553895 8.999999999999998
  endloop
endfacet
facet normal -0.8930751744529266 -0.4499074713492484 0.0
  outer loop
    vertex 4.839612761679388 31.57486120702388 8.999999999999998
    vertex 4.968633496911196 31.20514857323997 4.999999999999998
    vertex 4.968633496911196 31.20514857323997 8.999999999999998
  endloop
endfacet
facet normal -0.9790889979407994 -0.20343238215997314 0.0
  outer loop
    vertex 4.968633496911196 31.20514857323997 4.999999999999998
    vertex 4.839612761679388 31.57486120702388 8.999999999999998
    vertex 4.839612761679388 31.57486120702388 4.999999999999998
  endloop
endfacet
facet normal -0.7071067811865476 -0.7071067811865476 0.0
  outer loop
    vertex 4.5606601717798165 13.710660171779818 8.999999999999998
    vertex 4.799038105676654 13.399999999999999 4.999999999999998
    vertex 4.799038105676654 13.399999999999999 8.999999999999998
  endloop
endfacet
facet normal -0.8660254037844354 -0.5000000000000059 0.0
  outer loop
    vertex 4.799038105676654 13.399999999999999 4.999999999999998
    vertex 4.5606601717798165 13.710660171779818 8.999999999999998
    vertex 4.5606601717798165 13.710660171779818 4.999999999999998
  endloop
endfacet
facet normal -0.44990747134925446 0.8930751744529235 0.0
  outer loop
    vertex 4.174861207023872 29.56038723832061 8.999999999999998
    vertex 4.498583164809981 29.780700369446116 4.999999999999998
    vertex 4.174861207023872 29.56038723832061 4.999999999999998
  endloop
endfacet
facet normal -0.6657221098733226 0.7461997537025938 0.0
  outer loop
    vertex 4.498583164809981 29.780700369446116 4.999999999999998
    vertex 4.174861207023872 29.56038723832061 8.999999999999998
    vertex 4.498583164809981 29.780700369446116 8.999999999999998
  endloop
endfacet
facet normal -0.20343238215997614 0.9790889979407987 0.0
  outer loop
    vertex 3.8051485732399595 29.431366503088803 8.999999999999998
    vertex 4.174861207023872 29.56038723832061 4.999999999999998
    vertex 3.8051485732399595 29.431366503088803 4.999999999999998
  endloop
endfacet
facet normal -0.44990747134925446 0.8930751744529235 0.0
  outer loop
    vertex 4.174861207023872 29.56038723832061 4.999999999999998
    vertex 3.8051485732399595 29.431366503088803 8.999999999999998
    vertex 4.174861207023872 29.56038723832061 8.999999999999998
  endloop
endfacet
facet normal 0.0 1.0 0.0
  outer loop
    vertex 2.9999999999999987 15.999999999999998 8.999999999999998
    vertex 6.999999999999994 15.999999999999998 3.9999999999999996
    vertex 2.9999999999999987 15.999999999999998 3.9999999999999996
  endloop
endfacet
facet normal 0.0 1.0 0.0
  outer loop
    vertex 6.999999999999994 15.999999999999998 3.9999999999999996
    vertex 2.9999999999999987 15.999999999999998 8.999999999999998
    vertex 6.999999999999994 15.999999999999998 8.999999999999998
  endloop
endfacet
facet normal -0.5000000000000029 0.8660254037844372 0.0
  outer loop
    vertex 4.2499999999999964 11.35096189432334 8.999999999999998
    vertex 4.560660171779819 11.589339828220178 4.999999999999998
    vertex 4.2499999999999964 11.35096189432334 4.999999999999998
  endloop
endfacet
facet normal -0.7071067811865476 0.7071067811865476 0.0
  outer loop
    vertex 4.560660171779819 11.589339828220178 4.999999999999998
    vertex 4.2499999999999964 11.35096189432334 8.999999999999998
    vertex 4.560660171779819 11.589339828220178 8.999999999999998
  endloop
endfacet
facet normal 0.9790889979407985 0.20343238215997755 0.0
  outer loop
    vertex 2.031366503088799 30.59485142676004 4.999999999999998
    vertex 2.160387238320609 30.225138792976132 8.999999999999998
    vertex 2.160387238320609 30.225138792976132 4.999999999999998
  endloop
endfacet
facet normal 0.893075174452926 0.4499074713492499 0.0
  outer loop
    vertex 2.160387238320609 30.225138792976132 8.999999999999998
    vertex 2.031366503088799 30.59485142676004 4.999999999999998
    vertex 2.031366503088799 30.59485142676004 8.999999999999998
  endloop
endfacet
facet normal 0.9659258262890685 -0.25881904510251985 0.0
  outer loop
    vertex 2.0511112605663966 13.038228567653778 4.999999999999998
    vertex 1.9999999999999991 12.649999999999999 8.999999999999998
    vertex 1.9999999999999991 12.649999999999999 4.999999999999998
  endloop
endfacet
facet normal 1.0 0.0 0.0
  outer loop
    vertex 1.9999999999999991 12.649999999999999 8.999999999999998
    vertex 2.0511112605663966 13.038228567653778 4.999999999999998
    vertex 2.0511112605663966 13.038228567653778 8.999999999999998
  endloop
endfacet
facet normal -0.8660254037844354 -0.5000000000000059 0.0
  outer loop
    vertex 4.799038105676654 13.399999999999999 8.999999999999998
    vertex 4.9488887394336 13.038228567653784 4.999999999999998
    vertex 4.9488887394336 13.038228567653784 8.999999999999998
  endloop
endfacet
facet normal -0.9659258262890673 -0.2588190451025248 0.0
  outer loop
    vertex 4.9488887394336 13.038228567653784 4.999999999999998
    vertex 4.799038105676654 13.399999999999999 8.999999999999998
    vertex 4.799038105676654 13.399999999999999 4.999999999999998
  endloop
endfacet
facet normal 0.9496321358625702 -0.3133668880674745 0.0
  outer loop
    vertex 2.075551796206144 31.370050332101222 4.999999999999998
    vertex 2.0024307136398805 30.985359431528387 8.999999999999998
    vertex 2.0024307136398805 30.985359431528387 4.999999999999998
  endloop
endfacet
facet normal 0.9983795242400781 -0.05690628768559221 0.0
  outer loop
    vertex 2.0024307136398805 30.985359431528387 8.999999999999998
    vertex 2.075551796206144 31.370050332101222 4.999999999999998
    vertex 2.075551796206144 31.370050332101222 8.999999999999998
  endloop
endfacet
facet normal -0.25881904510252396 0.9659258262890676 0.0
  outer loop
    vertex 3.8882285676537793 11.201111260566394 8.999999999999998
    vertex 4.2499999999999964 11.35096189432334 4.999999999999998
    vertex 3.8882285676537793 11.201111260566394 4.999999999999998
  endloop
endfacet
facet normal -0.5000000000000029 0.8660254037844372 0.0
  outer loop
    vertex 4.2499999999999964 11.35096189432334 4.999999999999998
    vertex 3.8882285676537793 11.201111260566394 8.999999999999998
    vertex 4.2499999999999964 11.35096189432334 8.999999999999998
  endloop
endfacet
facet normal 2.495110770781134e-16 1.0 0.0
  outer loop
    vertex 3.499999999999998 11.149999999999997 8.999999999999998
    vertex 3.8882285676537793 11.201111260566394 4.999999999999998
    vertex 3.499999999999998 11.149999999999997 4.999999999999998
  endloop
endfacet
facet normal -0.25881904510252396 0.9659258262890676 0.0
  outer loop
    vertex 3.8882285676537793 11.201111260566394 4.999999999999998
    vertex 3.499999999999998 11.149999999999997 8.999999999999998
    vertex 3.8882285676537793 11.201111260566394 8.999999999999998
  endloop
endfacet
facet normal 0.7461997537025943 0.6657221098733223 0.0
  outer loop
    vertex 2.380700369446107 29.90141683519002 8.999999999999998
    vertex 2.6772919206637544 29.645746669849007 4.999999999999998
    vertex 2.380700369446107 29.90141683519002 4.999999999999998
  endloop
endfacet
facet normal 0.5484720528908373 0.8361688867673268 0.0
  outer loop
    vertex 2.6772919206637544 29.645746669849007 4.999999999999998
    vertex 2.380700369446107 29.90141683519002 8.999999999999998
    vertex 2.6772919206637544 29.645746669849007 8.999999999999998
  endloop
endfacet
facet normal 0.7071067811865468 0.7071067811865483 0.0
  outer loop
    vertex 2.439339828220178 11.589339828220178 8.999999999999998
    vertex 2.749999999999999 11.35096189432334 4.999999999999998
    vertex 2.439339828220178 11.589339828220178 4.999999999999998
  endloop
endfacet
facet normal 0.5000000000000031 0.8660254037844368 0.0
  outer loop
    vertex 2.749999999999999 11.35096189432334 4.999999999999998
    vertex 2.439339828220178 11.589339828220178 8.999999999999998
    vertex 2.749999999999999 11.35096189432334 8.999999999999998
  endloop
endfacet
facet normal 0.0 0.0 -1.0
  outer loop
    vertex 0.0 43.550000000000004 0.0
    vertex 6.999999999999994 40.55000000000001 0.0
    vertex 0.0 0.0 0.0
  endloop
endfacet
facet normal 0.0 0.0 -1.0
  outer loop
    vertex 6.999999999999994 40.55000000000001 0.0
    vertex 0.0 43.550000000000004 0.0
    vertex 63.99999999999999 43.550000000000004 0.0
  endloop
endfacet
facet normal 0.0 0.0 -1.0
  outer loop
    vertex 6.999999999999994 40.55000000000001 0.0
    vertex 63.99999999999999 43.550000000000004 0.0
    vertex 61.0 40.55000000000001 0.0
  endloop
endfacet
facet normal 0.0 0.0 -1.0
  outer loop
    vertex 61.0 40.55000000000001 0.0
    vertex 63.99999999999999 43.550000000000004 0.0
    vertex 61.0 3.0 0.0
  endloop
endfacet
facet normal 0.0 0.0 -1.0
  outer loop
    vertex 0.0 0.0 0.0
    vertex 6.999999999999994 3.0 0.0
    vertex 63.99999999999999 0.0 0.0
  endloop
endfacet
facet normal 0.0 0.0 -1.0
  outer loop
    vertex 6.999999999999994 3.0 0.0
    vertex 0.0 0.0 0.0
    vertex 6.999999999999994 40.55000000000001 0.0
  endloop
endfacet
facet normal 0.0 0.0 -1.0
  outer loop
    vertex 63.99999999999999 0.0 0.0
    vertex 6.999999999999994 3.0 0.0
    vertex 61.0 3.0 0.0
  endloop
endfacet
facet normal 0.0 0.0 -1.0
  outer loop
    vertex 63.99999999999999 0.0 0.0
    vertex 61.0 3.0 0.0
    vertex 63.99999999999999 43.550000000000004 0.0
  endloop
endfacet
facet normal 0.0 0.0 1.0
  outer loop
    vertex 2.9999999999999987 15.999999999999998 3.9999999999999996
    vertex 0.0 27.531968380075845 3.9999999999999996
    vertex 0.0 15.999999999999998 3.9999999999999996
  endloop
endfacet
facet normal 0.0 0.0 1.0
  outer loop
    vertex 0.0 27.531968380075845 3.9999999999999996
    vertex 2.9999999999999987 15.999999999999998 3.9999999999999996
    vertex 2.9999999999999987 27.55 3.9999999999999996
  endloop
endfacet
facet normal 0.0 0.0 1.0
  outer loop
    vertex 2.9999999999999987 27.55 3.9999999999999996
    vertex 2.9999999999999987 15.999999999999998 3.9999999999999996
    vertex 6.999999999999994 15.999999999999998 3.9999999999999996
  endloop
endfacet
facet normal 0.0 0.0 1.0
  outer loop
    vertex 2.9999999999999987 27.55 3.9999999999999996
    vertex 6.999999999999994 15.999999999999998 3.9999999999999996
    vertex 6.999999999999994 27.55 3.9999999999999996
  endloop
endfacet
facet normal -0.5000000000000036 -0.8660254037844367 0.0
  outer loop
    vertex 4.2499999999999964 13.949038105676655 8.999999999999998
    vertex 3.8882285676537762 14.098888739433601 4.999999999999998
    vertex 4.2499999999999964 13.949038105676655 4.999999999999998
  endloop
endfacet
facet normal -0.25881904510252646 -0.9659258262890668 0.0
  outer loop
    vertex 3.8882285676537762 14.098888739433601 4.999999999999998
    vertex 4.2499999999999964 13.949038105676655 8.999999999999998
    vertex 3.8882285676537762 14.098888739433601 8.999999999999998
  endloop
endfacet
endsolid PWR-BLK-01B
