solid PWR-BLK-01B
facet normal 0.0 0.0 -1.0
  outer loop
    vertex 0.0 33.55 0.0
    vertex 6.999999999999998 31.550000000000004 0.0
    vertex 0.0 -8.0 0.0
  endloop
endfacet
facet normal 0.0 0.0 -1.0
  outer loop
    vertex 6.999999999999998 31.550000000000004 0.0
    vertex 0.0 33.55 0.0
    vertex 63.0 33.55 0.0
  endloop
endfacet
facet normal 0.0 0.0 -1.0
  outer loop
    vertex 6.999999999999998 31.550000000000004 0.0
    vertex 63.0 33.55 0.0
    vertex 61.0 31.550000000000004 0.0
  endloop
endfacet
facet normal 0.0 0.0 -1.0
  outer loop
    vertex 61.0 31.550000000000004 0.0
    vertex 63.0 33.55 0.0
    vertex 61.0 -6.0 0.0
  endloop
endfacet
facet normal 0.0 0.0 -1.0
  outer loop
    vertex 0.0 -8.0 0.0
    vertex 6.999999999999998 -6.0 0.0
    vertex 63.0 -8.0 0.0
  endloop
endfacet
facet normal 0.0 0.0 -1.0
  outer loop
    vertex 6.999999999999998 -6.0 0.0
    vertex 0.0 -8.0 0.0
    vertex 6.999999999999998 31.550000000000004 0.0
  endloop
endfacet
facet normal 0.0 0.0 -1.0
  outer loop
    vertex 63.0 -8.0 0.0
    vertex 6.999999999999998 -6.0 0.0
    vertex 61.0 -6.0 0.0
  endloop
endfacet
facet normal 0.0 0.0 -1.0
  outer loop
    vertex 63.0 -8.0 0.0
    vertex 61.0 -6.0 0.0
    vertex 63.0 33.55 0.0
  endloop
endfacet
facet normal 0.0 0.0 1.0
  outer loop
    vertex 3.0 7.0 3.0
    vertex 0.0 18.531968380075845 3.0
    vertex 0.0 7.0 3.0
  endloop
endfacet
facet normal 0.0 0.0 1.0
  outer loop
    vertex 0.0 18.531968380075845 3.0
    vertex 3.0 7.0 3.0
    vertex 3.0 18.55 3.0
  endloop
endfacet
facet normal 0.0 0.0 1.0
  outer loop
    vertex 3.0 18.55 3.0
    vertex 3.0 7.0 3.0
    vertex 6.999999999999998 7.0 3.0
  endloop
endfacet
facet normal 0.0 0.0 1.0
  outer loop
    vertex 3.0 18.55 3.0
    vertex 6.999999999999998 7.0 3.0
    vertex 6.999999999999998 18.55 3.0
  endloop
endfacet
facet normal -0.4999999999999998 -0.8660254037844388 0.0
  outer loop
    vertex 4.249999999999999 4.949038105676657 7.999999999999999
    vertex 3.8882285676537807 5.098888739433603 3.9999999999999982
    vertex 4.249999999999999 4.949038105676657 3.9999999999999982
  endloop
endfacet
facet normal -0.2588190451025209 -0.9659258262890682 0.0
  outer loop
    vertex 3.8882285676537807 5.098888739433603 3.9999999999999982
    vertex 4.249999999999999 4.949038105676657 7.999999999999999
    vertex 3.8882285676537807 5.098888739433603 7.999999999999999
  endloop
endfacet
facet normal 0.7071067811865476 0.7071067811865476 0.0
  outer loop
    vertex 2.439339828220179 2.5893398282201794 7.999999999999999
    vertex 2.75 2.3509618943233415 3.9999999999999982
    vertex 2.439339828220179 2.5893398282201794 3.9999999999999982
  endloop
endfacet
facet normal 0.5000000000000003 0.8660254037844387 0.0
  outer loop
    vertex 2.75 2.3509618943233415 3.9999999999999982
    vertex 2.439339828220179 2.5893398282201794 7.999999999999999
    vertex 2.75 2.3509618943233415 7.999999999999999
  endloop
endfacet
facet normal -0.9659258262890684 -0.25881904510252074 0.0
  outer loop
    vertex 4.9488887394336025 4.038228567653782 7.999999999999999
    vertex 5.0 3.6500000000000004 3.9999999999999982
    vertex 5.0 3.6500000000000004 7.999999999999999
  endloop
endfacet
facet normal -1.0 2.2277774739117265e-16 0.0
  outer loop
    vertex 5.0 3.6500000000000004 3.9999999999999982
    vertex 4.9488887394336025 4.038228567653782 7.999999999999999
    vertex 4.9488887394336025 4.038228567653782 3.9999999999999982
  endloop
endfacet
facet normal 0.0 0.0 1.0
  outer loop
    vertex 2.0511112605663975 3.2617714323462192 3.9999999999999982
    vertex 2.0511112605663975 4.03822856765378 3.9999999999999982
    vertex 1.9999999999999998 3.6500000000000004 3.9999999999999982
  endloop
endfacet
facet normal 0.0 0.0 1.0
  outer loop
    vertex 2.0511112605663975 4.03822856765378 3.9999999999999982
    vertex 2.0511112605663975 3.2617714323462192 3.9999999999999982
    vertex 2.200961894323342 2.899999999999999 3.9999999999999982
  endloop
endfacet
facet normal 0.0 0.0 1.0
  outer loop
    vertex 2.0511112605663975 4.03822856765378 3.9999999999999982
    vertex 2.200961894323342 2.899999999999999 3.9999999999999982
    vertex 2.200961894323342 4.399999999999999 3.9999999999999982
  endloop
endfacet
facet normal 0.0 0.0 1.0
  outer loop
    vertex 2.200961894323342 4.399999999999999 3.9999999999999982
    vertex 2.200961894323342 2.899999999999999 3.9999999999999982
    vertex 2.439339828220179 2.5893398282201794 3.9999999999999982
  endloop
endfacet
facet normal 0.0 0.0 1.0
  outer loop
    vertex 2.200961894323342 4.399999999999999 3.9999999999999982
    vertex 2.439339828220179 2.5893398282201794 3.9999999999999982
    vertex 2.4393398282201786 4.710660171779821 3.9999999999999982
  endloop
endfacet
facet normal 0.0 0.0 1.0
  outer loop
    vertex 2.4393398282201786 4.710660171779821 3.9999999999999982
    vertex 2.439339828220179 2.5893398282201794 3.9999999999999982
    vertex 2.749999999999999 4.949038105676657 3.9999999999999982
  endloop
endfacet
facet normal 0.0 0.0 1.0
  outer loop
    vertex 2.749999999999999 4.949038105676657 3.9999999999999982
    vertex 2.439339828220179 2.5893398282201794 3.9999999999999982
    vertex 2.75 2.3509618943233415 3.9999999999999982
  endloop
endfacet
facet normal 0.0 0.0 1.0
  outer loop
    vertex 2.749999999999999 4.949038105676657 3.9999999999999982
    vertex 2.75 2.3509618943233415 3.9999999999999982
    vertex 3.1117714323462184 5.098888739433603 3.9999999999999982
  endloop
endfacet
facet normal 0.0 0.0 1.0
  outer loop
    vertex 3.1117714323462184 5.098888739433603 3.9999999999999982
    vertex 2.75 2.3509618943233415 3.9999999999999982
    vertex 3.111771432346219 2.201111260566398 3.9999999999999982
  endloop
endfacet
facet normal 0.0 0.0 1.0
  outer loop
    vertex 3.1117714323462184 5.098888739433603 3.9999999999999982
    vertex 3.111771432346219 2.201111260566398 3.9999999999999982
    vertex 3.5 5.15 3.9999999999999982
  endloop
endfacet
facet normal 0.0 0.0 1.0
  outer loop
    vertex 3.5 5.15 3.9999999999999982
    vertex 3.111771432346219 2.201111260566398 3.9999999999999982
    vertex 3.5 2.1500000000000004 3.9999999999999982
  endloop
endfacet
facet normal 0.0 0.0 1.0
  outer loop
    vertex 3.5 5.15 3.9999999999999982
    vertex 3.5 2.1500000000000004 3.9999999999999982
    vertex 3.888228567653782 2.201111260566398 3.9999999999999982
  endloop
endfacet
facet normal 0.0 0.0 1.0
  outer loop
    vertex 3.5 5.15 3.9999999999999982
    vertex 3.888228567653782 2.201111260566398 3.9999999999999982
    vertex 3.8882285676537807 5.098888739433603 3.9999999999999982
  endloop
endfacet
facet normal 0.0 0.0 1.0
  outer loop
    vertex 3.8882285676537807 5.098888739433603 3.9999999999999982
    vertex 3.888228567653782 2.201111260566398 3.9999999999999982
    vertex 4.249999999999999 4.949038105676657 3.9999999999999982
  endloop
endfacet
facet normal 0.0 0.0 1.0
  outer loop
    vertex 4.249999999999999 4.949038105676657 3.9999999999999982
    vertex 3.888228567653782 2.201111260566398 3.9999999999999982
    vertex 4.250000000000001 2.3509618943233415 3.9999999999999982
  endloop
endfacet
facet normal 0.0 0.0 1.0
  outer loop
    vertex 4.249999999999999 4.949038105676657 3.9999999999999982
    vertex 4.250000000000001 2.3509618943233415 3.9999999999999982
    vertex 4.56066017177982 4.710660171779821 3.9999999999999982
  endloop
endfacet
facet normal 0.0 0.0 1.0
  outer loop
    vertex 4.56066017177982 4.710660171779821 3.9999999999999982
    vertex 4.250000000000001 2.3509618943233415 3.9999999999999982
    vertex 4.560660171779822 2.5893398282201794 3.9999999999999982
  endloop
endfacet
facet normal 0.0 0.0 1.0
  outer loop
    vertex 4.56066017177982 4.710660171779821 3.9999999999999982
    vertex 4.560660171779822 2.5893398282201794 3.9999999999999982
    vertex 4.799038105676658 4.4 3.9999999999999982
  endloop
endfacet
facet normal 0.0 0.0 1.0
  outer loop
    vertex 4.799038105676658 4.4 3.9999999999999982
    vertex 4.560660171779822 2.5893398282201794 3.9999999999999982
    vertex 4.799038105676659 2.9000000000000004 3.9999999999999982
  endloop
endfacet
facet normal 0.0 0.0 1.0
  outer loop
    vertex 4.799038105676658 4.4 3.9999999999999982
    vertex 4.799038105676659 2.9000000000000004 3.9999999999999982
    vertex 4.9488887394336025 4.038228567653782 3.9999999999999982
  endloop
endfacet
facet normal 0.0 0.0 1.0
  outer loop
    vertex 4.9488887394336025 4.038228567653782 3.9999999999999982
    vertex 4.799038105676659 2.9000000000000004 3.9999999999999982
    vertex 4.9488887394336025 3.2617714323462192 3.9999999999999982
  endloop
endfacet
facet normal 0.0 0.0 1.0
  outer loop
    vertex 4.9488887394336025 4.038228567653782 3.9999999999999982
    vertex 4.9488887394336025 3.2617714323462192 3.9999999999999982
    vertex 5.0 3.6500000000000004 3.9999999999999982
  endloop
endfacet
facet normal 0.8660254037844389 -0.4999999999999997 0.0
  outer loop
    vertex 2.200961894323342 4.399999999999999 3.9999999999999982
    vertex 2.0511112605663975 4.03822856765378 7.999999999999999
    vertex 2.0511112605663975 4.03822856765378 3.9999999999999982
  endloop
endfacet
facet normal 0.9659258262890682 -0.2588190451025209 0.0
  outer loop
    vertex 2.0511112605663975 4.03822856765378 7.999999999999999
    vertex 2.200961894323342 4.399999999999999 3.9999999999999982
    vertex 2.200961894323342 4.399999999999999 7.999999999999999
  endloop
endfacet
facet normal 0.9659258262890684 0.25881904510252085 0.0
  outer loop
    vertex 2.0511112605663975 3.2617714323462192 3.9999999999999982
    vertex 2.200961894323342 2.899999999999999 7.999999999999999
    vertex 2.200961894323342 2.899999999999999 3.9999999999999982
  endloop
endfacet
facet normal 0.8660254037844384 0.5000000000000004 0.0
  outer loop
    vertex 2.200961894323342 2.899999999999999 7.999999999999999
    vertex 2.0511112605663975 3.2617714323462192 3.9999999999999982
    vertex 2.0511112605663975 3.2617714323462192 7.999999999999999
  endloop
endfacet
facet normal 0.4499074713492488 -0.8930751744529264 0.0
  outer loop
    vertex 2.8251387929761256 23.239612761679385 7.999999999999999
    vertex 2.501416835190016 23.01929963055389 3.9999999999999982
    vertex 2.8251387929761256 23.239612761679385 3.9999999999999982
  endloop
endfacet
facet normal 0.6657221098733219 -0.7461997537025946 0.0
  outer loop
    vertex 2.501416835190016 23.01929963055389 3.9999999999999982
    vertex 2.8251387929761256 23.239612761679385 7.999999999999999
    vertex 2.501416835190016 23.01929963055389 7.999999999999999
  endloop
endfacet
facet normal 0.5000000000000003 0.8660254037844387 0.0
  outer loop
    vertex 2.75 2.3509618943233415 7.999999999999999
    vertex 3.111771432346219 2.201111260566398 3.9999999999999982
    vertex 2.75 2.3509618943233415 3.9999999999999982
  endloop
endfacet
facet normal 0.2588190451025207 0.9659258262890684 0.0
  outer loop
    vertex 3.111771432346219 2.201111260566398 3.9999999999999982
    vertex 2.75 2.3509618943233415 7.999999999999999
    vertex 3.111771432346219 2.201111260566398 7.999999999999999
  endloop
endfacet
facet normal -1.0 2.2277774739117265e-16 0.0
  outer loop
    vertex 5.0 3.6500000000000004 7.999999999999999
    vertex 4.9488887394336025 3.2617714323462192 3.9999999999999982
    vertex 4.9488887394336025 3.2617714323462192 7.999999999999999
  endloop
endfacet
facet normal -0.9659258262890684 0.25881904510252024 0.0
  outer loop
    vertex 4.9488887394336025 3.2617714323462192 3.9999999999999982
    vertex 5.0 3.6500000000000004 7.999999999999999
    vertex 5.0 3.6500000000000004 3.9999999999999982
  endloop
endfacet
facet normal 0.7071067811865483 -0.7071067811865468 0.0
  outer loop
    vertex 2.4393398282201786 4.710660171779821 3.9999999999999982
    vertex 2.200961894323342 4.399999999999999 7.999999999999999
    vertex 2.200961894323342 4.399999999999999 3.9999999999999982
  endloop
endfacet
facet normal 0.8660254037844389 -0.4999999999999997 0.0
  outer loop
    vertex 2.200961894323342 4.399999999999999 7.999999999999999
    vertex 2.4393398282201786 4.710660171779821 3.9999999999999982
    vertex 2.4393398282201786 4.710660171779821 7.999999999999999
  endloop
endfacet
facet normal 0.979088997940799 0.20343238215997503 0.0
  outer loop
    vertex 2.0313665030888006 21.594851426760034 3.9999999999999982
    vertex 2.16038723832061 21.225138792976125 7.999999999999999
    vertex 2.16038723832061 21.225138792976125 3.9999999999999982
  endloop
endfacet
facet normal 0.893075174452927 0.4499074713492478 0.0
  outer loop
    vertex 2.16038723832061 21.225138792976125 7.999999999999999
    vertex 2.0313665030888006 21.594851426760034 3.9999999999999982
    vertex 2.0313665030888006 21.594851426760034 7.999999999999999
  endloop
endfacet
facet normal 0.2588190451025207 0.9659258262890684 0.0
  outer loop
    vertex 3.111771432346219 2.201111260566398 7.999999999999999
    vertex 3.5 2.1500000000000004 3.9999999999999982
    vertex 3.111771432346219 2.201111260566398 3.9999999999999982
  endloop
endfacet
facet normal -2.6733329686940717e-16 1.0 0.0
  outer loop
    vertex 3.5 2.1500000000000004 3.9999999999999982
    vertex 3.111771432346219 2.201111260566398 7.999999999999999
    vertex 3.5 2.1500000000000004 7.999999999999999
  endloop
endfacet
facet normal 0.9659258262890682 -0.2588190451025209 0.0
  outer loop
    vertex 2.0511112605663975 4.03822856765378 3.9999999999999982
    vertex 1.9999999999999998 3.6500000000000004 7.999999999999999
    vertex 1.9999999999999998 3.6500000000000004 3.9999999999999982
  endloop
endfacet
facet normal 1.0 -1.0693331874776287e-16 0.0
  outer loop
    vertex 1.9999999999999998 3.6500000000000004 7.999999999999999
    vertex 2.0511112605663975 4.03822856765378 3.9999999999999982
    vertex 2.0511112605663975 4.03822856765378 7.999999999999999
  endloop
endfacet
facet normal 0.0 -1.0 0.0
  outer loop
    vertex 6.999999999999998 18.55 7.999999999999999
    vertex 3.0 18.55 3.0
    vertex 6.999999999999998 18.55 3.0
  endloop
endfacet
facet normal 0.0 -1.0 0.0
  outer loop
    vertex 3.0 18.55 3.0
    vertex 6.999999999999998 18.55 7.999999999999999
    vertex 3.0 18.55 7.999999999999999
  endloop
endfacet
facet normal 1.0 -1.0693331874776287e-16 0.0
  outer loop
    vertex 1.9999999999999998 3.6500000000000004 3.9999999999999982
    vertex 2.0511112605663975 3.2617714323462192 7.999999999999999
    vertex 2.0511112605663975 3.2617714323462192 3.9999999999999982
  endloop
endfacet
facet normal 0.9659258262890684 0.25881904510252085 0.0
  outer loop
    vertex 2.0511112605663975 3.2617714323462192 7.999999999999999
    vertex 1.9999999999999998 3.6500000000000004 3.9999999999999982
    vertex 1.9999999999999998 3.6500000000000004 7.999999999999999
  endloop
endfacet
facet normal 0.006010431407500962 -0.9999819371940155 0.0
  outer loop
    vertex 3.0 18.55 7.999999999999999
    vertex 0.0 18.531968380075845 3.0
    vertex 3.0 18.55 3.0
  endloop
endfacet
facet normal 0.006010431407500962 -0.9999819371940155 0.0
  outer loop
    vertex 0.0 18.531968380075845 3.0
    vertex 3.0 18.55 7.999999999999999
    vertex 0.0 18.531968380075845 7.999999999999999
  endloop
endfacet
facet normal -0.5000000000000001 0.8660254037844387 0.0
  outer loop
    vertex 4.250000000000001 2.3509618943233415 7.999999999999999
    vertex 4.560660171779822 2.5893398282201794 3.9999999999999982
    vertex 4.250000000000001 2.3509618943233415 3.9999999999999982
  endloop
endfacet
facet normal -0.7071067811865476 0.7071067811865475 0.0
  outer loop
    vertex 4.560660171779822 2.5893398282201794 3.9999999999999982
    vertex 4.250000000000001 2.3509618943233415 7.999999999999999
    vertex 4.560660171779822 2.5893398282201794 7.999999999999999
  endloop
endfacet
facet normal -2.6733329686940717e-16 1.0 0.0
  outer loop
    vertex 3.5 2.1500000000000004 7.999999999999999
    vertex 3.888228567653782 2.201111260566398 3.9999999999999982
    vertex 3.5 2.1500000000000004 3.9999999999999982
  endloop
endfacet
facet normal -0.25881904510252157 0.9659258262890682 0.0
  outer loop
    vertex 3.888228567653782 2.201111260566398 3.9999999999999982
    vertex 3.5 2.1500000000000004 7.999999999999999
    vertex 3.888228567653782 2.201111260566398 7.999999999999999
  endloop
endfacet
facet normal 0.20343238215997653 -0.9790889979407988 0.0
  outer loop
    vertex 3.194851426760037 23.368633496911194 7.999999999999999
    vertex 2.8251387929761256 23.239612761679385 3.9999999999999982
    vertex 3.194851426760037 23.368633496911194 3.9999999999999982
  endloop
endfacet
facet normal 0.4499074713492488 -0.8930751744529264 0.0
  outer loop
    vertex 2.8251387929761256 23.239612761679385 3.9999999999999982
    vertex 3.194851426760037 23.368633496911194 7.999999999999999
    vertex 2.8251387929761256 23.239612761679385 7.999999999999999
  endloop
endfacet
facet normal 0.9983795242400781 -0.056906287685593415 0.0
  outer loop
    vertex 2.002430713639882 21.985359431528387 3.9999999999999982
    vertex 2.0313665030888006 21.594851426760034 7.999999999999999
    vertex 2.0313665030888006 21.594851426760034 3.9999999999999982
  endloop
endfacet
facet normal 0.979088997940799 0.20343238215997503 0.0
  outer loop
    vertex 2.0313665030888006 21.594851426760034 7.999999999999999
    vertex 2.002430713639882 21.985359431528387 3.9999999999999982
    vertex 2.002430713639882 21.985359431528387 7.999999999999999
  endloop
endfacet
facet normal -0.9659258262890684 0.25881904510252024 0.0
  outer loop
    vertex 4.9488887394336025 3.2617714323462192 7.999999999999999
    vertex 4.799038105676659 2.9000000000000004 3.9999999999999982
    vertex 4.799038105676659 2.9000000000000004 7.999999999999999
  endloop
endfacet
facet normal -0.8660254037844393 0.49999999999999917 0.0
  outer loop
    vertex 4.799038105676659 2.9000000000000004 3.9999999999999982
    vertex 4.9488887394336025 3.2617714323462192 7.999999999999999
    vertex 4.9488887394336025 3.2617714323462192 3.9999999999999982
  endloop
endfacet
facet normal -1.603999781216443e-16 -1.0 0.0
  outer loop
    vertex 3.5 5.15 7.999999999999999
    vertex 3.1117714323462184 5.098888739433603 3.9999999999999982
    vertex 3.5 5.15 3.9999999999999982
  endloop
endfacet
facet normal 0.25881904510252063 -0.9659258262890684 0.0
  outer loop
    vertex 3.1117714323462184 5.098888739433603 3.9999999999999982
    vertex 3.5 5.15 7.999999999999999
    vertex 3.1117714323462184 5.098888739433603 7.999999999999999
  endloop
endfacet
facet normal -0.25881904510252157 0.9659258262890682 0.0
  outer loop
    vertex 3.888228567653782 2.201111260566398 7.999999999999999
    vertex 4.250000000000001 2.3509618943233415 3.9999999999999982
    vertex 3.888228567653782 2.201111260566398 3.9999999999999982
  endloop
endfacet
facet normal -0.5000000000000001 0.8660254037844387 0.0
  outer loop
    vertex 4.250000000000001 2.3509618943233415 3.9999999999999982
    vertex 3.888228567653782 2.201111260566398 7.999999999999999
    vertex 4.250000000000001 2.3509618943233415 7.999999999999999
  endloop
endfacet
facet normal 0.25881904510252063 -0.9659258262890684 0.0
  outer loop
    vertex 3.1117714323462184 5.098888739433603 7.999999999999999
    vertex 2.749999999999999 4.949038105676657 3.9999999999999982
    vertex 3.1117714323462184 5.098888739433603 3.9999999999999982
  endloop
endfacet
facet normal 0.5000000000000004 -0.8660254037844384 0.0
  outer loop
    vertex 2.749999999999999 4.949038105676657 3.9999999999999982
    vertex 3.1117714323462184 5.098888739433603 7.999999999999999
    vertex 2.749999999999999 4.949038105676657 7.999999999999999
  endloop
endfacet
facet normal 0.6657221098733219 -0.7461997537025946 0.0
  outer loop
    vertex 2.501416835190016 23.01929963055389 3.9999999999999982
    vertex 2.2457466698490007 22.72270807933624 7.999999999999999
    vertex 2.2457466698490007 22.72270807933624 3.9999999999999982
  endloop
endfacet
facet normal 0.8361688867673319 -0.5484720528908298 0.0
  outer loop
    vertex 2.2457466698490007 22.72270807933624 7.999999999999999
    vertex 2.501416835190016 23.01929963055389 3.9999999999999982
    vertex 2.501416835190016 23.01929963055389 7.999999999999999
  endloop
endfacet
facet normal -0.8660254037844393 0.49999999999999917 0.0
  outer loop
    vertex 4.799038105676659 2.9000000000000004 7.999999999999999
    vertex 4.560660171779822 2.5893398282201794 3.9999999999999982
    vertex 4.560660171779822 2.5893398282201794 7.999999999999999
  endloop
endfacet
facet normal -0.7071067811865476 0.7071067811865475 0.0
  outer loop
    vertex 4.560660171779822 2.5893398282201794 3.9999999999999982
    vertex 4.799038105676659 2.9000000000000004 7.999999999999999
    vertex 4.799038105676659 2.9000000000000004 3.9999999999999982
  endloop
endfacet
facet normal 0.893075174452927 0.4499074713492478 0.0
  outer loop
    vertex 2.16038723832061 21.225138792976125 3.9999999999999982
    vertex 2.380700369446108 20.901416835190012 7.999999999999999
    vertex 2.380700369446108 20.901416835190012 3.9999999999999982
  endloop
endfacet
facet normal 0.746199753702594 0.6657221098733227 0.0
  outer loop
    vertex 2.380700369446108 20.901416835190012 7.999999999999999
    vertex 2.16038723832061 21.225138792976125 3.9999999999999982
    vertex 2.16038723832061 21.225138792976125 7.999999999999999
  endloop
endfacet
facet normal 0.8361688867673319 -0.5484720528908298 0.0
  outer loop
    vertex 2.2457466698490007 22.72270807933624 3.9999999999999982
    vertex 2.075551796206145 22.370050332101215 7.999999999999999
    vertex 2.075551796206145 22.370050332101215 3.9999999999999982
  endloop
endfacet
facet normal 0.9496321358625693 -0.31336688806747703 0.0
  outer loop
    vertex 2.075551796206145 22.370050332101215 7.999999999999999
    vertex 2.2457466698490007 22.72270807933624 3.9999999999999982
    vertex 2.2457466698490007 22.72270807933624 7.999999999999999
  endloop
endfacet
facet normal -0.2588190451025209 -0.9659258262890682 0.0
  outer loop
    vertex 3.8882285676537807 5.098888739433603 7.999999999999999
    vertex 3.5 5.15 3.9999999999999982
    vertex 3.8882285676537807 5.098888739433603 3.9999999999999982
  endloop
endfacet
facet normal -1.603999781216443e-16 -1.0 0.0
  outer loop
    vertex 3.5 5.15 3.9999999999999982
    vertex 3.8882285676537807 5.098888739433603 7.999999999999999
    vertex 3.5 5.15 7.999999999999999
  endloop
endfacet
facet normal 0.5000000000000004 -0.8660254037844384 0.0
  outer loop
    vertex 2.749999999999999 4.949038105676657 7.999999999999999
    vertex 2.4393398282201786 4.710660171779821 3.9999999999999982
    vertex 2.749999999999999 4.949038105676657 3.9999999999999982
  endloop
endfacet
facet normal 0.7071067811865483 -0.7071067811865468 0.0
  outer loop
    vertex 2.4393398282201786 4.710660171779821 3.9999999999999982
    vertex 2.749999999999999 4.949038105676657 7.999999999999999
    vertex 2.4393398282201786 4.710660171779821 7.999999999999999
  endloop
endfacet
facet normal -0.8660254037844382 -0.5000000000000011 0.0
  outer loop
    vertex 4.799038105676658 4.4 7.999999999999999
    vertex 4.9488887394336025 4.038228567653782 3.9999999999999982
    vertex 4.9488887394336025 4.038228567653782 7.999999999999999
  endloop
endfacet
facet normal -0.9659258262890684 -0.25881904510252074 0.0
  outer loop
    vertex 4.9488887394336025 4.038228567653782 3.9999999999999982
    vertex 4.799038105676658 4.4 7.999999999999999
    vertex 4.799038105676658 4.4 3.9999999999999982
  endloop
endfacet
facet normal 0.8660254037844384 0.5000000000000004 0.0
  outer loop
    vertex 2.200961894323342 2.899999999999999 3.9999999999999982
    vertex 2.439339828220179 2.5893398282201794 7.999999999999999
    vertex 2.439339828220179 2.5893398282201794 3.9999999999999982
  endloop
endfacet
facet normal 0.7071067811865476 0.7071067811865476 0.0
  outer loop
    vertex 2.439339828220179 2.5893398282201794 7.999999999999999
    vertex 2.200961894323342 2.899999999999999 3.9999999999999982
    vertex 2.200961894323342 2.899999999999999 7.999999999999999
  endloop
endfacet
facet normal -0.7071067811865465 -0.7071067811865486 0.0
  outer loop
    vertex 4.56066017177982 4.710660171779821 7.999999999999999
    vertex 4.249999999999999 4.949038105676657 3.9999999999999982
    vertex 4.56066017177982 4.710660171779821 3.9999999999999982
  endloop
endfacet
facet normal -0.4999999999999998 -0.8660254037844388 0.0
  outer loop
    vertex 4.249999999999999 4.949038105676657 3.9999999999999982
    vertex 4.56066017177982 4.710660171779821 7.999999999999999
    vertex 4.249999999999999 4.949038105676657 7.999999999999999
  endloop
endfacet
facet normal -0.7071067811865465 -0.7071067811865486 0.0
  outer loop
    vertex 4.56066017177982 4.710660171779821 7.999999999999999
    vertex 4.799038105676658 4.4 3.9999999999999982
    vertex 4.799038105676658 4.4 7.999999999999999
  endloop
endfacet
facet normal -0.8660254037844382 -0.5000000000000011 0.0
  outer loop
    vertex 4.799038105676658 4.4 3.9999999999999982
    vertex 4.56066017177982 4.710660171779821 7.999999999999999
    vertex 4.56066017177982 4.710660171779821 3.9999999999999982
  endloop
endfacet
facet normal 0.9496321358625693 -0.31336688806747703 0.0
  outer loop
    vertex 2.075551796206145 22.370050332101215 3.9999999999999982
    vertex 2.002430713639882 21.985359431528387 7.999999999999999
    vertex 2.002430713639882 21.985359431528387 3.9999999999999982
  endloop
endfacet
facet normal 0.9983795242400781 -0.056906287685593415 0.0
  outer loop
    vertex 2.002430713639882 21.985359431528387 7.999999999999999
    vertex 2.075551796206145 22.370050332101215 3.9999999999999982
    vertex 2.075551796206145 22.370050332101215 7.999999999999999
  endloop
endfacet
facet normal -0.9496321358625697 0.31336688806747615 0.0
  outer loop
    vertex 4.9244482037938555 21.429949667898782 7.999999999999999
    vertex 4.754253330150999 21.07729192066375 3.9999999999999982
    vertex 4.754253330150999 21.07729192066375 7.999999999999999
  endloop
endfacet
facet normal -0.8361688867673326 0.5484720528908286 0.0
  outer loop
    vertex 4.754253330150999 21.07729192066375 3.9999999999999982
    vertex 4.9244482037938555 21.429949667898782 7.999999999999999
    vertex 4.9244482037938555 21.429949667898782 3.9999999999999982
  endloop
endfacet
facet normal -0.5484720528908263 -0.836168886767334 0.0
  outer loop
    vertex 4.322708079336244 23.154253330150997 7.999999999999999
    vertex 3.970050332101215 23.324448203793853 3.9999999999999982
    vertex 4.322708079336244 23.154253330150997 3.9999999999999982
  endloop
endfacet
facet normal -0.3133668880674778 -0.949632135862569 0.0
  outer loop
    vertex 3.970050332101215 23.324448203793853 3.9999999999999982
    vertex 4.322708079336244 23.154253330150997 7.999999999999999
    vertex 3.970050332101215 23.324448203793853 7.999999999999999
  endloop
endfacet
facet normal -0.44990747134924863 0.8930751744529266 0.0
  outer loop
    vertex 4.174861207023874 20.560387238320608 7.999999999999999
    vertex 4.498583164809984 20.780700369446105 3.9999999999999982
    vertex 4.174861207023874 20.560387238320608 3.9999999999999982
  endloop
endfacet
facet normal -0.6657221098733225 0.7461997537025941 0.0
  outer loop
    vertex 4.498583164809984 20.780700369446105 3.9999999999999982
    vertex 4.174861207023874 20.560387238320608 7.999999999999999
    vertex 4.498583164809984 20.780700369446105 7.999999999999999
  endloop
endfacet
facet normal -0.9790889979407988 -0.203432382159976 0.0
  outer loop
    vertex 4.9686334969112 22.205148573239963 7.999999999999999
    vertex 4.997569286360118 21.814640568471606 3.9999999999999982
    vertex 4.997569286360118 21.814640568471606 7.999999999999999
  endloop
endfacet
facet normal -0.998379524240078 0.056906287685593915 0.0
  outer loop
    vertex 4.997569286360118 21.814640568471606 3.9999999999999982
    vertex 4.9686334969112 22.205148573239963 7.999999999999999
    vertex 4.9686334969112 22.205148573239963 3.9999999999999982
  endloop
endfacet
facet normal -0.3133668880674778 -0.949632135862569 0.0
  outer loop
    vertex 3.970050332101215 23.324448203793853 7.999999999999999
    vertex 3.5853594315283903 23.397569286360117 3.9999999999999982
    vertex 3.970050332101215 23.324448203793853 3.9999999999999982
  endloop
endfacet
facet normal -0.05690628768559494 -0.998379524240078 0.0
  outer loop
    vertex 3.5853594315283903 23.397569286360117 3.9999999999999982
    vertex 3.970050332101215 23.324448203793853 7.999999999999999
    vertex 3.5853594315283903 23.397569286360117 7.999999999999999
  endloop
endfacet
facet normal -0.05690628768559494 -0.998379524240078 0.0
  outer loop
    vertex 3.5853594315283903 23.397569286360117 7.999999999999999
    vertex 3.194851426760037 23.368633496911194 3.9999999999999982
    vertex 3.5853594315283903 23.397569286360117 3.9999999999999982
  endloop
endfacet
facet normal 0.20343238215997653 -0.9790889979407988 0.0
  outer loop
    vertex 3.194851426760037 23.368633496911194 3.9999999999999982
    vertex 3.5853594315283903 23.397569286360117 7.999999999999999
    vertex 3.194851426760037 23.368633496911194 7.999999999999999
  endloop
endfacet
facet normal 0.056906287685591604 0.9983795242400781 0.0
  outer loop
    vertex 3.4146405684716097 20.402430713639877 7.999999999999999
    vertex 3.805148573239963 20.431366503088796 3.9999999999999982
    vertex 3.4146405684716097 20.402430713639877 3.9999999999999982
  endloop
endfacet
facet normal -0.20343238215997622 0.9790889979407988 0.0
  outer loop
    vertex 3.805148573239963 20.431366503088796 3.9999999999999982
    vertex 3.4146405684716097 20.402430713639877 7.999999999999999
    vertex 3.805148573239963 20.431366503088796 7.999999999999999
  endloop
endfacet
facet normal 0.0 1.0 0.0
  outer loop
    vertex 0.0 33.55 7.999999999999999
    vertex 63.0 33.55 0.0
    vertex 0.0 33.55 0.0
  endloop
endfacet
facet normal 0.0 1.0 0.0
  outer loop
    vertex 63.0 33.55 0.0
    vertex 0.0 33.55 7.999999999999999
    vertex 63.0 33.55 7.999999999999999
  endloop
endfacet
facet normal -0.0 -1.0 -0.0
  outer loop
    vertex 63.0 -8.0 7.999999999999999
    vertex 0.0 -8.0 0.0
    vertex 63.0 -8.0 0.0
  endloop
endfacet
facet normal -0.0 -1.0 -0.0
  outer loop
    vertex 0.0 -8.0 0.0
    vertex 63.0 -8.0 7.999999999999999
    vertex 0.0 -8.0 7.999999999999999
  endloop
endfacet
facet normal 0.0 1.0 0.0
  outer loop
    vertex 0.0 7.0 7.999999999999999
    vertex 3.0 7.0 3.0
    vertex 0.0 7.0 3.0
  endloop
endfacet
facet normal 0.0 1.0 0.0
  outer loop
    vertex 3.0 7.0 3.0
    vertex 0.0 7.0 7.999999999999999
    vertex 3.0 7.0 7.999999999999999
  endloop
endfacet
facet normal -0.20343238215997622 0.9790889979407988 0.0
  outer loop
    vertex 3.805148573239963 20.431366503088796 7.999999999999999
    vertex 4.174861207023874 20.560387238320608 3.9999999999999982
    vertex 3.805148573239963 20.431366503088796 3.9999999999999982
  endloop
endfacet
facet normal -0.44990747134924863 0.8930751744529266 0.0
  outer loop
    vertex 4.174861207023874 20.560387238320608 3.9999999999999982
    vertex 3.805148573239963 20.431366503088796 7.999999999999999
    vertex 4.174861207023874 20.560387238320608 7.999999999999999
  endloop
endfacet
facet normal -1.0 0.0 0.0
  outer loop
    vertex 0.0 33.55 7.999999999999999
    vertex 0.0 18.531968380075845 3.0
    vertex 0.0 18.531968380075845 7.999999999999999
  endloop
endfacet
facet normal -1.0 0.0 0.0
  outer loop
    vertex 0.0 7.0 7.999999999999999
    vertex 0.0 -8.0 0.0
    vertex 0.0 -8.0 7.999999999999999
  endloop
endfacet
facet normal -1.0 0.0 0.0
  outer loop
    vertex 0.0 -8.0 0.0
    vertex 0.0 7.0 7.999999999999999
    vertex 0.0 7.0 3.0
  endloop
endfacet
facet normal -1.0 0.0 0.0
  outer loop
    vertex 0.0 -8.0 0.0
    vertex 0.0 7.0 3.0
    vertex 0.0 33.55 0.0
  endloop
endfacet
facet normal -1.0 0.0 0.0
  outer loop
    vertex 0.0 33.55 0.0
    vertex 0.0 7.0 3.0
    vertex 0.0 18.531968380075845 3.0
  endloop
endfacet
facet normal -1.0 0.0 0.0
  outer loop
    vertex 0.0 33.55 0.0
    vertex 0.0 18.531968380075845 3.0
    vertex 0.0 33.55 7.999999999999999
  endloop
endfacet
facet normal 0.0 0.0 1.0
  outer loop
    vertex 0.0 18.531968380075845 7.999999999999999
    vertex 2.0313665030888006 21.594851426760034 7.999999999999999
    vertex 0.0 33.55 7.999999999999999
  endloop
endfacet
facet normal 0.0 0.0 1.0
  outer loop
    vertex 2.0313665030888006 21.594851426760034 7.999999999999999
    vertex 0.0 18.531968380075845 7.999999999999999
    vertex 3.0 18.55 7.999999999999999
  endloop
endfacet
facet normal 0.0 0.0 1.0
  outer loop
    vertex 0.0 33.55 7.999999999999999
    vertex 2.0313665030888006 21.594851426760034 7.999999999999999
    vertex 2.002430713639882 21.985359431528387 7.999999999999999
  endloop
endfacet
facet normal 0.0 0.0 1.0
  outer loop
    vertex 2.0313665030888006 21.594851426760034 7.999999999999999
    vertex 3.0 18.55 7.999999999999999
    vertex 2.16038723832061 21.225138792976125 7.999999999999999
  endloop
endfacet
facet normal 0.0 0.0 1.0
  outer loop
    vertex 2.16038723832061 21.225138792976125 7.999999999999999
    vertex 3.0 18.55 7.999999999999999
    vertex 2.380700369446108 20.901416835190012 7.999999999999999
  endloop
endfacet
facet normal 0.0 0.0 1.0
  outer loop
    vertex 2.380700369446108 20.901416835190012 7.999999999999999
    vertex 3.0 18.55 7.999999999999999
    vertex 2.6772919206637558 20.645746669849 7.999999999999999
  endloop
endfacet
facet normal 0.0 0.0 1.0
  outer loop
    vertex 2.6772919206637558 20.645746669849 7.999999999999999
    vertex 3.0 18.55 7.999999999999999
    vertex 3.029949667898786 20.47555179620614 7.999999999999999
  endloop
endfacet
facet normal 0.0 0.0 1.0
  outer loop
    vertex 3.029949667898786 20.47555179620614 7.999999999999999
    vertex 3.0 18.55 7.999999999999999
    vertex 6.999999999999998 18.55 7.999999999999999
  endloop
endfacet
facet normal 0.0 0.0 1.0
  outer loop
    vertex 3.029949667898786 20.47555179620614 7.999999999999999
    vertex 6.999999999999998 18.55 7.999999999999999
    vertex 3.4146405684716097 20.402430713639877 7.999999999999999
  endloop
endfacet
facet normal 0.0 0.0 1.0
  outer loop
    vertex 3.4146405684716097 20.402430713639877 7.999999999999999
    vertex 6.999999999999998 18.55 7.999999999999999
    vertex 3.805148573239963 20.431366503088796 7.999999999999999
  endloop
endfacet
facet normal 0.0 0.0 1.0
  outer loop
    vertex 3.805148573239963 20.431366503088796 7.999999999999999
    vertex 6.999999999999998 18.55 7.999999999999999
    vertex 4.174861207023874 20.560387238320608 7.999999999999999
  endloop
endfacet
facet normal 0.0 0.0 1.0
  outer loop
    vertex 4.174861207023874 20.560387238320608 7.999999999999999
    vertex 6.999999999999998 18.55 7.999999999999999
    vertex 4.498583164809984 20.780700369446105 7.999999999999999
  endloop
endfacet
facet normal 0.0 0.0 1.0
  outer loop
    vertex 4.498583164809984 20.780700369446105 7.999999999999999
    vertex 6.999999999999998 18.55 7.999999999999999
    vertex 4.754253330150999 21.07729192066375 7.999999999999999
  endloop
endfacet
facet normal 0.0 0.0 1.0
  outer loop
    vertex 4.754253330150999 21.07729192066375 7.999999999999999
    vertex 6.999999999999998 18.55 7.999999999999999
    vertex 4.9244482037938555 21.429949667898782 7.999999999999999
  endloop
endfacet
facet normal 0.0 0.0 1.0
  outer loop
    vertex 4.9244482037938555 21.429949667898782 7.999999999999999
    vertex 6.999999999999998 18.55 7.999999999999999
    vertex 4.997569286360118 21.814640568471606 7.999999999999999
  endloop
endfacet
facet normal 0.0 0.0 1.0
  outer loop
    vertex 0.0 -8.0 7.999999999999999
    vertex 2.200961894323342 2.899999999999999 7.999999999999999
    vertex 0.0 7.0 7.999999999999999
  endloop
endfacet
facet normal 0.0 0.0 1.0
  outer loop
    vertex 2.200961894323342 2.899999999999999 7.999999999999999
    vertex 0.0 -8.0 7.999999999999999
    vertex 6.999999999999998 -6.0 7.999999999999999
  endloop
endfacet
facet normal 0.0 0.0 1.0
  outer loop
    vertex 6.999999999999998 -6.0 7.999999999999999
    vertex 0.0 -8.0 7.999999999999999
    vertex 63.0 -8.0 7.999999999999999
  endloop
endfacet
facet normal 0.0 0.0 1.0
  outer loop
    vertex 0.0 7.0 7.999999999999999
    vertex 2.200961894323342 2.899999999999999 7.999999999999999
    vertex 2.0511112605663975 3.2617714323462192 7.999999999999999
  endloop
endfacet
facet normal 0.0 0.0 1.0
  outer loop
    vertex 0.0 7.0 7.999999999999999
    vertex 2.0511112605663975 3.2617714323462192 7.999999999999999
    vertex 1.9999999999999998 3.6500000000000004 7.999999999999999
  endloop
endfacet
facet normal 0.0 0.0 1.0
  outer loop
    vertex 2.200961894323342 2.899999999999999 7.999999999999999
    vertex 6.999999999999998 -6.0 7.999999999999999
    vertex 2.439339828220179 2.5893398282201794 7.999999999999999
  endloop
endfacet
facet normal 0.0 0.0 1.0
  outer loop
    vertex 2.439339828220179 2.5893398282201794 7.999999999999999
    vertex 6.999999999999998 -6.0 7.999999999999999
    vertex 2.75 2.3509618943233415 7.999999999999999
  endloop
endfacet
facet normal 0.0 0.0 1.0
  outer loop
    vertex 2.75 2.3509618943233415 7.999999999999999
    vertex 6.999999999999998 -6.0 7.999999999999999
    vertex 3.111771432346219 2.201111260566398 7.999999999999999
  endloop
endfacet
facet normal 0.0 0.0 1.0
  outer loop
    vertex 3.111771432346219 2.201111260566398 7.999999999999999
    vertex 6.999999999999998 -6.0 7.999999999999999
    vertex 3.5 2.1500000000000004 7.999999999999999
  endloop
endfacet
facet normal 0.0 0.0 1.0
  outer loop
    vertex 3.5 2.1500000000000004 7.999999999999999
    vertex 6.999999999999998 -6.0 7.999999999999999
    vertex 3.888228567653782 2.201111260566398 7.999999999999999
  endloop
endfacet
facet normal 0.0 0.0 1.0
  outer loop
    vertex 3.888228567653782 2.201111260566398 7.999999999999999
    vertex 6.999999999999998 -6.0 7.999999999999999
    vertex 4.250000000000001 2.3509618943233415 7.999999999999999
  endloop
endfacet
facet normal 0.0 0.0 1.0
  outer loop
    vertex 4.250000000000001 2.3509618943233415 7.999999999999999
    vertex 6.999999999999998 -6.0 7.999999999999999
    vertex 4.560660171779822 2.5893398282201794 7.999999999999999
  endloop
endfacet
facet normal 0.0 0.0 1.0
  outer loop
    vertex 4.560660171779822 2.5893398282201794 7.999999999999999
    vertex 6.999999999999998 -6.0 7.999999999999999
    vertex 4.799038105676659 2.9000000000000004 7.999999999999999
  endloop
endfacet
facet normal 0.0 0.0 1.0
  outer loop
    vertex 4.799038105676659 2.9000000000000004 7.999999999999999
    vertex 6.999999999999998 -6.0 7.999999999999999
    vertex 4.9488887394336025 3.2617714323462192 7.999999999999999
  endloop
endfacet
facet normal 0.0 0.0 1.0
  outer loop
    vertex 4.9488887394336025 3.2617714323462192 7.999999999999999
    vertex 6.999999999999998 -6.0 7.999999999999999
    vertex 5.0 3.6500000000000004 7.999999999999999
  endloop
endfacet
facet normal 0.0 0.0 1.0
  outer loop
    vertex 6.999999999999998 -6.0 7.999999999999999
    vertex 63.0 -8.0 7.999999999999999
    vertex 61.0 -6.0 7.999999999999999
  endloop
endfacet
facet normal 0.0 0.0 1.0
  outer loop
    vertex 61.0 -6.0 7.999999999999999
    vertex 63.0 -8.0 7.999999999999999
    vertex 61.0 31.550000000000004 7.999999999999999
  endloop
endfacet
facet normal 0.0 0.0 1.0
  outer loop
    vertex 0.0 33.55 7.999999999999999
    vertex 6.999999999999998 31.550000000000004 7.999999999999999
    vertex 63.0 33.55 7.999999999999999
  endloop
endfacet
facet normal 0.0 0.0 1.0
  outer loop
    vertex 6.999999999999998 31.550000000000004 7.999999999999999
    vertex 0.0 33.55 7.999999999999999
    vertex 2.2457466698490007 22.72270807933624 7.999999999999999
  endloop
endfacet
facet normal 0.0 0.0 1.0
  outer loop
    vertex 2.2457466698490007 22.72270807933624 7.999999999999999
    vertex 0.0 33.55 7.999999999999999
    vertex 2.075551796206145 22.370050332101215 7.999999999999999
  endloop
endfacet
facet normal 0.0 0.0 1.0
  outer loop
    vertex 2.075551796206145 22.370050332101215 7.999999999999999
    vertex 0.0 33.55 7.999999999999999
    vertex 2.002430713639882 21.985359431528387 7.999999999999999
  endloop
endfacet
facet normal 0.0 0.0 1.0
  outer loop
    vertex 6.999999999999998 31.550000000000004 7.999999999999999
    vertex 2.2457466698490007 22.72270807933624 7.999999999999999
    vertex 2.501416835190016 23.01929963055389 7.999999999999999
  endloop
endfacet
facet normal 0.0 0.0 1.0
  outer loop
    vertex 6.999999999999998 31.550000000000004 7.999999999999999
    vertex 2.501416835190016 23.01929963055389 7.999999999999999
    vertex 2.8251387929761256 23.239612761679385 7.999999999999999
  endloop
endfacet
facet normal 0.0 0.0 1.0
  outer loop
    vertex 6.999999999999998 31.550000000000004 7.999999999999999
    vertex 2.8251387929761256 23.239612761679385 7.999999999999999
    vertex 3.194851426760037 23.368633496911194 7.999999999999999
  endloop
endfacet
facet normal 0.0 0.0 1.0
  outer loop
    vertex 6.999999999999998 31.550000000000004 7.999999999999999
    vertex 3.194851426760037 23.368633496911194 7.999999999999999
    vertex 3.5853594315283903 23.397569286360117 7.999999999999999
  endloop
endfacet
facet normal 0.0 0.0 1.0
  outer loop
    vertex 6.999999999999998 31.550000000000004 7.999999999999999
    vertex 3.5853594315283903 23.397569286360117 7.999999999999999
    vertex 3.970050332101215 23.324448203793853 7.999999999999999
  endloop
endfacet
facet normal 0.0 0.0 1.0
  outer loop
    vertex 6.999999999999998 31.550000000000004 7.999999999999999
    vertex 3.970050332101215 23.324448203793853 7.999999999999999
    vertex 4.322708079336244 23.154253330150997 7.999999999999999
  endloop
endfacet
facet normal 0.0 0.0 1.0
  outer loop
    vertex 6.999999999999998 31.550000000000004 7.999999999999999
    vertex 4.322708079336244 23.154253330150997 7.999999999999999
    vertex 4.619299630553892 22.898583164809985 7.999999999999999
  endloop
endfacet
facet normal 0.0 0.0 1.0
  outer loop
    vertex 6.999999999999998 31.550000000000004 7.999999999999999
    vertex 4.619299630553892 22.898583164809985 7.999999999999999
    vertex 4.8396127616793905 22.574861207023872 7.999999999999999
  endloop
endfacet
facet normal 0.0 0.0 1.0
  outer loop
    vertex 6.999999999999998 31.550000000000004 7.999999999999999
    vertex 4.8396127616793905 22.574861207023872 7.999999999999999
    vertex 4.9686334969112 22.205148573239963 7.999999999999999
  endloop
endfacet
facet normal 0.0 0.0 1.0
  outer loop
    vertex 6.999999999999998 31.550000000000004 7.999999999999999
    vertex 4.9686334969112 22.205148573239963 7.999999999999999
    vertex 4.997569286360118 21.814640568471606 7.999999999999999
  endloop
endfacet
facet normal 0.0 0.0 1.0
  outer loop
    vertex 6.999999999999998 31.550000000000004 7.999999999999999
    vertex 4.997569286360118 21.814640568471606 7.999999999999999
    vertex 6.999999999999998 18.55 7.999999999999999
  endloop
endfacet
facet normal 0.0 0.0 1.0
  outer loop
    vertex 63.0 33.55 7.999999999999999
    vertex 6.999999999999998 31.550000000000004 7.999999999999999
    vertex 61.0 31.550000000000004 7.999999999999999
  endloop
endfacet
facet normal 0.0 0.0 1.0
  outer loop
    vertex 63.0 33.55 7.999999999999999
    vertex 61.0 31.550000000000004 7.999999999999999
    vertex 63.0 -8.0 7.999999999999999
  endloop
endfacet
facet normal 0.0 0.0 1.0
  outer loop
    vertex 0.0 7.0 7.999999999999999
    vertex 2.0511112605663975 4.03822856765378 7.999999999999999
    vertex 3.0 7.0 7.999999999999999
  endloop
endfacet
facet normal 0.0 0.0 1.0
  outer loop
    vertex 2.0511112605663975 4.03822856765378 7.999999999999999
    vertex 0.0 7.0 7.999999999999999
    vertex 1.9999999999999998 3.6500000000000004 7.999999999999999
  endloop
endfacet
facet normal 0.0 0.0 1.0
  outer loop
    vertex 3.0 7.0 7.999999999999999
    vertex 2.0511112605663975 4.03822856765378 7.999999999999999
    vertex 2.200961894323342 4.399999999999999 7.999999999999999
  endloop
endfacet
facet normal 0.0 0.0 1.0
  outer loop
    vertex 3.0 7.0 7.999999999999999
    vertex 2.200961894323342 4.399999999999999 7.999999999999999
    vertex 2.4393398282201786 4.710660171779821 7.999999999999999
  endloop
endfacet
facet normal 0.0 0.0 1.0
  outer loop
    vertex 3.0 7.0 7.999999999999999
    vertex 2.4393398282201786 4.710660171779821 7.999999999999999
    vertex 2.749999999999999 4.949038105676657 7.999999999999999
  endloop
endfacet
facet normal 0.0 0.0 1.0
  outer loop
    vertex 3.0 7.0 7.999999999999999
    vertex 2.749999999999999 4.949038105676657 7.999999999999999
    vertex 3.1117714323462184 5.098888739433603 7.999999999999999
  endloop
endfacet
facet normal 0.0 0.0 1.0
  outer loop
    vertex 3.0 7.0 7.999999999999999
    vertex 3.1117714323462184 5.098888739433603 7.999999999999999
    vertex 6.999999999999998 7.0 7.999999999999999
  endloop
endfacet
facet normal 0.0 0.0 1.0
  outer loop
    vertex 6.999999999999998 7.0 7.999999999999999
    vertex 3.1117714323462184 5.098888739433603 7.999999999999999
    vertex 3.5 5.15 7.999999999999999
  endloop
endfacet
facet normal 0.0 0.0 1.0
  outer loop
    vertex 6.999999999999998 7.0 7.999999999999999
    vertex 3.5 5.15 7.999999999999999
    vertex 3.8882285676537807 5.098888739433603 7.999999999999999
  endloop
endfacet
facet normal 0.0 0.0 1.0
  outer loop
    vertex 6.999999999999998 7.0 7.999999999999999
    vertex 3.8882285676537807 5.098888739433603 7.999999999999999
    vertex 4.249999999999999 4.949038105676657 7.999999999999999
  endloop
endfacet
facet normal 0.0 0.0 1.0
  outer loop
    vertex 6.999999999999998 7.0 7.999999999999999
    vertex 4.249999999999999 4.949038105676657 7.999999999999999
    vertex 4.56066017177982 4.710660171779821 7.999999999999999
  endloop
endfacet
facet normal 0.0 0.0 1.0
  outer loop
    vertex 6.999999999999998 7.0 7.999999999999999
    vertex 4.56066017177982 4.710660171779821 7.999999999999999
    vertex 4.799038105676658 4.4 7.999999999999999
  endloop
endfacet
facet normal 0.0 0.0 1.0
  outer loop
    vertex 6.999999999999998 7.0 7.999999999999999
    vertex 4.799038105676658 4.4 7.999999999999999
    vertex 4.9488887394336025 4.038228567653782 7.999999999999999
  endloop
endfacet
facet normal 0.0 0.0 1.0
  outer loop
    vertex 6.999999999999998 7.0 7.999999999999999
    vertex 4.9488887394336025 4.038228567653782 7.999999999999999
    vertex 5.0 3.6500000000000004 7.999999999999999
  endloop
endfacet
facet normal 0.0 0.0 1.0
  outer loop
    vertex 6.999999999999998 7.0 7.999999999999999
    vertex 5.0 3.6500000000000004 7.999999999999999
    vertex 6.999999999999998 -6.0 7.999999999999999
  endloop
endfacet
facet normal -0.0 -1.0 -0.0
  outer loop
    vertex 61.0 31.550000000000004 7.999999999999999
    vertex 6.999999999999998 31.550000000000004 0.0
    vertex 61.0 31.550000000000004 0.0
  endloop
endfacet
facet normal -0.0 -1.0 -0.0
  outer loop
    vertex 6.999999999999998 31.550000000000004 0.0
    vertex 61.0 31.550000000000004 7.999999999999999
    vertex 6.999999999999998 31.550000000000004 7.999999999999999
  endloop
endfacet
facet normal 0.31336688806747737 0.9496321358625692 0.0
  outer loop
    vertex 3.029949667898786 20.47555179620614 7.999999999999999
    vertex 3.4146405684716097 20.402430713639877 3.9999999999999982
    vertex 3.029949667898786 20.47555179620614 3.9999999999999982
  endloop
endfacet
facet normal 0.056906287685591604 0.9983795242400781 0.0
  outer loop
    vertex 3.4146405684716097 20.402430713639877 3.9999999999999982
    vertex 3.029949667898786 20.47555179620614 7.999999999999999
    vertex 3.4146405684716097 20.402430713639877 7.999999999999999
  endloop
endfacet
facet normal 1.0 0.0 0.0
  outer loop
    vertex 63.0 33.55 0.0
    vertex 63.0 -8.0 7.999999999999999
    vertex 63.0 -8.0 0.0
  endloop
endfacet
facet normal 1.0 0.0 0.0
  outer loop
    vertex 63.0 -8.0 7.999999999999999
    vertex 63.0 33.55 0.0
    vertex 63.0 33.55 7.999999999999999
  endloop
endfacet
facet normal 0.746199753702594 0.6657221098733227 0.0
  outer loop
    vertex 2.380700369446108 20.901416835190012 7.999999999999999
    vertex 2.6772919206637558 20.645746669849 3.9999999999999982
    vertex 2.380700369446108 20.901416835190012 3.9999999999999982
  endloop
endfacet
facet normal 0.5484720528908288 0.8361688867673326 0.0
  outer loop
    vertex 2.6772919206637558 20.645746669849 3.9999999999999982
    vertex 2.380700369446108 20.901416835190012 7.999999999999999
    vertex 2.6772919206637558 20.645746669849 7.999999999999999
  endloop
endfacet
facet normal 0.0 1.0 0.0
  outer loop
    vertex 3.0 7.0 7.999999999999999
    vertex 6.999999999999998 7.0 3.0
    vertex 3.0 7.0 3.0
  endloop
endfacet
facet normal 0.0 1.0 0.0
  outer loop
    vertex 6.999999999999998 7.0 3.0
    vertex 3.0 7.0 7.999999999999999
    vertex 6.999999999999998 7.0 7.999999999999999
  endloop
endfacet
facet normal -0.8361688867673326 0.5484720528908286 0.0
  outer loop
    vertex 4.754253330150999 21.07729192066375 7.999999999999999
    vertex 4.498583164809984 20.780700369446105 3.9999999999999982
    vertex 4.498583164809984 20.780700369446105 7.999999999999999
  endloop
endfacet
facet normal -0.6657221098733225 0.7461997537025941 0.0
  outer loop
    vertex 4.498583164809984 20.780700369446105 3.9999999999999982
    vertex 4.754253330150999 21.07729192066375 7.999999999999999
    vertex 4.754253330150999 21.07729192066375 3.9999999999999982
  endloop
endfacet
facet normal 1.0 0.0 0.0
  outer loop
    vertex 6.999999999999998 -6.0 0.0
    vertex 6.999999999999998 7.0 3.0
    vertex 6.999999999999998 -6.0 7.999999999999999
  endloop
endfacet
facet normal 1.0 0.0 0.0
  outer loop
    vertex 6.999999999999998 7.0 3.0
    vertex 6.999999999999998 -6.0 0.0
    vertex 6.999999999999998 31.550000000000004 0.0
  endloop
endfacet
facet normal 1.0 0.0 0.0
  outer loop
    vertex 6.999999999999998 7.0 3.0
    vertex 6.999999999999998 31.550000000000004 0.0
    vertex 6.999999999999998 18.55 3.0
  endloop
endfacet
facet normal 1.0 0.0 0.0
  outer loop
    vertex 6.999999999999998 18.55 3.0
    vertex 6.999999999999998 31.550000000000004 0.0
    vertex 6.999999999999998 18.55 7.999999999999999
  endloop
endfacet
facet normal 1.0 0.0 0.0
  outer loop
    vertex 6.999999999999998 18.55 7.999999999999999
    vertex 6.999999999999998 31.550000000000004 0.0
    vertex 6.999999999999998 31.550000000000004 7.999999999999999
  endloop
endfacet
facet normal 1.0 0.0 0.0
  outer loop
    vertex 6.999999999999998 7.0 7.999999999999999
    vertex 6.999999999999998 -6.0 7.999999999999999
    vertex 6.999999999999998 7.0 3.0
  endloop
endfacet
facet normal -0.998379524240078 0.056906287685593915 0.0
  outer loop
    vertex 4.997569286360118 21.814640568471606 7.999999999999999
    vertex 4.9244482037938555 21.429949667898782 3.9999999999999982
    vertex 4.9244482037938555 21.429949667898782 7.999999999999999
  endloop
endfacet
facet normal -0.9496321358625697 0.31336688806747615 0.0
  outer loop
    vertex 4.9244482037938555 21.429949667898782 3.9999999999999982
    vertex 4.997569286360118 21.814640568471606 7.999999999999999
    vertex 4.997569286360118 21.814640568471606 3.9999999999999982
  endloop
endfacet
facet normal 0.0 0.0 1.0
  outer loop
    vertex 2.0313665030888006 21.594851426760034 3.9999999999999982
    vertex 2.075551796206145 22.370050332101215 3.9999999999999982
    vertex 2.002430713639882 21.985359431528387 3.9999999999999982
  endloop
endfacet
facet normal 0.0 0.0 1.0
  outer loop
    vertex 2.075551796206145 22.370050332101215 3.9999999999999982
    vertex 2.0313665030888006 21.594851426760034 3.9999999999999982
    vertex 2.16038723832061 21.225138792976125 3.9999999999999982
  endloop
endfacet
facet normal 0.0 0.0 1.0
  outer loop
    vertex 2.075551796206145 22.370050332101215 3.9999999999999982
    vertex 2.16038723832061 21.225138792976125 3.9999999999999982
    vertex 2.2457466698490007 22.72270807933624 3.9999999999999982
  endloop
endfacet
facet normal 0.0 0.0 1.0
  outer loop
    vertex 2.2457466698490007 22.72270807933624 3.9999999999999982
    vertex 2.16038723832061 21.225138792976125 3.9999999999999982
    vertex 2.380700369446108 20.901416835190012 3.9999999999999982
  endloop
endfacet
facet normal 0.0 0.0 1.0
  outer loop
    vertex 2.2457466698490007 22.72270807933624 3.9999999999999982
    vertex 2.380700369446108 20.901416835190012 3.9999999999999982
    vertex 2.501416835190016 23.01929963055389 3.9999999999999982
  endloop
endfacet
facet normal 0.0 0.0 1.0
  outer loop
    vertex 2.501416835190016 23.01929963055389 3.9999999999999982
    vertex 2.380700369446108 20.901416835190012 3.9999999999999982
    vertex 2.6772919206637558 20.645746669849 3.9999999999999982
  endloop
endfacet
facet normal 0.0 0.0 1.0
  outer loop
    vertex 2.501416835190016 23.01929963055389 3.9999999999999982
    vertex 2.6772919206637558 20.645746669849 3.9999999999999982
    vertex 2.8251387929761256 23.239612761679385 3.9999999999999982
  endloop
endfacet
facet normal 0.0 0.0 1.0
  outer loop
    vertex 2.8251387929761256 23.239612761679385 3.9999999999999982
    vertex 2.6772919206637558 20.645746669849 3.9999999999999982
    vertex 3.029949667898786 20.47555179620614 3.9999999999999982
  endloop
endfacet
facet normal 0.0 0.0 1.0
  outer loop
    vertex 2.8251387929761256 23.239612761679385 3.9999999999999982
    vertex 3.029949667898786 20.47555179620614 3.9999999999999982
    vertex 3.194851426760037 23.368633496911194 3.9999999999999982
  endloop
endfacet
facet normal 0.0 0.0 1.0
  outer loop
    vertex 3.194851426760037 23.368633496911194 3.9999999999999982
    vertex 3.029949667898786 20.47555179620614 3.9999999999999982
    vertex 3.4146405684716097 20.402430713639877 3.9999999999999982
  endloop
endfacet
facet normal 0.0 0.0 1.0
  outer loop
    vertex 3.194851426760037 23.368633496911194 3.9999999999999982
    vertex 3.4146405684716097 20.402430713639877 3.9999999999999982
    vertex 3.5853594315283903 23.397569286360117 3.9999999999999982
  endloop
endfacet
facet normal 0.0 0.0 1.0
  outer loop
    vertex 3.5853594315283903 23.397569286360117 3.9999999999999982
    vertex 3.4146405684716097 20.402430713639877 3.9999999999999982
    vertex 3.805148573239963 20.431366503088796 3.9999999999999982
  endloop
endfacet
facet normal 0.0 0.0 1.0
  outer loop
    vertex 3.5853594315283903 23.397569286360117 3.9999999999999982
    vertex 3.805148573239963 20.431366503088796 3.9999999999999982
    vertex 3.970050332101215 23.324448203793853 3.9999999999999982
  endloop
endfacet
facet normal 0.0 0.0 1.0
  outer loop
    vertex 3.970050332101215 23.324448203793853 3.9999999999999982
    vertex 3.805148573239963 20.431366503088796 3.9999999999999982
    vertex 4.174861207023874 20.560387238320608 3.9999999999999982
  endloop
endfacet
facet normal 0.0 0.0 1.0
  outer loop
    vertex 3.970050332101215 23.324448203793853 3.9999999999999982
    vertex 4.174861207023874 20.560387238320608 3.9999999999999982
    vertex 4.322708079336244 23.154253330150997 3.9999999999999982
  endloop
endfacet
facet normal 0.0 0.0 1.0
  outer loop
    vertex 4.322708079336244 23.154253330150997 3.9999999999999982
    vertex 4.174861207023874 20.560387238320608 3.9999999999999982
    vertex 4.498583164809984 20.780700369446105 3.9999999999999982
  endloop
endfacet
facet normal 0.0 0.0 1.0
  outer loop
    vertex 4.322708079336244 23.154253330150997 3.9999999999999982
    vertex 4.498583164809984 20.780700369446105 3.9999999999999982
    vertex 4.619299630553892 22.898583164809985 3.9999999999999982
  endloop
endfacet
facet normal 0.0 0.0 1.0
  outer loop
    vertex 4.619299630553892 22.898583164809985 3.9999999999999982
    vertex 4.498583164809984 20.780700369446105 3.9999999999999982
    vertex 4.754253330150999 21.07729192066375 3.9999999999999982
  endloop
endfacet
facet normal 0.0 0.0 1.0
  outer loop
    vertex 4.619299630553892 22.898583164809985 3.9999999999999982
    vertex 4.754253330150999 21.07729192066375 3.9999999999999982
    vertex 4.8396127616793905 22.574861207023872 3.9999999999999982
  endloop
endfacet
facet normal 0.0 0.0 1.0
  outer loop
    vertex 4.8396127616793905 22.574861207023872 3.9999999999999982
    vertex 4.754253330150999 21.07729192066375 3.9999999999999982
    vertex 4.9244482037938555 21.429949667898782 3.9999999999999982
  endloop
endfacet
facet normal 0.0 0.0 1.0
  outer loop
    vertex 4.8396127616793905 22.574861207023872 3.9999999999999982
    vertex 4.9244482037938555 21.429949667898782 3.9999999999999982
    vertex 4.9686334969112 22.205148573239963 3.9999999999999982
  endloop
endfacet
facet normal 0.0 0.0 1.0
  outer loop
    vertex 4.9686334969112 22.205148573239963 3.9999999999999982
    vertex 4.9244482037938555 21.429949667898782 3.9999999999999982
    vertex 4.997569286360118 21.814640568471606 3.9999999999999982
  endloop
endfacet
facet normal -0.8930751744529262 -0.44990747134924924 0.0
  outer loop
    vertex 4.8396127616793905 22.574861207023872 7.999999999999999
    vertex 4.9686334969112 22.205148573239963 3.9999999999999982
    vertex 4.9686334969112 22.205148573239963 7.999999999999999
  endloop
endfacet
facet normal -0.9790889979407988 -0.203432382159976 0.0
  outer loop
    vertex 4.9686334969112 22.205148573239963 3.9999999999999982
    vertex 4.8396127616793905 22.574861207023872 7.999999999999999
    vertex 4.8396127616793905 22.574861207023872 3.9999999999999982
  endloop
endfacet
facet normal -0.746199753702594 -0.6657221098733227 0.0
  outer loop
    vertex 4.619299630553892 22.898583164809985 7.999999999999999
    vertex 4.8396127616793905 22.574861207023872 3.9999999999999982
    vertex 4.8396127616793905 22.574861207023872 7.999999999999999
  endloop
endfacet
facet normal -0.8930751744529262 -0.44990747134924924 0.0
  outer loop
    vertex 4.8396127616793905 22.574861207023872 3.9999999999999982
    vertex 4.619299630553892 22.898583164809985 7.999999999999999
    vertex 4.619299630553892 22.898583164809985 3.9999999999999982
  endloop
endfacet
facet normal 0.5484720528908288 0.8361688867673326 0.0
  outer loop
    vertex 2.6772919206637558 20.645746669849 7.999999999999999
    vertex 3.029949667898786 20.47555179620614 3.9999999999999982
    vertex 2.6772919206637558 20.645746669849 3.9999999999999982
  endloop
endfacet
facet normal 0.31336688806747737 0.9496321358625692 0.0
  outer loop
    vertex 3.029949667898786 20.47555179620614 3.9999999999999982
    vertex 2.6772919206637558 20.645746669849 7.999999999999999
    vertex 3.029949667898786 20.47555179620614 7.999999999999999
  endloop
endfacet
facet normal 0.0 1.0 0.0
  outer loop
    vertex 6.999999999999998 -6.0 7.999999999999999
    vertex 61.0 -6.0 0.0
    vertex 6.999999999999998 -6.0 0.0
  endloop
endfacet
facet normal 0.0 1.0 0.0
  outer loop
    vertex 61.0 -6.0 0.0
    vertex 6.999999999999998 -6.0 7.999999999999999
    vertex 61.0 -6.0 7.999999999999999
  endloop
endfacet
facet normal -0.746199753702594 -0.6657221098733227 0.0
  outer loop
    vertex 4.619299630553892 22.898583164809985 7.999999999999999
    vertex 4.322708079336244 23.154253330150997 3.9999999999999982
    vertex 4.619299630553892 22.898583164809985 3.9999999999999982
  endloop
endfacet
facet normal -0.5484720528908263 -0.836168886767334 0.0
  outer loop
    vertex 4.322708079336244 23.154253330150997 3.9999999999999982
    vertex 4.619299630553892 22.898583164809985 7.999999999999999
    vertex 4.322708079336244 23.154253330150997 7.999999999999999
  endloop
endfacet
facet normal -1.0 0.0 0.0
  outer loop
    vertex 61.0 31.550000000000004 7.999999999999999
    vertex 61.0 -6.0 0.0
    vertex 61.0 -6.0 7.999999999999999
  endloop
endfacet
facet normal -1.0 0.0 0.0
  outer loop
    vertex 61.0 -6.0 0.0
    vertex 61.0 31.550000000000004 7.999999999999999
    vertex 61.0 31.550000000000004 0.0
  endloop
endfacet
endsolid PWR-BLK-01B
