solid standiff-onewire-x3
facet normal 0.0 0.0 -1.0
outer loop
vertex -1.83847763108502 1.83847763108502 0.0
vertex -1.73866648732032 0.465874281184538 0.0
vertex -1.8 3.52495810318487e-016 0.0
endloop
endfacet
facet normal 0.0 0.0 -1.0
outer loop
vertex -1.73866648732032 0.465874281184538 0.0
vertex -1.83847763108502 1.83847763108502 0.0
vertex -1.3 2.25166604983954 0.0
endloop
endfacet
facet normal 0.0 0.0 -1.0
outer loop
vertex -1.73866648732032 0.465874281184538 0.0
vertex -1.3 2.25166604983954 0.0
vertex -1.55884572681199 0.900000000000001 0.0
endloop
endfacet
facet normal 0.0 0.0 -1.0
outer loop
vertex -1.55884572681199 0.900000000000001 0.0
vertex -1.3 2.25166604983954 0.0
vertex -1.27279220613579 1.27279220613579 0.0
endloop
endfacet
facet normal 0.0 0.0 -1.0
outer loop
vertex -1.27279220613579 1.27279220613579 0.0
vertex -1.3 2.25166604983954 0.0
vertex -0.672929517266554 2.51140714835158 0.0
endloop
endfacet
facet normal 0.0 0.0 -1.0
outer loop
vertex -1.27279220613579 1.27279220613579 0.0
vertex -0.672929517266554 2.51140714835158 0.0
vertex -0.899999999999999 1.55884572681199 0.0
endloop
endfacet
facet normal 0.0 0.0 -1.0
outer loop
vertex -0.899999999999999 1.55884572681199 0.0
vertex -0.672929517266554 2.51140714835158 0.0
vertex -0.465874281184537 1.73866648732032 0.0
endloop
endfacet
facet normal 0.0 0.0 -1.0
outer loop
vertex -0.465874281184537 1.73866648732032 0.0
vertex -0.672929517266554 2.51140714835158 0.0
vertex 0.0 2.6 0.0
endloop
endfacet
facet normal 0.0 0.0 -1.0
outer loop
vertex -0.465874281184537 1.73866648732032 0.0
vertex 0.0 2.6 0.0
vertex 0.0 1.8 0.0
endloop
endfacet
facet normal 0.0 0.0 -1.0
outer loop
vertex 0.0 1.8 0.0
vertex 0.0 2.6 0.0
vertex 0.672929517266554 2.51140714835158 0.0
endloop
endfacet
facet normal 0.0 0.0 -1.0
outer loop
vertex 0.0 1.8 0.0
vertex 0.672929517266554 2.51140714835158 0.0
vertex 0.465874281184538 1.73866648732032 0.0
endloop
endfacet
facet normal 0.0 0.0 -1.0
outer loop
vertex 0.465874281184538 1.73866648732032 0.0
vertex 0.672929517266554 2.51140714835158 0.0
vertex 0.9 1.55884572681199 0.0
endloop
endfacet
facet normal 0.0 0.0 -1.0
outer loop
vertex 0.9 1.55884572681199 0.0
vertex 0.672929517266554 2.51140714835158 0.0
vertex 1.3 2.25166604983954 0.0
endloop
endfacet
facet normal 0.0 0.0 -1.0
outer loop
vertex 0.9 1.55884572681199 0.0
vertex 1.3 2.25166604983954 0.0
vertex 1.27279220613579 1.27279220613579 0.0
endloop
endfacet
facet normal 0.0 0.0 -1.0
outer loop
vertex 1.27279220613579 1.27279220613579 0.0
vertex 1.3 2.25166604983954 0.0
vertex 1.55884572681199 0.899999999999999 0.0
endloop
endfacet
facet normal 0.0 0.0 -1.0
outer loop
vertex 1.55884572681199 0.899999999999999 0.0
vertex 1.3 2.25166604983954 0.0
vertex 1.83847763108502 1.83847763108502 0.0
endloop
endfacet
facet normal 0.0 0.0 -1.0
outer loop
vertex 1.55884572681199 0.899999999999999 0.0
vertex 1.83847763108502 1.83847763108502 0.0
vertex 1.73866648732032 0.465874281184537 0.0
endloop
endfacet
facet normal 0.0 0.0 -1.0
outer loop
vertex 1.73866648732032 0.465874281184537 0.0
vertex 1.83847763108502 1.83847763108502 0.0
vertex 1.8 0.0 0.0
endloop
endfacet
facet normal 0.0 0.0 -1.0
outer loop
vertex 1.8 0.0 0.0
vertex 1.83847763108502 1.83847763108502 0.0
vertex 1.83847763108502 -1.83847763108502 0.0
endloop
endfacet
facet normal 0.0 0.0 -1.0
outer loop
vertex 1.83847763108502 -1.83847763108502 0.0
vertex 1.83847763108502 1.83847763108502 0.0
vertex 2.25166604983954 -1.3 0.0
endloop
endfacet
facet normal 0.0 0.0 -1.0
outer loop
vertex 2.25166604983954 -1.3 0.0
vertex 1.83847763108502 1.83847763108502 0.0
vertex 2.25166604983954 1.3 0.0
endloop
endfacet
facet normal 0.0 0.0 -1.0
outer loop
vertex 2.25166604983954 -1.3 0.0
vertex 2.25166604983954 1.3 0.0
vertex 2.51140714835158 -0.672929517266556 0.0
endloop
endfacet
facet normal 0.0 0.0 -1.0
outer loop
vertex 2.51140714835158 -0.672929517266556 0.0
vertex 2.25166604983954 1.3 0.0
vertex 2.51140714835158 0.672929517266554 0.0
endloop
endfacet
facet normal 0.0 0.0 -1.0
outer loop
vertex 2.51140714835158 -0.672929517266556 0.0
vertex 2.51140714835158 0.672929517266554 0.0
vertex 2.6 0.0 0.0
endloop
endfacet
facet normal 0.0 0.0 -1.0
outer loop
vertex -2.51140714835158 0.672929517266554 0.0
vertex -2.51140714835158 -0.672929517266553 0.0
vertex -2.6 3.52495810318487e-016 0.0
endloop
endfacet
facet normal 0.0 0.0 -1.0
outer loop
vertex -2.51140714835158 -0.672929517266553 0.0
vertex -2.51140714835158 0.672929517266554 0.0
vertex -2.25166604983954 -1.3 0.0
endloop
endfacet
facet normal 0.0 0.0 -1.0
outer loop
vertex -2.25166604983954 -1.3 0.0
vertex -2.51140714835158 0.672929517266554 0.0
vertex -2.25166604983954 1.3 0.0
endloop
endfacet
facet normal 0.0 0.0 -1.0
outer loop
vertex -2.25166604983954 -1.3 0.0
vertex -2.25166604983954 1.3 0.0
vertex -1.83847763108502 -1.83847763108502 0.0
endloop
endfacet
facet normal 0.0 0.0 -1.0
outer loop
vertex -1.83847763108502 -1.83847763108502 0.0
vertex -2.25166604983954 1.3 0.0
vertex -1.83847763108502 1.83847763108502 0.0
endloop
endfacet
facet normal 0.0 0.0 -1.0
outer loop
vertex -1.83847763108502 -1.83847763108502 0.0
vertex -1.83847763108502 1.83847763108502 0.0
vertex -1.8 3.52495810318487e-016 0.0
endloop
endfacet
facet normal 0.0 0.0 -1.0
outer loop
vertex -1.83847763108502 -1.83847763108502 0.0
vertex -1.8 3.52495810318487e-016 0.0
vertex -1.73866648732032 -0.465874281184537 0.0
endloop
endfacet
facet normal 0.0 0.0 -1.0
outer loop
vertex -1.83847763108502 -1.83847763108502 0.0
vertex -1.73866648732032 -0.465874281184537 0.0
vertex -1.3 -2.25166604983954 0.0
endloop
endfacet
facet normal 0.0 0.0 -1.0
outer loop
vertex -1.3 -2.25166604983954 0.0
vertex -1.73866648732032 -0.465874281184537 0.0
vertex -1.55884572681199 -0.899999999999999 0.0
endloop
endfacet
facet normal 0.0 0.0 -1.0
outer loop
vertex -1.3 -2.25166604983954 0.0
vertex -1.55884572681199 -0.899999999999999 0.0
vertex -1.27279220613579 -1.27279220613578 0.0
endloop
endfacet
facet normal 0.0 0.0 -1.0
outer loop
vertex -1.3 -2.25166604983954 0.0
vertex -1.27279220613579 -1.27279220613578 0.0
vertex -0.672929517266556 -2.51140714835158 0.0
endloop
endfacet
facet normal 0.0 0.0 -1.0
outer loop
vertex -0.672929517266556 -2.51140714835158 0.0
vertex -1.27279220613579 -1.27279220613578 0.0
vertex -0.900000000000001 -1.55884572681199 0.0
endloop
endfacet
facet normal 0.0 0.0 -1.0
outer loop
vertex -0.672929517266556 -2.51140714835158 0.0
vertex -0.900000000000001 -1.55884572681199 0.0
vertex -0.465874281184539 -1.73866648732032 0.0
endloop
endfacet
facet normal 0.0 0.0 -1.0
outer loop
vertex -0.672929517266556 -2.51140714835158 0.0
vertex -0.465874281184539 -1.73866648732032 0.0
vertex -3.52495810318487e-016 -2.6 0.0
endloop
endfacet
facet normal 0.0 0.0 -1.0
outer loop
vertex -3.52495810318487e-016 -2.6 0.0
vertex -0.465874281184539 -1.73866648732032 0.0
vertex -3.52495810318487e-016 -1.8 0.0
endloop
endfacet
facet normal 0.0 0.0 -1.0
outer loop
vertex -3.52495810318487e-016 -2.6 0.0
vertex -3.52495810318487e-016 -1.8 0.0
vertex 0.465874281184537 -1.73866648732032 0.0
endloop
endfacet
facet normal 0.0 0.0 -1.0
outer loop
vertex -3.52495810318487e-016 -2.6 0.0
vertex 0.465874281184537 -1.73866648732032 0.0
vertex 0.672929517266553 -2.51140714835158 0.0
endloop
endfacet
facet normal 0.0 0.0 -1.0
outer loop
vertex 0.672929517266553 -2.51140714835158 0.0
vertex 0.465874281184537 -1.73866648732032 0.0
vertex 0.899999999999999 -1.55884572681199 0.0
endloop
endfacet
facet normal 0.0 0.0 -1.0
outer loop
vertex 0.672929517266553 -2.51140714835158 0.0
vertex 0.899999999999999 -1.55884572681199 0.0
vertex 1.3 -2.25166604983954 0.0
endloop
endfacet
facet normal 0.0 0.0 -1.0
outer loop
vertex 1.3 -2.25166604983954 0.0
vertex 0.899999999999999 -1.55884572681199 0.0
vertex 1.27279220613579 -1.27279220613579 0.0
endloop
endfacet
facet normal 0.0 0.0 -1.0
outer loop
vertex 1.3 -2.25166604983954 0.0
vertex 1.27279220613579 -1.27279220613579 0.0
vertex 1.55884572681199 -0.900000000000001 0.0
endloop
endfacet
facet normal 0.0 0.0 -1.0
outer loop
vertex 1.3 -2.25166604983954 0.0
vertex 1.55884572681199 -0.900000000000001 0.0
vertex 1.83847763108502 -1.83847763108502 0.0
endloop
endfacet
facet normal 0.0 0.0 -1.0
outer loop
vertex 1.83847763108502 -1.83847763108502 0.0
vertex 1.55884572681199 -0.900000000000001 0.0
vertex 1.73866648732032 -0.465874281184539 0.0
endloop
endfacet
facet normal 0.0 0.0 -1.0
outer loop
vertex 1.83847763108502 -1.83847763108502 0.0
vertex 1.73866648732032 -0.465874281184539 0.0
vertex 1.8 0.0 0.0
endloop
endfacet
facet normal 0.866025403784439 0.5 0.0
outer loop
vertex 2.25166604983954 1.3 0.0
vertex 2.51140714835158 0.672929517266554 10.75
vertex 2.51140714835158 0.672929517266554 0.0
endloop
endfacet
facet normal 0.965925826289068 0.258819045102521 0.0
outer loop
vertex 2.51140714835158 0.672929517266554 10.75
vertex 2.25166604983954 1.3 0.0
vertex 2.25166604983954 1.3 10.75
endloop
endfacet
facet normal 0.0 0.0 1.0
outer loop
vertex -2.51140714835158 -0.672929517266553 10.75
vertex -2.51140714835158 0.672929517266554 10.75
vertex -2.6 3.52495810318487e-016 10.75
endloop
endfacet
facet normal 0.0 0.0 1.0
outer loop
vertex -2.51140714835158 0.672929517266554 10.75
vertex -2.51140714835158 -0.672929517266553 10.75
vertex -2.25166604983954 -1.3 10.75
endloop
endfacet
facet normal 0.0 0.0 1.0
outer loop
vertex -2.51140714835158 0.672929517266554 10.75
vertex -2.25166604983954 -1.3 10.75
vertex -2.25166604983954 1.3 10.75
endloop
endfacet
facet normal 0.0 0.0 1.0
outer loop
vertex -2.25166604983954 1.3 10.75
vertex -2.25166604983954 -1.3 10.75
vertex -1.83847763108502 -1.83847763108502 10.75
endloop
endfacet
facet normal 0.0 0.0 1.0
outer loop
vertex -2.25166604983954 1.3 10.75
vertex -1.83847763108502 -1.83847763108502 10.75
vertex -1.83847763108502 1.83847763108502 10.75
endloop
endfacet
facet normal 0.0 0.0 1.0
outer loop
vertex -1.83847763108502 1.83847763108502 10.75
vertex -1.83847763108502 -1.83847763108502 10.75
vertex -1.8 3.52495810318487e-016 10.75
endloop
endfacet
facet normal 0.0 0.0 1.0
outer loop
vertex -1.8 3.52495810318487e-016 10.75
vertex -1.83847763108502 -1.83847763108502 10.75
vertex -1.73866648732032 -0.465874281184537 10.75
endloop
endfacet
facet normal 0.0 0.0 1.0
outer loop
vertex -1.73866648732032 -0.465874281184537 10.75
vertex -1.83847763108502 -1.83847763108502 10.75
vertex -1.3 -2.25166604983954 10.75
endloop
endfacet
facet normal 0.0 0.0 1.0
outer loop
vertex -1.73866648732032 -0.465874281184537 10.75
vertex -1.3 -2.25166604983954 10.75
vertex -1.55884572681199 -0.899999999999999 10.75
endloop
endfacet
facet normal 0.0 0.0 1.0
outer loop
vertex -1.55884572681199 -0.899999999999999 10.75
vertex -1.3 -2.25166604983954 10.75
vertex -1.27279220613579 -1.27279220613578 10.75
endloop
endfacet
facet normal 0.0 0.0 1.0
outer loop
vertex -1.27279220613579 -1.27279220613578 10.75
vertex -1.3 -2.25166604983954 10.75
vertex -0.672929517266556 -2.51140714835158 10.75
endloop
endfacet
facet normal 0.0 0.0 1.0
outer loop
vertex -1.27279220613579 -1.27279220613578 10.75
vertex -0.672929517266556 -2.51140714835158 10.75
vertex -0.900000000000001 -1.55884572681199 10.75
endloop
endfacet
facet normal 0.0 0.0 1.0
outer loop
vertex -0.900000000000001 -1.55884572681199 10.75
vertex -0.672929517266556 -2.51140714835158 10.75
vertex -0.465874281184539 -1.73866648732032 10.75
endloop
endfacet
facet normal 0.0 0.0 1.0
outer loop
vertex -0.465874281184539 -1.73866648732032 10.75
vertex -0.672929517266556 -2.51140714835158 10.75
vertex -3.52495810318487e-016 -2.6 10.75
endloop
endfacet
facet normal 0.0 0.0 1.0
outer loop
vertex -0.465874281184539 -1.73866648732032 10.75
vertex -3.52495810318487e-016 -2.6 10.75
vertex -3.52495810318487e-016 -1.8 10.75
endloop
endfacet
facet normal 0.0 0.0 1.0
outer loop
vertex -3.52495810318487e-016 -1.8 10.75
vertex -3.52495810318487e-016 -2.6 10.75
vertex 0.672929517266553 -2.51140714835158 10.75
endloop
endfacet
facet normal 0.0 0.0 1.0
outer loop
vertex -3.52495810318487e-016 -1.8 10.75
vertex 0.672929517266553 -2.51140714835158 10.75
vertex 0.465874281184537 -1.73866648732032 10.75
endloop
endfacet
facet normal 0.0 0.0 1.0
outer loop
vertex 0.465874281184537 -1.73866648732032 10.75
vertex 0.672929517266553 -2.51140714835158 10.75
vertex 0.899999999999999 -1.55884572681199 10.75
endloop
endfacet
facet normal 0.0 0.0 1.0
outer loop
vertex 0.899999999999999 -1.55884572681199 10.75
vertex 0.672929517266553 -2.51140714835158 10.75
vertex 1.3 -2.25166604983954 10.75
endloop
endfacet
facet normal 0.0 0.0 1.0
outer loop
vertex 0.899999999999999 -1.55884572681199 10.75
vertex 1.3 -2.25166604983954 10.75
vertex 1.27279220613579 -1.27279220613579 10.75
endloop
endfacet
facet normal 0.0 0.0 1.0
outer loop
vertex 1.27279220613579 -1.27279220613579 10.75
vertex 1.3 -2.25166604983954 10.75
vertex 1.55884572681199 -0.900000000000001 10.75
endloop
endfacet
facet normal 0.0 0.0 1.0
outer loop
vertex 1.55884572681199 -0.900000000000001 10.75
vertex 1.3 -2.25166604983954 10.75
vertex 1.83847763108502 -1.83847763108502 10.75
endloop
endfacet
facet normal 0.0 0.0 1.0
outer loop
vertex 1.55884572681199 -0.900000000000001 10.75
vertex 1.83847763108502 -1.83847763108502 10.75
vertex 1.73866648732032 -0.465874281184539 10.75
endloop
endfacet
facet normal 0.0 0.0 1.0
outer loop
vertex 1.73866648732032 -0.465874281184539 10.75
vertex 1.83847763108502 -1.83847763108502 10.75
vertex 1.8 0.0 10.75
endloop
endfacet
facet normal 0.0 0.0 1.0
outer loop
vertex -1.83847763108502 1.83847763108502 10.75
vertex -1.73866648732032 0.465874281184538 10.75
vertex -1.3 2.25166604983954 10.75
endloop
endfacet
facet normal 0.0 0.0 1.0
outer loop
vertex -1.73866648732032 0.465874281184538 10.75
vertex -1.83847763108502 1.83847763108502 10.75
vertex -1.8 3.52495810318487e-016 10.75
endloop
endfacet
facet normal 0.0 0.0 1.0
outer loop
vertex -1.3 2.25166604983954 10.75
vertex -1.73866648732032 0.465874281184538 10.75
vertex -1.55884572681199 0.900000000000001 10.75
endloop
endfacet
facet normal 0.0 0.0 1.0
outer loop
vertex -1.3 2.25166604983954 10.75
vertex -1.55884572681199 0.900000000000001 10.75
vertex -1.27279220613579 1.27279220613579 10.75
endloop
endfacet
facet normal 0.0 0.0 1.0
outer loop
vertex -1.3 2.25166604983954 10.75
vertex -1.27279220613579 1.27279220613579 10.75
vertex -0.672929517266554 2.51140714835158 10.75
endloop
endfacet
facet normal 0.0 0.0 1.0
outer loop
vertex -0.672929517266554 2.51140714835158 10.75
vertex -1.27279220613579 1.27279220613579 10.75
vertex -0.899999999999999 1.55884572681199 10.75
endloop
endfacet
facet normal 0.0 0.0 1.0
outer loop
vertex -0.672929517266554 2.51140714835158 10.75
vertex -0.899999999999999 1.55884572681199 10.75
vertex -0.465874281184537 1.73866648732032 10.75
endloop
endfacet
facet normal 0.0 0.0 1.0
outer loop
vertex -0.672929517266554 2.51140714835158 10.75
vertex -0.465874281184537 1.73866648732032 10.75
vertex 0.0 2.6 10.75
endloop
endfacet
facet normal 0.0 0.0 1.0
outer loop
vertex 0.0 2.6 10.75
vertex -0.465874281184537 1.73866648732032 10.75
vertex 0.0 1.8 10.75
endloop
endfacet
facet normal 0.0 0.0 1.0
outer loop
vertex 0.0 2.6 10.75
vertex 0.0 1.8 10.75
vertex 0.465874281184538 1.73866648732032 10.75
endloop
endfacet
facet normal 0.0 0.0 1.0
outer loop
vertex 0.0 2.6 10.75
vertex 0.465874281184538 1.73866648732032 10.75
vertex 0.672929517266554 2.51140714835158 10.75
endloop
endfacet
facet normal 0.0 0.0 1.0
outer loop
vertex 0.672929517266554 2.51140714835158 10.75
vertex 0.465874281184538 1.73866648732032 10.75
vertex 0.9 1.55884572681199 10.75
endloop
endfacet
facet normal 0.0 0.0 1.0
outer loop
vertex 0.672929517266554 2.51140714835158 10.75
vertex 0.9 1.55884572681199 10.75
vertex 1.3 2.25166604983954 10.75
endloop
endfacet
facet normal 0.0 0.0 1.0
outer loop
vertex 1.3 2.25166604983954 10.75
vertex 0.9 1.55884572681199 10.75
vertex 1.27279220613579 1.27279220613579 10.75
endloop
endfacet
facet normal 0.0 0.0 1.0
outer loop
vertex 1.3 2.25166604983954 10.75
vertex 1.27279220613579 1.27279220613579 10.75
vertex 1.55884572681199 0.899999999999999 10.75
endloop
endfacet
facet normal 0.0 0.0 1.0
outer loop
vertex 1.3 2.25166604983954 10.75
vertex 1.55884572681199 0.899999999999999 10.75
vertex 1.83847763108502 1.83847763108502 10.75
endloop
endfacet
facet normal 0.0 0.0 1.0
outer loop
vertex 1.83847763108502 1.83847763108502 10.75
vertex 1.55884572681199 0.899999999999999 10.75
vertex 1.73866648732032 0.465874281184537 10.75
endloop
endfacet
facet normal 0.0 0.0 1.0
outer loop
vertex 1.83847763108502 1.83847763108502 10.75
vertex 1.73866648732032 0.465874281184537 10.75
vertex 1.8 0.0 10.75
endloop
endfacet
facet normal 0.0 0.0 1.0
outer loop
vertex 1.83847763108502 1.83847763108502 10.75
vertex 1.8 0.0 10.75
vertex 1.83847763108502 -1.83847763108502 10.75
endloop
endfacet
facet normal 0.0 0.0 1.0
outer loop
vertex 1.83847763108502 1.83847763108502 10.75
vertex 1.83847763108502 -1.83847763108502 10.75
vertex 2.25166604983954 -1.3 10.75
endloop
endfacet
facet normal 0.0 0.0 1.0
outer loop
vertex 1.83847763108502 1.83847763108502 10.75
vertex 2.25166604983954 -1.3 10.75
vertex 2.25166604983954 1.3 10.75
endloop
endfacet
facet normal 0.0 0.0 1.0
outer loop
vertex 2.25166604983954 1.3 10.75
vertex 2.25166604983954 -1.3 10.75
vertex 2.51140714835158 -0.672929517266556 10.75
endloop
endfacet
facet normal 0.0 0.0 1.0
outer loop
vertex 2.25166604983954 1.3 10.75
vertex 2.51140714835158 -0.672929517266556 10.75
vertex 2.51140714835158 0.672929517266554 10.75
endloop
endfacet
facet normal 0.0 0.0 1.0
outer loop
vertex 2.51140714835158 0.672929517266554 10.75
vertex 2.51140714835158 -0.672929517266556 10.75
vertex 2.6 0.0 10.75
endloop
endfacet
facet normal 1.0 -6.23777692695283e-017 0.0
outer loop
vertex 2.6 0.0 0.0
vertex 2.51140714835158 -0.672929517266556 10.75
vertex 2.51140714835158 -0.672929517266556 0.0
endloop
endfacet
facet normal 0.965925826289068 -0.258819045102521 0.0
outer loop
vertex 2.51140714835158 -0.672929517266556 10.75
vertex 2.6 0.0 0.0
vertex 2.6 0.0 10.75
endloop
endfacet
facet normal -1.0 4.00999945304111e-016 0.0
outer loop
vertex -2.6 3.52495810318487e-016 10.75
vertex -2.51140714835158 -0.672929517266553 0.0
vertex -2.51140714835158 -0.672929517266553 10.75
endloop
endfacet
facet normal -0.965925826289068 -0.25881904510252 0.0
outer loop
vertex -2.51140714835158 -0.672929517266553 0.0
vertex -2.6 3.52495810318487e-016 10.75
vertex -2.6 3.52495810318487e-016 0.0
endloop
endfacet
facet normal -2.76244406765054e-016 -1.0 0.0
outer loop
vertex -3.52495810318487e-016 -2.6 10.75
vertex -0.672929517266556 -2.51140714835158 0.0
vertex -3.52495810318487e-016 -2.6 0.0
endloop
endfacet
facet normal -0.258819045102521 -0.965925826289068 0.0
outer loop
vertex -0.672929517266556 -2.51140714835158 0.0
vertex -3.52495810318487e-016 -2.6 10.75
vertex -0.672929517266556 -2.51140714835158 10.75
endloop
endfacet
facet normal -0.5 0.866025403784439 0.0
outer loop
vertex -1.3 2.25166604983954 10.75
vertex -0.672929517266554 2.51140714835158 0.0
vertex -1.3 2.25166604983954 0.0
endloop
endfacet
facet normal -0.258819045102521 0.965925826289068 0.0
outer loop
vertex -0.672929517266554 2.51140714835158 0.0
vertex -1.3 2.25166604983954 10.75
vertex -0.672929517266554 2.51140714835158 10.75
endloop
endfacet
facet normal 0.258819045102521 0.965925826289068 0.0
outer loop
vertex 0.672929517266554 2.51140714835158 10.75
vertex 1.3 2.25166604983954 0.0
vertex 0.672929517266554 2.51140714835158 0.0
endloop
endfacet
facet normal 0.5 0.866025403784439 0.0
outer loop
vertex 1.3 2.25166604983954 0.0
vertex 0.672929517266554 2.51140714835158 10.75
vertex 1.3 2.25166604983954 10.75
endloop
endfacet
facet normal 0.5 0.866025403784439 0.0
outer loop
vertex 1.3 2.25166604983954 10.75
vertex 1.83847763108502 1.83847763108502 0.0
vertex 1.3 2.25166604983954 0.0
endloop
endfacet
facet normal 0.707106781186548 0.707106781186547 0.0
outer loop
vertex 1.83847763108502 1.83847763108502 0.0
vertex 1.3 2.25166604983954 10.75
vertex 1.83847763108502 1.83847763108502 10.75
endloop
endfacet
facet normal 0.707106781186548 0.707106781186547 0.0
outer loop
vertex 1.83847763108502 1.83847763108502 0.0
vertex 2.25166604983954 1.3 10.75
vertex 2.25166604983954 1.3 0.0
endloop
endfacet
facet normal 0.866025403784439 0.5 0.0
outer loop
vertex 2.25166604983954 1.3 10.75
vertex 1.83847763108502 1.83847763108502 0.0
vertex 1.83847763108502 1.83847763108502 10.75
endloop
endfacet
facet normal 0.965925826289068 0.258819045102521 0.0
outer loop
vertex 2.51140714835158 0.672929517266554 0.0
vertex 2.6 0.0 10.75
vertex 2.6 0.0 0.0
endloop
endfacet
facet normal 1.0 -6.23777692695283e-017 0.0
outer loop
vertex 2.6 0.0 10.75
vertex 2.51140714835158 0.672929517266554 0.0
vertex 2.51140714835158 0.672929517266554 10.75
endloop
endfacet
facet normal 0.707106781186547 -0.707106781186548 0.0
outer loop
vertex 1.83847763108502 -1.83847763108502 10.75
vertex 1.3 -2.25166604983954 0.0
vertex 1.83847763108502 -1.83847763108502 0.0
endloop
endfacet
facet normal 0.5 -0.866025403784439 0.0
outer loop
vertex 1.3 -2.25166604983954 0.0
vertex 1.83847763108502 -1.83847763108502 10.75
vertex 1.3 -2.25166604983954 10.75
endloop
endfacet
facet normal 0.5 -0.866025403784439 0.0
outer loop
vertex 1.3 -2.25166604983954 10.75
vertex 0.672929517266553 -2.51140714835158 0.0
vertex 1.3 -2.25166604983954 0.0
endloop
endfacet
facet normal 0.25881904510252 -0.965925826289068 0.0
outer loop
vertex 0.672929517266553 -2.51140714835158 0.0
vertex 1.3 -2.25166604983954 10.75
vertex 0.672929517266553 -2.51140714835158 10.75
endloop
endfacet
facet normal 0.25881904510252 -0.965925826289068 0.0
outer loop
vertex 0.672929517266553 -2.51140714835158 10.75
vertex -3.52495810318487e-016 -2.6 0.0
vertex 0.672929517266553 -2.51140714835158 0.0
endloop
endfacet
facet normal -2.76244406765054e-016 -1.0 0.0
outer loop
vertex -3.52495810318487e-016 -2.6 0.0
vertex 0.672929517266553 -2.51140714835158 10.75
vertex -3.52495810318487e-016 -2.6 10.75
endloop
endfacet
facet normal 2.22777747391173e-016 1.0 0.0
outer loop
vertex 0.0 2.6 10.75
vertex 0.672929517266554 2.51140714835158 0.0
vertex 0.0 2.6 0.0
endloop
endfacet
facet normal 0.258819045102521 0.965925826289068 0.0
outer loop
vertex 0.672929517266554 2.51140714835158 0.0
vertex 0.0 2.6 10.75
vertex 0.672929517266554 2.51140714835158 10.75
endloop
endfacet
facet normal -0.258819045102521 -0.965925826289068 0.0
outer loop
vertex -0.672929517266556 -2.51140714835158 10.75
vertex -1.3 -2.25166604983954 0.0
vertex -0.672929517266556 -2.51140714835158 0.0
endloop
endfacet
facet normal -0.500000000000001 -0.866025403784438 0.0
outer loop
vertex -1.3 -2.25166604983954 0.0
vertex -0.672929517266556 -2.51140714835158 10.75
vertex -1.3 -2.25166604983954 10.75
endloop
endfacet
facet normal -0.500000000000001 -0.866025403784438 0.0
outer loop
vertex -1.3 -2.25166604983954 10.75
vertex -1.83847763108502 -1.83847763108502 0.0
vertex -1.3 -2.25166604983954 0.0
endloop
endfacet
facet normal -0.707106781186548 -0.707106781186547 0.0
outer loop
vertex -1.83847763108502 -1.83847763108502 0.0
vertex -1.3 -2.25166604983954 10.75
vertex -1.83847763108502 -1.83847763108502 10.75
endloop
endfacet
facet normal 0.965925826289068 -0.258819045102521 0.0
outer loop
vertex 2.51140714835158 -0.672929517266556 0.0
vertex 2.25166604983954 -1.3 10.75
vertex 2.25166604983954 -1.3 0.0
endloop
endfacet
facet normal 0.866025403784438 -0.500000000000001 0.0
outer loop
vertex 2.25166604983954 -1.3 10.75
vertex 2.51140714835158 -0.672929517266556 0.0
vertex 2.51140714835158 -0.672929517266556 10.75
endloop
endfacet
facet normal -0.866025403784439 -0.5 0.0
outer loop
vertex -2.25166604983954 -1.3 10.75
vertex -1.83847763108502 -1.83847763108502 0.0
vertex -1.83847763108502 -1.83847763108502 10.75
endloop
endfacet
facet normal -0.707106781186548 -0.707106781186547 0.0
outer loop
vertex -1.83847763108502 -1.83847763108502 0.0
vertex -2.25166604983954 -1.3 10.75
vertex -2.25166604983954 -1.3 0.0
endloop
endfacet
facet normal -0.965925826289068 -0.25881904510252 0.0
outer loop
vertex -2.51140714835158 -0.672929517266553 10.75
vertex -2.25166604983954 -1.3 0.0
vertex -2.25166604983954 -1.3 10.75
endloop
endfacet
facet normal -0.866025403784439 -0.5 0.0
outer loop
vertex -2.25166604983954 -1.3 0.0
vertex -2.51140714835158 -0.672929517266553 10.75
vertex -2.51140714835158 -0.672929517266553 0.0
endloop
endfacet
facet normal -0.965925826289068 0.258819045102521 0.0
outer loop
vertex -2.51140714835158 0.672929517266554 10.75
vertex -2.6 3.52495810318487e-016 0.0
vertex -2.6 3.52495810318487e-016 10.75
endloop
endfacet
facet normal -1.0 4.00999945304111e-016 0.0
outer loop
vertex -2.6 3.52495810318487e-016 0.0
vertex -2.51140714835158 0.672929517266554 10.75
vertex -2.51140714835158 0.672929517266554 0.0
endloop
endfacet
facet normal -0.866025403784439 0.5 0.0
outer loop
vertex -2.25166604983954 1.3 10.75
vertex -2.51140714835158 0.672929517266554 0.0
vertex -2.51140714835158 0.672929517266554 10.75
endloop
endfacet
facet normal -0.965925826289068 0.258819045102521 0.0
outer loop
vertex -2.51140714835158 0.672929517266554 0.0
vertex -2.25166604983954 1.3 10.75
vertex -2.25166604983954 1.3 0.0
endloop
endfacet
facet normal -0.707106781186547 0.707106781186548 0.0
outer loop
vertex -1.83847763108502 1.83847763108502 10.75
vertex -2.25166604983954 1.3 0.0
vertex -2.25166604983954 1.3 10.75
endloop
endfacet
facet normal -0.866025403784439 0.5 0.0
outer loop
vertex -2.25166604983954 1.3 0.0
vertex -1.83847763108502 1.83847763108502 10.75
vertex -1.83847763108502 1.83847763108502 0.0
endloop
endfacet
facet normal -0.707106781186547 0.707106781186548 0.0
outer loop
vertex -1.83847763108502 1.83847763108502 10.75
vertex -1.3 2.25166604983954 0.0
vertex -1.83847763108502 1.83847763108502 0.0
endloop
endfacet
facet normal -0.5 0.866025403784439 0.0
outer loop
vertex -1.3 2.25166604983954 0.0
vertex -1.83847763108502 1.83847763108502 10.75
vertex -1.3 2.25166604983954 10.75
endloop
endfacet
facet normal 0.866025403784438 -0.500000000000001 0.0
outer loop
vertex 2.25166604983954 -1.3 0.0
vertex 1.83847763108502 -1.83847763108502 10.75
vertex 1.83847763108502 -1.83847763108502 0.0
endloop
endfacet
facet normal 0.707106781186547 -0.707106781186548 0.0
outer loop
vertex 1.83847763108502 -1.83847763108502 10.75
vertex 2.25166604983954 -1.3 0.0
vertex 2.25166604983954 -1.3 10.75
endloop
endfacet
facet normal -0.258819045102521 0.965925826289068 0.0
outer loop
vertex -0.672929517266554 2.51140714835158 10.75
vertex 0.0 2.6 0.0
vertex -0.672929517266554 2.51140714835158 0.0
endloop
endfacet
facet normal 2.22777747391173e-016 1.0 0.0
outer loop
vertex 0.0 2.6 0.0
vertex -0.672929517266554 2.51140714835158 10.75
vertex 0.0 2.6 10.75
endloop
endfacet
facet normal 0.707106781186547 -0.707106781186548 0.0
outer loop
vertex -1.27279220613579 1.27279220613579 0.0
vertex -1.55884572681199 0.900000000000001 10.75
vertex -1.55884572681199 0.900000000000001 0.0
endloop
endfacet
facet normal 0.866025403784439 -0.5 0.0
outer loop
vertex -1.55884572681199 0.900000000000001 10.75
vertex -1.27279220613579 1.27279220613579 0.0
vertex -1.27279220613579 1.27279220613579 10.75
endloop
endfacet
facet normal -0.866025403784438 0.500000000000001 0.0
outer loop
vertex 1.55884572681199 -0.900000000000001 10.75
vertex 1.27279220613579 -1.27279220613579 0.0
vertex 1.27279220613579 -1.27279220613579 10.75
endloop
endfacet
facet normal -0.707106781186547 0.707106781186548 0.0
outer loop
vertex 1.27279220613579 -1.27279220613579 0.0
vertex 1.55884572681199 -0.900000000000001 10.75
vertex 1.55884572681199 -0.900000000000001 0.0
endloop
endfacet
facet normal 0.866025403784439 0.5 0.0
outer loop
vertex -1.55884572681199 -0.899999999999999 0.0
vertex -1.27279220613579 -1.27279220613578 10.75
vertex -1.27279220613579 -1.27279220613578 0.0
endloop
endfacet
facet normal 0.707106781186548 0.707106781186547 0.0
outer loop
vertex -1.27279220613579 -1.27279220613578 10.75
vertex -1.55884572681199 -0.899999999999999 0.0
vertex -1.55884572681199 -0.899999999999999 10.75
endloop
endfacet
facet normal 0.500000000000001 0.866025403784438 0.0
outer loop
vertex -0.900000000000001 -1.55884572681199 10.75
vertex -0.465874281184539 -1.73866648732032 0.0
vertex -0.900000000000001 -1.55884572681199 0.0
endloop
endfacet
facet normal 0.258819045102521 0.965925826289068 0.0
outer loop
vertex -0.465874281184539 -1.73866648732032 0.0
vertex -0.900000000000001 -1.55884572681199 10.75
vertex -0.465874281184539 -1.73866648732032 10.75
endloop
endfacet
facet normal -0.25881904510252 0.965925826289068 0.0
outer loop
vertex 0.465874281184537 -1.73866648732032 10.75
vertex 0.899999999999999 -1.55884572681199 0.0
vertex 0.465874281184537 -1.73866648732032 0.0
endloop
endfacet
facet normal -0.499999999999999 0.866025403784439 0.0
outer loop
vertex 0.899999999999999 -1.55884572681199 0.0
vertex 0.465874281184537 -1.73866648732032 10.75
vertex 0.899999999999999 -1.55884572681199 10.75
endloop
endfacet
facet normal -0.707106781186548 -0.707106781186547 0.0
outer loop
vertex 1.27279220613579 1.27279220613579 10.75
vertex 0.9 1.55884572681199 0.0
vertex 1.27279220613579 1.27279220613579 0.0
endloop
endfacet
facet normal -0.5 -0.866025403784439 0.0
outer loop
vertex 0.9 1.55884572681199 0.0
vertex 1.27279220613579 1.27279220613579 10.75
vertex 0.9 1.55884572681199 10.75
endloop
endfacet
facet normal -0.965925826289068 -0.258819045102521 0.0
outer loop
vertex 1.73866648732032 0.465874281184537 10.75
vertex 1.8 0.0 0.0
vertex 1.8 0.0 10.75
endloop
endfacet
facet normal -1.0 1.60399978121644e-016 0.0
outer loop
vertex 1.8 0.0 0.0
vertex 1.73866648732032 0.465874281184537 10.75
vertex 1.73866648732032 0.465874281184537 0.0
endloop
endfacet
facet normal -0.5 -0.866025403784439 0.0
outer loop
vertex 0.9 1.55884572681199 10.75
vertex 0.465874281184538 1.73866648732032 0.0
vertex 0.9 1.55884572681199 0.0
endloop
endfacet
facet normal -0.258819045102521 -0.965925826289068 0.0
outer loop
vertex 0.465874281184538 1.73866648732032 0.0
vertex 0.9 1.55884572681199 10.75
vertex 0.465874281184538 1.73866648732032 10.75
endloop
endfacet
facet normal 0.965925826289068 -0.258819045102521 0.0
outer loop
vertex -1.73866648732032 0.465874281184538 0.0
vertex -1.8 3.52495810318487e-016 10.75
vertex -1.8 3.52495810318487e-016 0.0
endloop
endfacet
facet normal 1.0 -2.76244406765054e-016 0.0
outer loop
vertex -1.8 3.52495810318487e-016 10.75
vertex -1.73866648732032 0.465874281184538 0.0
vertex -1.73866648732032 0.465874281184538 10.75
endloop
endfacet
facet normal 0.707106781186548 0.707106781186547 0.0
outer loop
vertex -1.27279220613579 -1.27279220613578 10.75
vertex -0.900000000000001 -1.55884572681199 0.0
vertex -1.27279220613579 -1.27279220613578 0.0
endloop
endfacet
facet normal 0.500000000000001 0.866025403784438 0.0
outer loop
vertex -0.900000000000001 -1.55884572681199 0.0
vertex -1.27279220613579 -1.27279220613578 10.75
vertex -0.900000000000001 -1.55884572681199 10.75
endloop
endfacet
facet normal -0.707106781186548 -0.707106781186547 0.0
outer loop
vertex 1.27279220613579 1.27279220613579 10.75
vertex 1.55884572681199 0.899999999999999 0.0
vertex 1.55884572681199 0.899999999999999 10.75
endloop
endfacet
facet normal -0.866025403784439 -0.5 0.0
outer loop
vertex 1.55884572681199 0.899999999999999 0.0
vertex 1.27279220613579 1.27279220613579 10.75
vertex 1.27279220613579 1.27279220613579 0.0
endloop
endfacet
facet normal -0.866025403784439 -0.5 0.0
outer loop
vertex 1.55884572681199 0.899999999999999 10.75
vertex 1.73866648732032 0.465874281184537 0.0
vertex 1.73866648732032 0.465874281184537 10.75
endloop
endfacet
facet normal -0.965925826289068 -0.258819045102521 0.0
outer loop
vertex 1.73866648732032 0.465874281184537 0.0
vertex 1.55884572681199 0.899999999999999 10.75
vertex 1.55884572681199 0.899999999999999 0.0
endloop
endfacet
facet normal -3.11888846347642e-016 -1.0 0.0
outer loop
vertex 0.0 1.8 10.75
vertex -0.465874281184537 1.73866648732032 0.0
vertex 0.0 1.8 0.0
endloop
endfacet
facet normal 0.258819045102521 -0.965925826289068 0.0
outer loop
vertex -0.465874281184537 1.73866648732032 0.0
vertex 0.0 1.8 10.75
vertex -0.465874281184537 1.73866648732032 10.75
endloop
endfacet
facet normal -0.258819045102521 -0.965925826289068 0.0
outer loop
vertex 0.465874281184538 1.73866648732032 10.75
vertex 0.0 1.8 0.0
vertex 0.465874281184538 1.73866648732032 0.0
endloop
endfacet
facet normal -3.11888846347642e-016 -1.0 0.0
outer loop
vertex 0.0 1.8 0.0
vertex 0.465874281184538 1.73866648732032 10.75
vertex 0.0 1.8 10.75
endloop
endfacet
facet normal 0.965925826289069 0.25881904510252 0.0
outer loop
vertex -1.73866648732032 -0.465874281184537 0.0
vertex -1.55884572681199 -0.899999999999999 10.75
vertex -1.55884572681199 -0.899999999999999 0.0
endloop
endfacet
facet normal 0.866025403784439 0.5 0.0
outer loop
vertex -1.55884572681199 -0.899999999999999 10.75
vertex -1.73866648732032 -0.465874281184537 0.0
vertex -1.73866648732032 -0.465874281184537 10.75
endloop
endfacet
facet normal 1.69311088017291e-016 1.0 0.0
outer loop
vertex -3.52495810318487e-016 -1.8 10.75
vertex 0.465874281184537 -1.73866648732032 0.0
vertex -3.52495810318487e-016 -1.8 0.0
endloop
endfacet
facet normal -0.25881904510252 0.965925826289068 0.0
outer loop
vertex 0.465874281184537 -1.73866648732032 0.0
vertex -3.52495810318487e-016 -1.8 10.75
vertex 0.465874281184537 -1.73866648732032 10.75
endloop
endfacet
facet normal 0.258819045102521 -0.965925826289068 0.0
outer loop
vertex -0.465874281184537 1.73866648732032 10.75
vertex -0.899999999999999 1.55884572681199 0.0
vertex -0.465874281184537 1.73866648732032 0.0
endloop
endfacet
facet normal 0.5 -0.866025403784439 0.0
outer loop
vertex -0.899999999999999 1.55884572681199 0.0
vertex -0.465874281184537 1.73866648732032 10.75
vertex -0.899999999999999 1.55884572681199 10.75
endloop
endfacet
facet normal 0.866025403784439 -0.5 0.0
outer loop
vertex -1.55884572681199 0.900000000000001 0.0
vertex -1.73866648732032 0.465874281184538 10.75
vertex -1.73866648732032 0.465874281184538 0.0
endloop
endfacet
facet normal 0.965925826289068 -0.258819045102521 0.0
outer loop
vertex -1.73866648732032 0.465874281184538 10.75
vertex -1.55884572681199 0.900000000000001 0.0
vertex -1.55884572681199 0.900000000000001 10.75
endloop
endfacet
facet normal -0.965925826289068 0.258819045102521 0.0
outer loop
vertex 1.73866648732032 -0.465874281184539 10.75
vertex 1.55884572681199 -0.900000000000001 0.0
vertex 1.55884572681199 -0.900000000000001 10.75
endloop
endfacet
facet normal -0.866025403784438 0.500000000000001 0.0
outer loop
vertex 1.55884572681199 -0.900000000000001 0.0
vertex 1.73866648732032 -0.465874281184539 10.75
vertex 1.73866648732032 -0.465874281184539 0.0
endloop
endfacet
facet normal -0.499999999999999 0.866025403784439 0.0
outer loop
vertex 0.899999999999999 -1.55884572681199 10.75
vertex 1.27279220613579 -1.27279220613579 0.0
vertex 0.899999999999999 -1.55884572681199 0.0
endloop
endfacet
facet normal -0.707106781186547 0.707106781186548 0.0
outer loop
vertex 1.27279220613579 -1.27279220613579 0.0
vertex 0.899999999999999 -1.55884572681199 10.75
vertex 1.27279220613579 -1.27279220613579 10.75
endloop
endfacet
facet normal 0.5 -0.866025403784439 0.0
outer loop
vertex -0.899999999999999 1.55884572681199 10.75
vertex -1.27279220613579 1.27279220613579 0.0
vertex -0.899999999999999 1.55884572681199 0.0
endloop
endfacet
facet normal 0.707106781186547 -0.707106781186548 0.0
outer loop
vertex -1.27279220613579 1.27279220613579 0.0
vertex -0.899999999999999 1.55884572681199 10.75
vertex -1.27279220613579 1.27279220613579 10.75
endloop
endfacet
facet normal 0.258819045102521 0.965925826289068 0.0
outer loop
vertex -0.465874281184539 -1.73866648732032 10.75
vertex -3.52495810318487e-016 -1.8 0.0
vertex -0.465874281184539 -1.73866648732032 0.0
endloop
endfacet
facet normal 1.69311088017291e-016 1.0 0.0
outer loop
vertex -3.52495810318487e-016 -1.8 0.0
vertex -0.465874281184539 -1.73866648732032 10.75
vertex -3.52495810318487e-016 -1.8 10.75
endloop
endfacet
facet normal -1.0 1.60399978121644e-016 0.0
outer loop
vertex 1.8 0.0 10.75
vertex 1.73866648732032 -0.465874281184539 0.0
vertex 1.73866648732032 -0.465874281184539 10.75
endloop
endfacet
facet normal -0.965925826289068 0.258819045102521 0.0
outer loop
vertex 1.73866648732032 -0.465874281184539 0.0
vertex 1.8 0.0 10.75
vertex 1.8 0.0 0.0
endloop
endfacet
facet normal 1.0 -2.76244406765054e-016 0.0
outer loop
vertex -1.8 3.52495810318487e-016 0.0
vertex -1.73866648732032 -0.465874281184537 10.75
vertex -1.73866648732032 -0.465874281184537 0.0
endloop
endfacet
facet normal 0.965925826289069 0.25881904510252 0.0
outer loop
vertex -1.73866648732032 -0.465874281184537 10.75
vertex -1.8 3.52495810318487e-016 0.0
vertex -1.8 3.52495810318487e-016 10.75
endloop
endfacet
endsolid standiff-onewire-x3
