 0
SECTION
 2
ENTITIES
  0
LINE
 8
onewiredbox
10
64.3
20
11.5
30
15.0
11
64.3
21
11.5
31
11.0
  0
LINE
 8
onewiredbox
10
63.9117714323462
20
11.4488887394336
30
15.0
11
64.3
21
11.5
31
15.0
  0
LINE
 8
onewiredbox
10
63.9117714323462
20
11.4488887394336
30
15.0
11
63.9117714323462
21
11.4488887394336
31
11.0
  0
LINE
 8
onewiredbox
10
63.9117714323462
20
11.4488887394336
30
11.0
11
64.3
21
11.5
31
11.0
  0
LINE
 8
onewiredbox
10
65.8
20
10.0
30
15.0
11
65.8
21
10.0
31
11.0
  0
LINE
 8
onewiredbox
10
65.7488887394336
20
10.3882285676538
30
15.0
11
65.8
21
10.0
31
15.0
  0
LINE
 8
onewiredbox
10
65.7488887394336
20
10.3882285676538
30
15.0
11
65.7488887394336
21
10.3882285676538
31
11.0
  0
LINE
 8
onewiredbox
10
65.7488887394336
20
10.3882285676538
30
11.0
11
65.8
21
10.0
31
11.0
  0
LINE
 8
onewiredbox
10
67.0048443687275
20
8.2900827678033
30
0.0
11
66.4701198866049
21
7.64828154793951
31
0.0
  0
LINE
 8
onewiredbox
10
67.0048443687275
20
8.2900827678033
30
0.0
11
67.0048443687275
21
8.2900827678033
31
15.0
  0
LINE
 8
onewiredbox
10
67.0048443687275
20
8.2900827678033
30
15.0
11
66.4701198866049
21
7.64828154793951
31
15.0
  0
LINE
 8
onewiredbox
10
66.4701198866049
20
7.64828154793951
30
0.0
11
66.4701198866049
21
7.64828154793951
31
15.0
  0
LINE
 8
onewiredbox
10
61.2447618229121
20
10.9515879787305
30
0.0
11
61.5951556312725
21
11.7099172321967
31
0.0
  0
LINE
 8
onewiredbox
10
61.2447618229121
20
10.9515879787305
30
0.0
11
61.2447618229121
21
10.9515879787305
31
15.0
  0
LINE
 8
onewiredbox
10
61.2447618229121
20
10.9515879787305
30
15.0
11
61.5951556312725
21
11.7099172321967
31
15.0
  0
LINE
 8
onewiredbox
10
61.5951556312725
20
11.7099172321967
30
0.0
11
61.5951556312725
21
11.7099172321967
31
15.0
  0
LINE
 8
onewiredbox
10
99.0493063095785
20
8.60474501995876
30
15.0
11
99.0493063095785
21
8.60474501995876
31
11.0
  0
LINE
 8
onewiredbox
10
99.4291893036562
20
8.50975716542084
30
15.0
11
99.0493063095785
21
8.60474501995876
31
15.0
  0
LINE
 8
onewiredbox
10
99.4291893036562
20
8.50975716542084
30
15.0
11
99.4291893036562
21
8.50975716542084
31
11.0
  0
LINE
 8
onewiredbox
10
99.4291893036562
20
8.50975716542084
30
11.0
11
99.0493063095785
21
8.60474501995876
31
11.0
  0
LINE
 8
onewiredbox
10
65.5990381056766
20
10.75
30
15.0
11
65.7488887394336
21
10.3882285676538
31
15.0
  0
LINE
 8
onewiredbox
10
65.5990381056766
20
10.75
30
15.0
11
65.5990381056766
21
10.75
31
11.0
  0
LINE
 8
onewiredbox
10
65.5990381056766
20
10.75
30
11.0
11
65.7488887394336
21
10.3882285676538
31
11.0
  0
LINE
 8
onewiredbox
10
62.8
20
10.0
30
11.0
11
62.8511112605664
21
10.3882285676538
31
11.0
  0
LINE
 8
onewiredbox
10
62.8511112605664
20
9.61177143234622
30
11.0
11
62.8
21
10.0
31
11.0
  0
LINE
 8
onewiredbox
10
63.0009618943233
20
9.25
30
11.0
11
62.8511112605664
21
9.61177143234622
31
11.0
  0
LINE
 8
onewiredbox
10
63.2393398282202
20
8.93933982822018
30
11.0
11
63.0009618943233
21
9.25
31
11.0
  0
LINE
 8
onewiredbox
10
63.55
20
8.70096189432334
30
11.0
11
63.2393398282202
21
8.93933982822018
31
11.0
  0
LINE
 8
onewiredbox
10
63.9117714323462
20
8.5511112605664
30
11.0
11
63.55
21
8.70096189432334
31
11.0
  0
LINE
 8
onewiredbox
10
64.3
20
8.5
30
11.0
11
63.9117714323462
21
8.5511112605664
31
11.0
  0
LINE
 8
onewiredbox
10
64.6882285676538
20
8.5511112605664
30
11.0
11
64.3
21
8.5
31
11.0
  0
LINE
 8
onewiredbox
10
65.05
20
8.70096189432335
30
11.0
11
64.6882285676538
21
8.5511112605664
31
11.0
  0
LINE
 8
onewiredbox
10
65.3606601717798
20
8.93933982822018
30
11.0
11
65.05
21
8.70096189432335
31
11.0
  0
LINE
 8
onewiredbox
10
65.5990381056766
20
9.25
30
11.0
11
65.3606601717798
21
8.93933982822018
31
11.0
  0
LINE
 8
onewiredbox
10
65.7488887394336
20
9.61177143234622
30
11.0
11
65.5990381056766
21
9.25
31
11.0
  0
LINE
 8
onewiredbox
10
65.8
20
10.0
30
11.0
11
65.7488887394336
21
9.61177143234622
31
11.0
  0
LINE
 8
onewiredbox
10
65.3606601717798
20
11.0606601717798
30
11.0
11
65.5990381056766
21
10.75
31
11.0
  0
LINE
 8
onewiredbox
10
65.05
20
11.2990381056767
30
11.0
11
65.3606601717798
21
11.0606601717798
31
11.0
  0
LINE
 8
onewiredbox
10
64.6882285676538
20
11.4488887394336
30
11.0
11
65.05
21
11.2990381056767
31
11.0
  0
LINE
 8
onewiredbox
10
64.3
20
11.5
30
11.0
11
64.6882285676538
21
11.4488887394336
31
11.0
  0
LINE
 8
onewiredbox
10
63.55
20
11.2990381056767
30
11.0
11
63.9117714323462
21
11.4488887394336
31
11.0
  0
LINE
 8
onewiredbox
10
63.2393398282202
20
11.0606601717798
30
11.0
11
63.55
21
11.2990381056767
31
11.0
  0
LINE
 8
onewiredbox
10
63.0009618943233
20
10.75
30
11.0
11
63.2393398282202
21
11.0606601717798
31
11.0
  0
LINE
 8
onewiredbox
10
62.8511112605664
20
10.3882285676538
30
11.0
11
63.0009618943233
21
10.75
31
11.0
  0
LINE
 8
onewiredbox
10
62.8511112605664
20
10.3882285676538
30
15.0
11
62.8511112605664
21
10.3882285676538
31
11.0
  0
LINE
 8
onewiredbox
10
62.8
20
10.0
30
15.0
11
62.8511112605664
21
10.3882285676538
31
15.0
  0
LINE
 8
onewiredbox
10
62.8
20
10.0
30
15.0
11
62.8
21
10.0
31
11.0
  0
LINE
 8
onewiredbox
10
64.2636468159605
20
49.3002064994737
30
0.0
11
63.436718022337
21
49.4186457154293
31
0.0
  0
LINE
 8
onewiredbox
10
64.2636468159605
20
49.3002064994737
30
0.0
11
64.2636468159605
21
49.3002064994737
31
15.0
  0
LINE
 8
onewiredbox
10
64.2636468159605
20
49.3002064994737
30
15.0
11
63.436718022337
21
49.4186457154293
31
15.0
  0
LINE
 8
onewiredbox
10
63.436718022337
20
49.4186457154293
30
0.0
11
63.436718022337
21
49.4186457154293
31
15.0
  0
LINE
 8
onewiredbox
10
62.8511112605664
20
9.61177143234622
30
15.0
11
62.8511112605664
21
9.61177143234622
31
11.0
  0
LINE
 8
onewiredbox
10
63.0009618943233
20
9.25
30
15.0
11
62.8511112605664
21
9.61177143234622
31
15.0
  0
LINE
 8
onewiredbox
10
63.0009618943233
20
9.25
30
15.0
11
63.0009618943233
21
9.25
31
11.0
  0
LINE
 8
onewiredbox
10
64.6882285676538
20
8.5511112605664
30
15.0
11
64.6882285676538
21
8.5511112605664
31
11.0
  0
LINE
 8
onewiredbox
10
65.05
20
8.70096189432335
30
15.0
11
64.6882285676538
21
8.5511112605664
31
15.0
  0
LINE
 8
onewiredbox
10
65.05
20
8.70096189432335
30
15.0
11
65.05
21
8.70096189432335
31
11.0
  0
LINE
 8
onewiredbox
10
64.6882285676538
20
11.4488887394336
30
15.0
11
64.6882285676538
21
11.4488887394336
31
11.0
  0
LINE
 8
onewiredbox
10
64.3
20
11.5
30
15.0
11
64.6882285676538
21
11.4488887394336
31
15.0
  0
LINE
 8
onewiredbox
10
67.0529258663003
20
50.8686204688502
30
0.0
11
66.5368900996667
21
50.2116987344292
31
0.0
  0
LINE
 8
onewiredbox
10
67.0529258663003
20
50.8686204688502
30
0.0
11
67.0529258663003
21
50.8686204688502
31
15.0
  0
LINE
 8
onewiredbox
10
67.0529258663003
20
50.8686204688502
30
15.0
11
66.5368900996667
21
50.2116987344292
31
15.0
  0
LINE
 8
onewiredbox
10
66.5368900996667
20
50.2116987344292
30
0.0
11
66.5368900996667
21
50.2116987344292
31
15.0
  0
LINE
 8
onewiredbox
10
100.805182804381
20
9.10695218043858
30
15.0
11
100.805182804381
21
9.10695218043858
31
11.0
  0
LINE
 8
onewiredbox
10
100.995254980041
20
9.44930630957845
30
15.0
11
100.805182804381
21
9.10695218043858
31
15.0
  0
LINE
 8
onewiredbox
10
100.995254980041
20
9.44930630957845
30
15.0
11
100.995254980041
21
9.44930630957845
31
11.0
  0
LINE
 8
onewiredbox
10
100.995254980041
20
9.44930630957845
30
11.0
11
100.805182804381
21
9.10695218043858
31
11.0
  0
LINE
 8
onewiredbox
10
100.150693690422
20
11.3952549800412
30
15.0
11
100.150693690422
21
11.3952549800412
31
11.0
  0
LINE
 8
onewiredbox
10
99.7708106963438
20
11.4902428345792
30
15.0
11
100.150693690422
21
11.3952549800412
31
15.0
  0
LINE
 8
onewiredbox
10
99.7708106963438
20
11.4902428345792
30
15.0
11
99.7708106963438
21
11.4902428345792
31
11.0
  0
LINE
 8
onewiredbox
10
99.7708106963438
20
11.4902428345792
30
11.0
11
100.150693690422
21
11.3952549800412
31
11.0
  0
LINE
 8
onewiredbox
10
100.774542215629
20
10.9329794122617
30
15.0
11
100.774542215629
21
10.9329794122617
31
11.0
  0
LINE
 8
onewiredbox
10
100.493047819561
20
11.2051828043814
30
15.0
11
100.774542215629
21
10.9329794122617
31
15.0
  0
LINE
 8
onewiredbox
10
100.493047819561
20
11.2051828043814
30
15.0
11
100.493047819561
21
11.2051828043814
31
11.0
  0
LINE
 8
onewiredbox
10
100.493047819561
20
11.2051828043814
30
11.0
11
100.774542215629
21
10.9329794122617
31
11.0
  0
LINE
 8
onewiredbox
10
65.8684139693765
20
49.7107209496602
30
0.0
11
65.0930530189999
21
49.3998279226702
31
0.0
  0
LINE
 8
onewiredbox
10
65.8684139693765
20
49.7107209496602
30
0.0
11
65.8684139693765
21
49.7107209496602
31
15.0
  0
LINE
 8
onewiredbox
10
65.8684139693765
20
49.7107209496602
30
15.0
11
65.0930530189999
21
49.3998279226702
31
15.0
  0
LINE
 8
onewiredbox
10
65.0930530189999
20
49.3998279226702
30
0.0
11
65.0930530189999
21
49.3998279226702
31
15.0
  0
LINE
 8
onewiredbox
10
63.5069469810001
20
55.6001720773298
30
0.0
11
64.3363531840395
21
55.6997935005263
31
0.0
  0
LINE
 8
onewiredbox
10
63.5069469810001
20
55.6001720773298
30
0.0
11
63.5069469810001
21
55.6001720773298
31
15.0
  0
LINE
 8
onewiredbox
10
63.5069469810001
20
55.6001720773298
30
15.0
11
64.3363531840395
21
55.6997935005263
31
15.0
  0
LINE
 8
onewiredbox
10
64.3363531840395
20
55.6997935005263
30
0.0
11
64.3363531840395
21
55.6997935005263
31
15.0
  0
LINE
 8
onewiredbox
10
65.0930530189999
20
49.3998279226702
30
0.0
11
64.2636468159605
21
49.3002064994737
31
0.0
  0
LINE
 8
onewiredbox
10
65.0930530189999
20
49.3998279226702
30
15.0
11
64.2636468159605
21
49.3002064994737
31
15.0
  0
LINE
 8
onewiredbox
10
65.5990381056766
20
9.25
30
15.0
11
65.5990381056766
21
9.25
31
11.0
  0
LINE
 8
onewiredbox
10
65.7488887394336
20
9.61177143234622
30
15.0
11
65.5990381056766
21
9.25
31
15.0
  0
LINE
 8
onewiredbox
10
65.7488887394336
20
9.61177143234622
30
15.0
11
65.7488887394336
21
9.61177143234622
31
11.0
  0
LINE
 8
onewiredbox
10
67.4001720773298
20
53.2930530189999
30
0.0
11
67.4997935005263
21
52.4636468159605
31
0.0
  0
LINE
 8
onewiredbox
10
67.4001720773298
20
53.2930530189999
30
0.0
11
67.4001720773298
21
53.2930530189999
31
15.0
  0
LINE
 8
onewiredbox
10
67.4001720773298
20
53.2930530189999
30
15.0
11
67.4997935005263
21
52.4636468159605
31
15.0
  0
LINE
 8
onewiredbox
10
67.4997935005263
20
52.4636468159605
30
0.0
11
67.4997935005263
21
52.4636468159605
31
15.0
  0
LINE
 8
onewiredbox
10
100.150693690422
20
11.3952549800412
30
15.0
11
100.493047819561
21
11.2051828043814
31
15.0
  0
LINE
 8
onewiredbox
10
100.150693690422
20
11.3952549800412
30
11.0
11
100.493047819561
21
11.2051828043814
31
11.0
  0
LINE
 8
onewiredbox
10
101.090242834579
20
9.8291893036562
30
15.0
11
101.090242834579
21
9.8291893036562
31
11.0
  0
LINE
 8
onewiredbox
10
101.090242834579
20
9.8291893036562
30
15.0
11
101.083673102683
21
10.2207127644118
31
15.0
  0
LINE
 8
onewiredbox
10
101.083673102683
20
10.2207127644118
30
15.0
11
101.083673102683
21
10.2207127644118
31
11.0
  0
LINE
 8
onewiredbox
10
101.083673102683
20
10.2207127644118
30
11.0
11
101.090242834579
21
9.8291893036562
31
11.0
  0
LINE
 8
onewiredbox
10
101.090242834579
20
9.8291893036562
30
15.0
11
100.995254980041
21
9.44930630957845
31
15.0
  0
LINE
 8
onewiredbox
10
101.090242834579
20
9.8291893036562
30
11.0
11
100.995254980041
21
9.44930630957845
31
11.0
  0
LINE
 8
onewiredbox
10
65.9313795311498
20
55.2529258663003
30
0.0
11
66.5883012655708
21
54.7368900996667
31
0.0
  0
LINE
 8
onewiredbox
10
65.9313795311498
20
55.2529258663003
30
0.0
11
65.9313795311498
21
55.2529258663003
31
15.0
  0
LINE
 8
onewiredbox
10
65.9313795311498
20
55.2529258663003
30
15.0
11
66.1488738118814
21
55.0820762475179
31
15.0
  0
LINE
 8
onewiredbox
10
66.1488738118814
20
55.0820762475179
30
15.0
11
66.5883012655708
21
54.7368900996667
31
15.0
  0
LINE
 8
onewiredbox
10
66.5883012655708
20
54.7368900996667
30
0.0
11
66.5883012655708
21
54.7368900996667
31
15.0
  0
LINE
 8
onewiredbox
10
98.1163268973168
20
9.77928723558824
30
15.0
11
98.1163268973168
21
9.77928723558824
31
11.0
  0
LINE
 8
onewiredbox
10
98.2240064992748
20
9.40280498498226
30
15.0
11
98.1163268973168
21
9.77928723558824
31
15.0
  0
LINE
 8
onewiredbox
10
98.2240064992748
20
9.40280498498226
30
15.0
11
98.2240064992748
21
9.40280498498226
31
11.0
  0
LINE
 8
onewiredbox
10
98.2240064992748
20
9.40280498498226
30
11.0
11
98.1163268973168
21
9.77928723558824
31
11.0
  0
LINE
 8
onewiredbox
10
63.2393398282202
20
8.93933982822018
30
15.0
11
63.2393398282202
21
8.93933982822018
31
11.0
  0
LINE
 8
onewiredbox
10
63.55
20
8.70096189432334
30
15.0
11
63.2393398282202
21
8.93933982822018
31
15.0
  0
LINE
 8
onewiredbox
10
63.55
20
8.70096189432334
30
15.0
11
63.55
21
8.70096189432334
31
11.0
  0
LINE
 8
onewiredbox
10
62.6686204688502
20
49.7470741336997
30
0.0
11
62.0116987344292
21
50.2631099003333
31
0.0
  0
LINE
 8
onewiredbox
10
62.6686204688502
20
49.7470741336997
30
0.0
11
62.6686204688502
21
49.7470741336997
31
15.0
  0
LINE
 8
onewiredbox
10
62.6686204688502
20
49.7470741336997
30
15.0
11
62.0116987344292
21
50.2631099003333
31
15.0
  0
LINE
 8
onewiredbox
10
62.0116987344292
20
50.2631099003333
30
0.0
11
62.0116987344292
21
50.2631099003333
31
15.0
  0
LINE
 8
onewiredbox
10
62.0631099003333
20
54.7883012655708
30
0.0
11
62.7315860306235
21
55.2892790503398
31
0.0
  0
LINE
 8
onewiredbox
10
62.0631099003333
20
54.7883012655708
30
0.0
11
62.0631099003333
21
54.7883012655708
31
15.0
  0
LINE
 8
onewiredbox
10
62.0631099003333
20
54.7883012655708
30
15.0
11
62.4551064500377
21
55.0820762475179
31
15.0
  0
LINE
 8
onewiredbox
10
62.4551064500377
20
55.0820762475179
30
15.0
11
62.7315860306235
21
55.2892790503398
31
15.0
  0
LINE
 8
onewiredbox
10
62.7315860306235
20
55.2892790503398
30
0.0
11
62.7315860306235
21
55.2892790503398
31
15.0
  0
LINE
 8
onewiredbox
10
61.5107209496602
20
50.9315860306235
30
0.0
11
61.1998279226702
21
51.7069469810001
31
0.0
  0
LINE
 8
onewiredbox
10
61.5107209496602
20
50.9315860306235
30
0.0
11
61.5107209496602
21
50.9315860306235
31
15.0
  0
LINE
 8
onewiredbox
10
61.5107209496602
20
50.9315860306235
30
15.0
11
61.1998279226702
21
51.7069469810001
31
15.0
  0
LINE
 8
onewiredbox
10
61.1998279226702
20
51.7069469810001
30
0.0
11
61.1998279226702
21
51.7069469810001
31
15.0
  0
LINE
 8
onewiredbox
10
100.197195015018
20
8.62400649927481
30
15.0
11
100.197195015018
21
8.62400649927481
31
11.0
  0
LINE
 8
onewiredbox
10
100.532979412262
20
8.82545778437052
30
15.0
11
100.197195015018
21
8.62400649927481
31
15.0
  0
LINE
 8
onewiredbox
10
100.532979412262
20
8.82545778437052
30
15.0
11
100.532979412262
21
8.82545778437052
31
11.0
  0
LINE
 8
onewiredbox
10
100.532979412262
20
8.82545778437052
30
11.0
11
100.197195015018
21
8.62400649927481
31
11.0
  0
LINE
 8
onewiredbox
10
67.0892790503398
20
54.0684139693765
30
0.0
11
67.4001720773298
21
53.2930530189999
31
0.0
  0
LINE
 8
onewiredbox
10
67.0892790503398
20
54.0684139693765
30
0.0
11
67.0892790503398
21
54.0684139693765
31
15.0
  0
LINE
 8
onewiredbox
10
67.0892790503398
20
54.0684139693765
30
15.0
11
67.4001720773298
21
53.2930530189999
31
15.0
  0
LINE
 8
onewiredbox
10
61.5951556312725
20
11.7099172321967
30
0.0
11
62.1298801133951
21
12.3517184520605
31
0.0
  0
LINE
 8
onewiredbox
10
61.5951556312725
20
11.7099172321967
30
15.0
11
62.1298801133951
21
12.3517184520605
31
15.0
  0
LINE
 8
onewiredbox
10
62.1298801133951
20
12.3517184520605
30
0.0
11
62.1298801133951
21
12.3517184520605
31
15.0
  0
LINE
 8
onewiredbox
10
99.6
20
51.0
30
15.0
11
99.6
21
51.0
31
11.0
  0
LINE
 8
onewiredbox
10
99.9882285676538
20
51.0511112605664
30
15.0
11
99.6
21
51.0
31
15.0
  0
LINE
 8
onewiredbox
10
99.9882285676538
20
51.0511112605664
30
15.0
11
99.9882285676538
21
51.0511112605664
31
11.0
  0
LINE
 8
onewiredbox
10
99.9882285676538
20
51.0511112605664
30
11.0
11
99.6
21
51.0
31
11.0
  0
LINE
 8
onewiredbox
10
100.35
20
53.7990381056767
30
15.0
11
100.35
21
53.7990381056767
31
11.0
  0
LINE
 8
onewiredbox
10
99.9882285676538
20
53.9488887394336
30
15.0
11
100.35
21
53.7990381056767
31
15.0
  0
LINE
 8
onewiredbox
10
99.9882285676538
20
53.9488887394336
30
15.0
11
99.9882285676538
21
53.9488887394336
31
11.0
  0
LINE
 8
onewiredbox
10
99.9882285676538
20
53.9488887394336
30
11.0
11
100.35
21
53.7990381056767
31
11.0
  0
LINE
 8
onewiredbox
10
107.0
20
59.0
30
-2.0
11
3.0
21
59.0
31
-2.0
  0
LINE
 8
onewiredbox
10
3.0
20
59.0
30
-2.0
11
3.0
21
3.0
31
-2.0
  0
LINE
 8
onewiredbox
10
3.0
20
3.0
30
-2.0
11
107.0
21
3.0
31
-2.0
  0
LINE
 8
onewiredbox
10
107.0
20
3.0
30
-2.0
11
107.0
21
59.0
31
-2.0
  0
LINE
 8
onewiredbox
10
98.0
20
49.7287187078898
30
0.0
11
97.337258300203
21
50.2372583002031
31
0.0
  0
LINE
 8
onewiredbox
10
98.0
20
49.7287187078898
30
0.0
11
98.0
21
49.7287187078898
31
15.0
  0
LINE
 8
onewiredbox
10
98.0
20
49.7287187078898
30
15.0
11
97.337258300203
21
50.2372583002031
31
15.0
  0
LINE
 8
onewiredbox
10
97.337258300203
20
50.2372583002031
30
0.0
11
97.337258300203
21
50.2372583002031
31
15.0
  0
LINE
 8
onewiredbox
10
66.5368900996667
20
50.2116987344292
30
15.0
11
65.8684139693765
21
49.7107209496602
31
15.0
  0
LINE
 8
onewiredbox
10
98.0
20
7.2287187078898
30
15.0
11
97.337258300203
21
7.73725830020305
31
15.0
  0
LINE
 8
onewiredbox
10
3.0
20
14.5555016310962
30
15.8832341400028
11
3.0
21
14.5555016310962
31
2.68323414000281
  0
LINE
 8
onewiredbox
10
3.0
20
14.5555016310962
30
15.8832341400028
11
5.0
21
14.5555016310962
31
15.8832341400028
  0
LINE
 8
onewiredbox
10
66.5368900996667
20
50.2116987344292
30
0.0
11
65.8684139693765
21
49.7107209496602
31
0.0
  0
LINE
 8
onewiredbox
10
107.0
20
59.0
30
42.2999999999999
11
3.0
21
59.0
31
42.3
  0
LINE
 8
onewiredbox
10
107.0
20
59.0
30
42.2999999999999
11
107.0
21
59.0
31
-2.0
  0
LINE
 8
onewiredbox
10
3.0
20
59.0
30
42.3
11
3.0
21
59.0
31
-2.0
  0
LINE
 8
onewiredbox
10
3.00000000000001
20
47.2387907175538
30
16.148669051328
11
3.00000000000001
21
37.2387907175538
31
16.148669051328
  0
LINE
 8
onewiredbox
10
3.00000000000001
20
47.2387907175538
30
16.148669051328
11
5.00000000000001
21
47.2387907175538
31
16.148669051328
  0
LINE
 8
onewiredbox
10
5.00000000000001
20
47.2387907175538
30
16.148669051328
11
5.00000000000001
21
37.2387907175538
31
16.148669051328
  0
LINE
 8
onewiredbox
10
3.00000000000001
20
37.2387907175538
30
16.148669051328
11
5.00000000000001
21
37.2387907175538
31
16.148669051328
  0
LINE
 8
onewiredbox
10
98.0
20
7.2287187078898
30
0.0
11
97.337258300203
21
7.73725830020305
31
0.0
  0
LINE
 8
onewiredbox
10
98.0
20
7.2287187078898
30
0.0
11
98.0
21
7.2287187078898
31
15.0
  0
LINE
 8
onewiredbox
10
97.337258300203
20
7.73725830020305
30
0.0
11
97.337258300203
21
7.73725830020305
31
15.0
  0
LINE
 8
onewiredbox
10
5.0
20
14.5555016310962
30
15.8832341400028
11
5.0
21
14.5555016310962
31
2.68323414000281
  0
LINE
 8
onewiredbox
10
3.0
20
14.5555016310962
30
2.68323414000281
11
5.0
21
14.5555016310962
31
2.68323414000281
  0
LINE
 8
onewiredbox
10
97.337258300203
20
12.262741699797
30
0.0
11
98.0
21
12.7712812921102
31
0.0
  0
LINE
 8
onewiredbox
10
97.337258300203
20
12.262741699797
30
0.0
11
97.337258300203
21
12.262741699797
31
15.0
  0
LINE
 8
onewiredbox
10
97.337258300203
20
12.262741699797
30
15.0
11
98.0
21
12.7712812921102
31
15.0
  0
LINE
 8
onewiredbox
10
98.0
20
12.7712812921102
30
0.0
11
98.0
21
12.7712812921102
31
15.0
  0
LINE
 8
onewiredbox
10
5.0
20
57.0
30
0.0
11
105.0
21
57.0
31
0.0
  0
LINE
 8
onewiredbox
10
105.0
20
57.0
30
0.0
11
105.0
21
57.0
31
42.2999999999999
  0
LINE
 8
onewiredbox
10
5.0
20
57.0
30
42.2999999999999
11
105.0
21
57.0
31
42.2999999999999
  0
LINE
 8
onewiredbox
10
5.0
20
57.0
30
0.0
11
5.0
21
57.0
31
42.2999999999999
  0
LINE
 8
onewiredbox
10
67.3813542845707
20
51.636718022337
30
0.0
11
67.0529258663003
21
50.8686204688502
31
0.0
  0
LINE
 8
onewiredbox
10
67.3813542845707
20
51.636718022337
30
0.0
11
67.3813542845707
21
51.636718022337
31
15.0
  0
LINE
 8
onewiredbox
10
67.3813542845707
20
51.636718022337
30
15.0
11
67.0529258663003
21
50.8686204688502
31
15.0
  0
LINE
 8
onewiredbox
10
3.00000000000001
20
37.2387907175538
30
10.948669051328
11
3.00000000000001
21
47.2387907175538
31
10.948669051328
  0
LINE
 8
onewiredbox
10
3.00000000000001
20
37.2387907175538
30
10.948669051328
11
5.00000000000001
21
37.2387907175538
31
10.948669051328
  0
LINE
 8
onewiredbox
10
5.00000000000001
20
37.2387907175538
30
10.948669051328
11
5.00000000000001
21
47.2387907175538
31
10.948669051328
  0
LINE
 8
onewiredbox
10
3.00000000000001
20
47.2387907175538
30
10.948669051328
11
5.00000000000001
21
47.2387907175538
31
10.948669051328
  0
LINE
 8
onewiredbox
10
3.0
20
32.1555016310962
30
15.8832341400028
11
3.0
21
14.5555016310962
31
15.8832341400028
  0
LINE
 8
onewiredbox
10
3.0
20
32.1555016310962
30
15.8832341400028
11
5.0
21
32.1555016310962
31
15.8832341400028
  0
LINE
 8
onewiredbox
10
5.0
20
32.1555016310962
30
15.8832341400028
11
5.0
21
14.5555016310962
31
15.8832341400028
  0
LINE
 8
onewiredbox
10
100.35
20
51.2009618943234
30
15.0
11
100.35
21
51.2009618943234
31
11.0
  0
LINE
 8
onewiredbox
10
100.66066017178
20
51.4393398282202
30
15.0
11
100.35
21
51.2009618943234
31
15.0
  0
LINE
 8
onewiredbox
10
100.66066017178
20
51.4393398282202
30
15.0
11
100.66066017178
21
51.4393398282202
31
11.0
  0
LINE
 8
onewiredbox
10
100.66066017178
20
51.4393398282202
30
11.0
11
100.35
21
51.2009618943234
31
11.0
  0
LINE
 8
onewiredbox
10
97.337258300203
20
7.73725830020305
30
0.0
11
96.8287187078898
21
8.4
31
0.0
  0
LINE
 8
onewiredbox
10
97.337258300203
20
7.73725830020305
30
15.0
11
96.8287187078898
21
8.4
31
15.0
  0
LINE
 8
onewiredbox
10
96.8287187078898
20
8.4
30
0.0
11
96.8287187078898
21
8.4
31
15.0
  0
LINE
 8
onewiredbox
10
63.436718022337
20
49.4186457154293
30
0.0
11
62.6686204688502
21
49.7470741336997
31
0.0
  0
LINE
 8
onewiredbox
10
63.436718022337
20
49.4186457154293
30
15.0
11
62.6686204688502
21
49.7470741336997
31
15.0
  0
LINE
 8
onewiredbox
10
64.3363531840395
20
55.6997935005263
30
0.0
11
65.163281977663
21
55.5813542845707
31
0.0
  0
LINE
 8
onewiredbox
10
64.3363531840395
20
55.6997935005263
30
15.0
11
65.163281977663
21
55.5813542845707
31
15.0
  0
LINE
 8
onewiredbox
10
65.163281977663
20
55.5813542845707
30
0.0
11
65.163281977663
21
55.5813542845707
31
15.0
  0
LINE
 8
onewiredbox
10
100.66066017178
20
53.5606601717798
30
15.0
11
100.66066017178
21
53.5606601717798
31
11.0
  0
LINE
 8
onewiredbox
10
100.35
20
53.7990381056767
30
15.0
11
100.66066017178
21
53.5606601717798
31
15.0
  0
LINE
 8
onewiredbox
10
100.35
20
53.7990381056767
30
11.0
11
100.66066017178
21
53.5606601717798
31
11.0
  0
LINE
 8
onewiredbox
10
5.0
20
5.0
30
42.3
11
105.0
21
5.0
31
42.2999999999999
  0
LINE
 8
onewiredbox
10
105.0
20
5.0
30
0.0
11
105.0
21
5.0
31
42.2999999999999
  0
LINE
 8
onewiredbox
10
5.0
20
5.0
30
3.87745391350336e-015
11
105.0
21
5.0
31
0.0
  0
LINE
 8
onewiredbox
10
5.0
20
5.0
30
3.87745391350336e-015
11
5.0
21
5.0
31
42.3
  0
LINE
 8
onewiredbox
10
62.0116987344292
20
50.2631099003333
30
0.0
11
61.5107209496602
21
50.9315860306235
31
0.0
  0
LINE
 8
onewiredbox
10
62.0116987344292
20
50.2631099003333
30
15.0
11
61.5107209496602
21
50.9315860306235
31
15.0
  0
LINE
 8
onewiredbox
10
105.0
20
5.0
30
0.0
11
105.0
21
57.0
31
0.0
  0
LINE
 8
onewiredbox
10
5.0
20
5.0
30
3.87745391350336e-015
11
5.0
21
57.0
31
0.0
  0
LINE
 8
onewiredbox
10
98.7717790556719
20
6.90903735587498
30
0.0
11
98.0
21
7.2287187078898
31
0.0
  0
LINE
 8
onewiredbox
10
96.8287187078898
20
8.4
30
0.0
11
96.509037355875
21
9.17177905567193
31
0.0
  0
LINE
 8
onewiredbox
10
96.509037355875
20
9.17177905567193
30
0.0
11
96.4
21
10.0
31
0.0
  0
LINE
 8
onewiredbox
10
96.4
20
10.0
30
0.0
11
96.509037355875
21
10.8282209443281
31
0.0
  0
LINE
 8
onewiredbox
10
96.509037355875
20
10.8282209443281
30
0.0
11
96.8287187078898
21
11.6
31
0.0
  0
LINE
 8
onewiredbox
10
96.8287187078898
20
11.6
30
0.0
11
97.337258300203
21
12.262741699797
31
0.0
  0
LINE
 8
onewiredbox
10
98.0
20
12.7712812921102
30
0.0
11
98.7717790556719
21
13.090962644125
31
0.0
  0
LINE
 8
onewiredbox
10
98.7717790556719
20
13.090962644125
30
0.0
11
99.6
21
13.2
31
0.0
  0
LINE
 8
onewiredbox
10
99.6
20
13.2
30
0.0
11
100.428220944328
21
13.090962644125
31
0.0
  0
LINE
 8
onewiredbox
10
100.428220944328
20
13.090962644125
30
0.0
11
101.2
21
12.7712812921102
31
0.0
  0
LINE
 8
onewiredbox
10
101.2
20
12.7712812921102
30
0.0
11
101.862741699797
21
12.262741699797
31
0.0
  0
LINE
 8
onewiredbox
10
101.862741699797
20
12.262741699797
30
0.0
11
102.37128129211
21
11.6
31
0.0
  0
LINE
 8
onewiredbox
10
102.37128129211
20
11.6
30
0.0
11
102.690962644125
21
10.8282209443281
31
0.0
  0
LINE
 8
onewiredbox
10
102.690962644125
20
10.8282209443281
30
0.0
11
102.8
21
10.0
31
0.0
  0
LINE
 8
onewiredbox
10
102.8
20
10.0
30
0.0
11
102.690962644125
21
9.17177905567194
31
0.0
  0
LINE
 8
onewiredbox
10
102.690962644125
20
9.17177905567194
30
0.0
11
102.37128129211
21
8.4
31
0.0
  0
LINE
 8
onewiredbox
10
102.37128129211
20
8.4
30
0.0
11
101.862741699797
21
7.73725830020305
31
0.0
  0
LINE
 8
onewiredbox
10
101.862741699797
20
7.73725830020305
30
0.0
11
101.2
21
7.2287187078898
31
0.0
  0
LINE
 8
onewiredbox
10
101.2
20
7.2287187078898
30
0.0
11
100.428220944328
21
6.90903735587498
31
0.0
  0
LINE
 8
onewiredbox
10
100.428220944328
20
6.90903735587498
30
0.0
11
99.6
21
6.8
31
0.0
  0
LINE
 8
onewiredbox
10
99.6
20
6.8
30
0.0
11
98.7717790556719
21
6.90903735587498
31
0.0
  0
LINE
 8
onewiredbox
10
102.8
20
52.5
30
0.0
11
102.690962644125
21
51.6717790556719
31
0.0
  0
LINE
 8
onewiredbox
10
102.690962644125
20
51.6717790556719
30
0.0
11
102.37128129211
21
50.9
31
0.0
  0
LINE
 8
onewiredbox
10
102.37128129211
20
50.9
30
0.0
11
101.862741699797
21
50.2372583002031
31
0.0
  0
LINE
 8
onewiredbox
10
101.862741699797
20
50.2372583002031
30
0.0
11
101.2
21
49.7287187078898
31
0.0
  0
LINE
 8
onewiredbox
10
101.2
20
49.7287187078898
30
0.0
11
100.428220944328
21
49.409037355875
31
0.0
  0
LINE
 8
onewiredbox
10
100.428220944328
20
49.409037355875
30
0.0
11
99.6
21
49.3
31
0.0
  0
LINE
 8
onewiredbox
10
99.6
20
49.3
30
0.0
11
98.7717790556719
21
49.409037355875
31
0.0
  0
LINE
 8
onewiredbox
10
98.7717790556719
20
49.409037355875
30
0.0
11
98.0
21
49.7287187078898
31
0.0
  0
LINE
 8
onewiredbox
10
97.337258300203
20
50.2372583002031
30
0.0
11
96.8287187078898
21
50.9
31
0.0
  0
LINE
 8
onewiredbox
10
96.8287187078898
20
50.9
30
0.0
11
96.509037355875
21
51.6717790556719
31
0.0
  0
LINE
 8
onewiredbox
10
96.509037355875
20
51.6717790556719
30
0.0
11
96.4
21
52.5
31
0.0
  0
LINE
 8
onewiredbox
10
96.4
20
52.5
30
0.0
11
96.509037355875
21
53.3282209443281
31
0.0
  0
LINE
 8
onewiredbox
10
96.509037355875
20
53.3282209443281
30
0.0
11
96.8287187078898
21
54.1
31
0.0
  0
LINE
 8
onewiredbox
10
96.8287187078898
20
54.1
30
0.0
11
97.337258300203
21
54.762741699797
31
0.0
  0
LINE
 8
onewiredbox
10
97.337258300203
20
54.762741699797
30
0.0
11
98.0
21
55.2712812921102
31
0.0
  0
LINE
 8
onewiredbox
10
98.0
20
55.2712812921102
30
0.0
11
98.7717790556719
21
55.590962644125
31
0.0
  0
LINE
 8
onewiredbox
10
98.7717790556719
20
55.590962644125
30
0.0
11
99.6
21
55.7
31
0.0
  0
LINE
 8
onewiredbox
10
99.6
20
55.7
30
0.0
11
100.428220944328
21
55.590962644125
31
0.0
  0
LINE
 8
onewiredbox
10
100.428220944328
20
55.590962644125
30
0.0
11
101.2
21
55.2712812921102
31
0.0
  0
LINE
 8
onewiredbox
10
101.2
20
55.2712812921102
30
0.0
11
101.862741699797
21
54.762741699797
31
0.0
  0
LINE
 8
onewiredbox
10
101.862741699797
20
54.762741699797
30
0.0
11
102.37128129211
21
54.1
31
0.0
  0
LINE
 8
onewiredbox
10
102.37128129211
20
54.1
30
0.0
11
102.690962644125
21
53.3282209443281
31
0.0
  0
LINE
 8
onewiredbox
10
102.690962644125
20
53.3282209443281
30
0.0
11
102.8
21
52.5
31
0.0
  0
LINE
 8
onewiredbox
10
65.2515879787305
20
13.0552381770879
30
0.0
11
66.0099172321967
21
12.7048443687275
31
0.0
  0
LINE
 8
onewiredbox
10
66.0099172321967
20
12.7048443687275
30
0.0
11
66.6517184520605
21
12.1701198866049
31
0.0
  0
LINE
 8
onewiredbox
10
66.6517184520605
20
12.1701198866049
30
0.0
11
67.1332539458148
21
11.4875053205029
31
0.0
  0
LINE
 8
onewiredbox
10
67.1332539458148
20
11.4875053205029
30
0.0
11
67.4217078653355
21
10.7035197250274
31
0.0
  0
LINE
 8
onewiredbox
10
67.4217078653355
20
10.7035197250274
30
0.0
11
67.4974225526996
21
9.87159042291263
31
0.0
  0
LINE
 8
onewiredbox
10
67.4974225526996
20
9.87159042291263
30
0.0
11
67.3552381770879
21
9.04841202126947
31
0.0
  0
LINE
 8
onewiredbox
10
67.3552381770879
20
9.04841202126947
30
0.0
11
67.0048443687275
21
8.2900827678033
31
0.0
  0
LINE
 8
onewiredbox
10
66.4701198866049
20
7.64828154793951
30
0.0
11
65.7875053205029
21
7.16674605418514
31
0.0
  0
LINE
 8
onewiredbox
10
65.7875053205029
20
7.16674605418514
30
0.0
11
65.0035197250274
21
6.87829213466453
31
0.0
  0
LINE
 8
onewiredbox
10
65.0035197250274
20
6.87829213466453
30
0.0
11
64.1715904229126
21
6.80257744730036
31
0.0
  0
LINE
 8
onewiredbox
10
64.1715904229126
20
6.80257744730036
30
0.0
11
63.3484120212695
21
6.94476182291207
31
0.0
  0
LINE
 8
onewiredbox
10
63.3484120212695
20
6.94476182291207
30
0.0
11
62.5900827678033
21
7.29515563127251
31
0.0
  0
LINE
 8
onewiredbox
10
62.5900827678033
20
7.29515563127251
30
0.0
11
61.9482815479395
21
7.82988011339506
31
0.0
  0
LINE
 8
onewiredbox
10
61.9482815479395
20
7.82988011339506
30
0.0
11
61.4667460541851
21
8.51249467949705
31
0.0
  0
LINE
 8
onewiredbox
10
61.4667460541851
20
8.51249467949705
30
0.0
11
61.1782921346645
21
9.29648027497256
31
0.0
  0
LINE
 8
onewiredbox
10
61.1782921346645
20
9.29648027497256
30
0.0
11
61.1025774473004
21
10.1284095770874
31
0.0
  0
LINE
 8
onewiredbox
10
61.1025774473004
20
10.1284095770874
30
0.0
11
61.2447618229121
21
10.9515879787305
31
0.0
  0
LINE
 8
onewiredbox
10
62.1298801133951
20
12.3517184520605
30
0.0
11
62.8124946794971
21
12.8332539458149
31
0.0
  0
LINE
 8
onewiredbox
10
62.8124946794971
20
12.8332539458149
30
0.0
11
63.5964802749726
21
13.1217078653355
31
0.0
  0
LINE
 8
onewiredbox
10
63.5964802749726
20
13.1217078653355
30
0.0
11
64.4284095770874
21
13.1974225526996
31
0.0
  0
LINE
 8
onewiredbox
10
64.4284095770874
20
13.1974225526996
30
0.0
11
65.2515879787305
21
13.0552381770879
31
0.0
  0
LINE
 8
onewiredbox
10
8.29723883968668
20
12.7093549842958
30
0.0
11
9.05649168913062
21
13.0577429694663
31
0.0
  0
LINE
 8
onewiredbox
10
9.05649168913062
20
13.0577429694663
30
0.0
11
9.88004307073909
21
13.1977508244268
31
0.0
  0
LINE
 8
onewiredbox
10
9.88004307073909
20
13.1977508244268
30
0.0
11
10.7117693188385
21
13.1198372452357
31
0.0
  0
LINE
 8
onewiredbox
10
10.7117693188385
20
13.1198372452357
30
0.0
11
11.4949896641135
21
12.8293119135567
31
0.0
  0
LINE
 8
onewiredbox
10
11.4949896641135
20
12.8293119135567
30
0.0
11
12.1763289343664
21
12.3459736506278
31
0.0
  0
LINE
 8
onewiredbox
10
12.1763289343664
20
12.3459736506278
30
0.0
11
12.7093549842958
21
11.7027611603133
31
0.0
  0
LINE
 8
onewiredbox
10
12.7093549842958
20
11.7027611603133
30
0.0
11
13.0577429694663
21
10.9435083108694
31
0.0
  0
LINE
 8
onewiredbox
10
13.0577429694663
20
10.9435083108694
30
0.0
11
13.1977508244268
21
10.1199569292609
31
0.0
  0
LINE
 8
onewiredbox
10
13.1977508244268
20
10.1199569292609
30
0.0
11
13.1198372452357
21
9.28823068116149
31
0.0
  0
LINE
 8
onewiredbox
10
13.1198372452357
20
9.28823068116149
30
0.0
11
12.8293119135567
21
8.50501033588652
31
0.0
  0
LINE
 8
onewiredbox
10
12.8293119135567
20
8.50501033588652
30
0.0
11
12.3459736506278
21
7.82367106563364
31
0.0
  0
LINE
 8
onewiredbox
10
12.3459736506278
20
7.82367106563364
30
0.0
11
11.7027611603133
21
7.29064501570421
31
0.0
  0
LINE
 8
onewiredbox
10
11.7027611603133
20
7.29064501570421
30
0.0
11
10.9435083108694
21
6.94225703053373
31
0.0
  0
LINE
 8
onewiredbox
10
10.9435083108694
20
6.94225703053373
30
0.0
11
10.1199569292609
21
6.8022491755732
31
0.0
  0
LINE
 8
onewiredbox
10
10.1199569292609
20
6.8022491755732
30
0.0
11
9.2882306811615
21
6.88016275476425
31
0.0
  0
LINE
 8
onewiredbox
10
9.2882306811615
20
6.88016275476425
30
0.0
11
8.50501033588652
21
7.1706880864433
31
0.0
  0
LINE
 8
onewiredbox
10
8.50501033588652
20
7.1706880864433
30
0.0
11
7.82367106563364
21
7.65402634937223
31
0.0
  0
LINE
 8
onewiredbox
10
7.82367106563364
20
7.65402634937223
30
0.0
11
7.29064501570421
21
8.29723883968668
31
0.0
  0
LINE
 8
onewiredbox
10
7.29064501570421
20
8.29723883968668
30
0.0
11
6.94225703053373
21
9.05649168913061
31
0.0
  0
LINE
 8
onewiredbox
10
6.94225703053373
20
9.05649168913061
30
0.0
11
6.8022491755732
21
9.88004307073909
31
0.0
  0
LINE
 8
onewiredbox
10
6.8022491755732
20
9.88004307073909
30
0.0
11
6.88016275476425
21
10.7117693188385
31
0.0
  0
LINE
 8
onewiredbox
10
6.88016275476425
20
10.7117693188385
30
0.0
11
7.1706880864433
21
11.4949896641135
31
0.0
  0
LINE
 8
onewiredbox
10
7.1706880864433
20
11.4949896641135
30
0.0
11
7.65402634937223
21
12.1763289343664
31
0.0
  0
LINE
 8
onewiredbox
10
7.65402634937223
20
12.1763289343664
30
0.0
11
8.29723883968668
21
12.7093549842958
31
0.0
  0
LINE
 8
onewiredbox
10
61.1998279226702
20
51.7069469810001
30
0.0
11
61.1002064994737
21
52.5363531840395
31
0.0
  0
LINE
 8
onewiredbox
10
61.1002064994737
20
52.5363531840395
30
0.0
11
61.2186457154293
21
53.3632819776631
31
0.0
  0
LINE
 8
onewiredbox
10
61.2186457154293
20
53.3632819776631
30
0.0
11
61.5470741336997
21
54.1313795311498
31
0.0
  0
LINE
 8
onewiredbox
10
61.5470741336997
20
54.1313795311498
30
0.0
11
62.0631099003333
21
54.7883012655708
31
0.0
  0
LINE
 8
onewiredbox
10
62.7315860306235
20
55.2892790503398
30
0.0
11
63.5069469810001
21
55.6001720773298
31
0.0
  0
LINE
 8
onewiredbox
10
65.163281977663
20
55.5813542845707
30
0.0
11
65.9313795311498
21
55.2529258663003
31
0.0
  0
LINE
 8
onewiredbox
10
66.5883012655708
20
54.7368900996667
30
0.0
11
67.0892790503398
21
54.0684139693765
31
0.0
  0
LINE
 8
onewiredbox
10
67.4997935005263
20
52.4636468159605
30
0.0
11
67.3813542845707
21
51.636718022337
31
0.0
  0
LINE
 8
onewiredbox
10
12.0144121677654
20
50.0136083135679
30
0.0
11
11.3022472156024
21
49.5769618221009
31
0.0
  0
LINE
 8
onewiredbox
10
11.3022472156024
20
49.5769618221009
30
0.0
11
10.5013362677613
21
49.3395155519087
31
0.0
  0
LINE
 8
onewiredbox
10
10.5013362677613
20
49.3395155519087
30
0.0
11
9.66626008176965
21
49.3174510739064
31
0.0
  0
LINE
 8
onewiredbox
10
9.66626008176965
20
49.3174510739064
30
0.0
11
8.8539277196741
21
49.5122720458066
31
0.0
  0
LINE
 8
onewiredbox
10
8.8539277196741
20
49.5122720458066
30
0.0
11
8.11969828950877
21
49.9107017403312
31
0.0
  0
LINE
 8
onewiredbox
10
8.11969828950877
20
49.9107017403312
30
0.0
11
7.51360831356792
21
50.4855878322346
31
0.0
  0
LINE
 8
onewiredbox
10
7.51360831356792
20
50.4855878322346
30
0.0
11
7.07696182210087
21
51.1977527843976
31
0.0
  0
LINE
 8
onewiredbox
10
7.07696182210087
20
51.1977527843976
30
0.0
11
6.83951555190867
21
51.9986637322387
31
0.0
  0
LINE
 8
onewiredbox
10
6.83951555190867
20
51.9986637322387
30
0.0
11
6.81745107390639
21
52.8337399182304
31
0.0
  0
LINE
 8
onewiredbox
10
6.81745107390639
20
52.8337399182304
30
0.0
11
7.01227204580661
21
53.6460722803259
31
0.0
  0
LINE
 8
onewiredbox
10
7.01227204580661
20
53.6460722803259
30
0.0
11
7.41070174033122
21
54.3803017104912
31
0.0
  0
LINE
 8
onewiredbox
10
7.41070174033122
20
54.3803017104912
30
0.0
11
7.98558783223457
21
54.9863916864321
31
0.0
  0
LINE
 8
onewiredbox
10
7.98558783223457
20
54.9863916864321
30
0.0
11
8.69775278439762
21
55.4230381778991
31
0.0
  0
LINE
 8
onewiredbox
10
8.69775278439762
20
55.4230381778991
30
0.0
11
9.49866373223869
21
55.6604844480913
31
0.0
  0
LINE
 8
onewiredbox
10
9.49866373223869
20
55.6604844480913
30
0.0
11
10.3337399182303
21
55.6825489260936
31
0.0
  0
LINE
 8
onewiredbox
10
10.3337399182303
20
55.6825489260936
30
0.0
11
11.1460722803259
21
55.4877279541934
31
0.0
  0
LINE
 8
onewiredbox
10
11.1460722803259
20
55.4877279541934
30
0.0
11
11.8803017104912
21
55.0892982596688
31
0.0
  0
LINE
 8
onewiredbox
10
11.8803017104912
20
55.0892982596688
30
0.0
11
12.4863916864321
21
54.5144121677654
31
0.0
  0
LINE
 8
onewiredbox
10
12.4863916864321
20
54.5144121677654
30
0.0
11
12.9230381778991
21
53.8022472156024
31
0.0
  0
LINE
 8
onewiredbox
10
12.9230381778991
20
53.8022472156024
30
0.0
11
13.1604844480913
21
53.0013362677613
31
0.0
  0
LINE
 8
onewiredbox
10
13.1604844480913
20
53.0013362677613
30
0.0
11
13.1825489260936
21
52.1662600817697
31
0.0
  0
LINE
 8
onewiredbox
10
13.1825489260936
20
52.1662600817697
30
0.0
11
12.9877279541934
21
51.3539277196741
31
0.0
  0
LINE
 8
onewiredbox
10
12.9877279541934
20
51.3539277196741
30
0.0
11
12.5892982596688
21
50.6196982895088
31
0.0
  0
LINE
 8
onewiredbox
10
12.5892982596688
20
50.6196982895088
30
0.0
11
12.0144121677654
21
50.0136083135679
31
0.0
  0
LINE
 8
onewiredbox
10
105.0
20
5.0
30
42.2999999999999
11
105.0
21
57.0
31
42.2999999999999
  0
LINE
 8
onewiredbox
10
100.899038105677
20
51.75
30
15.0
11
100.899038105677
21
51.75
31
11.0
  0
LINE
 8
onewiredbox
10
101.048888739434
20
52.1117714323462
30
15.0
11
100.899038105677
21
51.75
31
15.0
  0
LINE
 8
onewiredbox
10
101.048888739434
20
52.1117714323462
30
15.0
11
101.048888739434
21
52.1117714323462
31
11.0
  0
LINE
 8
onewiredbox
10
101.048888739434
20
52.1117714323462
30
11.0
11
100.899038105677
21
51.75
31
11.0
  0
LINE
 8
onewiredbox
10
61.2186457154293
20
53.3632819776631
30
0.0
11
61.2186457154293
21
53.3632819776631
31
15.0
  0
LINE
 8
onewiredbox
10
61.2186457154293
20
53.3632819776631
30
15.0
11
61.5470741336997
21
54.1313795311498
31
15.0
  0
LINE
 8
onewiredbox
10
61.5470741336997
20
54.1313795311498
30
0.0
11
61.5470741336997
21
54.1313795311498
31
15.0
  0
LINE
 8
onewiredbox
10
66.1488738118814
20
55.0820762475179
30
15.0
11
62.4551064500377
21
55.0820762475179
31
15.0
  0
LINE
 8
onewiredbox
10
61.5470741336997
20
54.1313795311498
30
15.0
11
62.0631099003333
21
54.7883012655708
31
15.0
  0
LINE
 8
onewiredbox
10
61.1002064994737
20
52.5363531840395
30
15.0
11
61.2186457154293
21
53.3632819776631
31
15.0
  0
LINE
 8
onewiredbox
10
61.1998279226702
20
51.7069469810001
30
15.0
11
61.1002064994737
21
52.5363531840395
31
15.0
  0
LINE
 8
onewiredbox
10
67.4997935005263
20
52.4636468159605
30
15.0
11
67.3813542845707
21
51.636718022337
31
15.0
  0
LINE
 8
onewiredbox
10
66.5883012655708
20
54.7368900996667
30
15.0
11
67.0892790503398
21
54.0684139693765
31
15.0
  0
LINE
 8
onewiredbox
10
62.803076478722
20
52.4039793176207
30
15.0
11
62.8292309294945
21
52.7946834594006
31
15.0
  0
LINE
 8
onewiredbox
10
62.8292309294945
20
52.7946834594006
30
15.0
11
62.9295712207809
21
53.08892988439
31
15.0
  0
LINE
 8
onewiredbox
10
62.9295712207809
20
53.08892988439
30
15.0
11
62.9394924546417
21
53.1180237564288
31
15.0
  0
LINE
 8
onewiredbox
10
62.9394924546417
20
53.1180237564288
30
15.0
11
62.9556158618611
21
53.1653054104099
31
15.0
  0
LINE
 8
onewiredbox
10
62.9556158618611
20
53.1653054104099
30
15.0
11
63.1736183515421
21
53.4905878971688
31
15.0
  0
LINE
 8
onewiredbox
10
63.1736183515421
20
53.4905878971688
30
15.0
11
63.4683818891318
21
53.7483634557596
31
15.0
  0
LINE
 8
onewiredbox
10
63.4683818891318
20
53.7483634557596
30
15.0
11
63.8198188266633
21
53.9210651078585
31
15.0
  0
LINE
 8
onewiredbox
10
63.8198188266633
20
53.9210651078585
30
15.0
11
64.2039793176207
21
53.996923521278
31
15.0
  0
LINE
 8
onewiredbox
10
64.2039793176207
20
53.996923521278
30
15.0
11
64.5946834594006
21
53.9707690705055
31
15.0
  0
LINE
 8
onewiredbox
10
64.5946834594006
20
53.9707690705055
30
15.0
11
64.9653054104098
21
53.8443841381389
31
15.0
  0
LINE
 8
onewiredbox
10
64.9653054104098
20
53.8443841381389
30
15.0
11
65.2905878971688
21
53.6263816484579
31
15.0
  0
LINE
 8
onewiredbox
10
65.2905878971688
20
53.6263816484579
30
15.0
11
65.3650047419378
21
53.5412867987356
31
15.0
  0
LINE
 8
onewiredbox
10
65.3650047419378
20
53.5412867987356
30
15.0
11
65.4585571881291
21
53.4704154836217
31
15.0
  0
LINE
 8
onewiredbox
10
65.4585571881291
20
53.4704154836217
30
15.0
11
65.5483634557596
21
53.3316181108682
31
15.0
  0
LINE
 8
onewiredbox
10
65.5483634557596
20
53.3316181108682
30
15.0
11
65.7210651078585
21
52.9801811733367
31
15.0
  0
LINE
 8
onewiredbox
10
65.7210651078585
20
52.9801811733367
30
15.0
11
65.796923521278
21
52.5960206823793
31
15.0
  0
LINE
 8
onewiredbox
10
65.796923521278
20
52.5960206823793
30
15.0
11
65.7707690705055
21
52.2053165405994
31
15.0
  0
LINE
 8
onewiredbox
10
65.7707690705055
20
52.2053165405994
30
15.0
11
65.6443841381389
21
51.8346945895902
31
15.0
  0
LINE
 8
onewiredbox
10
65.6443841381389
20
51.8346945895902
30
15.0
11
65.4263816484579
21
51.5094121028312
31
15.0
  0
LINE
 8
onewiredbox
10
65.4263816484579
20
51.5094121028312
30
15.0
11
65.1316181108682
21
51.2516365442404
31
15.0
  0
LINE
 8
onewiredbox
10
65.1316181108682
20
51.2516365442404
30
15.0
11
64.7801811733367
21
51.0789348921415
31
15.0
  0
LINE
 8
onewiredbox
10
64.7801811733367
20
51.0789348921415
30
15.0
11
64.3960206823793
21
51.003076478722
31
15.0
  0
LINE
 8
onewiredbox
10
64.3960206823793
20
51.003076478722
30
15.0
11
64.0053165405994
21
51.0292309294945
31
15.0
  0
LINE
 8
onewiredbox
10
64.0053165405994
20
51.0292309294945
30
15.0
11
63.6346945895901
21
51.1556158618611
31
15.0
  0
LINE
 8
onewiredbox
10
63.6346945895901
20
51.1556158618611
30
15.0
11
63.3094121028312
21
51.3736183515421
31
15.0
  0
LINE
 8
onewiredbox
10
63.3094121028312
20
51.3736183515421
30
15.0
11
63.0516365442404
21
51.6683818891318
31
15.0
  0
LINE
 8
onewiredbox
10
63.0516365442404
20
51.6683818891318
30
15.0
11
62.8789348921415
21
52.0198188266633
31
15.0
  0
LINE
 8
onewiredbox
10
62.8789348921415
20
52.0198188266633
30
15.0
11
62.803076478722
21
52.4039793176207
31
15.0
  0
LINE
 8
onewiredbox
10
62.7315860306235
20
55.2892790503398
30
15.0
11
63.5069469810001
21
55.6001720773298
31
15.0
  0
LINE
 8
onewiredbox
10
65.163281977663
20
55.5813542845707
30
15.0
11
65.9313795311498
21
55.2529258663003
31
15.0
  0
LINE
 8
onewiredbox
10
99.8207127644118
20
8.51632689731676
30
15.0
11
99.8207127644118
21
8.51632689731676
31
11.0
  0
LINE
 8
onewiredbox
10
100.197195015018
20
8.62400649927481
30
15.0
11
99.8207127644118
21
8.51632689731676
31
15.0
  0
LINE
 8
onewiredbox
10
100.197195015018
20
8.62400649927481
30
11.0
11
99.8207127644118
21
8.51632689731676
31
11.0
  0
LINE
 8
onewiredbox
10
61.1002064994737
20
52.5363531840395
30
0.0
11
61.1002064994737
21
52.5363531840395
31
15.0
  0
LINE
 8
onewiredbox
10
3.0
20
3.0
30
42.3
11
3.0
21
3.0
31
-2.0
  0
LINE
 8
onewiredbox
10
3.0
20
59.0
30
42.3
11
3.0
21
3.0
31
42.3
  0
LINE
 8
onewiredbox
10
3.0
20
14.5555016310962
30
2.68323414000281
11
3.0
21
32.1555016310962
31
2.68323414000281
  0
LINE
 8
onewiredbox
10
3.0
20
32.1555016310962
30
2.68323414000281
11
3.0
21
32.1555016310962
31
15.8832341400028
  0
LINE
 8
onewiredbox
10
3.00000000000001
20
47.2387907175538
30
10.948669051328
11
3.00000000000001
21
47.2387907175538
31
16.148669051328
  0
LINE
 8
onewiredbox
10
3.00000000000001
20
37.2387907175538
30
16.148669051328
11
3.00000000000001
21
37.2387907175538
31
10.948669051328
  0
LINE
 8
onewiredbox
10
99.2117714323462
20
53.9488887394336
30
15.0
11
99.2117714323462
21
53.9488887394336
31
11.0
  0
LINE
 8
onewiredbox
10
98.85
20
53.7990381056767
30
15.0
11
99.2117714323462
21
53.9488887394336
31
15.0
  0
LINE
 8
onewiredbox
10
98.85
20
53.7990381056767
30
15.0
11
98.85
21
53.7990381056767
31
11.0
  0
LINE
 8
onewiredbox
10
98.85
20
53.7990381056767
30
11.0
11
99.2117714323462
21
53.9488887394336
31
11.0
  0
LINE
 8
onewiredbox
10
101.862741699797
20
12.262741699797
30
0.0
11
101.862741699797
21
12.262741699797
31
15.0
  0
LINE
 8
onewiredbox
10
101.862741699797
20
12.262741699797
30
15.0
11
102.334197911231
21
11.6483280028724
31
15.0
  0
LINE
 8
onewiredbox
10
102.334197911231
20
11.6483280028724
30
15.0
11
102.37128129211
21
11.6
31
15.0
  0
LINE
 8
onewiredbox
10
102.37128129211
20
11.6
30
0.0
11
102.37128129211
21
11.6
31
15.0
  0
LINE
 8
onewiredbox
10
99.0028049849823
20
11.3759935007252
30
15.0
11
99.0028049849823
21
11.3759935007252
31
11.0
  0
LINE
 8
onewiredbox
10
98.6670205877383
20
11.1745422156295
30
15.0
11
99.0028049849823
21
11.3759935007252
31
15.0
  0
LINE
 8
onewiredbox
10
98.6670205877383
20
11.1745422156295
30
15.0
11
98.6670205877383
21
11.1745422156295
31
11.0
  0
LINE
 8
onewiredbox
10
98.6670205877383
20
11.1745422156295
30
11.0
11
99.0028049849823
21
11.3759935007252
31
11.0
  0
LINE
 8
onewiredbox
10
96.8287187078898
20
11.6
30
0.0
11
96.8287187078898
21
11.6
31
15.0
  0
LINE
 8
onewiredbox
10
100.899038105677
20
51.75
30
15.0
11
100.66066017178
21
51.4393398282202
31
15.0
  0
LINE
 8
onewiredbox
10
96.8287187078898
20
11.6
30
15.0
11
97.337258300203
21
12.262741699797
31
15.0
  0
LINE
 8
onewiredbox
10
100.975993500725
20
10.5971950150177
30
11.0
11
101.083673102683
21
10.2207127644118
31
11.0
  0
LINE
 8
onewiredbox
10
96.509037355875
20
10.8282209443281
30
15.0
11
96.8287187078898
21
11.6
31
15.0
  0
LINE
 8
onewiredbox
10
98.5393398282202
20
51.4393398282202
30
15.0
11
98.3009618943234
21
51.75
31
15.0
  0
LINE
 8
onewiredbox
10
96.8287187078898
20
8.4
30
15.0
11
96.509037355875
21
9.17177905567193
31
15.0
  0
LINE
 8
onewiredbox
10
100.976653188558
20
10.5948885358365
30
14.9859446701183
11
100.975993500725
21
10.5971950150177
31
11.0
  0
LINE
 8
onewiredbox
10
100.976653188558
20
10.5948885358365
30
14.9859446701183
11
101.083673102683
21
10.2207127644118
31
15.0
  0
LINE
 8
onewiredbox
10
99.6
20
54.0
30
15.0
11
99.9882285676538
21
53.9488887394336
31
15.0
  0
LINE
 8
onewiredbox
10
99.6
20
51.0
30
15.0
11
99.2117714323462
21
51.0511112605664
31
15.0
  0
LINE
 8
onewiredbox
10
100.727959081713
20
53.4729545247899
30
15.0
11
100.899038105677
21
53.25
31
15.0
  0
LINE
 8
onewiredbox
10
98.1163268973168
20
9.77928723558824
30
15.0
11
98.1097571654208
21
10.1708106963438
31
15.0
  0
LINE
 8
onewiredbox
10
100.899038105677
20
53.25
30
15.0
11
100.899038105677
21
53.25
31
11.0
  0
LINE
 8
onewiredbox
10
98.7069521804386
20
8.79481719561861
30
15.0
11
98.7069521804386
21
8.79481719561861
31
11.0
  0
LINE
 8
onewiredbox
10
98.1097571654208
20
10.1708106963438
30
15.0
11
98.1097571654208
21
10.1708106963438
31
11.0
  0
LINE
 8
onewiredbox
10
99.0493063095785
20
8.60474501995876
30
11.0
11
98.7069521804386
21
8.79481719561861
31
11.0
  0
LINE
 8
onewiredbox
10
98.1163268973168
20
9.77928723558824
30
11.0
11
98.1097571654208
21
10.1708106963438
31
11.0
  0
LINE
 8
onewiredbox
10
99.0493063095785
20
8.60474501995876
30
15.0
11
98.7069521804386
21
8.79481719561861
31
15.0
  0
LINE
 8
onewiredbox
10
100.66066017178
20
53.5606601717798
30
15.0
11
100.727959081713
21
53.4729545247899
31
15.0
  0
LINE
 8
onewiredbox
10
102.37128129211
20
8.4
30
15.0
11
101.862741699797
21
7.73725830020305
31
15.0
  0
LINE
 8
onewiredbox
10
102.8
20
10.0
30
15.0
11
102.690962644125
21
9.17177905567194
31
15.0
  0
LINE
 8
onewiredbox
10
99.2117714323462
20
51.0511112605664
30
15.0
11
98.85
21
51.2009618943234
31
15.0
  0
LINE
 8
onewiredbox
10
102.8
20
52.5
30
15.0
11
102.690962644125
21
51.6717790556719
31
15.0
  0
LINE
 8
onewiredbox
10
99.2117714323462
20
51.0511112605664
30
15.0
11
99.2117714323462
21
51.0511112605664
31
11.0
  0
LINE
 8
onewiredbox
10
10.3359631832883
20
11.461892177787
30
11.0
11
10.7028810529182
21
11.3251257394861
31
11.0
  0
LINE
 8
onewiredbox
10
65.0035197250274
20
6.87829213466453
30
15.0
11
64.1715904229126
21
6.80257744730036
31
15.0
  0
LINE
 8
onewiredbox
10
9.94614997792281
20
11.4990330800627
30
11.0
11
10.3359631832883
21
11.461892177787
31
11.0
  0
LINE
 8
onewiredbox
10
64.6882285676538
20
11.4488887394336
30
15.0
11
65.05
21
11.2990381056767
31
15.0
  0
LINE
 8
onewiredbox
10
10.7028810529182
20
11.3251257394861
30
11.0
11
10.8200683498535
21
11.2417137398934
31
11.0
  0
LINE
 8
onewiredbox
10
11.461892177787
20
9.66403681671167
30
11.0
11
11.3251257394861
21
9.29711894708185
31
11.0
  0
LINE
 8
onewiredbox
10
65.05
20
11.2990381056767
30
15.0
11
65.05
21
11.2990381056767
31
11.0
  0
LINE
 8
onewiredbox
10
9.56000656257048
20
11.4340173552014
30
11.0
11
9.94614997792281
21
11.4990330800627
31
11.0
  0
LINE
 8
onewiredbox
10
62.5900827678033
20
7.29515563127251
30
0.0
11
62.5900827678033
21
7.29515563127251
31
15.0
  0
LINE
 8
onewiredbox
10
11.3251257394861
20
9.29711894708185
30
11.0
11
11.0980541719131
21
8.97810125964253
31
11.0
  0
LINE
 8
onewiredbox
10
11.0218987403575
20
11.0980541719131
30
11.0
11
11.2712757174089
21
10.7961520271446
31
11.0
  0
LINE
 8
onewiredbox
10
11.4990330800627
20
10.0538500220772
30
11.0
11
11.461892177787
21
9.66403681671167
31
11.0
  0
LINE
 8
onewiredbox
10
65.0035197250274
20
6.87829213466453
30
0.0
11
65.0035197250274
21
6.87829213466453
31
15.0
  0
LINE
 8
onewiredbox
10
11.4340173552014
20
10.4399934374295
30
11.0
11
11.4990330800627
21
10.0538500220772
31
11.0
  0
LINE
 8
onewiredbox
10
11.2712757174089
20
10.7961520271446
30
11.0
11
11.4340173552014
21
10.4399934374295
31
11.0
  0
LINE
 8
onewiredbox
10
10.8200683498535
20
11.2417137398934
30
11.0
11
11.0218987403575
21
11.0980541719131
31
11.0
  0
LINE
 8
onewiredbox
10
65.7875053205029
20
7.16674605418514
30
15.0
11
65.5573822252468
21
7.08207624751787
31
15.0
  0
LINE
 8
onewiredbox
10
67.3552381770879
20
9.04841202126947
30
15.0
11
67.0048443687275
21
8.2900827678033
31
15.0
  0
LINE
 8
onewiredbox
10
61.1025774473004
20
10.1284095770874
30
0.0
11
61.1025774473004
21
10.1284095770874
31
15.0
  0
LINE
 8
onewiredbox
10
67.4974225526996
20
9.87159042291263
30
15.0
11
67.3552381770879
21
9.04841202126947
31
15.0
  0
LINE
 8
onewiredbox
10
63.5964802749726
20
13.1217078653355
30
15.0
11
64.4284095770874
21
13.1974225526996
31
15.0
  0
LINE
 8
onewiredbox
10
62.1298801133951
20
12.3517184520605
30
15.0
11
62.8124946794971
21
12.8332539458149
31
15.0
  0
LINE
 8
onewiredbox
10
61.1025774473004
20
10.1284095770874
30
15.0
11
61.2447618229121
21
10.9515879787305
31
15.0
  0
LINE
 8
onewiredbox
10
61.1782921346645
20
9.29648027497256
30
15.0
11
61.1025774473004
21
10.1284095770874
31
15.0
  0
LINE
 8
onewiredbox
10
63.0512334107549
20
7.08207624751787
30
15.0
11
62.5900827678033
21
7.29515563127251
31
15.0
  0
LINE
 8
onewiredbox
10
62.5900827678033
20
7.29515563127251
30
15.0
11
61.9482815479395
21
7.82988011339506
31
15.0
  0
LINE
 8
onewiredbox
10
67.4217078653355
20
10.7035197250274
30
15.0
11
67.4974225526996
21
9.87159042291263
31
15.0
  0
LINE
 8
onewiredbox
10
66.4701198866049
20
7.64828154793951
30
15.0
11
65.7875053205029
21
7.16674605418514
31
15.0
  0
LINE
 8
onewiredbox
10
66.6517184520605
20
12.1701198866049
30
15.0
11
67.1332539458148
21
11.4875053205029
31
15.0
  0
LINE
 8
onewiredbox
10
66.0099172321967
20
12.7048443687275
30
15.0
11
66.6517184520605
21
12.1701198866049
31
15.0
  0
LINE
 8
onewiredbox
10
66.6517184520605
20
12.1701198866049
30
0.0
11
66.6517184520605
21
12.1701198866049
31
15.0
  0
LINE
 8
onewiredbox
10
63.0512334107549
20
7.08207624751787
30
15.0
11
65.5573822252468
21
7.08207624751787
31
15.0
  0
LINE
 8
onewiredbox
10
62.9468512161217
20
10.6193652668165
30
15.0
11
63.0009618943233
21
10.75
31
15.0
  0
LINE
 8
onewiredbox
10
62.8511112605664
20
10.3882285676538
30
15.0
11
62.9229743136605
21
10.5860311252525
31
15.0
  0
LINE
 8
onewiredbox
10
65.3606601717798
20
11.0606601717798
30
15.0
11
65.3820501818348
21
11.0327841679508
31
15.0
  0
LINE
 8
onewiredbox
10
63.0009618943233
20
10.75
30
15.0
11
63.2393398282202
21
11.0606601717798
31
15.0
  0
LINE
 8
onewiredbox
10
10.4399934374295
20
8.56598264479855
30
15.0
11
10.4399934374295
21
8.56598264479855
31
11.0
  0
LINE
 8
onewiredbox
10
65.3820501818348
20
11.0327841679508
30
15.0
11
65.427713943441
21
11.0000756855742
31
15.0
  0
LINE
 8
onewiredbox
10
65.05
20
11.2990381056767
30
15.0
11
65.3606601717798
21
11.0606601717798
31
15.0
  0
LINE
 8
onewiredbox
10
10.7961520271446
20
8.72872428259106
30
15.0
11
10.4399934374295
21
8.56598264479855
31
15.0
  0
LINE
 8
onewiredbox
10
65.7875053205029
20
7.16674605418514
30
0.0
11
65.7875053205029
21
7.16674605418514
31
15.0
  0
LINE
 8
onewiredbox
10
11.4340173552014
20
10.4399934374295
30
15.0
11
11.4340173552014
21
10.4399934374295
31
11.0
  0
LINE
 8
onewiredbox
10
6.94225703053373
20
9.05649168913061
30
15.0
11
6.8022491755732
21
9.88004307073909
31
15.0
  0
LINE
 8
onewiredbox
10
67.3552381770879
20
9.04841202126947
30
0.0
11
67.3552381770879
21
9.04841202126947
31
15.0
  0
LINE
 8
onewiredbox
10
8.90194582808688
20
11.0218987403575
30
15.0
11
9.20384797285545
21
11.2712757174089
31
15.0
  0
LINE
 8
onewiredbox
10
8.90194582808688
20
11.0218987403575
30
15.0
11
8.90194582808688
21
11.0218987403575
31
11.0
  0
LINE
 8
onewiredbox
10
8.67487426051387
20
10.7028810529182
30
15.0
11
8.67487426051387
21
10.7028810529182
31
11.0
  0
LINE
 8
onewiredbox
10
6.8022491755732
20
9.88004307073909
30
0.0
11
6.8022491755732
21
9.88004307073909
31
15.0
  0
LINE
 8
onewiredbox
10
10.7961520271446
20
8.72872428259106
30
15.0
11
10.7961520271446
21
8.72872428259106
31
11.0
  0
LINE
 8
onewiredbox
10
65.5573822252468
20
7.08207624751787
30
15.0
11
65.0035197250274
21
6.87829213466453
31
15.0
  0
LINE
 8
onewiredbox
10
67.4974225526996
20
9.87159042291263
30
0.0
11
67.4974225526996
21
9.87159042291263
31
15.0
  0
LINE
 8
onewiredbox
10
11.2712757174089
20
10.7961520271446
30
15.0
11
11.4340173552014
21
10.4399934374295
31
15.0
  0
LINE
 8
onewiredbox
10
9.20384797285545
20
11.2712757174089
30
15.0
11
9.20384797285545
21
11.2712757174089
31
11.0
  0
LINE
 8
onewiredbox
10
6.94225703053373
20
9.05649168913061
30
0.0
11
6.94225703053373
21
9.05649168913061
31
15.0
  0
LINE
 8
onewiredbox
10
11.2712757174089
20
10.7961520271446
30
15.0
11
11.2712757174089
21
10.7961520271446
31
11.0
  0
LINE
 8
onewiredbox
10
8.53810782221301
20
10.3359631832883
30
15.0
11
8.67487426051387
21
10.7028810529182
31
15.0
  0
LINE
 8
onewiredbox
10
11.461892177787
20
9.66403681671167
30
15.0
11
11.461892177787
21
9.66403681671167
31
11.0
  0
LINE
 8
onewiredbox
10
11.0218987403575
20
11.0980541719131
30
15.0
11
11.0218987403575
21
11.0980541719131
31
11.0
  0
LINE
 8
onewiredbox
10
8.53810782221301
20
10.3359631832883
30
15.0
11
8.53810782221301
21
10.3359631832883
31
11.0
  0
LINE
 8
onewiredbox
10
9.94614997792281
20
11.4990330800627
30
15.0
11
9.94614997792281
21
11.4990330800627
31
11.0
  0
LINE
 8
onewiredbox
10
65.3606601717798
20
11.0606601717798
30
15.0
11
65.3606601717798
21
11.0606601717798
31
11.0
  0
LINE
 8
onewiredbox
10
11.4990330800627
20
10.0538500220772
30
15.0
11
11.461892177787
21
9.66403681671167
31
15.0
  0
LINE
 8
onewiredbox
10
9.66403681671167
20
8.53810782221301
30
15.0
11
9.66403681671167
21
8.53810782221301
31
11.0
  0
LINE
 8
onewiredbox
10
10.3359631832883
20
11.461892177787
30
15.0
11
10.3359631832883
21
11.461892177787
31
11.0
  0
LINE
 8
onewiredbox
10
11.4990330800627
20
10.0538500220772
30
15.0
11
11.4990330800627
21
10.0538500220772
31
11.0
  0
LINE
 8
onewiredbox
10
10.0538500220772
20
8.50096691993729
30
15.0
11
9.66403681671167
21
8.53810782221301
31
15.0
  0
LINE
 8
onewiredbox
10
9.94614997792281
20
11.4990330800627
30
15.0
11
10.3359631832883
21
11.461892177787
31
15.0
  0
LINE
 8
onewiredbox
10
11.3251257394861
20
9.29711894708185
30
15.0
11
11.3251257394861
21
9.29711894708185
31
11.0
  0
LINE
 8
onewiredbox
10
11.0218987403575
20
11.0980541719131
30
15.0
11
11.2712757174089
21
10.7961520271446
31
15.0
  0
LINE
 8
onewiredbox
10
10.0538500220772
20
8.50096691993729
30
15.0
11
10.0538500220772
21
8.50096691993729
31
11.0
  0
LINE
 8
onewiredbox
10
63.3484120212695
20
6.94476182291207
30
15.0
11
63.0512334107549
21
7.08207624751787
31
15.0
  0
LINE
 8
onewiredbox
10
8.56598264479855
20
9.56000656257048
30
15.0
11
8.56598264479855
21
9.56000656257048
31
11.0
  0
LINE
 8
onewiredbox
10
7.82367106563364
20
7.65402634937223
30
0.0
11
7.82367106563364
21
7.65402634937223
31
15.0
  0
LINE
 8
onewiredbox
10
7.1706880864433
20
11.4949896641135
30
0.0
11
7.1706880864433
21
11.4949896641135
31
15.0
  0
LINE
 8
onewiredbox
10
13.1977508244268
20
10.1199569292609
30
0.0
11
13.1977508244268
21
10.1199569292609
31
15.0
  0
LINE
 8
onewiredbox
10
8.67487426051387
20
10.7028810529182
30
15.0
11
8.90194582808688
21
11.0218987403575
31
15.0
  0
LINE
 8
onewiredbox
10
6.88016275476425
20
10.7117693188385
30
0.0
11
6.88016275476425
21
10.7117693188385
31
15.0
  0
LINE
 8
onewiredbox
10
10.7117693188385
20
13.1198372452357
30
15.0
11
11.4949896641135
21
12.8293119135567
31
15.0
  0
LINE
 8
onewiredbox
10
8.72872428259106
20
9.20384797285544
30
15.0
11
8.72872428259106
21
9.20384797285544
31
11.0
  0
LINE
 8
onewiredbox
10
11.4949896641135
20
12.8293119135567
30
0.0
11
11.4949896641135
21
12.8293119135567
31
15.0
  0
LINE
 8
onewiredbox
10
6.88016275476425
20
10.7117693188385
30
15.0
11
7.1706880864433
21
11.4949896641135
31
15.0
  0
LINE
 8
onewiredbox
10
8.72872428259106
20
9.20384797285544
30
15.0
11
8.56598264479855
21
9.56000656257048
31
15.0
  0
LINE
 8
onewiredbox
10
10.7117693188385
20
13.1198372452357
30
0.0
11
10.7117693188385
21
13.1198372452357
31
15.0
  0
LINE
 8
onewiredbox
10
7.82367106563364
20
7.65402634937223
30
15.0
11
7.29064501570421
21
8.29723883968668
31
15.0
  0
LINE
 8
onewiredbox
10
7.29064501570421
20
8.29723883968668
30
0.0
11
7.29064501570421
21
8.29723883968668
31
15.0
  0
LINE
 8
onewiredbox
10
11.461892177787
20
9.66403681671167
30
15.0
11
11.3251257394861
21
9.29711894708185
31
15.0
  0
LINE
 8
onewiredbox
10
13.1198372452357
20
9.28823068116149
30
0.0
11
13.1198372452357
21
9.28823068116149
31
15.0
  0
LINE
 8
onewiredbox
10
9.20384797285545
20
11.2712757174089
30
15.0
11
9.56000656257048
21
11.4340173552014
31
15.0
  0
LINE
 8
onewiredbox
10
12.7093549842958
20
11.7027611603133
30
0.0
11
12.7093549842958
21
11.7027611603133
31
15.0
  0
LINE
 8
onewiredbox
10
11.4873571978178
20
52.3056586351298
30
15.0
11
11.4873571978178
21
52.3056586351298
31
11.0
  0
LINE
 8
onewiredbox
10
11.3251257394861
20
9.29711894708185
30
15.0
11
11.0980541719131
21
8.97810125964253
31
15.0
  0
LINE
 8
onewiredbox
10
13.1977508244268
20
10.1199569292609
30
15.0
11
13.1198372452357
21
9.28823068116149
31
15.0
  0
LINE
 8
onewiredbox
10
11.0980541719131
20
8.97810125964253
30
15.0
11
11.0980541719131
21
8.97810125964253
31
11.0
  0
LINE
 8
onewiredbox
10
12.1763289343664
20
12.3459736506278
30
15.0
11
12.7093549842958
21
11.7027611603133
31
15.0
  0
LINE
 8
onewiredbox
10
9.88004307073909
20
13.1977508244268
30
15.0
11
10.7117693188385
21
13.1198372452357
31
15.0
  0
LINE
 8
onewiredbox
10
11.1891404575883
20
53.4143002636588
30
15.0
11
11.1891404575883
21
53.4143002636588
31
11.0
  0
LINE
 8
onewiredbox
10
12.1763289343664
20
12.3459736506278
30
0.0
11
12.1763289343664
21
12.3459736506278
31
15.0
  0
LINE
 8
onewiredbox
10
9.56000656257048
20
11.4340173552014
30
15.0
11
9.56000656257048
21
11.4340173552014
31
11.0
  0
LINE
 8
onewiredbox
10
9.88004307073909
20
13.1977508244268
30
0.0
11
9.88004307073909
21
13.1977508244268
31
15.0
  0
LINE
 8
onewiredbox
10
11.1891404575883
20
53.4143002636588
30
15.0
11
11.3852598002469
21
53.0753740399252
31
15.0
  0
LINE
 8
onewiredbox
10
11.3852598002469
20
53.0753740399252
30
15.0
11
11.3852598002469
21
53.0753740399252
31
11.0
  0
LINE
 8
onewiredbox
10
11.1891404575883
20
53.4143002636588
30
11.0
11
11.3852598002469
21
53.0753740399252
31
11.0
  0
LINE
 8
onewiredbox
10
7.29064501570421
20
8.29723883968668
30
15.0
11
6.94225703053373
21
9.05649168913061
31
15.0
  0
LINE
 8
onewiredbox
10
10.9435083108694
20
6.94225703053373
30
0.0
11
10.9435083108694
21
6.94225703053373
31
15.0
  0
LINE
 8
onewiredbox
10
11.7027611603133
20
7.29064501570421
30
0.0
11
11.7027611603133
21
7.29064501570421
31
15.0
  0
LINE
 8
onewiredbox
10
11.2482207103234
20
7.08207624751787
30
15.0
11
10.9435083108694
21
6.94225703053373
31
15.0
  0
LINE
 8
onewiredbox
10
11.4869759767688
20
52.6972370262212
30
11.0
11
11.4873571978178
21
52.3056586351298
31
11.0
  0
LINE
 8
onewiredbox
10
11.4869759767688
20
52.6972370262212
30
15.0
11
11.4869759767688
21
52.6972370262212
31
11.0
  0
LINE
 8
onewiredbox
10
9.56000656257048
20
11.4340173552014
30
15.0
11
9.94614997792281
21
11.4990330800627
31
15.0
  0
LINE
 8
onewiredbox
10
10.9143002636588
20
51.3108595424117
30
15.0
11
10.9143002636588
21
51.3108595424117
31
11.0
  0
LINE
 8
onewiredbox
10
12.3459736506278
20
7.82367106563364
30
0.0
11
12.3459736506278
21
7.82367106563364
31
15.0
  0
LINE
 8
onewiredbox
10
11.1909184353767
20
51.5880168421074
30
15.0
11
10.9143002636588
21
51.3108595424117
31
15.0
  0
LINE
 8
onewiredbox
10
10.1943413648702
20
53.9873571978178
30
15.0
11
10.1943413648702
21
53.9873571978178
31
11.0
  0
LINE
 8
onewiredbox
10
12.3459736506278
20
7.82367106563364
30
15.0
11
11.7027611603133
21
7.29064501570421
31
15.0
  0
LINE
 8
onewiredbox
10
11.7027611603133
20
7.29064501570421
30
15.0
11
11.2482207103234
21
7.08207624751787
31
15.0
  0
LINE
 8
onewiredbox
10
11.4869759767688
20
52.6972370262212
30
15.0
11
11.4873571978178
21
52.3056586351298
31
15.0
  0
LINE
 8
onewiredbox
10
9.80276297377883
20
53.9869759767688
30
15.0
11
9.80276297377883
21
53.9869759767688
31
11.0
  0
LINE
 8
onewiredbox
10
9.80276297377883
20
53.9869759767688
30
11.0
11
10.1943413648702
21
53.9873571978178
31
11.0
  0
LINE
 8
onewiredbox
10
9.08569973634119
20
53.6891404575884
30
15.0
11
9.08569973634119
21
53.6891404575884
31
11.0
  0
LINE
 8
onewiredbox
10
8.97810125964253
20
8.90194582808688
30
15.0
11
8.97810125964253
21
8.90194582808688
31
11.0
  0
LINE
 8
onewiredbox
10
11.1909184353767
20
51.5880168421074
30
11.0
11
10.9143002636588
21
51.3108595424117
31
11.0
  0
LINE
 8
onewiredbox
10
9.05649168913062
20
13.0577429694663
30
0.0
11
9.05649168913062
21
13.0577429694663
31
15.0
  0
LINE
 8
onewiredbox
10
11.1909184353767
20
51.5880168421074
30
15.0
11
11.1909184353767
21
51.5880168421074
31
11.0
  0
LINE
 8
onewiredbox
10
9.08569973634119
20
53.6891404575884
30
11.0
11
9.42462596007484
21
53.8852598002469
31
11.0
  0
LINE
 8
onewiredbox
10
9.42462596007484
20
53.8852598002469
30
15.0
11
9.42462596007484
21
53.8852598002469
31
11.0
  0
LINE
 8
onewiredbox
10
10.7028810529182
20
11.3251257394861
30
15.0
11
10.7028810529182
21
11.3251257394861
31
11.0
  0
LINE
 8
onewiredbox
10
8.49894713211168
20
9.95814596460042
30
14.9859446701183
11
8.50096691993729
21
9.94614997792281
31
11.0
  0
LINE
 8
onewiredbox
10
9.66403681671167
20
8.53810782221301
30
15.0
11
9.29711894708185
21
8.67487426051387
31
15.0
  0
LINE
 8
onewiredbox
10
8.56598264479855
20
9.56000656257048
30
15.0
11
8.49894713211168
21
9.95814596460042
31
14.9859446701183
  0
LINE
 8
onewiredbox
10
9.05649168913062
20
13.0577429694663
30
15.0
11
9.88004307073909
21
13.1977508244268
31
15.0
  0
LINE
 8
onewiredbox
10
8.97810125964253
20
8.90194582808688
30
15.0
11
8.72872428259106
21
9.20384797285544
31
15.0
  0
LINE
 8
onewiredbox
10
9.29711894708185
20
8.67487426051387
30
15.0
11
9.29711894708185
21
8.67487426051387
31
11.0
  0
LINE
 8
onewiredbox
10
10.3359631832883
20
11.461892177787
30
15.0
11
10.7028810529182
21
11.3251257394861
31
15.0
  0
LINE
 8
onewiredbox
10
7.65402634937223
20
12.1763289343664
30
0.0
11
7.65402634937223
21
12.1763289343664
31
15.0
  0
LINE
 8
onewiredbox
10
9.42732428689004
20
51.1136225161905
30
15.0
11
9.08801684210737
21
51.3090815646233
31
15.0
  0
LINE
 8
onewiredbox
10
8.29723883968668
20
12.7093549842958
30
0.0
11
8.29723883968668
21
12.7093549842958
31
15.0
  0
LINE
 8
onewiredbox
10
12.8293119135567
20
8.50501033588652
30
0.0
11
12.8293119135567
21
8.50501033588652
31
15.0
  0
LINE
 8
onewiredbox
10
9.2882306811615
20
6.88016275476425
30
0.0
11
9.2882306811615
21
6.88016275476425
31
15.0
  0
LINE
 8
onewiredbox
10
9.08801684210737
20
51.3090815646233
30
15.0
11
9.08801684210737
21
51.3090815646233
31
11.0
  0
LINE
 8
onewiredbox
10
11.0980541719131
20
8.97810125964253
30
15.0
11
10.7961520271446
21
8.72872428259106
31
15.0
  0
LINE
 8
onewiredbox
10
7.65402634937223
20
12.1763289343664
30
15.0
11
8.29723883968668
21
12.7093549842958
31
15.0
  0
LINE
 8
onewiredbox
10
8.50501033588652
20
7.1706880864433
30
0.0
11
8.50501033588652
21
7.1706880864433
31
15.0
  0
LINE
 8
onewiredbox
10
9.42462596007484
20
53.8852598002469
30
11.0
11
9.80276297377883
21
53.9869759767688
31
11.0
  0
LINE
 8
onewiredbox
10
10.4399934374295
20
8.56598264479855
30
15.0
11
10.0538500220772
21
8.50096691993729
31
15.0
  0
LINE
 8
onewiredbox
10
12.8293119135567
20
8.50501033588652
30
15.0
11
12.3459736506278
21
7.82367106563364
31
15.0
  0
LINE
 8
onewiredbox
10
9.2882306811615
20
6.88016275476425
30
15.0
11
8.50501033588652
21
7.1706880864433
31
15.0
  0
LINE
 8
onewiredbox
10
9.29711894708185
20
8.67487426051387
30
15.0
11
8.97810125964253
21
8.90194582808688
31
15.0
  0
LINE
 8
onewiredbox
10
9.42732428689004
20
51.1136225161905
30
15.0
11
9.42732428689004
21
51.1136225161905
31
11.0
  0
LINE
 8
onewiredbox
10
11.4340173552014
20
10.4399934374295
30
15.0
11
11.4990330800627
21
10.0538500220772
31
15.0
  0
LINE
 8
onewiredbox
10
9.8056586351298
20
51.0126428021822
30
15.0
11
9.8056586351298
21
51.0126428021822
31
11.0
  0
LINE
 8
onewiredbox
10
10.1972370262212
20
51.0130240232312
30
11.0
11
9.8056586351298
21
51.0126428021822
31
11.0
  0
LINE
 8
onewiredbox
10
9.42732428689004
20
51.1136225161905
30
11.0
11
9.08801684210737
21
51.3090815646233
31
11.0
  0
LINE
 8
onewiredbox
10
10.9435083108694
20
6.94225703053373
30
15.0
11
10.1199569292609
21
6.8022491755732
31
15.0
  0
LINE
 8
onewiredbox
10
10.9143002636588
20
51.3108595424117
30
11.0
11
10.5753740399252
21
51.1147401997531
31
11.0
  0
LINE
 8
onewiredbox
10
8.61474019975306
20
51.9246259600748
30
15.0
11
8.61474019975306
21
51.9246259600748
31
11.0
  0
LINE
 8
onewiredbox
10
8.80908156462326
20
53.4119831578926
30
15.0
11
8.80908156462326
21
53.4119831578926
31
11.0
  0
LINE
 8
onewiredbox
10
10.1199569292609
20
6.8022491755732
30
0.0
11
10.1199569292609
21
6.8022491755732
31
15.0
  0
LINE
 8
onewiredbox
10
8.80908156462326
20
53.4119831578926
30
11.0
11
9.08569973634119
21
53.6891404575884
31
11.0
  0
LINE
 8
onewiredbox
10
10.5753740399252
20
51.1147401997531
30
15.0
11
10.5753740399252
21
51.1147401997531
31
11.0
  0
LINE
 8
onewiredbox
10
10.9143002636588
20
51.3108595424117
30
15.0
11
10.5753740399252
21
51.1147401997531
31
15.0
  0
LINE
 8
onewiredbox
10
8.51302402323123
20
52.3027629737788
30
15.0
11
8.51302402323123
21
52.3027629737788
31
11.0
  0
LINE
 8
onewiredbox
10
10.1972370262212
20
51.0130240232312
30
15.0
11
9.8056586351298
21
51.0126428021822
31
15.0
  0
LINE
 8
onewiredbox
10
8.61474019975306
20
51.9246259600748
30
15.0
11
8.51302402323123
21
52.3027629737788
31
15.0
  0
LINE
 8
onewiredbox
10
10.1972370262212
20
51.0130240232312
30
15.0
11
10.1972370262212
21
51.0130240232312
31
11.0
  0
LINE
 8
onewiredbox
10
8.81085954241165
20
51.5856997363412
30
11.0
11
8.61474019975306
21
51.9246259600748
31
11.0
  0
LINE
 8
onewiredbox
10
8.61362251619048
20
53.07267571311
30
15.0
11
8.61362251619048
21
53.07267571311
31
11.0
  0
LINE
 8
onewiredbox
10
11.3863774838095
20
51.92732428689
30
11.0
11
11.1909184353767
21
51.5880168421074
31
11.0
  0
LINE
 8
onewiredbox
10
10.57267571311
20
53.8863774838095
30
11.0
11
10.9119831578926
21
53.6909184353767
31
11.0
  0
LINE
 8
onewiredbox
10
9.08801684210737
20
51.3090815646233
30
11.0
11
8.81085954241165
21
51.5856997363412
31
11.0
  0
LINE
 8
onewiredbox
10
8.61474019975306
20
51.9246259600748
30
11.0
11
8.51302402323123
21
52.3027629737788
31
11.0
  0
LINE
 8
onewiredbox
10
10.1943413648702
20
53.9873571978178
30
11.0
11
10.57267571311
21
53.8863774838095
31
11.0
  0
LINE
 8
onewiredbox
10
10.9119831578926
20
53.6909184353767
30
11.0
11
11.1891404575883
21
53.4143002636588
31
11.0
  0
LINE
 8
onewiredbox
10
11.3852598002469
20
53.0753740399252
30
11.0
11
11.4869759767688
21
52.6972370262212
31
11.0
  0
LINE
 8
onewiredbox
10
8.51264280218221
20
52.6943413648702
30
11.0
11
8.61362251619048
21
53.07267571311
31
11.0
  0
LINE
 8
onewiredbox
10
9.8056586351298
20
51.0126428021822
30
11.0
11
9.42732428689004
21
51.1136225161905
31
11.0
  0
LINE
 8
onewiredbox
10
10.5753740399252
20
51.1147401997531
30
11.0
11
10.1972370262212
21
51.0130240232312
31
11.0
  0
LINE
 8
onewiredbox
10
8.81085954241165
20
51.5856997363412
30
15.0
11
8.61474019975306
21
51.9246259600748
31
15.0
  0
LINE
 8
onewiredbox
10
11.4873571978178
20
52.3056586351298
30
11.0
11
11.3863774838095
21
51.92732428689
31
11.0
  0
LINE
 8
onewiredbox
10
8.61362251619048
20
53.07267571311
30
11.0
11
8.80908156462326
21
53.4119831578926
31
11.0
  0
LINE
 8
onewiredbox
10
8.51302402323123
20
52.3027629737788
30
11.0
11
8.51264280218221
21
52.6943413648702
31
11.0
  0
LINE
 8
onewiredbox
10
13.0577429694663
20
10.9435083108694
30
15.0
11
13.1977508244268
21
10.1199569292609
31
15.0
  0
LINE
 8
onewiredbox
10
8.50501033588652
20
7.1706880864433
30
15.0
11
7.82367106563364
21
7.65402634937223
31
15.0
  0
LINE
 8
onewiredbox
10
8.41010398145714
20
7.65035456171698
30
15.0
11
8.29723883968668
21
12.7093549842958
31
15.0
  0
LINE
 8
onewiredbox
10
10.57267571311
20
53.8863774838095
30
15.0
11
10.57267571311
21
53.8863774838095
31
11.0
  0
LINE
 8
onewiredbox
10
9.8056586351298
20
51.0126428021822
30
15.0
11
9.42732428689004
21
51.1136225161905
31
15.0
  0
LINE
 8
onewiredbox
10
8.29723883968668
20
12.7093549842958
30
15.0
11
9.05649168913062
21
13.0577429694663
31
15.0
  0
LINE
 8
onewiredbox
10
8.48448378356777
20
9.86232041644815
30
15.0
11
8.41010398145714
21
7.65035456171698
31
15.0
  0
LINE
 8
onewiredbox
10
10.1199569292609
20
6.8022491755732
30
15.0
11
9.2882306811615
21
6.88016275476425
31
15.0
  0
LINE
 8
onewiredbox
10
8.81085954241165
20
51.5856997363412
30
15.0
11
8.81085954241165
21
51.5856997363412
31
11.0
  0
LINE
 8
onewiredbox
10
13.0577429694663
20
10.9435083108694
30
0.0
11
13.0577429694663
21
10.9435083108694
31
15.0
  0
LINE
 8
onewiredbox
10
10.5753740399252
20
51.1147401997531
30
15.0
11
10.1972370262212
21
51.0130240232312
31
15.0
  0
LINE
 8
onewiredbox
10
10.9119831578926
20
53.6909184353767
30
15.0
11
10.9119831578926
21
53.6909184353767
31
11.0
  0
LINE
 8
onewiredbox
10
9.08801684210737
20
51.3090815646233
30
15.0
11
8.81085954241165
21
51.5856997363412
31
15.0
  0
LINE
 8
onewiredbox
10
11.4873571978178
20
52.3056586351298
30
15.0
11
11.3863774838095
21
51.92732428689
31
15.0
  0
LINE
 8
onewiredbox
10
11.3863774838095
20
51.92732428689
30
15.0
11
11.1909184353767
21
51.5880168421074
31
15.0
  0
LINE
 8
onewiredbox
10
12.7093549842958
20
11.7027611603133
30
15.0
11
13.0577429694663
21
10.9435083108694
31
15.0
  0
LINE
 8
onewiredbox
10
8.51264280218221
20
52.6943413648702
30
15.0
11
8.51264280218221
21
52.6943413648702
31
11.0
  0
LINE
 8
onewiredbox
10
7.1706880864433
20
11.4949896641135
30
15.0
11
7.33419791123112
21
11.7254817919765
31
15.0
  0
LINE
 8
onewiredbox
10
7.33419791123112
20
11.7254817919765
30
15.0
11
7.65402634937223
21
12.1763289343664
31
15.0
  0
LINE
 8
onewiredbox
10
11.3863774838095
20
51.92732428689
30
15.0
11
11.3863774838095
21
51.92732428689
31
11.0
  0
LINE
 8
onewiredbox
10
6.8022491755732
20
9.88004307073909
30
15.0
11
6.88016275476425
21
10.7117693188385
31
15.0
  0
LINE
 8
onewiredbox
10
11.3852598002469
20
53.0753740399252
30
15.0
11
11.4869759767688
21
52.6972370262212
31
15.0
  0
LINE
 8
onewiredbox
10
11.4949896641135
20
12.8293119135567
30
15.0
11
12.1763289343664
21
12.3459736506278
31
15.0
  0
LINE
 8
onewiredbox
10
10.7435992974216
20
11.3010170538051
30
14.9859446701183
11
10.8200683498535
21
11.2417137398934
31
15.0
  0
LINE
 8
onewiredbox
10
65.427713943441
20
11.0000756855742
30
15.0
11
65.3606601717798
21
11.0606601717798
31
11.0
  0
LINE
 8
onewiredbox
10
10.8200683498535
20
11.2417137398934
30
15.0
11
10.8416583865789
21
11.2322888657197
31
14.9859446701183
  0
LINE
 8
onewiredbox
10
65.427713943441
20
11.0000756855742
30
15.0
11
65.5990381056766
21
10.75
31
11.0
  0
LINE
 8
onewiredbox
10
10.7435992974216
20
11.3010170538051
30
14.9859446701183
11
10.7028810529182
21
11.3251257394861
31
15.0
  0
LINE
 8
onewiredbox
10
10.7435992974216
20
11.3010170538051
30
14.9859446701183
11
10.7117693188385
21
13.1198372452357
31
15.0
  0
LINE
 8
onewiredbox
10
13.1198372452357
20
9.28823068116149
30
15.0
11
12.8293119135567
21
8.50501033588652
31
15.0
  0
LINE
 8
onewiredbox
10
10.9474198174453
20
53.679239170342
30
15.0
11
11.1891404575883
21
53.4143002636588
31
11.0
  0
LINE
 8
onewiredbox
10
10.9474198174453
20
53.679239170342
30
15.0
11
10.9119831578926
21
53.6909184353767
31
11.0
  0
LINE
 8
onewiredbox
10
10.7028810529182
20
11.3251257394861
30
15.0
11
10.7117693188385
21
13.1198372452357
31
15.0
  0
LINE
 8
onewiredbox
10
10.8200683498535
20
11.2417137398934
30
15.0
11
10.7117693188385
21
13.1198372452357
31
15.0
  0
LINE
 8
onewiredbox
10
100.976653188558
20
10.5948885358365
30
14.9859446701183
11
101.2
21
12.7712812921102
31
15.0
  0
LINE
 8
onewiredbox
10
8.53810782221301
20
10.3359631832883
30
11.0
11
8.50752431711075
21
10.0149732927703
31
15.0
  0
LINE
 8
onewiredbox
10
7.42790188893618
20
9.12032387348594
30
15.0
11
7.54352919682508
21
8.77969680851387
31
15.0
  0
LINE
 8
onewiredbox
10
7.33419791123112
20
11.7254817919765
30
15.0
11
7.33419791123112
21
9.83207624751786
31
15.0
  0
LINE
 8
onewiredbox
10
65.3820501818348
20
11.0327841679508
30
15.0
11
65.3606601717798
21
11.0606601717798
31
11.0
  0
LINE
 8
onewiredbox
10
7.54352919682508
20
8.77969680851387
30
15.0
11
7.90247622543022
21
8.15798231774389
31
15.0
  0
LINE
 8
onewiredbox
10
7.90247622543022
20
8.15798231774389
30
15.0
11
8.41010398145714
21
7.65035456171698
31
15.0
  0
LINE
 8
onewiredbox
10
8.53810782221301
20
10.3359631832883
30
11.0
11
8.49894713211168
21
9.95814596460042
31
14.9859446701183
  0
LINE
 8
onewiredbox
10
11.8936104922891
20
55.0820762475179
30
15.0
11
12.4863916864321
21
54.5144121677654
31
0.0
  0
LINE
 8
onewiredbox
10
8.53810782221301
20
10.3359631832883
30
11.0
11
8.52089965228126
21
10.1035903111975
31
15.0
  0
LINE
 8
onewiredbox
10
8.52089965228126
20
10.1035903111975
30
15.0
11
8.53810782221301
21
10.3359631832883
31
15.0
  0
LINE
 8
onewiredbox
10
7.33419791123112
20
9.83207624751786
30
15.0
11
7.42790188893618
21
9.12032387348594
31
15.0
  0
LINE
 8
onewiredbox
10
11.6839120388945
20
9.80183207858758
30
15.0
11
11.6215753348982
21
9.38882614069461
31
15.0
  0
LINE
 8
onewiredbox
10
10.4690207703255
20
8.27904329000589
30
15.0
11
10.0539537423008
21
8.23236211985451
31
15.0
  0
LINE
 8
onewiredbox
10
11.4847130690456
20
10.6057410927396
30
15.0
11
11.6372308687431
21
10.2168991066123
31
15.0
  0
LINE
 8
onewiredbox
10
11.2367524758038
20
10.9418590982066
30
15.0
11
11.4847130690456
21
10.6057410927396
31
15.0
  0
LINE
 8
onewiredbox
10
11.1939807619198
20
8.67952168294523
30
15.0
11
10.8578627564528
21
8.43156108970339
31
15.0
  0
LINE
 8
onewiredbox
10
11.6215753348982
20
9.38882614069461
30
15.0
11
11.4544689001153
21
9.00602696507621
31
15.0
  0
LINE
 8
onewiredbox
10
10.8578627564528
20
8.43156108970339
30
15.0
11
10.4690207703255
21
8.27904329000589
31
15.0
  0
LINE
 8
onewiredbox
10
11.4544689001153
20
9.00602696507621
30
15.0
11
11.1939807619198
21
8.67952168294523
31
15.0
  0
LINE
 8
onewiredbox
10
10.0539537423008
20
8.23236211985451
30
15.0
11
9.64094780440787
21
8.2946988238508
31
15.0
  0
LINE
 8
onewiredbox
10
11.6372308687431
20
10.2168991066123
30
15.0
11
11.6839120388945
21
9.80183207858758
31
15.0
  0
LINE
 8
onewiredbox
10
9.25814862878947
20
8.46180525863369
30
15.0
11
8.93164334665848
21
8.72229339682913
31
15.0
  0
LINE
 8
onewiredbox
10
8.93164334665848
20
8.72229339682913
30
15.0
11
8.68368275341665
21
9.05841140229617
31
15.0
  0
LINE
 8
onewiredbox
10
9.64094780440787
20
8.2946988238508
30
15.0
11
9.25814862878947
21
8.46180525863369
31
15.0
  0
LINE
 8
onewiredbox
10
8.68368275341665
20
9.05841140229617
30
15.0
11
8.53116495371914
21
9.44725338842343
31
15.0
  0
LINE
 8
onewiredbox
10
9.37244553719919
20
7.17578022522293
30
15.0
11
10.0841979112311
21
7.08207624751788
31
15.0
  0
LINE
 8
onewiredbox
10
8.53116495371914
20
9.44725338842343
30
15.0
11
8.56598264479855
21
9.56000656257048
31
15.0
  0
LINE
 8
onewiredbox
10
10.0841979112311
20
7.08207624751788
30
15.0
11
11.2482207103234
21
7.08207624751787
31
15.0
  0
LINE
 8
onewiredbox
10
8.70919791123112
20
7.45050638711067
30
15.0
11
9.37244553719919
21
7.17578022522293
31
15.0
  0
LINE
 8
onewiredbox
10
8.41010398145714
20
7.65035456171698
30
15.0
11
8.70919791123112
21
7.45050638711067
31
15.0
  0
LINE
 8
onewiredbox
10
11.0218987403575
20
11.0980541719131
30
15.0
11
11.2367524758038
21
10.9418590982066
31
15.0
  0
LINE
 8
onewiredbox
10
10.9474198174453
20
53.679239170342
30
15.0
11
11.1891404575883
21
53.4143002636588
31
15.0
  0
LINE
 8
onewiredbox
10
11.0218987403575
20
11.0980541719131
30
15.0
11
10.7028810529182
21
11.3251257394861
31
11.0
  0
LINE
 8
onewiredbox
10
10.8416583865789
20
11.2322888657197
30
14.9859446701183
11
10.7028810529182
21
11.3251257394861
31
11.0
  0
LINE
 8
onewiredbox
10
100.969838557286
20
53.1320762475179
30
15.0
11
101.048888739434
21
52.8882285676538
31
11.0
  0
LINE
 8
onewiredbox
10
99.4550604055082
20
8.25079620620917
30
15.0
11
99.2737609390011
21
8.2624811130094
31
15.0
  0
LINE
 8
onewiredbox
10
98.4144137306103
20
8.76012781324241
30
15.0
11
98.2548144597079
21
8.94171697238439
31
15.0
  0
LINE
 8
onewiredbox
10
100.934796837668
20
10.6722007330124
30
14.9973245581241
11
101.2
21
12.7712812921102
31
15.0
  0
LINE
 8
onewiredbox
10
63.0009618943233
20
10.75
30
11.0
11
62.8511112605664
21
10.3882285676538
31
15.0
  0
LINE
 8
onewiredbox
10
98.8000993902637
20
7.08207624751787
30
15.0
11
99.5139282236504
21
7.08207624751787
31
15.0
  0
LINE
 8
onewiredbox
10
99.2737609390011
20
8.2624811130094
30
15.0
11
98.8780977084081
21
8.39631077099556
31
15.0
  0
LINE
 8
onewiredbox
10
98.0
20
7.2287187078898
30
15.0
11
98.0930468317688
21
9.26885152485339
31
15.0
  0
LINE
 8
onewiredbox
10
100.913581362754
20
10.7224355226513
30
15.0
11
101.2
21
12.7712812921102
31
15.0
  0
LINE
 8
onewiredbox
10
99.5841979112311
20
7.08207624751787
30
15.0
11
99.4550604055082
21
8.25079620620917
31
15.0
  0
LINE
 8
onewiredbox
10
10.7028810529182
20
11.3251257394861
30
11.0
11
10.7435992974216
21
11.3010170538051
31
14.9859446701183
  0
LINE
 8
onewiredbox
10
98.7658305507603
20
7.08207624751787
30
15.0
11
98.8000993902637
21
7.08207624751787
31
15.0
  0
LINE
 8
onewiredbox
10
99.5139282236504
20
7.08207624751787
30
15.0
11
99.5841979112311
21
7.08207624751787
31
15.0
  0
LINE
 8
onewiredbox
10
100.873489709597
20
10.7680510793162
30
15.0
11
100.913581362754
21
10.7224355226513
31
15.0
  0
LINE
 8
onewiredbox
10
98.3009618943234
20
53.25
30
15.0
11
98.4528270613327
21
53.4634470974163
31
15.0
  0
LINE
 8
onewiredbox
10
98.5393398282202
20
53.5606601717798
30
11.0
11
98.3009618943234
21
53.25
31
15.0
  0
LINE
 8
onewiredbox
10
100.873489709597
20
10.7680510793162
30
15.0
11
100.774542215629
21
10.9329794122617
31
11.0
  0
LINE
 8
onewiredbox
10
98.0
20
9.66439977119307
30
15.0
11
97.9877384332746
21
9.7256942225188
31
15.0
  0
LINE
 8
onewiredbox
10
98.4818112101149
20
53.4856874170006
30
15.0
11
98.5393398282202
21
53.5606601717798
31
15.0
  0
LINE
 8
onewiredbox
10
98.5393398282202
20
53.5606601717798
30
11.0
11
98.4528270613327
21
53.4634470974163
31
15.0
  0
LINE
 8
onewiredbox
10
63.0009618943233
20
10.75
30
11.0
11
62.9229743136605
21
10.5860311252525
31
15.0
  0
LINE
 8
onewiredbox
10
100.913581362754
20
10.7224355226513
30
15.0
11
100.934796837668
21
10.6722007330124
31
14.9973245581241
  0
LINE
 8
onewiredbox
10
98.3948171956186
20
10.8930478195614
30
11.0
11
98.2047450199588
21
10.5506936904215
31
15.0
  0
LINE
 8
onewiredbox
10
98.0
20
7.2287187078898
30
15.0
11
98.0
21
9.66439977119307
31
15.0
  0
LINE
 8
onewiredbox
10
65.3650047419378
20
53.5412867987356
30
15.0
11
65.2905878971688
21
53.6263816484579
31
11.0
  0
LINE
 8
onewiredbox
10
65.4585571881291
20
53.4704154836217
30
15.0
11
65.2905878971688
21
53.6263816484579
31
11.0
  0
LINE
 8
onewiredbox
10
100.913581362754
20
10.7224355226513
30
15.0
11
100.774542215629
21
10.9329794122617
31
11.0
  0
LINE
 8
onewiredbox
10
97.9877384332746
20
9.7256942225188
30
15.0
11
98.0
21
9.9159409693566
31
15.0
  0
LINE
 8
onewiredbox
10
98.5393398282202
20
53.5606601717798
30
11.0
11
98.4818112101149
21
53.4856874170006
31
15.0
  0
LINE
 8
onewiredbox
10
100.774542215629
20
10.9329794122617
30
15.0
11
100.873489709597
21
10.7680510793162
31
15.0
  0
LINE
 8
onewiredbox
10
98.0
20
9.9159409693566
30
15.0
11
98.0146027767227
21
10.1425132197479
31
15.0
  0
LINE
 8
onewiredbox
10
98.0931735236262
20
10.3748051946193
30
15.0
11
98.1484324347088
21
10.5381764503409
31
15.0
  0
LINE
 8
onewiredbox
10
98.4008902277271
20
10.9039864412273
30
15.0
11
98.4308993513649
21
10.9303615523608
31
15.0
  0
LINE
 8
onewiredbox
10
98.4308993513649
20
10.9303615523608
30
15.0
11
98.6670205877383
21
11.1745422156295
31
15.0
  0
LINE
 8
onewiredbox
10
98.2047450199588
20
10.5506936904215
30
15.0
11
98.3801071372053
21
10.8857201189972
31
15.0
  0
LINE
 8
onewiredbox
10
98.3801071372053
20
10.8857201189972
30
15.0
11
98.3948171956186
21
10.8930478195614
31
11.0
  0
LINE
 8
onewiredbox
10
65.4585571881291
20
53.4704154836217
30
15.0
11
65.5483634557596
21
53.3316181108682
31
11.0
  0
LINE
 8
onewiredbox
10
100.969838557286
20
53.1320762475179
30
15.0
11
100.899038105677
21
53.25
31
11.0
  0
LINE
 8
onewiredbox
10
102.334197911231
20
9.83207624751787
30
15.0
11
102.334197911231
21
11.6483280028724
31
15.0
  0
LINE
 8
onewiredbox
10
98.2288941714776
20
10.6588800355047
30
15.0
11
98.3801071372053
21
10.8857201189972
31
15.0
  0
LINE
 8
onewiredbox
10
101.965767771638
20
8.45707624751787
30
15.0
11
102.124866625637
21
8.77969680851389
31
15.0
  0
LINE
 8
onewiredbox
10
102.124866625637
20
8.77969680851389
30
15.0
11
102.240493933526
21
9.12032387348594
31
15.0
  0
LINE
 8
onewiredbox
10
99.6371707041306
20
7.08905024800726
30
15.0
11
99.7870974617454
21
8.25492448916202
31
15.0
  0
LINE
 8
onewiredbox
10
100.323823718627
20
7.1852419808873
30
15.0
11
100.38807492435
21
7.20705232630729
31
15.0
  0
LINE
 8
onewiredbox
10
99.6371707041306
20
7.08905024800726
30
15.0
11
100.295950285263
21
7.17578022522294
31
15.0
  0
LINE
 8
onewiredbox
10
100.788288685257
20
8.77843237603851
30
15.0
11
100.474557186365
21
8.50269279599466
31
15.0
  0
LINE
 8
onewiredbox
10
101.180657389188
20
9.93845827251694
30
15.0
11
101.2
21
12.7712812921102
31
15.0
  0
LINE
 8
onewiredbox
10
100.38807492435
20
7.20705232630729
30
15.0
11
100.445578545359
21
7.22657217535871
31
15.0
  0
LINE
 8
onewiredbox
10
100.636577350235
20
7.29140753311184
30
15.0
11
100.959197911231
21
7.4505063871107
31
15.0
  0
LINE
 8
onewiredbox
10
102.240493933526
20
9.12032387348594
30
15.0
11
102.334197911231
21
9.83207624751787
31
15.0
  0
LINE
 8
onewiredbox
10
100.445578545359
20
7.22657217535871
30
15.0
11
100.636577350235
21
7.29140753311184
31
15.0
  0
LINE
 8
onewiredbox
10
101.965767771638
20
8.45707624751787
30
15.0
11
102.334197911231
21
11.6483280028724
31
15.0
  0
LINE
 8
onewiredbox
10
101.180657389188
20
9.93845827251694
30
15.0
11
101.15379304574
21
9.52163927528784
31
15.0
  0
LINE
 8
onewiredbox
10
101.862741699797
20
8.30288683469531
30
15.0
11
101.945933177651
21
8.4273916798565
31
15.0
  0
LINE
 8
onewiredbox
10
63.0009618943233
20
10.75
30
11.0
11
62.9468512161217
21
10.6193652668165
31
15.0
  0
LINE
 8
onewiredbox
10
100.934796837668
20
10.6722007330124
30
14.9973245581241
11
100.976653188558
21
10.5948885358365
31
14.9859446701183
  0
LINE
 8
onewiredbox
10
100.934796837668
20
10.6722007330124
30
14.9973245581241
11
100.975993500725
21
10.5971950150177
31
11.0
  0
LINE
 8
onewiredbox
10
100.934796837668
20
10.6722007330124
30
14.9973245581241
11
100.774542215629
21
10.9329794122617
31
11.0
  0
LINE
 8
onewiredbox
10
101.2
20
7.61140519879241
30
15.0
11
101.258291841005
21
7.65035456171701
31
15.0
  0
LINE
 8
onewiredbox
10
101.258291841005
20
7.65035456171701
30
15.0
11
101.528741559494
21
7.88753259925487
31
15.0
  0
LINE
 8
onewiredbox
10
100.9221299871
20
53.1942512666859
30
15.0
11
100.899038105677
21
53.25
31
11.0
  0
LINE
 8
onewiredbox
10
101.075021410768
20
7.5278971752701
30
15.0
11
101.129463934414
21
7.56427450656466
31
15.0
  0
LINE
 8
onewiredbox
10
101.80053248874
20
8.20978417093688
30
15.0
11
101.862741699797
21
8.30288683469531
31
15.0
  0
LINE
 8
onewiredbox
10
101.129463934414
20
7.56427450656466
30
15.0
11
101.166762807492
21
7.58919681677415
31
15.0
  0
LINE
 8
onewiredbox
10
101.528741559494
20
7.88753259925487
30
15.0
11
101.765919597032
21
8.1579823177439
31
15.0
  0
LINE
 8
onewiredbox
10
98.3948171956186
20
10.8930478195614
30
11.0
11
98.4308993513649
21
10.9303615523608
31
15.0
  0
LINE
 8
onewiredbox
10
101.166762807492
20
7.58919681677415
30
15.0
11
101.2
21
7.61140519879241
31
15.0
  0
LINE
 8
onewiredbox
10
101.862741699797
20
7.73725830020305
30
15.0
11
101.945933177651
21
8.4273916798565
31
15.0
  0
LINE
 8
onewiredbox
10
99.4550604055082
20
8.25079620620917
30
15.0
11
99.4291893036562
21
8.50975716542084
31
15.0
  0
LINE
 8
onewiredbox
10
99.7870974617454
20
8.25492448916202
30
15.0
11
99.8207127644118
21
8.51632689731676
31
15.0
  0
LINE
 8
onewiredbox
10
100.899038105677
20
53.25
30
15.0
11
100.9221299871
21
53.1942512666859
31
15.0
  0
LINE
 8
onewiredbox
10
100.9221299871
20
53.1942512666859
30
15.0
11
100.969838557286
21
53.1320762475179
31
15.0
  0
LINE
 8
onewiredbox
10
99.7870974617454
20
8.25492448916202
30
15.0
11
99.6905799362302
21
8.23561676956139
31
15.0
  0
LINE
 8
onewiredbox
10
99.6905799362302
20
8.23561676956139
30
15.0
11
99.4550604055082
21
8.25079620620917
31
15.0
  0
LINE
 8
onewiredbox
10
65.5483634557596
20
53.3316181108682
30
15.0
11
65.7148694489057
21
53.1406219203499
31
15.0
  0
LINE
 8
onewiredbox
10
101.107889559809
20
10.3022180004391
30
15.0
11
101.180657389188
21
9.93845827251694
31
15.0
  0
LINE
 8
onewiredbox
10
98.0930468317688
20
9.26885152485339
30
15.0
11
98.0696701649753
21
9.31612498448877
31
15.0
  0
LINE
 8
onewiredbox
10
8.29723883968668
20
12.7093549842958
30
15.0
11
8.52089965228126
21
10.1035903111975
31
15.0
  0
LINE
 8
onewiredbox
10
8.53116495371914
20
9.44725338842343
30
15.0
11
8.48448378356777
21
9.86232041644815
31
15.0
  0
LINE
 8
onewiredbox
10
11.0218987403575
20
11.0980541719131
30
15.0
11
10.9912213343451
21
11.1267097595749
31
15.0
  0
LINE
 8
onewiredbox
10
101.098725657487
20
10.348027510547
30
15.0
11
101.2
21
12.7712812921102
31
15.0
  0
LINE
 8
onewiredbox
10
8.29723883968668
20
12.7093549842958
30
15.0
11
8.50752431711075
21
10.0149732927703
31
15.0
  0
LINE
 8
onewiredbox
10
65.8770912260574
20
52.7557273056594
30
15.0
11
65.9341673735554
21
52.3419615714731
31
15.0
  0
LINE
 8
onewiredbox
10
63.9296438325087
20
50.7840659124784
30
15.0
11
63.5427741217388
21
50.9415193858881
31
15.0
  0
LINE
 8
onewiredbox
10
63.5427741217388
20
50.9415193858881
30
15.0
11
63.2098386343332
21
51.193737011414
31
15.0
  0
LINE
 8
onewiredbox
10
65.1427435840631
20
50.9514047098433
30
15.0
11
64.7578489693727
21
50.7891829326916
31
15.0
  0
LINE
 8
onewiredbox
10
64.7578489693727
20
50.7891829326916
30
15.0
11
64.3440832351863
21
50.7321067851936
31
15.0
  0
LINE
 8
onewiredbox
10
65.9341673735554
20
52.3419615714731
30
15.0
11
65.8822082462706
21
51.9275221687955
31
15.0
  0
LINE
 8
onewiredbox
10
65.7247547728609
20
51.5406524580256
30
15.0
11
65.472537147335
21
51.2077169706199
31
15.0
  0
LINE
 8
onewiredbox
10
63.2098386343332
20
51.193737011414
30
15.0
11
62.9535263735566
21
51.5235305746859
31
15.0
  0
LINE
 8
onewiredbox
10
62.9535263735566
20
51.5235305746859
30
15.0
11
62.7913045964048
21
51.9084251893763
31
15.0
  0
LINE
 8
onewiredbox
10
65.8822082462706
20
51.9275221687955
30
15.0
11
65.7247547728609
21
51.5406524580256
31
15.0
  0
LINE
 8
onewiredbox
10
64.3440832351863
20
50.7321067851936
30
15.0
11
63.9296438325087
21
50.7840659124784
31
15.0
  0
LINE
 8
onewiredbox
10
8.48448378356777
20
9.86232041644815
30
15.0
11
8.49894713211168
21
9.95814596460042
31
14.9859446701183
  0
LINE
 8
onewiredbox
10
65.472537147335
20
51.2077169706199
30
15.0
11
65.1427435840631
21
50.9514047098433
31
15.0
  0
LINE
 8
onewiredbox
10
65.7148694489057
20
53.1406219203499
30
15.0
11
65.8770912260574
21
52.7557273056594
31
15.0
  0
LINE
 8
onewiredbox
10
62.7913045964048
20
51.9084251893763
30
15.0
11
62.7342284489068
21
52.3221909235627
31
15.0
  0
LINE
 8
onewiredbox
10
101.083673102683
20
10.2207127644118
30
15.0
11
101.107889559809
21
10.3022180004391
31
15.0
  0
LINE
 8
onewiredbox
10
62.9229743136605
20
10.5860311252525
30
15.0
11
62.9468512161217
21
10.6193652668165
31
15.0
  0
LINE
 8
onewiredbox
10
62.7342284489068
20
52.3221909235627
30
15.0
11
62.7861875761916
21
52.7366303262403
31
15.0
  0
LINE
 8
onewiredbox
10
10.8416583865789
20
11.2322888657197
30
14.9859446701183
11
10.7435992974216
21
11.3010170538051
31
14.9859446701183
  0
LINE
 8
onewiredbox
10
100.976653188558
20
10.5948885358365
30
14.9859446701183
11
101.098725657487
21
10.348027510547
31
15.0
  0
LINE
 8
onewiredbox
10
8.51302402323123
20
52.3027629737788
30
15.0
11
8.48590964392187
21
52.4060668859905
31
15.0
  0
LINE
 8
onewiredbox
10
98.4528270613327
20
53.4634470974163
30
15.0
11
98.4818112101149
21
53.4856874170006
31
15.0
  0
LINE
 8
onewiredbox
10
98.3801071372053
20
10.8857201189972
30
15.0
11
98.4008902277271
21
10.9039864412273
31
15.0
  0
LINE
 8
onewiredbox
10
10.8817183874357
20
11.2103564431264
30
15.0
11
10.8416583865789
21
11.2322888657197
31
14.9859446701183
  0
LINE
 8
onewiredbox
10
10.8200683498535
20
11.2417137398934
30
15.0
11
10.8817183874357
21
11.2103564431264
31
15.0
  0
LINE
 8
onewiredbox
10
8.49894713211168
20
9.95814596460042
30
14.9859446701183
11
8.50752431711075
21
10.0149732927703
31
15.0
  0
LINE
 8
onewiredbox
10
10.9102471936728
20
11.202347236402
30
15.0
11
10.8817183874357
21
11.2103564431264
31
15.0
  0
LINE
 8
onewiredbox
10
8.52089965228126
20
10.1035903111975
30
15.0
11
8.50752431711075
21
10.0149732927703
31
15.0
  0
LINE
 8
onewiredbox
10
101.107889559809
20
10.3022180004391
30
15.0
11
101.098725657487
21
10.348027510547
31
15.0
  0
LINE
 8
onewiredbox
10
10.9912213343451
20
11.1267097595749
30
15.0
11
10.9102471936728
21
11.202347236402
31
15.0
  0
LINE
 8
onewiredbox
10
63.9117714323462
20
8.5511112605664
30
15.0
11
63.9117714323462
21
8.5511112605664
31
11.0
  0
LINE
 8
onewiredbox
10
98.3948171956186
20
10.8930478195614
30
11.0
11
98.6670205877383
21
11.1745422156295
31
11.0
  0
LINE
 8
onewiredbox
10
99.0028049849823
20
11.3759935007252
30
11.0
11
99.3792872355882
21
11.4836731026832
31
11.0
  0
LINE
 8
onewiredbox
10
61.9482815479395
20
7.82988011339506
30
15.0
11
61.4667460541851
21
8.51249467949705
31
15.0
  0
LINE
 8
onewiredbox
10
98.1097571654208
20
10.1708106963438
30
11.0
11
98.2047450199588
21
10.5506936904215
31
11.0
  0
LINE
 8
onewiredbox
10
98.2047450199588
20
10.5506936904215
30
11.0
11
98.3948171956186
21
10.8930478195614
31
11.0
  0
LINE
 8
onewiredbox
10
67.4217078653355
20
10.7035197250274
30
0.0
11
67.4217078653355
21
10.7035197250274
31
15.0
  0
LINE
 8
onewiredbox
10
98.4254577843705
20
9.06702058773831
30
11.0
11
98.2240064992748
21
9.40280498498226
31
11.0
  0
LINE
 8
onewiredbox
10
67.1332539458148
20
11.4875053205029
30
15.0
11
67.4217078653355
21
10.7035197250274
31
15.0
  0
LINE
 8
onewiredbox
10
99.3792872355882
20
11.4836731026832
30
11.0
11
99.7708106963438
21
11.4902428345792
31
11.0
  0
LINE
 8
onewiredbox
10
98.7069521804386
20
8.79481719561861
30
11.0
11
98.4254577843705
21
9.06702058773831
31
11.0
  0
LINE
 8
onewiredbox
10
61.4667460541851
20
8.51249467949705
30
0.0
11
61.4667460541851
21
8.51249467949705
31
15.0
  0
LINE
 8
onewiredbox
10
100.805182804381
20
9.10695218043858
30
11.0
11
100.532979412262
21
8.82545778437052
31
11.0
  0
LINE
 8
onewiredbox
10
61.9482815479395
20
7.82988011339506
30
0.0
11
61.9482815479395
21
7.82988011339506
31
15.0
  0
LINE
 8
onewiredbox
10
67.1332539458148
20
11.4875053205029
30
0.0
11
67.1332539458148
21
11.4875053205029
31
15.0
  0
LINE
 8
onewiredbox
10
64.3
20
8.5
30
15.0
11
64.3
21
8.5
31
11.0
  0
LINE
 8
onewiredbox
10
100.774542215629
20
10.9329794122617
30
11.0
11
100.975993500725
21
10.5971950150177
31
11.0
  0
LINE
 8
onewiredbox
10
99.3792872355882
20
11.4836731026832
30
15.0
11
99.3792872355882
21
11.4836731026832
31
11.0
  0
LINE
 8
onewiredbox
10
99.8207127644118
20
8.51632689731676
30
15.0
11
99.4291893036562
21
8.50975716542084
31
15.0
  0
LINE
 8
onewiredbox
10
98.7069521804386
20
8.79481719561861
30
15.0
11
98.4254577843705
21
9.06702058773831
31
15.0
  0
LINE
 8
onewiredbox
10
98.2047450199588
20
10.5506936904215
30
15.0
11
98.2047450199588
21
10.5506936904215
31
11.0
  0
LINE
 8
onewiredbox
10
98.4254577843705
20
9.06702058773831
30
15.0
11
98.2240064992748
21
9.40280498498226
31
15.0
  0
LINE
 8
onewiredbox
10
99.8207127644118
20
8.51632689731676
30
11.0
11
99.4291893036562
21
8.50975716542084
31
11.0
  0
LINE
 8
onewiredbox
10
99.0028049849823
20
11.3759935007252
30
15.0
11
99.3792872355882
21
11.4836731026832
31
15.0
  0
LINE
 8
onewiredbox
10
98.1097571654208
20
10.1708106963438
30
15.0
11
98.2047450199588
21
10.5506936904215
31
15.0
  0
LINE
 8
onewiredbox
10
99.3792872355882
20
11.4836731026832
30
15.0
11
99.7708106963438
21
11.4902428345792
31
15.0
  0
LINE
 8
onewiredbox
10
98.4254577843705
20
9.06702058773831
30
15.0
11
98.4254577843705
21
9.06702058773831
31
11.0
  0
LINE
 8
onewiredbox
10
64.4284095770874
20
13.1974225526996
30
15.0
11
65.2515879787305
21
13.0552381770879
31
15.0
  0
LINE
 8
onewiredbox
10
65.2515879787305
20
13.0552381770879
30
0.0
11
65.2515879787305
21
13.0552381770879
31
15.0
  0
LINE
 8
onewiredbox
10
62.8124946794971
20
12.8332539458149
30
0.0
11
62.8124946794971
21
12.8332539458149
31
15.0
  0
LINE
 8
onewiredbox
10
8.90194582808688
20
11.0218987403575
30
11.0
11
9.20384797285545
21
11.2712757174089
31
11.0
  0
LINE
 8
onewiredbox
10
65.2515879787305
20
13.0552381770879
30
15.0
11
66.0099172321967
21
12.7048443687275
31
15.0
  0
LINE
 8
onewiredbox
10
62.8124946794971
20
12.8332539458149
30
15.0
11
63.5964802749726
21
13.1217078653355
31
15.0
  0
LINE
 8
onewiredbox
10
63.3484120212695
20
6.94476182291207
30
0.0
11
63.3484120212695
21
6.94476182291207
31
15.0
  0
LINE
 8
onewiredbox
10
61.4667460541851
20
8.51249467949705
30
15.0
11
61.1782921346645
21
9.29648027497256
31
15.0
  0
LINE
 8
onewiredbox
10
64.1715904229126
20
6.80257744730036
30
15.0
11
63.3484120212695
21
6.94476182291207
31
15.0
  0
LINE
 8
onewiredbox
10
61.1782921346645
20
9.29648027497256
30
0.0
11
61.1782921346645
21
9.29648027497256
31
15.0
  0
LINE
 8
onewiredbox
10
63.5964802749726
20
13.1217078653355
30
0.0
11
63.5964802749726
21
13.1217078653355
31
15.0
  0
LINE
 8
onewiredbox
10
66.0099172321967
20
12.7048443687275
30
0.0
11
66.0099172321967
21
12.7048443687275
31
15.0
  0
LINE
 8
onewiredbox
10
64.1715904229126
20
6.80257744730036
30
0.0
11
64.1715904229126
21
6.80257744730036
31
15.0
  0
LINE
 8
onewiredbox
10
64.4284095770874
20
13.1974225526996
30
0.0
11
64.4284095770874
21
13.1974225526996
31
15.0
  0
LINE
 8
onewiredbox
10
9.20384797285545
20
11.2712757174089
30
11.0
11
9.56000656257048
21
11.4340173552014
31
11.0
  0
LINE
 8
onewiredbox
10
100.805182804381
20
9.10695218043858
30
15.0
11
100.532979412262
21
8.82545778437052
31
15.0
  0
LINE
 8
onewiredbox
10
8.56598264479855
20
9.56000656257048
30
11.0
11
8.50096691993729
21
9.94614997792281
31
11.0
  0
LINE
 8
onewiredbox
10
8.53810782221301
20
10.3359631832883
30
11.0
11
8.67487426051387
21
10.7028810529182
31
11.0
  0
LINE
 8
onewiredbox
10
8.72872428259106
20
9.20384797285544
30
11.0
11
8.56598264479855
21
9.56000656257048
31
11.0
  0
LINE
 8
onewiredbox
10
8.97810125964253
20
8.90194582808688
30
11.0
11
8.72872428259106
21
9.20384797285544
31
11.0
  0
LINE
 8
onewiredbox
10
8.50096691993729
20
9.94614997792281
30
11.0
11
8.53810782221301
21
10.3359631832883
31
11.0
  0
LINE
 8
onewiredbox
10
9.29711894708185
20
8.67487426051387
30
11.0
11
8.97810125964253
21
8.90194582808688
31
11.0
  0
LINE
 8
onewiredbox
10
8.67487426051387
20
10.7028810529182
30
11.0
11
8.90194582808688
21
11.0218987403575
31
11.0
  0
LINE
 8
onewiredbox
10
10.0538500220772
20
8.50096691993729
30
11.0
11
9.66403681671167
21
8.53810782221301
31
11.0
  0
LINE
 8
onewiredbox
10
9.66403681671167
20
8.53810782221301
30
11.0
11
9.29711894708185
21
8.67487426051387
31
11.0
  0
LINE
 8
onewiredbox
10
10.4399934374295
20
8.56598264479855
30
11.0
11
10.0538500220772
21
8.50096691993729
31
11.0
  0
LINE
 8
onewiredbox
10
10.7961520271446
20
8.72872428259106
30
11.0
11
10.4399934374295
21
8.56598264479855
31
11.0
  0
LINE
 8
onewiredbox
10
11.0980541719131
20
8.97810125964253
30
11.0
11
10.7961520271446
21
8.72872428259106
31
11.0
  0
LINE
 8
onewiredbox
10
3.0
20
32.1555016310962
30
2.68323414000281
11
5.0
21
32.1555016310962
31
2.68323414000281
  0
LINE
 8
onewiredbox
10
5.0
20
32.1555016310962
30
2.68323414000281
11
5.0
21
32.1555016310962
31
15.8832341400028
  0
LINE
 8
onewiredbox
10
99.6
20
54.0
30
15.0
11
99.6
21
54.0
31
11.0
  0
LINE
 8
onewiredbox
10
99.2117714323462
20
53.9488887394336
30
15.0
11
99.6
21
54.0
31
15.0
  0
LINE
 8
onewiredbox
10
99.2117714323462
20
53.9488887394336
30
11.0
11
99.6
21
54.0
31
11.0
  0
LINE
 8
onewiredbox
10
101.862741699797
20
50.2372583002031
30
0.0
11
101.862741699797
21
50.2372583002031
31
15.0
  0
LINE
 8
onewiredbox
10
101.862741699797
20
50.2372583002031
30
15.0
11
101.2
21
49.7287187078898
31
15.0
  0
LINE
 8
onewiredbox
10
101.2
20
49.7287187078898
30
0.0
11
101.2
21
49.7287187078898
31
15.0
  0
LINE
 8
onewiredbox
10
5.0
20
14.5555016310962
30
2.68323414000281
11
5.0
21
32.1555016310962
31
2.68323414000281
  0
LINE
 8
onewiredbox
10
5.00000000000001
20
37.2387907175538
30
16.148669051328
11
5.00000000000001
21
37.2387907175538
31
10.948669051328
  0
LINE
 8
onewiredbox
10
102.37128129211
20
54.1
30
0.0
11
102.37128129211
21
54.1
31
15.0
  0
LINE
 8
onewiredbox
10
102.37128129211
20
54.1
30
15.0
11
102.690962644125
21
53.3282209443281
31
15.0
  0
LINE
 8
onewiredbox
10
102.690962644125
20
53.3282209443281
30
0.0
11
102.690962644125
21
53.3282209443281
31
15.0
  0
LINE
 8
onewiredbox
10
98.5393398282202
20
51.4393398282202
30
15.0
11
98.5393398282202
21
51.4393398282202
31
11.0
  0
LINE
 8
onewiredbox
10
98.85
20
51.2009618943234
30
15.0
11
98.5393398282202
21
51.4393398282202
31
15.0
  0
LINE
 8
onewiredbox
10
98.85
20
51.2009618943234
30
15.0
11
98.85
21
51.2009618943234
31
11.0
  0
LINE
 8
onewiredbox
10
98.85
20
51.2009618943234
30
11.0
11
98.5393398282202
21
51.4393398282202
31
11.0
  0
LINE
 8
onewiredbox
10
5.00000000000001
20
47.2387907175538
30
10.948669051328
11
5.00000000000001
21
47.2387907175538
31
16.148669051328
  0
LINE
 8
onewiredbox
10
101.1
20
52.5
30
11.0
11
101.048888739434
21
52.1117714323462
31
11.0
  0
LINE
 8
onewiredbox
10
101.048888739434
20
52.8882285676538
30
11.0
11
101.1
21
52.5
31
11.0
  0
LINE
 8
onewiredbox
10
100.899038105677
20
53.25
30
11.0
11
101.048888739434
21
52.8882285676538
31
11.0
  0
LINE
 8
onewiredbox
10
100.66066017178
20
53.5606601717798
30
11.0
11
100.899038105677
21
53.25
31
11.0
  0
LINE
 8
onewiredbox
10
99.6
20
54.0
30
11.0
11
99.9882285676538
21
53.9488887394336
31
11.0
  0
LINE
 8
onewiredbox
10
98.5393398282202
20
53.5606601717798
30
11.0
11
98.85
21
53.7990381056767
31
11.0
  0
LINE
 8
onewiredbox
10
98.3009618943234
20
53.25
30
11.0
11
98.5393398282202
21
53.5606601717798
31
11.0
  0
LINE
 8
onewiredbox
10
98.1511112605664
20
52.8882285676538
30
11.0
11
98.3009618943234
21
53.25
31
11.0
  0
LINE
 8
onewiredbox
10
98.1
20
52.5
30
11.0
11
98.1511112605664
21
52.8882285676538
31
11.0
  0
LINE
 8
onewiredbox
10
98.1511112605664
20
52.1117714323462
30
11.0
11
98.1
21
52.5
31
11.0
  0
LINE
 8
onewiredbox
10
98.3009618943234
20
51.75
30
11.0
11
98.1511112605664
21
52.1117714323462
31
11.0
  0
LINE
 8
onewiredbox
10
98.5393398282202
20
51.4393398282202
30
11.0
11
98.3009618943234
21
51.75
31
11.0
  0
LINE
 8
onewiredbox
10
99.2117714323462
20
51.0511112605664
30
11.0
11
98.85
21
51.2009618943234
31
11.0
  0
LINE
 8
onewiredbox
10
99.6
20
51.0
30
11.0
11
99.2117714323462
21
51.0511112605664
31
11.0
  0
LINE
 8
onewiredbox
10
100.35
20
51.2009618943234
30
11.0
11
99.9882285676538
21
51.0511112605664
31
11.0
  0
LINE
 8
onewiredbox
10
100.899038105677
20
51.75
30
11.0
11
100.66066017178
21
51.4393398282202
31
11.0
  0
LINE
 8
onewiredbox
10
102.8
20
10.0
30
0.0
11
102.8
21
10.0
31
15.0
  0
LINE
 8
onewiredbox
10
102.690962644125
20
9.17177905567194
30
0.0
11
102.690962644125
21
9.17177905567194
31
15.0
  0
LINE
 8
onewiredbox
10
98.7717790556719
20
49.409037355875
30
0.0
11
98.7717790556719
21
49.409037355875
31
15.0
  0
LINE
 8
onewiredbox
10
98.7717790556719
20
49.409037355875
30
15.0
11
98.0
21
49.7287187078898
31
15.0
  0
LINE
 8
onewiredbox
10
98.1
20
52.5
30
15.0
11
98.1
21
52.5
31
11.0
  0
LINE
 8
onewiredbox
10
98.1511112605664
20
52.1117714323462
30
15.0
11
98.1
21
52.5
31
15.0
  0
LINE
 8
onewiredbox
10
98.1511112605664
20
52.1117714323462
30
15.0
11
98.1511112605664
21
52.1117714323462
31
11.0
  0
LINE
 8
onewiredbox
10
100.428220944328
20
13.090962644125
30
0.0
11
100.428220944328
21
13.090962644125
31
15.0
  0
LINE
 8
onewiredbox
10
100.428220944328
20
13.090962644125
30
15.0
11
101.2
21
12.7712812921102
31
15.0
  0
LINE
 8
onewiredbox
10
101.2
20
12.7712812921102
30
0.0
11
101.2
21
12.7712812921102
31
15.0
  0
LINE
 8
onewiredbox
10
102.37128129211
20
8.4
30
0.0
11
102.37128129211
21
8.4
31
15.0
  0
LINE
 8
onewiredbox
10
101.862741699797
20
7.73725830020305
30
0.0
11
101.862741699797
21
7.73725830020305
31
15.0
  0
LINE
 8
onewiredbox
10
98.3009618943234
20
53.25
30
15.0
11
98.3009618943234
21
53.25
31
11.0
  0
LINE
 8
onewiredbox
10
98.1511112605664
20
52.8882285676538
30
15.0
11
98.3009618943234
21
53.25
31
15.0
  0
LINE
 8
onewiredbox
10
98.1511112605664
20
52.8882285676538
30
15.0
11
98.1511112605664
21
52.8882285676538
31
11.0
  0
LINE
 8
onewiredbox
10
102.8
20
52.5
30
0.0
11
102.8
21
52.5
31
15.0
  0
LINE
 8
onewiredbox
10
102.690962644125
20
51.6717790556719
30
0.0
11
102.690962644125
21
51.6717790556719
31
15.0
  0
LINE
 8
onewiredbox
10
96.509037355875
20
10.8282209443281
30
0.0
11
96.509037355875
21
10.8282209443281
31
15.0
  0
LINE
 8
onewiredbox
10
98.0
20
12.7712812921102
30
15.0
11
98.7717790556719
21
13.090962644125
31
15.0
  0
LINE
 8
onewiredbox
10
98.7717790556719
20
13.090962644125
30
0.0
11
98.7717790556719
21
13.090962644125
31
15.0
  0
LINE
 8
onewiredbox
10
101.1
20
52.5
30
15.0
11
101.048888739434
21
52.1117714323462
31
15.0
  0
LINE
 8
onewiredbox
10
101.1
20
52.5
30
15.0
11
101.1
21
52.5
31
11.0
  0
LINE
 8
onewiredbox
10
96.509037355875
20
9.17177905567193
30
0.0
11
96.509037355875
21
9.17177905567193
31
15.0
  0
LINE
 8
onewiredbox
10
98.3009618943234
20
51.75
30
15.0
11
98.3009618943234
21
51.75
31
11.0
  0
LINE
 8
onewiredbox
10
107.0
20
3.0
30
42.3
11
107.0
21
3.0
31
-2.0
  0
LINE
 8
onewiredbox
10
3.0
20
3.0
30
42.3
11
107.0
21
3.0
31
42.3
  0
LINE
 8
onewiredbox
10
98.7693084092271
20
53.7371212703736
30
15.0
11
98.85
21
53.7990381056767
31
15.0
  0
LINE
 8
onewiredbox
10
98.5393398282202
20
53.5606601717798
30
15.0
11
98.7693084092271
21
53.7371212703736
31
15.0
  0
LINE
 8
onewiredbox
10
98.5393398282202
20
53.5606601717798
30
15.0
11
98.5393398282202
21
53.5606601717798
31
11.0
  0
LINE
 8
onewiredbox
10
101.2
20
12.7712812921102
30
15.0
11
101.862741699797
21
12.262741699797
31
15.0
  0
LINE
 8
onewiredbox
10
102.37128129211
20
11.6
30
15.0
11
102.690962644125
21
10.8282209443281
31
15.0
  0
LINE
 8
onewiredbox
10
102.690962644125
20
10.8282209443281
30
0.0
11
102.690962644125
21
10.8282209443281
31
15.0
  0
LINE
 8
onewiredbox
10
96.509037355875
20
9.17177905567193
30
15.0
11
96.4
21
10.0
31
15.0
  0
LINE
 8
onewiredbox
10
96.4
20
10.0
30
0.0
11
96.4
21
10.0
31
15.0
  0
LINE
 8
onewiredbox
10
107.0
20
3.0
30
42.3
11
107.0
21
59.0
31
42.2999999999999
  0
LINE
 8
onewiredbox
10
12.9230381778991
20
53.8022472156024
30
15.0
11
13.1604844480913
21
53.0013362677613
31
15.0
  0
LINE
 8
onewiredbox
10
12.0144121677654
20
50.0136083135679
30
15.0
11
11.3022472156024
21
49.5769618221009
31
15.0
  0
LINE
 8
onewiredbox
10
12.4863916864321
20
54.5144121677654
30
15.0
11
12.9230381778991
21
53.8022472156024
31
15.0
  0
LINE
 8
onewiredbox
10
7.70262805082391
20
53.7070762475178
30
15.0
11
7.54352919682508
21
53.3844556865219
31
15.0
  0
LINE
 8
onewiredbox
10
8.13965426296812
20
54.2766198957808
30
15.0
11
7.90247622543024
21
54.0061701772918
31
15.0
  0
LINE
 8
onewiredbox
10
10.9119831578926
20
53.6909184353767
30
15.0
11
10.9474198174453
21
53.679239170342
31
15.0
  0
LINE
 8
onewiredbox
10
7.51360831356792
20
50.4855878322346
30
15.0
11
7.33419791123112
21
50.7782039486918
31
15.0
  0
LINE
 8
onewiredbox
10
7.42790188893618
20
53.0438286215498
30
15.0
11
7.33419791123112
21
52.3320762475178
31
15.0
  0
LINE
 8
onewiredbox
10
10.5013362677613
20
49.3395155519087
30
15.0
11
9.66626008176965
21
49.3174510739064
31
15.0
  0
LINE
 8
onewiredbox
10
10.9474198174453
20
53.679239170342
30
15.0
11
11.2666776655447
21
53.4099174374148
31
15.0
  0
LINE
 8
onewiredbox
10
11.5053514725279
20
53.0671426086129
30
15.0
11
11.647176012876
21
52.674274222057
31
15.0
  0
LINE
 8
onewiredbox
10
11.2666776655447
20
53.4099174374148
30
15.0
11
11.5053514725279
21
53.0671426086129
31
15.0
  0
LINE
 8
onewiredbox
10
12.5892982596688
20
50.6196982895088
30
15.0
11
12.0144121677654
21
50.0136083135679
31
15.0
  0
LINE
 8
onewiredbox
10
11.647176012876
20
52.674274222057
30
15.0
11
11.6824861785404
21
52.2580856090452
31
15.0
  0
LINE
 8
onewiredbox
10
7.54352919682508
20
53.3844556865219
30
15.0
11
7.42790188893618
21
53.0438286215498
31
15.0
  0
LINE
 8
onewiredbox
10
13.1604844480913
20
53.0013362677613
30
15.0
11
13.1825489260936
21
52.1662600817697
31
15.0
  0
LINE
 8
onewiredbox
10
11.8936104922891
20
55.0820762475179
30
15.0
11
10.0841979112311
21
55.0820762475179
31
15.0
  0
LINE
 8
onewiredbox
10
11.6088756400839
20
51.84693933577
30
15.0
11
11.4313608340552
21
51.4688543413037
31
15.0
  0
LINE
 8
onewiredbox
10
11.6824861785404
20
52.2580856090452
30
15.0
11
11.6088756400839
21
51.84693933577
31
15.0
  0
LINE
 8
onewiredbox
10
11.4313608340552
20
51.4688543413037
30
15.0
11
11.162039101128
21
51.1495964932043
31
15.0
  0
LINE
 8
onewiredbox
10
11.162039101128
20
51.1495964932043
30
15.0
11
10.8192642723262
21
50.9109226862211
31
15.0
  0
LINE
 8
onewiredbox
10
7.01227204580661
20
53.6460722803259
30
15.0
11
7.41070174033122
21
54.3803017104912
31
15.0
  0
LINE
 8
onewiredbox
10
8.41010398145714
20
54.5137979333187
30
15.0
11
8.13965426296812
21
54.2766198957808
31
15.0
  0
LINE
 8
onewiredbox
10
7.41070174033122
20
54.3803017104912
30
0.0
11
7.41070174033122
21
54.3803017104912
31
15.0
  0
LINE
 8
onewiredbox
10
8.11969828950877
20
49.9107017403312
30
15.0
11
7.51360831356792
21
50.4855878322346
31
15.0
  0
LINE
 8
onewiredbox
10
11.3022472156024
20
49.5769618221009
30
15.0
11
10.5013362677613
21
49.3395155519087
31
15.0
  0
LINE
 8
onewiredbox
10
8.70919791123112
20
54.7136461079251
30
15.0
11
8.41010398145714
21
54.5137979333187
31
15.0
  0
LINE
 8
onewiredbox
10
8.69775278439762
20
55.4230381778991
30
15.0
11
9.49866373223869
21
55.6604844480913
31
15.0
  0
LINE
 8
onewiredbox
10
7.90247622543024
20
54.0061701772918
30
15.0
11
7.70262805082391
21
53.7070762475178
31
15.0
  0
LINE
 8
onewiredbox
10
7.33419791123112
20
52.3320762475178
30
15.0
11
7.33419791123112
21
50.7782039486918
31
15.0
  0
LINE
 8
onewiredbox
10
9.37244553719919
20
54.9883722698128
30
15.0
11
9.03181847222711
21
54.8727449619239
31
15.0
  0
LINE
 8
onewiredbox
10
7.07696182210087
20
51.1977527843976
30
15.0
11
6.83951555190867
21
51.9986637322387
31
15.0
  0
LINE
 8
onewiredbox
10
10.8192642723262
20
50.9109226862211
30
15.0
11
10.4263958857703
21
50.769098145873
31
15.0
  0
LINE
 8
onewiredbox
10
10.4263958857703
20
50.769098145873
30
15.0
11
10.0102072727585
21
50.7337879802086
31
15.0
  0
LINE
 8
onewiredbox
10
10.0102072727585
20
50.7337879802086
30
15.0
11
9.59906099948322
21
50.8073985186651
31
15.0
  0
LINE
 8
onewiredbox
10
8.61362251619048
20
53.07267571311
30
15.0
11
8.80908156462326
21
53.4119831578926
31
15.0
  0
LINE
 8
onewiredbox
10
11.1460722803259
20
55.4877279541934
30
15.0
11
11.8936104922891
21
55.0820762475179
31
15.0
  0
LINE
 8
onewiredbox
10
7.41070174033122
20
54.3803017104912
30
15.0
11
7.98558783223457
21
54.9863916864321
31
15.0
  0
LINE
 8
onewiredbox
10
8.66304434993436
20
51.5970098864228
30
15.0
11
8.52121980958629
21
51.9898782729787
31
15.0
  0
LINE
 8
onewiredbox
10
8.52121980958629
20
51.9898782729787
30
15.0
11
8.51302402323123
21
52.3027629737788
31
15.0
  0
LINE
 8
onewiredbox
10
9.42462596007484
20
53.8852598002469
30
15.0
11
9.80276297377883
21
53.9869759767688
31
15.0
  0
LINE
 8
onewiredbox
10
9.08569973634119
20
53.6891404575884
30
15.0
11
9.42462596007484
21
53.8852598002469
31
15.0
  0
LINE
 8
onewiredbox
10
7.07696182210087
20
51.1977527843976
30
0.0
11
7.07696182210087
21
51.1977527843976
31
15.0
  0
LINE
 8
onewiredbox
10
11.8803017104912
20
55.0892982596688
30
0.0
11
11.8936104922891
21
55.0820762475179
31
15.0
  0
LINE
 8
onewiredbox
10
9.80276297377883
20
53.9869759767688
30
15.0
11
10.1943413648702
21
53.9873571978178
31
15.0
  0
LINE
 8
onewiredbox
10
8.51277735343235
20
52.5561345103866
30
15.0
11
8.51264280218221
21
52.6943413648702
31
15.0
  0
LINE
 8
onewiredbox
10
10.5013362677613
20
49.3395155519087
30
0.0
11
10.5013362677613
21
49.3395155519087
31
15.0
  0
LINE
 8
onewiredbox
10
8.54637450593752
20
52.8207218194062
30
15.0
11
8.61362251619048
21
53.07267571311
31
15.0
  0
LINE
 8
onewiredbox
10
9.22097600501693
20
50.9849133246938
30
15.0
11
8.9017181569175
21
51.2542350576209
31
15.0
  0
LINE
 8
onewiredbox
10
8.51302402323123
20
52.3027629737788
30
15.0
11
8.51277735343235
21
52.5561345103866
31
15.0
  0
LINE
 8
onewiredbox
10
8.51264280218221
20
52.6943413648702
30
15.0
11
8.54637450593752
21
52.8207218194062
31
15.0
  0
LINE
 8
onewiredbox
10
6.83951555190867
20
51.9986637322387
30
0.0
11
6.83951555190867
21
51.9986637322387
31
15.0
  0
LINE
 8
onewiredbox
10
10.57267571311
20
53.8863774838095
30
15.0
11
10.8654420408486
21
53.7177285823107
31
15.0
  0
LINE
 8
onewiredbox
10
8.9017181569175
20
51.2542350576209
30
15.0
11
8.66304434993436
21
51.5970098864228
31
15.0
  0
LINE
 8
onewiredbox
10
9.59906099948322
20
50.8073985186651
30
15.0
11
9.22097600501693
21
50.9849133246938
31
15.0
  0
LINE
 8
onewiredbox
10
8.80908156462326
20
53.4119831578926
30
15.0
11
9.08569973634119
21
53.6891404575884
31
15.0
  0
LINE
 8
onewiredbox
10
10.1943413648702
20
53.9873571978178
30
15.0
11
10.57267571311
21
53.8863774838095
31
15.0
  0
LINE
 8
onewiredbox
10
10.8654420408486
20
53.7177285823107
30
15.0
11
10.9119831578926
21
53.6909184353767
31
15.0
  0
LINE
 8
onewiredbox
10
62.8789348921415
20
52.0198188266633
30
11.0
11
62.803076478722
21
52.4039793176207
31
11.0
  0
LINE
 8
onewiredbox
10
63.0516365442404
20
51.6683818891318
30
15.0
11
63.0516365442404
21
51.6683818891318
31
11.0
  0
LINE
 8
onewiredbox
10
7.33419791123112
20
50.7782039486918
30
15.0
11
7.07696182210087
21
51.1977527843976
31
15.0
  0
LINE
 8
onewiredbox
10
12.9230381778991
20
53.8022472156024
30
0.0
11
12.9230381778991
21
53.8022472156024
31
15.0
  0
LINE
 8
onewiredbox
10
62.803076478722
20
52.4039793176207
30
15.0
11
62.803076478722
21
52.4039793176207
31
11.0
  0
LINE
 8
onewiredbox
10
7.98558783223457
20
54.9863916864321
30
15.0
11
8.69775278439762
21
55.4230381778991
31
15.0
  0
LINE
 8
onewiredbox
10
62.9556158618611
20
53.1653054104099
30
15.0
11
62.9556158618611
21
53.1653054104099
31
11.0
  0
LINE
 8
onewiredbox
10
65.5483634557596
20
53.3316181108682
30
11.0
11
65.7210651078585
21
52.9801811733367
31
11.0
  0
LINE
 8
onewiredbox
10
13.1604844480913
20
53.0013362677613
30
0.0
11
13.1604844480913
21
53.0013362677613
31
15.0
  0
LINE
 8
onewiredbox
10
63.1736183515421
20
53.4905878971688
30
15.0
11
63.1736183515421
21
53.4905878971688
31
11.0
  0
LINE
 8
onewiredbox
10
63.4683818891318
20
53.7483634557596
30
11.0
11
63.8198188266633
21
53.9210651078585
31
11.0
  0
LINE
 8
onewiredbox
10
7.51360831356792
20
50.4855878322346
30
0.0
11
7.51360831356792
21
50.4855878322346
31
15.0
  0
LINE
 8
onewiredbox
10
65.7210651078585
20
52.9801811733367
30
15.0
11
65.7210651078585
21
52.9801811733367
31
11.0
  0
LINE
 8
onewiredbox
10
65.5483634557596
20
53.3316181108682
30
15.0
11
65.5483634557596
21
53.3316181108682
31
11.0
  0
LINE
 8
onewiredbox
10
6.81745107390639
20
52.8337399182304
30
0.0
11
6.81745107390639
21
52.8337399182304
31
15.0
  0
LINE
 8
onewiredbox
10
62.9556158618611
20
53.1653054104099
30
11.0
11
63.1736183515421
21
53.4905878971688
31
11.0
  0
LINE
 8
onewiredbox
10
6.83951555190867
20
51.9986637322387
30
15.0
11
6.81745107390639
21
52.8337399182304
31
15.0
  0
LINE
 8
onewiredbox
10
63.0516365442404
20
51.6683818891318
30
11.0
11
62.8789348921415
21
52.0198188266633
31
11.0
  0
LINE
 8
onewiredbox
10
62.8789348921415
20
52.0198188266633
30
15.0
11
62.8789348921415
21
52.0198188266633
31
11.0
  0
LINE
 8
onewiredbox
10
65.1316181108682
20
51.2516365442404
30
15.0
11
65.1316181108682
21
51.2516365442404
31
11.0
  0
LINE
 8
onewiredbox
10
63.4683818891318
20
53.7483634557596
30
15.0
11
63.4683818891318
21
53.7483634557596
31
11.0
  0
LINE
 8
onewiredbox
10
63.8198188266633
20
53.9210651078585
30
15.0
11
63.8198188266633
21
53.9210651078585
31
11.0
  0
LINE
 8
onewiredbox
10
7.98558783223457
20
54.9863916864321
30
0.0
11
7.98558783223457
21
54.9863916864321
31
15.0
  0
LINE
 8
onewiredbox
10
62.8292309294945
20
52.7946834594006
30
15.0
11
62.8292309294945
21
52.7946834594006
31
11.0
  0
LINE
 8
onewiredbox
10
65.6443841381389
20
51.8346945895902
30
15.0
11
65.6443841381389
21
51.8346945895902
31
11.0
  0
LINE
 8
onewiredbox
10
64.3960206823793
20
51.003076478722
30
11.0
11
64.0053165405994
21
51.0292309294945
31
11.0
  0
LINE
 8
onewiredbox
10
65.796923521278
20
52.5960206823793
30
11.0
11
65.7707690705055
21
52.2053165405994
31
11.0
  0
LINE
 8
onewiredbox
10
65.4263816484579
20
51.5094121028312
30
15.0
11
65.4263816484579
21
51.5094121028312
31
11.0
  0
LINE
 8
onewiredbox
10
64.7801811733367
20
51.0789348921415
30
15.0
11
64.7801811733367
21
51.0789348921415
31
11.0
  0
LINE
 8
onewiredbox
10
64.0053165405994
20
51.0292309294945
30
15.0
11
64.0053165405994
21
51.0292309294945
31
11.0
  0
LINE
 8
onewiredbox
10
65.7707690705055
20
52.2053165405994
30
15.0
11
65.7707690705055
21
52.2053165405994
31
11.0
  0
LINE
 8
onewiredbox
10
62.803076478722
20
52.4039793176207
30
11.0
11
62.8292309294945
21
52.7946834594006
31
11.0
  0
LINE
 8
onewiredbox
10
64.2039793176207
20
53.996923521278
30
15.0
11
64.2039793176207
21
53.996923521278
31
11.0
  0
LINE
 8
onewiredbox
10
65.4263816484579
20
51.5094121028312
30
11.0
11
65.1316181108682
21
51.2516365442404
31
11.0
  0
LINE
 8
onewiredbox
10
64.3960206823793
20
51.003076478722
30
15.0
11
64.3960206823793
21
51.003076478722
31
11.0
  0
LINE
 8
onewiredbox
10
64.9653054104098
20
53.8443841381389
30
15.0
11
64.9653054104098
21
53.8443841381389
31
11.0
  0
LINE
 8
onewiredbox
10
64.7801811733367
20
51.0789348921415
30
11.0
11
64.3960206823793
21
51.003076478722
31
11.0
  0
LINE
 8
onewiredbox
10
63.8198188266633
20
53.9210651078585
30
11.0
11
64.2039793176207
21
53.996923521278
31
11.0
  0
LINE
 8
onewiredbox
10
64.5946834594006
20
53.9707690705055
30
15.0
11
64.5946834594006
21
53.9707690705055
31
11.0
  0
LINE
 8
onewiredbox
10
64.5946834594006
20
53.9707690705055
30
11.0
11
64.9653054104098
21
53.8443841381389
31
11.0
  0
LINE
 8
onewiredbox
10
65.796923521278
20
52.5960206823793
30
15.0
11
65.796923521278
21
52.5960206823793
31
11.0
  0
LINE
 8
onewiredbox
10
11.3022472156024
20
49.5769618221009
30
0.0
11
11.3022472156024
21
49.5769618221009
31
15.0
  0
LINE
 8
onewiredbox
10
98.198557265176
20
51.5320762475179
30
15.0
11
98.0387165891686
21
51.9179657753538
31
15.0
  0
LINE
 8
onewiredbox
10
97.9841979112311
20
52.3320762475179
30
15.0
11
98.0387165891686
21
52.7461867196819
31
15.0
  0
LINE
 8
onewiredbox
10
98.4528270613327
20
51.2007053976194
30
15.0
11
98.198557265176
21
51.5320762475179
31
15.0
  0
LINE
 8
onewiredbox
10
98.0387165891686
20
51.9179657753538
30
15.0
11
97.9841979112311
21
52.3320762475179
31
15.0
  0
LINE
 8
onewiredbox
10
98.7717790556719
20
6.90903735587498
30
15.0
11
98.3540262166497
21
7.08207624751787
31
15.0
  0
LINE
 8
onewiredbox
10
100.428220944328
20
6.90903735587498
30
0.0
11
100.428220944328
21
6.90903735587498
31
15.0
  0
LINE
 8
onewiredbox
10
96.4
20
52.5
30
15.0
11
96.509037355875
21
53.3282209443281
31
15.0
  0
LINE
 8
onewiredbox
10
101.2
20
7.2287187078898
30
0.0
11
101.2
21
7.2287187078898
31
15.0
  0
LINE
 8
onewiredbox
10
100.35
20
51.2009618943234
30
15.0
11
99.9882285676538
21
51.0511112605664
31
15.0
  0
LINE
 8
onewiredbox
10
98.7717790556719
20
6.90903735587498
30
0.0
11
98.7717790556719
21
6.90903735587498
31
15.0
  0
LINE
 8
onewiredbox
10
96.4
20
52.5
30
0.0
11
96.4
21
52.5
31
15.0
  0
LINE
 8
onewiredbox
10
101.2
20
49.7287187078898
30
15.0
11
100.428220944328
21
49.409037355875
31
15.0
  0
LINE
 8
onewiredbox
10
98.3540262166497
20
7.08207624751787
30
15.0
11
98.0
21
7.2287187078898
31
15.0
  0
LINE
 8
onewiredbox
10
98.0387165891686
20
52.7461867196819
30
15.0
11
98.198557265176
21
53.1320762475179
31
15.0
  0
LINE
 8
onewiredbox
10
101.2
20
7.2287187078898
30
15.0
11
100.428220944328
21
6.90903735587498
31
15.0
  0
LINE
 8
onewiredbox
10
97.337258300203
20
50.2372583002031
30
15.0
11
96.8287187078898
21
50.9
31
15.0
  0
LINE
 8
onewiredbox
10
99.6
20
6.8
30
0.0
11
99.6
21
6.8
31
15.0
  0
LINE
 8
onewiredbox
10
99.6
20
6.8
30
15.0
11
98.7717790556719
21
6.90903735587498
31
15.0
  0
LINE
 8
onewiredbox
10
102.334197911231
20
50.8516719971277
30
15.0
11
101.862741699797
21
50.2372583002031
31
15.0
  0
LINE
 8
onewiredbox
10
100.428220944328
20
6.90903735587498
30
15.0
11
99.6
21
6.8
31
15.0
  0
LINE
 8
onewiredbox
10
100.428220944328
20
49.409037355875
30
15.0
11
99.6
21
49.3
31
15.0
  0
LINE
 8
onewiredbox
10
98.7717790556719
20
55.590962644125
30
15.0
11
99.6
21
55.7
31
15.0
  0
LINE
 8
onewiredbox
10
99.6
20
55.7
30
0.0
11
99.6
21
55.7
31
15.0
  0
LINE
 8
onewiredbox
10
96.509037355875
20
51.6717790556719
30
15.0
11
96.4
21
52.5
31
15.0
  0
LINE
 8
onewiredbox
10
101.862741699797
20
7.73725830020305
30
15.0
11
101.2
21
7.2287187078898
31
15.0
  0
LINE
 8
onewiredbox
10
100.428220944328
20
49.409037355875
30
0.0
11
100.428220944328
21
49.409037355875
31
15.0
  0
LINE
 8
onewiredbox
10
102.37128129211
20
50.9
30
15.0
11
102.334197911231
21
50.8516719971277
31
15.0
  0
LINE
 8
onewiredbox
10
101.862741699797
20
54.762741699797
30
15.0
11
102.37128129211
21
54.1
31
15.0
  0
LINE
 8
onewiredbox
10
98.7717790556719
20
13.090962644125
30
15.0
11
99.6
21
13.2
31
15.0
  0
LINE
 8
onewiredbox
10
99.6
20
49.3
30
0.0
11
99.6
21
49.3
31
15.0
  0
LINE
 8
onewiredbox
10
96.8287187078898
20
54.1
30
15.0
11
97.337258300203
21
54.762741699797
31
15.0
  0
LINE
 8
onewiredbox
10
97.7534231852177
20
55.0820762475179
30
15.0
11
98.0
21
55.2712812921102
31
15.0
  0
LINE
 8
onewiredbox
10
99.6
20
13.2
30
15.0
11
100.428220944328
21
13.090962644125
31
15.0
  0
LINE
 8
onewiredbox
10
98.3009618943234
20
51.75
30
15.0
11
98.1511112605664
21
52.1117714323462
31
15.0
  0
LINE
 8
onewiredbox
10
101.862741699797
20
54.762741699797
30
0.0
11
101.862741699797
21
54.762741699797
31
15.0
  0
LINE
 8
onewiredbox
10
101.2
20
55.2712812921102
30
15.0
11
101.862741699797
21
54.762741699797
31
15.0
  0
LINE
 8
onewiredbox
10
99.6
20
13.2
30
0.0
11
99.6
21
13.2
31
15.0
  0
LINE
 8
onewiredbox
10
102.690962644125
20
53.3282209443281
30
15.0
11
102.8
21
52.5
31
15.0
  0
LINE
 8
onewiredbox
10
96.4
20
10.0
30
15.0
11
96.509037355875
21
10.8282209443281
31
15.0
  0
LINE
 8
onewiredbox
10
97.337258300203
20
54.762741699797
30
15.0
11
97.7534231852177
21
55.0820762475179
31
15.0
  0
LINE
 8
onewiredbox
10
102.334197911231
20
50.8516719971277
30
15.0
11
102.334197911231
21
52.3320762475179
31
15.0
  0
LINE
 8
onewiredbox
10
99.6
20
49.3
30
15.0
11
98.7717790556719
21
49.409037355875
31
15.0
  0
LINE
 8
onewiredbox
10
101.048888739434
20
52.8882285676538
30
15.0
11
101.048888739434
21
52.8882285676538
31
11.0
  0
LINE
 8
onewiredbox
10
99.6
20
55.7
30
15.0
11
100.428220944328
21
55.590962644125
31
15.0
  0
LINE
 8
onewiredbox
10
102.334197911231
20
52.3320762475179
30
15.0
11
102.240493933526
21
53.0438286215498
31
15.0
  0
LINE
 8
onewiredbox
10
97.337258300203
20
54.762741699797
30
0.0
11
97.337258300203
21
54.762741699797
31
15.0
  0
LINE
 8
onewiredbox
10
102.240493933526
20
53.0438286215498
30
15.0
11
102.124866625637
21
53.3844556865219
31
15.0
  0
LINE
 8
onewiredbox
10
101.048888739434
20
52.8882285676538
30
15.0
11
101.1
21
52.5
31
15.0
  0
LINE
 8
onewiredbox
10
63.6346945895901
20
51.1556158618611
30
15.0
11
63.6346945895901
21
51.1556158618611
31
11.0
  0
LINE
 8
onewiredbox
10
101.765919597032
20
54.0061701772918
30
15.0
11
101.528741559494
21
54.2766198957809
31
15.0
  0
LINE
 8
onewiredbox
10
12.4863916864321
20
54.5144121677654
30
0.0
11
12.4863916864321
21
54.5144121677654
31
15.0
  0
LINE
 8
onewiredbox
10
99.5841979112311
20
55.0820762475179
30
15.0
11
97.7534231852177
21
55.0820762475179
31
15.0
  0
LINE
 8
onewiredbox
10
98.1
20
52.5
30
15.0
11
98.1511112605664
21
52.8882285676538
31
15.0
  0
LINE
 8
onewiredbox
10
101.258291841005
20
54.5137979333187
30
15.0
11
100.959197911231
21
54.7136461079251
31
15.0
  0
LINE
 8
onewiredbox
10
65.2905878971688
20
53.6263816484579
30
15.0
11
65.2905878971688
21
53.6263816484579
31
11.0
  0
LINE
 8
onewiredbox
10
100.295950285263
20
54.9883722698128
30
15.0
11
99.5841979112311
21
55.0820762475179
31
15.0
  0
LINE
 8
onewiredbox
10
101.528741559494
20
54.2766198957809
30
15.0
11
101.258291841005
21
54.5137979333187
31
15.0
  0
LINE
 8
onewiredbox
10
101.965767771638
20
53.7070762475179
30
15.0
11
101.765919597032
21
54.0061701772918
31
15.0
  0
LINE
 8
onewiredbox
10
100.969838557286
20
53.1320762475179
30
15.0
11
101.048888739434
21
52.8882285676538
31
15.0
  0
LINE
 8
onewiredbox
10
102.124866625637
20
53.3844556865219
30
15.0
11
101.965767771638
21
53.7070762475179
31
15.0
  0
LINE
 8
onewiredbox
10
100.959197911231
20
54.7136461079251
30
15.0
11
100.636577350235
21
54.8727449619239
31
15.0
  0
LINE
 8
onewiredbox
10
100.636577350235
20
54.8727449619239
30
15.0
11
100.295950285263
21
54.9883722698128
31
15.0
  0
LINE
 8
onewiredbox
10
101.129679233294
20
52.7461867196819
30
15.0
11
101.184197911231
21
52.3320762475179
31
15.0
  0
LINE
 8
onewiredbox
10
101.184197911231
20
52.3320762475179
30
15.0
11
101.129679233294
21
51.9179657753538
31
15.0
  0
LINE
 8
onewiredbox
10
62.8292309294945
20
52.7946834594006
30
11.0
11
62.9556158618611
21
53.1653054104099
31
11.0
  0
LINE
 8
onewiredbox
10
101.048888739434
20
52.8882285676538
30
15.0
11
101.129679233294
21
52.7461867196819
31
15.0
  0
LINE
 8
onewiredbox
10
101.129679233294
20
51.9179657753538
30
15.0
11
100.969838557286
21
51.5320762475179
31
15.0
  0
LINE
 8
onewiredbox
10
100.428220944328
20
55.590962644125
30
0.0
11
100.428220944328
21
55.590962644125
31
15.0
  0
LINE
 8
onewiredbox
10
98.7717790556719
20
55.590962644125
30
0.0
11
98.7717790556719
21
55.590962644125
31
15.0
  0
LINE
 8
onewiredbox
10
101.2
20
55.2712812921102
30
0.0
11
101.2
21
55.2712812921102
31
15.0
  0
LINE
 8
onewiredbox
10
100.428220944328
20
55.590962644125
30
15.0
11
101.2
21
55.2712812921102
31
15.0
  0
LINE
 8
onewiredbox
10
102.690962644125
20
10.8282209443281
30
15.0
11
102.8
21
10.0
31
15.0
  0
LINE
 8
onewiredbox
10
102.690962644125
20
9.17177905567194
30
15.0
11
102.37128129211
21
8.4
31
15.0
  0
LINE
 8
onewiredbox
10
63.3094121028312
20
51.3736183515421
30
15.0
11
63.3094121028312
21
51.3736183515421
31
11.0
  0
LINE
 8
onewiredbox
10
102.690962644125
20
51.6717790556719
30
15.0
11
102.37128129211
21
50.9
31
15.0
  0
LINE
 8
onewiredbox
10
5.0
20
5.0
30
42.3
11
5.0
21
57.0
31
42.2999999999999
  0
LINE
 8
onewiredbox
10
98.0
20
55.2712812921102
30
0.0
11
98.0
21
55.2712812921102
31
15.0
  0
LINE
 8
onewiredbox
10
98.0
20
55.2712812921102
30
15.0
11
98.7717790556719
21
55.590962644125
31
15.0
  0
LINE
 8
onewiredbox
10
102.37128129211
20
50.9
30
0.0
11
102.37128129211
21
50.9
31
15.0
  0
LINE
 8
onewiredbox
10
100.969838557286
20
51.5320762475179
30
15.0
11
100.71556876113
21
51.2007053976194
31
15.0
  0
LINE
 8
onewiredbox
10
100.71556876113
20
51.2007053976194
30
15.0
11
100.384197911231
21
50.9464356014628
31
15.0
  0
LINE
 8
onewiredbox
10
100.384197911231
20
50.9464356014628
30
15.0
11
99.9983083833952
21
50.7865949254554
31
15.0
  0
LINE
 8
onewiredbox
10
96.509037355875
20
53.3282209443281
30
0.0
11
96.509037355875
21
53.3282209443281
31
15.0
  0
LINE
 8
onewiredbox
10
99.5841979112311
20
50.7320762475179
30
15.0
11
99.1700874390671
21
50.7865949254554
31
15.0
  0
LINE
 8
onewiredbox
10
96.8287187078898
20
54.1
30
0.0
11
96.8287187078898
21
54.1
31
15.0
  0
LINE
 8
onewiredbox
10
99.1700874390671
20
50.7865949254554
30
15.0
11
98.7841979112311
21
50.9464356014628
31
15.0
  0
LINE
 8
onewiredbox
10
96.509037355875
20
53.3282209443281
30
15.0
11
96.8287187078898
21
54.1
31
15.0
  0
LINE
 8
onewiredbox
10
98.7841979112311
20
50.9464356014628
30
15.0
11
98.4528270613327
21
51.2007053976194
31
15.0
  0
LINE
 8
onewiredbox
10
63.3094121028312
20
51.3736183515421
30
11.0
11
63.0516365442404
21
51.6683818891318
31
11.0
  0
LINE
 8
onewiredbox
10
65.7707690705055
20
52.2053165405994
30
11.0
11
65.6443841381389
21
51.8346945895902
31
11.0
  0
LINE
 8
onewiredbox
10
64.0053165405994
20
51.0292309294945
30
11.0
11
63.6346945895901
21
51.1556158618611
31
11.0
  0
LINE
 8
onewiredbox
10
65.6443841381389
20
51.8346945895902
30
11.0
11
65.4263816484579
21
51.5094121028312
31
11.0
  0
LINE
 8
onewiredbox
10
96.509037355875
20
51.6717790556719
30
0.0
11
96.509037355875
21
51.6717790556719
31
15.0
  0
LINE
 8
onewiredbox
10
96.8287187078898
20
50.9
30
0.0
11
96.8287187078898
21
50.9
31
15.0
  0
LINE
 8
onewiredbox
10
99.9983083833952
20
50.7865949254554
30
15.0
11
99.5841979112311
21
50.7320762475179
31
15.0
  0
LINE
 8
onewiredbox
10
96.8287187078898
20
50.9
30
15.0
11
96.509037355875
21
51.6717790556719
31
15.0
  0
LINE
 8
onewiredbox
10
65.8
20
10.0
30
15.0
11
65.7488887394336
21
9.61177143234622
31
15.0
  0
LINE
 8
onewiredbox
10
65.3606601717798
20
8.93933982822018
30
15.0
11
65.3606601717798
21
8.93933982822018
31
11.0
  0
LINE
 8
onewiredbox
10
63.1736183515421
20
53.4905878971688
30
11.0
11
63.4683818891318
21
53.7483634557596
31
11.0
  0
LINE
 8
onewiredbox
10
62.8511112605664
20
9.61177143234622
30
15.0
11
62.8
21
10.0
31
15.0
  0
LINE
 8
onewiredbox
10
65.2905878971688
20
53.6263816484579
30
11.0
11
65.5483634557596
21
53.3316181108682
31
11.0
  0
LINE
 8
onewiredbox
10
64.9653054104098
20
53.8443841381389
30
11.0
11
65.2905878971688
21
53.6263816484579
31
11.0
  0
LINE
 8
onewiredbox
10
63.2393398282202
20
11.0606601717798
30
15.0
11
63.2393398282202
21
11.0606601717798
31
11.0
  0
LINE
 8
onewiredbox
10
63.2393398282202
20
8.93933982822018
30
15.0
11
63.0009618943233
21
9.25
31
15.0
  0
LINE
 8
onewiredbox
10
64.2039793176207
20
53.996923521278
30
11.0
11
64.5946834594006
21
53.9707690705055
31
11.0
  0
LINE
 8
onewiredbox
10
63.0009618943233
20
10.75
30
15.0
11
63.0009618943233
21
10.75
31
11.0
  0
LINE
 8
onewiredbox
10
6.81745107390639
20
52.8337399182304
30
15.0
11
7.01227204580661
21
53.6460722803259
31
15.0
  0
LINE
 8
onewiredbox
10
65.1316181108682
20
51.2516365442404
30
11.0
11
64.7801811733367
21
51.0789348921415
31
11.0
  0
LINE
 8
onewiredbox
10
63.6346945895901
20
51.1556158618611
30
11.0
11
63.3094121028312
21
51.3736183515421
31
11.0
  0
LINE
 8
onewiredbox
10
65.7210651078585
20
52.9801811733367
30
11.0
11
65.796923521278
21
52.5960206823793
31
11.0
  0
LINE
 8
onewiredbox
10
102.37128129211
20
8.4
30
0.0
11
97.337258300203
21
12.262741699797
31
0.0
  0
LINE
 8
onewiredbox
10
62.8031855288636
20
9.36731707866002
30
15.0
11
62.7350649864476
21
9.77940852615791
31
15.0
  0
LINE
 8
onewiredbox
10
98.3540262166497
20
7.08207624751787
30
15.0
11
98.7658305507603
21
7.08207624751787
31
15.0
  0
LINE
 8
onewiredbox
10
98.2548144597079
20
8.94171697238439
30
15.0
11
98.0930468317688
21
9.26885152485339
31
15.0
  0
LINE
 8
onewiredbox
10
62.7759227101634
20
10.195089191829
30
15.0
11
62.8511112605664
21
10.3882285676538
31
15.0
  0
LINE
 8
onewiredbox
10
63.2393398282202
20
11.0606601717798
30
15.0
11
63.55
21
11.2990381056767
31
15.0
  0
LINE
 8
onewiredbox
10
62.7350649864476
20
9.77940852615791
30
15.0
11
62.7759227101634
21
10.195089191829
31
15.0
  0
LINE
 8
onewiredbox
10
64.3868656325911
20
8.23294332273433
30
15.0
11
63.97118496692
21
8.27380104645016
31
15.0
  0
LINE
 8
onewiredbox
10
100.959197911231
20
7.4505063871107
30
15.0
11
101.075021410768
21
7.5278971752701
31
15.0
  0
LINE
 8
onewiredbox
10
99.5841979112311
20
7.08207624751787
30
15.0
11
99.6371707041306
21
7.08905024800726
31
15.0
  0
LINE
 8
onewiredbox
10
101.765919597032
20
8.1579823177439
30
15.0
11
101.80053248874
21
8.20978417093688
31
15.0
  0
LINE
 8
onewiredbox
10
100.10014917426
20
8.31754850126207
30
15.0
11
99.7870974617454
21
8.25492448916202
31
15.0
  0
LINE
 8
onewiredbox
10
100.295950285263
20
7.17578022522294
30
15.0
11
100.323823718627
21
7.1852419808873
31
15.0
  0
LINE
 8
onewiredbox
10
98.0146027767227
20
10.1425132197479
30
15.0
11
98.0931735236262
21
10.3748051946193
31
15.0
  0
LINE
 8
onewiredbox
10
65.3606601717798
20
8.93933982822018
30
15.0
11
65.05
21
8.70096189432335
31
15.0
  0
LINE
 8
onewiredbox
10
98.1484324347088
20
10.5381764503409
30
15.0
11
98.2288941714776
21
10.6588800355047
31
15.0
  0
LINE
 8
onewiredbox
10
63.55
20
11.2990381056767
30
15.0
11
63.55
21
11.2990381056767
31
11.0
  0
LINE
 8
onewiredbox
10
63.55
20
11.2990381056767
30
15.0
11
63.9117714323462
21
11.4488887394336
31
15.0
  0
LINE
 8
onewiredbox
10
98.0696701649753
20
9.31612498448877
30
15.0
11
98.0
21
9.66439977119307
31
15.0
  0
LINE
 8
onewiredbox
10
63.2406818790212
20
8.66407680946148
30
15.0
11
62.9756420350204
21
8.98689820046893
31
15.0
  0
LINE
 8
onewiredbox
10
98.8780977084081
20
8.39631077099556
30
15.0
11
98.4144137306103
21
8.76012781324241
31
15.0
  0
LINE
 8
onewiredbox
10
65.5021973492875
20
8.73856021530802
30
15.0
11
65.17937595828
21
8.4735203713072
31
15.0
  0
LINE
 8
onewiredbox
10
65.5990381056766
20
9.25
30
15.0
11
65.3606601717798
21
8.93933982822018
31
15.0
  0
LINE
 8
onewiredbox
10
65.427713943441
20
11.0000756855742
30
15.0
11
65.5990381056766
21
10.75
31
15.0
  0
LINE
 8
onewiredbox
10
9.66626008176965
20
49.3174510739064
30
0.0
11
9.66626008176965
21
49.3174510739064
31
15.0
  0
LINE
 8
onewiredbox
10
64.6882285676538
20
8.5511112605664
30
15.0
11
64.3
21
8.5
31
15.0
  0
LINE
 8
onewiredbox
10
101.15379304574
20
9.52163927528784
30
15.0
11
101.019963387753
21
9.12597604469485
31
15.0
  0
LINE
 8
onewiredbox
10
100.474557186365
20
8.50269279599466
30
15.0
11
100.10014917426
21
8.31754850126207
31
15.0
  0
LINE
 8
onewiredbox
10
64.3
20
8.5
30
15.0
11
63.9117714323462
21
8.5511112605664
31
15.0
  0
LINE
 8
onewiredbox
10
65.6927537874418
20
10.6772542945668
30
15.0
11
65.8652102935986
21
10.2968354163757
31
15.0
  0
LINE
 8
onewiredbox
10
63.5802430334965
20
8.42085264994724
30
15.0
11
63.2406818790212
21
8.66407680946148
31
15.0
  0
LINE
 8
onewiredbox
10
65.17937595828
20
8.4735203713072
30
15.0
11
64.798957080089
21
8.3010638651504
31
15.0
  0
LINE
 8
onewiredbox
10
65.8924731122988
20
9.46906330320676
30
15.0
11
65.7454215088017
21
9.07812136978326
31
15.0
  0
LINE
 8
onewiredbox
10
8.8539277196741
20
49.5122720458066
30
15.0
11
8.11969828950877
21
49.9107017403312
31
15.0
  0
LINE
 8
onewiredbox
10
12.9877279541934
20
51.3539277196741
30
0.0
11
12.9877279541934
21
51.3539277196741
31
15.0
  0
LINE
 8
onewiredbox
10
98.198557265176
20
53.1320762475179
30
15.0
11
98.3009618943234
21
53.25
31
15.0
  0
LINE
 8
onewiredbox
10
101.019963387753
20
9.12597604469485
30
15.0
11
100.788288685257
21
8.77843237603851
31
15.0
  0
LINE
 8
onewiredbox
10
63.9117714323462
20
8.5511112605664
30
15.0
11
63.55
21
8.70096189432334
31
15.0
  0
LINE
 8
onewiredbox
10
65.9333308360147
20
9.88474396887781
30
15.0
11
65.8924731122988
21
9.46906330320676
31
15.0
  0
LINE
 8
onewiredbox
10
65.427713943441
20
11.0000756855742
30
15.0
11
65.6927537874418
21
10.6772542945668
31
15.0
  0
LINE
 8
onewiredbox
10
64.798957080089
20
8.3010638651504
30
15.0
11
64.3868656325911
21
8.23294332273433
31
15.0
  0
LINE
 8
onewiredbox
10
62.9756420350204
20
8.98689820046893
30
15.0
11
62.8031855288636
21
9.36731707866002
31
15.0
  0
LINE
 8
onewiredbox
10
65.8652102935986
20
10.2968354163757
30
15.0
11
65.9333308360147
21
9.88474396887781
31
15.0
  0
LINE
 8
onewiredbox
10
63.97118496692
20
8.27380104645016
30
15.0
11
63.5802430334965
21
8.42085264994724
31
15.0
  0
LINE
 8
onewiredbox
10
65.7454215088017
20
9.07812136978326
30
15.0
11
65.5021973492875
21
8.73856021530802
31
15.0
  0
LINE
 8
onewiredbox
10
13.1825489260936
20
52.1662600817697
30
15.0
11
12.9877279541934
21
51.3539277196741
31
15.0
  0
LINE
 8
onewiredbox
10
9.66626008176965
20
49.3174510739064
30
15.0
11
8.8539277196741
21
49.5122720458066
31
15.0
  0
LINE
 8
onewiredbox
10
10.3337399182303
20
55.6825489260936
30
0.0
11
10.3337399182303
21
55.6825489260936
31
15.0
  0
LINE
 8
onewiredbox
10
9.49866373223869
20
55.6604844480913
30
0.0
11
9.49866373223869
21
55.6604844480913
31
15.0
  0
LINE
 8
onewiredbox
10
12.9877279541934
20
51.3539277196741
30
15.0
11
12.5892982596688
21
50.6196982895088
31
15.0
  0
LINE
 8
onewiredbox
10
10.0841979112311
20
55.0820762475179
30
15.0
11
9.37244553719919
21
54.9883722698128
31
15.0
  0
LINE
 8
onewiredbox
10
10.3337399182303
20
55.6825489260936
30
15.0
11
11.1460722803259
21
55.4877279541934
31
15.0
  0
LINE
 8
onewiredbox
10
11.1460722803259
20
55.4877279541934
30
0.0
11
11.1460722803259
21
55.4877279541934
31
15.0
  0
LINE
 8
onewiredbox
10
8.69775278439762
20
55.4230381778991
30
0.0
11
8.69775278439762
21
55.4230381778991
31
15.0
  0
LINE
 8
onewiredbox
10
7.01227204580661
20
53.6460722803259
30
0.0
11
7.01227204580661
21
53.6460722803259
31
15.0
  0
LINE
 8
onewiredbox
10
11.8936104922891
20
55.0820762475179
30
15.0
11
12.4863916864321
21
54.5144121677654
31
15.0
  0
LINE
 8
onewiredbox
10
12.5892982596688
20
50.6196982895088
30
0.0
11
12.5892982596688
21
50.6196982895088
31
15.0
  0
LINE
 8
onewiredbox
10
12.0144121677654
20
50.0136083135679
30
0.0
11
12.0144121677654
21
50.0136083135679
31
15.0
  0
LINE
 8
onewiredbox
10
9.03181847222711
20
54.8727449619239
30
15.0
11
8.70919791123112
21
54.7136461079251
31
15.0
  0
LINE
 8
onewiredbox
10
8.11969828950877
20
49.9107017403312
30
0.0
11
8.11969828950877
21
49.9107017403312
31
15.0
  0
LINE
 8
onewiredbox
10
9.49866373223869
20
55.6604844480913
30
15.0
11
10.3337399182303
21
55.6825489260936
31
15.0
  0
LINE
 8
onewiredbox
10
8.8539277196741
20
49.5122720458066
30
0.0
11
8.8539277196741
21
49.5122720458066
31
15.0
  0
LINE
 8
onewiredbox
10
13.1825489260936
20
52.1662600817697
30
0.0
11
13.1825489260936
21
52.1662600817697
31
15.0
 0
ENDSEC
 0
EOF
