solid PulleyV8
facet normal 0.258819045102522 0.965925826289068 0.0
outer loop
vertex -6.05636565539901 0.797335664835811 3.0
vertex -5.63993296509579e-015 7.04991620636974e-016 0.0
vertex -6.05636565539901 0.797335664835811 0.0
endloop
endfacet
facet normal 2.85155516660701e-016 1.0 0.0
outer loop
vertex -5.63993296509579e-015 7.04991620636974e-016 0.0
vertex -6.05636565539901 0.797335664835811 3.0
vertex -5.63993296509579e-015 7.04991620636974e-016 3.0
endloop
endfacet
facet normal -0.258819045102522 -0.965925826289068 0.0
outer loop
vertex -2.95053711416875 12.3884455803046 14.0
vertex -5.70000000000001 13.5273103968574 0.0
vertex -2.95053711416875 12.3884455803046 0.0
endloop
endfacet
facet normal -0.500000000000001 -0.866025403784438 0.0
outer loop
vertex -5.70000000000001 13.5273103968574 0.0
vertex -2.95053711416875 12.3884455803046 14.0
vertex -5.70000000000001 13.5273103968574 14.0
endloop
endfacet
facet normal 0.5 0.866025403784438 0.0
outer loop
vertex -7.20000000000001 10.9292341855041 14.0
vertex -3.72699424947631 9.49066810143742 3.0
vertex -7.20000000000001 10.9292341855041 3.0
endloop
endfacet
facet normal 0.258819045102522 0.965925826289068 0.0
outer loop
vertex -3.72699424947631 9.49066810143742 3.0
vertex -7.20000000000001 10.9292341855041 14.0
vertex -3.72699424947631 9.49066810143742 14.0
endloop
endfacet
facet normal 0.5 0.866025403784438 0.0
outer loop
vertex -11.7 3.13500555144415 3.0
vertex -6.05636565539901 0.797335664835811 0.0
vertex -11.7 3.13500555144415 0.0
endloop
endfacet
facet normal 0.258819045102522 0.965925826289068 0.0
outer loop
vertex -6.05636565539901 0.797335664835811 0.0
vertex -11.7 3.13500555144415 3.0
vertex -6.05636565539901 0.797335664835811 3.0
endloop
endfacet
facet normal -0.500000000000001 -0.866025403784438 0.0
outer loop
vertex -5.70000000000001 13.5273103968574 14.0
vertex -8.06101730552664 15.3389826944734 0.0
vertex -5.70000000000001 13.5273103968574 0.0
endloop
endfacet
facet normal -0.707106781186548 -0.707106781186547 0.0
outer loop
vertex -8.06101730552664 15.3389826944734 0.0
vertex -5.70000000000001 13.5273103968574 14.0
vertex -8.06101730552664 15.3389826944734 14.0
endloop
endfacet
facet normal 0.707106781186548 0.707106781186547 0.0
outer loop
vertex -10.1823376490863 13.2176623509137 14.0
vertex -7.20000000000001 10.9292341855041 3.0
vertex -10.1823376490863 13.2176623509137 3.0
endloop
endfacet
facet normal 0.5 0.866025403784438 0.0
outer loop
vertex -7.20000000000001 10.9292341855041 3.0
vertex -10.1823376490863 13.2176623509137 14.0
vertex -7.20000000000001 10.9292341855041 14.0
endloop
endfacet
facet normal 0.707106781186548 0.707106781186547 0.0
outer loop
vertex -16.5462986797652 6.85370132023479 3.0
vertex -11.7 3.13500555144415 0.0
vertex -16.5462986797652 6.85370132023479 0.0
endloop
endfacet
facet normal 0.5 0.866025403784438 0.0
outer loop
vertex -11.7 3.13500555144415 0.0
vertex -16.5462986797652 6.85370132023479 3.0
vertex -11.7 3.13500555144415 3.0
endloop
endfacet
facet normal 0.965925826289068 0.258819045102521 0.0
outer loop
vertex -22.6026643351642 17.343634344601 0.0
vertex -20.2649944485559 11.7 3.0
vertex -20.2649944485559 11.7 0.0
endloop
endfacet
facet normal 0.866025403784439 0.5 0.0
outer loop
vertex -20.2649944485559 11.7 3.0
vertex -22.6026643351642 17.343634344601 0.0
vertex -22.6026643351642 17.343634344601 3.0
endloop
endfacet
facet normal -0.866025403784439 -0.5 0.0
outer loop
vertex -9.87268960314261 17.7 14.0
vertex -8.06101730552664 15.3389826944734 0.0
vertex -8.06101730552664 15.3389826944734 14.0
endloop
endfacet
facet normal -0.707106781186548 -0.707106781186547 0.0
outer loop
vertex -8.06101730552664 15.3389826944734 0.0
vertex -9.87268960314261 17.7 14.0
vertex -9.87268960314261 17.7 0.0
endloop
endfacet
facet normal -0.707106781186548 -0.707106781186548 0.0
outer loop
vertex 16.5462986797652 39.9462986797652 3.0
vertex 11.7 43.6649944485559 0.0
vertex 16.5462986797652 39.9462986797652 0.0
endloop
endfacet
facet normal -0.5 -0.866025403784439 0.0
outer loop
vertex 11.7 43.6649944485559 0.0
vertex 16.5462986797652 39.9462986797652 3.0
vertex 11.7 43.6649944485559 3.0
endloop
endfacet
facet normal 0.965925826289068 -0.258819045102521 0.0
outer loop
vertex 11.0115544196954 20.4494628858313 0.0
vertex 9.8726896031426 17.7 14.0
vertex 9.8726896031426 17.7 0.0
endloop
endfacet
facet normal 0.866025403784439 -0.5 0.0
outer loop
vertex 9.8726896031426 17.7 14.0
vertex 11.0115544196954 20.4494628858313 0.0
vertex 11.0115544196954 20.4494628858313 14.0
endloop
endfacet
facet normal 0.866025403784439 -0.5 0.0
outer loop
vertex 9.8726896031426 17.7 0.0
vertex 8.06101730552664 15.3389826944734 14.0
vertex 8.06101730552664 15.3389826944734 0.0
endloop
endfacet
facet normal 0.707106781186548 -0.707106781186548 0.0
outer loop
vertex 8.06101730552664 15.3389826944734 14.0
vertex 9.8726896031426 17.7 0.0
vertex 9.8726896031426 17.7 14.0
endloop
endfacet
facet normal -0.866025403784439 0.5 0.0
outer loop
vertex 12.4707658144959 16.2 14.0
vertex 10.1823376490863 13.2176623509137 3.0
vertex 10.1823376490863 13.2176623509137 14.0
endloop
endfacet
facet normal -0.707106781186547 0.707106781186548 0.0
outer loop
vertex 10.1823376490863 13.2176623509137 3.0
vertex 12.4707658144959 16.2 14.0
vertex 12.4707658144959 16.2 3.0
endloop
endfacet
facet normal -0.866025403784439 0.5 0.0
outer loop
vertex 20.2649944485559 11.7 3.0
vertex 16.5462986797652 6.85370132023479 0.0
vertex 16.5462986797652 6.85370132023479 3.0
endloop
endfacet
facet normal -0.707106781186547 0.707106781186548 0.0
outer loop
vertex 16.5462986797652 6.85370132023479 0.0
vertex 20.2649944485559 11.7 3.0
vertex 20.2649944485559 11.7 0.0
endloop
endfacet
facet normal -0.965925826289068 0.258819045102521 0.0
outer loop
vertex 13.9093318985626 19.6730057505237 14.0
vertex 12.4707658144959 16.2 3.0
vertex 12.4707658144959 16.2 14.0
endloop
endfacet
facet normal -0.866025403784439 0.5 0.0
outer loop
vertex 12.4707658144959 16.2 3.0
vertex 13.9093318985626 19.6730057505237 14.0
vertex 13.9093318985626 19.6730057505237 3.0
endloop
endfacet
facet normal -0.965925826289068 0.258819045102521 0.0
outer loop
vertex 22.6026643351642 17.343634344601 3.0
vertex 20.2649944485559 11.7 0.0
vertex 20.2649944485559 11.7 3.0
endloop
endfacet
facet normal -0.866025403784439 0.5 0.0
outer loop
vertex 20.2649944485559 11.7 0.0
vertex 22.6026643351642 17.343634344601 3.0
vertex 22.6026643351642 17.343634344601 0.0
endloop
endfacet
facet normal -2.49511077078113e-016 -1.0 0.0
outer loop
vertex 0.0 12.0 14.0
vertex -2.95053711416875 12.3884455803046 0.0
vertex 0.0 12.0 0.0
endloop
endfacet
facet normal -0.258819045102522 -0.965925826289068 0.0
outer loop
vertex -2.95053711416875 12.3884455803046 0.0
vertex 0.0 12.0 14.0
vertex -2.95053711416875 12.3884455803046 14.0
endloop
endfacet
facet normal -0.707106781186547 0.707106781186548 0.0
outer loop
vertex -8.06101730552664 31.4610173055266 14.0
vertex -5.7 33.2726896031426 0.0
vertex -8.06101730552664 31.4610173055266 0.0
endloop
endfacet
facet normal -0.499999999999999 0.866025403784439 0.0
outer loop
vertex -5.7 33.2726896031426 0.0
vertex -8.06101730552664 31.4610173055266 14.0
vertex -5.7 33.2726896031426 14.0
endloop
endfacet
facet normal 0.5 -0.866025403784439 0.0
outer loop
vertex -7.19999999999999 35.8707658144959 14.0
vertex -10.1823376490863 33.5823376490863 3.0
vertex -7.19999999999999 35.8707658144959 3.0
endloop
endfacet
facet normal 0.707106781186547 -0.707106781186548 0.0
outer loop
vertex -10.1823376490863 33.5823376490863 3.0
vertex -7.19999999999999 35.8707658144959 14.0
vertex -10.1823376490863 33.5823376490863 14.0
endloop
endfacet
facet normal 0.0 0.0 -1.0
outer loop
vertex -10.1823376490863 33.5823376490863 14.0
vertex -11.4 23.4 14.0
vertex -12.4707658144959 30.6 14.0
endloop
endfacet
facet normal 0.0 0.0 -1.0
outer loop
vertex -11.4 23.4 14.0
vertex -10.1823376490863 33.5823376490863 14.0
vertex -11.0115544196954 26.3505371141687 14.0
endloop
endfacet
facet normal 0.0 0.0 -1.0
outer loop
vertex -11.0115544196954 26.3505371141687 14.0
vertex -10.1823376490863 33.5823376490863 14.0
vertex -9.8726896031426 29.1 14.0
endloop
endfacet
facet normal 0.0 0.0 -1.0
outer loop
vertex -9.8726896031426 29.1 14.0
vertex -10.1823376490863 33.5823376490863 14.0
vertex -7.19999999999999 35.8707658144959 14.0
endloop
endfacet
facet normal 0.0 0.0 -1.0
outer loop
vertex -9.8726896031426 29.1 14.0
vertex -7.19999999999999 35.8707658144959 14.0
vertex -8.06101730552664 31.4610173055266 14.0
endloop
endfacet
facet normal 0.0 0.0 -1.0
outer loop
vertex -8.06101730552664 31.4610173055266 14.0
vertex -7.19999999999999 35.8707658144959 14.0
vertex -5.7 33.2726896031426 14.0
endloop
endfacet
facet normal 0.0 0.0 -1.0
outer loop
vertex -5.7 33.2726896031426 14.0
vertex -7.19999999999999 35.8707658144959 14.0
vertex -3.72699424947629 37.3093318985626 14.0
endloop
endfacet
facet normal 0.0 0.0 -1.0
outer loop
vertex -5.7 33.2726896031426 14.0
vertex -3.72699424947629 37.3093318985626 14.0
vertex -2.95053711416873 34.4115544196954 14.0
endloop
endfacet
facet normal 0.0 0.0 -1.0
outer loop
vertex -2.95053711416873 34.4115544196954 14.0
vertex -3.72699424947629 37.3093318985626 14.0
vertex 0.0 37.8 14.0
endloop
endfacet
facet normal 0.0 0.0 -1.0
outer loop
vertex -2.95053711416873 34.4115544196954 14.0
vertex 0.0 37.8 14.0
vertex 0.0 34.8 14.0
endloop
endfacet
facet normal 0.0 0.0 -1.0
outer loop
vertex 0.0 34.8 14.0
vertex 0.0 37.8 14.0
vertex 3.7269942494763 37.3093318985626 14.0
endloop
endfacet
facet normal 0.0 0.0 -1.0
outer loop
vertex 0.0 34.8 14.0
vertex 3.7269942494763 37.3093318985626 14.0
vertex 2.95053711416874 34.4115544196954 14.0
endloop
endfacet
facet normal 0.0 0.0 -1.0
outer loop
vertex 2.95053711416874 34.4115544196954 14.0
vertex 3.7269942494763 37.3093318985626 14.0
vertex 5.70000000000001 33.2726896031426 14.0
endloop
endfacet
facet normal 0.0 0.0 -1.0
outer loop
vertex 5.70000000000001 33.2726896031426 14.0
vertex 3.7269942494763 37.3093318985626 14.0
vertex 7.2 35.8707658144959 14.0
endloop
endfacet
facet normal 0.0 0.0 -1.0
outer loop
vertex 5.70000000000001 33.2726896031426 14.0
vertex 7.2 35.8707658144959 14.0
vertex 8.06101730552664 31.4610173055266 14.0
endloop
endfacet
facet normal 0.0 0.0 -1.0
outer loop
vertex 8.06101730552664 31.4610173055266 14.0
vertex 7.2 35.8707658144959 14.0
vertex 10.1823376490863 33.5823376490863 14.0
endloop
endfacet
facet normal 0.0 0.0 -1.0
outer loop
vertex 8.06101730552664 31.4610173055266 14.0
vertex 10.1823376490863 33.5823376490863 14.0
vertex 9.8726896031426 29.1 14.0
endloop
endfacet
facet normal 0.0 0.0 -1.0
outer loop
vertex 9.8726896031426 29.1 14.0
vertex 10.1823376490863 33.5823376490863 14.0
vertex 11.0115544196954 26.3505371141687 14.0
endloop
endfacet
facet normal 0.0 0.0 -1.0
outer loop
vertex 11.0115544196954 26.3505371141687 14.0
vertex 10.1823376490863 33.5823376490863 14.0
vertex 12.4707658144959 30.6 14.0
endloop
endfacet
facet normal 0.0 0.0 -1.0
outer loop
vertex 11.0115544196954 26.3505371141687 14.0
vertex 12.4707658144959 30.6 14.0
vertex 11.4 23.4 14.0
endloop
endfacet
facet normal 0.0 0.0 -1.0
outer loop
vertex 11.4 23.4 14.0
vertex 12.4707658144959 30.6 14.0
vertex 12.4707658144959 16.2 14.0
endloop
endfacet
facet normal 0.0 0.0 -1.0
outer loop
vertex 12.4707658144959 16.2 14.0
vertex 12.4707658144959 30.6 14.0
vertex 13.9093318985626 19.6730057505237 14.0
endloop
endfacet
facet normal 0.0 0.0 -1.0
outer loop
vertex 13.9093318985626 19.6730057505237 14.0
vertex 12.4707658144959 30.6 14.0
vertex 13.9093318985626 27.1269942494763 14.0
endloop
endfacet
facet normal 0.0 0.0 -1.0
outer loop
vertex 13.9093318985626 19.6730057505237 14.0
vertex 13.9093318985626 27.1269942494763 14.0
vertex 14.4 23.4 14.0
endloop
endfacet
facet normal 0.0 0.0 -1.0
outer loop
vertex -13.9093318985626 27.1269942494763 14.0
vertex -13.9093318985626 19.6730057505237 14.0
vertex -14.4 23.4 14.0
endloop
endfacet
facet normal 0.0 0.0 -1.0
outer loop
vertex -13.9093318985626 19.6730057505237 14.0
vertex -13.9093318985626 27.1269942494763 14.0
vertex -12.4707658144959 16.2 14.0
endloop
endfacet
facet normal 0.0 0.0 -1.0
outer loop
vertex -12.4707658144959 16.2 14.0
vertex -13.9093318985626 27.1269942494763 14.0
vertex -12.4707658144959 30.6 14.0
endloop
endfacet
facet normal 0.0 0.0 -1.0
outer loop
vertex -12.4707658144959 16.2 14.0
vertex -12.4707658144959 30.6 14.0
vertex -10.1823376490863 13.2176623509137 14.0
endloop
endfacet
facet normal 0.0 0.0 -1.0
outer loop
vertex -10.1823376490863 13.2176623509137 14.0
vertex -12.4707658144959 30.6 14.0
vertex -11.4 23.4 14.0
endloop
endfacet
facet normal 0.0 0.0 -1.0
outer loop
vertex -10.1823376490863 13.2176623509137 14.0
vertex -11.4 23.4 14.0
vertex -11.0115544196954 20.4494628858313 14.0
endloop
endfacet
facet normal 0.0 0.0 -1.0
outer loop
vertex -10.1823376490863 13.2176623509137 14.0
vertex -11.0115544196954 20.4494628858313 14.0
vertex -9.87268960314261 17.7 14.0
endloop
endfacet
facet normal 0.0 0.0 -1.0
outer loop
vertex -10.1823376490863 13.2176623509137 14.0
vertex -9.87268960314261 17.7 14.0
vertex -7.20000000000001 10.9292341855041 14.0
endloop
endfacet
facet normal 0.0 0.0 -1.0
outer loop
vertex -7.20000000000001 10.9292341855041 14.0
vertex -9.87268960314261 17.7 14.0
vertex -8.06101730552664 15.3389826944734 14.0
endloop
endfacet
facet normal 0.0 0.0 -1.0
outer loop
vertex -7.20000000000001 10.9292341855041 14.0
vertex -8.06101730552664 15.3389826944734 14.0
vertex -5.70000000000001 13.5273103968574 14.0
endloop
endfacet
facet normal 0.0 0.0 -1.0
outer loop
vertex -7.20000000000001 10.9292341855041 14.0
vertex -5.70000000000001 13.5273103968574 14.0
vertex -3.72699424947631 9.49066810143742 14.0
endloop
endfacet
facet normal 0.0 0.0 -1.0
outer loop
vertex -3.72699424947631 9.49066810143742 14.0
vertex -5.70000000000001 13.5273103968574 14.0
vertex -2.95053711416875 12.3884455803046 14.0
endloop
endfacet
facet normal 0.0 0.0 -1.0
outer loop
vertex -3.72699424947631 9.49066810143742 14.0
vertex -2.95053711416875 12.3884455803046 14.0
vertex 0.0 9.0 14.0
endloop
endfacet
facet normal 0.0 0.0 -1.0
outer loop
vertex 0.0 9.0 14.0
vertex -2.95053711416875 12.3884455803046 14.0
vertex 0.0 12.0 14.0
endloop
endfacet
facet normal 0.0 0.0 -1.0
outer loop
vertex 0.0 9.0 14.0
vertex 0.0 12.0 14.0
vertex 2.95053711416874 12.3884455803046 14.0
endloop
endfacet
facet normal 0.0 0.0 -1.0
outer loop
vertex 0.0 9.0 14.0
vertex 2.95053711416874 12.3884455803046 14.0
vertex 3.7269942494763 9.49066810143743 14.0
endloop
endfacet
facet normal 0.0 0.0 -1.0
outer loop
vertex 3.7269942494763 9.49066810143743 14.0
vertex 2.95053711416874 12.3884455803046 14.0
vertex 5.7 13.5273103968574 14.0
endloop
endfacet
facet normal 0.0 0.0 -1.0
outer loop
vertex 3.7269942494763 9.49066810143743 14.0
vertex 5.7 13.5273103968574 14.0
vertex 7.19999999999999 10.9292341855041 14.0
endloop
endfacet
facet normal 0.0 0.0 -1.0
outer loop
vertex 7.19999999999999 10.9292341855041 14.0
vertex 5.7 13.5273103968574 14.0
vertex 8.06101730552664 15.3389826944734 14.0
endloop
endfacet
facet normal 0.0 0.0 -1.0
outer loop
vertex 7.19999999999999 10.9292341855041 14.0
vertex 8.06101730552664 15.3389826944734 14.0
vertex 10.1823376490863 13.2176623509137 14.0
endloop
endfacet
facet normal 0.0 0.0 -1.0
outer loop
vertex 10.1823376490863 13.2176623509137 14.0
vertex 8.06101730552664 15.3389826944734 14.0
vertex 9.8726896031426 17.7 14.0
endloop
endfacet
facet normal 0.0 0.0 -1.0
outer loop
vertex 10.1823376490863 13.2176623509137 14.0
vertex 9.8726896031426 17.7 14.0
vertex 11.0115544196954 20.4494628858313 14.0
endloop
endfacet
facet normal 0.0 0.0 -1.0
outer loop
vertex 10.1823376490863 13.2176623509137 14.0
vertex 11.0115544196954 20.4494628858313 14.0
vertex 12.4707658144959 16.2 14.0
endloop
endfacet
facet normal 0.0 0.0 -1.0
outer loop
vertex 12.4707658144959 16.2 14.0
vertex 11.0115544196954 20.4494628858313 14.0
vertex 11.4 23.4 14.0
endloop
endfacet
facet normal 0.5 -0.866025403784439 0.0
outer loop
vertex -11.7 43.6649944485559 3.0
vertex -16.5462986797652 39.9462986797652 0.0
vertex -11.7 43.6649944485559 0.0
endloop
endfacet
facet normal 0.707106781186547 -0.707106781186548 0.0
outer loop
vertex -16.5462986797652 39.9462986797652 0.0
vertex -11.7 43.6649944485559 3.0
vertex -16.5462986797652 39.9462986797652 3.0
endloop
endfacet
facet normal -0.499999999999999 0.866025403784439 0.0
outer loop
vertex -5.7 33.2726896031426 14.0
vertex -2.95053711416873 34.4115544196954 0.0
vertex -5.7 33.2726896031426 0.0
endloop
endfacet
facet normal -0.258819045102521 0.965925826289068 0.0
outer loop
vertex -2.95053711416873 34.4115544196954 0.0
vertex -5.7 33.2726896031426 14.0
vertex -2.95053711416873 34.4115544196954 14.0
endloop
endfacet
facet normal 0.258819045102521 -0.965925826289068 0.0
outer loop
vertex -3.72699424947629 37.3093318985626 14.0
vertex -7.19999999999999 35.8707658144959 3.0
vertex -3.72699424947629 37.3093318985626 3.0
endloop
endfacet
facet normal 0.5 -0.866025403784439 0.0
outer loop
vertex -7.19999999999999 35.8707658144959 3.0
vertex -3.72699424947629 37.3093318985626 14.0
vertex -7.19999999999999 35.8707658144959 14.0
endloop
endfacet
facet normal 0.866025403784438 -0.500000000000001 0.0
outer loop
vertex -20.2649944485559 35.1 0.0
vertex -22.6026643351642 29.456365655399 3.0
vertex -22.6026643351642 29.456365655399 0.0
endloop
endfacet
facet normal 0.965925826289068 -0.258819045102522 0.0
outer loop
vertex -22.6026643351642 29.456365655399 3.0
vertex -20.2649944485559 35.1 0.0
vertex -20.2649944485559 35.1 3.0
endloop
endfacet
facet normal -0.965925826289068 -0.258819045102521 0.0
outer loop
vertex 22.6026643351642 29.456365655399 3.0
vertex 23.4 23.4 0.0
vertex 23.4 23.4 3.0
endloop
endfacet
facet normal -1.0 2.67333296869407e-016 0.0
outer loop
vertex 23.4 23.4 0.0
vertex 22.6026643351642 29.456365655399 3.0
vertex 22.6026643351642 29.456365655399 0.0
endloop
endfacet
facet normal 1.0 -1.78222197912938e-016 0.0
outer loop
vertex 11.4 23.4 0.0
vertex 11.0115544196954 20.4494628858313 14.0
vertex 11.0115544196954 20.4494628858313 0.0
endloop
endfacet
facet normal 0.965925826289068 -0.258819045102521 0.0
outer loop
vertex 11.0115544196954 20.4494628858313 14.0
vertex 11.4 23.4 0.0
vertex 11.4 23.4 14.0
endloop
endfacet
facet normal -1.0 2.94066626556348e-016 0.0
outer loop
vertex 14.4 23.4 14.0
vertex 13.9093318985626 19.6730057505237 3.0
vertex 13.9093318985626 19.6730057505237 14.0
endloop
endfacet
facet normal -0.965925826289068 0.258819045102521 0.0
outer loop
vertex 13.9093318985626 19.6730057505237 3.0
vertex 14.4 23.4 14.0
vertex 14.4 23.4 3.0
endloop
endfacet
facet normal -1.0 2.67333296869407e-016 0.0
outer loop
vertex 23.4 23.4 3.0
vertex 22.6026643351642 17.343634344601 0.0
vertex 22.6026643351642 17.343634344601 3.0
endloop
endfacet
facet normal -0.965925826289068 0.258819045102521 0.0
outer loop
vertex 22.6026643351642 17.343634344601 0.0
vertex 23.4 23.4 3.0
vertex 23.4 23.4 0.0
endloop
endfacet
facet normal -0.258819045102521 -0.965925826289068 0.0
outer loop
vertex 6.056365655399 46.0026643351642 3.0
vertex 0.0 46.8 0.0
vertex 6.056365655399 46.0026643351642 0.0
endloop
endfacet
facet normal 2.3168885728682e-016 -1.0 0.0
outer loop
vertex 0.0 46.8 0.0
vertex 6.056365655399 46.0026643351642 3.0
vertex 0.0 46.8 3.0
endloop
endfacet
facet normal 0.258819045102522 0.965925826289068 0.0
outer loop
vertex 2.95053711416874 34.4115544196954 14.0
vertex 5.70000000000001 33.2726896031426 0.0
vertex 2.95053711416874 34.4115544196954 0.0
endloop
endfacet
facet normal 0.5 0.866025403784439 0.0
outer loop
vertex 5.70000000000001 33.2726896031426 0.0
vertex 2.95053711416874 34.4115544196954 14.0
vertex 5.70000000000001 33.2726896031426 14.0
endloop
endfacet
facet normal -0.5 -0.866025403784439 0.0
outer loop
vertex 7.2 35.8707658144959 14.0
vertex 3.7269942494763 37.3093318985626 3.0
vertex 7.2 35.8707658144959 3.0
endloop
endfacet
facet normal -0.258819045102522 -0.965925826289068 0.0
outer loop
vertex 3.7269942494763 37.3093318985626 3.0
vertex 7.2 35.8707658144959 14.0
vertex 3.7269942494763 37.3093318985626 14.0
endloop
endfacet
facet normal 0.866025403784439 0.5 0.0
outer loop
vertex 9.8726896031426 29.1 0.0
vertex 11.0115544196954 26.3505371141687 14.0
vertex 11.0115544196954 26.3505371141687 0.0
endloop
endfacet
facet normal 0.965925826289068 0.258819045102521 0.0
outer loop
vertex 11.0115544196954 26.3505371141687 14.0
vertex 9.8726896031426 29.1 0.0
vertex 9.8726896031426 29.1 14.0
endloop
endfacet
facet normal -0.866025403784439 -0.499999999999999 0.0
outer loop
vertex 12.4707658144959 30.6 14.0
vertex 13.9093318985626 27.1269942494763 3.0
vertex 13.9093318985626 27.1269942494763 14.0
endloop
endfacet
facet normal -0.965925826289068 -0.258819045102521 0.0
outer loop
vertex 13.9093318985626 27.1269942494763 3.0
vertex 12.4707658144959 30.6 14.0
vertex 12.4707658144959 30.6 3.0
endloop
endfacet
facet normal 0.707106781186548 -0.707106781186548 0.0
outer loop
vertex 8.06101730552664 15.3389826944734 14.0
vertex 5.7 13.5273103968574 0.0
vertex 8.06101730552664 15.3389826944734 0.0
endloop
endfacet
facet normal 0.5 -0.866025403784439 0.0
outer loop
vertex 5.7 13.5273103968574 0.0
vertex 8.06101730552664 15.3389826944734 14.0
vertex 5.7 13.5273103968574 14.0
endloop
endfacet
facet normal -0.5 0.866025403784439 0.0
outer loop
vertex 7.19999999999999 10.9292341855041 14.0
vertex 10.1823376490863 13.2176623509137 3.0
vertex 7.19999999999999 10.9292341855041 3.0
endloop
endfacet
facet normal -0.707106781186547 0.707106781186548 0.0
outer loop
vertex 10.1823376490863 13.2176623509137 3.0
vertex 7.19999999999999 10.9292341855041 14.0
vertex 10.1823376490863 13.2176623509137 14.0
endloop
endfacet
facet normal -0.5 0.866025403784439 0.0
outer loop
vertex 11.7 3.13500555144414 3.0
vertex 16.5462986797652 6.85370132023479 0.0
vertex 11.7 3.13500555144414 0.0
endloop
endfacet
facet normal -0.707106781186547 0.707106781186548 0.0
outer loop
vertex 16.5462986797652 6.85370132023479 0.0
vertex 11.7 3.13500555144414 3.0
vertex 16.5462986797652 6.85370132023479 3.0
endloop
endfacet
facet normal 0.5 -0.866025403784439 0.0
outer loop
vertex 5.7 13.5273103968574 14.0
vertex 2.95053711416874 12.3884455803046 0.0
vertex 5.7 13.5273103968574 0.0
endloop
endfacet
facet normal 0.258819045102521 -0.965925826289068 0.0
outer loop
vertex 2.95053711416874 12.3884455803046 0.0
vertex 5.7 13.5273103968574 14.0
vertex 2.95053711416874 12.3884455803046 14.0
endloop
endfacet
facet normal -0.258819045102522 -0.965925826289068 0.0
outer loop
vertex 3.7269942494763 37.3093318985626 14.0
vertex 0.0 37.8 3.0
vertex 3.7269942494763 37.3093318985626 3.0
endloop
endfacet
facet normal -5.97044363008343e-016 -1.0 0.0
outer loop
vertex 0.0 37.8 3.0
vertex 3.7269942494763 37.3093318985626 14.0
vertex 0.0 37.8 14.0
endloop
endfacet
facet normal -0.5 -0.866025403784439 0.0
outer loop
vertex 11.7 43.6649944485559 3.0
vertex 6.056365655399 46.0026643351642 0.0
vertex 11.7 43.6649944485559 0.0
endloop
endfacet
facet normal -0.258819045102521 -0.965925826289068 0.0
outer loop
vertex 6.056365655399 46.0026643351642 0.0
vertex 11.7 43.6649944485559 3.0
vertex 6.056365655399 46.0026643351642 3.0
endloop
endfacet
facet normal -0.866025403784439 -0.5 0.0
outer loop
vertex 20.2649944485559 35.1 3.0
vertex 22.6026643351642 29.456365655399 0.0
vertex 22.6026643351642 29.456365655399 3.0
endloop
endfacet
facet normal -0.965925826289068 -0.258819045102521 0.0
outer loop
vertex 22.6026643351642 29.456365655399 0.0
vertex 20.2649944485559 35.1 3.0
vertex 20.2649944485559 35.1 0.0
endloop
endfacet
facet normal 0.5 0.866025403784439 0.0
outer loop
vertex 5.70000000000001 33.2726896031426 14.0
vertex 8.06101730552664 31.4610173055266 0.0
vertex 5.70000000000001 33.2726896031426 0.0
endloop
endfacet
facet normal 0.707106781186548 0.707106781186547 0.0
outer loop
vertex 8.06101730552664 31.4610173055266 0.0
vertex 5.70000000000001 33.2726896031426 14.0
vertex 8.06101730552664 31.4610173055266 14.0
endloop
endfacet
facet normal -0.707106781186548 -0.707106781186547 0.0
outer loop
vertex 10.1823376490863 33.5823376490863 14.0
vertex 7.2 35.8707658144959 3.0
vertex 10.1823376490863 33.5823376490863 3.0
endloop
endfacet
facet normal -0.5 -0.866025403784439 0.0
outer loop
vertex 7.2 35.8707658144959 3.0
vertex 10.1823376490863 33.5823376490863 14.0
vertex 7.2 35.8707658144959 14.0
endloop
endfacet
facet normal 2.3168885728682e-016 -1.0 0.0
outer loop
vertex 0.0 46.8 3.0
vertex -6.05636565539898 46.0026643351642 0.0
vertex 0.0 46.8 0.0
endloop
endfacet
facet normal 0.258819045102521 -0.965925826289068 0.0
outer loop
vertex -6.05636565539898 46.0026643351642 0.0
vertex 0.0 46.8 3.0
vertex -6.05636565539898 46.0026643351642 3.0
endloop
endfacet
facet normal -1.1584442864341e-016 1.0 0.0
outer loop
vertex 0.0 34.8 14.0
vertex 2.95053711416874 34.4115544196954 0.0
vertex 0.0 34.8 0.0
endloop
endfacet
facet normal 0.258819045102522 0.965925826289068 0.0
outer loop
vertex 2.95053711416874 34.4115544196954 0.0
vertex 0.0 34.8 14.0
vertex 2.95053711416874 34.4115544196954 14.0
endloop
endfacet
facet normal 0.258819045102521 -0.965925826289068 0.0
outer loop
vertex -6.05636565539898 46.0026643351642 3.0
vertex -11.7 43.6649944485559 0.0
vertex -6.05636565539898 46.0026643351642 0.0
endloop
endfacet
facet normal 0.5 -0.866025403784439 0.0
outer loop
vertex -11.7 43.6649944485559 0.0
vertex -6.05636565539898 46.0026643351642 3.0
vertex -11.7 43.6649944485559 3.0
endloop
endfacet
facet normal -0.258819045102521 0.965925826289068 0.0
outer loop
vertex -2.95053711416873 34.4115544196954 14.0
vertex 0.0 34.8 0.0
vertex -2.95053711416873 34.4115544196954 0.0
endloop
endfacet
facet normal -1.1584442864341e-016 1.0 0.0
outer loop
vertex 0.0 34.8 0.0
vertex -2.95053711416873 34.4115544196954 14.0
vertex 0.0 34.8 14.0
endloop
endfacet
facet normal 0.965925826289068 0.258819045102521 0.0
outer loop
vertex 11.0115544196954 26.3505371141687 0.0
vertex 11.4 23.4 14.0
vertex 11.4 23.4 0.0
endloop
endfacet
facet normal 1.0 -1.78222197912938e-016 0.0
outer loop
vertex 11.4 23.4 14.0
vertex 11.0115544196954 26.3505371141687 0.0
vertex 11.0115544196954 26.3505371141687 14.0
endloop
endfacet
facet normal -5.97044363008343e-016 -1.0 0.0
outer loop
vertex 0.0 37.8 14.0
vertex -3.72699424947629 37.3093318985626 3.0
vertex 0.0 37.8 3.0
endloop
endfacet
facet normal 0.258819045102521 -0.965925826289068 0.0
outer loop
vertex -3.72699424947629 37.3093318985626 3.0
vertex 0.0 37.8 14.0
vertex -3.72699424947629 37.3093318985626 14.0
endloop
endfacet
facet normal 0.866025403784438 -0.5 0.0
outer loop
vertex -12.4707658144959 30.6 3.0
vertex -13.9093318985626 27.1269942494763 14.0
vertex -13.9093318985626 27.1269942494763 3.0
endloop
endfacet
facet normal 0.965925826289068 -0.258819045102521 0.0
outer loop
vertex -13.9093318985626 27.1269942494763 14.0
vertex -12.4707658144959 30.6 3.0
vertex -12.4707658144959 30.6 14.0
endloop
endfacet
facet normal -1.0 4.45555494782345e-016 0.0
outer loop
vertex -11.4 23.4 14.0
vertex -11.0115544196954 20.4494628858313 0.0
vertex -11.0115544196954 20.4494628858313 14.0
endloop
endfacet
facet normal -0.965925826289068 -0.25881904510252 0.0
outer loop
vertex -11.0115544196954 20.4494628858313 0.0
vertex -11.4 23.4 14.0
vertex -11.4 23.4 0.0
endloop
endfacet
facet normal 1.0 -5.61399923425755e-016 0.0
outer loop
vertex -14.4 23.4 3.0
vertex -13.9093318985626 19.6730057505237 14.0
vertex -13.9093318985626 19.6730057505237 3.0
endloop
endfacet
facet normal 0.965925826289068 0.25881904510252 0.0
outer loop
vertex -13.9093318985626 19.6730057505237 14.0
vertex -14.4 23.4 3.0
vertex -14.4 23.4 14.0
endloop
endfacet
facet normal 0.707106781186547 -0.707106781186548 0.0
outer loop
vertex -10.1823376490863 33.5823376490863 3.0
vertex -12.4707658144959 30.6 14.0
vertex -12.4707658144959 30.6 3.0
endloop
endfacet
facet normal 0.866025403784438 -0.5 0.0
outer loop
vertex -12.4707658144959 30.6 14.0
vertex -10.1823376490863 33.5823376490863 3.0
vertex -10.1823376490863 33.5823376490863 14.0
endloop
endfacet
facet normal 0.0 0.0 1.0
outer loop
vertex -22.6026643351642 17.343634344601 0.0
vertex -22.6026643351642 29.456365655399 0.0
vertex -23.4 23.4 0.0
endloop
endfacet
facet normal 0.0 0.0 1.0
outer loop
vertex -22.6026643351642 29.456365655399 0.0
vertex -22.6026643351642 17.343634344601 0.0
vertex -20.2649944485559 11.7 0.0
endloop
endfacet
facet normal 0.0 0.0 1.0
outer loop
vertex -22.6026643351642 29.456365655399 0.0
vertex -20.2649944485559 11.7 0.0
vertex -20.2649944485559 35.1 0.0
endloop
endfacet
facet normal 0.0 0.0 1.0
outer loop
vertex -20.2649944485559 35.1 0.0
vertex -20.2649944485559 11.7 0.0
vertex -16.5462986797652 6.85370132023479 0.0
endloop
endfacet
facet normal 0.0 0.0 1.0
outer loop
vertex -20.2649944485559 35.1 0.0
vertex -16.5462986797652 6.85370132023479 0.0
vertex -16.5462986797652 39.9462986797652 0.0
endloop
endfacet
facet normal 0.0 0.0 1.0
outer loop
vertex -16.5462986797652 39.9462986797652 0.0
vertex -16.5462986797652 6.85370132023479 0.0
vertex -11.7 3.13500555144415 0.0
endloop
endfacet
facet normal 0.0 0.0 1.0
outer loop
vertex -16.5462986797652 39.9462986797652 0.0
vertex -11.7 3.13500555144415 0.0
vertex -11.7 43.6649944485559 0.0
endloop
endfacet
facet normal 0.0 0.0 1.0
outer loop
vertex -11.7 43.6649944485559 0.0
vertex -11.7 3.13500555144415 0.0
vertex -11.4 23.4 0.0
endloop
endfacet
facet normal 0.0 0.0 1.0
outer loop
vertex -11.4 23.4 0.0
vertex -11.7 3.13500555144415 0.0
vertex -11.0115544196954 20.4494628858313 0.0
endloop
endfacet
facet normal 0.0 0.0 1.0
outer loop
vertex -11.0115544196954 20.4494628858313 0.0
vertex -11.7 3.13500555144415 0.0
vertex -6.05636565539901 0.797335664835811 0.0
endloop
endfacet
facet normal 0.0 0.0 1.0
outer loop
vertex -11.0115544196954 20.4494628858313 0.0
vertex -6.05636565539901 0.797335664835811 0.0
vertex -9.87268960314261 17.7 0.0
endloop
endfacet
facet normal 0.0 0.0 1.0
outer loop
vertex -9.87268960314261 17.7 0.0
vertex -6.05636565539901 0.797335664835811 0.0
vertex -8.06101730552664 15.3389826944734 0.0
endloop
endfacet
facet normal 0.0 0.0 1.0
outer loop
vertex -8.06101730552664 15.3389826944734 0.0
vertex -6.05636565539901 0.797335664835811 0.0
vertex -5.70000000000001 13.5273103968574 0.0
endloop
endfacet
facet normal 0.0 0.0 1.0
outer loop
vertex -5.70000000000001 13.5273103968574 0.0
vertex -6.05636565539901 0.797335664835811 0.0
vertex -5.63993296509579e-015 7.04991620636974e-016 0.0
endloop
endfacet
facet normal 0.0 0.0 1.0
outer loop
vertex -5.70000000000001 13.5273103968574 0.0
vertex -5.63993296509579e-015 7.04991620636974e-016 0.0
vertex -2.95053711416875 12.3884455803046 0.0
endloop
endfacet
facet normal 0.0 0.0 1.0
outer loop
vertex -2.95053711416875 12.3884455803046 0.0
vertex -5.63993296509579e-015 7.04991620636974e-016 0.0
vertex 0.0 12.0 0.0
endloop
endfacet
facet normal 0.0 0.0 1.0
outer loop
vertex 0.0 12.0 0.0
vertex -5.63993296509579e-015 7.04991620636974e-016 0.0
vertex 6.05636565539899 0.797335664835811 0.0
endloop
endfacet
facet normal 0.0 0.0 1.0
outer loop
vertex 0.0 12.0 0.0
vertex 6.05636565539899 0.797335664835811 0.0
vertex 2.95053711416874 12.3884455803046 0.0
endloop
endfacet
facet normal 0.0 0.0 1.0
outer loop
vertex 2.95053711416874 12.3884455803046 0.0
vertex 6.05636565539899 0.797335664835811 0.0
vertex 5.7 13.5273103968574 0.0
endloop
endfacet
facet normal 0.0 0.0 1.0
outer loop
vertex 5.7 13.5273103968574 0.0
vertex 6.05636565539899 0.797335664835811 0.0
vertex 8.06101730552664 15.3389826944734 0.0
endloop
endfacet
facet normal 0.0 0.0 1.0
outer loop
vertex 8.06101730552664 15.3389826944734 0.0
vertex 6.05636565539899 0.797335664835811 0.0
vertex 11.7 3.13500555144414 0.0
endloop
endfacet
facet normal 0.0 0.0 1.0
outer loop
vertex 8.06101730552664 15.3389826944734 0.0
vertex 11.7 3.13500555144414 0.0
vertex 9.8726896031426 17.7 0.0
endloop
endfacet
facet normal 0.0 0.0 1.0
outer loop
vertex 9.8726896031426 17.7 0.0
vertex 11.7 3.13500555144414 0.0
vertex 11.0115544196954 20.4494628858313 0.0
endloop
endfacet
facet normal 0.0 0.0 1.0
outer loop
vertex 11.0115544196954 20.4494628858313 0.0
vertex 11.7 3.13500555144414 0.0
vertex 11.4 23.4 0.0
endloop
endfacet
facet normal 0.0 0.0 1.0
outer loop
vertex -11.7 43.6649944485559 0.0
vertex -11.0115544196954 26.3505371141687 0.0
vertex -6.05636565539898 46.0026643351642 0.0
endloop
endfacet
facet normal 0.0 0.0 1.0
outer loop
vertex -11.0115544196954 26.3505371141687 0.0
vertex -11.7 43.6649944485559 0.0
vertex -11.4 23.4 0.0
endloop
endfacet
facet normal 0.0 0.0 1.0
outer loop
vertex -6.05636565539898 46.0026643351642 0.0
vertex -11.0115544196954 26.3505371141687 0.0
vertex -9.8726896031426 29.1 0.0
endloop
endfacet
facet normal 0.0 0.0 1.0
outer loop
vertex -6.05636565539898 46.0026643351642 0.0
vertex -9.8726896031426 29.1 0.0
vertex -8.06101730552664 31.4610173055266 0.0
endloop
endfacet
facet normal 0.0 0.0 1.0
outer loop
vertex -6.05636565539898 46.0026643351642 0.0
vertex -8.06101730552664 31.4610173055266 0.0
vertex -5.7 33.2726896031426 0.0
endloop
endfacet
facet normal 0.0 0.0 1.0
outer loop
vertex -6.05636565539898 46.0026643351642 0.0
vertex -5.7 33.2726896031426 0.0
vertex 0.0 46.8 0.0
endloop
endfacet
facet normal 0.0 0.0 1.0
outer loop
vertex 0.0 46.8 0.0
vertex -5.7 33.2726896031426 0.0
vertex -2.95053711416873 34.4115544196954 0.0
endloop
endfacet
facet normal 0.0 0.0 1.0
outer loop
vertex 0.0 46.8 0.0
vertex -2.95053711416873 34.4115544196954 0.0
vertex 0.0 34.8 0.0
endloop
endfacet
facet normal 0.0 0.0 1.0
outer loop
vertex 0.0 46.8 0.0
vertex 0.0 34.8 0.0
vertex 2.95053711416874 34.4115544196954 0.0
endloop
endfacet
facet normal 0.0 0.0 1.0
outer loop
vertex 0.0 46.8 0.0
vertex 2.95053711416874 34.4115544196954 0.0
vertex 6.056365655399 46.0026643351642 0.0
endloop
endfacet
facet normal 0.0 0.0 1.0
outer loop
vertex 6.056365655399 46.0026643351642 0.0
vertex 2.95053711416874 34.4115544196954 0.0
vertex 5.70000000000001 33.2726896031426 0.0
endloop
endfacet
facet normal 0.0 0.0 1.0
outer loop
vertex 6.056365655399 46.0026643351642 0.0
vertex 5.70000000000001 33.2726896031426 0.0
vertex 8.06101730552664 31.4610173055266 0.0
endloop
endfacet
facet normal 0.0 0.0 1.0
outer loop
vertex 6.056365655399 46.0026643351642 0.0
vertex 8.06101730552664 31.4610173055266 0.0
vertex 11.7 43.6649944485559 0.0
endloop
endfacet
facet normal 0.0 0.0 1.0
outer loop
vertex 11.7 43.6649944485559 0.0
vertex 8.06101730552664 31.4610173055266 0.0
vertex 9.8726896031426 29.1 0.0
endloop
endfacet
facet normal 0.0 0.0 1.0
outer loop
vertex 11.7 43.6649944485559 0.0
vertex 9.8726896031426 29.1 0.0
vertex 11.0115544196954 26.3505371141687 0.0
endloop
endfacet
facet normal 0.0 0.0 1.0
outer loop
vertex 11.7 43.6649944485559 0.0
vertex 11.0115544196954 26.3505371141687 0.0
vertex 11.4 23.4 0.0
endloop
endfacet
facet normal 0.0 0.0 1.0
outer loop
vertex 11.7 43.6649944485559 0.0
vertex 11.4 23.4 0.0
vertex 11.7 3.13500555144414 0.0
endloop
endfacet
facet normal 0.0 0.0 1.0
outer loop
vertex 11.7 43.6649944485559 0.0
vertex 11.7 3.13500555144414 0.0
vertex 16.5462986797652 6.85370132023479 0.0
endloop
endfacet
facet normal 0.0 0.0 1.0
outer loop
vertex 11.7 43.6649944485559 0.0
vertex 16.5462986797652 6.85370132023479 0.0
vertex 16.5462986797652 39.9462986797652 0.0
endloop
endfacet
facet normal 0.0 0.0 1.0
outer loop
vertex 16.5462986797652 39.9462986797652 0.0
vertex 16.5462986797652 6.85370132023479 0.0
vertex 20.2649944485559 11.7 0.0
endloop
endfacet
facet normal 0.0 0.0 1.0
outer loop
vertex 16.5462986797652 39.9462986797652 0.0
vertex 20.2649944485559 11.7 0.0
vertex 20.2649944485559 35.1 0.0
endloop
endfacet
facet normal 0.0 0.0 1.0
outer loop
vertex 20.2649944485559 35.1 0.0
vertex 20.2649944485559 11.7 0.0
vertex 22.6026643351642 29.456365655399 0.0
endloop
endfacet
facet normal 0.0 0.0 1.0
outer loop
vertex 22.6026643351642 29.456365655399 0.0
vertex 20.2649944485559 11.7 0.0
vertex 22.6026643351642 17.343634344601 0.0
endloop
endfacet
facet normal 0.0 0.0 1.0
outer loop
vertex 22.6026643351642 29.456365655399 0.0
vertex 22.6026643351642 17.343634344601 0.0
vertex 23.4 23.4 0.0
endloop
endfacet
facet normal 1.0 -3.29711066138935e-016 0.0
outer loop
vertex -23.4 23.4 0.0
vertex -22.6026643351642 17.343634344601 3.0
vertex -22.6026643351642 17.343634344601 0.0
endloop
endfacet
facet normal 0.965925826289068 0.258819045102521 0.0
outer loop
vertex -22.6026643351642 17.343634344601 3.0
vertex -23.4 23.4 0.0
vertex -23.4 23.4 3.0
endloop
endfacet
facet normal -0.965925826289068 0.258819045102521 0.0
outer loop
vertex -11.0115544196954 26.3505371141687 14.0
vertex -11.4 23.4 0.0
vertex -11.4 23.4 14.0
endloop
endfacet
facet normal -1.0 4.45555494782345e-016 0.0
outer loop
vertex -11.4 23.4 0.0
vertex -11.0115544196954 26.3505371141687 14.0
vertex -11.0115544196954 26.3505371141687 0.0
endloop
endfacet
facet normal 0.965925826289068 -0.258819045102521 0.0
outer loop
vertex -13.9093318985626 27.1269942494763 3.0
vertex -14.4 23.4 14.0
vertex -14.4 23.4 3.0
endloop
endfacet
facet normal 1.0 -5.61399923425755e-016 0.0
outer loop
vertex -14.4 23.4 14.0
vertex -13.9093318985626 27.1269942494763 3.0
vertex -13.9093318985626 27.1269942494763 14.0
endloop
endfacet
facet normal 0.707106781186548 0.707106781186547 0.0
outer loop
vertex 8.06101730552664 31.4610173055266 0.0
vertex 9.8726896031426 29.1 14.0
vertex 9.8726896031426 29.1 0.0
endloop
endfacet
facet normal 0.866025403784439 0.5 0.0
outer loop
vertex 9.8726896031426 29.1 14.0
vertex 8.06101730552664 31.4610173055266 0.0
vertex 8.06101730552664 31.4610173055266 14.0
endloop
endfacet
facet normal -0.707106781186548 -0.707106781186547 0.0
outer loop
vertex 10.1823376490863 33.5823376490863 14.0
vertex 12.4707658144959 30.6 3.0
vertex 12.4707658144959 30.6 14.0
endloop
endfacet
facet normal -0.866025403784439 -0.499999999999999 0.0
outer loop
vertex 12.4707658144959 30.6 3.0
vertex 10.1823376490863 33.5823376490863 14.0
vertex 10.1823376490863 33.5823376490863 3.0
endloop
endfacet
facet normal -0.965925826289068 -0.258819045102521 0.0
outer loop
vertex 13.9093318985626 27.1269942494763 14.0
vertex 14.4 23.4 3.0
vertex 14.4 23.4 14.0
endloop
endfacet
facet normal -1.0 2.94066626556348e-016 0.0
outer loop
vertex 14.4 23.4 3.0
vertex 13.9093318985626 27.1269942494763 14.0
vertex 13.9093318985626 27.1269942494763 3.0
endloop
endfacet
facet normal -0.258819045102521 0.965925826289068 0.0
outer loop
vertex 3.7269942494763 9.49066810143743 14.0
vertex 7.19999999999999 10.9292341855041 3.0
vertex 3.7269942494763 9.49066810143743 3.0
endloop
endfacet
facet normal -0.5 0.866025403784439 0.0
outer loop
vertex 7.19999999999999 10.9292341855041 3.0
vertex 3.7269942494763 9.49066810143743 14.0
vertex 7.19999999999999 10.9292341855041 14.0
endloop
endfacet
facet normal -0.258819045102521 0.965925826289068 0.0
outer loop
vertex 6.05636565539899 0.797335664835811 3.0
vertex 11.7 3.13500555144414 0.0
vertex 6.05636565539899 0.797335664835811 0.0
endloop
endfacet
facet normal -0.5 0.866025403784439 0.0
outer loop
vertex 11.7 3.13500555144414 0.0
vertex 6.05636565539899 0.797335664835811 3.0
vertex 11.7 3.13500555144414 3.0
endloop
endfacet
facet normal 0.258819045102521 -0.965925826289068 0.0
outer loop
vertex 2.95053711416874 12.3884455803046 14.0
vertex 0.0 12.0 0.0
vertex 2.95053711416874 12.3884455803046 0.0
endloop
endfacet
facet normal -2.49511077078113e-016 -1.0 0.0
outer loop
vertex 0.0 12.0 0.0
vertex 2.95053711416874 12.3884455803046 14.0
vertex 0.0 12.0 14.0
endloop
endfacet
facet normal 1.42577758330351e-016 1.0 0.0
outer loop
vertex 0.0 9.0 14.0
vertex 3.7269942494763 9.49066810143743 3.0
vertex 0.0 9.0 3.0
endloop
endfacet
facet normal -0.258819045102521 0.965925826289068 0.0
outer loop
vertex 3.7269942494763 9.49066810143743 3.0
vertex 0.0 9.0 14.0
vertex 3.7269942494763 9.49066810143743 14.0
endloop
endfacet
facet normal 2.85155516660701e-016 1.0 0.0
outer loop
vertex -5.63993296509579e-015 7.04991620636974e-016 3.0
vertex 6.05636565539899 0.797335664835811 0.0
vertex -5.63993296509579e-015 7.04991620636974e-016 0.0
endloop
endfacet
facet normal -0.258819045102521 0.965925826289068 0.0
outer loop
vertex 6.05636565539899 0.797335664835811 0.0
vertex -5.63993296509579e-015 7.04991620636974e-016 3.0
vertex 6.05636565539899 0.797335664835811 3.0
endloop
endfacet
facet normal -0.707106781186548 -0.707106781186548 0.0
outer loop
vertex 16.5462986797652 39.9462986797652 3.0
vertex 20.2649944485559 35.1 0.0
vertex 20.2649944485559 35.1 3.0
endloop
endfacet
facet normal -0.866025403784439 -0.5 0.0
outer loop
vertex 20.2649944485559 35.1 0.0
vertex 16.5462986797652 39.9462986797652 3.0
vertex 16.5462986797652 39.9462986797652 0.0
endloop
endfacet
facet normal 0.866025403784439 0.5 0.0
outer loop
vertex -12.4707658144959 16.2 3.0
vertex -10.1823376490863 13.2176623509137 14.0
vertex -10.1823376490863 13.2176623509137 3.0
endloop
endfacet
facet normal 0.707106781186548 0.707106781186547 0.0
outer loop
vertex -10.1823376490863 13.2176623509137 14.0
vertex -12.4707658144959 16.2 3.0
vertex -12.4707658144959 16.2 14.0
endloop
endfacet
facet normal 0.866025403784439 0.5 0.0
outer loop
vertex -20.2649944485559 11.7 0.0
vertex -16.5462986797652 6.85370132023479 3.0
vertex -16.5462986797652 6.85370132023479 0.0
endloop
endfacet
facet normal 0.707106781186548 0.707106781186547 0.0
outer loop
vertex -16.5462986797652 6.85370132023479 3.0
vertex -20.2649944485559 11.7 0.0
vertex -20.2649944485559 11.7 3.0
endloop
endfacet
facet normal 0.965925826289068 -0.258819045102522 0.0
outer loop
vertex -22.6026643351642 29.456365655399 0.0
vertex -23.4 23.4 3.0
vertex -23.4 23.4 0.0
endloop
endfacet
facet normal 1.0 -3.29711066138935e-016 0.0
outer loop
vertex -23.4 23.4 3.0
vertex -22.6026643351642 29.456365655399 0.0
vertex -22.6026643351642 29.456365655399 3.0
endloop
endfacet
facet normal -0.866025403784439 0.5 0.0
outer loop
vertex -9.8726896031426 29.1 14.0
vertex -11.0115544196954 26.3505371141687 0.0
vertex -11.0115544196954 26.3505371141687 14.0
endloop
endfacet
facet normal -0.965925826289068 0.258819045102521 0.0
outer loop
vertex -11.0115544196954 26.3505371141687 0.0
vertex -9.8726896031426 29.1 14.0
vertex -9.8726896031426 29.1 0.0
endloop
endfacet
facet normal 0.258819045102522 0.965925826289068 0.0
outer loop
vertex -3.72699424947631 9.49066810143742 14.0
vertex 0.0 9.0 3.0
vertex -3.72699424947631 9.49066810143742 3.0
endloop
endfacet
facet normal 1.42577758330351e-016 1.0 0.0
outer loop
vertex 0.0 9.0 3.0
vertex -3.72699424947631 9.49066810143742 14.0
vertex 0.0 9.0 14.0
endloop
endfacet
facet normal -0.707106781186547 0.707106781186548 0.0
outer loop
vertex -8.06101730552664 31.4610173055266 14.0
vertex -9.8726896031426 29.1 0.0
vertex -9.8726896031426 29.1 14.0
endloop
endfacet
facet normal -0.866025403784439 0.5 0.0
outer loop
vertex -9.8726896031426 29.1 0.0
vertex -8.06101730552664 31.4610173055266 14.0
vertex -8.06101730552664 31.4610173055266 0.0
endloop
endfacet
facet normal 0.707106781186547 -0.707106781186548 0.0
outer loop
vertex -16.5462986797652 39.9462986797652 0.0
vertex -20.2649944485559 35.1 3.0
vertex -20.2649944485559 35.1 0.0
endloop
endfacet
facet normal 0.866025403784438 -0.500000000000001 0.0
outer loop
vertex -20.2649944485559 35.1 3.0
vertex -16.5462986797652 39.9462986797652 0.0
vertex -16.5462986797652 39.9462986797652 3.0
endloop
endfacet
facet normal -0.965925826289068 -0.25881904510252 0.0
outer loop
vertex -11.0115544196954 20.4494628858313 14.0
vertex -9.87268960314261 17.7 0.0
vertex -9.87268960314261 17.7 14.0
endloop
endfacet
facet normal -0.866025403784439 -0.5 0.0
outer loop
vertex -9.87268960314261 17.7 0.0
vertex -11.0115544196954 20.4494628858313 14.0
vertex -11.0115544196954 20.4494628858313 0.0
endloop
endfacet
facet normal 0.965925826289068 0.25881904510252 0.0
outer loop
vertex -13.9093318985626 19.6730057505237 3.0
vertex -12.4707658144959 16.2 14.0
vertex -12.4707658144959 16.2 3.0
endloop
endfacet
facet normal 0.866025403784439 0.5 0.0
outer loop
vertex -12.4707658144959 16.2 14.0
vertex -13.9093318985626 19.6730057505237 3.0
vertex -13.9093318985626 19.6730057505237 14.0
endloop
endfacet
facet normal -4.23587344604967e-033 6.65637255807805e-033 -1.0
outer loop
vertex -16.5462986797652 39.9462986797652 3.0
vertex -13.9093318985626 27.1269942494763 3.0
vertex -14.4 23.4 3.0
endloop
endfacet
facet normal -4.23587344604967e-033 6.65637255807805e-033 -1.0
outer loop
vertex -13.9093318985626 27.1269942494763 3.0
vertex -16.5462986797652 39.9462986797652 3.0
vertex -11.7 43.6649944485559 3.0
endloop
endfacet
facet normal -4.23587344604967e-033 6.65637255807805e-033 -1.0
outer loop
vertex -13.9093318985626 27.1269942494763 3.0
vertex -11.7 43.6649944485559 3.0
vertex -12.4707658144959 30.6 3.0
endloop
endfacet
facet normal -4.23587344604967e-033 6.65637255807805e-033 -1.0
outer loop
vertex -12.4707658144959 30.6 3.0
vertex -11.7 43.6649944485559 3.0
vertex -10.1823376490863 33.5823376490863 3.0
endloop
endfacet
facet normal -4.23587344604967e-033 6.65637255807805e-033 -1.0
outer loop
vertex -10.1823376490863 33.5823376490863 3.0
vertex -11.7 43.6649944485559 3.0
vertex -6.05636565539898 46.0026643351642 3.0
endloop
endfacet
facet normal -4.23587344604967e-033 6.65637255807805e-033 -1.0
outer loop
vertex -10.1823376490863 33.5823376490863 3.0
vertex -6.05636565539898 46.0026643351642 3.0
vertex -7.19999999999999 35.8707658144959 3.0
endloop
endfacet
facet normal -4.23587344604967e-033 6.65637255807805e-033 -1.0
outer loop
vertex -7.19999999999999 35.8707658144959 3.0
vertex -6.05636565539898 46.0026643351642 3.0
vertex -3.72699424947629 37.3093318985626 3.0
endloop
endfacet
facet normal -4.23587344604967e-033 6.65637255807805e-033 -1.0
outer loop
vertex -3.72699424947629 37.3093318985626 3.0
vertex -6.05636565539898 46.0026643351642 3.0
vertex 0.0 46.8 3.0
endloop
endfacet
facet normal -4.23587344604967e-033 6.65637255807805e-033 -1.0
outer loop
vertex -3.72699424947629 37.3093318985626 3.0
vertex 0.0 46.8 3.0
vertex 0.0 37.8 3.0
endloop
endfacet
facet normal -4.23587344604967e-033 6.65637255807805e-033 -1.0
outer loop
vertex 0.0 37.8 3.0
vertex 0.0 46.8 3.0
vertex 6.056365655399 46.0026643351642 3.0
endloop
endfacet
facet normal -4.23587344604967e-033 6.65637255807805e-033 -1.0
outer loop
vertex 0.0 37.8 3.0
vertex 6.056365655399 46.0026643351642 3.0
vertex 3.7269942494763 37.3093318985626 3.0
endloop
endfacet
facet normal -4.23587344604967e-033 6.65637255807805e-033 -1.0
outer loop
vertex 3.7269942494763 37.3093318985626 3.0
vertex 6.056365655399 46.0026643351642 3.0
vertex 7.2 35.8707658144959 3.0
endloop
endfacet
facet normal -4.23587344604967e-033 6.65637255807805e-033 -1.0
outer loop
vertex 7.2 35.8707658144959 3.0
vertex 6.056365655399 46.0026643351642 3.0
vertex 11.7 43.6649944485559 3.0
endloop
endfacet
facet normal -4.23587344604967e-033 6.65637255807805e-033 -1.0
outer loop
vertex 7.2 35.8707658144959 3.0
vertex 11.7 43.6649944485559 3.0
vertex 10.1823376490863 33.5823376490863 3.0
endloop
endfacet
facet normal -4.23587344604967e-033 6.65637255807805e-033 -1.0
outer loop
vertex 10.1823376490863 33.5823376490863 3.0
vertex 11.7 43.6649944485559 3.0
vertex 12.4707658144959 30.6 3.0
endloop
endfacet
facet normal -4.23587344604967e-033 6.65637255807805e-033 -1.0
outer loop
vertex 12.4707658144959 30.6 3.0
vertex 11.7 43.6649944485559 3.0
vertex 16.5462986797652 39.9462986797652 3.0
endloop
endfacet
facet normal -4.23587344604967e-033 6.65637255807805e-033 -1.0
outer loop
vertex 12.4707658144959 30.6 3.0
vertex 16.5462986797652 39.9462986797652 3.0
vertex 13.9093318985626 27.1269942494763 3.0
endloop
endfacet
facet normal -4.23587344604967e-033 6.65637255807805e-033 -1.0
outer loop
vertex 13.9093318985626 27.1269942494763 3.0
vertex 16.5462986797652 39.9462986797652 3.0
vertex 14.4 23.4 3.0
endloop
endfacet
facet normal -4.23587344604967e-033 6.65637255807805e-033 -1.0
outer loop
vertex 14.4 23.4 3.0
vertex 16.5462986797652 39.9462986797652 3.0
vertex 16.5462986797652 6.85370132023479 3.0
endloop
endfacet
facet normal -4.23587344604967e-033 6.65637255807805e-033 -1.0
outer loop
vertex 16.5462986797652 6.85370132023479 3.0
vertex 16.5462986797652 39.9462986797652 3.0
vertex 20.2649944485559 11.7 3.0
endloop
endfacet
facet normal -4.23587344604967e-033 6.65637255807805e-033 -1.0
outer loop
vertex 20.2649944485559 11.7 3.0
vertex 16.5462986797652 39.9462986797652 3.0
vertex 20.2649944485559 35.1 3.0
endloop
endfacet
facet normal -4.23587344604967e-033 6.65637255807805e-033 -1.0
outer loop
vertex 20.2649944485559 11.7 3.0
vertex 20.2649944485559 35.1 3.0
vertex 22.6026643351642 29.456365655399 3.0
endloop
endfacet
facet normal -4.23587344604967e-033 6.65637255807805e-033 -1.0
outer loop
vertex 20.2649944485559 11.7 3.0
vertex 22.6026643351642 29.456365655399 3.0
vertex 22.6026643351642 17.343634344601 3.0
endloop
endfacet
facet normal -4.23587344604967e-033 6.65637255807805e-033 -1.0
outer loop
vertex 22.6026643351642 17.343634344601 3.0
vertex 22.6026643351642 29.456365655399 3.0
vertex 23.4 23.4 3.0
endloop
endfacet
facet normal -4.23587344604967e-033 6.65637255807805e-033 -1.0
outer loop
vertex -22.6026643351642 29.456365655399 3.0
vertex -22.6026643351642 17.343634344601 3.0
vertex -23.4 23.4 3.0
endloop
endfacet
facet normal -4.23587344604967e-033 6.65637255807805e-033 -1.0
outer loop
vertex -22.6026643351642 17.343634344601 3.0
vertex -22.6026643351642 29.456365655399 3.0
vertex -20.2649944485559 11.7 3.0
endloop
endfacet
facet normal -4.23587344604967e-033 6.65637255807805e-033 -1.0
outer loop
vertex -20.2649944485559 11.7 3.0
vertex -22.6026643351642 29.456365655399 3.0
vertex -20.2649944485559 35.1 3.0
endloop
endfacet
facet normal -4.23587344604967e-033 6.65637255807805e-033 -1.0
outer loop
vertex -20.2649944485559 11.7 3.0
vertex -20.2649944485559 35.1 3.0
vertex -16.5462986797652 6.85370132023479 3.0
endloop
endfacet
facet normal -4.23587344604967e-033 6.65637255807805e-033 -1.0
outer loop
vertex -16.5462986797652 6.85370132023479 3.0
vertex -20.2649944485559 35.1 3.0
vertex -16.5462986797652 39.9462986797652 3.0
endloop
endfacet
facet normal -4.23587344604967e-033 6.65637255807805e-033 -1.0
outer loop
vertex -16.5462986797652 6.85370132023479 3.0
vertex -16.5462986797652 39.9462986797652 3.0
vertex -14.4 23.4 3.0
endloop
endfacet
facet normal -4.23587344604967e-033 6.65637255807805e-033 -1.0
outer loop
vertex -16.5462986797652 6.85370132023479 3.0
vertex -14.4 23.4 3.0
vertex -13.9093318985626 19.6730057505237 3.0
endloop
endfacet
facet normal -4.23587344604967e-033 6.65637255807805e-033 -1.0
outer loop
vertex -16.5462986797652 6.85370132023479 3.0
vertex -13.9093318985626 19.6730057505237 3.0
vertex -11.7 3.13500555144415 3.0
endloop
endfacet
facet normal -4.23587344604967e-033 6.65637255807805e-033 -1.0
outer loop
vertex -11.7 3.13500555144415 3.0
vertex -13.9093318985626 19.6730057505237 3.0
vertex -12.4707658144959 16.2 3.0
endloop
endfacet
facet normal -4.23587344604967e-033 6.65637255807805e-033 -1.0
outer loop
vertex -11.7 3.13500555144415 3.0
vertex -12.4707658144959 16.2 3.0
vertex -10.1823376490863 13.2176623509137 3.0
endloop
endfacet
facet normal -4.23587344604967e-033 6.65637255807805e-033 -1.0
outer loop
vertex -11.7 3.13500555144415 3.0
vertex -10.1823376490863 13.2176623509137 3.0
vertex -6.05636565539901 0.797335664835811 3.0
endloop
endfacet
facet normal -4.23587344604967e-033 6.65637255807805e-033 -1.0
outer loop
vertex -6.05636565539901 0.797335664835811 3.0
vertex -10.1823376490863 13.2176623509137 3.0
vertex -7.20000000000001 10.9292341855041 3.0
endloop
endfacet
facet normal -4.23587344604967e-033 6.65637255807805e-033 -1.0
outer loop
vertex -6.05636565539901 0.797335664835811 3.0
vertex -7.20000000000001 10.9292341855041 3.0
vertex -3.72699424947631 9.49066810143742 3.0
endloop
endfacet
facet normal -4.23587344604967e-033 6.65637255807805e-033 -1.0
outer loop
vertex -6.05636565539901 0.797335664835811 3.0
vertex -3.72699424947631 9.49066810143742 3.0
vertex -5.63993296509579e-015 7.04991620636974e-016 3.0
endloop
endfacet
facet normal -4.23587344604967e-033 6.65637255807805e-033 -1.0
outer loop
vertex -5.63993296509579e-015 7.04991620636974e-016 3.0
vertex -3.72699424947631 9.49066810143742 3.0
vertex 0.0 9.0 3.0
endloop
endfacet
facet normal -4.23587344604967e-033 6.65637255807805e-033 -1.0
outer loop
vertex -5.63993296509579e-015 7.04991620636974e-016 3.0
vertex 0.0 9.0 3.0
vertex 6.05636565539899 0.797335664835811 3.0
endloop
endfacet
facet normal -4.23587344604967e-033 6.65637255807805e-033 -1.0
outer loop
vertex 6.05636565539899 0.797335664835811 3.0
vertex 0.0 9.0 3.0
vertex 3.7269942494763 9.49066810143743 3.0
endloop
endfacet
facet normal -4.23587344604967e-033 6.65637255807805e-033 -1.0
outer loop
vertex 6.05636565539899 0.797335664835811 3.0
vertex 3.7269942494763 9.49066810143743 3.0
vertex 7.19999999999999 10.9292341855041 3.0
endloop
endfacet
facet normal -4.23587344604967e-033 6.65637255807805e-033 -1.0
outer loop
vertex 6.05636565539899 0.797335664835811 3.0
vertex 7.19999999999999 10.9292341855041 3.0
vertex 11.7 3.13500555144414 3.0
endloop
endfacet
facet normal -4.23587344604967e-033 6.65637255807805e-033 -1.0
outer loop
vertex 11.7 3.13500555144414 3.0
vertex 7.19999999999999 10.9292341855041 3.0
vertex 10.1823376490863 13.2176623509137 3.0
endloop
endfacet
facet normal -4.23587344604967e-033 6.65637255807805e-033 -1.0
outer loop
vertex 11.7 3.13500555144414 3.0
vertex 10.1823376490863 13.2176623509137 3.0
vertex 12.4707658144959 16.2 3.0
endloop
endfacet
facet normal -4.23587344604967e-033 6.65637255807805e-033 -1.0
outer loop
vertex 11.7 3.13500555144414 3.0
vertex 12.4707658144959 16.2 3.0
vertex 16.5462986797652 6.85370132023479 3.0
endloop
endfacet
facet normal -4.23587344604967e-033 6.65637255807805e-033 -1.0
outer loop
vertex 16.5462986797652 6.85370132023479 3.0
vertex 12.4707658144959 16.2 3.0
vertex 13.9093318985626 19.6730057505237 3.0
endloop
endfacet
facet normal -4.23587344604967e-033 6.65637255807805e-033 -1.0
outer loop
vertex 16.5462986797652 6.85370132023479 3.0
vertex 13.9093318985626 19.6730057505237 3.0
vertex 14.4 23.4 3.0
endloop
endfacet
endsolid PulleyV8
