solid IRSensor
facet normal 0.721657096884294 0.69225070207009 3.04985238201184e-032
outer loop
vertex 2.71019458434834 2.75500993004518 1.5748
vertex 3.02072106762782 2.50630725747459 0.0
vertex 2.71019458434834 2.75500993004518 0.0
endloop
endfacet
facet normal 0.517899561924002 0.855441432103289 2.26868162160389e-032
outer loop
vertex 3.02072106762782 2.50630725747459 0.0
vertex 2.71019458434834 2.75500993004518 1.5748
vertex 3.02072106762782 2.50630725747459 1.5748
endloop
endfacet
facet normal 0.876234893286663 0.481884230689189 3.62318074270504e-032
outer loop
vertex 2.47461802263113 3.07560843242968 0.0
vertex 2.71019458434834 2.75500993004518 1.5748
vertex 2.71019458434834 2.75500993004518 0.0
endloop
endfacet
facet normal 0.721657096884294 0.69225070207009 3.04985238201184e-032
outer loop
vertex 2.71019458434834 2.75500993004518 1.5748
vertex 2.47461802263113 3.07560843242968 0.0
vertex 2.47461802263113 3.07560843242968 1.5748
endloop
endfacet
facet normal 0.0 0.0 -1.0
outer loop
vertex 2.56 9.0109364905389 0.0
vertex 2.2863295000575 3.84168923484346 0.0
vertex 2.04223304703363 9.40823304703363 0.0
endloop
endfacet
facet normal 0.0 0.0 -1.0
outer loop
vertex 2.2863295000575 3.84168923484346 0.0
vertex 2.56 9.0109364905389 0.0
vertex 2.34644909085297 4.23496439419664 0.0
endloop
endfacet
facet normal 0.0 0.0 -1.0
outer loop
vertex 2.34644909085297 4.23496439419664 0.0
vertex 2.56 9.0109364905389 0.0
vertex 2.50630725747459 4.59927893237218 0.0
endloop
endfacet
facet normal 0.0 0.0 -1.0
outer loop
vertex 2.50630725747459 4.59927893237218 0.0
vertex 2.56 9.0109364905389 0.0
vertex 2.75500993004518 4.90980541565166 0.0
endloop
endfacet
facet normal 0.0 0.0 -1.0
outer loop
vertex 2.75500993004518 4.90980541565166 0.0
vertex 2.56 9.0109364905389 0.0
vertex 3.1629523872437 8.76118543427733 0.0
endloop
endfacet
facet normal 0.0 0.0 -1.0
outer loop
vertex 2.75500993004518 4.90980541565166 0.0
vertex 3.1629523872437 8.76118543427733 0.0
vertex 3.07560843242968 5.14538197736887 0.0
endloop
endfacet
facet normal 0.0 0.0 -1.0
outer loop
vertex 3.07560843242968 5.14538197736887 0.0
vertex 3.1629523872437 8.76118543427733 0.0
vertex 3.44625450650464 5.28995446415145 0.0
endloop
endfacet
facet normal 0.0 0.0 -1.0
outer loop
vertex 3.44625450650464 5.28995446415145 0.0
vertex 3.1629523872437 8.76118543427733 0.0
vertex 3.81 8.676 0.0
endloop
endfacet
facet normal 0.0 0.0 -1.0
outer loop
vertex 3.44625450650464 5.28995446415145 0.0
vertex 3.81 8.676 0.0
vertex 3.84168923484346 5.3336704999425 0.0
endloop
endfacet
facet normal 0.0 0.0 -1.0
outer loop
vertex 3.84168923484346 5.3336704999425 0.0
vertex 3.81 8.676 0.0
vertex 4.4570476127563 8.76118543427733 0.0
endloop
endfacet
facet normal 0.0 0.0 -1.0
outer loop
vertex 3.84168923484346 5.3336704999425 0.0
vertex 4.4570476127563 8.76118543427733 0.0
vertex 4.23496439419664 5.27355090914702 0.0
endloop
endfacet
facet normal 0.0 0.0 -1.0
outer loop
vertex 4.23496439419664 5.27355090914702 0.0
vertex 4.4570476127563 8.76118543427733 0.0
vertex 4.59927893237218 5.11369274252541 0.0
endloop
endfacet
facet normal 0.0 0.0 -1.0
outer loop
vertex 4.59927893237218 5.11369274252541 0.0
vertex 4.4570476127563 8.76118543427733 0.0
vertex 5.06 9.0109364905389 0.0
endloop
endfacet
facet normal 0.0 0.0 -1.0
outer loop
vertex 4.59927893237218 5.11369274252541 0.0
vertex 5.06 9.0109364905389 0.0
vertex 4.90980541565167 4.86499006995482 0.0
endloop
endfacet
facet normal 0.0 0.0 -1.0
outer loop
vertex 4.90980541565167 4.86499006995482 0.0
vertex 5.06 9.0109364905389 0.0
vertex 5.14538197736887 4.54439156757032 0.0
endloop
endfacet
facet normal 0.0 0.0 -1.0
outer loop
vertex 5.14538197736887 4.54439156757032 0.0
vertex 5.06 9.0109364905389 0.0
vertex 5.57776695296637 9.40823304703363 0.0
endloop
endfacet
facet normal 0.0 0.0 -1.0
outer loop
vertex 5.14538197736887 4.54439156757032 0.0
vertex 5.57776695296637 9.40823304703363 0.0
vertex 5.28995446415145 4.17374549349536 0.0
endloop
endfacet
facet normal 0.0 0.0 -1.0
outer loop
vertex 5.28995446415145 4.17374549349536 0.0
vertex 5.57776695296637 9.40823304703363 0.0
vertex 5.3336704999425 3.77831076515654 0.0
endloop
endfacet
facet normal 0.0 0.0 -1.0
outer loop
vertex 0.0 14.986 0.0
vertex 1.31 11.176 0.0
vertex 0.0 0.0 0.0
endloop
endfacet
facet normal 0.0 0.0 -1.0
outer loop
vertex 1.31 11.176 0.0
vertex 0.0 14.986 0.0
vertex 1.39518543427733 11.8230476127563 0.0
endloop
endfacet
facet normal 0.0 0.0 -1.0
outer loop
vertex 1.39518543427733 11.8230476127563 0.0
vertex 0.0 14.986 0.0
vertex 1.6449364905389 12.426 0.0
endloop
endfacet
facet normal 0.0 0.0 -1.0
outer loop
vertex 1.6449364905389 12.426 0.0
vertex 0.0 14.986 0.0
vertex 2.04223304703363 12.9437669529664 0.0
endloop
endfacet
facet normal 0.0 0.0 -1.0
outer loop
vertex 2.04223304703363 12.9437669529664 0.0
vertex 0.0 14.986 0.0
vertex 2.56 13.3410635094611 0.0
endloop
endfacet
facet normal 0.0 0.0 -1.0
outer loop
vertex 2.56 13.3410635094611 0.0
vertex 0.0 14.986 0.0
vertex 3.1629523872437 13.5908145657227 0.0
endloop
endfacet
facet normal 0.0 0.0 -1.0
outer loop
vertex 3.1629523872437 13.5908145657227 0.0
vertex 0.0 14.986 0.0
vertex 3.81 13.676 0.0
endloop
endfacet
facet normal 0.0 0.0 -1.0
outer loop
vertex 3.81 13.676 0.0
vertex 0.0 14.986 0.0
vertex 28.575 14.986 0.0
endloop
endfacet
facet normal 0.0 0.0 -1.0
outer loop
vertex 3.81 13.676 0.0
vertex 28.575 14.986 0.0
vertex 4.4570476127563 13.5908145657227 0.0
endloop
endfacet
facet normal 0.0 0.0 -1.0
outer loop
vertex 4.4570476127563 13.5908145657227 0.0
vertex 28.575 14.986 0.0
vertex 5.06 13.3410635094611 0.0
endloop
endfacet
facet normal 0.0 0.0 -1.0
outer loop
vertex 5.06 13.3410635094611 0.0
vertex 28.575 14.986 0.0
vertex 5.57776695296637 12.9437669529664 0.0
endloop
endfacet
facet normal 0.0 0.0 -1.0
outer loop
vertex 5.57776695296637 12.9437669529664 0.0
vertex 28.575 14.986 0.0
vertex 5.9750635094611 12.426 0.0
endloop
endfacet
facet normal 0.0 0.0 -1.0
outer loop
vertex 5.9750635094611 12.426 0.0
vertex 28.575 14.986 0.0
vertex 6.22481456572267 11.8230476127563 0.0
endloop
endfacet
facet normal 0.0 0.0 -1.0
outer loop
vertex 6.22481456572267 11.8230476127563 0.0
vertex 28.575 14.986 0.0
vertex 6.31 11.176 0.0
endloop
endfacet
facet normal 0.0 0.0 -1.0
outer loop
vertex 6.31 11.176 0.0
vertex 28.575 14.986 0.0
vertex 23.9998211553718 12.4939822972003 0.0
endloop
endfacet
facet normal 0.0 0.0 -1.0
outer loop
vertex 6.31 11.176 0.0
vertex 23.9998211553718 12.4939822972003 0.0
vertex 23.6847750726202 12.2510302815583 0.0
endloop
endfacet
facet normal 0.0 0.0 -1.0
outer loop
vertex 6.31 11.176 0.0
vertex 23.6847750726202 12.2510302815583 0.0
vertex 23.4433445335134 11.9348167287996 0.0
endloop
endfacet
facet normal 0.0 0.0 -1.0
outer loop
vertex 6.31 11.176 0.0
vertex 23.4433445335134 11.9348167287996 0.0
vertex 23.2919826303087 11.5668910699771 0.0
endloop
endfacet
facet normal 0.0 0.0 -1.0
outer loop
vertex 6.31 11.176 0.0
vertex 23.2919826303087 11.5668910699771 0.0
vertex 22.3501854342773 4.4570476127563 0.0
endloop
endfacet
facet normal 0.0 0.0 -1.0
outer loop
vertex 6.31 11.176 0.0
vertex 22.3501854342773 4.4570476127563 0.0
vertex 22.265 3.81 0.0
endloop
endfacet
facet normal 0.0 0.0 -1.0
outer loop
vertex 22.3501854342773 4.4570476127563 0.0
vertex 23.2919826303087 11.5668910699771 0.0
vertex 23.2410044265722 11.1723268307137 0.0
endloop
endfacet
facet normal 0.0 0.0 -1.0
outer loop
vertex 22.3501854342773 4.4570476127563 0.0
vertex 23.2410044265722 11.1723268307137 0.0
vertex 22.5999364905389 5.06 0.0
endloop
endfacet
facet normal 0.0 0.0 -1.0
outer loop
vertex 22.5999364905389 5.06 0.0
vertex 23.2410044265722 11.1723268307137 0.0
vertex 22.9972330470336 5.57776695296637 0.0
endloop
endfacet
facet normal 0.0 0.0 -1.0
outer loop
vertex 23.9998211553718 12.4939822972003 0.0
vertex 28.575 14.986 0.0
vertex 24.367012911867 12.6471159973569 0.0
endloop
endfacet
facet normal 0.0 0.0 -1.0
outer loop
vertex 24.367012911867 12.6471159973569 0.0
vertex 28.575 14.986 0.0
vertex 24.7613268307137 12.6999955734278 0.0
endloop
endfacet
facet normal 0.0 0.0 -1.0
outer loop
vertex 24.7613268307137 12.6999955734278 0.0
vertex 28.575 14.986 0.0
vertex 25.1558910699771 12.6490173696913 0.0
endloop
endfacet
facet normal 0.0 0.0 -1.0
outer loop
vertex 25.1558910699771 12.6490173696913 0.0
vertex 28.575 14.986 0.0
vertex 25.5238167287996 12.4976554664866 0.0
endloop
endfacet
facet normal 0.0 0.0 -1.0
outer loop
vertex 25.5238167287996 12.4976554664866 0.0
vertex 28.575 14.986 0.0
vertex 25.8400302815583 12.2562249273798 0.0
endloop
endfacet
facet normal 0.0 0.0 -1.0
outer loop
vertex 25.8400302815583 12.2562249273798 0.0
vertex 28.575 14.986 0.0
vertex 26.0829822972003 11.9411788446282 0.0
endloop
endfacet
facet normal 0.0 0.0 -1.0
outer loop
vertex 26.0829822972003 11.9411788446282 0.0
vertex 28.575 14.986 0.0
vertex 26.2361159973569 11.573987088133 0.0
endloop
endfacet
facet normal 0.0 0.0 -1.0
outer loop
vertex 26.2361159973569 11.573987088133 0.0
vertex 28.575 14.986 0.0
vertex 26.2889955734278 11.1796731692863 0.0
endloop
endfacet
facet normal 0.0 0.0 -1.0
outer loop
vertex 26.2889955734278 11.1796731692863 0.0
vertex 28.575 14.986 0.0
vertex 26.5327669529664 5.57776695296637 0.0
endloop
endfacet
facet normal 0.0 0.0 -1.0
outer loop
vertex 26.5327669529664 5.57776695296637 0.0
vertex 28.575 14.986 0.0
vertex 26.9300635094611 5.06 0.0
endloop
endfacet
facet normal 0.0 0.0 -1.0
outer loop
vertex 26.9300635094611 5.06 0.0
vertex 28.575 14.986 0.0
vertex 27.1798145657227 4.4570476127563 0.0
endloop
endfacet
facet normal 0.0 0.0 -1.0
outer loop
vertex 27.1798145657227 4.4570476127563 0.0
vertex 28.575 14.986 0.0
vertex 27.265 3.81 0.0
endloop
endfacet
facet normal 0.0 0.0 -1.0
outer loop
vertex 0.0 0.0 0.0
vertex 3.77831076515654 2.2863295000575 0.0
vertex 28.575 0.0 0.0
endloop
endfacet
facet normal 0.0 0.0 -1.0
outer loop
vertex 3.77831076515654 2.2863295000575 0.0
vertex 0.0 0.0 0.0
vertex 3.38503560580336 2.34644909085297 0.0
endloop
endfacet
facet normal 0.0 0.0 -1.0
outer loop
vertex 3.38503560580336 2.34644909085297 0.0
vertex 0.0 0.0 0.0
vertex 3.02072106762782 2.50630725747459 0.0
endloop
endfacet
facet normal 0.0 0.0 -1.0
outer loop
vertex 3.02072106762782 2.50630725747459 0.0
vertex 0.0 0.0 0.0
vertex 2.71019458434834 2.75500993004518 0.0
endloop
endfacet
facet normal 0.0 0.0 -1.0
outer loop
vertex 2.71019458434834 2.75500993004518 0.0
vertex 0.0 0.0 0.0
vertex 2.47461802263113 3.07560843242968 0.0
endloop
endfacet
facet normal 0.0 0.0 -1.0
outer loop
vertex 2.47461802263113 3.07560843242968 0.0
vertex 0.0 0.0 0.0
vertex 2.33004553584855 3.44625450650464 0.0
endloop
endfacet
facet normal 0.0 0.0 -1.0
outer loop
vertex 2.33004553584855 3.44625450650464 0.0
vertex 0.0 0.0 0.0
vertex 1.39518543427733 10.5289523872437 0.0
endloop
endfacet
facet normal 0.0 0.0 -1.0
outer loop
vertex 1.39518543427733 10.5289523872437 0.0
vertex 0.0 0.0 0.0
vertex 1.31 11.176 0.0
endloop
endfacet
facet normal 0.0 0.0 -1.0
outer loop
vertex 2.33004553584855 3.44625450650464 0.0
vertex 1.39518543427733 10.5289523872437 0.0
vertex 2.2863295000575 3.84168923484346 0.0
endloop
endfacet
facet normal 0.0 0.0 -1.0
outer loop
vertex 2.2863295000575 3.84168923484346 0.0
vertex 1.39518543427733 10.5289523872437 0.0
vertex 1.6449364905389 9.926 0.0
endloop
endfacet
facet normal 0.0 0.0 -1.0
outer loop
vertex 2.2863295000575 3.84168923484346 0.0
vertex 1.6449364905389 9.926 0.0
vertex 2.04223304703363 9.40823304703363 0.0
endloop
endfacet
facet normal 0.0 0.0 -1.0
outer loop
vertex 28.575 0.0 0.0
vertex 3.77831076515654 2.2863295000575 0.0
vertex 4.17374549349536 2.33004553584855 0.0
endloop
endfacet
facet normal 0.0 0.0 -1.0
outer loop
vertex 28.575 0.0 0.0
vertex 4.17374549349536 2.33004553584855 0.0
vertex 4.54439156757032 2.47461802263113 0.0
endloop
endfacet
facet normal 0.0 0.0 -1.0
outer loop
vertex 28.575 0.0 0.0
vertex 4.54439156757032 2.47461802263113 0.0
vertex 4.86499006995482 2.71019458434833 0.0
endloop
endfacet
facet normal 0.0 0.0 -1.0
outer loop
vertex 28.575 0.0 0.0
vertex 4.86499006995482 2.71019458434833 0.0
vertex 5.11369274252541 3.02072106762782 0.0
endloop
endfacet
facet normal 0.0 0.0 -1.0
outer loop
vertex 28.575 0.0 0.0
vertex 5.11369274252541 3.02072106762782 0.0
vertex 5.27355090914703 3.38503560580336 0.0
endloop
endfacet
facet normal 0.0 0.0 -1.0
outer loop
vertex 28.575 0.0 0.0
vertex 5.27355090914703 3.38503560580336 0.0
vertex 5.3336704999425 3.77831076515654 0.0
endloop
endfacet
facet normal 0.0 0.0 -1.0
outer loop
vertex 28.575 0.0 0.0
vertex 5.3336704999425 3.77831076515654 0.0
vertex 24.1179523872437 1.39518543427733 0.0
endloop
endfacet
facet normal 0.0 0.0 -1.0
outer loop
vertex 24.1179523872437 1.39518543427733 0.0
vertex 5.3336704999425 3.77831076515654 0.0
vertex 23.515 1.6449364905389 0.0
endloop
endfacet
facet normal 0.0 0.0 -1.0
outer loop
vertex 23.515 1.6449364905389 0.0
vertex 5.3336704999425 3.77831076515654 0.0
vertex 5.57776695296637 9.40823304703363 0.0
endloop
endfacet
facet normal 0.0 0.0 -1.0
outer loop
vertex 23.515 1.6449364905389 0.0
vertex 5.57776695296637 9.40823304703363 0.0
vertex 5.9750635094611 9.926 0.0
endloop
endfacet
facet normal 0.0 0.0 -1.0
outer loop
vertex 23.515 1.6449364905389 0.0
vertex 5.9750635094611 9.926 0.0
vertex 6.22481456572267 10.5289523872437 0.0
endloop
endfacet
facet normal 0.0 0.0 -1.0
outer loop
vertex 23.515 1.6449364905389 0.0
vertex 6.22481456572267 10.5289523872437 0.0
vertex 6.31 11.176 0.0
endloop
endfacet
facet normal 0.0 0.0 -1.0
outer loop
vertex 23.515 1.6449364905389 0.0
vertex 6.31 11.176 0.0
vertex 22.9972330470336 2.04223304703363 0.0
endloop
endfacet
facet normal 0.0 0.0 -1.0
outer loop
vertex 22.9972330470336 2.04223304703363 0.0
vertex 6.31 11.176 0.0
vertex 22.5999364905389 2.56 0.0
endloop
endfacet
facet normal 0.0 0.0 -1.0
outer loop
vertex 22.5999364905389 2.56 0.0
vertex 6.31 11.176 0.0
vertex 22.3501854342773 3.1629523872437 0.0
endloop
endfacet
facet normal 0.0 0.0 -1.0
outer loop
vertex 22.3501854342773 3.1629523872437 0.0
vertex 6.31 11.176 0.0
vertex 22.265 3.81 0.0
endloop
endfacet
facet normal 0.0 0.0 -1.0
outer loop
vertex 28.575 0.0 0.0
vertex 24.1179523872437 1.39518543427733 0.0
vertex 24.765 1.31 0.0
endloop
endfacet
facet normal 0.0 0.0 -1.0
outer loop
vertex 28.575 0.0 0.0
vertex 24.765 1.31 0.0
vertex 25.4120476127563 1.39518543427733 0.0
endloop
endfacet
facet normal 0.0 0.0 -1.0
outer loop
vertex 28.575 0.0 0.0
vertex 25.4120476127563 1.39518543427733 0.0
vertex 26.015 1.6449364905389 0.0
endloop
endfacet
facet normal 0.0 0.0 -1.0
outer loop
vertex 28.575 0.0 0.0
vertex 26.015 1.6449364905389 0.0
vertex 26.5327669529664 2.04223304703363 0.0
endloop
endfacet
facet normal 0.0 0.0 -1.0
outer loop
vertex 28.575 0.0 0.0
vertex 26.5327669529664 2.04223304703363 0.0
vertex 26.9300635094611 2.56 0.0
endloop
endfacet
facet normal 0.0 0.0 -1.0
outer loop
vertex 28.575 0.0 0.0
vertex 26.9300635094611 2.56 0.0
vertex 27.1798145657227 3.1629523872437 0.0
endloop
endfacet
facet normal 0.0 0.0 -1.0
outer loop
vertex 28.575 0.0 0.0
vertex 27.1798145657227 3.1629523872437 0.0
vertex 27.265 3.81 0.0
endloop
endfacet
facet normal 0.0 0.0 -1.0
outer loop
vertex 28.575 0.0 0.0
vertex 27.265 3.81 0.0
vertex 28.575 14.986 0.0
endloop
endfacet
facet normal 0.0 0.0 -1.0
outer loop
vertex 23.2410044265722 11.1723268307137 0.0
vertex 23.515 5.9750635094611 0.0
vertex 22.9972330470336 5.57776695296637 0.0
endloop
endfacet
facet normal 0.0 0.0 -1.0
outer loop
vertex 23.515 5.9750635094611 0.0
vertex 23.2410044265722 11.1723268307137 0.0
vertex 23.2938840026431 10.778012911867 0.0
endloop
endfacet
facet normal 0.0 0.0 -1.0
outer loop
vertex 23.515 5.9750635094611 0.0
vertex 23.2938840026431 10.778012911867 0.0
vertex 23.4470177027997 10.4108211553718 0.0
endloop
endfacet
facet normal 0.0 0.0 -1.0
outer loop
vertex 23.515 5.9750635094611 0.0
vertex 23.4470177027997 10.4108211553718 0.0
vertex 23.6899697184417 10.0957750726202 0.0
endloop
endfacet
facet normal 0.0 0.0 -1.0
outer loop
vertex 23.515 5.9750635094611 0.0
vertex 23.6899697184417 10.0957750726202 0.0
vertex 24.1179523872437 6.22481456572267 0.0
endloop
endfacet
facet normal 0.0 0.0 -1.0
outer loop
vertex 24.1179523872437 6.22481456572267 0.0
vertex 23.6899697184417 10.0957750726202 0.0
vertex 24.0061832712004 9.85434453351339 0.0
endloop
endfacet
facet normal 0.0 0.0 -1.0
outer loop
vertex 24.1179523872437 6.22481456572267 0.0
vertex 24.0061832712004 9.85434453351339 0.0
vertex 24.3741089300229 9.70298263030874 0.0
endloop
endfacet
facet normal 0.0 0.0 -1.0
outer loop
vertex 24.1179523872437 6.22481456572267 0.0
vertex 24.3741089300229 9.70298263030874 0.0
vertex 24.765 6.31 0.0
endloop
endfacet
facet normal 0.0 0.0 -1.0
outer loop
vertex 24.765 6.31 0.0
vertex 24.3741089300229 9.70298263030874 0.0
vertex 24.7686731692863 9.65200442657224 0.0
endloop
endfacet
facet normal 0.0 0.0 -1.0
outer loop
vertex 24.765 6.31 0.0
vertex 24.7686731692863 9.65200442657224 0.0
vertex 25.4120476127563 6.22481456572267 0.0
endloop
endfacet
facet normal 0.0 0.0 -1.0
outer loop
vertex 25.4120476127563 6.22481456572267 0.0
vertex 24.7686731692863 9.65200442657224 0.0
vertex 25.162987088133 9.70488400264308 0.0
endloop
endfacet
facet normal 0.0 0.0 -1.0
outer loop
vertex 25.4120476127563 6.22481456572267 0.0
vertex 25.162987088133 9.70488400264308 0.0
vertex 25.5301788446282 9.85801770279966 0.0
endloop
endfacet
facet normal 0.0 0.0 -1.0
outer loop
vertex 25.4120476127563 6.22481456572267 0.0
vertex 25.5301788446282 9.85801770279966 0.0
vertex 26.015 5.9750635094611 0.0
endloop
endfacet
facet normal 0.0 0.0 -1.0
outer loop
vertex 26.015 5.9750635094611 0.0
vertex 25.5301788446282 9.85801770279966 0.0
vertex 25.8452249273798 10.1009697184417 0.0
endloop
endfacet
facet normal 0.0 0.0 -1.0
outer loop
vertex 26.015 5.9750635094611 0.0
vertex 25.8452249273798 10.1009697184417 0.0
vertex 26.0866554664866 10.4171832712004 0.0
endloop
endfacet
facet normal 0.0 0.0 -1.0
outer loop
vertex 26.015 5.9750635094611 0.0
vertex 26.0866554664866 10.4171832712004 0.0
vertex 26.5327669529664 5.57776695296637 0.0
endloop
endfacet
facet normal 0.0 0.0 -1.0
outer loop
vertex 26.5327669529664 5.57776695296637 0.0
vertex 26.0866554664866 10.4171832712004 0.0
vertex 26.2380173696913 10.7851089300229 0.0
endloop
endfacet
facet normal 0.0 0.0 -1.0
outer loop
vertex 26.5327669529664 5.57776695296637 0.0
vertex 26.2380173696913 10.7851089300229 0.0
vertex 26.2889955734278 11.1796731692863 0.0
endloop
endfacet
facet normal -0.0 -1.0 -0.0
outer loop
vertex 28.575 0.0 1.5748
vertex 0.0 0.0 0.0
vertex 28.575 0.0 0.0
endloop
endfacet
facet normal -0.0 -1.0 -0.0
outer loop
vertex 0.0 0.0 0.0
vertex 28.575 0.0 1.5748
vertex 0.0 0.0 1.5748
endloop
endfacet
facet normal -1.0 0.0 0.0
outer loop
vertex 0.0 14.986 1.5748
vertex 0.0 0.0 0.0
vertex 0.0 0.0 1.5748
endloop
endfacet
facet normal -1.0 0.0 0.0
outer loop
vertex 0.0 0.0 0.0
vertex 0.0 14.986 1.5748
vertex 0.0 14.986 0.0
endloop
endfacet
facet normal 0.0 1.0 0.0
outer loop
vertex 0.0 14.986 1.5748
vertex 28.575 14.986 0.0
vertex 0.0 14.986 0.0
endloop
endfacet
facet normal 0.0 1.0 0.0
outer loop
vertex 28.575 14.986 0.0
vertex 0.0 14.986 1.5748
vertex 28.575 14.986 1.5748
endloop
endfacet
facet normal 1.0 0.0 0.0
outer loop
vertex 28.575 14.986 0.0
vertex 28.575 0.0 1.5748
vertex 28.575 0.0 0.0
endloop
endfacet
facet normal 1.0 0.0 0.0
outer loop
vertex 28.575 0.0 1.5748
vertex 28.575 14.986 0.0
vertex 28.575 14.986 1.5748
endloop
endfacet
facet normal 0.0 0.0 1.0
outer loop
vertex 23.515 5.9750635094611 1.5748
vertex 23.2410044265722 11.1723268307137 1.5748
vertex 22.9972330470336 5.57776695296637 1.5748
endloop
endfacet
facet normal 0.0 0.0 1.0
outer loop
vertex 23.2410044265722 11.1723268307137 1.5748
vertex 23.515 5.9750635094611 1.5748
vertex 23.2938840026431 10.778012911867 1.5748
endloop
endfacet
facet normal 0.0 0.0 1.0
outer loop
vertex 23.2938840026431 10.778012911867 1.5748
vertex 23.515 5.9750635094611 1.5748
vertex 23.4470177027997 10.4108211553718 1.5748
endloop
endfacet
facet normal 0.0 0.0 1.0
outer loop
vertex 23.4470177027997 10.4108211553718 1.5748
vertex 23.515 5.9750635094611 1.5748
vertex 23.6899697184417 10.0957750726202 1.5748
endloop
endfacet
facet normal 0.0 0.0 1.0
outer loop
vertex 23.6899697184417 10.0957750726202 1.5748
vertex 23.515 5.9750635094611 1.5748
vertex 24.1179523872437 6.22481456572267 1.5748
endloop
endfacet
facet normal 0.0 0.0 1.0
outer loop
vertex 23.6899697184417 10.0957750726202 1.5748
vertex 24.1179523872437 6.22481456572267 1.5748
vertex 24.0061832712004 9.85434453351339 1.5748
endloop
endfacet
facet normal 0.0 0.0 1.0
outer loop
vertex 24.0061832712004 9.85434453351339 1.5748
vertex 24.1179523872437 6.22481456572267 1.5748
vertex 24.3741089300229 9.70298263030874 1.5748
endloop
endfacet
facet normal 0.0 0.0 1.0
outer loop
vertex 24.3741089300229 9.70298263030874 1.5748
vertex 24.1179523872437 6.22481456572267 1.5748
vertex 24.765 6.31 1.5748
endloop
endfacet
facet normal 0.0 0.0 1.0
outer loop
vertex 24.3741089300229 9.70298263030874 1.5748
vertex 24.765 6.31 1.5748
vertex 24.7686731692863 9.65200442657224 1.5748
endloop
endfacet
facet normal 0.0 0.0 1.0
outer loop
vertex 24.7686731692863 9.65200442657224 1.5748
vertex 24.765 6.31 1.5748
vertex 25.4120476127563 6.22481456572267 1.5748
endloop
endfacet
facet normal 0.0 0.0 1.0
outer loop
vertex 24.7686731692863 9.65200442657224 1.5748
vertex 25.4120476127563 6.22481456572267 1.5748
vertex 25.162987088133 9.70488400264308 1.5748
endloop
endfacet
facet normal 0.0 0.0 1.0
outer loop
vertex 25.162987088133 9.70488400264308 1.5748
vertex 25.4120476127563 6.22481456572267 1.5748
vertex 25.5301788446282 9.85801770279966 1.5748
endloop
endfacet
facet normal 0.0 0.0 1.0
outer loop
vertex 25.5301788446282 9.85801770279966 1.5748
vertex 25.4120476127563 6.22481456572267 1.5748
vertex 26.015 5.9750635094611 1.5748
endloop
endfacet
facet normal 0.0 0.0 1.0
outer loop
vertex 25.5301788446282 9.85801770279966 1.5748
vertex 26.015 5.9750635094611 1.5748
vertex 25.8452249273798 10.1009697184417 1.5748
endloop
endfacet
facet normal 0.0 0.0 1.0
outer loop
vertex 25.8452249273798 10.1009697184417 1.5748
vertex 26.015 5.9750635094611 1.5748
vertex 26.0866554664866 10.4171832712004 1.5748
endloop
endfacet
facet normal 0.0 0.0 1.0
outer loop
vertex 26.0866554664866 10.4171832712004 1.5748
vertex 26.015 5.9750635094611 1.5748
vertex 26.5327669529664 5.57776695296637 1.5748
endloop
endfacet
facet normal 0.0 0.0 1.0
outer loop
vertex 26.0866554664866 10.4171832712004 1.5748
vertex 26.5327669529664 5.57776695296637 1.5748
vertex 26.2380173696913 10.7851089300229 1.5748
endloop
endfacet
facet normal 0.0 0.0 1.0
outer loop
vertex 26.2380173696913 10.7851089300229 1.5748
vertex 26.5327669529664 5.57776695296637 1.5748
vertex 26.2889955734278 11.1796731692863 1.5748
endloop
endfacet
facet normal 0.0 0.0 1.0
outer loop
vertex 0.0 0.0 1.5748
vertex 2.33004553584855 3.44625450650464 1.5748
vertex 0.0 14.986 1.5748
endloop
endfacet
facet normal 0.0 0.0 1.0
outer loop
vertex 2.33004553584855 3.44625450650464 1.5748
vertex 0.0 0.0 1.5748
vertex 2.47461802263113 3.07560843242968 1.5748
endloop
endfacet
facet normal 0.0 0.0 1.0
outer loop
vertex 2.47461802263113 3.07560843242968 1.5748
vertex 0.0 0.0 1.5748
vertex 2.71019458434834 2.75500993004518 1.5748
endloop
endfacet
facet normal 0.0 0.0 1.0
outer loop
vertex 2.71019458434834 2.75500993004518 1.5748
vertex 0.0 0.0 1.5748
vertex 3.02072106762782 2.50630725747459 1.5748
endloop
endfacet
facet normal 0.0 0.0 1.0
outer loop
vertex 3.02072106762782 2.50630725747459 1.5748
vertex 0.0 0.0 1.5748
vertex 3.38503560580336 2.34644909085297 1.5748
endloop
endfacet
facet normal 0.0 0.0 1.0
outer loop
vertex 3.38503560580336 2.34644909085297 1.5748
vertex 0.0 0.0 1.5748
vertex 3.77831076515654 2.2863295000575 1.5748
endloop
endfacet
facet normal 0.0 0.0 1.0
outer loop
vertex 3.77831076515654 2.2863295000575 1.5748
vertex 0.0 0.0 1.5748
vertex 28.575 0.0 1.5748
endloop
endfacet
facet normal 0.0 0.0 1.0
outer loop
vertex 0.0 14.986 1.5748
vertex 2.33004553584855 3.44625450650464 1.5748
vertex 1.39518543427733 10.5289523872437 1.5748
endloop
endfacet
facet normal 0.0 0.0 1.0
outer loop
vertex 0.0 14.986 1.5748
vertex 1.39518543427733 10.5289523872437 1.5748
vertex 1.31 11.176 1.5748
endloop
endfacet
facet normal 0.0 0.0 1.0
outer loop
vertex 1.39518543427733 10.5289523872437 1.5748
vertex 2.33004553584855 3.44625450650464 1.5748
vertex 2.2863295000575 3.84168923484346 1.5748
endloop
endfacet
facet normal 0.0 0.0 1.0
outer loop
vertex 1.39518543427733 10.5289523872437 1.5748
vertex 2.2863295000575 3.84168923484346 1.5748
vertex 1.6449364905389 9.926 1.5748
endloop
endfacet
facet normal 0.0 0.0 1.0
outer loop
vertex 1.6449364905389 9.926 1.5748
vertex 2.2863295000575 3.84168923484346 1.5748
vertex 2.04223304703363 9.40823304703363 1.5748
endloop
endfacet
facet normal 0.0 0.0 1.0
outer loop
vertex 3.77831076515654 2.2863295000575 1.5748
vertex 28.575 0.0 1.5748
vertex 4.17374549349536 2.33004553584855 1.5748
endloop
endfacet
facet normal 0.0 0.0 1.0
outer loop
vertex 4.17374549349536 2.33004553584855 1.5748
vertex 28.575 0.0 1.5748
vertex 4.54439156757032 2.47461802263113 1.5748
endloop
endfacet
facet normal 0.0 0.0 1.0
outer loop
vertex 4.54439156757032 2.47461802263113 1.5748
vertex 28.575 0.0 1.5748
vertex 4.86499006995482 2.71019458434833 1.5748
endloop
endfacet
facet normal 0.0 0.0 1.0
outer loop
vertex 4.86499006995482 2.71019458434833 1.5748
vertex 28.575 0.0 1.5748
vertex 5.11369274252541 3.02072106762782 1.5748
endloop
endfacet
facet normal 0.0 0.0 1.0
outer loop
vertex 5.11369274252541 3.02072106762782 1.5748
vertex 28.575 0.0 1.5748
vertex 5.27355090914703 3.38503560580336 1.5748
endloop
endfacet
facet normal 0.0 0.0 1.0
outer loop
vertex 5.27355090914703 3.38503560580336 1.5748
vertex 28.575 0.0 1.5748
vertex 5.3336704999425 3.77831076515654 1.5748
endloop
endfacet
facet normal 0.0 0.0 1.0
outer loop
vertex 5.3336704999425 3.77831076515654 1.5748
vertex 28.575 0.0 1.5748
vertex 24.1179523872437 1.39518543427733 1.5748
endloop
endfacet
facet normal 0.0 0.0 1.0
outer loop
vertex 5.3336704999425 3.77831076515654 1.5748
vertex 24.1179523872437 1.39518543427733 1.5748
vertex 23.515 1.6449364905389 1.5748
endloop
endfacet
facet normal 0.0 0.0 1.0
outer loop
vertex 5.3336704999425 3.77831076515654 1.5748
vertex 23.515 1.6449364905389 1.5748
vertex 5.57776695296637 9.40823304703363 1.5748
endloop
endfacet
facet normal 0.0 0.0 1.0
outer loop
vertex 5.57776695296637 9.40823304703363 1.5748
vertex 23.515 1.6449364905389 1.5748
vertex 5.9750635094611 9.926 1.5748
endloop
endfacet
facet normal 0.0 0.0 1.0
outer loop
vertex 5.9750635094611 9.926 1.5748
vertex 23.515 1.6449364905389 1.5748
vertex 6.22481456572267 10.5289523872437 1.5748
endloop
endfacet
facet normal 0.0 0.0 1.0
outer loop
vertex 6.22481456572267 10.5289523872437 1.5748
vertex 23.515 1.6449364905389 1.5748
vertex 6.31 11.176 1.5748
endloop
endfacet
facet normal 0.0 0.0 1.0
outer loop
vertex 6.31 11.176 1.5748
vertex 23.515 1.6449364905389 1.5748
vertex 22.9972330470336 2.04223304703363 1.5748
endloop
endfacet
facet normal 0.0 0.0 1.0
outer loop
vertex 6.31 11.176 1.5748
vertex 22.9972330470336 2.04223304703363 1.5748
vertex 22.5999364905389 2.56 1.5748
endloop
endfacet
facet normal 0.0 0.0 1.0
outer loop
vertex 6.31 11.176 1.5748
vertex 22.5999364905389 2.56 1.5748
vertex 22.3501854342773 3.1629523872437 1.5748
endloop
endfacet
facet normal 0.0 0.0 1.0
outer loop
vertex 6.31 11.176 1.5748
vertex 22.3501854342773 3.1629523872437 1.5748
vertex 22.265 3.81 1.5748
endloop
endfacet
facet normal 0.0 0.0 1.0
outer loop
vertex 24.1179523872437 1.39518543427733 1.5748
vertex 28.575 0.0 1.5748
vertex 24.765 1.31 1.5748
endloop
endfacet
facet normal 0.0 0.0 1.0
outer loop
vertex 24.765 1.31 1.5748
vertex 28.575 0.0 1.5748
vertex 25.4120476127563 1.39518543427733 1.5748
endloop
endfacet
facet normal 0.0 0.0 1.0
outer loop
vertex 25.4120476127563 1.39518543427733 1.5748
vertex 28.575 0.0 1.5748
vertex 26.015 1.6449364905389 1.5748
endloop
endfacet
facet normal 0.0 0.0 1.0
outer loop
vertex 26.015 1.6449364905389 1.5748
vertex 28.575 0.0 1.5748
vertex 26.5327669529664 2.04223304703363 1.5748
endloop
endfacet
facet normal 0.0 0.0 1.0
outer loop
vertex 26.5327669529664 2.04223304703363 1.5748
vertex 28.575 0.0 1.5748
vertex 26.9300635094611 2.56 1.5748
endloop
endfacet
facet normal 0.0 0.0 1.0
outer loop
vertex 26.9300635094611 2.56 1.5748
vertex 28.575 0.0 1.5748
vertex 27.1798145657227 3.1629523872437 1.5748
endloop
endfacet
facet normal 0.0 0.0 1.0
outer loop
vertex 27.1798145657227 3.1629523872437 1.5748
vertex 28.575 0.0 1.5748
vertex 27.265 3.81 1.5748
endloop
endfacet
facet normal 0.0 0.0 1.0
outer loop
vertex 0.0 14.986 1.5748
vertex 3.81 13.676 1.5748
vertex 28.575 14.986 1.5748
endloop
endfacet
facet normal 0.0 0.0 1.0
outer loop
vertex 3.81 13.676 1.5748
vertex 0.0 14.986 1.5748
vertex 3.1629523872437 13.5908145657227 1.5748
endloop
endfacet
facet normal 0.0 0.0 1.0
outer loop
vertex 3.1629523872437 13.5908145657227 1.5748
vertex 0.0 14.986 1.5748
vertex 2.56 13.3410635094611 1.5748
endloop
endfacet
facet normal 0.0 0.0 1.0
outer loop
vertex 2.56 13.3410635094611 1.5748
vertex 0.0 14.986 1.5748
vertex 2.04223304703363 12.9437669529664 1.5748
endloop
endfacet
facet normal 0.0 0.0 1.0
outer loop
vertex 2.04223304703363 12.9437669529664 1.5748
vertex 0.0 14.986 1.5748
vertex 1.6449364905389 12.426 1.5748
endloop
endfacet
facet normal 0.0 0.0 1.0
outer loop
vertex 1.6449364905389 12.426 1.5748
vertex 0.0 14.986 1.5748
vertex 1.39518543427733 11.8230476127563 1.5748
endloop
endfacet
facet normal 0.0 0.0 1.0
outer loop
vertex 1.39518543427733 11.8230476127563 1.5748
vertex 0.0 14.986 1.5748
vertex 1.31 11.176 1.5748
endloop
endfacet
facet normal 0.0 0.0 1.0
outer loop
vertex 28.575 14.986 1.5748
vertex 3.81 13.676 1.5748
vertex 4.4570476127563 13.5908145657227 1.5748
endloop
endfacet
facet normal 0.0 0.0 1.0
outer loop
vertex 28.575 14.986 1.5748
vertex 4.4570476127563 13.5908145657227 1.5748
vertex 5.06 13.3410635094611 1.5748
endloop
endfacet
facet normal 0.0 0.0 1.0
outer loop
vertex 28.575 14.986 1.5748
vertex 5.06 13.3410635094611 1.5748
vertex 5.57776695296637 12.9437669529664 1.5748
endloop
endfacet
facet normal 0.0 0.0 1.0
outer loop
vertex 28.575 14.986 1.5748
vertex 5.57776695296637 12.9437669529664 1.5748
vertex 5.9750635094611 12.426 1.5748
endloop
endfacet
facet normal 0.0 0.0 1.0
outer loop
vertex 28.575 14.986 1.5748
vertex 5.9750635094611 12.426 1.5748
vertex 6.22481456572267 11.8230476127563 1.5748
endloop
endfacet
facet normal 0.0 0.0 1.0
outer loop
vertex 28.575 14.986 1.5748
vertex 6.22481456572267 11.8230476127563 1.5748
vertex 6.31 11.176 1.5748
endloop
endfacet
facet normal 0.0 0.0 1.0
outer loop
vertex 28.575 14.986 1.5748
vertex 6.31 11.176 1.5748
vertex 23.9998211553718 12.4939822972003 1.5748
endloop
endfacet
facet normal 0.0 0.0 1.0
outer loop
vertex 23.9998211553718 12.4939822972003 1.5748
vertex 6.31 11.176 1.5748
vertex 23.6847750726202 12.2510302815583 1.5748
endloop
endfacet
facet normal 0.0 0.0 1.0
outer loop
vertex 23.6847750726202 12.2510302815583 1.5748
vertex 6.31 11.176 1.5748
vertex 23.4433445335134 11.9348167287996 1.5748
endloop
endfacet
facet normal 0.0 0.0 1.0
outer loop
vertex 23.4433445335134 11.9348167287996 1.5748
vertex 6.31 11.176 1.5748
vertex 23.2919826303087 11.5668910699771 1.5748
endloop
endfacet
facet normal 0.0 0.0 1.0
outer loop
vertex 23.2919826303087 11.5668910699771 1.5748
vertex 6.31 11.176 1.5748
vertex 22.3501854342773 4.4570476127563 1.5748
endloop
endfacet
facet normal 0.0 0.0 1.0
outer loop
vertex 22.3501854342773 4.4570476127563 1.5748
vertex 6.31 11.176 1.5748
vertex 22.265 3.81 1.5748
endloop
endfacet
facet normal 0.0 0.0 1.0
outer loop
vertex 23.2919826303087 11.5668910699771 1.5748
vertex 22.3501854342773 4.4570476127563 1.5748
vertex 23.2410044265722 11.1723268307137 1.5748
endloop
endfacet
facet normal 0.0 0.0 1.0
outer loop
vertex 23.2410044265722 11.1723268307137 1.5748
vertex 22.3501854342773 4.4570476127563 1.5748
vertex 22.5999364905389 5.06 1.5748
endloop
endfacet
facet normal 0.0 0.0 1.0
outer loop
vertex 23.2410044265722 11.1723268307137 1.5748
vertex 22.5999364905389 5.06 1.5748
vertex 22.9972330470336 5.57776695296637 1.5748
endloop
endfacet
facet normal 0.0 0.0 1.0
outer loop
vertex 28.575 14.986 1.5748
vertex 23.9998211553718 12.4939822972003 1.5748
vertex 24.367012911867 12.6471159973569 1.5748
endloop
endfacet
facet normal 0.0 0.0 1.0
outer loop
vertex 28.575 14.986 1.5748
vertex 24.367012911867 12.6471159973569 1.5748
vertex 24.7613268307137 12.6999955734278 1.5748
endloop
endfacet
facet normal 0.0 0.0 1.0
outer loop
vertex 28.575 14.986 1.5748
vertex 24.7613268307137 12.6999955734278 1.5748
vertex 25.1558910699771 12.6490173696913 1.5748
endloop
endfacet
facet normal 0.0 0.0 1.0
outer loop
vertex 28.575 14.986 1.5748
vertex 25.1558910699771 12.6490173696913 1.5748
vertex 25.5238167287996 12.4976554664866 1.5748
endloop
endfacet
facet normal 0.0 0.0 1.0
outer loop
vertex 28.575 14.986 1.5748
vertex 25.5238167287996 12.4976554664866 1.5748
vertex 25.8400302815583 12.2562249273798 1.5748
endloop
endfacet
facet normal 0.0 0.0 1.0
outer loop
vertex 28.575 14.986 1.5748
vertex 25.8400302815583 12.2562249273798 1.5748
vertex 26.0829822972003 11.9411788446282 1.5748
endloop
endfacet
facet normal 0.0 0.0 1.0
outer loop
vertex 28.575 14.986 1.5748
vertex 26.0829822972003 11.9411788446282 1.5748
vertex 26.2361159973569 11.573987088133 1.5748
endloop
endfacet
facet normal 0.0 0.0 1.0
outer loop
vertex 28.575 14.986 1.5748
vertex 26.2361159973569 11.573987088133 1.5748
vertex 26.2889955734278 11.1796731692863 1.5748
endloop
endfacet
facet normal 0.0 0.0 1.0
outer loop
vertex 28.575 14.986 1.5748
vertex 26.2889955734278 11.1796731692863 1.5748
vertex 26.5327669529664 5.57776695296637 1.5748
endloop
endfacet
facet normal 0.0 0.0 1.0
outer loop
vertex 28.575 14.986 1.5748
vertex 26.5327669529664 5.57776695296637 1.5748
vertex 26.9300635094611 5.06 1.5748
endloop
endfacet
facet normal 0.0 0.0 1.0
outer loop
vertex 28.575 14.986 1.5748
vertex 26.9300635094611 5.06 1.5748
vertex 27.1798145657227 4.4570476127563 1.5748
endloop
endfacet
facet normal 0.0 0.0 1.0
outer loop
vertex 28.575 14.986 1.5748
vertex 27.1798145657227 4.4570476127563 1.5748
vertex 27.265 3.81 1.5748
endloop
endfacet
facet normal 0.0 0.0 1.0
outer loop
vertex 28.575 14.986 1.5748
vertex 27.265 3.81 1.5748
vertex 28.575 0.0 1.5748
endloop
endfacet
facet normal 0.0 0.0 1.0
outer loop
vertex 2.2863295000575 3.84168923484346 1.5748
vertex 2.56 9.0109364905389 1.5748
vertex 2.04223304703363 9.40823304703363 1.5748
endloop
endfacet
facet normal 0.0 0.0 1.0
outer loop
vertex 2.56 9.0109364905389 1.5748
vertex 2.2863295000575 3.84168923484346 1.5748
vertex 2.34644909085297 4.23496439419664 1.5748
endloop
endfacet
facet normal 0.0 0.0 1.0
outer loop
vertex 2.56 9.0109364905389 1.5748
vertex 2.34644909085297 4.23496439419664 1.5748
vertex 2.50630725747459 4.59927893237218 1.5748
endloop
endfacet
facet normal 0.0 0.0 1.0
outer loop
vertex 2.56 9.0109364905389 1.5748
vertex 2.50630725747459 4.59927893237218 1.5748
vertex 2.75500993004518 4.90980541565166 1.5748
endloop
endfacet
facet normal 0.0 0.0 1.0
outer loop
vertex 2.56 9.0109364905389 1.5748
vertex 2.75500993004518 4.90980541565166 1.5748
vertex 3.1629523872437 8.76118543427733 1.5748
endloop
endfacet
facet normal 0.0 0.0 1.0
outer loop
vertex 3.1629523872437 8.76118543427733 1.5748
vertex 2.75500993004518 4.90980541565166 1.5748
vertex 3.07560843242968 5.14538197736887 1.5748
endloop
endfacet
facet normal 0.0 0.0 1.0
outer loop
vertex 3.1629523872437 8.76118543427733 1.5748
vertex 3.07560843242968 5.14538197736887 1.5748
vertex 3.44625450650464 5.28995446415145 1.5748
endloop
endfacet
facet normal 0.0 0.0 1.0
outer loop
vertex 3.1629523872437 8.76118543427733 1.5748
vertex 3.44625450650464 5.28995446415145 1.5748
vertex 3.81 8.676 1.5748
endloop
endfacet
facet normal 0.0 0.0 1.0
outer loop
vertex 3.81 8.676 1.5748
vertex 3.44625450650464 5.28995446415145 1.5748
vertex 3.84168923484346 5.3336704999425 1.5748
endloop
endfacet
facet normal 0.0 0.0 1.0
outer loop
vertex 3.81 8.676 1.5748
vertex 3.84168923484346 5.3336704999425 1.5748
vertex 4.4570476127563 8.76118543427733 1.5748
endloop
endfacet
facet normal 0.0 0.0 1.0
outer loop
vertex 4.4570476127563 8.76118543427733 1.5748
vertex 3.84168923484346 5.3336704999425 1.5748
vertex 4.23496439419664 5.27355090914702 1.5748
endloop
endfacet
facet normal 0.0 0.0 1.0
outer loop
vertex 4.4570476127563 8.76118543427733 1.5748
vertex 4.23496439419664 5.27355090914702 1.5748
vertex 4.59927893237218 5.11369274252541 1.5748
endloop
endfacet
facet normal 0.0 0.0 1.0
outer loop
vertex 4.4570476127563 8.76118543427733 1.5748
vertex 4.59927893237218 5.11369274252541 1.5748
vertex 5.06 9.0109364905389 1.5748
endloop
endfacet
facet normal 0.0 0.0 1.0
outer loop
vertex 5.06 9.0109364905389 1.5748
vertex 4.59927893237218 5.11369274252541 1.5748
vertex 4.90980541565167 4.86499006995482 1.5748
endloop
endfacet
facet normal 0.0 0.0 1.0
outer loop
vertex 5.06 9.0109364905389 1.5748
vertex 4.90980541565167 4.86499006995482 1.5748
vertex 5.14538197736887 4.54439156757032 1.5748
endloop
endfacet
facet normal 0.0 0.0 1.0
outer loop
vertex 5.06 9.0109364905389 1.5748
vertex 5.14538197736887 4.54439156757032 1.5748
vertex 5.57776695296637 9.40823304703363 1.5748
endloop
endfacet
facet normal 0.0 0.0 1.0
outer loop
vertex 5.57776695296637 9.40823304703363 1.5748
vertex 5.14538197736887 4.54439156757032 1.5748
vertex 5.28995446415145 4.17374549349536 1.5748
endloop
endfacet
facet normal 0.0 0.0 1.0
outer loop
vertex 5.57776695296637 9.40823304703363 1.5748
vertex 5.28995446415145 4.17374549349536 1.5748
vertex 5.3336704999425 3.77831076515654 1.5748
endloop
endfacet
facet normal 0.499999999999999 0.866025403784439 5.76280321909182e-032
outer loop
vertex 2.56 9.0109364905389 1.5748
vertex 3.1629523872437 8.76118543427733 0.0
vertex 2.56 9.0109364905389 0.0
endloop
endfacet
facet normal 0.258819045102521 0.965925826289068 5.0412301003763e-032
outer loop
vertex 3.1629523872437 8.76118543427733 0.0
vertex 2.56 9.0109364905389 1.5748
vertex 3.1629523872437 8.76118543427733 1.5748
endloop
endfacet
facet normal 0.258819045102521 0.965925826289068 5.0412301003763e-032
outer loop
vertex 3.1629523872437 8.76118543427733 1.5748
vertex 3.81 8.676 0.0
vertex 3.1629523872437 8.76118543427733 0.0
endloop
endfacet
facet normal 1.51488868225997e-016 1.0 3.97610548134678e-032
outer loop
vertex 3.81 8.676 0.0
vertex 3.1629523872437 8.76118543427733 1.5748
vertex 3.81 8.676 1.5748
endloop
endfacet
facet normal 0.0207934611833732 0.999783792613191 3.06291092110648e-033
outer loop
vertex 3.77831076515654 2.2863295000575 1.5748
vertex 4.17374549349536 2.33004553584855 0.0
vertex 3.77831076515654 2.2863295000575 0.0
endloop
endfacet
facet normal -0.238678145338164 0.971098729758172 -7.41195005393372e-033
outer loop
vertex 4.17374549349536 2.33004553584855 0.0
vertex 3.77831076515654 2.2863295000575 1.5748
vertex 4.17374549349536 2.33004553584855 1.5748
endloop
endfacet
facet normal 0.517899561924002 0.855441432103289 2.26868162160389e-032
outer loop
vertex 3.02072106762782 2.50630725747459 1.5748
vertex 3.38503560580336 2.34644909085297 0.0
vertex 3.02072106762782 2.50630725747459 0.0
endloop
endfacet
facet normal 0.278848027688082 0.960335242222458 1.33290395785729e-032
outer loop
vertex 3.38503560580336 2.34644909085297 0.0
vertex 3.02072106762782 2.50630725747459 1.5748
vertex 3.38503560580336 2.34644909085297 1.5748
endloop
endfacet
facet normal 0.278848027688082 0.960335242222458 1.33290395785729e-032
outer loop
vertex 3.38503560580336 2.34644909085297 1.5748
vertex 3.77831076515654 2.2863295000575 0.0
vertex 3.38503560580336 2.34644909085297 0.0
endloop
endfacet
facet normal 0.0207934611833732 0.999783792613191 3.06291092110648e-033
outer loop
vertex 3.77831076515654 2.2863295000575 0.0
vertex 3.38503560580336 2.34644909085297 1.5748
vertex 3.77831076515654 2.2863295000575 1.5748
endloop
endfacet
facet normal -0.721657096884294 -0.69225070207009 -3.04985238201184e-032
outer loop
vertex 4.90980541565167 4.86499006995482 1.5748
vertex 5.14538197736887 4.54439156757032 0.0
vertex 5.14538197736887 4.54439156757032 1.5748
endloop
endfacet
facet normal -0.876234893286663 -0.481884230689189 -3.62318074270504e-032
outer loop
vertex 5.14538197736887 4.54439156757032 0.0
vertex 4.90980541565167 4.86499006995482 1.5748
vertex 4.90980541565167 4.86499006995482 0.0
endloop
endfacet
facet normal 0.481884230689189 -0.876234893286662 1.73816988816249e-032
outer loop
vertex 3.07560843242968 5.14538197736887 1.5748
vertex 2.75500993004518 4.90980541565166 0.0
vertex 3.07560843242968 5.14538197736887 0.0
endloop
endfacet
facet normal 0.69225070207009 -0.721657096884294 2.61669136551489e-032
outer loop
vertex 2.75500993004518 4.90980541565166 0.0
vertex 3.07560843242968 5.14538197736887 1.5748
vertex 2.75500993004518 4.90980541565166 1.5748
endloop
endfacet
facet normal -0.238678145338164 0.971098729758172 -7.41195005393372e-033
outer loop
vertex 4.17374549349536 2.33004553584855 1.5748
vertex 4.54439156757032 2.47461802263113 0.0
vertex 4.17374549349536 2.33004553584855 0.0
endloop
endfacet
facet normal -0.481884230689188 0.876234893286663 -1.73816988816249e-032
outer loop
vertex 4.54439156757032 2.47461802263113 0.0
vertex 4.17374549349536 2.33004553584855 1.5748
vertex 4.54439156757032 2.47461802263113 1.5748
endloop
endfacet
facet normal 0.69225070207009 -0.721657096884294 2.61669136551489e-032
outer loop
vertex 2.75500993004518 4.90980541565166 0.0
vertex 2.50630725747459 4.59927893237218 1.5748
vertex 2.50630725747459 4.59927893237218 0.0
endloop
endfacet
facet normal 0.855441432103289 -0.517899561924002 3.3168896505944e-032
outer loop
vertex 2.50630725747459 4.59927893237218 1.5748
vertex 2.75500993004518 4.90980541565166 0.0
vertex 2.75500993004518 4.90980541565166 1.5748
endloop
endfacet
facet normal 0.855441432103289 -0.517899561924002 3.3168896505944e-032
outer loop
vertex 2.50630725747459 4.59927893237218 0.0
vertex 2.34644909085297 4.23496439419664 1.5748
vertex 2.34644909085297 4.23496439419664 0.0
endloop
endfacet
facet normal 0.960335242222458 -0.278848027688082 3.79104738740521e-032
outer loop
vertex 2.34644909085297 4.23496439419664 1.5748
vertex 2.50630725747459 4.59927893237218 0.0
vertex 2.50630725747459 4.59927893237218 1.5748
endloop
endfacet
facet normal 0.708809007467072 -0.705400447216717 8.20078294400551e-032
outer loop
vertex 23.6847750726202 12.2510302815583 0.0
vertex 23.4433445335134 11.9348167287996 1.5748
vertex 23.4433445335134 11.9348167287996 0.0
endloop
endfacet
facet normal 0.867227996382287 -0.497911239369793 8.40577489004395e-032
outer loop
vertex 23.4433445335134 11.9348167287996 1.5748
vertex 23.6847750726202 12.2510302815583 0.0
vertex 23.6847750726202 12.2510302815583 1.5748
endloop
endfacet
facet normal 0.867227996382287 -0.497911239369793 8.40577489004395e-032
outer loop
vertex 23.4433445335134 11.9348167287996 0.0
vertex 23.2919826303087 11.5668910699771 1.5748
vertex 23.2919826303087 11.5668910699771 0.0
endloop
endfacet
facet normal 0.966546830506078 -0.256490203397042 8.03792716852568e-032
outer loop
vertex 23.2919826303087 11.5668910699771 1.5748
vertex 23.4433445335134 11.9348167287996 0.0
vertex 23.4433445335134 11.9348167287996 1.5748
endloop
endfacet
facet normal 0.999997095425037 0.00241021606711049 7.1223079937751e-032
outer loop
vertex 23.2410044265722 11.1723268307137 0.0
vertex 23.2938840026431 10.778012911867 1.5748
vertex 23.2938840026431 10.778012911867 0.0
endloop
endfacet
facet normal 0.965299210864118 0.261146383289357 5.72131529941924e-032
outer loop
vertex 23.2938840026431 10.778012911867 1.5748
vertex 23.2410044265722 11.1723268307137 0.0
vertex 23.2410044265722 11.1723268307137 1.5748
endloop
endfacet
facet normal 0.00241021606710872 -0.999997095425037 4.47535046771545e-032
outer loop
vertex 24.7613268307137 12.6999955734278 1.5748
vertex 24.367012911867 12.6471159973569 0.0
vertex 24.7613268307137 12.6999955734278 0.0
endloop
endfacet
facet normal 0.26114638328936 -0.965299210864117 6.16624555233614e-032
outer loop
vertex 24.367012911867 12.6471159973569 0.0
vertex 24.7613268307137 12.6999955734278 1.5748
vertex 24.367012911867 12.6471159973569 1.5748
endloop
endfacet
facet normal 0.26114638328936 -0.965299210864117 6.16624555233614e-032
outer loop
vertex 24.367012911867 12.6471159973569 1.5748
vertex 23.9998211553718 12.4939822972003 0.0
vertex 24.367012911867 12.6471159973569 0.0
endloop
endfacet
facet normal 0.502085856055245 -0.864817780315178 7.43692119276771e-032
outer loop
vertex 23.9998211553718 12.4939822972003 0.0
vertex 24.367012911867 12.6471159973569 1.5748
vertex 23.9998211553718 12.4939822972003 1.5748
endloop
endfacet
facet normal 0.971098729758172 0.238678145338163 3.94959532337218e-032
outer loop
vertex 2.33004553584855 3.44625450650464 0.0
vertex 2.47461802263113 3.07560843242968 1.5748
vertex 2.47461802263113 3.07560843242968 0.0
endloop
endfacet
facet normal 0.876234893286663 0.481884230689189 3.62318074270504e-032
outer loop
vertex 2.47461802263113 3.07560843242968 1.5748
vertex 2.33004553584855 3.44625450650464 0.0
vertex 2.33004553584855 3.44625450650464 1.5748
endloop
endfacet
facet normal 0.960335242222458 -0.278848027688082 3.79104738740521e-032
outer loop
vertex 2.34644909085297 4.23496439419664 0.0
vertex 2.2863295000575 3.84168923484346 1.5748
vertex 2.2863295000575 3.84168923484346 0.0
endloop
endfacet
facet normal 0.999783792613191 -0.0207934611833729 4.00685150976638e-032
outer loop
vertex 2.2863295000575 3.84168923484346 1.5748
vertex 2.34644909085297 4.23496439419664 0.0
vertex 2.34644909085297 4.23496439419664 1.5748
endloop
endfacet
facet normal -0.517899561924001 -0.85544143210329 -2.26868162160389e-032
outer loop
vertex 4.59927893237218 5.11369274252541 1.5748
vertex 4.23496439419664 5.27355090914702 0.0
vertex 4.59927893237218 5.11369274252541 0.0
endloop
endfacet
facet normal -0.278848027688082 -0.960335242222458 -1.33290395785729e-032
outer loop
vertex 4.23496439419664 5.27355090914702 0.0
vertex 4.59927893237218 5.11369274252541 1.5748
vertex 4.23496439419664 5.27355090914702 1.5748
endloop
endfacet
facet normal -0.0207934611833743 -0.999783792613191 -3.06291092110652e-033
outer loop
vertex 3.84168923484346 5.3336704999425 1.5748
vertex 3.44625450650464 5.28995446415145 0.0
vertex 3.84168923484346 5.3336704999425 0.0
endloop
endfacet
facet normal 0.238678145338164 -0.971098729758172 7.41195005393371e-033
outer loop
vertex 3.44625450650464 5.28995446415145 0.0
vertex 3.84168923484346 5.3336704999425 1.5748
vertex 3.44625450650464 5.28995446415145 1.5748
endloop
endfacet
facet normal 0.238678145338164 -0.971098729758172 7.41195005393371e-033
outer loop
vertex 3.44625450650464 5.28995446415145 1.5748
vertex 3.07560843242968 5.14538197736887 0.0
vertex 3.44625450650464 5.28995446415145 0.0
endloop
endfacet
facet normal 0.481884230689189 -0.876234893286662 1.73816988816249e-032
outer loop
vertex 3.07560843242968 5.14538197736887 0.0
vertex 3.44625450650464 5.28995446415145 1.5748
vertex 3.07560843242968 5.14538197736887 1.5748
endloop
endfacet
facet normal -0.971098729758172 -0.238678145338163 -3.94959532337218e-032
outer loop
vertex 5.28995446415145 4.17374549349536 1.5748
vertex 5.3336704999425 3.77831076515654 0.0
vertex 5.3336704999425 3.77831076515654 1.5748
endloop
endfacet
facet normal -0.999783792613191 0.0207934611833731 -4.00685150976638e-032
outer loop
vertex 5.3336704999425 3.77831076515654 0.0
vertex 5.28995446415145 4.17374549349536 1.5748
vertex 5.28995446415145 4.17374549349536 0.0
endloop
endfacet
facet normal -0.876234893286663 -0.481884230689189 -3.62318074270504e-032
outer loop
vertex 5.14538197736887 4.54439156757032 1.5748
vertex 5.28995446415145 4.17374549349536 0.0
vertex 5.28995446415145 4.17374549349536 1.5748
endloop
endfacet
facet normal -0.971098729758172 -0.238678145338163 -3.94959532337218e-032
outer loop
vertex 5.28995446415145 4.17374549349536 0.0
vertex 5.14538197736887 4.54439156757032 1.5748
vertex 5.14538197736887 4.54439156757032 0.0
endloop
endfacet
facet normal -0.999783792613191 0.0207934611833731 -4.00685150976638e-032
outer loop
vertex 5.3336704999425 3.77831076515654 1.5748
vertex 5.27355090914703 3.38503560580336 0.0
vertex 5.27355090914703 3.38503560580336 1.5748
endloop
endfacet
facet normal -0.960335242222458 0.278848027688082 -3.79104738740521e-032
outer loop
vertex 5.27355090914703 3.38503560580336 0.0
vertex 5.3336704999425 3.77831076515654 1.5748
vertex 5.3336704999425 3.77831076515654 0.0
endloop
endfacet
facet normal -0.960335242222458 0.278848027688082 -3.79104738740521e-032
outer loop
vertex 5.27355090914703 3.38503560580336 1.5748
vertex 5.11369274252541 3.02072106762782 0.0
vertex 5.11369274252541 3.02072106762782 1.5748
endloop
endfacet
facet normal -0.855441432103289 0.517899561924003 -3.3168896505944e-032
outer loop
vertex 5.11369274252541 3.02072106762782 0.0
vertex 5.27355090914703 3.38503560580336 1.5748
vertex 5.27355090914703 3.38503560580336 0.0
endloop
endfacet
facet normal -0.855441432103289 0.517899561924003 -3.3168896505944e-032
outer loop
vertex 5.11369274252541 3.02072106762782 1.5748
vertex 4.86499006995482 2.71019458434833 0.0
vertex 4.86499006995482 2.71019458434833 1.5748
endloop
endfacet
facet normal -0.692250702070089 0.721657096884295 -2.61669136551489e-032
outer loop
vertex 4.86499006995482 2.71019458434833 0.0
vertex 5.11369274252541 3.02072106762782 1.5748
vertex 5.11369274252541 3.02072106762782 0.0
endloop
endfacet
facet normal -0.481884230689188 0.876234893286663 -1.73816988816249e-032
outer loop
vertex 4.54439156757032 2.47461802263113 1.5748
vertex 4.86499006995482 2.71019458434833 0.0
vertex 4.54439156757032 2.47461802263113 0.0
endloop
endfacet
facet normal -0.692250702070089 0.721657096884295 -2.61669136551489e-032
outer loop
vertex 4.86499006995482 2.71019458434833 0.0
vertex 4.54439156757032 2.47461802263113 1.5748
vertex 4.86499006995482 2.71019458434833 1.5748
endloop
endfacet
facet normal -0.278848027688082 -0.960335242222458 -1.33290395785729e-032
outer loop
vertex 4.23496439419664 5.27355090914702 1.5748
vertex 3.84168923484346 5.3336704999425 0.0
vertex 4.23496439419664 5.27355090914702 0.0
endloop
endfacet
facet normal -0.0207934611833743 -0.999783792613191 -3.06291092110652e-033
outer loop
vertex 3.84168923484346 5.3336704999425 0.0
vertex 4.23496439419664 5.27355090914702 1.5748
vertex 3.84168923484346 5.3336704999425 1.5748
endloop
endfacet
facet normal -0.721657096884294 -0.69225070207009 -3.04985238201184e-032
outer loop
vertex 4.90980541565167 4.86499006995482 1.5748
vertex 4.59927893237218 5.11369274252541 0.0
vertex 4.90980541565167 4.86499006995482 0.0
endloop
endfacet
facet normal -0.517899561924001 -0.85544143210329 -2.26868162160389e-032
outer loop
vertex 4.59927893237218 5.11369274252541 0.0
vertex 4.90980541565167 4.86499006995482 1.5748
vertex 4.59927893237218 5.11369274252541 1.5748
endloop
endfacet
facet normal 0.999783792613191 -0.0207934611833729 4.00685150976638e-032
outer loop
vertex 2.2863295000575 3.84168923484346 0.0
vertex 2.33004553584855 3.44625450650464 1.5748
vertex 2.33004553584855 3.44625450650464 0.0
endloop
endfacet
facet normal 0.971098729758172 0.238678145338163 3.94959532337218e-032
outer loop
vertex 2.33004553584855 3.44625450650464 1.5748
vertex 2.2863295000575 3.84168923484346 0.0
vertex 2.2863295000575 3.84168923484346 1.5748
endloop
endfacet
facet normal 0.965299210864118 0.261146383289357 5.72131529941924e-032
outer loop
vertex 23.2938840026431 10.778012911867 0.0
vertex 23.4470177027997 10.4108211553718 1.5748
vertex 23.4470177027997 10.4108211553718 0.0
endloop
endfacet
facet normal 0.864817780315179 0.502085856055244 3.9304244223285e-032
outer loop
vertex 23.4470177027997 10.4108211553718 1.5748
vertex 23.2938840026431 10.778012911867 0.0
vertex 23.2938840026431 10.778012911867 1.5748
endloop
endfacet
facet normal -0.966546830506078 0.256490203397042 -8.03792716852568e-032
outer loop
vertex 26.2380173696913 10.7851089300229 1.5748
vertex 26.0866554664866 10.4171832712004 0.0
vertex 26.0866554664866 10.4171832712004 1.5748
endloop
endfacet
facet normal -0.867227996382287 0.497911239369794 -8.40577489004395e-032
outer loop
vertex 26.0866554664866 10.4171832712004 0.0
vertex 26.2380173696913 10.7851089300229 1.5748
vertex 26.2380173696913 10.7851089300229 0.0
endloop
endfacet
facet normal 0.966546830506078 -0.256490203397042 8.03792716852568e-032
outer loop
vertex 23.2919826303087 11.5668910699771 0.0
vertex 23.2410044265722 11.1723268307137 1.5748
vertex 23.2410044265722 11.1723268307137 0.0
endloop
endfacet
facet normal 0.999997095425037 0.00241021606711049 7.1223079937751e-032
outer loop
vertex 23.2410044265722 11.1723268307137 1.5748
vertex 23.2919826303087 11.5668910699771 0.0
vertex 23.2919826303087 11.5668910699771 1.5748
endloop
endfacet
facet normal -0.867227996382287 0.497911239369794 -8.40577489004395e-032
outer loop
vertex 26.0866554664866 10.4171832712004 1.5748
vertex 25.8452249273798 10.1009697184417 0.0
vertex 25.8452249273798 10.1009697184417 1.5748
endloop
endfacet
facet normal -0.708809007467069 0.70540044721672 -8.20078294400551e-032
outer loop
vertex 25.8452249273798 10.1009697184417 0.0
vertex 26.0866554664866 10.4171832712004 1.5748
vertex 26.0866554664866 10.4171832712004 0.0
endloop
endfacet
facet normal 0.864817780315179 0.502085856055244 3.9304244223285e-032
outer loop
vertex 23.4470177027997 10.4108211553718 0.0
vertex 23.6899697184417 10.0957750726202 1.5748
vertex 23.6899697184417 10.0957750726202 0.0
endloop
endfacet
facet normal 0.705400447216717 0.708809007467072 1.87168161618955e-032
outer loop
vertex 23.6899697184417 10.0957750726202 1.5748
vertex 23.4470177027997 10.4108211553718 0.0
vertex 23.4470177027997 10.4108211553718 1.5748
endloop
endfacet
facet normal 0.705400447216717 0.708809007467072 1.87168161618955e-032
outer loop
vertex 23.6899697184417 10.0957750726202 1.5748
vertex 24.0061832712004 9.85434453351339 0.0
vertex 23.6899697184417 10.0957750726202 0.0
endloop
endfacet
facet normal 0.497911239369793 0.867227996382288 -3.14613198992598e-033
outer loop
vertex 24.0061832712004 9.85434453351339 0.0
vertex 23.6899697184417 10.0957750726202 1.5748
vertex 24.0061832712004 9.85434453351339 1.5748
endloop
endfacet
facet normal -0.261146383289362 0.965299210864116 -6.16624555233615e-032
outer loop
vertex 25.162987088133 9.70488400264308 1.5748
vertex 25.5301788446282 9.85801770279966 0.0
vertex 25.162987088133 9.70488400264308 0.0
endloop
endfacet
facet normal -0.502085856055244 0.864817780315179 -7.4369211927677e-032
outer loop
vertex 25.5301788446282 9.85801770279966 0.0
vertex 25.162987088133 9.70488400264308 1.5748
vertex 25.5301788446282 9.85801770279966 1.5748
endloop
endfacet
facet normal -0.502085856055244 0.864817780315179 -7.4369211927677e-032
outer loop
vertex 25.5301788446282 9.85801770279966 1.5748
vertex 25.8452249273798 10.1009697184417 0.0
vertex 25.5301788446282 9.85801770279966 0.0
endloop
endfacet
facet normal -0.708809007467069 0.70540044721672 -8.20078294400551e-032
outer loop
vertex 25.8452249273798 10.1009697184417 0.0
vertex 25.5301788446282 9.85801770279966 1.5748
vertex 25.8452249273798 10.1009697184417 1.5748
endloop
endfacet
facet normal 0.256490203397045 0.966546830506077 -2.47946764458629e-032
outer loop
vertex 24.3741089300229 9.70298263030874 1.5748
vertex 24.7686731692863 9.65200442657224 0.0
vertex 24.3741089300229 9.70298263030874 0.0
endloop
endfacet
facet normal -0.00241021606710872 0.999997095425037 -4.47535046771545e-032
outer loop
vertex 24.7686731692863 9.65200442657224 0.0
vertex 24.3741089300229 9.70298263030874 1.5748
vertex 24.7686731692863 9.65200442657224 1.5748
endloop
endfacet
facet normal -0.705400447216715 -0.708809007467074 -1.87168161618953e-032
outer loop
vertex 25.8400302815583 12.2562249273798 1.5748
vertex 26.0829822972003 11.9411788446282 0.0
vertex 26.0829822972003 11.9411788446282 1.5748
endloop
endfacet
facet normal -0.864817780315179 -0.502085856055244 -3.9304244223285e-032
outer loop
vertex 26.0829822972003 11.9411788446282 0.0
vertex 25.8400302815583 12.2562249273798 1.5748
vertex 25.8400302815583 12.2562249273798 0.0
endloop
endfacet
facet normal -0.497911239369792 -0.867227996382288 3.14613198992605e-033
outer loop
vertex 25.5238167287996 12.4976554664866 1.5748
vertex 25.1558910699771 12.6490173696913 0.0
vertex 25.5238167287996 12.4976554664866 0.0
endloop
endfacet
facet normal -0.256490203397046 -0.966546830506076 2.47946764458628e-032
outer loop
vertex 25.1558910699771 12.6490173696913 0.0
vertex 25.5238167287996 12.4976554664866 1.5748
vertex 25.1558910699771 12.6490173696913 1.5748
endloop
endfacet
facet normal -0.999997095425037 -0.00241021606711025 -7.1223079937751e-032
outer loop
vertex 26.2889955734278 11.1796731692863 1.5748
vertex 26.2380173696913 10.7851089300229 0.0
vertex 26.2380173696913 10.7851089300229 1.5748
endloop
endfacet
facet normal -0.966546830506078 0.256490203397042 -8.03792716852568e-032
outer loop
vertex 26.2380173696913 10.7851089300229 0.0
vertex 26.2889955734278 11.1796731692863 1.5748
vertex 26.2889955734278 11.1796731692863 0.0
endloop
endfacet
facet normal -0.965299210864118 -0.261146383289357 -5.72131529941924e-032
outer loop
vertex 26.2361159973569 11.573987088133 1.5748
vertex 26.2889955734278 11.1796731692863 0.0
vertex 26.2889955734278 11.1796731692863 1.5748
endloop
endfacet
facet normal -0.999997095425037 -0.00241021606711025 -7.1223079937751e-032
outer loop
vertex 26.2889955734278 11.1796731692863 0.0
vertex 26.2361159973569 11.573987088133 1.5748
vertex 26.2361159973569 11.573987088133 0.0
endloop
endfacet
facet normal -0.864817780315179 -0.502085856055244 -3.9304244223285e-032
outer loop
vertex 26.0829822972003 11.9411788446282 1.5748
vertex 26.2361159973569 11.573987088133 0.0
vertex 26.2361159973569 11.573987088133 1.5748
endloop
endfacet
facet normal -0.965299210864118 -0.261146383289357 -5.72131529941924e-032
outer loop
vertex 26.2361159973569 11.573987088133 0.0
vertex 26.0829822972003 11.9411788446282 1.5748
vertex 26.0829822972003 11.9411788446282 0.0
endloop
endfacet
facet normal 0.497911239369793 0.867227996382288 -3.14613198992598e-033
outer loop
vertex 24.0061832712004 9.85434453351339 1.5748
vertex 24.3741089300229 9.70298263030874 0.0
vertex 24.0061832712004 9.85434453351339 0.0
endloop
endfacet
facet normal 0.256490203397045 0.966546830506077 -2.47946764458629e-032
outer loop
vertex 24.3741089300229 9.70298263030874 0.0
vertex 24.0061832712004 9.85434453351339 1.5748
vertex 24.3741089300229 9.70298263030874 1.5748
endloop
endfacet
facet normal 0.502085856055245 -0.864817780315178 7.43692119276771e-032
outer loop
vertex 23.9998211553718 12.4939822972003 1.5748
vertex 23.6847750726202 12.2510302815583 0.0
vertex 23.9998211553718 12.4939822972003 0.0
endloop
endfacet
facet normal 0.708809007467072 -0.705400447216717 8.20078294400551e-032
outer loop
vertex 23.6847750726202 12.2510302815583 0.0
vertex 23.9998211553718 12.4939822972003 1.5748
vertex 23.6847750726202 12.2510302815583 1.5748
endloop
endfacet
facet normal -0.5 0.866025403784439 2.14182915532765e-032
outer loop
vertex 26.015 1.6449364905389 1.5748
vertex 26.5327669529664 2.04223304703363 0.0
vertex 26.015 1.6449364905389 0.0
endloop
endfacet
facet normal -0.707106781186547 0.707106781186548 2.34294262381109e-032
outer loop
vertex 26.5327669529664 2.04223304703363 0.0
vertex 26.015 1.6449364905389 1.5748
vertex 26.5327669529664 2.04223304703363 1.5748
endloop
endfacet
facet normal 0.0 -1.0 -1.32536849378226e-032
outer loop
vertex 24.765 6.31 1.5748
vertex 24.1179523872437 6.22481456572267 0.0
vertex 24.765 6.31 0.0
endloop
endfacet
facet normal 0.258819045102522 -0.965925826289068 -1.79475356944867e-032
outer loop
vertex 24.1179523872437 6.22481456572267 0.0
vertex 24.765 6.31 1.5748
vertex 24.1179523872437 6.22481456572267 1.5748
endloop
endfacet
facet normal -0.705400447216715 -0.708809007467074 -1.87168161618953e-032
outer loop
vertex 25.8400302815583 12.2562249273798 1.5748
vertex 25.5238167287996 12.4976554664866 0.0
vertex 25.8400302815583 12.2562249273798 0.0
endloop
endfacet
facet normal -0.497911239369792 -0.867227996382288 3.14613198992605e-033
outer loop
vertex 25.5238167287996 12.4976554664866 0.0
vertex 25.8400302815583 12.2562249273798 1.5748
vertex 25.5238167287996 12.4976554664866 1.5748
endloop
endfacet
facet normal -0.00241021606710872 0.999997095425037 -4.47535046771545e-032
outer loop
vertex 24.7686731692863 9.65200442657224 1.5748
vertex 25.162987088133 9.70488400264308 0.0
vertex 24.7686731692863 9.65200442657224 0.0
endloop
endfacet
facet normal -0.261146383289362 0.965299210864116 -6.16624555233615e-032
outer loop
vertex 25.162987088133 9.70488400264308 0.0
vertex 24.7686731692863 9.65200442657224 1.5748
vertex 25.162987088133 9.70488400264308 1.5748
endloop
endfacet
facet normal -0.256490203397046 -0.966546830506076 2.47946764458628e-032
outer loop
vertex 25.1558910699771 12.6490173696913 1.5748
vertex 24.7613268307137 12.6999955734278 0.0
vertex 25.1558910699771 12.6490173696913 0.0
endloop
endfacet
facet normal 0.00241021606710872 -0.999997095425037 4.47535046771545e-032
outer loop
vertex 24.7613268307137 12.6999955734278 0.0
vertex 25.1558910699771 12.6490173696913 1.5748
vertex 24.7613268307137 12.6999955734278 1.5748
endloop
endfacet
facet normal 0.707106781186548 -0.707106781186548 4.68588524762217e-033
outer loop
vertex 2.04223304703363 12.9437669529664 0.0
vertex 1.6449364905389 12.426 1.5748
vertex 1.6449364905389 12.426 0.0
endloop
endfacet
facet normal 0.866025403784439 -0.5 2.02925700679495e-032
outer loop
vertex 1.6449364905389 12.426 1.5748
vertex 2.04223304703363 12.9437669529664 0.0
vertex 2.04223304703363 12.9437669529664 1.5748
endloop
endfacet
facet normal 1.0 -2.13866637495526e-016 -1.98805274067339e-032
outer loop
vertex 22.265 3.81 0.0
vertex 22.3501854342773 3.1629523872437 1.5748
vertex 22.3501854342773 3.1629523872437 0.0
endloop
endfacet
facet normal 0.965925826289068 0.258819045102523 -1.5772808782715e-032
outer loop
vertex 22.3501854342773 3.1629523872437 1.5748
vertex 22.265 3.81 0.0
vertex 22.265 3.81 1.5748
endloop
endfacet
facet normal 0.866025403784438 0.500000000000002 -1.0590199305953e-032
outer loop
vertex 22.5999364905389 2.56 0.0
vertex 22.9972330470336 2.04223304703363 1.5748
vertex 22.9972330470336 2.04223304703363 0.0
endloop
endfacet
facet normal 0.707106781186548 0.707106781186547 -4.68588524762219e-033
outer loop
vertex 22.9972330470336 2.04223304703363 1.5748
vertex 22.5999364905389 2.56 0.0
vertex 22.5999364905389 2.56 1.5748
endloop
endfacet
facet normal -0.707106781186547 -0.707106781186548 4.68588524762217e-033
outer loop
vertex 26.5327669529664 5.57776695296637 1.5748
vertex 26.015 5.9750635094611 0.0
vertex 26.5327669529664 5.57776695296637 0.0
endloop
endfacet
facet normal -0.5 -0.866025403784439 -1.53776414654261e-033
outer loop
vertex 26.015 5.9750635094611 0.0
vertex 26.5327669529664 5.57776695296637 1.5748
vertex 26.015 5.9750635094611 1.5748
endloop
endfacet
facet normal -0.258819045102521 0.965925826289068 1.79475356944866e-032
outer loop
vertex 25.4120476127563 1.39518543427733 1.5748
vertex 26.015 1.6449364905389 0.0
vertex 25.4120476127563 1.39518543427733 0.0
endloop
endfacet
facet normal -0.5 0.866025403784439 2.14182915532765e-032
outer loop
vertex 26.015 1.6449364905389 0.0
vertex 25.4120476127563 1.39518543427733 1.5748
vertex 26.015 1.6449364905389 1.5748
endloop
endfacet
facet normal 1.78222197912938e-017 1.0 1.32536849378226e-032
outer loop
vertex 24.765 1.31 1.5748
vertex 25.4120476127563 1.39518543427733 0.0
vertex 24.765 1.31 0.0
endloop
endfacet
facet normal -0.258819045102521 0.965925826289068 1.79475356944866e-032
outer loop
vertex 25.4120476127563 1.39518543427733 0.0
vertex 24.765 1.31 1.5748
vertex 25.4120476127563 1.39518543427733 1.5748
endloop
endfacet
facet normal 0.258819045102523 -0.965925826289068 -2.64001584458845e-032
outer loop
vertex 3.1629523872437 13.5908145657227 1.5748
vertex 2.56 13.3410635094611 0.0
vertex 3.1629523872437 13.5908145657227 0.0
endloop
endfacet
facet normal 0.500000000000002 -0.866025403784438 -1.1240134908539e-032
outer loop
vertex 2.56 13.3410635094611 0.0
vertex 3.1629523872437 13.5908145657227 1.5748
vertex 2.56 13.3410635094611 1.5748
endloop
endfacet
facet normal 0.500000000000002 -0.866025403784438 -1.1240134908539e-032
outer loop
vertex 2.56 13.3410635094611 1.5748
vertex 2.04223304703363 12.9437669529664 0.0
vertex 2.56 13.3410635094611 0.0
endloop
endfacet
facet normal 0.707106781186548 -0.707106781186548 4.68588524762217e-033
outer loop
vertex 2.04223304703363 12.9437669529664 0.0
vertex 2.56 13.3410635094611 1.5748
vertex 2.04223304703363 12.9437669529664 1.5748
endloop
endfacet
facet normal -2.13866637495526e-016 -1.0 -3.97610548134678e-032
outer loop
vertex 3.81 13.676 1.5748
vertex 3.1629523872437 13.5908145657227 0.0
vertex 3.81 13.676 0.0
endloop
endfacet
facet normal 0.258819045102523 -0.965925826289068 -2.64001584458845e-032
outer loop
vertex 3.1629523872437 13.5908145657227 0.0
vertex 3.81 13.676 1.5748
vertex 3.1629523872437 13.5908145657227 1.5748
endloop
endfacet
facet normal -0.5 0.866025403784438 1.12401349085391e-032
outer loop
vertex 5.06 9.0109364905389 1.5748
vertex 5.57776695296637 9.40823304703363 0.0
vertex 5.06 9.0109364905389 0.0
endloop
endfacet
facet normal -0.707106781186548 0.707106781186547 -4.68588524762221e-033
outer loop
vertex 5.57776695296637 9.40823304703363 0.0
vertex 5.06 9.0109364905389 1.5748
vertex 5.57776695296637 9.40823304703363 1.5748
endloop
endfacet
facet normal -0.258819045102521 -0.965925826289068 -7.65661745539591e-033
outer loop
vertex 25.4120476127563 6.22481456572267 1.5748
vertex 24.765 6.31 0.0
vertex 25.4120476127563 6.22481456572267 0.0
endloop
endfacet
facet normal 0.0 -1.0 -1.32536849378226e-032
outer loop
vertex 24.765 6.31 0.0
vertex 25.4120476127563 6.22481456572267 1.5748
vertex 24.765 6.31 1.5748
endloop
endfacet
facet normal -0.965925826289069 0.258819045102519 2.26334209421088e-032
outer loop
vertex 27.1798145657227 3.1629523872437 1.5748
vertex 26.9300635094611 2.56 0.0
vertex 26.9300635094611 2.56 1.5748
endloop
endfacet
facet normal -0.866025403784439 0.5 2.38438842437756e-032
outer loop
vertex 26.9300635094611 2.56 0.0
vertex 27.1798145657227 3.1629523872437 1.5748
vertex 27.1798145657227 3.1629523872437 0.0
endloop
endfacet
facet normal 0.707106781186548 -0.707106781186548 -2.34294262381109e-032
outer loop
vertex 22.9972330470336 5.57776695296637 0.0
vertex 22.5999364905389 5.06 1.5748
vertex 22.5999364905389 5.06 0.0
endloop
endfacet
facet normal 0.866025403784439 -0.499999999999999 -2.38438842437756e-032
outer loop
vertex 22.5999364905389 5.06 1.5748
vertex 22.9972330470336 5.57776695296637 0.0
vertex 22.9972330470336 5.57776695296637 1.5748
endloop
endfacet
facet normal 0.866025403784439 -0.499999999999999 -2.38438842437756e-032
outer loop
vertex 22.5999364905389 5.06 0.0
vertex 22.3501854342773 4.4570476127563 1.5748
vertex 22.3501854342773 4.4570476127563 0.0
endloop
endfacet
facet normal 0.965925826289068 -0.258819045102521 -2.26334209421088e-032
outer loop
vertex 22.3501854342773 4.4570476127563 1.5748
vertex 22.5999364905389 5.06 0.0
vertex 22.5999364905389 5.06 1.5748
endloop
endfacet
facet normal -0.866025403784439 0.5 2.38438842437756e-032
outer loop
vertex 26.9300635094611 2.56 1.5748
vertex 26.5327669529664 2.04223304703363 0.0
vertex 26.5327669529664 2.04223304703363 1.5748
endloop
endfacet
facet normal -0.707106781186547 0.707106781186548 2.34294262381109e-032
outer loop
vertex 26.5327669529664 2.04223304703363 0.0
vertex 26.9300635094611 2.56 1.5748
vertex 26.9300635094611 2.56 0.0
endloop
endfacet
facet normal 0.965925826289068 -0.258819045102521 -2.26334209421088e-032
outer loop
vertex 22.3501854342773 4.4570476127563 0.0
vertex 22.265 3.81 1.5748
vertex 22.265 3.81 0.0
endloop
endfacet
facet normal 1.0 -2.13866637495526e-016 -1.98805274067339e-032
outer loop
vertex 22.265 3.81 1.5748
vertex 22.3501854342773 4.4570476127563 0.0
vertex 22.3501854342773 4.4570476127563 1.5748
endloop
endfacet
facet normal 0.707106781186548 0.707106781186547 -4.68588524762219e-033
outer loop
vertex 22.9972330470336 2.04223304703363 1.5748
vertex 23.515 1.6449364905389 0.0
vertex 22.9972330470336 2.04223304703363 0.0
endloop
endfacet
facet normal 0.5 0.866025403784439 1.5377641465426e-033
outer loop
vertex 23.515 1.6449364905389 0.0
vertex 22.9972330470336 2.04223304703363 1.5748
vertex 23.515 1.6449364905389 1.5748
endloop
endfacet
facet normal 0.5 0.866025403784439 1.5377641465426e-033
outer loop
vertex 23.515 1.6449364905389 1.5748
vertex 24.1179523872437 1.39518543427733 0.0
vertex 23.515 1.6449364905389 0.0
endloop
endfacet
facet normal 0.25881904510252 0.965925826289068 7.65661745539593e-033
outer loop
vertex 24.1179523872437 1.39518543427733 0.0
vertex 23.515 1.6449364905389 1.5748
vertex 24.1179523872437 1.39518543427733 1.5748
endloop
endfacet
facet normal -0.707106781186547 -0.707106781186548 4.68588524762217e-033
outer loop
vertex 26.5327669529664 5.57776695296637 1.5748
vertex 26.9300635094611 5.06 0.0
vertex 26.9300635094611 5.06 1.5748
endloop
endfacet
facet normal -0.866025403784439 -0.5 1.0590199305953e-032
outer loop
vertex 26.9300635094611 5.06 0.0
vertex 26.5327669529664 5.57776695296637 1.5748
vertex 26.5327669529664 5.57776695296637 0.0
endloop
endfacet
facet normal 0.965925826289068 0.258819045102523 -1.5772808782715e-032
outer loop
vertex 22.3501854342773 3.1629523872437 0.0
vertex 22.5999364905389 2.56 1.5748
vertex 22.5999364905389 2.56 0.0
endloop
endfacet
facet normal 0.866025403784438 0.500000000000002 -1.0590199305953e-032
outer loop
vertex 22.5999364905389 2.56 1.5748
vertex 22.3501854342773 3.1629523872437 0.0
vertex 22.3501854342773 3.1629523872437 1.5748
endloop
endfacet
facet normal 0.258819045102522 -0.965925826289068 -1.79475356944867e-032
outer loop
vertex 24.1179523872437 6.22481456572267 1.5748
vertex 23.515 5.9750635094611 0.0
vertex 24.1179523872437 6.22481456572267 0.0
endloop
endfacet
facet normal 0.5 -0.866025403784439 -2.14182915532765e-032
outer loop
vertex 23.515 5.9750635094611 0.0
vertex 24.1179523872437 6.22481456572267 1.5748
vertex 23.515 5.9750635094611 1.5748
endloop
endfacet
facet normal 0.5 -0.866025403784439 -2.14182915532765e-032
outer loop
vertex 23.515 5.9750635094611 1.5748
vertex 22.9972330470336 5.57776695296637 0.0
vertex 23.515 5.9750635094611 0.0
endloop
endfacet
facet normal 0.707106781186548 -0.707106781186548 -2.34294262381109e-032
outer loop
vertex 22.9972330470336 5.57776695296637 0.0
vertex 23.515 5.9750635094611 1.5748
vertex 22.9972330470336 5.57776695296637 1.5748
endloop
endfacet
facet normal -1.0 1.1584442864341e-016 1.98805274067339e-032
outer loop
vertex 27.265 3.81 1.5748
vertex 27.1798145657227 3.1629523872437 0.0
vertex 27.1798145657227 3.1629523872437 1.5748
endloop
endfacet
facet normal -0.965925826289069 0.258819045102519 2.26334209421088e-032
outer loop
vertex 27.1798145657227 3.1629523872437 0.0
vertex 27.265 3.81 1.5748
vertex 27.265 3.81 0.0
endloop
endfacet
facet normal -0.5 -0.866025403784439 -1.53776414654261e-033
outer loop
vertex 26.015 5.9750635094611 1.5748
vertex 25.4120476127563 6.22481456572267 0.0
vertex 26.015 5.9750635094611 0.0
endloop
endfacet
facet normal -0.258819045102521 -0.965925826289068 -7.65661745539591e-033
outer loop
vertex 25.4120476127563 6.22481456572267 0.0
vertex 26.015 5.9750635094611 1.5748
vertex 25.4120476127563 6.22481456572267 1.5748
endloop
endfacet
facet normal -0.965925826289069 -0.258819045102519 1.5772808782715e-032
outer loop
vertex 27.1798145657227 4.4570476127563 1.5748
vertex 27.265 3.81 0.0
vertex 27.265 3.81 1.5748
endloop
endfacet
facet normal -1.0 1.1584442864341e-016 1.98805274067339e-032
outer loop
vertex 27.265 3.81 0.0
vertex 27.1798145657227 4.4570476127563 1.5748
vertex 27.1798145657227 4.4570476127563 0.0
endloop
endfacet
facet normal -0.866025403784439 -0.5 1.0590199305953e-032
outer loop
vertex 26.9300635094611 5.06 1.5748
vertex 27.1798145657227 4.4570476127563 0.0
vertex 27.1798145657227 4.4570476127563 1.5748
endloop
endfacet
facet normal -0.965925826289069 -0.258819045102519 1.5772808782715e-032
outer loop
vertex 27.1798145657227 4.4570476127563 0.0
vertex 26.9300635094611 5.06 1.5748
vertex 26.9300635094611 5.06 0.0
endloop
endfacet
facet normal 0.25881904510252 0.965925826289068 7.65661745539593e-033
outer loop
vertex 24.1179523872437 1.39518543427733 1.5748
vertex 24.765 1.31 0.0
vertex 24.1179523872437 1.39518543427733 0.0
endloop
endfacet
facet normal 1.78222197912938e-017 1.0 1.32536849378226e-032
outer loop
vertex 24.765 1.31 0.0
vertex 24.1179523872437 1.39518543427733 1.5748
vertex 24.765 1.31 1.5748
endloop
endfacet
facet normal 0.866025403784438 0.500000000000001 6.00536248814173e-032
outer loop
vertex 1.6449364905389 9.926 0.0
vertex 2.04223304703363 9.40823304703363 1.5748
vertex 2.04223304703363 9.40823304703363 0.0
endloop
endfacet
facet normal 0.707106781186547 0.707106781186548 6.09165082190883e-032
outer loop
vertex 2.04223304703363 9.40823304703363 1.5748
vertex 1.6449364905389 9.926 0.0
vertex 1.6449364905389 9.926 1.5748
endloop
endfacet
facet normal 0.707106781186547 0.707106781186548 6.09165082190883e-032
outer loop
vertex 2.04223304703363 9.40823304703363 1.5748
vertex 2.56 9.0109364905389 0.0
vertex 2.04223304703363 9.40823304703363 0.0
endloop
endfacet
facet normal 0.499999999999999 0.866025403784439 5.76280321909182e-032
outer loop
vertex 2.56 9.0109364905389 0.0
vertex 2.04223304703363 9.40823304703363 1.5748
vertex 2.56 9.0109364905389 1.5748
endloop
endfacet
facet normal 1.0 9.08933209355984e-016 4.63878972823791e-032
outer loop
vertex 1.31 11.176 0.0
vertex 1.39518543427733 10.5289523872437 1.5748
vertex 1.39518543427733 10.5289523872437 0.0
endloop
endfacet
facet normal 0.965925826289068 0.258819045102522 5.50981862513852e-032
outer loop
vertex 1.39518543427733 10.5289523872437 1.5748
vertex 1.31 11.176 0.0
vertex 1.31 11.176 1.5748
endloop
endfacet
facet normal -0.866025403784438 -0.500000000000001 -6.00536248814173e-032
outer loop
vertex 5.9750635094611 12.426 1.5748
vertex 6.22481456572267 11.8230476127563 0.0
vertex 6.22481456572267 11.8230476127563 1.5748
endloop
endfacet
facet normal -0.965925826289068 -0.258819045102521 -5.50981862513851e-032
outer loop
vertex 6.22481456572267 11.8230476127563 0.0
vertex 5.9750635094611 12.426 1.5748
vertex 5.9750635094611 12.426 0.0
endloop
endfacet
facet normal 0.866025403784439 -0.5 2.02925700679495e-032
outer loop
vertex 1.6449364905389 12.426 0.0
vertex 1.39518543427733 11.8230476127563 1.5748
vertex 1.39518543427733 11.8230476127563 0.0
endloop
endfacet
facet normal 0.965925826289069 -0.25881904510252 3.45163497732038e-032
outer loop
vertex 1.39518543427733 11.8230476127563 1.5748
vertex 1.6449364905389 12.426 0.0
vertex 1.6449364905389 12.426 1.5748
endloop
endfacet
facet normal 0.965925826289069 -0.25881904510252 3.45163497732038e-032
outer loop
vertex 1.39518543427733 11.8230476127563 0.0
vertex 1.31 11.176 1.5748
vertex 1.31 11.176 0.0
endloop
endfacet
facet normal 1.0 9.08933209355984e-016 4.63878972823791e-032
outer loop
vertex 1.31 11.176 1.5748
vertex 1.39518543427733 11.8230476127563 0.0
vertex 1.39518543427733 11.8230476127563 1.5748
endloop
endfacet
facet normal -0.965925826289068 -0.258819045102521 -5.50981862513851e-032
outer loop
vertex 6.22481456572267 11.8230476127563 1.5748
vertex 6.31 11.176 0.0
vertex 6.31 11.176 1.5748
endloop
endfacet
facet normal -1.0 0.0 -4.63878972823791e-032
outer loop
vertex 6.31 11.176 0.0
vertex 6.22481456572267 11.8230476127563 1.5748
vertex 6.22481456572267 11.8230476127563 0.0
endloop
endfacet
facet normal -0.707106781186547 -0.707106781186548 -6.09165082190883e-032
outer loop
vertex 5.57776695296637 12.9437669529664 1.5748
vertex 5.9750635094611 12.426 0.0
vertex 5.9750635094611 12.426 1.5748
endloop
endfacet
facet normal -0.866025403784438 -0.500000000000001 -6.00536248814173e-032
outer loop
vertex 5.9750635094611 12.426 0.0
vertex 5.57776695296637 12.9437669529664 1.5748
vertex 5.57776695296637 12.9437669529664 0.0
endloop
endfacet
facet normal -0.707106781186547 -0.707106781186548 -6.09165082190883e-032
outer loop
vertex 5.57776695296637 12.9437669529664 1.5748
vertex 5.06 13.3410635094611 0.0
vertex 5.57776695296637 12.9437669529664 0.0
endloop
endfacet
facet normal -0.499999999999999 -0.866025403784439 -5.76280321909182e-032
outer loop
vertex 5.06 13.3410635094611 0.0
vertex 5.57776695296637 12.9437669529664 1.5748
vertex 5.06 13.3410635094611 1.5748
endloop
endfacet
facet normal -0.866025403784439 0.499999999999999 -2.02925700679496e-032
outer loop
vertex 5.9750635094611 9.926 1.5748
vertex 5.57776695296637 9.40823304703363 0.0
vertex 5.57776695296637 9.40823304703363 1.5748
endloop
endfacet
facet normal -0.707106781186548 0.707106781186547 -4.68588524762221e-033
outer loop
vertex 5.57776695296637 9.40823304703363 0.0
vertex 5.9750635094611 9.926 1.5748
vertex 5.9750635094611 9.926 0.0
endloop
endfacet
facet normal 0.965925826289068 0.258819045102522 5.50981862513852e-032
outer loop
vertex 1.39518543427733 10.5289523872437 0.0
vertex 1.6449364905389 9.926 1.5748
vertex 1.6449364905389 9.926 0.0
endloop
endfacet
facet normal 0.866025403784438 0.500000000000001 6.00536248814173e-032
outer loop
vertex 1.6449364905389 9.926 1.5748
vertex 1.39518543427733 10.5289523872437 0.0
vertex 1.39518543427733 10.5289523872437 1.5748
endloop
endfacet
facet normal -0.499999999999999 -0.866025403784439 -5.76280321909182e-032
outer loop
vertex 5.06 13.3410635094611 1.5748
vertex 4.4570476127563 13.5908145657227 0.0
vertex 5.06 13.3410635094611 0.0
endloop
endfacet
facet normal -0.258819045102521 -0.965925826289068 -5.0412301003763e-032
outer loop
vertex 4.4570476127563 13.5908145657227 0.0
vertex 5.06 13.3410635094611 1.5748
vertex 4.4570476127563 13.5908145657227 1.5748
endloop
endfacet
facet normal 1.51488868225997e-016 1.0 3.97610548134678e-032
outer loop
vertex 3.81 8.676 1.5748
vertex 4.4570476127563 8.76118543427733 0.0
vertex 3.81 8.676 0.0
endloop
endfacet
facet normal -0.258819045102521 0.965925826289068 2.64001584458846e-032
outer loop
vertex 4.4570476127563 8.76118543427733 0.0
vertex 3.81 8.676 1.5748
vertex 4.4570476127563 8.76118543427733 1.5748
endloop
endfacet
facet normal -0.258819045102521 -0.965925826289068 -5.0412301003763e-032
outer loop
vertex 4.4570476127563 13.5908145657227 1.5748
vertex 3.81 13.676 0.0
vertex 4.4570476127563 13.5908145657227 0.0
endloop
endfacet
facet normal -2.13866637495526e-016 -1.0 -3.97610548134678e-032
outer loop
vertex 3.81 13.676 0.0
vertex 4.4570476127563 13.5908145657227 1.5748
vertex 3.81 13.676 1.5748
endloop
endfacet
facet normal -0.258819045102521 0.965925826289068 2.64001584458846e-032
outer loop
vertex 4.4570476127563 8.76118543427733 1.5748
vertex 5.06 9.0109364905389 0.0
vertex 4.4570476127563 8.76118543427733 0.0
endloop
endfacet
facet normal -0.5 0.866025403784438 1.12401349085391e-032
outer loop
vertex 5.06 9.0109364905389 0.0
vertex 4.4570476127563 8.76118543427733 1.5748
vertex 5.06 9.0109364905389 1.5748
endloop
endfacet
facet normal -0.965925826289068 0.258819045102521 -3.45163497732037e-032
outer loop
vertex 6.22481456572267 10.5289523872437 1.5748
vertex 5.9750635094611 9.926 0.0
vertex 5.9750635094611 9.926 1.5748
endloop
endfacet
facet normal -0.866025403784439 0.499999999999999 -2.02925700679496e-032
outer loop
vertex 5.9750635094611 9.926 0.0
vertex 6.22481456572267 10.5289523872437 1.5748
vertex 6.22481456572267 10.5289523872437 0.0
endloop
endfacet
facet normal -1.0 0.0 -4.63878972823791e-032
outer loop
vertex 6.31 11.176 1.5748
vertex 6.22481456572267 10.5289523872437 0.0
vertex 6.22481456572267 10.5289523872437 1.5748
endloop
endfacet
facet normal -0.965925826289068 0.258819045102521 -3.45163497732037e-032
outer loop
vertex 6.22481456572267 10.5289523872437 0.0
vertex 6.31 11.176 1.5748
vertex 6.31 11.176 0.0
endloop
endfacet
endsolid IRSensor
