solid st-3mmx4,2mm
facet normal 0.0 0.0 -1.0
outer loop
vertex -1.5 2.59807621135332 0.0
vertex -1.4488887394336 0.388228567653782 0.0
vertex -1.5 3.52495810318487e-016 0.0
endloop
endfacet
facet normal 0.0 0.0 -1.0
outer loop
vertex -1.4488887394336 0.388228567653782 0.0
vertex -1.5 2.59807621135332 0.0
vertex -0.776457135307562 2.89777747886721 0.0
endloop
endfacet
facet normal 0.0 0.0 -1.0
outer loop
vertex -1.4488887394336 0.388228567653782 0.0
vertex -0.776457135307562 2.89777747886721 0.0
vertex -1.29903810567666 0.75 0.0
endloop
endfacet
facet normal 0.0 0.0 -1.0
outer loop
vertex -1.29903810567666 0.75 0.0
vertex -0.776457135307562 2.89777747886721 0.0
vertex -1.06066017177982 1.06066017177982 0.0
endloop
endfacet
facet normal 0.0 0.0 -1.0
outer loop
vertex -1.06066017177982 1.06066017177982 0.0
vertex -0.776457135307562 2.89777747886721 0.0
vertex -0.75 1.29903810567666 0.0
endloop
endfacet
facet normal 0.0 0.0 -1.0
outer loop
vertex -0.75 1.29903810567666 0.0
vertex -0.776457135307562 2.89777747886721 0.0
vertex 0.0 3.0 0.0
endloop
endfacet
facet normal 0.0 0.0 -1.0
outer loop
vertex -0.75 1.29903810567666 0.0
vertex 0.0 3.0 0.0
vertex -0.388228567653781 1.4488887394336 0.0
endloop
endfacet
facet normal 0.0 0.0 -1.0
outer loop
vertex -0.388228567653781 1.4488887394336 0.0
vertex 0.0 3.0 0.0
vertex 0.0 1.5 0.0
endloop
endfacet
facet normal 0.0 0.0 -1.0
outer loop
vertex 0.0 1.5 0.0
vertex 0.0 3.0 0.0
vertex 0.776457135307565 2.8977774788672 0.0
endloop
endfacet
facet normal 0.0 0.0 -1.0
outer loop
vertex 0.0 1.5 0.0
vertex 0.776457135307565 2.8977774788672 0.0
vertex 0.388228567653781 1.4488887394336 0.0
endloop
endfacet
facet normal 0.0 0.0 -1.0
outer loop
vertex 0.388228567653781 1.4488887394336 0.0
vertex 0.776457135307565 2.8977774788672 0.0
vertex 0.75 1.29903810567666 0.0
endloop
endfacet
facet normal 0.0 0.0 -1.0
outer loop
vertex 0.75 1.29903810567666 0.0
vertex 0.776457135307565 2.8977774788672 0.0
vertex 1.06066017177982 1.06066017177982 0.0
endloop
endfacet
facet normal 0.0 0.0 -1.0
outer loop
vertex 1.06066017177982 1.06066017177982 0.0
vertex 0.776457135307565 2.8977774788672 0.0
vertex 1.5 2.59807621135332 0.0
endloop
endfacet
facet normal 0.0 0.0 -1.0
outer loop
vertex 1.06066017177982 1.06066017177982 0.0
vertex 1.5 2.59807621135332 0.0
vertex 1.29903810567666 0.75 0.0
endloop
endfacet
facet normal 0.0 0.0 -1.0
outer loop
vertex 1.29903810567666 0.75 0.0
vertex 1.5 2.59807621135332 0.0
vertex 1.4488887394336 0.388228567653781 0.0
endloop
endfacet
facet normal 0.0 0.0 -1.0
outer loop
vertex 1.4488887394336 0.388228567653781 0.0
vertex 1.5 2.59807621135332 0.0
vertex 1.5 0.0 0.0
endloop
endfacet
facet normal 0.0 0.0 -1.0
outer loop
vertex -2.89777747886721 0.776457135307563 0.0
vertex -2.89777747886721 -0.776457135307562 0.0
vertex -3.0 3.52495810318487e-016 0.0
endloop
endfacet
facet normal 0.0 0.0 -1.0
outer loop
vertex -2.89777747886721 -0.776457135307562 0.0
vertex -2.89777747886721 0.776457135307563 0.0
vertex -2.59807621135332 -1.5 0.0
endloop
endfacet
facet normal 0.0 0.0 -1.0
outer loop
vertex -2.59807621135332 -1.5 0.0
vertex -2.89777747886721 0.776457135307563 0.0
vertex -2.59807621135332 1.5 0.0
endloop
endfacet
facet normal 0.0 0.0 -1.0
outer loop
vertex -2.59807621135332 -1.5 0.0
vertex -2.59807621135332 1.5 0.0
vertex -2.12132034355964 -2.12132034355964 0.0
endloop
endfacet
facet normal 0.0 0.0 -1.0
outer loop
vertex -2.12132034355964 -2.12132034355964 0.0
vertex -2.59807621135332 1.5 0.0
vertex -2.12132034355964 2.12132034355964 0.0
endloop
endfacet
facet normal 0.0 0.0 -1.0
outer loop
vertex -2.12132034355964 -2.12132034355964 0.0
vertex -2.12132034355964 2.12132034355964 0.0
vertex -1.5 -2.59807621135332 0.0
endloop
endfacet
facet normal 0.0 0.0 -1.0
outer loop
vertex -1.5 -2.59807621135332 0.0
vertex -2.12132034355964 2.12132034355964 0.0
vertex -1.5 2.59807621135332 0.0
endloop
endfacet
facet normal 0.0 0.0 -1.0
outer loop
vertex -1.5 -2.59807621135332 0.0
vertex -1.5 2.59807621135332 0.0
vertex -1.5 3.52495810318487e-016 0.0
endloop
endfacet
facet normal 0.0 0.0 -1.0
outer loop
vertex -1.5 -2.59807621135332 0.0
vertex -1.5 3.52495810318487e-016 0.0
vertex -1.4488887394336 -0.388228567653781 0.0
endloop
endfacet
facet normal 0.0 0.0 -1.0
outer loop
vertex -1.5 -2.59807621135332 0.0
vertex -1.4488887394336 -0.388228567653781 0.0
vertex -0.776457135307563 -2.8977774788672 0.0
endloop
endfacet
facet normal 0.0 0.0 -1.0
outer loop
vertex -0.776457135307563 -2.8977774788672 0.0
vertex -1.4488887394336 -0.388228567653781 0.0
vertex -1.29903810567666 -0.75 0.0
endloop
endfacet
facet normal 0.0 0.0 -1.0
outer loop
vertex -0.776457135307563 -2.8977774788672 0.0
vertex -1.29903810567666 -0.75 0.0
vertex -1.06066017177982 -1.06066017177982 0.0
endloop
endfacet
facet normal 0.0 0.0 -1.0
outer loop
vertex -0.776457135307563 -2.8977774788672 0.0
vertex -1.06066017177982 -1.06066017177982 0.0
vertex -0.750000000000001 -1.29903810567666 0.0
endloop
endfacet
facet normal 0.0 0.0 -1.0
outer loop
vertex -0.776457135307563 -2.8977774788672 0.0
vertex -0.750000000000001 -1.29903810567666 0.0
vertex -3.52495810318487e-016 -3.0 0.0
endloop
endfacet
facet normal 0.0 0.0 -1.0
outer loop
vertex -3.52495810318487e-016 -3.0 0.0
vertex -0.750000000000001 -1.29903810567666 0.0
vertex -0.388228567653782 -1.4488887394336 0.0
endloop
endfacet
facet normal 0.0 0.0 -1.0
outer loop
vertex -3.52495810318487e-016 -3.0 0.0
vertex -0.388228567653782 -1.4488887394336 0.0
vertex -3.52495810318487e-016 -1.5 0.0
endloop
endfacet
facet normal 0.0 0.0 -1.0
outer loop
vertex -3.52495810318487e-016 -3.0 0.0
vertex -3.52495810318487e-016 -1.5 0.0
vertex 0.388228567653781 -1.4488887394336 0.0
endloop
endfacet
facet normal 0.0 0.0 -1.0
outer loop
vertex -3.52495810318487e-016 -3.0 0.0
vertex 0.388228567653781 -1.4488887394336 0.0
vertex 0.776457135307561 -2.89777747886721 0.0
endloop
endfacet
facet normal 0.0 0.0 -1.0
outer loop
vertex 0.776457135307561 -2.89777747886721 0.0
vertex 0.388228567653781 -1.4488887394336 0.0
vertex 0.749999999999999 -1.29903810567666 0.0
endloop
endfacet
facet normal 0.0 0.0 -1.0
outer loop
vertex 0.776457135307561 -2.89777747886721 0.0
vertex 0.749999999999999 -1.29903810567666 0.0
vertex 1.06066017177982 -1.06066017177982 0.0
endloop
endfacet
facet normal 0.0 0.0 -1.0
outer loop
vertex 0.776457135307561 -2.89777747886721 0.0
vertex 1.06066017177982 -1.06066017177982 0.0
vertex 1.5 -2.59807621135332 0.0
endloop
endfacet
facet normal 0.0 0.0 -1.0
outer loop
vertex 1.5 -2.59807621135332 0.0
vertex 1.06066017177982 -1.06066017177982 0.0
vertex 1.29903810567666 -0.750000000000001 0.0
endloop
endfacet
facet normal 0.0 0.0 -1.0
outer loop
vertex 1.5 -2.59807621135332 0.0
vertex 1.29903810567666 -0.750000000000001 0.0
vertex 1.4488887394336 -0.388228567653782 0.0
endloop
endfacet
facet normal 0.0 0.0 -1.0
outer loop
vertex 1.5 -2.59807621135332 0.0
vertex 1.4488887394336 -0.388228567653782 0.0
vertex 1.5 0.0 0.0
endloop
endfacet
facet normal 0.0 0.0 -1.0
outer loop
vertex 1.5 -2.59807621135332 0.0
vertex 1.5 0.0 0.0
vertex 2.12132034355964 -2.12132034355964 0.0
endloop
endfacet
facet normal 0.0 0.0 -1.0
outer loop
vertex 2.12132034355964 -2.12132034355964 0.0
vertex 1.5 0.0 0.0
vertex 1.5 2.59807621135332 0.0
endloop
endfacet
facet normal 0.0 0.0 -1.0
outer loop
vertex 2.12132034355964 -2.12132034355964 0.0
vertex 1.5 2.59807621135332 0.0
vertex 2.12132034355964 2.12132034355964 0.0
endloop
endfacet
facet normal 0.0 0.0 -1.0
outer loop
vertex 2.12132034355964 -2.12132034355964 0.0
vertex 2.12132034355964 2.12132034355964 0.0
vertex 2.59807621135332 -1.5 0.0
endloop
endfacet
facet normal 0.0 0.0 -1.0
outer loop
vertex 2.59807621135332 -1.5 0.0
vertex 2.12132034355964 2.12132034355964 0.0
vertex 2.59807621135332 1.5 0.0
endloop
endfacet
facet normal 0.0 0.0 -1.0
outer loop
vertex 2.59807621135332 -1.5 0.0
vertex 2.59807621135332 1.5 0.0
vertex 2.89777747886721 -0.776457135307564 0.0
endloop
endfacet
facet normal 0.0 0.0 -1.0
outer loop
vertex 2.89777747886721 -0.776457135307564 0.0
vertex 2.59807621135332 1.5 0.0
vertex 2.89777747886721 0.776457135307561 0.0
endloop
endfacet
facet normal 0.0 0.0 -1.0
outer loop
vertex 2.89777747886721 -0.776457135307564 0.0
vertex 2.89777747886721 0.776457135307561 0.0
vertex 3.0 -7.04991620636974e-016 0.0
endloop
endfacet
facet normal -0.5 0.866025403784439 0.0
outer loop
vertex 0.749999999999999 -1.29903810567666 4.2
vertex 1.06066017177982 -1.06066017177982 0.0
vertex 0.749999999999999 -1.29903810567666 0.0
endloop
endfacet
facet normal -0.707106781186547 0.707106781186548 0.0
outer loop
vertex 1.06066017177982 -1.06066017177982 0.0
vertex 0.749999999999999 -1.29903810567666 4.2
vertex 1.06066017177982 -1.06066017177982 4.2
endloop
endfacet
facet normal -0.866025403784439 0.5 0.0
outer loop
vertex 1.29903810567666 -0.750000000000001 4.2
vertex 1.06066017177982 -1.06066017177982 0.0
vertex 1.06066017177982 -1.06066017177982 4.2
endloop
endfacet
facet normal -0.707106781186547 0.707106781186548 0.0
outer loop
vertex 1.06066017177982 -1.06066017177982 0.0
vertex 1.29903810567666 -0.750000000000001 4.2
vertex 1.29903810567666 -0.750000000000001 0.0
endloop
endfacet
facet normal -1.0 2.40599967182466e-016 0.0
outer loop
vertex 1.5 0.0 4.2
vertex 1.4488887394336 -0.388228567653782 0.0
vertex 1.4488887394336 -0.388228567653782 4.2
endloop
endfacet
facet normal -0.965925826289068 0.258819045102521 0.0
outer loop
vertex 1.4488887394336 -0.388228567653782 0.0
vertex 1.5 0.0 4.2
vertex 1.5 0.0 0.0
endloop
endfacet
facet normal -0.965925826289068 0.258819045102521 0.0
outer loop
vertex 1.4488887394336 -0.388228567653782 4.2
vertex 1.29903810567666 -0.750000000000001 0.0
vertex 1.29903810567666 -0.750000000000001 4.2
endloop
endfacet
facet normal -0.866025403784439 0.5 0.0
outer loop
vertex 1.29903810567666 -0.750000000000001 0.0
vertex 1.4488887394336 -0.388228567653782 4.2
vertex 1.4488887394336 -0.388228567653782 0.0
endloop
endfacet
facet normal 1.0 -2.22777747391173e-016 0.0
outer loop
vertex 3.0 -7.04991620636974e-016 0.0
vertex 2.89777747886721 -0.776457135307564 4.2
vertex 2.89777747886721 -0.776457135307564 0.0
endloop
endfacet
facet normal 0.965925826289068 -0.258819045102521 0.0
outer loop
vertex 2.89777747886721 -0.776457135307564 4.2
vertex 3.0 -7.04991620636974e-016 0.0
vertex 3.0 -7.04991620636974e-016 4.2
endloop
endfacet
facet normal 0.0 0.0 1.0
outer loop
vertex -1.5 -2.59807621135332 4.2
vertex -1.4488887394336 -0.388228567653781 4.2
vertex -1.5 3.52495810318487e-016 4.2
endloop
endfacet
facet normal 0.0 0.0 1.0
outer loop
vertex -1.4488887394336 -0.388228567653781 4.2
vertex -1.5 -2.59807621135332 4.2
vertex -0.776457135307563 -2.8977774788672 4.2
endloop
endfacet
facet normal 0.0 0.0 1.0
outer loop
vertex -1.4488887394336 -0.388228567653781 4.2
vertex -0.776457135307563 -2.8977774788672 4.2
vertex -1.29903810567666 -0.75 4.2
endloop
endfacet
facet normal 0.0 0.0 1.0
outer loop
vertex -1.29903810567666 -0.75 4.2
vertex -0.776457135307563 -2.8977774788672 4.2
vertex -1.06066017177982 -1.06066017177982 4.2
endloop
endfacet
facet normal 0.0 0.0 1.0
outer loop
vertex -1.06066017177982 -1.06066017177982 4.2
vertex -0.776457135307563 -2.8977774788672 4.2
vertex -0.750000000000001 -1.29903810567666 4.2
endloop
endfacet
facet normal 0.0 0.0 1.0
outer loop
vertex -0.750000000000001 -1.29903810567666 4.2
vertex -0.776457135307563 -2.8977774788672 4.2
vertex -3.52495810318487e-016 -3.0 4.2
endloop
endfacet
facet normal 0.0 0.0 1.0
outer loop
vertex -0.750000000000001 -1.29903810567666 4.2
vertex -3.52495810318487e-016 -3.0 4.2
vertex -0.388228567653782 -1.4488887394336 4.2
endloop
endfacet
facet normal 0.0 0.0 1.0
outer loop
vertex -0.388228567653782 -1.4488887394336 4.2
vertex -3.52495810318487e-016 -3.0 4.2
vertex -3.52495810318487e-016 -1.5 4.2
endloop
endfacet
facet normal 0.0 0.0 1.0
outer loop
vertex -3.52495810318487e-016 -1.5 4.2
vertex -3.52495810318487e-016 -3.0 4.2
vertex 0.776457135307561 -2.89777747886721 4.2
endloop
endfacet
facet normal 0.0 0.0 1.0
outer loop
vertex -3.52495810318487e-016 -1.5 4.2
vertex 0.776457135307561 -2.89777747886721 4.2
vertex 0.388228567653781 -1.4488887394336 4.2
endloop
endfacet
facet normal 0.0 0.0 1.0
outer loop
vertex 0.388228567653781 -1.4488887394336 4.2
vertex 0.776457135307561 -2.89777747886721 4.2
vertex 0.749999999999999 -1.29903810567666 4.2
endloop
endfacet
facet normal 0.0 0.0 1.0
outer loop
vertex 0.749999999999999 -1.29903810567666 4.2
vertex 0.776457135307561 -2.89777747886721 4.2
vertex 1.06066017177982 -1.06066017177982 4.2
endloop
endfacet
facet normal 0.0 0.0 1.0
outer loop
vertex 1.06066017177982 -1.06066017177982 4.2
vertex 0.776457135307561 -2.89777747886721 4.2
vertex 1.5 -2.59807621135332 4.2
endloop
endfacet
facet normal 0.0 0.0 1.0
outer loop
vertex 1.06066017177982 -1.06066017177982 4.2
vertex 1.5 -2.59807621135332 4.2
vertex 1.29903810567666 -0.750000000000001 4.2
endloop
endfacet
facet normal 0.0 0.0 1.0
outer loop
vertex 1.29903810567666 -0.750000000000001 4.2
vertex 1.5 -2.59807621135332 4.2
vertex 1.4488887394336 -0.388228567653782 4.2
endloop
endfacet
facet normal 0.0 0.0 1.0
outer loop
vertex 1.4488887394336 -0.388228567653782 4.2
vertex 1.5 -2.59807621135332 4.2
vertex 1.5 0.0 4.2
endloop
endfacet
facet normal 0.0 0.0 1.0
outer loop
vertex 1.5 0.0 4.2
vertex 1.5 -2.59807621135332 4.2
vertex 2.12132034355964 -2.12132034355964 4.2
endloop
endfacet
facet normal 0.0 0.0 1.0
outer loop
vertex 1.5 0.0 4.2
vertex 2.12132034355964 -2.12132034355964 4.2
vertex 1.5 2.59807621135332 4.2
endloop
endfacet
facet normal 0.0 0.0 1.0
outer loop
vertex 1.5 2.59807621135332 4.2
vertex 2.12132034355964 -2.12132034355964 4.2
vertex 2.12132034355964 2.12132034355964 4.2
endloop
endfacet
facet normal 0.0 0.0 1.0
outer loop
vertex 2.12132034355964 2.12132034355964 4.2
vertex 2.12132034355964 -2.12132034355964 4.2
vertex 2.59807621135332 -1.5 4.2
endloop
endfacet
facet normal 0.0 0.0 1.0
outer loop
vertex 2.12132034355964 2.12132034355964 4.2
vertex 2.59807621135332 -1.5 4.2
vertex 2.59807621135332 1.5 4.2
endloop
endfacet
facet normal 0.0 0.0 1.0
outer loop
vertex 2.59807621135332 1.5 4.2
vertex 2.59807621135332 -1.5 4.2
vertex 2.89777747886721 -0.776457135307564 4.2
endloop
endfacet
facet normal 0.0 0.0 1.0
outer loop
vertex 2.59807621135332 1.5 4.2
vertex 2.89777747886721 -0.776457135307564 4.2
vertex 2.89777747886721 0.776457135307561 4.2
endloop
endfacet
facet normal 0.0 0.0 1.0
outer loop
vertex 2.89777747886721 0.776457135307561 4.2
vertex 2.89777747886721 -0.776457135307564 4.2
vertex 3.0 -7.04991620636974e-016 4.2
endloop
endfacet
facet normal 0.0 0.0 1.0
outer loop
vertex -2.89777747886721 -0.776457135307562 4.2
vertex -2.89777747886721 0.776457135307563 4.2
vertex -3.0 3.52495810318487e-016 4.2
endloop
endfacet
facet normal 0.0 0.0 1.0
outer loop
vertex -2.89777747886721 0.776457135307563 4.2
vertex -2.89777747886721 -0.776457135307562 4.2
vertex -2.59807621135332 -1.5 4.2
endloop
endfacet
facet normal 0.0 0.0 1.0
outer loop
vertex -2.89777747886721 0.776457135307563 4.2
vertex -2.59807621135332 -1.5 4.2
vertex -2.59807621135332 1.5 4.2
endloop
endfacet
facet normal 0.0 0.0 1.0
outer loop
vertex -2.59807621135332 1.5 4.2
vertex -2.59807621135332 -1.5 4.2
vertex -2.12132034355964 -2.12132034355964 4.2
endloop
endfacet
facet normal 0.0 0.0 1.0
outer loop
vertex -2.59807621135332 1.5 4.2
vertex -2.12132034355964 -2.12132034355964 4.2
vertex -2.12132034355964 2.12132034355964 4.2
endloop
endfacet
facet normal 0.0 0.0 1.0
outer loop
vertex -2.12132034355964 2.12132034355964 4.2
vertex -2.12132034355964 -2.12132034355964 4.2
vertex -1.5 -2.59807621135332 4.2
endloop
endfacet
facet normal 0.0 0.0 1.0
outer loop
vertex -2.12132034355964 2.12132034355964 4.2
vertex -1.5 -2.59807621135332 4.2
vertex -1.5 2.59807621135332 4.2
endloop
endfacet
facet normal 0.0 0.0 1.0
outer loop
vertex -1.5 2.59807621135332 4.2
vertex -1.5 -2.59807621135332 4.2
vertex -1.5 3.52495810318487e-016 4.2
endloop
endfacet
facet normal 0.0 0.0 1.0
outer loop
vertex -1.5 2.59807621135332 4.2
vertex -1.5 3.52495810318487e-016 4.2
vertex -1.4488887394336 0.388228567653782 4.2
endloop
endfacet
facet normal 0.0 0.0 1.0
outer loop
vertex -1.5 2.59807621135332 4.2
vertex -1.4488887394336 0.388228567653782 4.2
vertex -0.776457135307562 2.89777747886721 4.2
endloop
endfacet
facet normal 0.0 0.0 1.0
outer loop
vertex -0.776457135307562 2.89777747886721 4.2
vertex -1.4488887394336 0.388228567653782 4.2
vertex -1.29903810567666 0.75 4.2
endloop
endfacet
facet normal 0.0 0.0 1.0
outer loop
vertex -0.776457135307562 2.89777747886721 4.2
vertex -1.29903810567666 0.75 4.2
vertex -1.06066017177982 1.06066017177982 4.2
endloop
endfacet
facet normal 0.0 0.0 1.0
outer loop
vertex -0.776457135307562 2.89777747886721 4.2
vertex -1.06066017177982 1.06066017177982 4.2
vertex -0.75 1.29903810567666 4.2
endloop
endfacet
facet normal 0.0 0.0 1.0
outer loop
vertex -0.776457135307562 2.89777747886721 4.2
vertex -0.75 1.29903810567666 4.2
vertex 0.0 3.0 4.2
endloop
endfacet
facet normal 0.0 0.0 1.0
outer loop
vertex 0.0 3.0 4.2
vertex -0.75 1.29903810567666 4.2
vertex -0.388228567653781 1.4488887394336 4.2
endloop
endfacet
facet normal 0.0 0.0 1.0
outer loop
vertex 0.0 3.0 4.2
vertex -0.388228567653781 1.4488887394336 4.2
vertex 0.0 1.5 4.2
endloop
endfacet
facet normal 0.0 0.0 1.0
outer loop
vertex 0.0 3.0 4.2
vertex 0.0 1.5 4.2
vertex 0.388228567653781 1.4488887394336 4.2
endloop
endfacet
facet normal 0.0 0.0 1.0
outer loop
vertex 0.0 3.0 4.2
vertex 0.388228567653781 1.4488887394336 4.2
vertex 0.776457135307565 2.8977774788672 4.2
endloop
endfacet
facet normal 0.0 0.0 1.0
outer loop
vertex 0.776457135307565 2.8977774788672 4.2
vertex 0.388228567653781 1.4488887394336 4.2
vertex 0.75 1.29903810567666 4.2
endloop
endfacet
facet normal 0.0 0.0 1.0
outer loop
vertex 0.776457135307565 2.8977774788672 4.2
vertex 0.75 1.29903810567666 4.2
vertex 1.06066017177982 1.06066017177982 4.2
endloop
endfacet
facet normal 0.0 0.0 1.0
outer loop
vertex 0.776457135307565 2.8977774788672 4.2
vertex 1.06066017177982 1.06066017177982 4.2
vertex 1.5 2.59807621135332 4.2
endloop
endfacet
facet normal 0.0 0.0 1.0
outer loop
vertex 1.5 2.59807621135332 4.2
vertex 1.06066017177982 1.06066017177982 4.2
vertex 1.29903810567666 0.75 4.2
endloop
endfacet
facet normal 0.0 0.0 1.0
outer loop
vertex 1.5 2.59807621135332 4.2
vertex 1.29903810567666 0.75 4.2
vertex 1.4488887394336 0.388228567653781 4.2
endloop
endfacet
facet normal 0.0 0.0 1.0
outer loop
vertex 1.5 2.59807621135332 4.2
vertex 1.4488887394336 0.388228567653781 4.2
vertex 1.5 0.0 4.2
endloop
endfacet
facet normal 0.258819045102521 -0.965925826289068 0.0
outer loop
vertex 0.776457135307561 -2.89777747886721 4.2
vertex -3.52495810318487e-016 -3.0 0.0
vertex 0.776457135307561 -2.89777747886721 0.0
endloop
endfacet
facet normal -9.80222088521159e-017 -1.0 0.0
outer loop
vertex -3.52495810318487e-016 -3.0 0.0
vertex 0.776457135307561 -2.89777747886721 4.2
vertex -3.52495810318487e-016 -3.0 4.2
endloop
endfacet
facet normal -0.965925826289068 0.258819045102521 0.0
outer loop
vertex -2.89777747886721 0.776457135307563 4.2
vertex -3.0 3.52495810318487e-016 0.0
vertex -3.0 3.52495810318487e-016 4.2
endloop
endfacet
facet normal -1.0 1.69311088017291e-016 0.0
outer loop
vertex -3.0 3.52495810318487e-016 0.0
vertex -2.89777747886721 0.776457135307563 4.2
vertex -2.89777747886721 0.776457135307563 0.0
endloop
endfacet
facet normal 0.965925826289068 0.25881904510252 0.0
outer loop
vertex 2.89777747886721 0.776457135307561 0.0
vertex 3.0 -7.04991620636974e-016 4.2
vertex 3.0 -7.04991620636974e-016 0.0
endloop
endfacet
facet normal 1.0 -2.22777747391173e-016 0.0
outer loop
vertex 3.0 -7.04991620636974e-016 4.2
vertex 2.89777747886721 0.776457135307561 0.0
vertex 2.89777747886721 0.776457135307561 4.2
endloop
endfacet
facet normal -0.258819045102521 -0.965925826289068 0.0
outer loop
vertex -0.776457135307563 -2.8977774788672 4.2
vertex -1.5 -2.59807621135332 0.0
vertex -0.776457135307563 -2.8977774788672 0.0
endloop
endfacet
facet normal -0.5 -0.866025403784439 0.0
outer loop
vertex -1.5 -2.59807621135332 0.0
vertex -0.776457135307563 -2.8977774788672 4.2
vertex -1.5 -2.59807621135332 4.2
endloop
endfacet
facet normal -0.258819045102521 0.965925826289068 0.0
outer loop
vertex -0.776457135307562 2.89777747886721 4.2
vertex 0.0 3.0 0.0
vertex -0.776457135307562 2.89777747886721 0.0
endloop
endfacet
facet normal 2.40599967182466e-016 1.0 0.0
outer loop
vertex 0.0 3.0 0.0
vertex -0.776457135307562 2.89777747886721 4.2
vertex 0.0 3.0 4.2
endloop
endfacet
facet normal 0.866025403784439 0.5 0.0
outer loop
vertex 2.59807621135332 1.5 0.0
vertex 2.89777747886721 0.776457135307561 4.2
vertex 2.89777747886721 0.776457135307561 0.0
endloop
endfacet
facet normal 0.965925826289068 0.25881904510252 0.0
outer loop
vertex 2.89777747886721 0.776457135307561 4.2
vertex 2.59807621135332 1.5 0.0
vertex 2.59807621135332 1.5 4.2
endloop
endfacet
facet normal -1.0 1.69311088017291e-016 0.0
outer loop
vertex -3.0 3.52495810318487e-016 4.2
vertex -2.89777747886721 -0.776457135307562 0.0
vertex -2.89777747886721 -0.776457135307562 4.2
endloop
endfacet
facet normal -0.965925826289068 -0.258819045102521 0.0
outer loop
vertex -2.89777747886721 -0.776457135307562 0.0
vertex -3.0 3.52495810318487e-016 4.2
vertex -3.0 3.52495810318487e-016 0.0
endloop
endfacet
facet normal 0.707106781186548 0.707106781186547 0.0
outer loop
vertex 2.12132034355964 2.12132034355964 0.0
vertex 2.59807621135332 1.5 4.2
vertex 2.59807621135332 1.5 0.0
endloop
endfacet
facet normal 0.866025403784439 0.5 0.0
outer loop
vertex 2.59807621135332 1.5 4.2
vertex 2.12132034355964 2.12132034355964 0.0
vertex 2.12132034355964 2.12132034355964 4.2
endloop
endfacet
facet normal 0.965925826289068 -0.258819045102521 0.0
outer loop
vertex 2.89777747886721 -0.776457135307564 0.0
vertex 2.59807621135332 -1.5 4.2
vertex 2.59807621135332 -1.5 0.0
endloop
endfacet
facet normal 0.866025403784438 -0.500000000000001 0.0
outer loop
vertex 2.59807621135332 -1.5 4.2
vertex 2.89777747886721 -0.776457135307564 0.0
vertex 2.89777747886721 -0.776457135307564 4.2
endloop
endfacet
facet normal 2.40599967182466e-016 1.0 0.0
outer loop
vertex 0.0 3.0 4.2
vertex 0.776457135307565 2.8977774788672 0.0
vertex 0.0 3.0 0.0
endloop
endfacet
facet normal 0.258819045102521 0.965925826289068 0.0
outer loop
vertex 0.776457135307565 2.8977774788672 0.0
vertex 0.0 3.0 4.2
vertex 0.776457135307565 2.8977774788672 4.2
endloop
endfacet
facet normal 0.866025403784438 -0.500000000000001 0.0
outer loop
vertex 2.59807621135332 -1.5 0.0
vertex 2.12132034355964 -2.12132034355964 4.2
vertex 2.12132034355964 -2.12132034355964 0.0
endloop
endfacet
facet normal 0.707106781186547 -0.707106781186548 0.0
outer loop
vertex 2.12132034355964 -2.12132034355964 4.2
vertex 2.59807621135332 -1.5 0.0
vertex 2.59807621135332 -1.5 4.2
endloop
endfacet
facet normal -0.5 -0.866025403784439 0.0
outer loop
vertex -1.5 -2.59807621135332 4.2
vertex -2.12132034355964 -2.12132034355964 0.0
vertex -1.5 -2.59807621135332 0.0
endloop
endfacet
facet normal -0.707106781186548 -0.707106781186547 0.0
outer loop
vertex -2.12132034355964 -2.12132034355964 0.0
vertex -1.5 -2.59807621135332 4.2
vertex -2.12132034355964 -2.12132034355964 4.2
endloop
endfacet
facet normal -0.866025403784439 0.5 0.0
outer loop
vertex -2.59807621135332 1.5 4.2
vertex -2.89777747886721 0.776457135307563 0.0
vertex -2.89777747886721 0.776457135307563 4.2
endloop
endfacet
facet normal -0.965925826289068 0.258819045102521 0.0
outer loop
vertex -2.89777747886721 0.776457135307563 0.0
vertex -2.59807621135332 1.5 4.2
vertex -2.59807621135332 1.5 0.0
endloop
endfacet
facet normal -0.707106781186547 0.707106781186548 0.0
outer loop
vertex -2.12132034355964 2.12132034355964 4.2
vertex -2.59807621135332 1.5 0.0
vertex -2.59807621135332 1.5 4.2
endloop
endfacet
facet normal -0.866025403784439 0.5 0.0
outer loop
vertex -2.59807621135332 1.5 0.0
vertex -2.12132034355964 2.12132034355964 4.2
vertex -2.12132034355964 2.12132034355964 0.0
endloop
endfacet
facet normal -0.707106781186547 0.707106781186548 0.0
outer loop
vertex -2.12132034355964 2.12132034355964 4.2
vertex -1.5 2.59807621135332 0.0
vertex -2.12132034355964 2.12132034355964 0.0
endloop
endfacet
facet normal -0.5 0.866025403784439 0.0
outer loop
vertex -1.5 2.59807621135332 0.0
vertex -2.12132034355964 2.12132034355964 4.2
vertex -1.5 2.59807621135332 4.2
endloop
endfacet
facet normal -0.866025403784439 -0.5 0.0
outer loop
vertex -2.59807621135332 -1.5 4.2
vertex -2.12132034355964 -2.12132034355964 0.0
vertex -2.12132034355964 -2.12132034355964 4.2
endloop
endfacet
facet normal -0.707106781186548 -0.707106781186547 0.0
outer loop
vertex -2.12132034355964 -2.12132034355964 0.0
vertex -2.59807621135332 -1.5 4.2
vertex -2.59807621135332 -1.5 0.0
endloop
endfacet
facet normal -0.5 0.866025403784439 0.0
outer loop
vertex -1.5 2.59807621135332 4.2
vertex -0.776457135307562 2.89777747886721 0.0
vertex -1.5 2.59807621135332 0.0
endloop
endfacet
facet normal -0.258819045102521 0.965925826289068 0.0
outer loop
vertex -0.776457135307562 2.89777747886721 0.0
vertex -1.5 2.59807621135332 4.2
vertex -0.776457135307562 2.89777747886721 4.2
endloop
endfacet
facet normal -0.707106781186548 -0.707106781186547 0.0
outer loop
vertex 1.06066017177982 1.06066017177982 4.2
vertex 1.29903810567666 0.75 0.0
vertex 1.29903810567666 0.75 4.2
endloop
endfacet
facet normal -0.866025403784439 -0.5 0.0
outer loop
vertex 1.29903810567666 0.75 0.0
vertex 1.06066017177982 1.06066017177982 4.2
vertex 1.06066017177982 1.06066017177982 0.0
endloop
endfacet
facet normal -0.707106781186548 -0.707106781186547 0.0
outer loop
vertex 1.06066017177982 1.06066017177982 4.2
vertex 0.75 1.29903810567666 0.0
vertex 1.06066017177982 1.06066017177982 0.0
endloop
endfacet
facet normal -0.5 -0.866025403784439 0.0
outer loop
vertex 0.75 1.29903810567666 0.0
vertex 1.06066017177982 1.06066017177982 4.2
vertex 0.75 1.29903810567666 4.2
endloop
endfacet
facet normal -0.5 -0.866025403784439 0.0
outer loop
vertex 0.75 1.29903810567666 4.2
vertex 0.388228567653781 1.4488887394336 0.0
vertex 0.75 1.29903810567666 0.0
endloop
endfacet
facet normal -0.258819045102521 -0.965925826289068 0.0
outer loop
vertex 0.388228567653781 1.4488887394336 0.0
vertex 0.75 1.29903810567666 4.2
vertex 0.388228567653781 1.4488887394336 4.2
endloop
endfacet
facet normal 0.707106781186547 -0.707106781186548 0.0
outer loop
vertex 2.12132034355964 -2.12132034355964 4.2
vertex 1.5 -2.59807621135332 0.0
vertex 2.12132034355964 -2.12132034355964 0.0
endloop
endfacet
facet normal 0.5 -0.866025403784439 0.0
outer loop
vertex 1.5 -2.59807621135332 0.0
vertex 2.12132034355964 -2.12132034355964 4.2
vertex 1.5 -2.59807621135332 4.2
endloop
endfacet
facet normal -0.866025403784439 -0.5 0.0
outer loop
vertex 1.29903810567666 0.75 4.2
vertex 1.4488887394336 0.388228567653781 0.0
vertex 1.4488887394336 0.388228567653781 4.2
endloop
endfacet
facet normal -0.965925826289068 -0.258819045102521 0.0
outer loop
vertex 1.4488887394336 0.388228567653781 0.0
vertex 1.29903810567666 0.75 4.2
vertex 1.29903810567666 0.75 0.0
endloop
endfacet
facet normal -0.965925826289068 -0.258819045102521 0.0
outer loop
vertex -2.89777747886721 -0.776457135307562 4.2
vertex -2.59807621135332 -1.5 0.0
vertex -2.59807621135332 -1.5 4.2
endloop
endfacet
facet normal -0.866025403784439 -0.5 0.0
outer loop
vertex -2.59807621135332 -1.5 0.0
vertex -2.89777747886721 -0.776457135307562 4.2
vertex -2.89777747886721 -0.776457135307562 0.0
endloop
endfacet
facet normal 0.5 -0.866025403784439 0.0
outer loop
vertex 1.5 -2.59807621135332 4.2
vertex 0.776457135307561 -2.89777747886721 0.0
vertex 1.5 -2.59807621135332 0.0
endloop
endfacet
facet normal 0.258819045102521 -0.965925826289068 0.0
outer loop
vertex 0.776457135307561 -2.89777747886721 0.0
vertex 1.5 -2.59807621135332 4.2
vertex 0.776457135307561 -2.89777747886721 4.2
endloop
endfacet
facet normal -0.965925826289068 -0.258819045102521 0.0
outer loop
vertex 1.4488887394336 0.388228567653781 4.2
vertex 1.5 0.0 0.0
vertex 1.5 0.0 4.2
endloop
endfacet
facet normal -1.0 2.40599967182466e-016 0.0
outer loop
vertex 1.5 0.0 0.0
vertex 1.4488887394336 0.388228567653781 4.2
vertex 1.4488887394336 0.388228567653781 0.0
endloop
endfacet
facet normal -0.258819045102521 -0.965925826289068 0.0
outer loop
vertex 0.388228567653781 1.4488887394336 4.2
vertex 0.0 1.5 0.0
vertex 0.388228567653781 1.4488887394336 0.0
endloop
endfacet
facet normal -1.69311088017291e-016 -1.0 0.0
outer loop
vertex 0.0 1.5 0.0
vertex 0.388228567653781 1.4488887394336 4.2
vertex 0.0 1.5 4.2
endloop
endfacet
facet normal -1.69311088017291e-016 -1.0 0.0
outer loop
vertex 0.0 1.5 4.2
vertex -0.388228567653781 1.4488887394336 0.0
vertex 0.0 1.5 0.0
endloop
endfacet
facet normal 0.258819045102521 -0.965925826289068 0.0
outer loop
vertex -0.388228567653781 1.4488887394336 0.0
vertex 0.0 1.5 4.2
vertex -0.388228567653781 1.4488887394336 4.2
endloop
endfacet
facet normal 0.5 0.866025403784439 0.0
outer loop
vertex 1.5 2.59807621135332 4.2
vertex 2.12132034355964 2.12132034355964 0.0
vertex 1.5 2.59807621135332 0.0
endloop
endfacet
facet normal 0.707106781186548 0.707106781186547 0.0
outer loop
vertex 2.12132034355964 2.12132034355964 0.0
vertex 1.5 2.59807621135332 4.2
vertex 2.12132034355964 2.12132034355964 4.2
endloop
endfacet
facet normal -9.80222088521159e-017 -1.0 0.0
outer loop
vertex -3.52495810318487e-016 -3.0 4.2
vertex -0.776457135307563 -2.8977774788672 0.0
vertex -3.52495810318487e-016 -3.0 0.0
endloop
endfacet
facet normal -0.258819045102521 -0.965925826289068 0.0
outer loop
vertex -0.776457135307563 -2.8977774788672 0.0
vertex -3.52495810318487e-016 -3.0 4.2
vertex -0.776457135307563 -2.8977774788672 4.2
endloop
endfacet
facet normal 0.258819045102521 0.965925826289068 0.0
outer loop
vertex 0.776457135307565 2.8977774788672 4.2
vertex 1.5 2.59807621135332 0.0
vertex 0.776457135307565 2.8977774788672 0.0
endloop
endfacet
facet normal 0.5 0.866025403784439 0.0
outer loop
vertex 1.5 2.59807621135332 0.0
vertex 0.776457135307565 2.8977774788672 4.2
vertex 1.5 2.59807621135332 4.2
endloop
endfacet
facet normal 2.22777747391173e-016 1.0 0.0
outer loop
vertex -3.52495810318487e-016 -1.5 4.2
vertex 0.388228567653781 -1.4488887394336 0.0
vertex -3.52495810318487e-016 -1.5 0.0
endloop
endfacet
facet normal -0.25881904510252 0.965925826289068 0.0
outer loop
vertex 0.388228567653781 -1.4488887394336 0.0
vertex -3.52495810318487e-016 -1.5 4.2
vertex 0.388228567653781 -1.4488887394336 4.2
endloop
endfacet
facet normal 0.866025403784439 0.5 0.0
outer loop
vertex -1.29903810567666 -0.75 0.0
vertex -1.06066017177982 -1.06066017177982 4.2
vertex -1.06066017177982 -1.06066017177982 0.0
endloop
endfacet
facet normal 0.707106781186548 0.707106781186547 0.0
outer loop
vertex -1.06066017177982 -1.06066017177982 4.2
vertex -1.29903810567666 -0.75 0.0
vertex -1.29903810567666 -0.75 4.2
endloop
endfacet
facet normal -0.25881904510252 0.965925826289068 0.0
outer loop
vertex 0.388228567653781 -1.4488887394336 4.2
vertex 0.749999999999999 -1.29903810567666 0.0
vertex 0.388228567653781 -1.4488887394336 0.0
endloop
endfacet
facet normal -0.5 0.866025403784439 0.0
outer loop
vertex 0.749999999999999 -1.29903810567666 0.0
vertex 0.388228567653781 -1.4488887394336 4.2
vertex 0.749999999999999 -1.29903810567666 4.2
endloop
endfacet
facet normal 0.707106781186547 -0.707106781186548 0.0
outer loop
vertex -1.06066017177982 1.06066017177982 0.0
vertex -1.29903810567666 0.75 4.2
vertex -1.29903810567666 0.75 0.0
endloop
endfacet
facet normal 0.866025403784439 -0.5 0.0
outer loop
vertex -1.29903810567666 0.75 4.2
vertex -1.06066017177982 1.06066017177982 0.0
vertex -1.06066017177982 1.06066017177982 4.2
endloop
endfacet
facet normal 0.866025403784439 -0.5 0.0
outer loop
vertex -1.29903810567666 0.75 0.0
vertex -1.4488887394336 0.388228567653782 4.2
vertex -1.4488887394336 0.388228567653782 0.0
endloop
endfacet
facet normal 0.965925826289068 -0.258819045102521 0.0
outer loop
vertex -1.4488887394336 0.388228567653782 4.2
vertex -1.29903810567666 0.75 0.0
vertex -1.29903810567666 0.75 4.2
endloop
endfacet
facet normal 0.965925826289068 -0.258819045102521 0.0
outer loop
vertex -1.4488887394336 0.388228567653782 0.0
vertex -1.5 3.52495810318487e-016 4.2
vertex -1.5 3.52495810318487e-016 0.0
endloop
endfacet
facet normal 1.0 -9.80222088521159e-017 0.0
outer loop
vertex -1.5 3.52495810318487e-016 4.2
vertex -1.4488887394336 0.388228567653782 0.0
vertex -1.4488887394336 0.388228567653782 4.2
endloop
endfacet
facet normal 0.258819045102521 -0.965925826289068 0.0
outer loop
vertex -0.388228567653781 1.4488887394336 4.2
vertex -0.75 1.29903810567666 0.0
vertex -0.388228567653781 1.4488887394336 0.0
endloop
endfacet
facet normal 0.5 -0.866025403784439 0.0
outer loop
vertex -0.75 1.29903810567666 0.0
vertex -0.388228567653781 1.4488887394336 4.2
vertex -0.75 1.29903810567666 4.2
endloop
endfacet
facet normal 0.5 -0.866025403784439 0.0
outer loop
vertex -0.75 1.29903810567666 4.2
vertex -1.06066017177982 1.06066017177982 0.0
vertex -0.75 1.29903810567666 0.0
endloop
endfacet
facet normal 0.707106781186547 -0.707106781186548 0.0
outer loop
vertex -1.06066017177982 1.06066017177982 0.0
vertex -0.75 1.29903810567666 4.2
vertex -1.06066017177982 1.06066017177982 4.2
endloop
endfacet
facet normal 1.0 -9.80222088521159e-017 0.0
outer loop
vertex -1.5 3.52495810318487e-016 0.0
vertex -1.4488887394336 -0.388228567653781 4.2
vertex -1.4488887394336 -0.388228567653781 0.0
endloop
endfacet
facet normal 0.965925826289068 0.258819045102521 0.0
outer loop
vertex -1.4488887394336 -0.388228567653781 4.2
vertex -1.5 3.52495810318487e-016 0.0
vertex -1.5 3.52495810318487e-016 4.2
endloop
endfacet
facet normal 0.707106781186548 0.707106781186547 0.0
outer loop
vertex -1.06066017177982 -1.06066017177982 4.2
vertex -0.750000000000001 -1.29903810567666 0.0
vertex -1.06066017177982 -1.06066017177982 0.0
endloop
endfacet
facet normal 0.500000000000001 0.866025403784438 0.0
outer loop
vertex -0.750000000000001 -1.29903810567666 0.0
vertex -1.06066017177982 -1.06066017177982 4.2
vertex -0.750000000000001 -1.29903810567666 4.2
endloop
endfacet
facet normal 0.500000000000001 0.866025403784438 0.0
outer loop
vertex -0.750000000000001 -1.29903810567666 4.2
vertex -0.388228567653782 -1.4488887394336 0.0
vertex -0.750000000000001 -1.29903810567666 0.0
endloop
endfacet
facet normal 0.258819045102521 0.965925826289068 0.0
outer loop
vertex -0.388228567653782 -1.4488887394336 0.0
vertex -0.750000000000001 -1.29903810567666 4.2
vertex -0.388228567653782 -1.4488887394336 4.2
endloop
endfacet
facet normal 0.965925826289068 0.258819045102521 0.0
outer loop
vertex -1.4488887394336 -0.388228567653781 0.0
vertex -1.29903810567666 -0.75 4.2
vertex -1.29903810567666 -0.75 0.0
endloop
endfacet
facet normal 0.866025403784439 0.5 0.0
outer loop
vertex -1.29903810567666 -0.75 4.2
vertex -1.4488887394336 -0.388228567653781 0.0
vertex -1.4488887394336 -0.388228567653781 4.2
endloop
endfacet
facet normal 0.258819045102521 0.965925826289068 0.0
outer loop
vertex -0.388228567653782 -1.4488887394336 4.2
vertex -3.52495810318487e-016 -1.5 0.0
vertex -0.388228567653782 -1.4488887394336 0.0
endloop
endfacet
facet normal 2.22777747391173e-016 1.0 0.0
outer loop
vertex -3.52495810318487e-016 -1.5 0.0
vertex -0.388228567653782 -1.4488887394336 4.2
vertex -3.52495810318487e-016 -1.5 4.2
endloop
endfacet
endsolid st-3mmx4,2mm
