solid model
facet normal 0.0 0.0 -1.0
outer loop
vertex -1.5 2.59807621135332 0.0
vertex -1.20740728286134 0.323523806378151 0.0
vertex -1.25 0.0 0.0
endloop
endfacet
facet normal 0.0 0.0 -1.0
outer loop
vertex -1.20740728286134 0.323523806378151 0.0
vertex -1.5 2.59807621135332 0.0
vertex -0.776457135307562 2.89777747886721 0.0
endloop
endfacet
facet normal 0.0 0.0 -1.0
outer loop
vertex -1.20740728286134 0.323523806378151 0.0
vertex -0.776457135307562 2.89777747886721 0.0
vertex -1.08253175473055 0.625 0.0
endloop
endfacet
facet normal 0.0 0.0 -1.0
outer loop
vertex -1.08253175473055 0.625 0.0
vertex -0.776457135307562 2.89777747886721 0.0
vertex -0.883883476483184 0.883883476483185 0.0
endloop
endfacet
facet normal 0.0 0.0 -1.0
outer loop
vertex -0.883883476483184 0.883883476483185 0.0
vertex -0.776457135307562 2.89777747886721 0.0
vertex -0.625 1.08253175473055 0.0
endloop
endfacet
facet normal 0.0 0.0 -1.0
outer loop
vertex -0.625 1.08253175473055 0.0
vertex -0.776457135307562 2.89777747886721 0.0
vertex 3.52495810318487e-016 3.0 0.0
endloop
endfacet
facet normal 0.0 0.0 -1.0
outer loop
vertex -0.625 1.08253175473055 0.0
vertex 3.52495810318487e-016 3.0 0.0
vertex -0.323523806378151 1.20740728286134 0.0
endloop
endfacet
facet normal 0.0 0.0 -1.0
outer loop
vertex -0.323523806378151 1.20740728286134 0.0
vertex 3.52495810318487e-016 3.0 0.0
vertex 0.0 1.25 0.0
endloop
endfacet
facet normal 0.0 0.0 -1.0
outer loop
vertex 0.0 1.25 0.0
vertex 3.52495810318487e-016 3.0 0.0
vertex 0.323523806378151 1.20740728286134 0.0
endloop
endfacet
facet normal 0.0 0.0 -1.0
outer loop
vertex 0.323523806378151 1.20740728286134 0.0
vertex 3.52495810318487e-016 3.0 0.0
vertex 0.776457135307563 2.89777747886721 0.0
endloop
endfacet
facet normal 0.0 0.0 -1.0
outer loop
vertex 0.323523806378151 1.20740728286134 0.0
vertex 0.776457135307563 2.89777747886721 0.0
vertex 0.625 1.08253175473055 0.0
endloop
endfacet
facet normal 0.0 0.0 -1.0
outer loop
vertex 0.625 1.08253175473055 0.0
vertex 0.776457135307563 2.89777747886721 0.0
vertex 0.883883476483184 0.883883476483185 0.0
endloop
endfacet
facet normal 0.0 0.0 -1.0
outer loop
vertex 0.883883476483184 0.883883476483185 0.0
vertex 0.776457135307563 2.89777747886721 0.0
vertex 1.5 2.59807621135332 0.0
endloop
endfacet
facet normal 0.0 0.0 -1.0
outer loop
vertex 0.883883476483184 0.883883476483185 0.0
vertex 1.5 2.59807621135332 0.0
vertex 1.08253175473055 0.625 0.0
endloop
endfacet
facet normal 0.0 0.0 -1.0
outer loop
vertex 1.08253175473055 0.625 0.0
vertex 1.5 2.59807621135332 0.0
vertex 1.20740728286134 0.323523806378151 0.0
endloop
endfacet
facet normal 0.0 0.0 -1.0
outer loop
vertex 1.20740728286134 0.323523806378151 0.0
vertex 1.5 2.59807621135332 0.0
vertex 1.25 0.0 0.0
endloop
endfacet
facet normal 0.0 0.0 -1.0
outer loop
vertex 1.25 0.0 0.0
vertex 1.5 2.59807621135332 0.0
vertex 1.5 -2.59807621135332 0.0
endloop
endfacet
facet normal 0.0 0.0 -1.0
outer loop
vertex 1.5 -2.59807621135332 0.0
vertex 1.5 2.59807621135332 0.0
vertex 2.12132034355964 -2.12132034355964 0.0
endloop
endfacet
facet normal 0.0 0.0 -1.0
outer loop
vertex 2.12132034355964 -2.12132034355964 0.0
vertex 1.5 2.59807621135332 0.0
vertex 2.12132034355964 2.12132034355964 0.0
endloop
endfacet
facet normal 0.0 0.0 -1.0
outer loop
vertex 2.12132034355964 -2.12132034355964 0.0
vertex 2.12132034355964 2.12132034355964 0.0
vertex 2.59807621135332 -1.5 0.0
endloop
endfacet
facet normal 0.0 0.0 -1.0
outer loop
vertex 2.59807621135332 -1.5 0.0
vertex 2.12132034355964 2.12132034355964 0.0
vertex 2.59807621135332 1.5 0.0
endloop
endfacet
facet normal 0.0 0.0 -1.0
outer loop
vertex 2.59807621135332 -1.5 0.0
vertex 2.59807621135332 1.5 0.0
vertex 2.8977774788672 -0.776457135307565 0.0
endloop
endfacet
facet normal 0.0 0.0 -1.0
outer loop
vertex 2.8977774788672 -0.776457135307565 0.0
vertex 2.59807621135332 1.5 0.0
vertex 2.89777747886721 0.776457135307562 0.0
endloop
endfacet
facet normal 0.0 0.0 -1.0
outer loop
vertex 2.8977774788672 -0.776457135307565 0.0
vertex 2.89777747886721 0.776457135307562 0.0
vertex 3.0 0.0 0.0
endloop
endfacet
facet normal 0.0 0.0 -1.0
outer loop
vertex -2.8977774788672 0.776457135307563 0.0
vertex -2.89777747886721 -0.776457135307561 0.0
vertex -3.0 3.52495810318487e-016 0.0
endloop
endfacet
facet normal 0.0 0.0 -1.0
outer loop
vertex -2.89777747886721 -0.776457135307561 0.0
vertex -2.8977774788672 0.776457135307563 0.0
vertex -2.59807621135332 -1.5 0.0
endloop
endfacet
facet normal 0.0 0.0 -1.0
outer loop
vertex -2.59807621135332 -1.5 0.0
vertex -2.8977774788672 0.776457135307563 0.0
vertex -2.59807621135332 1.5 0.0
endloop
endfacet
facet normal 0.0 0.0 -1.0
outer loop
vertex -2.59807621135332 -1.5 0.0
vertex -2.59807621135332 1.5 0.0
vertex -2.12132034355964 -2.12132034355964 0.0
endloop
endfacet
facet normal 0.0 0.0 -1.0
outer loop
vertex -2.12132034355964 -2.12132034355964 0.0
vertex -2.59807621135332 1.5 0.0
vertex -2.12132034355964 2.12132034355964 0.0
endloop
endfacet
facet normal 0.0 0.0 -1.0
outer loop
vertex -2.12132034355964 -2.12132034355964 0.0
vertex -2.12132034355964 2.12132034355964 0.0
vertex -1.5 -2.59807621135332 0.0
endloop
endfacet
facet normal 0.0 0.0 -1.0
outer loop
vertex -1.5 -2.59807621135332 0.0
vertex -2.12132034355964 2.12132034355964 0.0
vertex -1.5 2.59807621135332 0.0
endloop
endfacet
facet normal 0.0 0.0 -1.0
outer loop
vertex -1.5 -2.59807621135332 0.0
vertex -1.5 2.59807621135332 0.0
vertex -1.25 0.0 0.0
endloop
endfacet
facet normal 0.0 0.0 -1.0
outer loop
vertex -1.5 -2.59807621135332 0.0
vertex -1.25 0.0 0.0
vertex -1.20740728286134 -0.32352380637815 0.0
endloop
endfacet
facet normal 0.0 0.0 -1.0
outer loop
vertex -1.5 -2.59807621135332 0.0
vertex -1.20740728286134 -0.32352380637815 0.0
vertex -0.776457135307564 -2.8977774788672 0.0
endloop
endfacet
facet normal 0.0 0.0 -1.0
outer loop
vertex -0.776457135307564 -2.8977774788672 0.0
vertex -1.20740728286134 -0.32352380637815 0.0
vertex -1.08253175473055 -0.625 0.0
endloop
endfacet
facet normal 0.0 0.0 -1.0
outer loop
vertex -0.776457135307564 -2.8977774788672 0.0
vertex -1.08253175473055 -0.625 0.0
vertex -0.883883476483185 -0.883883476483184 0.0
endloop
endfacet
facet normal 0.0 0.0 -1.0
outer loop
vertex -0.776457135307564 -2.8977774788672 0.0
vertex -0.883883476483185 -0.883883476483184 0.0
vertex -0.625000000000001 -1.08253175473055 0.0
endloop
endfacet
facet normal 0.0 0.0 -1.0
outer loop
vertex -0.776457135307564 -2.8977774788672 0.0
vertex -0.625000000000001 -1.08253175473055 0.0
vertex -7.04991620636974e-016 -3.0 0.0
endloop
endfacet
facet normal 0.0 0.0 -1.0
outer loop
vertex -7.04991620636974e-016 -3.0 0.0
vertex -0.625000000000001 -1.08253175473055 0.0
vertex -0.323523806378152 -1.20740728286134 0.0
endloop
endfacet
facet normal 0.0 0.0 -1.0
outer loop
vertex -7.04991620636974e-016 -3.0 0.0
vertex -0.323523806378152 -1.20740728286134 0.0
vertex -3.52495810318487e-016 -1.25 0.0
endloop
endfacet
facet normal 0.0 0.0 -1.0
outer loop
vertex -7.04991620636974e-016 -3.0 0.0
vertex -3.52495810318487e-016 -1.25 0.0
vertex 0.776457135307561 -2.89777747886721 0.0
endloop
endfacet
facet normal 0.0 0.0 -1.0
outer loop
vertex 0.776457135307561 -2.89777747886721 0.0
vertex -3.52495810318487e-016 -1.25 0.0
vertex 0.32352380637815 -1.20740728286134 0.0
endloop
endfacet
facet normal 0.0 0.0 -1.0
outer loop
vertex 0.776457135307561 -2.89777747886721 0.0
vertex 0.32352380637815 -1.20740728286134 0.0
vertex 0.624999999999999 -1.08253175473055 0.0
endloop
endfacet
facet normal 0.0 0.0 -1.0
outer loop
vertex 0.776457135307561 -2.89777747886721 0.0
vertex 0.624999999999999 -1.08253175473055 0.0
vertex 0.883883476483184 -0.883883476483185 0.0
endloop
endfacet
facet normal 0.0 0.0 -1.0
outer loop
vertex 0.776457135307561 -2.89777747886721 0.0
vertex 0.883883476483184 -0.883883476483185 0.0
vertex 1.5 -2.59807621135332 0.0
endloop
endfacet
facet normal 0.0 0.0 -1.0
outer loop
vertex 1.5 -2.59807621135332 0.0
vertex 0.883883476483184 -0.883883476483185 0.0
vertex 1.08253175473055 -0.625000000000001 0.0
endloop
endfacet
facet normal 0.0 0.0 -1.0
outer loop
vertex 1.5 -2.59807621135332 0.0
vertex 1.08253175473055 -0.625000000000001 0.0
vertex 1.20740728286133 -0.323523806378152 0.0
endloop
endfacet
facet normal 0.0 0.0 -1.0
outer loop
vertex 1.5 -2.59807621135332 0.0
vertex 1.20740728286133 -0.323523806378152 0.0
vertex 1.25 0.0 0.0
endloop
endfacet
facet normal 0.5 0.866025403784439 0.0
outer loop
vertex 1.5 2.59807621135332 10.1
vertex 2.12132034355964 2.12132034355964 0.0
vertex 1.5 2.59807621135332 0.0
endloop
endfacet
facet normal 0.707106781186548 0.707106781186547 0.0
outer loop
vertex 2.12132034355964 2.12132034355964 0.0
vertex 1.5 2.59807621135332 10.1
vertex 2.12132034355964 2.12132034355964 10.1
endloop
endfacet
facet normal -0.258819045102521 -0.965925826289068 0.0
outer loop
vertex -0.776457135307564 -2.8977774788672 10.1
vertex -1.5 -2.59807621135332 0.0
vertex -0.776457135307564 -2.8977774788672 0.0
endloop
endfacet
facet normal -0.500000000000001 -0.866025403784438 0.0
outer loop
vertex -1.5 -2.59807621135332 0.0
vertex -0.776457135307564 -2.8977774788672 10.1
vertex -1.5 -2.59807621135332 10.1
endloop
endfacet
facet normal 0.965925826289068 -0.258819045102521 0.0
outer loop
vertex 2.8977774788672 -0.776457135307565 0.0
vertex 2.59807621135332 -1.5 10.1
vertex 2.59807621135332 -1.5 0.0
endloop
endfacet
facet normal 0.866025403784439 -0.5 0.0
outer loop
vertex 2.59807621135332 -1.5 10.1
vertex 2.8977774788672 -0.776457135307565 0.0
vertex 2.8977774788672 -0.776457135307565 10.1
endloop
endfacet
facet normal 1.0 -2.40599967182466e-016 0.0
outer loop
vertex 3.0 0.0 0.0
vertex 2.8977774788672 -0.776457135307565 10.1
vertex 2.8977774788672 -0.776457135307565 0.0
endloop
endfacet
facet normal 0.965925826289068 -0.258819045102521 0.0
outer loop
vertex 2.8977774788672 -0.776457135307565 10.1
vertex 3.0 0.0 0.0
vertex 3.0 0.0 10.1
endloop
endfacet
facet normal -0.500000000000001 -0.866025403784438 0.0
outer loop
vertex -1.5 -2.59807621135332 10.1
vertex -2.12132034355964 -2.12132034355964 0.0
vertex -1.5 -2.59807621135332 0.0
endloop
endfacet
facet normal -0.707106781186548 -0.707106781186547 0.0
outer loop
vertex -2.12132034355964 -2.12132034355964 0.0
vertex -1.5 -2.59807621135332 10.1
vertex -2.12132034355964 -2.12132034355964 10.1
endloop
endfacet
facet normal 0.25881904510252 -0.965925826289068 0.0
outer loop
vertex 0.776457135307561 -2.89777747886721 10.1
vertex -7.04991620636974e-016 -3.0 0.0
vertex 0.776457135307561 -2.89777747886721 0.0
endloop
endfacet
facet normal -2.22777747391173e-016 -1.0 0.0
outer loop
vertex -7.04991620636974e-016 -3.0 0.0
vertex 0.776457135307561 -2.89777747886721 10.1
vertex -7.04991620636974e-016 -3.0 10.1
endloop
endfacet
facet normal -0.965925826289068 -0.258819045102521 0.0
outer loop
vertex -2.89777747886721 -0.776457135307561 10.1
vertex -2.59807621135332 -1.5 0.0
vertex -2.59807621135332 -1.5 10.1
endloop
endfacet
facet normal -0.866025403784439 -0.5 0.0
outer loop
vertex -2.59807621135332 -1.5 0.0
vertex -2.89777747886721 -0.776457135307561 10.1
vertex -2.89777747886721 -0.776457135307561 0.0
endloop
endfacet
facet normal -1.0 9.80222088521159e-017 0.0
outer loop
vertex -3.0 3.52495810318487e-016 10.1
vertex -2.89777747886721 -0.776457135307561 0.0
vertex -2.89777747886721 -0.776457135307561 10.1
endloop
endfacet
facet normal -0.965925826289068 -0.258819045102521 0.0
outer loop
vertex -2.89777747886721 -0.776457135307561 0.0
vertex -3.0 3.52495810318487e-016 10.1
vertex -3.0 3.52495810318487e-016 0.0
endloop
endfacet
facet normal -0.866025403784439 0.5 0.0
outer loop
vertex -2.59807621135332 1.5 10.1
vertex -2.8977774788672 0.776457135307563 0.0
vertex -2.8977774788672 0.776457135307563 10.1
endloop
endfacet
facet normal -0.965925826289068 0.258819045102521 0.0
outer loop
vertex -2.8977774788672 0.776457135307563 0.0
vertex -2.59807621135332 1.5 10.1
vertex -2.59807621135332 1.5 0.0
endloop
endfacet
facet normal -0.866025403784439 -0.5 0.0
outer loop
vertex -2.59807621135332 -1.5 10.1
vertex -2.12132034355964 -2.12132034355964 0.0
vertex -2.12132034355964 -2.12132034355964 10.1
endloop
endfacet
facet normal -0.707106781186548 -0.707106781186547 0.0
outer loop
vertex -2.12132034355964 -2.12132034355964 0.0
vertex -2.59807621135332 -1.5 10.1
vertex -2.59807621135332 -1.5 0.0
endloop
endfacet
facet normal -0.5 0.866025403784439 0.0
outer loop
vertex -1.5 2.59807621135332 10.1
vertex -0.776457135307562 2.89777747886721 0.0
vertex -1.5 2.59807621135332 0.0
endloop
endfacet
facet normal -0.258819045102521 0.965925826289068 0.0
outer loop
vertex -0.776457135307562 2.89777747886721 0.0
vertex -1.5 2.59807621135332 10.1
vertex -0.776457135307562 2.89777747886721 10.1
endloop
endfacet
facet normal -2.22777747391173e-016 -1.0 0.0
outer loop
vertex -7.04991620636974e-016 -3.0 10.1
vertex -0.776457135307564 -2.8977774788672 0.0
vertex -7.04991620636974e-016 -3.0 0.0
endloop
endfacet
facet normal -0.258819045102521 -0.965925826289068 0.0
outer loop
vertex -0.776457135307564 -2.8977774788672 0.0
vertex -7.04991620636974e-016 -3.0 10.1
vertex -0.776457135307564 -2.8977774788672 10.1
endloop
endfacet
facet normal 0.0 0.0 1.0
outer loop
vertex -2.89777747886721 -0.776457135307561 10.1
vertex -2.8977774788672 0.776457135307563 10.1
vertex -3.0 3.52495810318487e-016 10.1
endloop
endfacet
facet normal 0.0 0.0 1.0
outer loop
vertex -2.8977774788672 0.776457135307563 10.1
vertex -2.89777747886721 -0.776457135307561 10.1
vertex -2.59807621135332 -1.5 10.1
endloop
endfacet
facet normal 0.0 0.0 1.0
outer loop
vertex -2.8977774788672 0.776457135307563 10.1
vertex -2.59807621135332 -1.5 10.1
vertex -2.59807621135332 1.5 10.1
endloop
endfacet
facet normal 0.0 0.0 1.0
outer loop
vertex -2.59807621135332 1.5 10.1
vertex -2.59807621135332 -1.5 10.1
vertex -2.12132034355964 -2.12132034355964 10.1
endloop
endfacet
facet normal 0.0 0.0 1.0
outer loop
vertex -2.59807621135332 1.5 10.1
vertex -2.12132034355964 -2.12132034355964 10.1
vertex -2.12132034355964 2.12132034355964 10.1
endloop
endfacet
facet normal 0.0 0.0 1.0
outer loop
vertex -2.12132034355964 2.12132034355964 10.1
vertex -2.12132034355964 -2.12132034355964 10.1
vertex -1.5 -2.59807621135332 10.1
endloop
endfacet
facet normal 0.0 0.0 1.0
outer loop
vertex -2.12132034355964 2.12132034355964 10.1
vertex -1.5 -2.59807621135332 10.1
vertex -1.5 2.59807621135332 10.1
endloop
endfacet
facet normal 0.0 0.0 1.0
outer loop
vertex -1.5 2.59807621135332 10.1
vertex -1.5 -2.59807621135332 10.1
vertex -1.25 0.0 10.1
endloop
endfacet
facet normal 0.0 0.0 1.0
outer loop
vertex -1.25 0.0 10.1
vertex -1.5 -2.59807621135332 10.1
vertex -1.20740728286134 -0.32352380637815 10.1
endloop
endfacet
facet normal 0.0 0.0 1.0
outer loop
vertex -1.20740728286134 -0.32352380637815 10.1
vertex -1.5 -2.59807621135332 10.1
vertex -0.776457135307564 -2.8977774788672 10.1
endloop
endfacet
facet normal 0.0 0.0 1.0
outer loop
vertex -1.20740728286134 -0.32352380637815 10.1
vertex -0.776457135307564 -2.8977774788672 10.1
vertex -1.08253175473055 -0.625 10.1
endloop
endfacet
facet normal 0.0 0.0 1.0
outer loop
vertex -1.08253175473055 -0.625 10.1
vertex -0.776457135307564 -2.8977774788672 10.1
vertex -0.883883476483185 -0.883883476483184 10.1
endloop
endfacet
facet normal 0.0 0.0 1.0
outer loop
vertex -0.883883476483185 -0.883883476483184 10.1
vertex -0.776457135307564 -2.8977774788672 10.1
vertex -0.625000000000001 -1.08253175473055 10.1
endloop
endfacet
facet normal 0.0 0.0 1.0
outer loop
vertex -0.625000000000001 -1.08253175473055 10.1
vertex -0.776457135307564 -2.8977774788672 10.1
vertex -7.04991620636974e-016 -3.0 10.1
endloop
endfacet
facet normal 0.0 0.0 1.0
outer loop
vertex -0.625000000000001 -1.08253175473055 10.1
vertex -7.04991620636974e-016 -3.0 10.1
vertex -0.323523806378152 -1.20740728286134 10.1
endloop
endfacet
facet normal 0.0 0.0 1.0
outer loop
vertex -0.323523806378152 -1.20740728286134 10.1
vertex -7.04991620636974e-016 -3.0 10.1
vertex -3.52495810318487e-016 -1.25 10.1
endloop
endfacet
facet normal 0.0 0.0 1.0
outer loop
vertex -3.52495810318487e-016 -1.25 10.1
vertex -7.04991620636974e-016 -3.0 10.1
vertex 0.776457135307561 -2.89777747886721 10.1
endloop
endfacet
facet normal 0.0 0.0 1.0
outer loop
vertex -3.52495810318487e-016 -1.25 10.1
vertex 0.776457135307561 -2.89777747886721 10.1
vertex 0.32352380637815 -1.20740728286134 10.1
endloop
endfacet
facet normal 0.0 0.0 1.0
outer loop
vertex 0.32352380637815 -1.20740728286134 10.1
vertex 0.776457135307561 -2.89777747886721 10.1
vertex 0.624999999999999 -1.08253175473055 10.1
endloop
endfacet
facet normal 0.0 0.0 1.0
outer loop
vertex 0.624999999999999 -1.08253175473055 10.1
vertex 0.776457135307561 -2.89777747886721 10.1
vertex 0.883883476483184 -0.883883476483185 10.1
endloop
endfacet
facet normal 0.0 0.0 1.0
outer loop
vertex 0.883883476483184 -0.883883476483185 10.1
vertex 0.776457135307561 -2.89777747886721 10.1
vertex 1.5 -2.59807621135332 10.1
endloop
endfacet
facet normal 0.0 0.0 1.0
outer loop
vertex 0.883883476483184 -0.883883476483185 10.1
vertex 1.5 -2.59807621135332 10.1
vertex 1.08253175473055 -0.625000000000001 10.1
endloop
endfacet
facet normal 0.0 0.0 1.0
outer loop
vertex 1.08253175473055 -0.625000000000001 10.1
vertex 1.5 -2.59807621135332 10.1
vertex 1.20740728286133 -0.323523806378152 10.1
endloop
endfacet
facet normal 0.0 0.0 1.0
outer loop
vertex 1.20740728286133 -0.323523806378152 10.1
vertex 1.5 -2.59807621135332 10.1
vertex 1.25 0.0 10.1
endloop
endfacet
facet normal 0.0 0.0 1.0
outer loop
vertex -1.5 2.59807621135332 10.1
vertex -1.20740728286134 0.323523806378151 10.1
vertex -0.776457135307562 2.89777747886721 10.1
endloop
endfacet
facet normal 0.0 0.0 1.0
outer loop
vertex -1.20740728286134 0.323523806378151 10.1
vertex -1.5 2.59807621135332 10.1
vertex -1.25 0.0 10.1
endloop
endfacet
facet normal 0.0 0.0 1.0
outer loop
vertex -0.776457135307562 2.89777747886721 10.1
vertex -1.20740728286134 0.323523806378151 10.1
vertex -1.08253175473055 0.625 10.1
endloop
endfacet
facet normal 0.0 0.0 1.0
outer loop
vertex -0.776457135307562 2.89777747886721 10.1
vertex -1.08253175473055 0.625 10.1
vertex -0.883883476483184 0.883883476483185 10.1
endloop
endfacet
facet normal 0.0 0.0 1.0
outer loop
vertex -0.776457135307562 2.89777747886721 10.1
vertex -0.883883476483184 0.883883476483185 10.1
vertex -0.625 1.08253175473055 10.1
endloop
endfacet
facet normal 0.0 0.0 1.0
outer loop
vertex -0.776457135307562 2.89777747886721 10.1
vertex -0.625 1.08253175473055 10.1
vertex 3.52495810318487e-016 3.0 10.1
endloop
endfacet
facet normal 0.0 0.0 1.0
outer loop
vertex 3.52495810318487e-016 3.0 10.1
vertex -0.625 1.08253175473055 10.1
vertex -0.323523806378151 1.20740728286134 10.1
endloop
endfacet
facet normal 0.0 0.0 1.0
outer loop
vertex 3.52495810318487e-016 3.0 10.1
vertex -0.323523806378151 1.20740728286134 10.1
vertex 0.0 1.25 10.1
endloop
endfacet
facet normal 0.0 0.0 1.0
outer loop
vertex 3.52495810318487e-016 3.0 10.1
vertex 0.0 1.25 10.1
vertex 0.323523806378151 1.20740728286134 10.1
endloop
endfacet
facet normal 0.0 0.0 1.0
outer loop
vertex 3.52495810318487e-016 3.0 10.1
vertex 0.323523806378151 1.20740728286134 10.1
vertex 0.776457135307563 2.89777747886721 10.1
endloop
endfacet
facet normal 0.0 0.0 1.0
outer loop
vertex 0.776457135307563 2.89777747886721 10.1
vertex 0.323523806378151 1.20740728286134 10.1
vertex 0.625 1.08253175473055 10.1
endloop
endfacet
facet normal 0.0 0.0 1.0
outer loop
vertex 0.776457135307563 2.89777747886721 10.1
vertex 0.625 1.08253175473055 10.1
vertex 0.883883476483184 0.883883476483185 10.1
endloop
endfacet
facet normal 0.0 0.0 1.0
outer loop
vertex 0.776457135307563 2.89777747886721 10.1
vertex 0.883883476483184 0.883883476483185 10.1
vertex 1.5 2.59807621135332 10.1
endloop
endfacet
facet normal 0.0 0.0 1.0
outer loop
vertex 1.5 2.59807621135332 10.1
vertex 0.883883476483184 0.883883476483185 10.1
vertex 1.08253175473055 0.625 10.1
endloop
endfacet
facet normal 0.0 0.0 1.0
outer loop
vertex 1.5 2.59807621135332 10.1
vertex 1.08253175473055 0.625 10.1
vertex 1.20740728286134 0.323523806378151 10.1
endloop
endfacet
facet normal 0.0 0.0 1.0
outer loop
vertex 1.5 2.59807621135332 10.1
vertex 1.20740728286134 0.323523806378151 10.1
vertex 1.25 0.0 10.1
endloop
endfacet
facet normal 0.0 0.0 1.0
outer loop
vertex 1.5 2.59807621135332 10.1
vertex 1.25 0.0 10.1
vertex 1.5 -2.59807621135332 10.1
endloop
endfacet
facet normal 0.0 0.0 1.0
outer loop
vertex 1.5 2.59807621135332 10.1
vertex 1.5 -2.59807621135332 10.1
vertex 2.12132034355964 -2.12132034355964 10.1
endloop
endfacet
facet normal 0.0 0.0 1.0
outer loop
vertex 1.5 2.59807621135332 10.1
vertex 2.12132034355964 -2.12132034355964 10.1
vertex 2.12132034355964 2.12132034355964 10.1
endloop
endfacet
facet normal 0.0 0.0 1.0
outer loop
vertex 2.12132034355964 2.12132034355964 10.1
vertex 2.12132034355964 -2.12132034355964 10.1
vertex 2.59807621135332 -1.5 10.1
endloop
endfacet
facet normal 0.0 0.0 1.0
outer loop
vertex 2.12132034355964 2.12132034355964 10.1
vertex 2.59807621135332 -1.5 10.1
vertex 2.59807621135332 1.5 10.1
endloop
endfacet
facet normal 0.0 0.0 1.0
outer loop
vertex 2.59807621135332 1.5 10.1
vertex 2.59807621135332 -1.5 10.1
vertex 2.8977774788672 -0.776457135307565 10.1
endloop
endfacet
facet normal 0.0 0.0 1.0
outer loop
vertex 2.59807621135332 1.5 10.1
vertex 2.8977774788672 -0.776457135307565 10.1
vertex 2.89777747886721 0.776457135307562 10.1
endloop
endfacet
facet normal 0.0 0.0 1.0
outer loop
vertex 2.89777747886721 0.776457135307562 10.1
vertex 2.8977774788672 -0.776457135307565 10.1
vertex 3.0 0.0 10.1
endloop
endfacet
facet normal 0.707106781186547 -0.707106781186548 0.0
outer loop
vertex 2.12132034355964 -2.12132034355964 10.1
vertex 1.5 -2.59807621135332 0.0
vertex 2.12132034355964 -2.12132034355964 0.0
endloop
endfacet
facet normal 0.5 -0.866025403784439 0.0
outer loop
vertex 1.5 -2.59807621135332 0.0
vertex 2.12132034355964 -2.12132034355964 10.1
vertex 1.5 -2.59807621135332 10.1
endloop
endfacet
facet normal -0.965925826289068 0.258819045102521 0.0
outer loop
vertex -2.8977774788672 0.776457135307563 10.1
vertex -3.0 3.52495810318487e-016 0.0
vertex -3.0 3.52495810318487e-016 10.1
endloop
endfacet
facet normal -1.0 9.80222088521159e-017 0.0
outer loop
vertex -3.0 3.52495810318487e-016 0.0
vertex -2.8977774788672 0.776457135307563 10.1
vertex -2.8977774788672 0.776457135307563 0.0
endloop
endfacet
facet normal -0.707106781186547 0.707106781186548 0.0
outer loop
vertex -2.12132034355964 2.12132034355964 10.1
vertex -2.59807621135332 1.5 0.0
vertex -2.59807621135332 1.5 10.1
endloop
endfacet
facet normal -0.866025403784439 0.5 0.0
outer loop
vertex -2.59807621135332 1.5 0.0
vertex -2.12132034355964 2.12132034355964 10.1
vertex -2.12132034355964 2.12132034355964 0.0
endloop
endfacet
facet normal -0.707106781186547 0.707106781186548 0.0
outer loop
vertex -2.12132034355964 2.12132034355964 10.1
vertex -1.5 2.59807621135332 0.0
vertex -2.12132034355964 2.12132034355964 0.0
endloop
endfacet
facet normal -0.5 0.866025403784439 0.0
outer loop
vertex -1.5 2.59807621135332 0.0
vertex -2.12132034355964 2.12132034355964 10.1
vertex -1.5 2.59807621135332 10.1
endloop
endfacet
facet normal -0.258819045102521 0.965925826289068 0.0
outer loop
vertex -0.776457135307562 2.89777747886721 10.1
vertex 3.52495810318487e-016 3.0 0.0
vertex -0.776457135307562 2.89777747886721 0.0
endloop
endfacet
facet normal 1.69311088017291e-016 1.0 0.0
outer loop
vertex 3.52495810318487e-016 3.0 0.0
vertex -0.776457135307562 2.89777747886721 10.1
vertex 3.52495810318487e-016 3.0 10.1
endloop
endfacet
facet normal 1.69311088017291e-016 1.0 0.0
outer loop
vertex 3.52495810318487e-016 3.0 10.1
vertex 0.776457135307563 2.89777747886721 0.0
vertex 3.52495810318487e-016 3.0 0.0
endloop
endfacet
facet normal 0.258819045102521 0.965925826289068 0.0
outer loop
vertex 0.776457135307563 2.89777747886721 0.0
vertex 3.52495810318487e-016 3.0 10.1
vertex 0.776457135307563 2.89777747886721 10.1
endloop
endfacet
facet normal 0.866025403784439 -0.5 0.0
outer loop
vertex 2.59807621135332 -1.5 0.0
vertex 2.12132034355964 -2.12132034355964 10.1
vertex 2.12132034355964 -2.12132034355964 0.0
endloop
endfacet
facet normal 0.707106781186547 -0.707106781186548 0.0
outer loop
vertex 2.12132034355964 -2.12132034355964 10.1
vertex 2.59807621135332 -1.5 0.0
vertex 2.59807621135332 -1.5 10.1
endloop
endfacet
facet normal 0.5 -0.866025403784439 0.0
outer loop
vertex 1.5 -2.59807621135332 10.1
vertex 0.776457135307561 -2.89777747886721 0.0
vertex 1.5 -2.59807621135332 0.0
endloop
endfacet
facet normal 0.25881904510252 -0.965925826289068 0.0
outer loop
vertex 0.776457135307561 -2.89777747886721 0.0
vertex 1.5 -2.59807621135332 10.1
vertex 0.776457135307561 -2.89777747886721 10.1
endloop
endfacet
facet normal 0.258819045102521 0.965925826289068 0.0
outer loop
vertex 0.776457135307563 2.89777747886721 10.1
vertex 1.5 2.59807621135332 0.0
vertex 0.776457135307563 2.89777747886721 0.0
endloop
endfacet
facet normal 0.5 0.866025403784439 0.0
outer loop
vertex 1.5 2.59807621135332 0.0
vertex 0.776457135307563 2.89777747886721 10.1
vertex 1.5 2.59807621135332 10.1
endloop
endfacet
facet normal 0.965925826289068 -0.258819045102521 0.0
outer loop
vertex -1.20740728286134 0.323523806378151 0.0
vertex -1.25 0.0 10.1
vertex -1.25 0.0 0.0
endloop
endfacet
facet normal 1.0 -1.51488868225997e-016 0.0
outer loop
vertex -1.25 0.0 10.1
vertex -1.20740728286134 0.323523806378151 0.0
vertex -1.20740728286134 0.323523806378151 10.1
endloop
endfacet
facet normal 0.707106781186548 0.707106781186547 0.0
outer loop
vertex 2.12132034355964 2.12132034355964 0.0
vertex 2.59807621135332 1.5 10.1
vertex 2.59807621135332 1.5 0.0
endloop
endfacet
facet normal 0.866025403784439 0.5 0.0
outer loop
vertex 2.59807621135332 1.5 10.1
vertex 2.12132034355964 2.12132034355964 0.0
vertex 2.12132034355964 2.12132034355964 10.1
endloop
endfacet
facet normal 0.5 -0.866025403784439 0.0
outer loop
vertex -0.625 1.08253175473055 10.1
vertex -0.883883476483184 0.883883476483185 0.0
vertex -0.625 1.08253175473055 0.0
endloop
endfacet
facet normal 0.707106781186547 -0.707106781186548 0.0
outer loop
vertex -0.883883476483184 0.883883476483185 0.0
vertex -0.625 1.08253175473055 10.1
vertex -0.883883476483184 0.883883476483185 10.1
endloop
endfacet
facet normal 0.866025403784439 0.5 0.0
outer loop
vertex 2.59807621135332 1.5 0.0
vertex 2.89777747886721 0.776457135307562 10.1
vertex 2.89777747886721 0.776457135307562 0.0
endloop
endfacet
facet normal 0.965925826289068 0.258819045102521 0.0
outer loop
vertex 2.89777747886721 0.776457135307562 10.1
vertex 2.59807621135332 1.5 0.0
vertex 2.59807621135332 1.5 10.1
endloop
endfacet
facet normal 0.866025403784439 0.5 0.0
outer loop
vertex -1.08253175473055 -0.625 0.0
vertex -0.883883476483185 -0.883883476483184 10.1
vertex -0.883883476483185 -0.883883476483184 0.0
endloop
endfacet
facet normal 0.707106781186548 0.707106781186547 0.0
outer loop
vertex -0.883883476483185 -0.883883476483184 10.1
vertex -1.08253175473055 -0.625 0.0
vertex -1.08253175473055 -0.625 10.1
endloop
endfacet
facet normal -0.5 0.866025403784439 0.0
outer loop
vertex 0.624999999999999 -1.08253175473055 10.1
vertex 0.883883476483184 -0.883883476483185 0.0
vertex 0.624999999999999 -1.08253175473055 0.0
endloop
endfacet
facet normal -0.707106781186547 0.707106781186548 0.0
outer loop
vertex 0.883883476483184 -0.883883476483185 0.0
vertex 0.624999999999999 -1.08253175473055 10.1
vertex 0.883883476483184 -0.883883476483185 10.1
endloop
endfacet
facet normal 0.866025403784439 -0.5 0.0
outer loop
vertex -1.08253175473055 0.625 0.0
vertex -1.20740728286134 0.323523806378151 10.1
vertex -1.20740728286134 0.323523806378151 0.0
endloop
endfacet
facet normal 0.965925826289068 -0.258819045102521 0.0
outer loop
vertex -1.20740728286134 0.323523806378151 10.1
vertex -1.08253175473055 0.625 0.0
vertex -1.08253175473055 0.625 10.1
endloop
endfacet
facet normal 0.965925826289068 0.25881904510252 0.0
outer loop
vertex -1.20740728286134 -0.32352380637815 0.0
vertex -1.08253175473055 -0.625 10.1
vertex -1.08253175473055 -0.625 0.0
endloop
endfacet
facet normal 0.866025403784439 0.5 0.0
outer loop
vertex -1.08253175473055 -0.625 10.1
vertex -1.20740728286134 -0.32352380637815 0.0
vertex -1.20740728286134 -0.32352380637815 10.1
endloop
endfacet
facet normal -0.866025403784438 0.500000000000001 0.0
outer loop
vertex 1.08253175473055 -0.625000000000001 10.1
vertex 0.883883476483184 -0.883883476483185 0.0
vertex 0.883883476483184 -0.883883476483185 10.1
endloop
endfacet
facet normal -0.707106781186547 0.707106781186548 0.0
outer loop
vertex 0.883883476483184 -0.883883476483185 0.0
vertex 1.08253175473055 -0.625000000000001 10.1
vertex 1.08253175473055 -0.625000000000001 0.0
endloop
endfacet
facet normal 3.20799956243289e-016 1.0 0.0
outer loop
vertex -3.52495810318487e-016 -1.25 10.1
vertex 0.32352380637815 -1.20740728286134 0.0
vertex -3.52495810318487e-016 -1.25 0.0
endloop
endfacet
facet normal -0.25881904510252 0.965925826289068 0.0
outer loop
vertex 0.32352380637815 -1.20740728286134 0.0
vertex -3.52495810318487e-016 -1.25 10.1
vertex 0.32352380637815 -1.20740728286134 10.1
endloop
endfacet
facet normal -1.0 7.12888791651753e-017 0.0
outer loop
vertex 1.25 0.0 10.1
vertex 1.20740728286133 -0.323523806378152 0.0
vertex 1.20740728286133 -0.323523806378152 10.1
endloop
endfacet
facet normal -0.965925826289068 0.258819045102521 0.0
outer loop
vertex 1.20740728286133 -0.323523806378152 0.0
vertex 1.25 0.0 10.1
vertex 1.25 0.0 0.0
endloop
endfacet
facet normal -0.965925826289068 -0.258819045102521 0.0
outer loop
vertex 1.20740728286134 0.323523806378151 10.1
vertex 1.25 0.0 0.0
vertex 1.25 0.0 10.1
endloop
endfacet
facet normal -1.0 7.12888791651753e-017 0.0
outer loop
vertex 1.25 0.0 0.0
vertex 1.20740728286134 0.323523806378151 10.1
vertex 1.20740728286134 0.323523806378151 0.0
endloop
endfacet
facet normal 0.707106781186547 -0.707106781186548 0.0
outer loop
vertex -0.883883476483184 0.883883476483185 0.0
vertex -1.08253175473055 0.625 10.1
vertex -1.08253175473055 0.625 0.0
endloop
endfacet
facet normal 0.866025403784439 -0.5 0.0
outer loop
vertex -1.08253175473055 0.625 10.1
vertex -0.883883476483184 0.883883476483185 0.0
vertex -0.883883476483184 0.883883476483185 10.1
endloop
endfacet
facet normal 1.0 -1.51488868225997e-016 0.0
outer loop
vertex -1.25 0.0 0.0
vertex -1.20740728286134 -0.32352380637815 10.1
vertex -1.20740728286134 -0.32352380637815 0.0
endloop
endfacet
facet normal 0.965925826289068 0.25881904510252 0.0
outer loop
vertex -1.20740728286134 -0.32352380637815 10.1
vertex -1.25 0.0 0.0
vertex -1.25 0.0 10.1
endloop
endfacet
facet normal -0.965925826289068 0.258819045102521 0.0
outer loop
vertex 1.20740728286133 -0.323523806378152 10.1
vertex 1.08253175473055 -0.625000000000001 0.0
vertex 1.08253175473055 -0.625000000000001 10.1
endloop
endfacet
facet normal -0.866025403784438 0.500000000000001 0.0
outer loop
vertex 1.08253175473055 -0.625000000000001 0.0
vertex 1.20740728286133 -0.323523806378152 10.1
vertex 1.20740728286133 -0.323523806378152 0.0
endloop
endfacet
facet normal -0.25881904510252 0.965925826289068 0.0
outer loop
vertex 0.32352380637815 -1.20740728286134 10.1
vertex 0.624999999999999 -1.08253175473055 0.0
vertex 0.32352380637815 -1.20740728286134 0.0
endloop
endfacet
facet normal -0.5 0.866025403784439 0.0
outer loop
vertex 0.624999999999999 -1.08253175473055 0.0
vertex 0.32352380637815 -1.20740728286134 10.1
vertex 0.624999999999999 -1.08253175473055 10.1
endloop
endfacet
facet normal -0.707106781186548 -0.707106781186547 0.0
outer loop
vertex 0.883883476483184 0.883883476483185 10.1
vertex 1.08253175473055 0.625 0.0
vertex 1.08253175473055 0.625 10.1
endloop
endfacet
facet normal -0.866025403784439 -0.5 0.0
outer loop
vertex 1.08253175473055 0.625 0.0
vertex 0.883883476483184 0.883883476483185 10.1
vertex 0.883883476483184 0.883883476483185 0.0
endloop
endfacet
facet normal -0.866025403784439 -0.5 0.0
outer loop
vertex 1.08253175473055 0.625 10.1
vertex 1.20740728286134 0.323523806378151 0.0
vertex 1.20740728286134 0.323523806378151 10.1
endloop
endfacet
facet normal -0.965925826289068 -0.258819045102521 0.0
outer loop
vertex 1.20740728286134 0.323523806378151 0.0
vertex 1.08253175473055 0.625 10.1
vertex 1.08253175473055 0.625 0.0
endloop
endfacet
facet normal 0.258819045102521 -0.965925826289068 0.0
outer loop
vertex -0.323523806378151 1.20740728286134 10.1
vertex -0.625 1.08253175473055 0.0
vertex -0.323523806378151 1.20740728286134 0.0
endloop
endfacet
facet normal 0.5 -0.866025403784439 0.0
outer loop
vertex -0.625 1.08253175473055 0.0
vertex -0.323523806378151 1.20740728286134 10.1
vertex -0.625 1.08253175473055 10.1
endloop
endfacet
facet normal 0.5 0.866025403784438 0.0
outer loop
vertex -0.625000000000001 -1.08253175473055 10.1
vertex -0.323523806378152 -1.20740728286134 0.0
vertex -0.625000000000001 -1.08253175473055 0.0
endloop
endfacet
facet normal 0.258819045102521 0.965925826289068 0.0
outer loop
vertex -0.323523806378152 -1.20740728286134 0.0
vertex -0.625000000000001 -1.08253175473055 10.1
vertex -0.323523806378152 -1.20740728286134 10.1
endloop
endfacet
facet normal -0.707106781186548 -0.707106781186547 0.0
outer loop
vertex 0.883883476483184 0.883883476483185 10.1
vertex 0.625 1.08253175473055 0.0
vertex 0.883883476483184 0.883883476483185 0.0
endloop
endfacet
facet normal -0.5 -0.866025403784439 0.0
outer loop
vertex 0.625 1.08253175473055 0.0
vertex 0.883883476483184 0.883883476483185 10.1
vertex 0.625 1.08253175473055 10.1
endloop
endfacet
facet normal -0.5 -0.866025403784439 0.0
outer loop
vertex 0.625 1.08253175473055 10.1
vertex 0.323523806378151 1.20740728286134 0.0
vertex 0.625 1.08253175473055 0.0
endloop
endfacet
facet normal -0.258819045102521 -0.965925826289068 0.0
outer loop
vertex 0.323523806378151 1.20740728286134 0.0
vertex 0.625 1.08253175473055 10.1
vertex 0.323523806378151 1.20740728286134 10.1
endloop
endfacet
facet normal -0.258819045102521 -0.965925826289068 0.0
outer loop
vertex 0.323523806378151 1.20740728286134 10.1
vertex 0.0 1.25 0.0
vertex 0.323523806378151 1.20740728286134 0.0
endloop
endfacet
facet normal 4.45555494782345e-017 -1.0 0.0
outer loop
vertex 0.0 1.25 0.0
vertex 0.323523806378151 1.20740728286134 10.1
vertex 0.0 1.25 10.1
endloop
endfacet
facet normal 4.45555494782345e-017 -1.0 0.0
outer loop
vertex 0.0 1.25 10.1
vertex -0.323523806378151 1.20740728286134 0.0
vertex 0.0 1.25 0.0
endloop
endfacet
facet normal 0.258819045102521 -0.965925826289068 0.0
outer loop
vertex -0.323523806378151 1.20740728286134 0.0
vertex 0.0 1.25 10.1
vertex -0.323523806378151 1.20740728286134 10.1
endloop
endfacet
facet normal 0.965925826289068 0.258819045102521 0.0
outer loop
vertex 2.89777747886721 0.776457135307562 0.0
vertex 3.0 0.0 10.1
vertex 3.0 0.0 0.0
endloop
endfacet
facet normal 1.0 -2.40599967182466e-016 0.0
outer loop
vertex 3.0 0.0 10.1
vertex 2.89777747886721 0.776457135307562 0.0
vertex 2.89777747886721 0.776457135307562 10.1
endloop
endfacet
facet normal 0.707106781186548 0.707106781186547 0.0
outer loop
vertex -0.883883476483185 -0.883883476483184 10.1
vertex -0.625000000000001 -1.08253175473055 0.0
vertex -0.883883476483185 -0.883883476483184 0.0
endloop
endfacet
facet normal 0.5 0.866025403784438 0.0
outer loop
vertex -0.625000000000001 -1.08253175473055 0.0
vertex -0.883883476483185 -0.883883476483184 10.1
vertex -0.625000000000001 -1.08253175473055 10.1
endloop
endfacet
facet normal 0.258819045102521 0.965925826289068 0.0
outer loop
vertex -0.323523806378152 -1.20740728286134 10.1
vertex -3.52495810318487e-016 -1.25 0.0
vertex -0.323523806378152 -1.20740728286134 0.0
endloop
endfacet
facet normal 3.20799956243289e-016 1.0 0.0
outer loop
vertex -3.52495810318487e-016 -1.25 0.0
vertex -0.323523806378152 -1.20740728286134 10.1
vertex -3.52495810318487e-016 -1.25 10.1
endloop
endfacet
endsolid model
